<?xml version="1.0" encoding="UTF-8" standalone="no"?>
<svg
   xmlns:dc="http://purl.org/dc/elements/1.1/"
   xmlns:cc="http://creativecommons.org/ns#"
   xmlns:rdf="http://www.w3.org/1999/02/22-rdf-syntax-ns#"
   xmlns:svg="http://www.w3.org/2000/svg"
   xmlns="http://www.w3.org/2000/svg"
   xmlns:xlink="http://www.w3.org/1999/xlink"
   xmlns:sodipodi="http://sodipodi.sourceforge.net/DTD/sodipodi-0.dtd"
   xmlns:inkscape="http://www.inkscape.org/namespaces/inkscape"
   width="512"
   height="512"
   viewBox="0 0 136 136"
   version="1.1"
   id="svg5"
   xml:space="preserve"
   inkscape:version="1.0.2-2 (e86c870879, 2021-01-15)"
   sodipodi:docname="emoticons.svg"
   inkscape:export-xdpi="96"
   inkscape:export-ydpi="96"><metadata
     id="metadata135"><rdf:RDF><cc:Work
         rdf:about=""><dc:format>image/svg+xml</dc:format><dc:type
           rdf:resource="http://purl.org/dc/dcmitype/StillImage" /></cc:Work></rdf:RDF></metadata><sodipodi:namedview
     id="namedview7"
     pagecolor="#b2b2b2"
     bordercolor="#666666"
     borderopacity="1"
     inkscape:showpageshadow="false"
     inkscape:pageopacity="0"
     inkscape:pagecheckerboard="true"
     inkscape:deskcolor="#b2b2b2"
     inkscape:document-units="px"
     showgrid="false"
     inkscape:zoom="2"
     inkscape:cx="259.75"
     inkscape:cy="267"
     inkscape:window-width="1920"
     inkscape:window-height="1017"
     inkscape:window-x="-8"
     inkscape:window-y="-8"
     inkscape:window-maximized="1"
     inkscape:current-layer="svg5"
     inkscape:document-rotation="0" /><defs
     id="defs2"><linearGradient
       inkscape:collect="always"
       id="linearGradient51656"><stop
         style="stop-color:#add8ed;stop-opacity:1;"
         offset="0"
         id="stop51652" /><stop
         style="stop-color:#78c8ea;stop-opacity:1;"
         offset="1"
         id="stop51654" /></linearGradient><inkscape:path-effect
       effect="perspective-envelope"
       up_left_point="53.56976,111.17169"
       up_right_point="65.292908,111.4991"
       down_left_point="55.136628,123.06582"
       down_right_point="64.053445,124.04804"
       id="path-effect43225"
       is_visible="true"
       lpeversion="1"
       deform_type="perspective"
       horizontal_mirror="false"
       vertical_mirror="false"
       overflow_perspective="false" /><inkscape:path-effect
       effect="perspective-envelope"
       up_left_point="45.45297,112.52292"
       up_right_point="54.380348,111.18992"
       down_left_point="48.048826,121.627"
       down_right_point="56.227849,123.05355"
       id="path-effect42497"
       is_visible="true"
       lpeversion="1"
       deform_type="perspective"
       horizontal_mirror="false"
       vertical_mirror="false"
       overflow_perspective="false" /><inkscape:path-effect
       effect="perspective-envelope"
       up_left_point="37.810272,115.48737"
       up_right_point="45.839461,112.44466"
       down_left_point="41.630194,122.35632"
       down_right_point="48.898706,121.72794"
       id="path-effect41767"
       is_visible="true"
       lpeversion="1"
       deform_type="perspective"
       horizontal_mirror="false"
       vertical_mirror="false"
       overflow_perspective="false" /><radialGradient
       inkscape:collect="always"
       xlink:href="#linearGradient51656"
       id="radialGradient51658"
       cx="142.36842"
       cy="17.575317"
       fx="142.36842"
       fy="17.575317"
       r="4.228353"
       gradientTransform="matrix(0.75356265,0.24896493,-0.37954616,1.1488036,16.184852,-37.705816)"
       gradientUnits="userSpaceOnUse" /></defs><g
     inkscape:groupmode="layer"
     id="layer2"
     inkscape:label="Bubbles"
     style="display:inline;opacity:1"
     inkscape:highlight-color="#f3e121"
     sodipodi:insensitive="true"><path
       id="path360"
       style="display:inline;opacity:1;fill:#ffffff;fill-opacity:0.55;stroke-width:2.65838;stroke-linecap:square;stroke-linejoin:round;paint-order:stroke markers fill;stop-color:#000000"
       d="m 16.956071,7.4465739 a 12.328995,9.6517763 0 0 0 -12.3289633,9.6521241 12.328995,9.6517763 0 0 0 12.3289633,9.651607 12.328995,9.6517763 0 0 0 0.401526,-0.01137 c 0.17272,1.166524 0.120178,2.200798 -0.661458,3.877283 2.618544,-0.667041 3.879632,-2.473141 4.370275,-4.422986 a 12.328995,9.6517763 0 0 0 8.21862,-9.094535 12.328995,9.6517763 0 0 0 -12.328963,-9.6521241 z" /><path
       id="path2282"
       style="display:inline;opacity:1;fill:#ffffff;fill-opacity:0.55;stroke-width:2.83752;stroke-linecap:square;stroke-linejoin:round;paint-order:stroke markers fill;stop-color:#000000"
       d="m 51.076367,6.9788523 a 13.194283,10.27526 0 0 0 -13.194248,10.2756307 13.194283,10.27526 0 0 0 13.194248,10.27508 13.194283,10.27526 0 0 0 0.429706,-0.0121 c 0.184842,1.241879 0.128613,2.342965 -0.707881,4.127747 2.802322,-0.71013 4.151916,-2.632901 4.676995,-4.708701 A 13.194283,10.27526 0 0 0 64.270615,17.254482 13.194283,10.27526 0 0 0 51.076367,6.9788512 Z" /><path
       id="path2284"
       style="display:inline;opacity:1;fill:#ffffff;fill-opacity:0.55;stroke-width:2.82728;stroke-linecap:square;stroke-linejoin:round;paint-order:stroke markers fill;stop-color:#000000"
       d="m 118.82586,6.7917636 a 13.124124,10.255776 0 0 0 -13.1241,10.2561464 13.124124,10.255776 0 0 0 13.1241,10.255596 13.124124,10.255776 0 0 0 0.42741,-0.01208 c 0.18386,1.239524 0.12794,2.338522 -0.7041,4.11992 2.78741,-0.708784 4.12983,-2.627908 4.65211,-4.699773 a 13.124124,10.255776 0 0 0 8.74866,-9.663664 13.124124,10.255776 0 0 0 -13.12408,-10.2561465 z" /><path
       id="path2286"
       style="display:inline;opacity:1;fill:#ffffff;fill-opacity:0.55;stroke-width:2.83454;stroke-linecap:square;stroke-linejoin:round;paint-order:stroke markers fill;stop-color:#000000"
       d="M 17.172395,40.701585 A 13.141663,10.294744 0 0 0 4.0307579,50.996701 13.141663,10.294744 0 0 0 17.172395,61.291264 a 13.141663,10.294744 0 0 0 0.427986,-0.01213 c 0.184105,1.244234 0.128102,2.347407 -0.70505,4.135574 2.791142,-0.711477 4.135357,-2.637893 4.658338,-4.71763 A 13.141663,10.294744 0 0 0 30.314021,50.9967 13.141663,10.294744 0 0 0 17.172395,40.701585 Z" /><path
       id="path2288"
       style="display:inline;opacity:1;fill:#ffffff;fill-opacity:0.55;stroke-width:2.83483;stroke-linecap:square;stroke-linejoin:round;paint-order:stroke markers fill;stop-color:#000000"
       d="m 51.450547,41.356396 a 13.194283,10.255776 0 0 0 -13.194256,10.256146 13.194283,10.255776 0 0 0 13.194256,10.255596 13.194283,10.255776 0 0 0 0.429699,-0.01208 c 0.184842,1.239524 0.128615,2.338522 -0.707872,4.11992 2.802317,-0.708784 4.151915,-2.627908 4.676989,-4.699773 A 13.194283,10.255776 0 0 0 64.644791,51.612542 13.194283,10.255776 0 0 0 51.450547,41.356397 Z" /><path
       id="path2290"
       style="display:inline;opacity:1;fill:#ffffff;fill-opacity:0.55;stroke-width:2.8298;stroke-linecap:square;stroke-linejoin:round;paint-order:stroke markers fill;stop-color:#000000"
       d="m 84.518468,41.356395 a 13.14751,10.255777 0 0 0 -13.147482,10.256147 13.14751,10.255777 0 0 0 13.147482,10.255596 13.14751,10.255777 0 0 0 0.428178,-0.01208 c 0.184186,1.239524 0.128158,2.338523 -0.705363,4.119921 2.792383,-0.708784 4.137195,-2.627909 4.660409,-4.699773 a 13.14751,10.255777 0 0 0 8.76425,-9.663663 13.14751,10.255777 0 0 0 -13.147474,-10.256146 z" /><path
       id="path2292"
       style="display:inline;opacity:1;fill:#ffffff;fill-opacity:0.55;stroke-width:2.83633;stroke-linecap:square;stroke-linejoin:round;paint-order:stroke markers fill;stop-color:#000000"
       d="m 118.97303,40.930175 a 13.205429,10.257972 0 0 0 -13.20541,10.258341 13.205429,10.257972 0 0 0 13.20541,10.257793 13.205429,10.257972 0 0 0 0.43006,-0.01208 c 0.18499,1.239789 0.12872,2.339023 -0.70848,4.120802 2.80469,-0.708936 4.15543,-2.628471 4.68095,-4.700779 a 13.205429,10.257972 0 0 0 8.80286,-9.665733 13.205429,10.257972 0 0 0 -13.20539,-10.25834 z" /><path
       id="path2294"
       style="display:inline;opacity:1;fill:#ffffff;fill-opacity:0.55;stroke-width:2.82777;stroke-linecap:square;stroke-linejoin:round;paint-order:stroke markers fill;stop-color:#000000"
       d="M 17.167728,74.472467 A 13.073137,10.299304 0 0 0 4.0946168,84.772142 13.073137,10.299304 0 0 0 17.167728,95.071265 a 13.073137,10.299304 0 0 0 0.425754,-0.01213 c 0.183145,1.244785 0.127434,2.348447 -0.701373,4.137406 2.776588,-0.711792 4.113794,-2.639061 4.634047,-4.719719 a 13.073137,10.299304 0 0 0 8.714672,-9.704678 13.073137,10.299304 0 0 0 -13.0731,-10.299674 z" /><path
       id="path2296"
       style="display:inline;opacity:1;fill:#ffffff;fill-opacity:0.55;stroke-width:2.8368;stroke-linecap:square;stroke-linejoin:round;paint-order:stroke markers fill;stop-color:#000000"
       d="m 17.173402,108.48386 a 13.139282,10.313082 0 0 0 -13.1392565,10.31345 13.139282,10.313082 0 0 0 13.1392565,10.31291 13.139282,10.313082 0 0 0 0.427908,-0.0121 c 0.184072,1.24644 0.128079,2.35158 -0.704922,4.14293 2.790637,-0.71275 4.134608,-2.64259 4.657494,-4.72603 a 13.139282,10.313082 0 0 0 8.758766,-9.71767 13.139282,10.313082 0 0 0 -13.139246,-10.31344 z" /><path
       id="path2298"
       style="display:inline;opacity:1;fill:#ffffff;fill-opacity:0.55;stroke-width:2.8367;stroke-linecap:square;stroke-linejoin:round;paint-order:stroke markers fill;stop-color:#000000"
       d="m 51.388419,106.78177 a 13.155819,10.299304 0 0 0 -13.155794,10.29968 13.155819,10.299304 0 0 0 13.155794,10.29912 13.155819,10.299304 0 0 0 0.428447,-0.0122 c 0.184303,1.24478 0.128239,2.34845 -0.70581,4.1374 2.794149,-0.71179 4.139813,-2.63906 4.663356,-4.71971 a 13.155819,10.299304 0 0 0 8.769789,-9.70469 13.155819,10.299304 0 0 0 -13.155782,-10.29967 z" /><path
       id="path2300"
       style="display:inline;opacity:1;fill:#ffffff;fill-opacity:0.55;stroke-width:2.70609;stroke-linecap:square;stroke-linejoin:round;paint-order:stroke markers fill;stop-color:#000000"
       d="m 85.807544,105.44115 a 11.584853,10.643734 0 0 0 -11.584829,10.64412 11.584853,10.643734 0 0 0 11.584829,10.64355 11.584853,10.643734 0 0 0 0.377286,-0.0126 c 0.162295,1.28641 0.112926,2.42699 -0.621527,4.27577 2.460492,-0.73559 3.645466,-2.72732 4.106493,-4.87755 a 11.584853,10.643734 0 0 0 7.722568,-10.02923 11.584853,10.643734 0 0 0 -11.58482,-10.64411 z" /><path
       id="path6835"
       style="fill:#ffffff;fill-opacity:0.55;stroke:none;stroke-width:2.15416;stroke-linecap:square;stroke-linejoin:round;stroke-opacity:1;paint-order:stroke markers fill;stop-color:#000000"
       d="m 52.875326,71.735156 a 4.2416015,3.3072917 0 0 0 -4.2292,3.060795 3.8328424,3.4643881 0 0 0 -3.042191,-1.35754 3.8328424,3.4643881 0 0 0 -3.832841,3.464388 3.8328424,3.4643881 0 0 0 0.244946,1.212846 3.8328424,3.9439454 0 0 0 -2.989998,3.847311 3.8328424,3.9439454 0 0 0 2.623095,3.739823 4.1056938,3.9439454 0 0 0 -0.473356,1.832963 4.1056938,3.9439454 0 0 0 4.105693,3.943945 4.1056938,3.9439454 0 0 0 2.507857,-0.823722 3.6922824,3.274219 0 0 0 3.544487,2.361613 3.6922824,3.274219 0 0 0 2.713012,-1.053682 3.6592095,3.4643881 0 0 0 1.61954,0.359151 3.6592095,3.4643881 0 0 0 3.659208,-3.464388 3.6592095,3.4643881 0 0 0 -5.17e-4,-0.03617 3.6592095,4.0431643 0 0 0 0.541569,0.04444 3.6592095,4.0431643 0 0 0 3.659208,-4.043164 3.6592095,4.0431643 0 0 0 -1.680001,-3.400309 4.1304984,3.9770184 0 0 0 1.167371,-2.76779 4.1304984,3.9770184 0 0 0 -4.130497,-3.977018 4.1304984,3.9770184 0 0 0 -1.766817,0.382922 4.2416015,3.3072917 0 0 0 0.001,-0.01912 4.2416015,3.3072917 0 0 0 -4.241601,-3.307292 z" /><path
       id="path8318"
       style="fill:#ffffff;fill-opacity:0.55;stroke:none;stroke-width:2.32779;stroke-linecap:square;stroke-linejoin:round;stroke-opacity:1;paint-order:stroke markers fill;stop-color:#000000"
       d="m 119.77742,72.608667 a 4.6059921,3.5563932 0 0 0 -4.59253,3.291331 4.162117,3.7253218 0 0 0 -3.30354,-1.459788 4.162117,3.7253218 0 0 0 -4.16211,3.725322 4.162117,3.7253218 0 0 0 0.26599,1.304195 4.162117,4.2409989 0 0 0 -3.24687,4.137087 4.162117,4.2409989 0 0 0 2.84844,4.021502 4.4584088,4.2409989 0 0 0 -0.51403,1.971019 4.4584088,4.2409989 0 0 0 4.45841,4.240999 4.4584088,4.2409989 0 0 0 2.72331,-0.885764 4.0094817,3.5208295 0 0 0 3.84899,2.539487 4.0094817,3.5208295 0 0 0 2.94609,-1.133044 3.9735676,3.7253218 0 0 0 1.75866,0.386202 3.9735676,3.7253218 0 0 0 3.97357,-3.725322 3.9735676,3.7253218 0 0 0 -5.6e-4,-0.0389 3.9735676,4.3476908 0 0 0 0.58809,0.04779 3.9735676,4.3476908 0 0 0 3.97357,-4.34769 3.9735676,4.3476908 0 0 0 -1.82432,-3.656417 4.4853443,4.2765628 0 0 0 1.26765,-2.976256 4.4853443,4.2765628 0 0 0 -4.48534,-4.276563 4.4853443,4.2765628 0 0 0 -1.91861,0.411763 4.6059921,3.5563932 0 0 0 9.9e-4,-0.02057 4.6059921,3.5563932 0 0 0 -4.60599,-3.556394 z" /><path
       id="path8329"
       style="fill:#ffffff;fill-opacity:0.55;stroke:none;stroke-width:2.30685;stroke-linecap:square;stroke-linejoin:round;stroke-opacity:1;paint-order:stroke markers fill;stop-color:#000000"
       d="m 119.78476,105.05153 a 4.5655043,3.5236854 0 0 0 -4.55216,3.26106 4.1255309,3.6910604 0 0 0 -3.27451,-1.44635 4.1255309,3.6910604 0 0 0 -4.12552,3.69105 4.1255309,3.6910604 0 0 0 0.26365,1.2922 4.1255309,4.2019949 0 0 0 -3.21832,4.09904 4.1255309,4.2019949 0 0 0 2.82339,3.98452 4.4192183,4.2019949 0 0 0 -0.50951,1.95289 4.4192183,4.2019949 0 0 0 4.41923,4.20199 4.4192183,4.2019949 0 0 0 2.69937,-0.87761 3.9742373,3.4884488 0 0 0 3.81516,2.51613 3.9742373,3.4884488 0 0 0 2.92019,-1.12262 3.9386389,3.6910604 0 0 0 1.74319,0.38264 3.9386389,3.6910604 0 0 0 3.93865,-3.69105 3.9386389,3.6910604 0 0 0 -5.6e-4,-0.0385 3.9386389,4.3077056 0 0 0 0.58293,0.0474 3.9386389,4.3077056 0 0 0 3.93864,-4.3077 3.9386389,4.3077056 0 0 0 -1.80829,-3.62279 4.445917,4.2372317 0 0 0 1.25651,-2.94888 4.445917,4.2372317 0 0 0 -4.44592,-4.23724 4.445917,4.2372317 0 0 0 -1.90174,0.40798 4.5655043,3.5236854 0 0 0 9.9e-4,-0.0204 4.5655043,3.5236854 0 0 0 -4.56551,-3.52369 z" /><path
       style="fill:#ffffff;fill-opacity:0.55;stroke:none;stroke-width:0.264583px;stroke-linecap:butt;stroke-linejoin:miter;stroke-opacity:1"
       d="m 70.941405,91.611978 c 5.078928,-4.129709 3.718891,-5.792542 2.14974,-7.37526 2.97952,-0.06702 1.849822,-1.014542 -3.985287,-3.241146 6.592683,0.887836 7.443079,-0.990009 6.39961,-3.505729 6.039094,2.716035 1.943014,-3.025094 2.050521,-5.258594 l 4.001822,4.398698 0.959115,-1.719792 0.859896,0.926042 1.422135,-2.116667 0.959115,2.513542 3.169325,-3.375444 c 0.334241,1.372526 0.479888,2.780132 1.014399,4.152658 2.446355,-0.97995 3.418111,-2.100338 5.043619,-3.158464 -0.549362,1.576476 -1.307189,3.269882 -1.301192,4.846357 l 1.830359,-0.08386 c -0.619324,1.631415 -1.370547,3.300835 3.075781,3.472656 -3.22878,2.98987 -4.503387,3.070281 2.067067,7.871354 -7.322047,-3.933278 -5.237406,-0.680499 -2.430869,3.307292 -3.74939,-2.659367 -6.719059,-3.285365 -6.184635,2.711979 -2.283931,-4.156974 -3.977005,-4.823986 -4.547526,2.166276 -1.912977,-7.352052 -3.699216,-4.415276 -5.440495,-1.637109 0.943734,-5.065474 -2.082617,-4.65867 -5.986198,-3.042709 l 1.025261,-3.604948 c -2.482326,1.505474 -4.314341,1.623617 -6.151563,1.752868 z"
       id="path9068"
       sodipodi:nodetypes="cccccccccccccccccccccccc" /><path
       id="path8306"
       style="display:inline;opacity:1;fill:#ffffff;fill-opacity:0.55;stroke:none;stroke-width:2.01285;stroke-linecap:square;stroke-linejoin:round;stroke-opacity:1;paint-order:stroke markers fill;stop-color:#000000"
       d="m 53.29726,93.210682 a 1.4677762,1.4677762 0 0 0 -1.467865,1.467865 1.4677762,1.4677762 0 0 0 1.467865,1.467373 1.4677762,1.4677762 0 0 0 0.555793,-0.109586 0.95627844,0.95627844 0 0 0 0.867353,0.554319 0.95627844,0.95627844 0 0 0 0.956299,-0.955808 0.95627844,0.95627844 0 0 0 -0.912072,-0.955316 1.4677762,1.4677762 0 0 0 0,-9.82e-4 1.4677762,1.4677762 0 0 0 -1.467373,-1.467865 z" /><circle
       style="display:inline;opacity:1;fill:#ffffff;fill-opacity:0.55;stroke:none;stroke-width:2.11667;stroke-linecap:square;stroke-linejoin:round;stroke-opacity:1;paint-order:stroke markers fill;stop-color:#000000"
       id="path8310"
       cx="55.986282"
       cy="98.572342"
       r="0.70158249" /><path
       id="path8334"
       style="display:inline;opacity:1;fill:#ffffff;fill-opacity:0.55;stroke:none;stroke-width:1.65229;stroke-linecap:square;stroke-linejoin:round;stroke-opacity:1;paint-order:stroke markers fill;stop-color:#000000"
       d="m 122.15559,95.29703 a 1.2048533,1.2048533 0 0 0 -1.20492,1.204926 1.2048533,1.2048533 0 0 0 1.20492,1.204522 1.2048533,1.2048533 0 0 0 0.45623,-0.08995 0.78498017,0.78498017 0 0 0 0.71199,0.455023 0.78498017,0.78498017 0 0 0 0.785,-0.784594 0.78498017,0.78498017 0 0 0 -0.7487,-0.78419 1.2048533,1.2048533 0 0 0 0,-8.06e-4 1.2048533,1.2048533 0 0 0 -1.20452,-1.204926 z" /><circle
       style="display:inline;opacity:1;fill:#ffffff;fill-opacity:0.55;stroke:none;stroke-width:1.7874;stroke-linecap:square;stroke-linejoin:round;stroke-opacity:1;paint-order:stroke markers fill;stop-color:#000000"
       id="circle8336"
       cx="124.55599"
       cy="99.108109"
       r="0.59244442" /><path
       id="path8338"
       style="display:inline;opacity:1;fill:#ffffff;fill-opacity:0.55;stroke:none;stroke-width:1.65229;stroke-linecap:square;stroke-linejoin:round;stroke-opacity:1;paint-order:stroke markers fill;stop-color:#000000"
       d="m 122.11377,127.58152 a 1.2048533,1.2048533 0 0 0 -1.20492,1.20493 1.2048533,1.2048533 0 0 0 1.20492,1.20452 1.2048533,1.2048533 0 0 0 0.45623,-0.09 0.78498017,0.78498017 0 0 0 0.71199,0.45502 0.78498017,0.78498017 0 0 0 0.785,-0.78459 0.78498017,0.78498017 0 0 0 -0.7487,-0.78419 1.2048533,1.2048533 0 0 0 0,-8.1e-4 1.2048533,1.2048533 0 0 0 -1.20452,-1.20492 z" /><circle
       style="display:inline;opacity:1;fill:#ffffff;fill-opacity:0.55;stroke:none;stroke-width:1.7874;stroke-linecap:square;stroke-linejoin:round;stroke-opacity:1;paint-order:stroke markers fill;stop-color:#000000"
       id="circle8340"
       cx="124.55344"
       cy="131.36436"
       r="0.59244442" /></g><g
     inkscape:groupmode="layer"
     id="layer3"
     inkscape:label="Symbols"
     style="display:inline;opacity:1;mix-blend-mode:normal"
     transform="translate(0.12815755,-0.15709635)"><path
       id="rect68970"
       style="opacity:1;fill:#4d4d4d;fill-opacity:1;stroke:none;stroke-width:0.344002;stroke-linecap:square;stroke-linejoin:round;stroke-dasharray:none;stroke-opacity:1;paint-order:stroke markers fill;stop-color:#000000"
       d="m 111.9849,82.136588 -0.2496,1.947685 h -0.75809 l -1e-5,0.579293 h 0.6842 l -0.11317,0.882633 h -0.91054 l 10e-6,0.579293 h 0.83612 l -0.2496,1.947685 h 0.78962 l 0.2496,-1.947685 h 0.45578 l -0.2496,1.947685 h 0.78962 l 0.2496,-1.947685 h 0.68419 v -0.579293 h -0.6103 l 0.11317,-0.882633 h 0.83664 v -0.579293 h -0.76274 l 0.2496,-1.947685 h -0.7891 l -0.2496,1.947685 h -0.45579 l 0.2496,-1.947685 z m 0.46611,2.526978 h 0.45579 l -0.11317,0.882633 h -0.45579 z" /><path
       style="fill:#ffffff;fill-opacity:1;stroke:none;stroke-width:0.264583px;stroke-linecap:butt;stroke-linejoin:miter;stroke-opacity:1"
       d="m 119.32709,43.358593 c -3.67422,0.197302 -5.08735,3.16823 -4.96216,6.387457 0.23565,6.059571 -1.60348,5.924947 -1.15621,7.551912 0.69314,2.521343 3.68754,1.105858 5.6702,0.447099 2.14216,-0.711754 5.03378,1.43964 6.06794,-0.288012 1.40047,-2.339592 -1.39701,-1.558183 -0.90069,-6.248707 0.39095,-3.694729 -0.38715,-8.08237 -4.71908,-7.849749 z"
       id="path28106"
       sodipodi:nodetypes="sssssss" /><ellipse
       style="opacity:1;fill:#4d4d4d;fill-opacity:1;stroke:none;stroke-width:0.964999;stroke-linecap:round;stroke-linejoin:round;stroke-dasharray:none;stroke-opacity:1;paint-order:stroke markers fill;stop-color:#000000"
       id="path28214"
       cx="119.39808"
       cy="47.487862"
       rx="0.82197952"
       ry="1.9629951" /><ellipse
       style="opacity:1;fill:#4d4d4d;fill-opacity:1;stroke:none;stroke-width:0.933467;stroke-linecap:round;stroke-linejoin:round;stroke-dasharray:none;stroke-opacity:1;paint-order:stroke markers fill;stop-color:#000000"
       id="path28216"
       cx="121.52159"
       cy="47.532631"
       rx="0.69252497"
       ry="1.7597142" /><g
       id="g28291"
       style="display:inline;opacity:1"><path
         style="fill:#c83e44;fill-opacity:1;stroke:none;stroke-width:0.264583px;stroke-linecap:butt;stroke-linejoin:miter;stroke-opacity:1"
         d="m 18.891943,91.427305 0.830793,-0.872621 c -0.369524,-3.492538 2.971076,-5.846705 6.380976,-5.321855 l -0.817925,-0.864108 c -1.501447,-0.105908 -3.582433,0.602286 -4.890049,1.78738 -1.651867,1.497091 -2.110419,3.751165 -1.503795,5.271204 z"
         id="path14598"
         sodipodi:nodetypes="ccccsc" /><path
         style="fill:#c83e44;fill-opacity:1;stroke:none;stroke-width:0.264583px;stroke-linecap:butt;stroke-linejoin:miter;stroke-opacity:0.996078"
         d="m 10.091095,87.043002 0.619731,1.005602 c 3.522905,-0.03659 4.219662,2.066211 5.355413,4.373197 l 0.128624,-1.508402 c -1.372109,-3.35463 -4.276553,-4.065336 -6.103768,-3.870397 z"
         id="path16466"
         sodipodi:nodetypes="ccccc" /><path
         style="fill:#c83e44;fill-opacity:1;stroke:none;stroke-width:0.264583px;stroke-linecap:butt;stroke-linejoin:miter;stroke-opacity:0.996078"
         d="m 9.9040062,83.920961 c 0.2039998,0.371375 0.4609818,0.697336 0.9705228,0.806818 2.646199,-1.302273 4.294966,-2.996977 3.157121,-5.788054 l -0.736662,-1.145918 c 0.743131,2.803037 0.0052,5.004741 -3.3909818,6.127154 z"
         id="path16468"
         sodipodi:nodetypes="ccccc" /><path
         style="fill:#c83e44;fill-opacity:1;stroke:none;stroke-width:0.264583px;stroke-linecap:butt;stroke-linejoin:miter;stroke-opacity:0.996078"
         d="m 17.153692,78.07444 0.514494,0.619731 c 0.629573,1.129071 1.660203,3.80688 5.209251,2.502312 l 0.929596,0.526185 C 20.36623,84.05105 16.688006,81.134003 17.153692,78.07444 Z"
         id="path16470"
         sodipodi:nodetypes="ccccc" /></g><path
       style="display:inline;opacity:1;fill:#4d4d4d;fill-opacity:1;stroke:none;stroke-width:0.264583px;stroke-linecap:butt;stroke-linejoin:miter;stroke-opacity:1"
       d="M 51.196875,17.197916 52.685156,17.826302 58.737499,7.6398437 54.471093,5.8208333 Z"
       id="path14536"
       sodipodi:nodetypes="ccccc" /><ellipse
       style="display:inline;opacity:1;fill:#4d4d4d;fill-opacity:1;stroke:none;stroke-width:1.93312;stroke-linecap:square;stroke-linejoin:round;stroke-opacity:1;paint-order:stroke markers fill;stop-color:#000000"
       id="path14590"
       cx="50.948826"
       cy="20.645769"
       rx="0.97565109"
       ry="1.0666015" /><path
       d="m 7.9164106,15.652968 q -0.1763842,-0.08049 -0.4110369,-0.08517 -0.230716,-0.0065 -0.4693061,0.05119 -0.184257,0.04428 -0.3551287,0.209354 -0.1669353,0.163234 -0.2622123,0.371472 -0.1338617,0.335333 -0.2015798,0.712203 -0.065356,0.369705 -0.072441,0.754384 -0.00709,0.384678 0.043311,0.76654 0.048822,0.376551 0.1456758,0.718408 0.096859,0.341857 0.2354417,0.627774 0.1385874,0.285916 0.3055224,0.485865 0.1031531,0.120987 0.2401655,0.189728 0.1370121,0.06874 0.2653626,0.09314 0.1566977,0.02922 0.3267821,-0.0023 0.1716577,-0.02624 0.3275699,-0.07533 0.2338666,-0.07364 0.3897751,-0.213542 0.1574847,-0.134582 0.266149,-0.373325 0.1503976,-0.385479 0.1897675,-0.857977 0.043307,-0.474347 0.00157,-0.963185 Q 8.8424273,17.566155 8.7321868,17.103478 8.6203716,16.635486 8.4620965,16.268029 8.3613032,16.049083 8.236891,15.901778 8.1148393,15.747307 7.9164078,15.652965 Z m -0.4763911,0.829315 q 0.088193,-0.0052 0.1803209,0.169441 0.094491,0.167429 0.1732347,0.43306 0.077168,0.260318 0.1354374,0.577946 0.056694,0.312317 0.079531,0.586075 0.030711,0.330588 0.025199,0.629783 -0.00316,0.292029 -0.041732,0.509925 -0.038583,0.217895 -0.1039394,0.345477 -0.065358,0.127573 -0.1590608,0.129264 -0.1015778,0.0054 -0.1976446,-0.137083 -0.096066,-0.142475 -0.1716599,-0.367216 -0.077167,-0.230052 -0.13229,-0.506788 -0.056696,-0.282051 -0.075595,-0.557661 -0.020473,-0.280923 -0.014176,-0.592594 0.00866,-0.318835 0.044882,-0.590096 0.03622,-0.271263 0.1007891,-0.446898 0.062995,-0.180949 0.1566963,-0.182642 z"
       style="font-size:10.5833px;line-height:1.25;font-family:'Komika Axis';-inkscape-font-specification:'Komika Axis';letter-spacing:0px;word-spacing:0px;display:inline;opacity:1;fill:#4d4d4d;fill-opacity:1;stroke:none;stroke-width:0.122046"
       id="path1394" /><path
       d="m 11.828255,14.62048 q -0.222206,-0.08534 -0.528435,-0.08938 -0.300889,-0.006 -0.618727,0.05668 -0.245427,0.0481 -0.485878,0.225347 -0.2351108,0.175251 -0.3812271,0.398319 -0.2097188,0.359144 -0.3372845,0.762429 -0.1237362,0.395615 -0.1728599,0.807002 -0.049124,0.411387 -0.022823,0.819523 0.024797,0.402462 0.1159659,0.767629 0.091142,0.365176 0.2426894,0.670335 0.1515156,0.305172 0.3489975,0.518297 0.1222917,0.128948 0.2942557,0.201892 0.171963,0.07294 0.3372,0.0985 0.201793,0.0306 0.427373,-0.0038 0.227097,-0.02868 0.435971,-0.08191 0.313315,-0.07972 0.531596,-0.229971 0.219792,-0.14457 0.386567,-0.400316 0.236528,-0.412837 0.336949,-0.918263 0.105761,-0.507425 0.101867,-1.029992 -6.3e-5,-0.530237 -0.09621,-1.024548 -0.09765,-0.499987 -0.266453,-0.892272 -0.109048,-0.233714 -0.256411,-0.390718 -0.143528,-0.164676 -0.393115,-0.264741 z m -0.708621,0.888801 q 0.115804,-0.006 0.218137,0.180447 0.106159,0.178649 0.181559,0.462377 0.07389,0.278049 0.117139,0.617466 0.04174,0.333741 0.04322,0.626392 0.0059,0.353388 -0.03232,0.673354 -0.03437,0.312294 -0.107389,0.545463 -0.073,0.233164 -0.171659,0.369865 -0.09865,0.136694 -0.221303,0.138885 -0.133329,0.0062 -0.244132,-0.145773 -0.110806,-0.15196 -0.186322,-0.391971 -0.07703,-0.245686 -0.120396,-0.54139 -0.04487,-0.301379 -0.04101,-0.596024 0.0023,-0.30032 0.04288,-0.633633 0.04436,-0.340981 0.119812,-0.631205 0.07545,-0.290227 0.178052,-0.47831 0.101088,-0.193759 0.223744,-0.195953 z"
       style="font-size:10.5833px;line-height:1.25;font-family:'Komika Axis';-inkscape-font-specification:'Komika Axis';letter-spacing:0px;word-spacing:0px;display:inline;opacity:1;fill:#4d4d4d;fill-opacity:1;stroke-width:0.144267"
       id="path1396" /><path
       d="m 17.06625,13.678465 q -0.268647,-0.136298 -0.65819,-0.192676 -0.382403,-0.05778 -0.798087,-0.03891 -0.32093,0.01422 -0.65748,0.178712 -0.329407,0.163096 -0.553536,0.396562 -0.328316,0.380191 -0.559453,0.825339 -0.224953,0.436919 -0.357507,0.904689 -0.132556,0.467771 -0.168442,0.944518 -0.03684,0.469928 0.01724,0.907905 0.05407,0.43798 0.19527,0.816719 0.141182,0.378743 0.356591,0.658727 0.133913,0.169875 0.340643,0.28333 0.20673,0.113459 0.412949,0.170934 0.251937,0.06949 0.545258,0.06773 0.294277,0.0051 0.569487,-0.02117 0.412815,-0.03927 0.716525,-0.17634 0.304666,-0.130177 0.560676,-0.397971 0.371613,-0.437797 0.585529,-1.005731 0.22106,-0.569343 0.304959,-1.174728 0.09008,-0.613617 0.05162,-1.201883 -0.03942,-0.59509 -0.187817,-1.07756 -0.09923,-0.288875 -0.260304,-0.495454 -0.154891,-0.214809 -0.455932,-0.372759 z m -1.054143,0.908865 q 0.148574,0.01277 0.247289,0.245659 0.104899,0.224667 0.152733,0.565736 0.04688,0.334248 0.04427,0.734333 -0.0036,0.393268 -0.05144,0.732176 -0.0526,0.409943 -0.155694,0.773765 -0.09691,0.355591 -0.229602,0.613086 -0.132689,0.257495 -0.28164,0.399028 -0.148952,0.141531 -0.305624,0.123352 -0.170954,-0.01536 -0.286313,-0.209924 -0.115352,-0.194565 -0.170775,-0.485067 -0.05638,-0.297324 -0.06136,-0.646844 -0.006,-0.356335 0.04908,-0.69666 0.05407,-0.347144 0.16239,-0.726015 0.114513,-0.387102 0.260016,-0.710214 0.145503,-0.323113 0.308227,-0.523441 0.161767,-0.207148 0.318439,-0.188972 z"
       style="font-size:10.5833px;line-height:1.25;font-family:'Komika Axis';-inkscape-font-specification:'Komika Axis';letter-spacing:0px;word-spacing:0px;display:inline;opacity:1;fill:#4d4d4d;fill-opacity:1;stroke-width:0.176889"
       id="path1398" /><path
       d="m 20.506908,18.309235 q 0.634998,-0.125329 1.280579,-0.297654 0.656165,-0.18016 1.24883,-0.399484 0.592664,-0.219324 1.090079,-0.469981 0.507999,-0.250656 0.867831,-0.516978 0.222249,-0.164494 0.402165,-0.336819 0.1905,-0.172327 0.306916,-0.360319 0.127,-0.187992 0.15875,-0.399483 0.04233,-0.211491 -0.03175,-0.454315 -0.169333,-0.493479 -0.476249,-0.830298 -0.296332,-0.344653 -0.656164,-0.642307 -0.306916,-0.219324 -0.730248,-0.305488 -0.412749,-0.094 -0.89958,-0.08616 -0.486832,0.0078 -1.015997,0.101829 -0.518582,0.08616 -1.037164,0.227158 -0.518581,0.133161 -1.005413,0.305487 -0.486832,0.164493 -0.888997,0.321154 -0.105833,0.03917 -0.1905,0.39165 -0.07408,0.344652 -0.137583,0.861631 -0.0635,0.516978 -0.126999,1.127953 -0.0635,0.610975 -0.127,1.182784 -0.0635,0.563977 -0.137583,1.010459 -0.08467,0.446481 -0.179916,0.634473 -0.0635,0.203658 0.04233,0.328986 0.09525,0.125328 0.296333,0.211492 0.201083,0.07833 0.455082,0.125327 0.264582,0.05483 0.539748,0.109663 0.275166,0.03917 0.370416,0 0.09525,-0.03917 0.148166,-0.164494 0.08467,-0.399483 0.190499,-0.814632 0.116416,-0.41515 0.243416,-0.861631 z m 0.455082,-1.472606 q 0.158749,-0.493479 0.306916,-0.947793 0.158749,-0.454315 0.328082,-0.877298 0.391582,-0.125328 0.761997,-0.187992 0.380999,-0.06267 0.677332,-0.0705 0.306915,-0.0078 0.497415,0.047 0.201082,0.047 0.232832,0.140994 0.08467,0.172326 -0.0635,0.422983 -0.148167,0.250656 -0.507999,0.524812 -0.359832,0.266322 -0.920747,0.524811 -0.560915,0.250656 -1.312328,0.422983 z"
       style="font-size:10.5833px;line-height:1.25;font-family:'Komika Axis';-inkscape-font-specification:'Komika Axis';letter-spacing:0px;word-spacing:0px;display:inline;opacity:1;fill:#4d4d4d;fill-opacity:1;stroke-width:0.227623"
       id="path1400" /><ellipse
       style="display:inline;opacity:1;fill:#4d4d4d;fill-opacity:1;stroke:none;stroke-width:2.11667;stroke-linecap:square;stroke-linejoin:round;stroke-opacity:1;paint-order:stroke markers fill;stop-color:#000000"
       id="path2196"
       cx="25.502525"
       cy="21.743212"
       rx="0.63142425"
       ry="0.64896381" /><path
       style="display:inline;opacity:1;fill:#4d4d4d;fill-opacity:1;stroke:none;stroke-width:0.264583px;stroke-linecap:butt;stroke-linejoin:miter;stroke-opacity:1"
       d="m 25.79485,19.445528 0.841899,0.362485 3.987327,-6.244085 -2.595856,-1.145918 z"
       id="path2198" /><path
       style="display:inline;opacity:1;fill:#c1262e;fill-opacity:0.668657;stroke:none;stroke-width:0.264583px;stroke-linecap:butt;stroke-linejoin:miter;stroke-opacity:1"
       d="m 84.327669,10.36836 c 0,0 -1.726452,-1.3127945 -3.332097,-0.5622404 -1.751945,0.8189414 -2.702136,2.4183594 -1.761133,5.1759114 0.926333,2.714563 5.4653,4.101042 5.4653,4.101042 0,0 3.066622,-0.832751 5.043619,-2.215885 2.040297,-1.427419 4.267059,-5.585287 1.07487,-8.3178392 -3.296685,-2.8220021 -6.044075,0.6807378 -6.490559,1.8190112 z"
       id="path9829"
       sodipodi:nodetypes="csscssc" /><path
       style="display:inline;opacity:1;fill:#c1262e;fill-opacity:0.668657;stroke:none;stroke-width:0.126081px;stroke-linecap:butt;stroke-linejoin:miter;stroke-opacity:1"
       d="m 87.465707,20.698975 c 0,0 -0.829544,-0.618634 -1.594153,-0.257133 -0.834276,0.394438 -1.282718,1.157344 -0.823437,2.464893 0.452121,1.287164 2.625838,1.932337 2.625838,1.932337 0,0 1.462425,-0.404963 2.402267,-1.068184 0.969934,-0.684456 2.019423,-2.66698 0.484536,-3.955863 -1.585131,-1.331077 -2.885683,0.341699 -3.095051,0.88395 z"
       id="path10626"
       sodipodi:nodetypes="csscssc" /><path
       style="display:inline;opacity:1;fill:#c1262e;fill-opacity:0.668657;stroke:none;stroke-width:0.0839155px;stroke-linecap:butt;stroke-linejoin:miter;stroke-opacity:1"
       d="m 84.315015,26.960013 c 0,0 -0.514745,-0.453125 -1.030534,-0.242028 -0.562786,0.230329 -0.889738,0.725895 -0.647564,1.628011 0.238398,0.888052 1.63052,1.416847 1.63052,1.416847 0,0 0.973812,-0.210439 1.617521,-0.617617 0.66432,-0.420215 1.438229,-1.712991 0.49221,-2.648733 -0.976988,-0.966374 -1.901251,0.106586 -2.062153,0.46352 z"
       id="path10628"
       sodipodi:nodetypes="csscssc" /><circle
       style="display:inline;opacity:1;fill:#4d4d4d;fill-opacity:1;stroke:none;stroke-width:2.11667;stroke-linecap:square;stroke-linejoin:round;stroke-opacity:1;paint-order:stroke markers fill;stop-color:#000000"
       id="path14592"
       cx="22.952604"
       cy="52.585934"
       r="2.0835936" /><circle
       style="display:inline;opacity:1;fill:#4d4d4d;fill-opacity:1;stroke:none;stroke-width:1.31032;stroke-linecap:square;stroke-linejoin:round;stroke-opacity:1;paint-order:stroke markers fill;stop-color:#000000"
       id="circle14594"
       cx="11.27373"
       cy="53.561584"
       r="1.2898436" /><circle
       style="display:inline;opacity:1;fill:#4d4d4d;fill-opacity:1;stroke:none;stroke-width:1.67856;stroke-linecap:square;stroke-linejoin:round;stroke-opacity:1;paint-order:stroke markers fill;stop-color:#000000"
       id="circle14596"
       cx="16.792847"
       cy="53.082169"
       r="1.6523279" /><path
       style="display:inline;opacity:1;fill:#4d4d4d;fill-opacity:1;stroke:none;stroke-width:0.264583px;stroke-linecap:butt;stroke-linejoin:miter;stroke-opacity:1"
       d="m 47.827376,74.320973 c 1.870451,1.891406 3.543566,3.89036 3.320825,1.239462 0.496672,1.315627 0.825154,2.028558 1.718877,0.26894 -0.08615,2.845146 2.012541,1.027894 2.742191,0.30035 -1.135213,4.397356 1.771392,2.102175 3.512166,1.660899 -1.984506,1.86782 -3.845012,3.575688 -1.214656,4.925954 -1.600789,0.278002 -3.330915,0.267615 0.748355,4.911077 -3.133841,-2.803772 -4.517285,-3.213683 -3.975634,-0.65481 -1.30181,-1.300678 -1.959064,-1.780522 -1.76883,0.648203 -1.05138,-2.471148 -1.191137,-1.700301 -0.945375,2.794982 -0.626747,-4.622644 -1.298585,-4.606799 -3.032926,-3.717972 0.248539,-1.857136 -1.7726,-0.653654 -3.426061,0.15201 2.211215,-2.768241 2.672578,-3.995966 0.175396,-2.671861 1.045291,-0.991665 1.34126,-1.878274 -0.251399,-2.034588 3.834205,-0.810098 -1.075652,-1.213625 -2.683556,-1.648719 6.243612,-0.01201 4.703454,-0.398373 1.619488,-1.660414 1.688117,0.329851 3.472279,0.841332 1.426552,-0.654808 2.269841,0.851512 2.467404,0.305048 1.748108,-0.777588 2.850692,0.84074 2.183336,-0.4429 0.286479,-3.081117 z"
       id="path18857"
       sodipodi:nodetypes="ccccccccccccccccccc" /><path
       id="path20363"
       style="display:inline;opacity:1;fill:#ffffff;fill-opacity:0.997015;stroke:none;stroke-width:2.60832;stroke-linecap:square;stroke-linejoin:round;stroke-opacity:0.996078;paint-order:stroke markers fill;stop-color:#000000"
       d="m 52.782762,79.412724 -0.957802,1.491382 a 0.78314521,1.5902537 0 0 0 -9.5e-4,0.05839 0.78314521,1.5902537 0 0 0 0.783522,1.590601 0.78314521,1.5902537 0 0 0 0.783031,-1.590601 0.78314521,1.5902537 0 0 0 -0.60777,-1.549776 z" /><path
       id="path20472"
       style="display:inline;opacity:1;fill:#ffffff;fill-opacity:0.997015;stroke:none;stroke-width:2.60832;stroke-linecap:square;stroke-linejoin:round;stroke-opacity:0.996078;paint-order:stroke markers fill;stop-color:#000000"
       d="m 50.443337,79.412724 0.957802,1.491382 a 0.78314521,1.5902537 0 0 1 9.5e-4,0.05839 0.78314521,1.5902537 0 0 1 -0.783522,1.590601 0.78314521,1.5902537 0 0 1 -0.783031,-1.590601 0.78314521,1.5902537 0 0 1 0.60777,-1.549776 z" /><path
       style="display:inline;opacity:1;fill:none;stroke:#4d4d4d;stroke-width:0.965;stroke-linecap:round;stroke-linejoin:miter;stroke-dasharray:none;stroke-opacity:1"
       d="m 81.756249,115.19297 c 0.471197,-5.0507 6.50577,-4.329 6.449219,0.13229"
       id="path21974"
       sodipodi:nodetypes="cc" /><path
       style="display:inline;opacity:1;fill:none;stroke:#4d4d4d;stroke-width:0.965;stroke-linecap:round;stroke-linejoin:miter;stroke-dasharray:none;stroke-opacity:1"
       d="m 89.495311,115.45755 c -0.166308,-3.74846 5.172703,-4.36457 5.55625,-0.0331"
       id="path21976"
       sodipodi:nodetypes="cc" /><g
       aria-label="?"
       transform="matrix(1.0013436,0.02860197,-0.02850201,0.99784408,0,0)"
       id="text21980"
       style="font-size:15.0322px;line-height:1.25;font-family:'Komika Axis';-inkscape-font-specification:'Komika Axis';letter-spacing:0px;word-spacing:0px;display:inline;opacity:1;fill:#4d4d4d;stroke-width:0.375804"><path
         d="m 120.06657,114.74501 q 0.31567,0.13529 0.69148,0.28561 0.3758,0.15033 0.69148,0.21046 0.31568,0.0601 0.51109,0 0.21046,-0.0752 0.19542,-0.36078 0.0902,-0.63135 0.34574,-1.08232 0.27058,-0.46599 0.63136,-0.81173 0.3758,-0.34575 0.81174,-0.61632 0.43593,-0.27058 0.87186,-0.52613 0.45097,-0.27058 0.85684,-0.54116 0.4209,-0.28561 0.75161,-0.64639 0.33071,-0.36077 0.60129,-0.85683 0.28561,-0.49606 0.34574,-1.08232 0.0752,-0.60129 -0.13529,-1.27774 -0.19542,-0.67645 -0.79671,-1.41302 -0.28561,-0.37581 -0.72155,-0.70652 -0.4209,-0.34574 -0.97709,-0.57122 -0.54116,-0.22548 -1.18754,-0.30064 -0.64639,-0.0752 -1.3529,0.0601 -1.17251,0.21046 -2.17967,0.94703 -0.99212,0.73658 -1.74373,1.87903 -0.24052,0.36077 -0.33071,0.61632 -0.0902,0.24051 -0.0451,0.40587 0.0301,0.16535 0.16536,0.28561 0.12025,0.10522 0.31567,0.18039 0.75161,0.31567 1.53329,0.27058 0.7967,-0.0601 1.32283,-0.49607 0.36077,-0.28561 0.70651,-0.57122 0.36078,-0.30064 0.69148,-0.52613 0.34574,-0.24051 0.67645,-0.39083 0.34574,-0.15033 0.69148,-0.15033 0.24052,0 0.45097,0.13529 0.21045,0.12026 0.25555,0.4209 0.0601,0.43594 -0.34574,1.03723 -0.40587,0.60128 -1.53329,1.27773 -0.43593,0.28562 -0.99212,0.64639 -0.54116,0.36077 -1.02219,0.82677 -0.48103,0.466 -0.82677,1.06729 -0.34574,0.60128 -0.39084,1.38296 -0.0451,0.39083 0.0451,0.60129 0.0902,0.21045 0.4209,0.39083 z m -1.23264,2.05941 q -0.0301,0.34574 0.0752,0.60129 0.12026,0.25555 0.33071,0.43594 0.22548,0.19541 0.51109,0.30064 0.30065,0.10523 0.63135,0.15032 0.75161,0.10523 1.21761,-0.16535 0.466,-0.27058 0.58626,-0.69148 0.0301,-0.0451 0.0301,-0.18039 v -0.22548 q 0,-0.18039 -0.0601,-0.34574 -0.0451,-0.18039 -0.18038,-0.34574 -0.13529,-0.16536 -0.37581,-0.30065 -0.22548,-0.15032 -0.58625,-0.25555 -0.48103,-0.13529 -0.8869,-0.10522 -0.39084,0.0301 -0.67645,0.19542 -0.28561,0.15032 -0.45097,0.40587 -0.15032,0.24051 -0.16535,0.52612 z"
         id="path416" /></g><g
       aria-label="?"
       transform="matrix(0.87701414,0.48410048,-0.48240863,0.87394915,0,0)"
       id="text21988"
       style="font-size:8.81426px;line-height:1.25;font-family:'Komika Axis';-inkscape-font-specification:'Komika Axis';letter-spacing:0px;word-spacing:0px;display:inline;opacity:1;fill:#4d4d4d;stroke-width:0.220356"><path
         d="m 165.54733,46.743518 q 0.1851,0.07933 0.40545,0.167471 0.22036,0.08814 0.40546,0.123399 0.1851,0.03526 0.29969,0 0.12339,-0.04407 0.11458,-0.211542 0.0529,-0.370199 0.20273,-0.634627 0.15866,-0.273242 0.3702,-0.47597 0.22035,-0.202727 0.47597,-0.361384 0.25561,-0.158657 0.51122,-0.308499 0.26443,-0.158657 0.50242,-0.317314 0.2468,-0.167471 0.44071,-0.379013 0.19391,-0.211542 0.35257,-0.502413 0.16747,-0.29087 0.20273,-0.634626 0.0441,-0.352571 -0.0793,-0.749212 -0.11459,-0.396642 -0.46716,-0.828541 -0.16747,-0.220356 -0.42308,-0.41427 -0.2468,-0.202728 -0.57293,-0.334942 -0.31731,-0.132214 -0.69632,-0.176285 -0.37902,-0.04407 -0.79329,0.03526 -0.68751,0.1234 -1.27806,0.555298 -0.58175,0.431899 -1.02246,1.101783 -0.14103,0.211542 -0.19391,0.361385 -0.0529,0.141028 -0.0264,0.237985 0.0176,0.09696 0.097,0.16747 0.0705,0.0617 0.1851,0.105772 0.44071,0.185099 0.89906,0.158656 0.46715,-0.03526 0.77565,-0.29087 0.21154,-0.167471 0.41427,-0.334942 0.21154,-0.176285 0.40546,-0.308499 0.20272,-0.141028 0.39664,-0.229171 0.20273,-0.08814 0.40545,-0.08814 0.14103,0 0.26443,0.07933 0.1234,0.07051 0.14984,0.246799 0.0353,0.255614 -0.20272,0.608184 -0.23799,0.35257 -0.89906,0.749212 -0.25561,0.167471 -0.58174,0.379013 -0.31731,0.211542 -0.59937,0.484784 -0.28205,0.273242 -0.48478,0.625813 -0.20273,0.35257 -0.22917,0.810912 -0.0265,0.22917 0.0264,0.35257 0.0529,0.1234 0.2468,0.229171 z m -0.72277,1.207553 q -0.0176,0.202728 0.0441,0.352571 0.0705,0.149842 0.19391,0.255613 0.13222,0.114586 0.29969,0.176285 0.17628,0.0617 0.3702,0.08814 0.44071,0.0617 0.71395,-0.09696 0.27324,-0.158656 0.34376,-0.405456 0.0176,-0.02644 0.0176,-0.105771 v -0.132214 q 0,-0.105771 -0.0353,-0.202728 -0.0264,-0.105771 -0.10577,-0.202728 -0.0793,-0.09696 -0.22036,-0.176285 -0.13221,-0.08814 -0.34375,-0.149842 -0.28206,-0.07933 -0.52004,-0.0617 -0.22918,0.01763 -0.39665,0.114585 -0.16747,0.08814 -0.26442,0.237985 -0.0881,0.141028 -0.097,0.308499 z"
         id="path422" /></g><g
       aria-label="?"
       transform="matrix(0.88001382,-0.47862588,0.47695318,0.87693833,0,0)"
       id="text21992"
       style="font-size:10.5783px;line-height:1.25;font-family:'Komika Axis';-inkscape-font-specification:'Komika Axis';letter-spacing:0px;word-spacing:0px;display:inline;opacity:1;fill:#4d4d4d;stroke-width:0.264457"><path
         d="m 39.987438,160.58045 q 0.222144,0.0952 0.486601,0.20099 0.264458,0.10578 0.486602,0.1481 0.222144,0.0423 0.359662,0 0.148097,-0.0529 0.137518,-0.25388 0.06347,-0.44429 0.243301,-0.76164 0.19041,-0.32793 0.444289,-0.57123 0.264457,-0.2433 0.571228,-0.43371 0.306771,-0.19041 0.613541,-0.37024 0.31735,-0.19041 0.602964,-0.38082 0.296192,-0.20099 0.528915,-0.45486 0.232722,-0.25388 0.423132,-0.60297 0.200987,-0.34908 0.243301,-0.76164 0.05289,-0.42313 -0.0952,-0.89915 -0.137518,-0.47602 -0.56065,-0.99436 -0.200988,-0.26446 -0.507758,-0.49718 -0.296193,-0.2433 -0.68759,-0.40198 -0.380819,-0.15867 -0.835686,-0.21156 -0.454867,-0.0529 -0.952047,0.0423 -0.825107,0.1481 -1.533853,0.66643 -0.698168,0.51834 -1.227083,1.32229 -0.169253,0.25388 -0.232723,0.43371 -0.06347,0.16925 -0.03173,0.28562 0.02116,0.11636 0.116362,0.20098 0.08463,0.074 0.222144,0.12694 0.528915,0.22215 1.078987,0.19041 0.560649,-0.0423 0.93089,-0.34908 0.253879,-0.20099 0.49718,-0.40198 0.253879,-0.21156 0.486602,-0.37024 0.243301,-0.16925 0.476023,-0.27503 0.243301,-0.10579 0.486602,-0.10579 0.169253,0 0.317349,0.0952 0.148096,0.0846 0.179831,0.29619 0.04231,0.30677 -0.243301,0.7299 -0.285614,0.42314 -1.078986,0.89916 -0.306771,0.20099 -0.698168,0.45487 -0.380819,0.25388 -0.719324,0.5818 -0.338506,0.32793 -0.581807,0.75106 -0.243301,0.42313 -0.275036,0.97321 -0.03173,0.27503 0.03174,0.42313 0.06347,0.14809 0.296193,0.27503 z m -0.867421,1.44923 q -0.02116,0.2433 0.05289,0.42313 0.08463,0.17983 0.232723,0.30677 0.158675,0.13752 0.359662,0.21157 0.211566,0.074 0.444289,0.10578 0.528915,0.074 0.856842,-0.11636 0.327928,-0.19041 0.412554,-0.4866 0.02116,-0.0317 0.02116,-0.12694 v -0.15868 q 0,-0.12693 -0.04231,-0.2433 -0.03174,-0.12694 -0.126939,-0.2433 -0.0952,-0.11636 -0.264458,-0.21156 -0.158674,-0.10579 -0.412554,-0.17983 -0.338505,-0.0952 -0.624119,-0.074 -0.275036,0.0212 -0.476024,0.13752 -0.200987,0.10578 -0.317349,0.28561 -0.105783,0.16925 -0.116361,0.37024 z"
         id="path419" /></g><path
       style="display:inline;opacity:1;fill:url(#radialGradient51658);fill-opacity:1;stroke:none;stroke-width:0.264583px;stroke-linecap:butt;stroke-linejoin:miter;stroke-opacity:1"
       d="m 115.85714,10.004557 c 3.25225,3.258372 -2.46139,6.909459 -1.2692,11.243625 1.16648,4.240652 6.25264,3.286507 7.65436,-0.197398 2.02868,-5.042167 -3.15626,-9.76675 -6.38516,-11.046227 z"
       id="path22778"
       sodipodi:nodetypes="cssc" /><path
       d="m 72.526105,54.186667 q -0.05389,0.08503 -0.01266,0.194255 0.04725,0.101178 0.30356,0.264531 0.494318,0.338192 0.872673,0.42919 0.376185,0.08525 0.699286,-0.01804 0.243426,-0.07456 0.389024,-0.204418 0.145617,-0.129814 0.224999,-0.27921 0.07721,-0.155141 0.0988,-0.313758 0.02159,-0.158618 0.01694,-0.290809 0.0025,-0.185064 -0.07627,-0.321892 -0.0769,-0.143723 -0.212769,-0.251843 -0.133952,-0.115014 -0.312678,-0.204763 -0.174634,-0.09089 -0.369733,-0.176054 -0.193176,-0.09205 -0.392616,-0.188709 -0.195347,-0.0978 -0.372646,-0.219736 -0.137549,-0.08857 -0.218539,-0.231154 -0.08099,-0.142575 -0.119174,-0.303508 -0.03813,-0.160947 -0.03943,-0.332219 0.0028,-0.17242 0.02655,-0.325288 0.02785,-0.154017 0.07064,-0.280438 0.04279,-0.12642 0.08875,-0.196515 0.04956,-0.09653 0.08664,-0.09421 0.03709,0.0023 0.0694,0.0759 0.03639,0.07243 0.06561,0.197741 0.02705,0.119557 0.05239,0.25866 0.02728,0.132205 0.05264,0.271303 0.02728,0.132205 0.06009,0.231076 0.13921,0.488597 0.800049,0.608471 0.113674,0.02534 0.156029,-0.01832 0.04236,-0.04366 0.04397,-0.17125 -0.0028,-0.139089 -0.02283,-0.324164 -0.02008,-0.185076 -0.05271,-0.379353 -0.03478,-0.200028 -0.07559,-0.392008 -0.0408,-0.191983 -0.08713,-0.350635 -0.03255,-0.08622 -0.07142,-0.177043 -0.0369,-0.09772 -0.09643,-0.195458 -0.05544,-0.09888 -0.13953,-0.189734 -0.08218,-0.09774 -0.203097,-0.17827 -0.185733,-0.132282 -0.419839,-0.212862 -0.234108,-0.08058 -0.453021,-0.120921 -0.142325,-0.01731 -0.259099,0.0091 -0.114851,0.01949 -0.204404,0.07002 -0.08546,0.04938 -0.143693,0.12292 -0.06041,0.06779 -0.09408,0.134441 -0.0996,0.167775 -0.173402,0.391886 -0.0738,0.224111 -0.112194,0.470079 -0.0384,0.245969 -0.04379,0.495403 -0.0013,0.248287 0.03565,0.454061 0.0336,0.244856 0.118005,0.456401 0.08444,0.211534 0.20514,0.387476 0.118573,0.170181 0.265297,0.307042 0.148647,0.129966 0.30691,0.225451 0.147905,0.09203 0.314105,0.172578 0.170293,0.0794 0.334323,0.154197 0.168122,0.07365 0.317702,0.146142 0.151503,0.0656 0.257734,0.131168 0.108155,0.05867 0.158758,0.120774 0.05469,0.06095 0.02487,0.11381 -0.06686,0.158594 -0.357272,0.144658 -0.286324,-0.01508 -0.740833,-0.211872 -0.0831,-0.04028 -0.171718,-0.04721 -0.0867,-0.01385 -0.170726,0.0034 -0.0903,0.0126 -0.163474,0.05854 -0.07536,0.04019 -0.133832,0.101088 z"
       id="path23628"
       style="font-size:10.5833px;line-height:1.25;font-family:'Komika Axis';-inkscape-font-specification:'Komika Axis';letter-spacing:0px;word-spacing:0px;display:inline;opacity:1;fill:#4d4d4d;fill-opacity:1;stroke-width:0.127523" /><path
       d="m 76.749582,49.070494 q -0.224579,-0.128859 -0.516397,-0.182192 -0.287052,-0.05466 -0.579523,-0.03686 -0.225888,0.0134 -0.426944,0.168844 -0.196288,0.15412 -0.300507,0.374766 -0.143517,0.359318 -0.202045,0.780045 -0.05609,0.412951 -0.03876,0.855071 0.01732,0.44212 0.105861,0.892738 0.08623,0.444168 0.229753,0.858151 0.143499,0.413992 0.33511,0.771985 0.191576,0.358002 0.412535,0.622669 0.136363,0.160578 0.311233,0.267842 0.174873,0.107263 0.335975,0.161613 0.196643,0.06571 0.405788,0.06408 0.211462,0.0048 0.40181,-0.01994 0.28552,-0.03714 0.4697,-0.166594 0.186496,-0.123008 0.305271,-0.376097 0.160654,-0.413763 0.177472,-0.950549 0.02159,-0.538116 -0.06346,-1.110316 -0.0826,-0.579978 -0.250967,-1.136012 -0.170689,-0.562481 -0.392258,-1.01853 -0.140086,-0.273053 -0.304637,-0.468331 -0.162115,-0.203053 -0.415022,-0.352382 z m -0.535478,0.858938 q 0.109207,0.01208 0.235514,0.232225 0.128751,0.212367 0.24461,0.53475 0.113543,0.315936 0.207504,0.694095 0.09164,0.37171 0.1386,0.692046 0.06061,0.387469 0.07408,0.731341 0.01595,0.336094 -0.01722,0.579463 -0.03314,0.243369 -0.105657,0.377128 -0.07253,0.133759 -0.188814,0.116562 -0.125817,-0.01453 -0.254834,-0.198453 -0.129012,-0.183916 -0.238181,-0.458505 -0.111486,-0.281038 -0.198756,-0.611402 -0.08959,-0.336813 -0.131781,-0.658477 -0.04452,-0.32811 -0.05785,-0.686209 -0.01088,-0.365875 0.01568,-0.671264 0.02658,-0.305388 0.09485,-0.494719 0.06596,-0.195778 0.182255,-0.178581 z"
       id="path23630"
       style="font-size:10.5833px;line-height:1.25;font-family:'Komika Axis';-inkscape-font-specification:'Komika Axis';letter-spacing:0px;word-spacing:0px;display:inline;opacity:1;fill:#4d4d4d;fill-opacity:1;stroke-width:0.145359" /><path
       d="m 79.868535,52.662978 q 0.221598,0.22991 0.48046,0.458156 0.256983,0.220834 0.510207,0.426852 0.253225,0.206016 0.484635,0.375536 0.231409,0.16952 0.404314,0.2817 0.256824,0.1459 0.422055,0.153516 0.173321,0.01474 0.298676,-0.03584 0.106151,-0.02723 0.176919,-0.04538 0.07511,-0.02584 0.160582,-0.134574 0.07249,-0.08567 0.06612,-0.160328 -0.0063,-0.07465 -0.16252,-0.195081 -0.192841,-0.141266 -0.423677,-0.333294 -0.224626,-0.192305 -0.459219,-0.399152 -0.234594,-0.20685 -0.462977,-0.413975 -0.222173,-0.207402 -0.413867,-0.393684 0.601627,-0.40158 0.989487,-0.853562 0.394069,-0.452259 0.481789,-0.973268 0.06204,-0.325017 -0.14458,-0.817888 -0.21774,-0.462398 -0.478641,-0.772989 -0.256567,-0.318277 -0.545334,-0.590152 -0.354056,-0.306428 -0.737386,-0.35675 -0.378998,-0.058 -0.766341,0.04922 -0.383012,0.09955 -0.754595,0.318484 -0.365369,0.218663 -0.697809,0.443344 -0.06759,0.05547 -0.08762,0.273702 -0.02191,0.210813 -0.0014,0.539627 0.01869,0.321411 0.06614,0.731465 0.04557,0.402645 0.104866,0.834651 0.06551,0.431729 0.137218,0.863181 0.06551,0.431729 0.130284,0.811032 0.0629,0.371895 0.119417,0.669131 0.05032,0.297517 0.07736,0.453683 0.03642,0.193219 0.109968,0.309839 0.07165,0.109204 0.210326,0.18545 0.136789,0.06884 0.274724,0.09264 0.137935,0.02381 0.318773,0.06821 0.152238,0.03075 0.192526,-0.0086 0.0465,-0.03956 0.04749,-0.159497 -0.03315,-0.4032 -0.07005,-0.821219 -0.0307,-0.418294 -0.05837,-0.874198 z m -0.09833,-3.038195 q 0.206509,-0.151614 0.410723,-0.213194 0.204216,-0.06158 0.384318,-0.06963 0.366419,-0.01637 0.493556,0.187786 0.0692,0.124308 0.02809,0.358461 -0.04112,0.234153 -0.198934,0.503495 -0.159694,0.261931 -0.431176,0.528857 -0.26715,0.259238 -0.652457,0.448814 -0.006,-0.494337 -0.02183,-0.928287 -0.01582,-0.433949 -0.01228,-0.816305 z"
       id="path23632"
       style="font-size:10.5833px;line-height:1.25;font-family:'Komika Axis';-inkscape-font-specification:'Komika Axis';letter-spacing:0px;word-spacing:0px;display:inline;opacity:1;fill:#4d4d4d;fill-opacity:1;stroke-width:0.170554" /><path
       d="m 84.509012,52.633676 q 0.229322,0.290963 0.503789,0.58508 0.273411,0.285449 0.544718,0.553569 0.271306,0.268121 0.522296,0.491862 0.250991,0.223739 0.44089,0.374476 0.285447,0.200373 0.483168,0.23137 0.206295,0.04019 0.365498,-1.92e-4 0.132266,-0.01654 0.220442,-0.02756 0.09465,-0.01916 0.215321,-0.131022 0.101259,-0.08743 0.105771,-0.17304 0.0046,-0.08561 -0.163869,-0.243431 -0.209156,-0.18645 -0.455788,-0.435663 -0.239103,-0.248686 -0.487837,-0.51523 -0.248735,-0.266542 -0.489946,-0.532561 -0.233687,-0.26549 -0.434121,-0.502883 0.789966,-0.374411 1.330755,-0.834968 0.548303,-0.460031 0.738942,-1.039559 0.127739,-0.36053 -0.04065,-0.947955 -0.186746,-0.554339 -0.450231,-0.942201 -0.257012,-0.396 -0.560372,-0.743687 -0.376334,-0.395744 -0.829709,-0.504742 -0.446901,-0.117139 -0.930816,-0.04784 -0.477444,0.06116 -0.960604,0.259391 -0.475634,0.198755 -0.912599,0.408804 -0.09042,0.05383 -0.150166,0.298822 -0.06078,0.236328 -0.08966,0.612357 -0.02994,0.367362 -0.03972,0.839237 -0.01082,0.463211 -0.01,0.961609 0.0085,0.498924 0.0244,0.998372 0.0085,0.498924 0.02452,0.93824 0.01499,0.43065 0.03462,0.775694 0.01201,0.344522 0.01918,0.525444 0.01237,0.224254 0.08187,0.366582 0.06847,0.133661 0.223004,0.23897 0.153483,0.09664 0.315692,0.14234 0.16221,0.04569 0.372721,0.120548 0.17831,0.05542 0.233229,0.01629 0.06245,-0.03861 0.08321,-0.174618 0.02587,-0.46216 0.04963,-0.941648 0.03128,-0.478964 0.07236,-1.000205 z m 0.37731,-3.461978 q 0.273403,-0.144149 0.529353,-0.186412 0.255952,-0.04225 0.474138,-0.02701 0.443889,0.03101 0.56367,0.279951 0.06305,0.150468 -0.02466,0.410691 -0.08774,0.260223 -0.321698,0.544597 -0.235029,0.275708 -0.605485,0.541955 -0.363985,0.258109 -0.858883,0.421151 0.07342,-0.561941 0.125171,-1.056658 0.05175,-0.494719 0.118401,-0.928253 z"
       id="path23634"
       style="font-size:10.5833px;line-height:1.25;font-family:'Komika Axis';-inkscape-font-specification:'Komika Axis';letter-spacing:0px;word-spacing:0px;display:inline;opacity:1;fill:#4d4d4d;fill-opacity:1;stroke-width:0.201002" /><path
       d="m 94.625289,49.348353 q 0.0736,-0.140203 0.116304,-0.237376 0.04306,-0.106356 0.03717,-0.199138 0.0037,-0.09183 -0.04131,-0.179274 -0.04463,-0.09663 -0.127577,-0.206285 -0.149141,-0.153108 -0.364461,-0.34967 -0.205665,-0.195602 -0.42394,-0.3187 -0.217913,-0.132282 -0.411989,-0.133123 -0.193712,-0.01009 -0.289952,0.210907 -0.537036,0.804073 -1.072962,1.580598 -0.535929,0.776526 -1.089716,1.514398 -0.229249,-0.815656 -0.442485,-1.546746 -0.213245,-0.731091 -0.413423,-1.30415 -0.14286,-0.309217 -0.272652,-0.460405 -0.119761,-0.159408 -0.407189,-0.252498 -0.287429,-0.09309 -0.568516,-0.102576 -0.271045,-0.01774 -0.571461,-0.02912 -0.253195,0.02095 -0.305227,0.107973 -0.06132,0.07688 0.03502,0.335384 0.153326,0.531527 0.351665,1.150501 0.189035,0.608833 0.395932,1.256314 0.207265,0.638301 0.41453,1.276601 0.207266,0.638301 0.388114,1.209441 -0.141489,0.622096 -0.220544,1.139759 -0.07868,0.50848 -0.162234,0.896622 -0.02897,0.236831 0.03355,0.372115 0.06288,0.126102 0.27037,0.275787 0.209349,0.103773 0.457741,0.202202 0.248025,0.107614 0.477818,0.185759 0.249122,0.08007 0.337604,0.05198 0.08853,-0.02809 0.144208,-0.206945 0.126276,-0.485314 0.263333,-0.997215 0.137427,-0.521084 0.326517,-1.120012 0.448615,-0.536269 0.928457,-1.124755 0.479832,-0.588485 0.909858,-1.145041 0.430027,-0.556556 0.769725,-1.039108 0.349361,-0.481591 0.527741,-0.814215 z"
       id="path23636"
       style="font-size:10.5833px;line-height:1.25;font-family:'Komika Axis';-inkscape-font-specification:'Komika Axis';letter-spacing:0px;word-spacing:0px;display:inline;opacity:1;fill:#4d4d4d;fill-opacity:1;stroke-width:0.236018" /><path
       style="display:inline;opacity:1;fill:#4d4d4d;fill-opacity:1;stroke:none;stroke-width:0.264583px;stroke-linecap:butt;stroke-linejoin:miter;stroke-opacity:1"
       d="m 94.316075,53.647675 0.795126,0.514493 4.092564,-5.565886 -2.245063,-1.262848 z"
       id="path24383" /><circle
       style="display:inline;opacity:1;fill:#4d4d4d;fill-opacity:1;stroke:none;stroke-width:0.964999;stroke-linecap:round;stroke-linejoin:round;stroke-dasharray:none;stroke-opacity:1;paint-order:stroke markers fill;stop-color:#000000"
       id="path24385"
       cx="93.988663"
       cy="55.799194"
       r="0.61973119" /><path
       style="display:inline;opacity:1;fill:#4d4d4d;fill-opacity:1;stroke:none;stroke-width:0.264583px;stroke-linecap:butt;stroke-linejoin:miter;stroke-opacity:1"
       d="m 9.4605016,119.38195 0.2975137,-2.1846 c 3.7255297,0.35266 6.0824457,-0.17892 8.4363567,-0.54189 l 0.139486,0.82453 c -1.263618,1.70667 -2.413205,2.93016 -4.350643,5.32718 1.743429,-0.29517 3.52761,-0.56134 4.959513,-0.82536 l 0.02338,2.88818 c -3.409577,-0.35164 -6.251266,0.0266 -9.4128989,0.88867 l 0.046772,-1.41486 c 1.0650309,-1.19458 3.1818849,-3.63855 4.3506419,-5.10785 z"
       id="path25970"
       sodipodi:nodetypes="ccccccccccc" /><path
       style="display:inline;opacity:1;fill:#4d4d4d;fill-opacity:1;stroke:none;stroke-width:0.199944px;stroke-linecap:butt;stroke-linejoin:miter;stroke-opacity:1"
       d="m 18.815859,112.74888 c 3.036986,0.003 6.449644,-0.28444 6.439463,-0.26816 -1.389613,1.55219 -2.440457,3.18895 -3.131626,5.00991 l 3.777114,-0.65153 -0.211639,2.22483 c -2.328314,-0.25011 -4.45319,0.21367 -6.933274,0.82488 l 0.122134,-1.68297 c 0.804838,-0.90274 3.453334,-3.87945 3.453334,-3.87945 -1.258526,-0.0825 -2.905977,0.1572 -3.520131,0.23435 z"
       id="path26698"
       sodipodi:nodetypes="cccccccccc" /><path
       style="display:inline;opacity:1;fill:#4d4d4d;fill-opacity:1;stroke:none;stroke-width:0.139304px;stroke-linecap:butt;stroke-linejoin:miter;stroke-opacity:1"
       d="m 23.065195,106.31248 c 2.17243,0.002 4.613586,-0.19302 4.606303,-0.18197 -0.994023,1.0533 -1.745717,2.16398 -2.240127,3.39967 l 2.701861,-0.44212 -0.151391,1.50974 c -1.665499,-0.16972 -3.185474,0.145 -4.959538,0.55976 l 0.08736,-1.14205 c 0.57572,-0.61259 2.470254,-2.63255 2.470254,-2.63255 -0.900254,-0.056 -2.078716,0.10667 -2.518035,0.15903 z"
       id="path38145"
       sodipodi:nodetypes="cccccccccc" /><path
       style="display:inline;opacity:1;fill:#4d4d4d;fill-opacity:1;stroke:none;stroke-width:0.111814px;stroke-linecap:butt;stroke-linejoin:miter;stroke-opacity:1"
       d="m 18.806443,102.39221 c 1.72258,0.002 3.658239,-0.15684 3.652464,-0.14786 -0.788188,0.85583 -1.384227,1.75827 -1.776258,2.76229 l 2.14238,-0.35923 -0.120042,1.22669 c -1.32062,-0.1379 -2.52585,0.11781 -3.932554,0.45481 l 0.06927,-0.92793 c 0.456504,-0.49774 1.958732,-2.13899 1.958732,-2.13899 -0.713836,-0.0455 -1.648271,0.0867 -1.996619,0.12921 z"
       id="path38147"
       sodipodi:nodetypes="cccccccccc" /><path
       d="m 41.773575,120.21925 c -0.157083,-0.30313 -0.322894,-0.62747 -0.497934,-0.97413 -0.177134,-0.35982 -0.349378,-0.71055 -0.516351,-1.05144 -0.168917,-0.35422 -0.325278,-0.68002 -0.46827,-0.97563 -0.141062,-0.30166 -0.251039,-0.53393 -0.328663,-0.69406 -0.03692,-0.0812 -0.08148,-0.16769 -0.133705,-0.25936 -0.05568,-0.0983 -0.116951,-0.18802 -0.183748,-0.26891 -0.06599,-0.0889 -0.139577,-0.1681 -0.220674,-0.23747 -0.0812,-0.0695 -0.168527,-0.12178 -0.261761,-0.15682 -0.159158,-0.0568 -0.314202,-0.088 -0.464754,-0.0939 -0.152871,-0.0121 -0.317089,-0.0159 -0.492206,-0.0113 -0.150424,0.003 -0.231209,0.0412 -0.243189,0.11304 -0.01194,0.0713 0.03466,0.20547 0.138932,0.40134 0.189983,0.34162 0.394848,0.70593 0.613771,1.09155 0.211532,0.37249 0.428983,0.74784 0.652089,1.12582 0.215878,0.36541 0.431048,0.72613 0.64553,1.08228 0.210526,0.34959 0.410983,0.67775 0.601921,0.98552 0.180022,0.2886 0.352101,0.55593 0.516713,0.80293 0.156257,0.23983 0.299557,0.44926 0.430506,0.62936 0.07943,0.12307 0.154782,0.21322 0.226381,0.27101 0.07295,0.053 0.164776,0.0926 0.275859,0.11906 0.119313,0.0259 0.241925,0.0493 0.367935,0.0702 0.133023,0.0252 0.267315,0.0435 0.403022,0.0549 0.0997,0.005 0.171557,-0.003 0.215332,-0.0257 0.05039,-0.0185 0.07741,-0.0751 0.0809,-0.17037 -0.0122,-0.11869 -0.02508,-0.2702 -0.0387,-0.45579 -0.01621,-0.1933 -0.03347,-0.40503 -0.05183,-0.6361 -0.01437,-0.23609 -0.0271,-0.48253 -0.03815,-0.73987 -0.01382,-0.26809 -0.02509,-0.53087 -0.0337,-0.78788 0.09014,0.19037 0.188702,0.38295 0.295569,0.57773 0.110325,0.19212 0.218349,0.37977 0.32413,0.56305 0.102389,0.17647 0.197926,0.33874 0.286803,0.48716 0.09272,0.14677 0.16987,0.27081 0.231723,0.37254 0.06604,0.10072 0.146398,0.19181 0.241201,0.27355 0.09241,0.0768 0.213313,0.13315 0.363398,0.16934 0.07094,0.008 0.135189,0.0176 0.19267,0.0275 0.06442,0.0143 0.125593,0.0264 0.183494,0.0363 0.06273,0.01 0.12797,0.0189 0.195748,0.028 0.07012,0.014 0.151275,0.0246 0.243636,0.0318 0.164492,0.0111 0.283317,8.7e-4 0.355836,-0.031 0.073,-0.0321 0.114556,-0.0979 0.124379,-0.19783 0.0035,-0.21685 0.0099,-0.47594 0.0193,-0.77991 0.0096,-0.31162 0.0196,-0.65172 0.03005,-1.02232 0.01391,-0.38828 0.03029,-0.79843 0.0493,-1.23205 0.02298,-0.45562 0.04748,-0.91661 0.07354,-1.38274 0.02696,-0.4822 0.05813,-0.96261 0.09365,-1.44032 0.03674,-0.49393 0.07569,-0.94932 0.116763,-1.36193 0.0096,-0.23388 -0.01586,-0.45537 -0.07707,-0.66342 -0.06185,-0.21024 -0.200575,-0.38236 -0.415618,-0.51468 -0.187396,-0.0947 -0.375224,-0.16985 -0.563143,-0.22557 -0.183666,-0.0663 -0.365438,-0.11853 -0.545111,-0.1567 -0.241475,-0.0334 -0.402072,-0.0155 -0.482716,0.0532 -0.08315,0.0598 -0.122506,0.23431 -0.118552,0.51995 -0.0023,0.2105 -0.0015,0.4795 0.0025,0.80396 0.0068,0.30832 0.01357,0.65236 0.0203,1.02952 0.01219,0.36627 0.02275,0.75128 0.03171,1.1532 0.01141,0.38305 0.02388,0.76651 0.03733,1.14999 l 0.03827,1.09079 c 0.01462,0.33829 0.03016,0.65282 0.04661,0.94499 -0.125264,-0.3342 -0.256825,-0.68376 -0.394976,-1.04943 -0.136089,-0.37457 -0.268347,-0.73531 -0.396389,-1.08108 -0.130575,-0.3526 -0.246613,-0.66608 -0.347287,-0.93822 -0.102192,-0.27624 -0.178643,-0.47324 -0.22841,-0.58834 -0.04415,-0.10213 -0.08521,-0.19029 -0.123103,-0.26427 -0.0328,-0.0758 -0.07167,-0.13833 -0.116567,-0.18734 -0.03975,-0.0507 -0.08956,-0.0905 -0.149317,-0.11909 -0.05455,-0.0303 -0.129746,-0.054 -0.225376,-0.071 -0.171983,-0.0319 -0.319098,-0.0555 -0.441651,-0.071 -0.117012,-0.017 -0.25673,-0.0223 -0.418549,-0.0159 -0.163721,-4.9e-4 -0.271749,0.0319 -0.324732,0.0968 -0.04784,0.0628 -0.06521,0.17724 -0.05246,0.34207 0.0063,0.19508 0.03427,0.48802 0.08285,0.87309 0.05185,0.37378 0.10885,0.777 0.170546,1.20683 0.06423,0.41601 0.129235,0.83469 0.194885,1.25527 0.06787,0.40708 0.127563,0.77259 0.1796,1.09939 z"
       id="path41388"
       style="-inkscape-font-specification:'Komika Axis';fill:#4d4d4d;fill-opacity:1;stroke-width:0.264583" /><path
       d="m 54.168356,113.83345 c 0.320855,-0.0441 0.504002,-0.10795 0.545043,-0.19119 0.05046,-0.0945 0.02566,-0.25401 -0.07487,-0.47862 -0.116333,-0.25443 -0.266,-0.51128 -0.448709,-0.76993 -0.182698,-0.25862 -0.398851,-0.4919 -0.64746,-0.69902 -0.126414,-0.11849 -0.266129,-0.19277 -0.418564,-0.22288 -0.143035,-0.0416 -0.370194,-0.039 -0.67789,0.007 -0.566729,0.10487 -1.183796,0.23628 -1.843776,0.39175 -0.625894,0.13855 -1.239635,0.28728 -1.840674,0.44526 -0.568704,0.15043 -1.105321,0.30222 -1.611936,0.45533 -0.480663,0.14645 -0.893078,0.28929 -1.242645,0.4294 -0.107887,0.053 -0.171291,0.11212 -0.190942,0.17767 -0.02173,0.0576 0.02926,0.16962 0.152954,0.33619 0.115401,0.1597 0.263309,0.35518 0.443869,0.58663 0.174445,0.23219 0.350398,0.42259 0.528427,0.57163 0.172426,0.15014 0.3163,0.24161 0.431571,0.27406 0.113973,0.0251 0.248764,0.0111 0.405336,-0.0426 0.112643,-0.0443 0.259477,-0.083 0.441522,-0.11598 0.18256,-0.0412 0.37388,-0.0874 0.574327,-0.13858 0.02425,0.5419 0.05947,1.1175 0.105206,1.72443 0.04274,0.58457 0.09045,1.15165 0.142982,1.70233 0.05814,0.53875 0.118074,1.03951 0.179888,1.50456 0.06067,0.45644 0.121401,0.83603 0.182517,1.1425 0.0055,0.11765 0.03636,0.22321 0.09244,0.31714 0.05439,0.0875 0.126052,0.16867 0.215178,0.2436 0.09602,0.0762 0.206613,0.14591 0.332117,0.2092 0.126249,0.0637 0.266118,0.12682 0.419952,0.18955 0.155057,0.0632 0.296524,0.12134 0.424087,0.17419 0.128385,0.0532 0.239402,0.088 0.33283,0.10431 0.09551,0.0229 0.165101,0.0225 0.208512,-10e-4 0.05246,-0.0161 0.07543,-0.0689 0.06872,-0.15873 -0.0088,-0.46992 -0.01137,-0.98612 -0.0075,-1.55203 0.01176,-0.58075 0.02847,-1.19213 0.05036,-1.83639 0.0209,-0.67223 0.04574,-1.36994 0.07476,-2.09481 0.03857,-0.7497 0.0751,-1.49934 0.109422,-2.24743 0.432064,-0.0752 0.863263,-0.147 1.292928,-0.21515 0.439747,-0.0794 0.857157,-0.15353 1.249985,-0.22202 z"
       id="path41390"
       style="font-size:10.5833px;font-family:'Komika Axis';-inkscape-font-specification:'Komika Axis';letter-spacing:0px;word-spacing:0px;fill:#4d4d4d;fill-opacity:1;stroke-width:0.264583" /><path
       d="m 64.389319,114.89893 c 0.38365,-0.0137 0.62537,-0.0607 0.723598,-0.14122 0.09988,-0.0919 0.139363,-0.28357 0.117863,-0.57725 -0.0019,-0.49099 -0.154641,-1.01366 -0.462154,-1.56782 -0.10468,-0.17488 -0.206422,-0.31412 -0.304998,-0.41721 -0.09782,-0.11543 -0.204987,-0.20121 -0.321321,-0.25712 -0.102186,-0.0673 -0.226255,-0.11139 -0.371982,-0.13223 -0.131424,-0.0323 -0.296732,-0.0542 -0.495619,-0.0659 -0.791587,-0.0222 -1.587945,-0.0262 -2.387931,-0.0133 -0.777246,0.0135 -1.532017,0.0454 -2.264126,0.0952 -0.722964,0.0376 -1.405365,0.0938 -2.047689,0.1684 -0.623045,0.063 -1.177958,0.1459 -1.666079,0.24846 0.09422,0.54519 0.155936,1.16147 0.18599,1.84246 0.0292,0.66151 0.03421,1.33631 0.01609,2.02194 -0.0081,0.65627 -0.03045,1.30027 -0.06641,1.93202 -0.03488,0.61268 -0.06791,1.17489 -0.09926,1.69012 -0.03156,0.49411 -0.05409,0.93179 -0.06801,1.31656 -0.02399,0.36856 -0.0265,0.65111 -0.0081,0.85148 0.02553,0.18537 0.06795,0.32981 0.127217,0.43428 0.05901,0.10401 0.208129,0.21287 0.447336,0.3268 0.18067,0.0788 0.389135,0.16467 0.62544,0.25767 0.245465,0.0942 0.475095,0.16609 0.689174,0.21562 0.215048,0.0564 0.395685,0.0811 0.542058,0.074 0.147386,-3e-4 0.221384,-0.0616 0.221657,-0.18492 0.08614,-0.36332 0.180101,-0.78741 0.282566,-1.27639 0.114763,-0.50908 0.2514,-1.05795 0.411265,-1.64983 0.581566,-0.0303 1.17572,-0.0561 1.782582,-0.0776 0.61439,-0.0217 1.23089,-0.036 1.849098,-0.0426 0.294882,0.007 0.482775,-0.0183 0.562828,-0.0777 0.09185,-0.0669 0.09898,-0.20395 0.0206,-0.41218 -0.04695,-0.18013 -0.105603,-0.3584 -0.176084,-0.5347 -0.05936,-0.18532 -0.152961,-0.37549 -0.281118,-0.57047 -0.237989,-0.33627 -0.636171,-0.5193 -1.189044,-0.54608 -0.347369,-0.0252 -0.687424,-0.0403 -1.020046,-0.0458 -0.319942,-0.0132 -0.63816,-0.0223 -0.954571,-0.0264 0.170599,-0.47883 0.306943,-0.9497 0.407466,-1.41121 0.114298,-0.47105 0.249452,-0.91094 0.405832,-1.31765 0.838701,-0.036 1.647938,-0.0601 2.425577,-0.0721 0.800297,-0.0112 1.580607,-0.0303 2.340333,-0.0576 z"
       id="path41392"
       style="font-size:10.5833px;font-family:'Komika Axis';-inkscape-font-specification:'Komika Axis';letter-spacing:0px;word-spacing:0px;fill:#4d4d4d;fill-opacity:1;stroke-width:0.266642" /><circle
       style="opacity:1;fill:#4d4d4d;fill-opacity:1;stroke:none;stroke-width:1.06378;stroke-linecap:round;stroke-linejoin:round;stroke-dasharray:none;stroke-opacity:1;paint-order:stroke markers fill;stop-color:#000000"
       id="path44447"
       cx="85.361198"
       cy="84.832031"
       r="4.630208" /><path
       style="fill:#4d4d4d;fill-opacity:1;stroke:none;stroke-width:0.264583px;stroke-linecap:butt;stroke-linejoin:miter;stroke-opacity:1"
       d="m 88.960663,78.57724 c 0,0 0.245551,1.824115 -1.052375,1.941044 -0.641153,0.05776 -1.628181,-0.223012 -1.628181,-0.223012 l 0.248402,3.28659 2.829716,-0.491109 c 0,0 -0.540554,-1.09154 -0.233862,-1.707184 0.537115,-1.078187 0.323927,-1.911687 -0.1637,-2.806329 z"
       id="path44449"
       sodipodi:nodetypes="cscccsc" /><path
       style="fill:#4d4d4d;fill-opacity:1;stroke:none;stroke-width:0.264583px;stroke-linecap:butt;stroke-linejoin:miter;stroke-opacity:1"
       d="m 81.707487,78.57724 c 0,0 -0.245551,1.824115 1.052375,1.941044 0.641153,0.05776 1.628181,-0.223012 1.628181,-0.223012 l -0.248402,3.28659 -2.829716,-0.491109 c 0,0 0.540554,-1.09154 0.233862,-1.707184 -0.537115,-1.078187 -0.323927,-1.911687 0.1637,-2.806329 z"
       id="path44453"
       sodipodi:nodetypes="cscccsc" /><path
       id="path44455"
       style="display:inline;opacity:1;fill:#ffffff;fill-opacity:0.997015;stroke:none;stroke-width:2.60832;stroke-linecap:square;stroke-linejoin:round;stroke-opacity:0.996078;paint-order:stroke markers fill;stop-color:#000000"
       d="m 86.715831,82.250057 -0.957802,1.491382 a 0.78314521,1.5902537 0 0 0 -9.5e-4,0.05839 0.78314521,1.5902537 0 0 0 0.783522,1.590601 0.78314521,1.5902537 0 0 0 0.783031,-1.590601 0.78314521,1.5902537 0 0 0 -0.60777,-1.549776 z" /><path
       id="path44457"
       style="display:inline;opacity:1;fill:#ffffff;fill-opacity:0.997015;stroke:none;stroke-width:2.60832;stroke-linecap:square;stroke-linejoin:round;stroke-opacity:0.996078;paint-order:stroke markers fill;stop-color:#000000"
       d="m 84.376406,82.250057 0.957802,1.491382 a 0.78314521,1.5902537 0 0 1 9.5e-4,0.05839 0.78314521,1.5902537 0 0 1 -0.783522,1.590601 0.78314521,1.5902537 0 0 1 -0.783031,-1.590601 0.78314521,1.5902537 0 0 1 0.60777,-1.549776 z" /><path
       sodipodi:type="star"
       style="opacity:1;fill:#4d4d4d;fill-opacity:1;stroke:none;stroke-width:0.964999;stroke-linecap:round;stroke-linejoin:round;stroke-dasharray:none;stroke-opacity:0.61194;paint-order:stroke markers fill;stop-color:#000000"
       id="path45241"
       inkscape:flatsided="false"
       sodipodi:sides="5"
       sodipodi:cx="79.302208"
       sodipodi:cy="77.314392"
       sodipodi:r1="1.7370366"
       sodipodi:r2="0.86851817"
       sodipodi:arg1="0.81396182"
       sodipodi:arg2="1.4422804"
       inkscape:rounded="0"
       inkscape:randomized="0"
       d="m 80.494898,78.577241 -1.081379,-0.401493 -0.94379,0.663202 0.04768,-1.152521 -0.922389,-0.692657 1.110845,-0.310804 0.373722,-1.091287 0.638862,0.960433 1.153363,0.0182 -0.716007,0.904384 z"
       inkscape:transform-center-x="0.068795277"
       inkscape:transform-center-y="-0.099078052" /><path
       sodipodi:type="star"
       style="opacity:1;fill:#4d4d4d;fill-opacity:1;stroke:none;stroke-width:0.964999;stroke-linecap:round;stroke-linejoin:round;stroke-dasharray:none;stroke-opacity:0.61194;paint-order:stroke markers fill;stop-color:#000000"
       id="path45243"
       inkscape:flatsided="false"
       sodipodi:sides="5"
       sodipodi:cx="78.951416"
       sodipodi:cy="80.845695"
       sodipodi:r1="1.0575579"
       sodipodi:r2="0.52877885"
       sodipodi:arg1="0.95825877"
       sodipodi:arg2="1.5865773"
       inkscape:rounded="0"
       inkscape:randomized="0"
       d="m 79.559454,81.710981 -0.616382,-0.336572 -0.626697,0.316953 0.129627,-0.690221 -0.495101,-0.49808 0.696496,-0.09001 0.320708,-0.624784 0.300831,0.634593 0.693309,0.111943 -0.510572,0.482208 z"
       inkscape:transform-center-x="-0.0051560667"
       inkscape:transform-center-y="-0.09607158" /><path
       style="fill:none;stroke:#4d4d4d;stroke-width:0.265;stroke-linecap:round;stroke-linejoin:miter;stroke-dasharray:none;stroke-opacity:1"
       d="M 79.372366,83.862496 76.636196,81.03278"
       id="path45245" /><path
       style="fill:none;stroke:#4d4d4d;stroke-width:0.265;stroke-linecap:round;stroke-linejoin:miter;stroke-dasharray:none;stroke-opacity:1"
       d="m 76.61281,83.558477 2.57247,1.426551"
       id="path45247" /><path
       style="fill:#4d4d4d;fill-opacity:1;stroke:none;stroke-width:0.264583px;stroke-linecap:butt;stroke-linejoin:miter;stroke-opacity:1"
       d="m 115.25336,85.581373 h 0.79513 l 0.76004,-4.864307 -1.91765,-0.02339 z"
       id="path46076" /><circle
       style="opacity:1;fill:#4d4d4d;fill-opacity:1;stroke:none;stroke-width:0.465;stroke-linecap:round;stroke-linejoin:round;stroke-dasharray:none;stroke-opacity:1;paint-order:stroke markers fill;stop-color:#000000"
       id="path46078"
       cx="115.72102"
       cy="87.078079"
       r="0.44433558" /><path
       style="fill:#4d4d4d;fill-opacity:1;stroke:none;stroke-width:0.225284px;stroke-linecap:butt;stroke-linejoin:miter;stroke-opacity:1"
       d="m 117.43368,85.68661 h 0.67877 l 0.64882,-4.13117 -1.63702,-0.01987 z"
       id="path46080" /><circle
       style="opacity:1;fill:#4d4d4d;fill-opacity:1;stroke:none;stroke-width:0.403816;stroke-linecap:round;stroke-linejoin:round;stroke-dasharray:none;stroke-opacity:1;paint-order:stroke markers fill;stop-color:#000000"
       id="circle46082"
       cx="117.77901"
       cy="86.926071"
       r="0.38587037" /><path
       style="fill:#4d4d4d;fill-opacity:1;stroke:none;stroke-width:0.264583px;stroke-linecap:butt;stroke-linejoin:miter;stroke-opacity:1"
       d="m 126.85286,86.130946 0.74835,-0.02339 -0.14031,-4.712298 -1.97613,0.233863 z"
       id="path46382" /><circle
       style="opacity:1;fill:#4d4d4d;fill-opacity:1;stroke:none;stroke-width:0.403816;stroke-linecap:round;stroke-linejoin:round;stroke-dasharray:none;stroke-opacity:1;paint-order:stroke markers fill;stop-color:#000000"
       id="circle47110"
       cx="127.47253"
       cy="87.370407"
       r="0.38587037" /><g
       id="g46370"
       style="display:inline;opacity:1;stroke-width:0.442857;stroke-dasharray:none"
       transform="matrix(0.90344448,0,0,0.9030081,11.66627,8.0474926)"><path
         style="fill:none;stroke:#4d4d4d;stroke-width:0.442856;stroke-linecap:square;stroke-linejoin:miter;stroke-dasharray:none;stroke-opacity:1"
         d="m 119.73675,82.459329 1.76565,2.326918"
         id="path46084" /><path
         style="fill:none;stroke:#4d4d4d;stroke-width:0.442856;stroke-linecap:square;stroke-linejoin:miter;stroke-dasharray:none;stroke-opacity:1"
         d="m 121.23346,82.237164 -1.181,2.724478"
         id="path46086" /><path
         style="fill:none;stroke:#4d4d4d;stroke-width:0.442856;stroke-linecap:square;stroke-linejoin:miter;stroke-dasharray:none;stroke-opacity:1"
         d="m 119.17548,83.757258 2.91157,-0.327406"
         id="path46088" /></g><g
       id="g47244"
       style="display:inline;opacity:1;stroke-width:0.463338;stroke-dasharray:none"
       transform="matrix(0.83744734,0.21128894,-0.21109791,0.83669018,41.020758,-11.226696)"><path
         style="fill:none;stroke:#4d4d4d;stroke-width:0.463338;stroke-linecap:square;stroke-linejoin:miter;stroke-dasharray:none;stroke-opacity:1"
         d="m 119.73675,82.459329 1.76565,2.326918"
         id="path47238" /><path
         style="fill:none;stroke:#4d4d4d;stroke-width:0.463338;stroke-linecap:square;stroke-linejoin:miter;stroke-dasharray:none;stroke-opacity:1"
         d="m 121.23346,82.237164 -1.181,2.724478"
         id="path47240" /><path
         style="fill:none;stroke:#4d4d4d;stroke-width:0.463338;stroke-linecap:square;stroke-linejoin:miter;stroke-dasharray:none;stroke-opacity:1"
         d="m 119.17548,83.757258 2.91157,-0.327406"
         id="path47242" /></g><path
       style="fill:#4d4d4d;fill-opacity:1;stroke:none;stroke-width:0.264583px;stroke-linecap:butt;stroke-linejoin:miter;stroke-opacity:1"
       d="m 55.57528,51.662084 c -0.704396,0.924514 -1.094058,0.892807 -1.094058,0.892807 l 0.06083,1.7338 c 0,0.04903 0.23662,-1.043591 1.161219,-2.009783 1.267502,-1.32452 0.01858,-2.791435 0.01858,-2.791435 0.234087,0.834938 0.474817,1.417899 -0.146574,2.174611 z"
       id="path49773"
       sodipodi:nodetypes="cccscc" /><path
       style="fill:none;stroke:#c4e7f1;stroke-width:0.344;stroke-linecap:round;stroke-linejoin:miter;stroke-dasharray:none;stroke-opacity:1"
       d="m 117.40983,14.990479 c -0.77637,1.40257 -1.75153,2.810376 -1.85618,4.360918"
       id="path52695"
       sodipodi:nodetypes="cc" /><path
       style="fill:none;stroke:#c4e7f1;stroke-width:0.344;stroke-linecap:round;stroke-linejoin:miter;stroke-dasharray:none;stroke-opacity:1"
       d="m 115.52142,20.123724 c -3.5e-4,0.230199 0.0979,0.569183 0.25011,0.739732"
       id="path53594"
       sodipodi:nodetypes="cc" /><path
       id="path68981"
       style="opacity:1;fill:#4d4d4d;fill-opacity:1;stroke:none;stroke-width:0.344002;stroke-linecap:square;stroke-linejoin:round;stroke-dasharray:none;stroke-opacity:1;paint-order:stroke markers fill;stop-color:#000000"
       d="m 121.90814,85.133729 -0.026,0.861415 -0.3329,0.0066 0.0249,0.255562 0.30045,-0.006 -0.0118,0.390373 -0.39984,0.0079 0.0249,0.25556 0.36716,-0.0073 -0.0261,0.861414 0.34675,-0.0069 0.026,-0.861413 0.20014,-0.004 -0.026,0.861414 0.34673,-0.0069 0.0261,-0.861414 0.30044,-0.006 -0.0249,-0.255561 -0.26799,0.0053 0.0118,-0.390373 0.36739,-0.0073 -0.0249,-0.25556 -0.33493,0.0066 0.026,-0.861413 -0.34651,0.0069 -0.026,0.861415 -0.20014,0.004 0.026,-0.861413 z m 0.31306,1.110748 0.20014,-0.004 -0.0118,0.390372 -0.20015,0.004 z" /><g
       id="g72922"
       transform="translate(-8.3264265,21.893172)"><ellipse
         style="fill:#4d4d4d;fill-opacity:1;stroke:none;stroke-width:0.410159;stroke-linecap:round;stroke-linejoin:round;stroke-dasharray:none;stroke-opacity:1;paint-order:stroke markers fill;stop-color:#000000"
         id="ellipse72918"
         cx="60.410206"
         cy="54.221317"
         rx="1.1212385"
         ry="0.64258909"
         transform="matrix(0.96383953,-0.26648334,-0.04433953,0.99901652,0,0)" /><ellipse
         style="fill:#ffffff;fill-opacity:1;stroke:none;stroke-width:0.426757;stroke-linecap:round;stroke-linejoin:round;stroke-dasharray:none;stroke-opacity:1;paint-order:stroke markers fill;stop-color:#000000"
         id="ellipse72920"
         cx="73.644524"
         cy="53.290939"
         rx="0.36614326"
         ry="0.24422319"
         transform="matrix(0.98538542,-0.17033957,-0.32104716,0.94706321,0,0)" /></g><g
       id="g72942"
       transform="translate(-5.209304,19.00756)"><ellipse
         style="fill:#4d4d4d;fill-opacity:1;stroke:none;stroke-width:0.410159;stroke-linecap:round;stroke-linejoin:round;stroke-dasharray:none;stroke-opacity:1;paint-order:stroke markers fill;stop-color:#000000"
         id="ellipse72938"
         cx="60.410206"
         cy="54.221317"
         rx="1.1212385"
         ry="0.64258909"
         transform="matrix(0.96383953,-0.26648334,-0.04433953,0.99901652,0,0)" /><ellipse
         style="fill:#ffffff;fill-opacity:1;stroke:none;stroke-width:0.426757;stroke-linecap:round;stroke-linejoin:round;stroke-dasharray:none;stroke-opacity:1;paint-order:stroke markers fill;stop-color:#000000"
         id="ellipse72940"
         cx="73.644524"
         cy="53.290939"
         rx="0.36614326"
         ry="0.24422319"
         transform="matrix(0.98538542,-0.17033957,-0.32104716,0.94706321,0,0)" /></g><path
       style="fill:none;stroke:#4d4d4d;stroke-width:0.365;stroke-linecap:round;stroke-linejoin:miter;stroke-dasharray:none;stroke-opacity:1"
       d="M 48.39374,59.552065 V 53.697588"
       id="path72944"
       sodipodi:nodetypes="cc" /><path
       style="fill:none;stroke:#4d4d4d;stroke-width:0.365;stroke-linecap:round;stroke-linejoin:miter;stroke-dasharray:none;stroke-opacity:1"
       d="M 51.510862,56.649917 V 50.79544"
       id="path72946"
       sodipodi:nodetypes="cc" /><g
       id="g72958"><path
         style="fill:none;stroke:#4d4d4d;stroke-width:0.365;stroke-linecap:round;stroke-linejoin:miter;stroke-dasharray:none;stroke-opacity:1"
         d="M 54.923027,44.571333 V 38.518419"
         id="path48862"
         sodipodi:nodetypes="cc" /><g
         id="g72952"
         transform="translate(-1.985349e-7,0.11319297)"><ellipse
           style="fill:#4d4d4d;fill-opacity:1;stroke:none;stroke-width:0.410159;stroke-linecap:round;stroke-linejoin:round;stroke-dasharray:none;stroke-opacity:1;paint-order:stroke markers fill;stop-color:#000000"
           id="ellipse72948"
           cx="60.410206"
           cy="54.221317"
           rx="1.1212385"
           ry="0.64258909"
           transform="matrix(0.96383953,-0.26648334,-0.04433953,0.99901652,0,0)" /><ellipse
           style="fill:#ffffff;fill-opacity:1;stroke:none;stroke-width:0.426757;stroke-linecap:round;stroke-linejoin:round;stroke-dasharray:none;stroke-opacity:1;paint-order:stroke markers fill;stop-color:#000000"
           id="ellipse72950"
           cx="73.644524"
           cy="53.290939"
           rx="0.36614326"
           ry="0.24422319"
           transform="matrix(0.98538542,-0.17033957,-0.32104716,0.94706321,0,0)" /></g></g><g
       id="g72968"
       transform="translate(-0.55015215,9.7224388)"><path
         style="fill:none;stroke:#4d4d4d;stroke-width:0.365;stroke-linecap:round;stroke-linejoin:miter;stroke-dasharray:none;stroke-opacity:1"
         d="M 54.923027,44.571333 V 38.518419"
         id="path72960"
         sodipodi:nodetypes="cc" /><g
         id="g72966"
         transform="translate(-1.985349e-7,0.11319297)"><ellipse
           style="fill:#4d4d4d;fill-opacity:1;stroke:none;stroke-width:0.410159;stroke-linecap:round;stroke-linejoin:round;stroke-dasharray:none;stroke-opacity:1;paint-order:stroke markers fill;stop-color:#000000"
           id="ellipse72962"
           cx="60.410206"
           cy="54.221317"
           rx="1.1212385"
           ry="0.64258909"
           transform="matrix(0.96383953,-0.26648334,-0.04433953,0.99901652,0,0)" /><ellipse
           style="fill:#ffffff;fill-opacity:1;stroke:none;stroke-width:0.426757;stroke-linecap:round;stroke-linejoin:round;stroke-dasharray:none;stroke-opacity:1;paint-order:stroke markers fill;stop-color:#000000"
           id="ellipse72964"
           cx="73.644524"
           cy="53.290939"
           rx="0.36614326"
           ry="0.24422319"
           transform="matrix(0.98538542,-0.17033957,-0.32104716,0.94706321,0,0)" /></g></g><path
       style="fill:#4d4d4d;fill-opacity:1;stroke:none;stroke-width:0.264583px;stroke-linecap:butt;stroke-linejoin:miter;stroke-opacity:1"
       d="m 51.474237,44.686672 c -0.704396,-0.924514 -1.094058,-0.892807 -1.094058,-0.892807 l 0.06083,-1.7338 c 0,-0.04903 0.23662,1.043591 1.161219,2.009783 1.267502,1.32452 0.01858,2.791435 0.01858,2.791435 0.234087,-0.834938 0.474817,-1.417899 -0.146574,-2.174611 z"
       id="path72970"
       sodipodi:nodetypes="cccscc" /><path
       style="fill:none;stroke:#4d4d4d;stroke-width:0.365;stroke-linecap:round;stroke-linejoin:miter;stroke-dasharray:none;stroke-opacity:1"
       d="m 50.271833,42.054986 v 5.664307"
       id="path72972"
       sodipodi:nodetypes="cc" /><g
       id="g72978"
       transform="translate(-6.4483332,9.9686258)"><ellipse
         style="fill:#4d4d4d;fill-opacity:1;stroke:none;stroke-width:0.410159;stroke-linecap:round;stroke-linejoin:round;stroke-dasharray:none;stroke-opacity:1;paint-order:stroke markers fill;stop-color:#000000"
         id="ellipse72974"
         cx="60.410206"
         cy="54.221317"
         rx="1.1212385"
         ry="0.64258909"
         transform="matrix(0.96383953,-0.26648334,-0.04433953,0.99901652,0,0)" /><ellipse
         style="fill:#ffffff;fill-opacity:1;stroke:none;stroke-width:0.426757;stroke-linecap:round;stroke-linejoin:round;stroke-dasharray:none;stroke-opacity:1;paint-order:stroke markers fill;stop-color:#000000"
         id="ellipse72976"
         cx="73.644524"
         cy="53.290939"
         rx="0.36614326"
         ry="0.24422319"
         transform="matrix(0.98538542,-0.17033957,-0.32104716,0.94706321,0,0)" /></g></g></svg>
