<?xml version="1.0" encoding="UTF-8" standalone="no"?>
<!-- Created with Inkscape (http://www.inkscape.org/) -->

<svg
   version="1.1"
   id="svg2907"
   width="1024"
   height="1024"
   viewBox="0 0 1024 1024"
   sodipodi:docname="basic_freeze.svg"
   inkscape:version="1.1.2 (b8e25be833, 2022-02-05)"
   xmlns:inkscape="http://www.inkscape.org/namespaces/inkscape"
   xmlns:sodipodi="http://sodipodi.sourceforge.net/DTD/sodipodi-0.dtd"
   xmlns="http://www.w3.org/2000/svg"
   xmlns:svg="http://www.w3.org/2000/svg">
  <defs
     id="defs2911">
    <rect
       x="679.23618"
       y="868.77052"
       width="305.52764"
       height="159.73199"
       id="rect19064" />
    <inkscape:path-effect
       effect="fillet_chamfer"
       id="path-effect11966"
       is_visible="true"
       lpeversion="1"
       satellites_param="F,0,0,1,0,0,0,1 @ F,0,0,1,0,29.298147,0,1 @ F,0,0,1,0,0,0,1 @ F,0,0,1,0,0,0,1"
       unit="px"
       method="auto"
       mode="F"
       radius="0"
       chamfer_steps="1"
       flexible="false"
       use_knot_distance="true"
       apply_no_radius="true"
       apply_with_radius="true"
       only_selected="false"
       hide_knots="false" />
    <inkscape:path-effect
       effect="fillet_chamfer"
       id="path-effect3209"
       is_visible="true"
       lpeversion="1"
       satellites_param="IF,0,0,1,0,0,0,1 @ IF,0,0,1,0,0,0,1 @ IF,0,1,1,0,64,0,1 @ IF,0,0,1,0,0,0,1"
       unit="px"
       method="auto"
       mode="IF"
       radius="0"
       chamfer_steps="1"
       flexible="false"
       use_knot_distance="true"
       apply_no_radius="true"
       apply_with_radius="true"
       only_selected="true"
       hide_knots="false" />
    <inkscape:path-effect
       effect="fillet_chamfer"
       id="path-effect3209-4"
       is_visible="true"
       lpeversion="1"
       satellites_param="F,0,0,1,0,0,0,1 @ F,0,0,1,0,0,0,1 @ F,0,0,1,0,0,0,1 @ F,0,1,1,0,60.439455,0,1"
       unit="px"
       method="auto"
       mode="F"
       radius="0"
       chamfer_steps="1"
       flexible="false"
       use_knot_distance="true"
       apply_no_radius="true"
       apply_with_radius="true"
       only_selected="true"
       hide_knots="false" />
    <inkscape:path-effect
       effect="fillet_chamfer"
       id="path-effect3209-4-0"
       is_visible="true"
       lpeversion="1"
       satellites_param="F,0,0,1,0,0,0,1 @ F,0,0,1,0,0,0,1 @ F,0,0,1,0,0,0,1 @ F,0,1,1,0,14.502387,0,1"
       unit="px"
       method="auto"
       mode="F"
       radius="0"
       chamfer_steps="1"
       flexible="false"
       use_knot_distance="true"
       apply_no_radius="true"
       apply_with_radius="true"
       only_selected="true"
       hide_knots="false" />
  </defs>
  <sodipodi:namedview
     id="namedview2909"
     pagecolor="#505050"
     bordercolor="#eeeeee"
     borderopacity="1"
     inkscape:pageshadow="0"
     inkscape:pageopacity="0"
     inkscape:pagecheckerboard="0"
     showgrid="true"
     inkscape:zoom="0.82449756"
     inkscape:cx="463.9189"
     inkscape:cy="599.15277"
     inkscape:window-width="2560"
     inkscape:window-height="1377"
     inkscape:window-x="-8"
     inkscape:window-y="-8"
     inkscape:window-maximized="1"
     inkscape:current-layer="layer1"
     inkscape:snap-grids="false"
     inkscape:snap-bbox="true"
     inkscape:snap-bbox-midpoints="false"
     inkscape:snap-object-midpoints="true"
     inkscape:snap-global="true"
     inkscape:snap-page="false">
    <inkscape:grid
       type="xygrid"
       id="grid2997"
       spacingx="64"
       spacingy="64"
       color="#a2a2a2"
       opacity="0.1254902"
       empcolor="#ffffff"
       empopacity="0.25098039" />
  </sodipodi:namedview>
  <g
     inkscape:groupmode="layer"
     id="layer1"
     inkscape:label="Vectors"
     style="display:inline">
    <path
       id="rect3028"
       style="fill:#ffffff;fill-opacity:1;stroke-width:1.00157;stroke-linecap:round;stroke-linejoin:round;stroke-dashoffset:20.8539;paint-order:stroke markers fill"
       d="m 64,0 h 64 A 64,64 135 0 0 64,64 Z" />
    <path
       id="rect3028-0"
       style="fill:#ffffff;fill-opacity:1;stroke-width:1.00157;stroke-linecap:round;stroke-linejoin:round;stroke-dashoffset:20.8539;paint-order:stroke markers fill"
       d="m 192,64 h 64 V 0 h -3.56055 A 60.439455,60.439455 135 0 0 192,60.439455 Z" />
    <path
       id="rect3028-0-8"
       style="fill:#ffffff;fill-opacity:1;stroke-width:1.00157;stroke-linecap:round;stroke-linejoin:round;stroke-dashoffset:20.8539;paint-order:stroke markers fill"
       d="m 448,256 v 32 l 32,-32 z m 32,0 32,32 v -32 z m 32,32 -32,32 h 32 z" />
    <path
       id="path7085"
       style="fill:#ffffff;fill-opacity:1;stroke:none;stroke-width:1.00157;stroke-linecap:round;stroke-linejoin:round;stroke-dashoffset:20.8539;stroke-opacity:1;paint-order:stroke markers fill"
       d="M 270.50195,64 C 262.4925,64 256,70.492503 256,78.501953 V 96 128 h 32 32 V 96 78.501953 C 320,70.492503 313.5075,64 305.49805,64 H 288 Z" />
    <path
       id="path7085-4"
       style="fill:#ffffff;fill-opacity:1;stroke:none;stroke-width:1.00157;stroke-linecap:round;stroke-linejoin:round;stroke-dashoffset:20.8539;stroke-opacity:1;paint-order:stroke markers fill"
       d="M 206.50195,128 C 198.4925,128 192,134.4925 192,142.50195 V 160 192 h 32 17.49805 C 249.5075,192 256,185.5075 256,177.49805 V 160 142.50195 C 256,134.4925 249.5075,128 241.49805,128 H 224 Z" />
    <path
       id="path7081"
       style="fill:#ffffff;fill-opacity:1;stroke-width:1.00157;stroke-linecap:round;stroke-linejoin:round;stroke-dashoffset:20.8539;paint-order:stroke markers fill"
       d="m 544,256 -32,32 v 32 h 32 l 32,-32 v -32 z" />
    <path
       id="rect3028-2"
       style="fill:#ffffff;fill-opacity:1;stroke-width:1.00157;stroke-linecap:round;stroke-linejoin:round;stroke-dashoffset:20.8539;paint-order:stroke markers fill"
       d="m 256,0 h 64 v 64 h -64 z" />
    <path
       id="path7205"
       style="fill:#ffffff;fill-opacity:1;stroke-width:1.00157;stroke-linecap:round;stroke-linejoin:round;stroke-dashoffset:20.8539;paint-order:stroke markers fill"
       d="m 384,256 v 32 l 32,-32 z m 64,32 -32,32 h 32 z" />
    <path
       id="path7209"
       style="fill:#ffffff;fill-opacity:1;stroke-width:1.00157;stroke-linecap:round;stroke-linejoin:round;stroke-dashoffset:20.8539;paint-order:stroke markers fill"
       d="M 384,223.99972 V 192 v 0 h 32" />
    <path
       id="path7211"
       style="fill:#ffffff;fill-opacity:1;stroke-width:1.00157;stroke-linecap:round;stroke-linejoin:round;stroke-dashoffset:20.8539;paint-order:stroke markers fill"
       d="m 448,192 v 32 l 32,-32 z m 32,0 32,32 v -32 z" />
    <path
       id="path7215"
       style="fill:#ffffff;fill-opacity:1;stroke-width:1.00157;stroke-linecap:round;stroke-linejoin:round;stroke-dashoffset:20.8539;paint-order:stroke markers fill"
       d="m 448,320 v 32 l 32,-32 z m 32,0 32,32 v -32 z m 32,32 -32,32 h 32 z m -32,32 -32,-32 v 32 z" />
    <path
       id="path7223"
       style="fill:#ffffff;fill-opacity:1;stroke-width:1.00157;stroke-linecap:round;stroke-linejoin:round;stroke-dashoffset:20.8539;paint-order:stroke markers fill"
       d="m 479.99972,416 v 32 H 448" />
    <path
       id="path7225"
       style="fill:#ffffff;fill-opacity:1;stroke-width:1.00157;stroke-linecap:round;stroke-linejoin:round;stroke-dashoffset:20.8539;paint-order:stroke markers fill"
       d="m 448,384 v 32 h -31.99972" />
    <path
       id="path7227"
       style="fill:#ffffff;fill-opacity:1;stroke-width:1.00157;stroke-linecap:round;stroke-linejoin:round;stroke-dashoffset:20.8539;paint-order:stroke markers fill"
       d="m 416.00028,320 v 32 h -31.99972" />
    <path
       id="path7229"
       style="fill:#ffffff;fill-opacity:1;stroke-width:1.00157;stroke-linecap:round;stroke-linejoin:round;stroke-dashoffset:20.8539;paint-order:stroke markers fill"
       d="m 512,384 32,32 32,-32 h -32 z" />
    <path
       id="path7234"
       style="fill:#ffffff;fill-opacity:1;stroke-width:1.00157;stroke-linecap:round;stroke-linejoin:round;stroke-dashoffset:20.8539;paint-order:stroke markers fill"
       d="m 608,320 -32,32 32,32 32,-32 z" />
    <path
       id="path7338"
       style="fill:#ffffff;fill-opacity:1;stroke-width:1.00157;stroke-linecap:round;stroke-linejoin:round;stroke-dashoffset:20.8539;paint-order:stroke markers fill"
       d="m 608,256 -32,32 v 32 h 32 l 32,-32 z" />
    <path
       id="path7340"
       style="fill:#ffffff;fill-opacity:1;stroke-width:1.00157;stroke-linecap:round;stroke-linejoin:round;stroke-dashoffset:20.8539;paint-order:stroke markers fill"
       d="m 608,192 -32,32 v 32 h 32 32 v -32 z" />
    <path
       id="path7342"
       style="fill:#ffffff;fill-opacity:1;stroke-width:1.00157;stroke-linecap:round;stroke-linejoin:round;stroke-dashoffset:20.8539;paint-order:stroke markers fill"
       d="m 512,192 v 32 32 h 32 32 v -32 l -32,-32 z" />
    <path
       id="path8178"
       style="fill:#ffffff;fill-opacity:1;stroke:none;stroke-width:1.00157;stroke-linecap:round;stroke-linejoin:round;stroke-dashoffset:20.8539;stroke-opacity:1;paint-order:stroke markers fill"
       d="M 206.50195,64 C 198.4925,64 192,70.492503 192,78.501953 V 96 128 h 32 32 V 96 64 h -32 z" />
    <path
       id="path8180"
       style="fill:#ffffff;fill-opacity:1;stroke:none;stroke-width:1.00157;stroke-linecap:round;stroke-linejoin:round;stroke-dashoffset:20.8539;stroke-opacity:1;paint-order:stroke markers fill"
       d="M 270.50195,128 C 262.4925,128 256,134.4925 256,142.50195 V 160 177.49805 C 256,185.5075 262.4925,192 270.50195,192 H 288 305.49805 C 313.5075,192 320,185.5075 320,177.49805 V 160 142.50195 C 320,134.4925 313.5075,128 305.49805,128 H 288 Z" />
    <path
       id="path8298"
       style="fill:#ffffff;fill-opacity:1;stroke:none;stroke-width:1.00157;stroke-linecap:round;stroke-linejoin:round;stroke-dashoffset:20.8539;stroke-opacity:1;paint-order:stroke markers fill"
       d="m 480,0 v 32 h 32 V 0 Z"
       sodipodi:nodetypes="ccccc" />
    <path
       id="path8402"
       style="fill:#ffffff;fill-opacity:1;stroke:none;stroke-width:1.00157;stroke-linecap:round;stroke-linejoin:round;stroke-dashoffset:20.8539;stroke-opacity:1;paint-order:stroke markers fill"
       d="m 544,0 v 32 h 32 V 0 Z m 0,32 h -32 v 32 h 32 z" />
    <path
       id="path8406"
       style="fill:#ffffff;fill-opacity:1;stroke:none;stroke-width:1.00157;stroke-linecap:round;stroke-linejoin:round;stroke-dashoffset:20.8539;stroke-opacity:1;paint-order:stroke markers fill"
       d="m 448,64 v 32 h 32 v 32 h 32 V 96 64 h -32 z" />
    <path
       id="path8412"
       style="fill:#ffffff;fill-opacity:1;stroke:none;stroke-width:1.00157;stroke-linecap:round;stroke-linejoin:round;stroke-dashoffset:20.8539;stroke-opacity:1;paint-order:stroke markers fill"
       d="m 512,64 v 32 h 32 32 V 64 h -32 z" />
    <path
       id="path8424"
       style="fill:#ffffff;fill-opacity:1;stroke:none;stroke-width:1.00157;stroke-linecap:round;stroke-linejoin:round;stroke-dashoffset:20.8539;stroke-opacity:1;paint-order:stroke markers fill"
       d="M 270.50195,192 C 262.4925,192 256,198.4925 256,206.50195 V 224 256 h 32 17.49805 C 313.5075,256 320,249.5075 320,241.49805 V 224 192 h -32 z" />
    <path
       id="path8436"
       style="fill:#ffffff;fill-opacity:1;stroke:none;stroke-width:1.00157;stroke-linecap:round;stroke-linejoin:round;stroke-dashoffset:20.8539;stroke-opacity:1;paint-order:stroke markers fill"
       d="m 640,0 32,32 h 32 V 0 h -32 z" />
    <path
       id="path8466"
       style="fill:#ffffff;fill-opacity:0.990654;stroke:none;stroke-width:1.00157;stroke-linecap:round;stroke-linejoin:round;stroke-dashoffset:20.8539;stroke-opacity:1;paint-order:stroke markers fill"
       d="m 791.08008,144.94727 c -7.42124,2.1e-4 -13.43729,6.01626 -13.4375,13.4375 -8.7e-4,7.422 6.0155,13.43924 13.4375,13.43945 3.56416,-4.5e-4 6.98214,-1.41683 9.50195,-3.9375 l -4.13086,-4.13086 c -1.42449,1.42449 -3.35655,2.22471 -5.37109,2.22461 -4.19507,2e-4 -7.5959,-3.40063 -7.5957,-7.5957 8.7e-4,-4.19431 3.40139,-7.59395 7.5957,-7.59375 2.01386,4.1e-4 3.94512,0.8006 5.36914,2.2246 h 0.002 l 4.10547,-4.10742 c -2.50975,-2.52305 -5.91784,-3.94755 -9.47656,-3.96093 z m 13.86914,0 v 26.11914 h 5.17578 v -6.88477 l 4.89258,-0.0391 c 4.05936,-0.0536 9.84765,-2.66318 9.84765,-9.59766 0,-6.93448 -5.67143,-9.59265 -9.84765,-9.59765 z m 5.17578,6.02929 h 4.13281 c 1.97702,0 4.76367,0.57771 4.76367,3.64453 0,3.06682 -2.70491,3.64258 -4.7871,3.64258 H 810.125 Z" />
    <path
       id="path11850"
       style="fill:#000000;fill-opacity:0.990654;stroke:none;stroke-width:1.00157;stroke-linecap:round;stroke-linejoin:round;stroke-dashoffset:20.8539;stroke-opacity:1;paint-order:stroke markers fill"
       d="m 726.85156,144.94727 c -7.42124,2.1e-4 -13.43729,6.01626 -13.4375,13.4375 -8.6e-4,7.422 6.0155,13.43924 13.4375,13.43945 3.56416,-4.5e-4 6.98215,-1.41683 9.50196,-3.9375 l -4.13086,-4.13086 c -1.4245,1.42449 -3.35656,2.22471 -5.3711,2.22461 -4.19507,2e-4 -7.5959,-3.40063 -7.5957,-7.5957 8.8e-4,-4.19431 3.40139,-7.59395 7.5957,-7.59375 2.01386,4.1e-4 3.94512,0.80059 5.36914,2.2246 h 0.002 l 4.10546,-4.10742 c -2.50975,-2.52306 -5.91784,-3.94754 -9.47656,-3.96093 z m 13.86914,0 v 26.11914 h 5.17578 v -6.88477 l 4.89258,-0.0391 c 4.05936,-0.0536 9.84766,-2.66318 9.84766,-9.59766 0,-6.93448 -5.67144,-9.59265 -9.84766,-9.59765 z m 5.17578,6.02929 h 4.13282 c 1.97702,0 4.76367,0.57771 4.76367,3.64453 0,3.06682 -2.70492,3.64258 -4.78711,3.64258 h -4.10938 z" />
    <path
       id="path11964"
       style="fill:#ffffff;fill-opacity:1;stroke:none;stroke-width:1.00157;stroke-linecap:round;stroke-linejoin:round;stroke-dashoffset:20.8539;stroke-opacity:1;paint-order:stroke markers fill"
       d="M 416,0 V 2.701853 A 29.298147,29.298147 45 0 0 445.29815,32 H 448 V 0 Z"
       sodipodi:nodetypes="ccccc"
       inkscape:path-effect="#path-effect11966"
       inkscape:original-d="m 416,0 v 32 h 32 V 0 Z" />
    <path
       style="fill:#ffffff;fill-opacity:1;stroke:none;stroke-width:1px;stroke-linecap:butt;stroke-linejoin:miter;stroke-opacity:1"
       d="m 128,0 64,64 V 0 Z"
       id="path12516" />
    <path
       id="path12783"
       style="fill:#ffffff;fill-opacity:1;stroke:none;stroke-width:1px;stroke-linecap:butt;stroke-linejoin:miter;stroke-opacity:1"
       d="m 800.0332,343.93164 c -1.54633,0.027 -4.81552,0.0129 -13.08593,6.25781 -2.89176,2.18353 -18.52344,15.79102 -18.52344,15.79102 0,0 7.35308,0.15097 14.09961,-5.76172 6.74653,-5.91269 10.91483,-9.71166 17.50976,-9.86328 6.59493,0.15162 10.76324,3.95059 17.50977,9.86328 6.74653,5.91269 14.09961,5.76172 14.09961,5.76172 0,0 -15.63168,-13.60749 -18.52344,-15.79102 -8.27041,-6.24489 -11.53961,-6.23082 -13.08594,-6.25781 z" />
    <path
       id="path15675"
       style="fill:#ffffff;fill-opacity:1;stroke:none;stroke-width:1px;stroke-linecap:butt;stroke-linejoin:miter;stroke-opacity:1"
       d="m 736.05469,337.86719 c -1.54633,0.027 -4.81553,0.0129 -13.08594,6.25781 -2.89176,2.18353 -18.52344,15.79102 -18.52344,15.79102 0,0 7.35308,0.15097 14.09961,-5.76172 6.74653,-5.91269 10.91484,-9.71166 17.50977,-9.86328 6.59493,0.15162 10.76323,3.95059 17.50976,9.86328 6.74653,5.91269 14.09961,5.76172 14.09961,5.76172 0,0 -15.63168,-13.60749 -18.52344,-15.79102 -8.2704,-6.24489 -11.5396,-6.23082 -13.08593,-6.25781 z m 0,16.0039 c -1.54633,0.027 -4.81553,0.0129 -13.08594,6.25782 -2.89176,2.18353 -18.52344,15.79101 -18.52344,15.79101 0,0 7.35308,0.15097 14.09961,-5.76172 6.74653,-5.91269 10.91484,-9.71166 17.50977,-9.86328 6.59493,0.15162 10.76323,3.95059 17.50976,9.86328 6.74653,5.91269 14.09961,5.76172 14.09961,5.76172 0,0 -15.63168,-13.60748 -18.52344,-15.79101 -8.2704,-6.24489 -11.5396,-6.23083 -13.08593,-6.25782 z" />
    <path
       id="path15769"
       style="fill:#ffffff;fill-opacity:1;stroke:none;stroke-width:1px;stroke-linecap:butt;stroke-linejoin:miter;stroke-opacity:1"
       d="m 715.64062,264.21094 c 0,0 5.09155,5.30687 14.04297,5.89648 8.95142,0.58962 14.58494,0.85014 19.35547,5.40625 4.55611,4.77053 4.8186,10.40405 5.40821,19.35547 0.58962,8.95142 5.89453,14.04297 5.89453,14.04297 0,0 -1.43085,-20.6749 -1.93164,-24.26367 -1.43226,-10.26387 -3.75379,-12.56524 -4.82813,-13.67774 -1.11251,-1.07433 -3.41385,-3.39588 -13.67773,-4.82812 -3.58877,-0.5008 -24.26368,-1.93164 -24.26368,-1.93164 z m -11.15624,10.77929 c 0,0 5.0935,5.30687 14.04492,5.89649 8.95142,0.58961 14.58493,0.85014 19.35547,5.40625 4.5561,4.77053 4.81664,10.40405 5.40625,19.35547 0.58961,8.95142 5.89648,14.04492 5.89648,14.04492 0,0 -1.43085,-20.6749 -1.93164,-24.26367 -1.43226,-10.26387 -3.75379,-12.56523 -4.82813,-13.67774 -1.11251,-1.07433 -3.4158,-3.39587 -13.67968,-4.82812 -3.58877,-0.50079 -24.26367,-1.9336 -24.26367,-1.9336 z" />
    <path
       id="path15773"
       style="fill:#ffffff;fill-opacity:1;stroke:none;stroke-width:1px;stroke-linecap:butt;stroke-linejoin:miter;stroke-opacity:1"
       d="m 809.27395,279.1184 c -1.11251,-1.07433 -3.41421,-3.39597 -13.67809,-4.82821 -3.58877,-0.5008 -24.26398,-1.93211 -24.26398,-1.93211 0,0 5.09266,5.30616 14.04408,5.89577 8.95142,0.58962 14.58513,0.85077 19.35566,5.40688 4.55611,4.77053 4.81727,10.40425 5.40688,19.35567 0.58962,8.95142 5.89578,14.04408 5.89578,14.04408 0,0 -1.43132,-20.67521 -1.93211,-24.26398 -1.43226,-10.26387 -3.75388,-12.5656 -4.82822,-13.6781 z" />
    <path
       style="fill:#ffffff;fill-opacity:1;stroke:none;stroke-width:1px;stroke-linecap:butt;stroke-linejoin:miter;stroke-opacity:1"
       d="m 896,368.19314 31.95905,-32.49349 31.95906,32.49349 -31.95906,-23.40814 z"
       id="path15865"
       sodipodi:nodetypes="ccccc" />
    <path
       id="path16181"
       style="fill:#ffffff;fill-opacity:1;stroke:none;stroke-width:1px;stroke-linecap:butt;stroke-linejoin:miter;stroke-opacity:1"
       d="m 864.02734,327.53711 -31.95898,32.49414 31.95898,-23.4082 31.95899,23.4082 z m 0,16.07031 -31.95898,32.49414 31.95898,-23.4082 31.95899,23.4082 z" />
    <path
       style="fill:#ffffff;fill-opacity:1;stroke:none;stroke-width:1px;stroke-linecap:butt;stroke-linejoin:miter;stroke-opacity:1"
       d="m 898.80373,271.88072 45.57483,-0.3779 -0.3779,45.57483 -6.04642,-39.15052 z"
       id="path16245"
       sodipodi:nodetypes="ccccc" />
    <path
       id="path16247"
       style="fill:#ffffff;fill-opacity:1;stroke:none;stroke-width:1px;stroke-linecap:butt;stroke-linejoin:miter;stroke-opacity:1"
       d="m 888.41797,263.14062 -45.93359,1.17383 39.50976,5.25 5.76172,39.63477 z m -10.82617,11.26368 -45.56055,1.01758 39.13477,5.40624 5.3457,39.13086 z" />
    <path
       id="path16565"
       style="fill:#ffffff;fill-opacity:1;stroke:none;stroke-width:1px;stroke-linecap:butt;stroke-linejoin:miter;stroke-opacity:1"
       d="m 736.05469,391.76367 c -1.54633,0.027 -4.81553,0.0129 -13.08594,6.25781 -2.89176,2.18353 -18.52344,15.79102 -18.52344,15.79102 0,0 7.35308,0.15097 14.09961,-5.76172 6.74653,-5.91269 10.91484,-9.71166 17.50977,-9.86328 6.59493,0.15162 10.76323,3.95059 17.50976,9.86328 6.74653,5.91269 14.09961,5.76172 14.09961,5.76172 0,0 -15.63168,-13.60749 -18.52344,-15.79102 -8.2704,-6.24489 -11.5396,-6.23082 -13.08593,-6.25781 z m -31.60938,26.38867 c 0,0 15.63168,13.60749 18.52344,15.79102 8.27041,6.24491 11.53961,6.23081 13.08594,6.25781 1.54633,-0.027 4.81553,-0.0129 13.08593,-6.25781 2.89176,-2.18353 18.52344,-15.79102 18.52344,-15.79102 0,0 -7.35308,-0.15097 -14.09961,5.76172 -6.74653,5.91269 -10.91483,9.71166 -17.50976,9.86328 -6.59493,-0.15162 -10.76324,-3.95059 -17.50977,-9.86328 -6.74653,-5.91269 -14.09961,-5.76172 -14.09961,-5.76172 z" />
    <path
       id="path16634"
       style="fill:#ffffff;fill-opacity:1;stroke:none;stroke-width:1px;stroke-linecap:butt;stroke-linejoin:miter;stroke-opacity:1"
       d="m 779.62695,392.375 c 0,0 5.09351,5.30492 14.04493,5.89453 8.95141,0.58962 14.58493,0.85209 19.35546,5.4082 4.55611,4.77053 4.81664,10.40405 5.40625,19.35547 0.58962,8.95142 5.89649,14.04297 5.89649,14.04297 0,0 -1.43281,-20.6749 -1.9336,-24.26367 -1.43226,-10.26387 -3.75378,-12.56523 -4.82812,-13.67773 -1.11251,-1.07433 -3.41385,-3.39589 -13.67774,-4.82813 -3.58876,-0.5008 -24.26367,-1.93164 -24.26367,-1.93164 z m -3.34765,2.74414 c 0,0 1.43085,20.6749 1.93164,24.26367 1.43226,10.26387 3.75378,12.56523 4.82812,13.67774 1.11251,1.07433 3.41386,3.39587 13.67774,4.82812 3.58877,0.50079 24.26562,1.9336 24.26562,1.9336 0,0 -5.0935,-5.30687 -14.04492,-5.89649 -8.95142,-0.58961 -14.58493,-0.85014 -19.35547,-5.40625 -4.5561,-4.77053 -4.81664,-10.40405 -5.40625,-19.35547 -0.58961,-8.95142 -5.89648,-14.04492 -5.89648,-14.04492 z" />
    <path
       id="path16705"
       style="fill:#ffffff;fill-opacity:1;stroke:none;stroke-width:1px;stroke-linecap:butt;stroke-linejoin:miter;stroke-opacity:1"
       d="m 864.02734,384.07648 -31.36717,31.89144 31.36717,-22.97283 31.36718,22.97283 z m 31.36718,31.89144 -31.36718,22.97479 -31.36717,-22.97479 31.36717,31.89146 z" />
    <path
       id="path16709"
       style="fill:#ffffff;fill-opacity:1;stroke:none;stroke-width:0.999999px;stroke-linecap:butt;stroke-linejoin:miter;stroke-opacity:1"
       d="m 952.27734,391.33203 -48.2832,0.40039 41.47656,6.40625 6.40625,41.47656 z m -0.40039,48.2832 -41.47851,-6.40625 -6.4043,-41.47656 -0.40039,48.2832 z" />
    <path
       id="path16828"
       style="fill:#ffffff;fill-opacity:1;stroke:none;stroke-width:1.00157;stroke-linecap:round;stroke-linejoin:round;stroke-dashoffset:20.8539;stroke-opacity:1;paint-order:stroke markers fill"
       d="m 64,128 v 16.92773 C 64,135.57855 71.578555,128 80.927734,128 Z m 47.07227,0 C 120.42145,128 128,135.57855 128,144.92773 V 128 Z M 128,175.07227 C 128,184.42145 120.42145,192 111.07227,192 H 128 Z" />
    <path
       id="path16833"
       style="fill:#ffffff;fill-opacity:1;stroke:none;stroke-width:1.00157;stroke-linecap:round;stroke-linejoin:round;stroke-dashoffset:20.8539;stroke-opacity:1;paint-order:stroke markers fill"
       d="M 64,64 V 80.92767 C 64,71.57849 71.578494,64 80.927673,64 Z" />
    <path
       id="path16835"
       style="fill:#ffffff;fill-opacity:1;stroke:none;stroke-width:1.00157;stroke-linecap:round;stroke-linejoin:round;stroke-dashoffset:20.8539;stroke-opacity:1;paint-order:stroke markers fill"
       d="M 128,64 V 80.927734 C 128,71.578554 135.57855,64 144.92773,64 Z m 47.07227,0 C 184.42145,64 192,71.578554 192,80.927734 V 64 Z" />
    <path
       id="path16923"
       style="fill:#ffffff;fill-opacity:1;stroke:none;stroke-width:1.00157;stroke-linecap:round;stroke-linejoin:round;stroke-dashoffset:20.8539;stroke-opacity:1;paint-order:stroke markers fill"
       d="m 128,128 v 16.92773 C 128,135.57855 135.57855,128 144.92773,128 Z m 47.07227,0 C 184.42145,128 192,135.57855 192,144.92773 V 128 Z M 128,175.07227 V 192 h 16.92773 C 135.57855,192 128,184.42145 128,175.07227 Z m 64,0 C 192,184.42145 184.42145,192 175.07227,192 H 192 Z" />
    <path
       id="path16933"
       style="fill:#ffffff;fill-opacity:1;stroke:none;stroke-width:1.00157;stroke-linecap:round;stroke-linejoin:round;stroke-dashoffset:20.8539;stroke-opacity:1;paint-order:stroke markers fill"
       d="m 128,192 v 16.92773 C 128,199.57855 135.57855,192 144.92773,192 Z m 64,47.07227 C 192,248.42145 184.42145,256 175.07227,256 H 192 Z" />
    <path
       style="fill:#ffffff;fill-opacity:1;stroke:none;stroke-width:1px;stroke-linecap:butt;stroke-linejoin:miter;stroke-opacity:1"
       d="M 320,0 V 0 16.698465 L 336.69847,0 H 320"
       id="path16978" />
    <path
       id="rect17208"
       style="fill:#ffffff;stroke-width:1.00157;stroke-linecap:round;stroke-linejoin:round;stroke-dashoffset:20.8539;paint-order:stroke markers fill"
       d="M 0,0 H 8.3005095 V 8.3005095 H 0 Z" />
    <path
       id="rect17208-5"
       style="fill:#ffffff;stroke-width:1.00157;stroke-linecap:round;stroke-linejoin:round;stroke-dashoffset:20.8539;paint-order:stroke markers fill"
       d="M 1015.6995,1015.6995 H 1024 V 1024 h -8.3005 z" />
    <path
       id="rect17208-3"
       style="fill:#ffffff;fill-opacity:1;stroke-width:1.00157;stroke-linecap:round;stroke-linejoin:round;stroke-dashoffset:20.8539;paint-order:stroke markers fill"
       d="m 528.14621,656.14622 h 31.70761 v 31.7076 h -31.70761 z" />
    <path
       id="path17386"
       style="fill:#ffffff;fill-opacity:1;stroke-width:1.00157;stroke-linecap:round;stroke-linejoin:round;stroke-dashoffset:20.8539;paint-order:stroke markers fill"
       d="M 624.23282,672 A 16.232822,16.232822 0 0 1 608,688.23282 16.232822,16.232822 0 0 1 591.76717,672 16.232822,16.232822 0 0 1 608,655.76717 16.232822,16.232822 0 0 1 624.23282,672 Z" />
    <path
       id="path17493"
       style="fill:#ffffff;fill-opacity:1;stroke-width:1.00157;stroke-linecap:round;stroke-linejoin:round;stroke-dashoffset:20.8539;paint-order:stroke markers fill"
       d="M 608,591.76758 A 16.232822,16.232822 0 0 0 591.76758,608 16.232822,16.232822 0 0 0 608,624.23242 16.232822,16.232822 0 0 0 624.23242,608 16.232822,16.232822 0 0 0 608,591.76758 Z m 0,8.49023 A 7.7428045,7.7428045 0 0 1 615.74219,608 7.7428045,7.7428045 0 0 1 608,615.74219 7.7428045,7.7428045 0 0 1 600.25781,608 7.7428045,7.7428045 0 0 1 608,600.25781 Z" />
    <path
       id="path17697"
       style="fill:#ffffff;fill-opacity:1;stroke-width:1.00157;stroke-linecap:round;stroke-linejoin:round;stroke-dashoffset:20.8539;paint-order:stroke markers fill"
       d="m 528.14648,592.14648 v 31.70704 h 31.70704 v -31.70704 z m 7.88282,7.88282 h 15.9414 v 15.9414 h -15.9414 z" />
    <path
       id="path17852"
       style="fill:#ffffff;fill-opacity:1;stroke-width:1.00157;stroke-linecap:round;stroke-linejoin:round;stroke-dashoffset:20.8539;paint-order:stroke markers fill"
       d="m 464.14648,592.14648 v 7.93555 H 448 v 15.83594 h 16.14648 v 7.93555 h 31.70704 v -31.70704 z m 7.88282,7.88282 h 15.9414 v 15.9414 h -15.9414 z" />
    <path
       id="path17952"
       style="fill:#ffffff;fill-opacity:1;stroke-width:1.00157;stroke-linecap:round;stroke-linejoin:round;stroke-dashoffset:20.8539;paint-order:stroke markers fill"
       d="m 416,591.76758 a 16.232822,16.232822 0 0 0 -14.125,8.31445 H 384 v 15.83594 h 17.875 A 16.232822,16.232822 0 0 0 416,624.23242 16.232822,16.232822 0 0 0 432.23242,608 16.232822,16.232822 0 0 0 416,591.76758 Z m 0,8.49023 A 7.7428045,7.7428045 0 0 1 423.74219,608 7.7428045,7.7428045 0 0 1 416,615.74219 7.7428045,7.7428045 0 0 1 408.25781,608 7.7428045,7.7428045 0 0 1 416,600.25781 Z" />
    <path
       id="path17958"
       style="fill:#ffffff;fill-opacity:1;stroke-width:1.00157;stroke-linecap:round;stroke-linejoin:round;stroke-dashoffset:20.8539;paint-order:stroke markers fill"
       d="m 336.14648,592.14648 v 7.93555 H 320 v 15.83594 h 16.14648 v 7.93555 h 31.70704 v -31.70704 z" />
    <path
       id="path17960"
       style="fill:#ffffff;fill-opacity:1;stroke-width:1.00157;stroke-linecap:round;stroke-linejoin:round;stroke-dashoffset:20.8539;paint-order:stroke markers fill"
       d="m 288,591.76758 a 16.232822,16.232822 0 0 0 -14.125,8.31445 H 256 v 15.83594 h 17.875 A 16.232822,16.232822 0 0 0 288,624.23242 16.232822,16.232822 0 0 0 304.23242,608 16.232822,16.232822 0 0 0 288,591.76758 Z" />
    <path
       id="path17962"
       style="fill:#ffffff;fill-opacity:1;stroke-width:1.00157;stroke-linecap:round;stroke-linejoin:round;stroke-dashoffset:20.8539;paint-order:stroke markers fill"
       d="m 216.08203,576 v 24.08203 H 192 v 15.83594 h 24.08203 V 640 h 15.83594 V 615.91797 H 256 V 600.08203 H 231.91797 V 576 Z" />
    <path
       id="path18158"
       style="fill:#ffffff;fill-opacity:1;stroke-width:1.00157;stroke-linecap:round;stroke-linejoin:round;stroke-dashoffset:20.8539;paint-order:stroke markers fill"
       d="m 128,615.91798 h 24.08203 V 640 h 15.83594 V 615.91798 H 192 v -15.83595 h -64 z"
       sodipodi:nodetypes="ccccccccc" />
    <path
       id="path18162"
       style="fill:#ffffff;fill-opacity:1;stroke-width:1.00157;stroke-linecap:round;stroke-linejoin:round;stroke-dashoffset:20.8539;paint-order:stroke markers fill"
       d="M 103.91797,640 V 615.91797 H 128 V 600.08203 H 88.082033 V 640 Z"
       sodipodi:nodetypes="ccccccc" />
    <path
       id="path18166"
       style="fill:#ffffff;fill-opacity:1;stroke-width:1.00157;stroke-linecap:round;stroke-linejoin:round;stroke-dashoffset:20.8539;paint-order:stroke markers fill"
       d="M 88.082033,704 H 103.91797 V 640 H 88.082033 Z"
       sodipodi:nodetypes="ccccc" />
    <path
       id="path18994"
       style="fill:#ffffff;fill-opacity:1;stroke-width:1.00157;stroke-linecap:round;stroke-linejoin:round;stroke-dashoffset:20.8539;paint-order:stroke markers fill"
       d="m 464.14648,656.14648 v 7.93555 H 448 v 15.83594 h 16.14648 v 7.93555 h 31.70704 v -7.93555 H 512 v -15.83594 h -16.14648 v -7.93555 z m 7.88282,7.88282 h 15.9414 v 15.9414 h -15.9414 z" />
    <path
       id="path18996"
       style="fill:#ffffff;fill-opacity:1;stroke-width:1.00157;stroke-linecap:round;stroke-linejoin:round;stroke-dashoffset:20.8539;paint-order:stroke markers fill"
       d="m 416,655.76758 a 16.232822,16.232822 0 0 0 -14.125,8.31445 H 384 v 15.83594 h 17.875 a 16.232822,16.232822 0 0 0 14.125,8.31445 16.232822,16.232822 0 0 0 14.125,-8.31445 H 448 V 664.08203 H 430.125 A 16.232822,16.232822 0 0 0 416,655.76758 Z m 0,8.49023 A 7.7428045,7.7428045 0 0 1 423.74219,672 7.7428045,7.7428045 0 0 1 416,679.74219 7.7428045,7.7428045 0 0 1 408.25781,672 7.7428045,7.7428045 0 0 1 416,664.25781 Z" />
    <path
       id="path18998"
       style="fill:#ffffff;fill-opacity:1;stroke-width:1.00157;stroke-linecap:round;stroke-linejoin:round;stroke-dashoffset:20.8539;paint-order:stroke markers fill"
       d="m 336.14648,656.14648 v 7.93555 H 320 v 15.83594 h 16.14648 v 7.93555 h 31.70704 v -7.93555 H 384 v -15.83594 h -16.14648 v -7.93555 z" />
    <path
       id="path19000"
       style="fill:#ffffff;fill-opacity:1;stroke-width:1.00157;stroke-linecap:round;stroke-linejoin:round;stroke-dashoffset:20.8539;paint-order:stroke markers fill"
       d="m 288,655.76758 a 16.232822,16.232822 0 0 0 -14.125,8.31445 H 256 v 15.83594 h 17.875 a 16.232822,16.232822 0 0 0 14.125,8.31445 16.232822,16.232822 0 0 0 14.125,-8.31445 H 320 V 664.08203 H 302.16602 A 16.232822,16.232822 0 0 0 288,655.76758 Z" />
    <path
       id="path19004"
       style="fill:#ffffff;fill-opacity:1;stroke-width:1.00157;stroke-linecap:round;stroke-linejoin:round;stroke-dashoffset:20.8539;paint-order:stroke markers fill"
       d="m 472.08203,704 v 16.14648 h -7.93555 v 7.93555 H 448 v 15.83594 h 16.14648 v 7.93555 h 31.70704 v -31.70704 h -7.93555 V 704 Z m -0.0527,24.0293 h 15.9414 v 15.9414 h -15.9414 z" />
    <path
       id="path19006"
       style="fill:#ffffff;fill-opacity:1;stroke-width:1.00157;stroke-linecap:round;stroke-linejoin:round;stroke-dashoffset:20.8539;paint-order:stroke markers fill"
       d="m 408.08203,704 v 17.875 a 16.232822,16.232822 0 0 0 -6.20703,6.20703 H 384 v 15.83594 h 17.875 A 16.232822,16.232822 0 0 0 416,752.23242 16.232822,16.232822 0 0 0 432.23242,736 16.232822,16.232822 0 0 0 423.91797,721.875 V 704 Z M 416,728.25781 A 7.7428045,7.7428045 0 0 1 423.74219,736 7.7428045,7.7428045 0 0 1 416,743.74219 7.7428045,7.7428045 0 0 1 408.25781,736 7.7428045,7.7428045 0 0 1 416,728.25781 Z" />
    <path
       id="path19008"
       style="fill:#ffffff;fill-opacity:1;stroke-width:1.00157;stroke-linecap:round;stroke-linejoin:round;stroke-dashoffset:20.8539;paint-order:stroke markers fill"
       d="m 344.08203,704 v 16.14648 h -7.93555 v 7.93555 H 320 v 15.83594 h 16.14648 v 7.93555 h 31.70704 v -31.70704 h -7.93555 V 704 Z" />
    <path
       id="path19010"
       style="fill:#ffffff;fill-opacity:1;stroke-width:1.00157;stroke-linecap:round;stroke-linejoin:round;stroke-dashoffset:20.8539;paint-order:stroke markers fill"
       d="m 280.08203,704 v 17.875 a 16.232822,16.232822 0 0 0 -6.20703,6.20703 H 256 v 15.83594 h 17.875 A 16.232822,16.232822 0 0 0 288,752.23242 16.232822,16.232822 0 0 0 304.23242,736 16.232822,16.232822 0 0 0 295.91797,721.83398 V 704 Z" />
    <path
       id="path19014"
       style="fill:#ffffff;fill-opacity:1;stroke-width:1.00157;stroke-linecap:round;stroke-linejoin:round;stroke-dashoffset:20.8539;paint-order:stroke markers fill"
       d="m 472.08203,768 v 16.14648 h -7.93555 v 7.93555 H 448 v 15.83594 h 16.14648 v 7.93555 h 7.93555 V 832 h 15.83594 v -16.14648 h 7.93555 v -31.70704 h -7.93555 V 768 Z m -0.0527,24.0293 h 15.9414 v 15.9414 h -15.9414 z" />
    <path
       id="path19016"
       style="fill:#ffffff;fill-opacity:1;stroke-width:1.00157;stroke-linecap:round;stroke-linejoin:round;stroke-dashoffset:20.8539;paint-order:stroke markers fill"
       d="m 408.08203,768 v 17.875 a 16.232822,16.232822 0 0 0 -6.20703,6.20703 H 384 v 15.83594 h 17.875 a 16.232822,16.232822 0 0 0 6.20703,6.20703 V 832 h 15.83594 V 814.125 A 16.232822,16.232822 0 0 0 432.23242,800 16.232822,16.232822 0 0 0 423.91797,785.875 V 768 Z M 416,792.25781 A 7.7428045,7.7428045 0 0 1 423.74219,800 7.7428045,7.7428045 0 0 1 416,807.74219 7.7428045,7.7428045 0 0 1 408.25781,800 7.7428045,7.7428045 0 0 1 416,792.25781 Z" />
    <path
       id="path19018"
       style="fill:#ffffff;fill-opacity:1;stroke-width:1.00157;stroke-linecap:round;stroke-linejoin:round;stroke-dashoffset:20.8539;paint-order:stroke markers fill"
       d="m 344.08203,768 v 16.14648 h -7.93555 v 7.93555 H 320 v 15.83594 h 16.14648 v 7.93555 h 7.93555 V 832 h 15.83594 v -16.14648 h 7.93555 v -31.70704 h -7.93555 V 768 Z" />
    <path
       id="path19020"
       style="fill:#ffffff;fill-opacity:1;stroke-width:1.00157;stroke-linecap:round;stroke-linejoin:round;stroke-dashoffset:20.8539;paint-order:stroke markers fill"
       d="m 280.08203,768 v 17.875 a 16.232822,16.232822 0 0 0 -6.20703,6.20703 H 256 v 15.83594 h 17.875 a 16.232822,16.232822 0 0 0 6.20703,6.20703 V 832 h 15.83594 V 814.125 A 16.232822,16.232822 0 0 0 304.23242,800 16.232822,16.232822 0 0 0 295.91797,785.83398 V 768 Z" />
    <path
       id="path19024"
       style="fill:#ffffff;fill-opacity:1;stroke-width:1.00157;stroke-linecap:round;stroke-linejoin:round;stroke-dashoffset:20.8539;paint-order:stroke markers fill"
       d="m 472.08203,832 v 16.14648 h -7.93555 v 7.93555 H 448 v 15.83594 h 16.14648 v 7.93555 h 7.93555 V 896 h 15.83594 v -16.14648 h 7.93555 v -7.93555 H 512 v -15.83594 h -16.14648 v -7.93555 h -7.93555 V 832 Z m -0.0527,24.0293 h 15.9414 v 15.9414 h -15.9414 z" />
    <path
       id="path19026"
       style="fill:#ffffff;fill-opacity:1;stroke-width:1.00157;stroke-linecap:round;stroke-linejoin:round;stroke-dashoffset:20.8539;paint-order:stroke markers fill"
       d="m 408.08203,832 v 17.875 a 16.232822,16.232822 0 0 0 -6.20703,6.20703 H 384 v 15.83594 h 17.875 a 16.232822,16.232822 0 0 0 6.20703,6.20703 V 896 h 15.83594 v -17.875 a 16.232822,16.232822 0 0 0 6.20703,-6.20703 H 448 V 856.08203 H 430.125 A 16.232822,16.232822 0 0 0 423.91797,849.875 V 832 Z M 416,856.25781 A 7.7428045,7.7428045 0 0 1 423.74219,864 7.7428045,7.7428045 0 0 1 416,871.74219 7.7428045,7.7428045 0 0 1 408.25781,864 7.7428045,7.7428045 0 0 1 416,856.25781 Z" />
    <path
       id="path19028"
       style="fill:#ffffff;fill-opacity:1;stroke-width:1.00157;stroke-linecap:round;stroke-linejoin:round;stroke-dashoffset:20.8539;paint-order:stroke markers fill"
       d="m 344.08203,832 v 16.14648 h -7.93555 v 7.93555 H 320 v 15.83594 h 16.14648 v 7.93555 h 7.93555 V 896 h 15.83594 v -16.14648 h 7.93555 v -7.93555 H 384 v -15.83594 h -16.14648 v -7.93555 h -7.93555 V 832 Z" />
    <path
       id="path19030"
       style="fill:#ffffff;fill-opacity:1;stroke-width:1.00157;stroke-linecap:round;stroke-linejoin:round;stroke-dashoffset:20.8539;paint-order:stroke markers fill"
       d="m 280.08203,832 v 17.875 a 16.232822,16.232822 0 0 0 -6.20703,6.20703 H 256 v 15.83594 h 17.875 a 16.232822,16.232822 0 0 0 6.20703,6.20703 V 896 h 15.83594 v -17.875 a 16.232822,16.232822 0 0 0 6.20703,-6.20703 H 320 v -15.83594 h -17.83398 a 16.232822,16.232822 0 0 0 -6.24805,-6.24805 V 832 Z" />
    <g
       id="g21245">
      <path
         d="m 724.92686,928.42614 q 1.36385,1.4188 2.06421,3.22106 0.73723,1.80226 0.73723,3.79625 0,1.99399 -0.73723,3.79625 -0.70036,1.80226 -2.06421,3.18271 -1.36386,1.4188 -3.09634,2.18573 -1.73247,0.72856 -3.64925,0.72856 -1.80619,0 -3.46494,-0.69022 -1.65875,-0.65188 -2.98575,-1.95564 v 1.95564 h -4.42334 v -30.37 h 4.42334 v 13.88124 q 1.327,-1.30376 2.98575,-1.95564 1.65875,-0.69023 3.46494,-0.69023 1.91678,0 3.64925,0.76691 1.73248,0.72858 3.09634,2.14738 z m -6.74559,12.30905 q 1.06897,0 1.99051,-0.4218 0.95838,-0.42181 1.62188,-1.11204 0.70037,-0.72857 1.10583,-1.68722 0.40547,-0.95865 0.40547,-2.07068 0,-1.11204 -0.40547,-2.07068 -0.40546,-0.99699 -1.10583,-1.68722 -0.6635,-0.72857 -1.62188,-1.15038 -0.92154,-0.42181 -1.99051,-0.42181 -1.06897,0 -1.99049,0.42181 -0.92154,0.42181 -1.6219,1.15038 -0.6635,0.69023 -1.06897,1.68722 -0.40547,0.95864 -0.40547,2.07068 0,1.11203 0.40547,2.07068 0.40547,0.95865 1.06897,1.68722 0.70036,0.69023 1.6219,1.11204 0.92152,0.4218 1.99049,0.4218 z"
         style="font-weight:600;font-size:37.5962px;line-height:1.25;font-family:'TYPOGRAPH PRO';-inkscape-font-specification:'TYPOGRAPH PRO Semi-Bold';letter-spacing:0px;word-spacing:0px;baseline-shift:baseline;fill:#ec2028;fill-opacity:1"
         id="path19346" />
      <path
         d="m 748.5917,925.62689 3.87041,2.18572 -13.85977,26.22863 -3.87042,-2.22407 3.87042,-7.32407 -8.29375,-16.71884 3.94414,-2.10903 6.92988,13.95793 z"
         style="font-weight:600;font-size:37.5962px;line-height:1.25;font-family:'TYPOGRAPH PRO';-inkscape-font-specification:'TYPOGRAPH PRO Semi-Bold';letter-spacing:0px;word-spacing:0px;baseline-shift:baseline;fill:#ec2028;fill-opacity:1"
         id="path19348" />
      <path
         d="m 779.73935,945.29836 h -0.6635 q -1.5113,-0.0384 -3.02261,-0.46015 -1.51131,-0.38346 -2.91202,-1.15038 -1.43759,-0.80526 -2.54342,-1.87895 -1.10584,-1.11204 -1.73247,-2.33911 l 3.94413,-2.10903 q 0.29489,0.5752 0.92153,1.18874 0.62664,0.57518 1.47444,1.07368 0.84781,0.46015 1.84306,0.76691 1.03211,0.30677 2.13794,0.30677 h 0.0737 0.0737 q 0.8478,0.0767 2.06422,-0.19173 1.25327,-0.26841 2.39597,-0.9203 2.43284,-1.4188 2.58028,-3.79625 0.11058,-1.53384 -0.73722,-2.45414 -0.81095,-0.9203 -2.39598,-1.4188 -1.58502,-0.53684 -3.57552,-0.53684 -0.58978,0 -1.62189,-0.0767 -1.03211,-0.0767 -2.21167,-0.38345 -2.94889,-0.76692 -4.64449,-2.56918 -0.95839,-1.11203 -1.43759,-2.49249 -0.4792,-1.4188 -0.40547,-3.06767 0.18431,-3.3361 2.28539,-5.52182 0.88466,-0.95865 2.06422,-1.61053 1.17956,-0.65188 2.58027,-0.997 1.73247,-0.4218 3.53867,-0.30677 1.8062,0.0767 3.53867,0.61354 1.87992,0.65188 3.28063,1.72557 1.43759,1.03534 2.21168,2.49249 l -3.83356,2.26241 q -0.36861,-0.65188 -1.1427,-1.18873 -0.77408,-0.53684 -1.84305,-0.88195 -1.14269,-0.38347 -2.39597,-0.42181 -1.21642,-0.0767 -2.35911,0.19173 -3.35436,0.80527 -3.50181,3.91129 -0.0737,0.88195 0.14745,1.38045 0.25802,0.46015 0.47919,0.72857 0.84781,0.88197 2.35911,1.26542 1.51131,0.34511 2.91203,0.34511 2.98574,0 5.34486,0.88197 2.39597,0.88195 3.87041,2.53082 2.21167,2.45414 1.91678,5.98197 -0.22116,2.56919 -1.65874,4.56317 -1.21643,1.72557 -3.17007,2.87594 -1.40071,0.80527 -3.05946,1.22708 -1.62189,0.46015 -3.17006,0.46015 z"
         style="font-weight:600;font-size:37.5962px;line-height:1.25;font-family:'TYPOGRAPH PRO';-inkscape-font-specification:'TYPOGRAPH PRO Semi-Bold';letter-spacing:0px;word-spacing:0px;baseline-shift:baseline;fill:#ec2028;fill-opacity:1"
         id="path19350" />
      <path
         d="m 815.90009,926.24043 v 18.40605 h -4.42334 v -2.49249 q -0.0737,0.0767 -0.1843,0.19173 -0.0737,0.11504 -0.14744,0.19173 -1.40073,1.4188 -3.1332,2.14738 -1.73247,0.76691 -3.68611,0.76691 -1.91678,0 -3.68611,-0.76691 -1.73247,-0.72858 -3.09633,-2.14738 -1.36387,-1.4188 -2.10109,-3.22106 -0.70036,-1.84061 -0.70036,-3.83459 0,-2.03234 0.70036,-3.8346 0.73722,-1.80226 2.10109,-3.25941 1.36386,-1.4188 3.09633,-2.14736 1.76933,-0.76693 3.68611,-0.76693 1.95364,0 3.68611,0.76693 1.73247,0.72856 3.1332,2.14736 0.11057,0.15339 0.33174,0.38347 v -2.53083 z m -11.57439,14.6098 q 1.06897,0 2.02736,-0.42181 0.95839,-0.4218 1.65875,-1.15038 0.70036,-0.72856 1.10583,-1.68722 0.40547,-0.99699 0.40547,-2.10902 0,-1.11204 -0.40547,-2.10903 -0.40547,-0.99699 -1.10583,-1.72557 -0.70036,-0.72857 -1.65875,-1.15038 -0.95839,-0.4218 -2.02736,-0.4218 -1.06897,0 -2.02736,0.4218 -0.92153,0.42181 -1.6219,1.15038 -0.70035,0.72858 -1.10583,1.72557 -0.40547,0.99699 -0.40547,2.10903 0,1.11203 0.40547,2.10902 0.40548,0.95866 1.10583,1.68722 0.70037,0.72858 1.6219,1.15038 0.95839,0.42181 2.02736,0.42181 z"
         style="font-weight:600;font-size:37.5962px;line-height:1.25;font-family:'TYPOGRAPH PRO';-inkscape-font-specification:'TYPOGRAPH PRO Semi-Bold';letter-spacing:0px;word-spacing:0px;baseline-shift:baseline;fill:#ec2028;fill-opacity:1"
         id="path19352" />
      <path
         d="m 828.54344,946.56378 -9.76819,-18.98125 3.90727,-2.14737 5.86092,11.38875 5.86091,-11.38875 3.87043,2.14737 z"
         style="font-weight:600;font-size:37.5962px;line-height:1.25;font-family:'TYPOGRAPH PRO';-inkscape-font-specification:'TYPOGRAPH PRO Semi-Bold';letter-spacing:0px;word-spacing:0px;baseline-shift:baseline;fill:#ec2028;fill-opacity:1"
         id="path19354" />
      <path
         d="m 861.42358,926.24043 v 18.40605 h -4.42333 v -2.49249 q -0.0737,0.0767 -0.18431,0.19173 -0.0737,0.11504 -0.14745,0.19173 -1.40071,1.4188 -3.13319,2.14738 -1.73247,0.76691 -3.68611,0.76691 -1.91678,0 -3.68611,-0.76691 -1.73247,-0.72858 -3.09634,-2.14738 -1.36386,-1.4188 -2.10108,-3.22106 -0.70036,-1.84061 -0.70036,-3.83459 0,-2.03234 0.70036,-3.8346 0.73722,-1.80226 2.10108,-3.25941 1.36387,-1.4188 3.09634,-2.14736 1.76933,-0.76693 3.68611,-0.76693 1.95364,0 3.68611,0.76693 1.73248,0.72856 3.13319,2.14736 0.11059,0.15339 0.33176,0.38347 v -2.53083 z m -11.57439,14.6098 q 1.06897,0 2.02736,-0.42181 0.95839,-0.4218 1.65875,-1.15038 0.70036,-0.72856 1.10584,-1.68722 0.40547,-0.99699 0.40547,-2.10902 0,-1.11204 -0.40547,-2.10903 -0.40548,-0.99699 -1.10584,-1.72557 -0.70036,-0.72857 -1.65875,-1.15038 -0.95839,-0.4218 -2.02736,-0.4218 -1.06898,0 -2.02736,0.4218 -0.92153,0.42181 -1.62189,1.15038 -0.70036,0.72858 -1.10584,1.72557 -0.40546,0.99699 -0.40546,2.10903 0,1.11203 0.40546,2.10902 0.40548,0.95866 1.10584,1.68722 0.70036,0.72858 1.62189,1.15038 0.95838,0.42181 2.02736,0.42181 z"
         style="font-weight:600;font-size:37.5962px;line-height:1.25;font-family:'TYPOGRAPH PRO';-inkscape-font-specification:'TYPOGRAPH PRO Semi-Bold';letter-spacing:0px;word-spacing:0px;baseline-shift:baseline;fill:#ec2028;fill-opacity:1"
         id="path19356" />
      <path
         d="m 882.98732,928.34945 q 1.36386,1.45714 2.06421,3.2594 0.73723,1.80227 0.73723,3.79626 v 9.24137 h -4.42334 v -9.24137 q 0,-1.11204 -0.40546,-2.07069 -0.40548,-0.99699 -1.10584,-1.72557 -0.70036,-0.72856 -1.65875,-1.15037 -0.92152,-0.42181 -1.99049,-0.42181 h -0.0369 q -1.06897,0 -2.02736,0.42181 -0.92153,0.42181 -1.62189,1.15037 -0.70036,0.72858 -1.10583,1.72557 -0.40548,0.95865 -0.40548,2.07069 v 9.24137 h -0.36861 -4.05472 v -9.24137 -9.54815 h 4.05472 v 1.4188 q 2.50656,-1.8406 5.52917,-1.8406 h 0.0369 q 1.91677,0 3.64924,0.76692 1.73247,0.72857 3.1332,2.14737 z"
         style="font-weight:600;font-size:37.5962px;line-height:1.25;font-family:'TYPOGRAPH PRO';-inkscape-font-specification:'TYPOGRAPH PRO Semi-Bold';letter-spacing:0px;word-spacing:0px;baseline-shift:baseline;fill:#ec2028;fill-opacity:1"
         id="path19358" />
      <path
         d="m 910.11707,914.27648 v 30.37 h -4.42334 v -1.49549 q -1.29014,1.11203 -2.83831,1.68722 -1.54816,0.57519 -3.24377,0.57519 -1.91677,0 -3.64924,-0.76692 -1.73248,-0.72858 -3.09635,-2.14738 -1.36386,-1.41879 -2.10108,-3.22106 -0.70036,-1.80226 -0.70036,-3.79624 0,-2.03234 0.70036,-3.8346 0.73722,-1.80226 2.10108,-3.22106 1.36387,-1.4188 3.09635,-2.14738 1.73247,-0.76691 3.64924,-0.76691 1.69561,0 3.24377,0.57519 1.54817,0.57518 2.83831,1.68722 v -13.49778 z m -10.50542,26.5354 q 1.06897,0 1.9905,-0.42181 0.95838,-0.42179 1.65875,-1.15037 0.70036,-0.72857 1.10583,-1.68723 0.40548,-0.95864 0.40548,-2.07067 0,-1.11204 -0.40548,-2.07068 -0.40547,-0.997 -1.10583,-1.72557 -0.70037,-0.72857 -1.65875,-1.15038 -0.92153,-0.42181 -1.9905,-0.42181 -1.06897,0 -1.9905,0.42181 -0.92153,0.42181 -1.62189,1.15038 -0.70036,0.72857 -1.10583,1.72557 -0.40547,0.95864 -0.40547,2.07068 0,1.11203 0.40547,2.07067 0.40547,0.95866 1.10583,1.68723 0.70036,0.72858 1.62189,1.15037 0.92153,0.42181 1.9905,0.42181 z"
         style="font-weight:600;font-size:37.5962px;line-height:1.25;font-family:'TYPOGRAPH PRO';-inkscape-font-specification:'TYPOGRAPH PRO Semi-Bold';letter-spacing:0px;word-spacing:0px;baseline-shift:baseline;fill:#ec2028;fill-opacity:1"
         id="path19360" />
      <path
         d="m 924.30859,945.52843 q -1.95364,0 -3.72298,-0.76691 -1.73247,-0.72858 -3.09633,-2.18572 -1.40071,-1.4188 -2.13794,-3.22106 -0.70037,-1.84061 -0.70037,-3.87294 0,-2.07068 0.70037,-3.87295 0.73723,-1.80226 2.13794,-3.2594 1.36386,-1.45715 3.09633,-2.18572 1.76934,-0.76692 3.72298,-0.76692 1.99049,0 3.75983,0.80527 1.76934,0.76691 3.09633,2.14737 1.327,1.38045 2.06423,3.22106 0.77408,1.84061 0.77408,3.91129 v 2.10902 h -14.92875 q 0.62664,1.64888 2.02736,2.68422 1.43758,1.03534 3.20692,1.03534 1.54817,0 2.8383,-0.76692 1.29014,-0.80526 2.06422,-2.14737 l 3.50181,2.10902 q -1.29014,2.26242 -3.46494,3.64287 -2.2854,1.38045 -4.93939,1.38045 z m -5.23428,-12.15566 h 10.50541 q -0.62663,-1.64888 -2.06421,-2.68421 -1.40073,-1.0737 -3.20692,-1.0737 -1.76934,0 -3.20692,1.0737 -1.40072,1.03533 -2.02736,2.68421 z"
         style="font-weight:600;font-size:37.5962px;line-height:1.25;font-family:'TYPOGRAPH PRO';-inkscape-font-specification:'TYPOGRAPH PRO Semi-Bold';letter-spacing:0px;word-spacing:0px;baseline-shift:baseline;fill:#ec2028;fill-opacity:1"
         id="path19362" />
      <path
         d="m 949.07923,925.39681 q 1.25327,0 2.61714,0.42181 1.40071,0.42181 2.3591,1.07368 l -2.43283,3.8346 q -0.36861,-0.26842 -1.1427,-0.4985 -0.77408,-0.23008 -1.40071,-0.23008 -1.21642,0 -2.10109,0.26843 -0.84781,0.26842 -1.43758,0.69023 -0.55292,0.38345 -0.88467,0.88195 -0.33175,0.46016 -0.55292,0.88195 -0.29488,0.65189 -0.44233,1.34212 -0.14744,0.65188 -0.22116,1.26542 -0.0737,0.57518 -0.11059,1.11203 0,0.4985 0,0.76692 v 7.43911 h -0.0369 -4.38648 -0.0369 v -18.78952 h 4.42333 v 1.15038 q 0,-0.0384 0.0369,-0.0384 2.39597,-1.57218 5.75034,-1.57218 z"
         style="font-weight:600;font-size:37.5962px;line-height:1.25;font-family:'TYPOGRAPH PRO';-inkscape-font-specification:'TYPOGRAPH PRO Semi-Bold';letter-spacing:0px;word-spacing:0px;baseline-shift:baseline;fill:#ec2028;fill-opacity:1"
         id="path19364" />
      <path
         d="m 721.31998,980.95817 q -5.19741,0 -7.44594,2.33909 -0.62664,0.65189 -0.95839,1.38046 -0.33175,0.69023 -0.51606,1.38045 -0.14744,0.69023 -0.1843,1.30377 -0.0369,0.61353 -0.0369,0.99699 h 4.34962 v 4.60152 h -4.34962 v 15.76015 h -4.42332 v -15.76015 h -2.61714 v -4.60152 h 2.61714 q 0,-0.57519 0.0369,-1.49549 0.0737,-0.95865 0.36861,-2.07069 0.29489,-1.15037 0.88467,-2.37744 0.62663,-1.22707 1.6956,-2.37745 3.53867,-3.68121 10.57914,-3.68121 z"
         style="font-weight:600;font-size:37.5962px;line-height:1.25;font-family:'TYPOGRAPH PRO';-inkscape-font-specification:'TYPOGRAPH PRO Semi-Bold';letter-spacing:0px;word-spacing:0px;baseline-shift:baseline;fill:#ec2028;fill-opacity:1"
         id="path19367" />
      <path
         d="m 728.61847,1009.6026 q -1.95364,0 -3.72296,-0.7669 -1.73247,-0.7286 -3.09634,-2.1857 -1.40072,-1.4188 -2.13794,-3.2211 -0.70036,-1.8406 -0.70036,-3.87295 0,-2.03234 0.70036,-3.8346 0.73722,-1.84061 2.13794,-3.25941 1.36387,-1.45714 3.09634,-2.18571 1.76932,-0.76692 3.72296,-0.76692 1.95364,0 3.68611,0.76692 1.76934,0.72857 3.1332,2.18571 1.40073,1.4188 2.10108,3.25941 0.73723,1.80226 0.73723,3.8346 0,2.03235 -0.73723,3.87295 -0.70035,1.8023 -2.10108,3.2211 -1.36386,1.4571 -3.1332,2.1857 -1.73247,0.7669 -3.68611,0.7669 z m 0,-15.49178 q -1.06897,0 -2.02736,0.42181 -0.95839,0.42181 -1.6956,1.18872 -0.70037,0.72858 -1.10584,1.72557 -0.40547,0.997 -0.40547,2.10903 0,1.11205 0.40547,2.10905 0.40547,0.997 1.10584,1.7639 0.73721,0.7286 1.6956,1.1504 0.95839,0.4218 2.02736,0.4218 1.06897,0 2.02736,-0.4218 0.9584,-0.4218 1.65875,-1.1504 0.73723,-0.7669 1.1427,-1.7639 0.40547,-0.997 0.40547,-2.10905 0,-1.11203 -0.40547,-2.10903 -0.40547,-0.99699 -1.1427,-1.72557 -0.70035,-0.76691 -1.65875,-1.18872 -0.95839,-0.42181 -2.02736,-0.42181 z"
         style="font-weight:600;font-size:37.5962px;line-height:1.25;font-family:'TYPOGRAPH PRO';-inkscape-font-specification:'TYPOGRAPH PRO Semi-Bold';letter-spacing:0px;word-spacing:0px;baseline-shift:baseline;fill:#ec2028;fill-opacity:1"
         id="path19369" />
      <path
         d="m 753.38911,989.50931 q 1.25328,0 2.61714,0.42181 1.40071,0.4218 2.3591,1.07368 l -2.43283,3.8346 q -0.36861,-0.26842 -1.14269,-0.4985 -0.77409,-0.23008 -1.40072,-0.23008 -1.21642,0 -2.10109,0.26842 -0.8478,0.26843 -1.43758,0.69024 -0.55292,0.38345 -0.88467,0.88195 -0.33174,0.46015 -0.55291,0.88196 -0.29489,0.65188 -0.44233,1.34211 -0.14745,0.65187 -0.22117,1.26541 -0.0737,0.57519 -0.11059,1.11199 0,0.4985 0,0.767 v 7.4391 h -0.0369 -4.38646 -0.0369 v -18.78954 h 4.42333 v 1.15038 q 0,-0.0383 0.0369,-0.0383 2.39597,-1.57218 5.75034,-1.57218 z"
         style="font-weight:600;font-size:37.5962px;line-height:1.25;font-family:'TYPOGRAPH PRO';-inkscape-font-specification:'TYPOGRAPH PRO Semi-Bold';letter-spacing:0px;word-spacing:0px;baseline-shift:baseline;fill:#ec2028;fill-opacity:1"
         id="path19371" />
      <path
         d="m 790.09103,1009.3452 h -9.92387 v -29.82453 h 9.92387 q 3.02511,0 5.7182,1.1189 2.6931,1.08033 4.72214,3.1638 1.99215,2.08348 3.06201,4.78428 1.06987,2.7008 1.06987,5.71027 0,3.08663 -1.03298,5.78738 -0.99607,2.7009 -2.95134,4.7843 -1.95525,2.122 -4.64835,3.2796 -2.80376,1.196 -5.93955,1.196 z m -5.49687,-4.63 h 5.49687 q 2.25038,0 4.09496,-0.7716 1.88148,-0.7717 3.20959,-2.1221 1.36499,-1.3889 2.10283,-3.27946 0.73783,-1.92915 0.73783,-4.24412 0,-2.19923 -0.77472,-4.0512 -0.73784,-1.85198 -2.10283,-3.20239 -1.365,-1.38898 -3.20959,-2.12206 -1.84457,-0.77166 -4.05807,-0.77166 h -5.49687 z"
         style="font-size:37.3333px;line-height:1.25;font-family:Horizon;-inkscape-font-specification:Horizon;letter-spacing:0px;word-spacing:0px;baseline-shift:baseline;stroke-width:1"
         id="path19373" />
      <path
         d="m 819.89954,1009.3452 h -9.92387 v -29.82453 h 9.92387 q 3.02512,0 5.71821,1.1189 2.69309,1.08033 4.72214,3.1638 1.99215,2.08348 3.06201,4.78428 1.06986,2.7008 1.06986,5.71027 0,3.08663 -1.03296,5.78738 -0.99608,2.7009 -2.95134,4.7843 -1.95527,2.122 -4.64836,3.2796 -2.80376,1.196 -5.93956,1.196 z m -5.49687,-4.63 h 5.49687 q 2.2504,0 4.09498,-0.7716 1.88147,-0.7717 3.20957,-2.1221 1.36499,-1.3889 2.10283,-3.27946 0.73784,-1.92915 0.73784,-4.24412 0,-2.19923 -0.77474,-4.0512 -0.73783,-1.85198 -2.10282,-3.20239 -1.36499,-1.38898 -3.20957,-2.12206 -1.84459,-0.77166 -4.05809,-0.77166 h -5.49687 z"
         style="font-size:37.3333px;line-height:1.25;font-family:Horizon;-inkscape-font-specification:Horizon;letter-spacing:0px;word-spacing:0px;baseline-shift:baseline;stroke-width:1"
         id="path19375" />
      <path
         d="m 866.42,1010.8885 -21.39719,-21.79927 v 20.25597 h -4.427 V 978.13169 L 861.99298,999.931 V 979.52067 H 866.42 Z"
         style="font-size:37.3333px;line-height:1.25;font-family:Horizon;-inkscape-font-specification:Horizon;letter-spacing:0px;word-spacing:0px;baseline-shift:baseline;stroke-width:1"
         id="path19377" />
      <path
         d="m 881.76694,1010.2327 q -1.95526,0 -3.72607,-0.7717 -1.7339,-0.7331 -3.09889,-2.1992 -1.40189,-1.4276 -2.13973,-3.2411 -0.70094,-1.8519 -0.70094,-3.8968 0,-2.08344 0.70094,-3.89683 0.73784,-1.81341 2.13973,-3.27955 1.36499,-1.46615 3.09889,-2.19923 1.77081,-0.77166 3.72607,-0.77166 1.99215,0 3.76295,0.81025 1.77081,0.77166 3.09891,2.16064 1.3281,1.38898 2.06594,3.24096 0.77472,1.85198 0.77472,3.93542 v 2.1221 h -14.94114 q 0.62715,1.659 2.02904,2.7008 1.43878,1.0417 3.20958,1.0417 1.54945,0 2.84066,-0.7716 1.29121,-0.8103 2.06594,-2.1607 l 3.50471,2.1221 q -1.29121,2.2764 -3.46783,3.6654 -2.28728,1.389 -4.94348,1.389 z m -5.23862,-12.23082 h 10.51414 q -0.62717,-1.65906 -2.06595,-2.7008 -1.40188,-1.08032 -3.20957,-1.08032 -1.7708,0 -3.20958,1.08032 -1.40189,1.04174 -2.02904,2.7008 z"
         style="font-size:37.3333px;line-height:1.25;font-family:Horizon;-inkscape-font-specification:Horizon;letter-spacing:0px;word-spacing:0px;baseline-shift:baseline;stroke-width:1"
         id="path19379" />
      <path
         d="m 905.15625,988.78056 v 4.62996 h -4.35322 v 15.89608 h -4.42701 v -15.89608 h -2.98822 v -4.62996 h 2.98822 v -9.99296 h 4.42701 v 9.99296 z"
         style="font-size:37.3333px;line-height:1.25;font-family:Horizon;-inkscape-font-specification:Horizon;letter-spacing:0px;word-spacing:0px;baseline-shift:baseline;stroke-width:1"
         id="path19381" />
      <path
         d="m 913.27242,1006.5287 q 0,1.389 -0.95918,2.3921 -0.9223,0.9646 -2.28729,0.9646 -1.32811,0 -2.28728,-0.9646 -0.9223,-1.0031 -0.9223,-2.3921 0,-1.4276 0.9223,-2.3921 0.95917,-1.0032 2.28728,-1.0032 1.36499,0 2.28729,1.0032 0.95918,0.9645 0.95918,2.3921 z"
         style="font-size:37.3333px;line-height:1.25;font-family:Horizon;-inkscape-font-specification:Horizon;letter-spacing:0px;word-spacing:0px;baseline-shift:baseline;stroke-width:1"
         id="path19383" />
      <path
         d="m 927.1806,988.78056 v 4.62996 h -4.35321 v 15.89608 h -4.42701 v -15.89608 h -2.98822 v -4.62996 h 2.98822 v -9.99296 h 4.42701 v 9.99296 z"
         style="font-size:37.3333px;line-height:1.25;font-family:Horizon;-inkscape-font-specification:Horizon;letter-spacing:0px;word-spacing:0px;baseline-shift:baseline;stroke-width:1"
         id="path19385" />
      <path
         d="m 949.94279,1010.4641 -6.89875,-12.11498 -6.89875,12.11498 -8.48509,-18.24966 3.9843,-2.00631 4.9066,10.53307 6.49294,-11.45906 6.52982,11.45906 4.90661,-10.53307 3.9843,2.00631 z"
         style="font-size:37.3333px;line-height:1.25;font-family:Horizon;-inkscape-font-specification:Horizon;letter-spacing:0px;word-spacing:0px;baseline-shift:baseline;stroke-width:1"
         id="path19387" />
    </g>
    <text
       xml:space="preserve"
       id="text19062"
       style="font-style:normal;font-variant:normal;font-weight:normal;font-stretch:normal;font-size:40px;line-height:1.25;font-family:Horizon;-inkscape-font-specification:Horizon;font-variant-ligatures:normal;font-variant-position:normal;font-variant-caps:normal;font-variant-numeric:normal;font-variant-alternates:normal;font-feature-settings:normal;text-indent:0;text-align:start;text-decoration:none;text-decoration-line:none;text-decoration-style:solid;text-decoration-color:#000000;letter-spacing:0px;word-spacing:0px;text-transform:none;writing-mode:lr-tb;direction:ltr;text-orientation:mixed;dominant-baseline:auto;baseline-shift:baseline;white-space:pre;shape-inside:url(#rect19064);shape-padding:0;opacity:1;vector-effect:none;fill:#000000;fill-opacity:1;stroke:none;stroke-width:1;stroke-linecap:butt;stroke-linejoin:miter;stroke-miterlimit:4;stroke-dasharray:none;stroke-dashoffset:0;stroke-opacity:1" />
  </g>
</svg>
