<?xml version="1.0" encoding="UTF-8" standalone="no"?>
<svg
   width="2048"
   height="1024"
   viewBox="0 0 2048 1024"
   version="1.1"
   id="SVGRoot"
   sodipodi:docname="bg_cloud2.svg"
   inkscape:version="1.2.1 (9c6d41e410, 2022-07-14, custom)"
   xml:space="preserve"
   xmlns:inkscape="http://www.inkscape.org/namespaces/inkscape"
   xmlns:sodipodi="http://sodipodi.sourceforge.net/DTD/sodipodi-0.dtd"
   xmlns="http://www.w3.org/2000/svg"
   xmlns:svg="http://www.w3.org/2000/svg"><defs
     id="defs823" /><sodipodi:namedview
     id="base"
     pagecolor="#8e8e8e"
     bordercolor="#666666"
     borderopacity="1.0"
     inkscape:pageopacity="0"
     inkscape:pageshadow="2"
     inkscape:zoom="0.99999999"
     inkscape:cx="1139.5"
     inkscape:cy="743.00001"
     inkscape:document-units="px"
     inkscape:current-layer="g970"
     showgrid="true"
     inkscape:window-width="3840"
     inkscape:window-height="2092"
     inkscape:window-x="1920"
     inkscape:window-y="32"
     inkscape:window-maximized="1"
     inkscape:pagecheckerboard="true"
     inkscape:blackoutopacity="0.0"
     inkscape:deskcolor="#aaaaaa"
     inkscape:deskopacity="0"
     inkscape:showpageshadow="2"><inkscape:grid
       type="xygrid"
       id="grid535"
       spacingx="64"
       spacingy="64"
       originx="-192"
       originy="0" /></sodipodi:namedview><g
     inkscape:label="Layer 1"
     inkscape:groupmode="layer"
     id="layer1"
     transform="translate(-192)"><g
       id="g976"
       transform="matrix(0.90391899,0,0,0.90391899,-21.892025,52.923194)"><g
         id="g970"><g
           id="g1370"><path
             style="fill:#ffffff;fill-opacity:1;stroke-width:1.54881"
             d="m 812.56276,897.98505 c -24.86024,0.26533 -49.82081,-0.0213 -71.99033,10.41533 -62.46092,30.37301 -53.48569,87.76554 -9.12612,104.10972 30.21784,12.1453 72.8354,7.0647 99.57773,0.5598 79.06608,-23.44318 162.68484,-27.20448 243.63806,-26.58668 29.6746,0.2447 59.4046,0.2451 88.9903,2.5534 57.3781,6.1627 116.5829,15.20318 171.5507,23.35018 37.96,5.6388 75.8406,11.8201 113.8475,17.1336 83.8882,12.9597 158.4219,17.502 244.2848,19.0433 103.817,-0.1114 202.8269,-13.7772 290.7641,-63.84898 21.4531,-11.83198 38.8029,-26.95023 57.7555,-41.92154 29.3257,-30.23872 43.623,-60.77121 35.1372,-102.07111 -3.1122,-14.36249 -9.545,-26.95182 -17.5324,-38.3488 -17.021,-24.30004 -50.0133,-38.93684 -79.1474,-31.92549 -12.7677,4.0505 -20.9871,10.79875 -27.7729,20.25747 -8.2613,11.54708 -12.1792,27.58603 -5.4279,40.44694 8.5304,17.32966 31.8348,23.91153 45.4154,12.33945 5.6193,-4.78828 5.9183,-9.93849 7.8059,-16.80141 1.1762,-4.27649 9.008,-1.36374 8.3805,3.3239 -0.097,0.83473 -0.2744,1.65908 -0.4611,2.47838 -2.5954,9.11651 -6.8496,16.3555 -14.805,20.69336 -11.5776,6.44267 -25.6255,6.23242 -36.6847,-0.61199 -7.6707,-4.91801 -14.9449,-11.73657 -18.5482,-19.92518 -6.469,-16.11875 -2.3655,-32.65374 6.5856,-46.52209 3.9388,-7.28422 11.5898,-12.3244 16.5465,-17.47679 1.3894,-9.08137 -2.0136,-16.86929 -6.3101,-24.14623 -17.2797,-30.07694 -49.0696,-49.38462 -83.1396,-50.52107 -8.6424,-0.28828 -30.7015,1.36909 -35.0697,4.40347 -0.2153,2.47311 0.1969,5.0459 -0.1967,7.5431 -0.563,3.57215 -1.3843,7.10165 -2.2471,10.61346 -4.9276,20.29393 -13.7882,39.57253 -26.9835,55.09205 -6.6594,7.42654 -13.7561,14.44656 -20.8341,20.42654 -24.2257,19.40845 -54.8139,31.92886 -85.2474,32.63545 -6.5368,0.15139 -13.1081,0.45753 -19.6149,-0.18635 -15.9401,-1.82166 -30.7661,-7.23054 -43.0564,-16.652 -28.9304,-21.03264 -32.8714,-70.64462 1.4743,-88.08163 3.2196,-1.62843 6.6039,-2.93933 10.0323,-4.06361 23.9472,-8.90419 53.0457,5.29056 53.7109,31.97616 0.4708,7.78174 -3.4949,16.39447 -7.8581,21.54316 -3.6911,5.27814 -10.8678,2.99763 -8.4529,-3.63495 3.0117,-4.29017 6.5783,-9.0124 7.5171,-13.70756 1.9556,-27.8256 -25.7534,-36.34515 -44.8675,-27.50288 -3.1488,1.45667 -10.4195,5.85046 -12.6843,8.15542 -17.1616,17.46603 -16.7735,45.37495 0.5072,62.69282 1.5539,1.54991 3.1744,3.03824 4.8751,4.42555 9.9868,8.61985 21.8119,12.63812 34.2078,15.09574 6.8052,1.55615 13.8502,1.69682 20.295,1.51553 27.6418,-0.63532 53.4908,-10.99843 75.8997,-25.99827 5.8885,-3.92072 11.4106,-8.61004 16.119,-13.15707 19.7859,-18.32152 32.3998,-42.04229 36.7853,-67.88546 1.9934,-15.29485 2.0159,-30.98262 0.3153,-45.54695 -6.1999,-51.21983 -38.5974,-104.98164 -85.0233,-128.49176 -34.6951,-17.65324 -77.0099,-21.14282 -114.079,-9.44175 -30.7704,10.35449 -47.5557,28.16999 -49.8535,25.70681 29.5868,-41.55564 61.2873,-48.59966 92.6393,-86.54899 69.1503,-82.03196 52.6449,-198.71617 7.341,-286.94021 -6.3161,-14.9585 -15.6949,-28.56466 -24.4693,-40.74595 C 1545.6598,-9.7381206 1330.0082,-81.588319 1172.3547,1.2596974 1041.1918,61.455456 985.32693,235.5753 984.90305,342.98694 c 0.70698,0.80055 10.37956,1.25591 16.37365,2.29811 54.864,8.00927 103.009,37.25619 145.6826,69.94141 16.5798,13.27268 35.4506,27.49683 52.9126,34.19457 11.1437,4.20973 24.3021,3.09698 33.8121,-2.77674 7.7614,-5.26133 13.3244,-14.95177 15.1959,-23.25462 3.6411,-17.23402 -10.6354,-37.56174 -29.7913,-32.30411 -7.1533,1.96332 -8.4267,8.72399 -12.0202,11.75006 -3.7071,3.12171 -7.5611,-0.53486 -6.5423,-5.05877 3.441,-7.42303 12.7335,-14.23402 19.1555,-15.60204 24.1942,-4.6562 41.4004,20.27582 36.7858,42.42953 -4.7338,14.33344 -10.6829,24.8461 -22.6677,30.84742 -12.2641,5.78389 -26.5014,6.67623 -38.9618,2.15316 -46.2114,-22.62505 -104.7175,-89.80522 -185.7995,-102.1213 -45.56656,-5.39352 -51.34929,-7.28564 -104.85869,0.29035 -158.28195,23.5744 -295.20965,225.80979 -229.28568,388.40549 40.20325,73.4374 84.59475,132.66166 190.11998,165.57194 53.20929,12.82565 112.70295,8.76393 158.95329,-21.00988 10.4409,-7.5355 21.71,-14.62788 30.367,-23.4421 31.1223,-33.00605 46.6424,-84.50742 23.9046,-125.43082 -4.3187,-7.10422 -9.622,-13.90062 -15.0732,-19.3309 -22.6388,-22.48362 -57.9507,-32.13915 -87.62691,-19.62685 -6.73813,2.58457 -12.10547,6.64442 -17.03739,11.09994 -12.2037,10.52193 -20.20291,24.90714 -19.86868,40.89044 0.66094,12.36214 2.43326,21.29501 8.52062,30.67844 1.30298,2.00782 2.65461,3.99223 4.16231,5.85125 15.44008,17.54153 30.96681,20.14983 50.99145,17.00172 8.9978,-2.40123 18.1238,-10.71874 22.9566,-20.10724 1.2482,-2.46194 2.1334,-5.11348 2.8098,-7.78962 2.5458,-10.91996 1.7831,-22.35508 -4.1799,-31.57763 -5.3558,-8.09451 -14.3111,-13.46791 -23.8361,-12.78346 -1.58817,0.12211 -3.16527,0.52594 -4.64892,1.10559 -10.38116,4.35086 -15.51176,16.91608 -14.83183,22.37539 0.85875,6.70244 5.04403,12.86858 12.43087,10.55319 2.30306,-0.98506 -0.0402,-0.0706 3.5042,-1.47974 4.12518,-1.66166 6.35708,5.59264 3.30931,7.28919 -5.23895,3.29048 -10.87787,4.52692 -16.53676,2.06009 -17.42252,-6.24063 -12.75655,-30.05343 -2.21478,-41.08762 11.7829,-12.78356 32.18911,-10.18606 41.54651,-1.84865 19.0014,16.04575 18.9675,46.71807 7.4409,62.17043 -21.0535,29.56404 -61.20733,24.16102 -78.5171,5.91185 -10.79904,-9.92317 -17.86362,-22.31668 -20.4224,-35.82615 -0.58435,-3.10766 -1.13125,-6.2429 -1.25921,-9.40243 -1.05759,-22.24085 10.81346,-43.33449 28.61739,-55.651 5.24435,-3.0572 10.09859,-5.69254 15.30193,-7.75553 32.57449,-12.24641 68.55469,-2.86499 93.08239,20.24914 7.1268,7.01124 13.6013,14.84965 18.7529,23.77903 1.535,2.72364 2.5903,5.69169 3.8201,8.56607 20.4925,46.5079 0.021,98.06385 -34.7265,131.1418 -4.7376,4.48538 -9.7786,8.66568 -15.0299,12.53705 -48.23573,35.11473 -109.08425,41.19167 -165.72669,31.36649 -22.02739,-5.08393 -41.46014,-11.52247 -61.38715,-22.24383 z"
             id="path444"
             sodipodi:nodetypes="ccccccccccccccccssccccccccscsccccccccccccsscccccccccccccccccccccsscccccccccccccccccccccccccccccccccccccccccccc" /><path
             id="path1315"
             style="fill:#e2edf5;fill-opacity:1;stroke-width:1.54881"
             d="m 663.1145,704.9778 c 2.76564,13.23734 6.57033,26.35219 11.7803,39.20213 40.20321,73.43732 84.5932,132.66218 190.11833,165.57243 53.20923,12.82563 112.70381,8.76284 158.95407,-21.01094 10.4409,-7.5355 21.7099,-14.62755 30.3669,-23.44176 9.114,-9.66556 16.6523,-21.01854 22.5213,-33.12616 -44.3021,1.90656 -99.30226,30.68308 -226.9501,0.40622 C 773.17792,814.38071 711.45939,764.92411 663.1145,704.9778 Z m 421.6427,130.5189 c -7.5287,15.18853 -17.8257,29.19088 -30.0514,40.82916 -4.7376,4.48538 -9.7788,8.66519 -15.0301,12.53656 -48.23564,35.11469 -109.08341,41.19249 -165.72579,31.36732 -22.02737,-5.08393 -41.45936,-11.52337 -61.38635,-22.24472 -24.86021,0.26533 -49.82171,-0.0219 -71.9912,10.41472 -62.46086,30.37298 -53.48645,87.76634 -9.12693,104.11046 30.21781,12.1453 72.83711,7.0645 99.57941,0.5596 79.066,-23.44316 162.68431,-27.2034 243.63746,-26.5856 29.6746,0.24468 59.404,0.24347 88.9897,2.55183 57.378,6.1627 116.5834,15.20397 171.5511,23.35097 37.96,5.6388 75.8399,11.819 113.8467,17.1325 83.8882,12.9597 158.4229,17.5033 244.2857,19.0446 103.8169,-0.1114 202.8259,-13.7779 290.763,-63.84953 21.4531,-11.83202 38.8037,-26.94903 57.7563,-41.92033 29.1763,-30.08465 43.4361,-60.48079 35.2242,-101.4614 -26.7027,32.29365 -106.3307,73.96881 -245.3314,88.80384 -65.378,6.97755 -223.1426,-4.41351 -291.543,-6.34822 -175.3783,-4.96057 -427.7471,-63.44007 -455.4474,-88.29176 z" /></g><g
           id="g63365"
           style="fill:none;fill-opacity:1;stroke:#843636;stroke-opacity:1"><g
             id="g63355"
             style="fill:none;fill-opacity:1;stroke:#843636;stroke-opacity:1" /></g></g></g></g></svg>
