<?xml version="1.0" encoding="UTF-8" standalone="no"?>
<svg
   width="1024"
   height="512"
   viewBox="0 0 1024 512"
   version="1.1"
   id="SVGRoot"
   sodipodi:docname="bg_cloud3.svg"
   inkscape:version="1.2.1 (9c6d41e410, 2022-07-14, custom)"
   xml:space="preserve"
   xmlns:inkscape="http://www.inkscape.org/namespaces/inkscape"
   xmlns:sodipodi="http://sodipodi.sourceforge.net/DTD/sodipodi-0.dtd"
   xmlns="http://www.w3.org/2000/svg"
   xmlns:svg="http://www.w3.org/2000/svg"><defs
     id="defs823" /><sodipodi:namedview
     id="base"
     pagecolor="#8e8e8e"
     bordercolor="#666666"
     borderopacity="1.0"
     inkscape:pageopacity="0"
     inkscape:pageshadow="2"
     inkscape:zoom="2.8284271"
     inkscape:cx="537.22438"
     inkscape:cy="316.43028"
     inkscape:document-units="px"
     inkscape:current-layer="g970"
     showgrid="true"
     inkscape:window-width="3840"
     inkscape:window-height="2092"
     inkscape:window-x="1920"
     inkscape:window-y="32"
     inkscape:window-maximized="1"
     inkscape:pagecheckerboard="true"
     inkscape:blackoutopacity="0.0"
     inkscape:deskcolor="#aaaaaa"
     inkscape:deskopacity="0"
     inkscape:showpageshadow="2"><inkscape:grid
       type="xygrid"
       id="grid535"
       spacingx="64"
       spacingy="64"
       originx="-192"
       originy="0" /></sodipodi:namedview><g
     inkscape:label="Layer 1"
     inkscape:groupmode="layer"
     id="layer1"
     transform="translate(-192)"><g
       id="g976"
       transform="matrix(0.90391899,0,0,0.90391899,-21.892025,52.923194)"><g
         id="g970"><g
           id="g63365"
           style="stroke:#843636;stroke-opacity:1;fill:none;fill-opacity:1"><g
             id="g63355"
             style="stroke:#843636;stroke-opacity:1;fill:none;fill-opacity:1" /></g><g
           id="g1212"><path
             style="fill:#ffffff;fill-opacity:1;stroke-width:1.54881"
             d="m 537.59032,139.55788 c -3.87788,38.48354 8.2923,77.43199 31.35788,106.52168 23.42128,28.88809 63.65664,42.11132 97.60922,27.0149 6.74598,-3.05597 12.97168,-7.45488 18.30098,-12.59739 15.38268,-16.1374 25.09348,-39.76769 19.82748,-61.35297 -1.0252,-4.07195 -3.0027,-7.87678 -5.0694,-11.532 -12.17668,-22.21182 -40.50146,-32.34193 -60.18754,-14.09144 -1.5264,1.42604 -2.9496,2.99656 -4.0958,4.74286 -1.1909,1.81446 -2.0947,3.82217 -2.8283,5.86482 -0.5037,1.40248 -0.8523,2.86704 -1.0637,4.34216 -2.0601,13.92933 8.6324,27.15372 22.48838,28.34904 1.3374,0.11436 2.6883,0.11173 4.0267,0.0111 1.9108,-0.14367 3.8098,-0.46521 5.6816,-0.87523 1.1143,-0.24408 2.164,-0.75984 3.2903,-0.94059 0.8086,-0.12977 1.65078,-0.25344 2.45478,-0.0978 5.3289,1.25076 6.1805,8.24515 1.8833,11.07351 -1.9294,1.1344 -4.16438,1.70509 -6.35288,2.17338 -2.8273,0.60496 -5.746,0.79143 -8.6373,0.79649 -26.78008,-0.3484 -42.82816,-22.12966 -35.85786,-47.81075 0.8104,-2.94271 2.0343,-5.78389 3.49768,-8.46245 0.7759,-1.42012 1.7692,-2.71566 2.7737,-3.98436 17.5893,-22.63561 50.36146,-22.01571 70.42774,-4.23179 2.0736,1.84276 4.0373,3.81863 5.8552,5.91405 8.7422,10.36482 13.92648,25.63058 14.92098,37.54683 1.5283,27.84234 -12.99608,55.07388 -36.07656,69.74044 -39.24536,23.56747 -64.56814,8.1652 -103.5569,5.69813 -5.2495,-0.32087 -10.5379,-0.60027 -15.7773,-0.14242 -7.19068,0.62837 -14.41338,1.75825 -21.29128,3.94828 -89.58252,25.60293 -83.45992,157.54848 9.5865,172.09355 31.96086,4.99691 62.99754,-7.57393 88.30502,-16.16739 6.4849,-1.8542 13.08248,-3.3044 19.68338,-4.68996 115.8113,-25.56355 223.8831,27.9989 333.0024,49.96393 6.5969,1.31587 13.21788,2.77386 19.93478,3.13938 8.4124,0.45779 16.894,-0.0945 25.2461,-1.19932 8.222,-1.08764 16.4082,-2.78748 24.305,-5.32219 97.4001,-20.32064 86.6934,-146.53181 -5.9395,-152.00192 -22.0236,-1.09861 -41.5574,5.62486 -59.95188,15.38645 -2.7382,1.45251 -5.4156,3.0171 -8.1384,4.49834 -1.1217,0.61025 -2.1428,1.48196 -3.3774,1.80815 -5.2219,1.76709 -9.08378,-4.90315 -8.14548,-9.11997 1.0323,-3.79731 4.85328,-6.19885 7.14148,-9.4003 41.89578,-58.03692 34.71328,-136.70843 17.57928,-202.14243 -62.94874,-240.39793 -425.3019,-231.440463 -462.83238,5.5352 z"
             id="path484"
             sodipodi:nodetypes="cccccccssccsssccsccsccccccscccccsscccscccsc" /><path
             id="path651"
             style="fill:#e2edf5;fill-opacity:1;stroke-width:1.54881"
             d="m 507.06656,305.38966 c -51.57056,44.70872 -35.23578,141.53962 43.71156,153.88071 31.96086,4.99691 62.99724,-7.57529 88.30472,-16.16874 6.4849,-1.8542 13.08338,-3.30323 19.68428,-4.68878 115.8112,-25.56353 223.8817,27.99971 333.0009,49.96472 6.5969,1.31587 13.21798,2.77186 19.93488,3.13738 8.4124,0.45779 16.8939,-0.0944 25.246,-1.19921 8.222,-1.08763 16.4093,-2.78717 24.3061,-5.32187 43.9497,-9.16926 65.6939,-39.90091 68.0262,-71.36892 -36.7543,8.00001 -79.9559,15.34248 -109.4885,13.57155 -100.67062,-6.03677 -189.54684,-75.81051 -289.77554,-87.0018 -63.14994,-7.05117 -134.82118,44.40646 -190.17014,13.19558 -13.92948,-7.8547 -24.93398,-28.4641 -32.78046,-48.00062 z" /></g></g></g></g></svg>
