<?xml version="1.0" encoding="UTF-8" standalone="no"?>
<svg
   width="2048"
   height="1024"
   viewBox="0 0 2048 1024"
   version="1.1"
   id="SVGRoot"
   sodipodi:docname="bg_cloud1.svg"
   inkscape:version="1.2.1 (9c6d41e410, 2022-07-14, custom)"
   xml:space="preserve"
   xmlns:inkscape="http://www.inkscape.org/namespaces/inkscape"
   xmlns:sodipodi="http://sodipodi.sourceforge.net/DTD/sodipodi-0.dtd"
   xmlns="http://www.w3.org/2000/svg"
   xmlns:svg="http://www.w3.org/2000/svg"><defs
     id="defs823" /><sodipodi:namedview
     id="base"
     pagecolor="#8e8e8e"
     bordercolor="#666666"
     borderopacity="1.0"
     inkscape:pageopacity="0"
     inkscape:pageshadow="2"
     inkscape:zoom="0.99999999"
     inkscape:cx="1145.5"
     inkscape:cy="815.00001"
     inkscape:document-units="px"
     inkscape:current-layer="g976"
     showgrid="true"
     inkscape:window-width="3840"
     inkscape:window-height="2092"
     inkscape:window-x="1920"
     inkscape:window-y="32"
     inkscape:window-maximized="1"
     inkscape:pagecheckerboard="true"
     inkscape:blackoutopacity="0.0"
     inkscape:deskcolor="#aaaaaa"
     inkscape:deskopacity="0"
     inkscape:showpageshadow="2"><inkscape:grid
       type="xygrid"
       id="grid535"
       spacingx="64"
       spacingy="64"
       originx="-192"
       originy="0" /></sodipodi:namedview><g
     inkscape:label="Layer 1"
     inkscape:groupmode="layer"
     id="layer1"
     transform="translate(-192)"><g
       id="g976"
       transform="matrix(0.90391899,0,0,0.90391899,-21.892025,52.923194)"><g
         id="g1361"><path
           style="fill:#ffffff;fill-opacity:1;stroke-width:1.54881"
           d="m 283.62075,892.74147 c 32.88088,19.28483 74.53993,20.9579 110.81167,23.08834 220.12425,16.50451 448.21129,-11.61051 658.47068,-17.15863 28.5894,-0.72712 57.1989,-1.2838 85.7927,-0.75618 42.8329,0.79037 128.3864,5.87319 128.3864,5.87319 l 67.2939,6.39558 c 187.87,21.00173 374.6006,51.37543 563.0721,66.71826 l 56.1462,2.61584 c 0,0 62.2759,-0.29473 65.4969,0.093 92.7654,-2.61234 189.0441,-12.76223 276.7186,-42.49825 24.4233,-8.2835 45.6997,-18.27541 69.0591,-29.81858 35.0074,-19.14738 69.0473,-47.70673 87.73,-79.76879 12.1019,-21.08139 19.4915,-44.85991 22.1006,-68.03 3.3252,-29.52991 -1.2613,-59.76048 -15.5171,-86.48389 -6.9809,-13.08625 -16.4244,-25.13826 -28.1062,-36.24049 -36.6229,-32.68298 -85.2697,-44.344 -123.4652,-42.34315 -4.5852,9.53767 -10.4556,19.35053 -16.551,27.66454 -7.571,10.32665 -15.7417,18.87122 -25.1955,27.93293 -50.2523,42.63156 -116.8907,44.75655 -157.2638,0.65648 -16.4792,-19.10822 -21.1495,-36.05538 -19.6454,-60.61035 -8.8737,-11.23213 -19.766,-19.04396 -31.7466,-24.86463 -60.5217,-30.33375 -144.6155,1.50764 -148.9419,73.98481 -0.47,6.78927 0.6151,13.47137 1.6009,20.16034 -14.6904,-10.44456 -32.6108,-17.77924 -47.5785,-22.56311 -65.3873,-16.14233 -133.7388,15.32899 -135.3302,88.62939 -0.7246,18.54648 10.6508,42.06588 21.284,52.67223 10.1163,10.09076 21.4289,15.46722 33.8702,16.03687 l 6.3204,-0.17341 c 10.1343,-0.60037 18.5714,-4.9736 25.6264,-12.0333 6.1967,-7.53901 5.428,-14.89786 2.1012,-23.48211 -6.8047,-10.53784 -28.1827,-14.44663 -32.1097,0.4391 l -0.2345,4.39282 c 2.0972,6.31638 7.148,6.9615 12.91,5.82098 5.8276,0.87996 4.9446,6.96678 -0.1698,8.44595 l -2.8859,0.61957 c -9.2397,0.36647 -13.688,-4.17075 -17.6542,-11.84591 -1.1071,-6.43892 0.032,-11.66296 3.76,-16.92338 10.8811,-13.13381 27.9051,-10.87612 39.2216,0.086 2.7843,3.03596 4.4092,6.66263 6.2092,10.30944 3.1165,11.66414 0.066,22.53356 -8.827,30.62261 -9.8242,9.37405 -21.6362,11.42961 -34.7048,11.74631 -14.8176,-1.1112 -26.7325,-7.93614 -37.9849,-17.13137 -14.2001,-13.85107 -21.7885,-31.75337 -24.1084,-51.28806 -2.9129,-83.20877 66.909,-123.52519 142.889,-105.22297 13.2595,3.75341 26.0061,8.94055 38.0021,15.70153 -0.4246,-16.72089 3.1689,-31.78973 10.2129,-44.55051 13.3122,-24.11602 34.3889,-39.9392 58.1718,-47.92974 29.47,-9.90128 64.1349,-8.81703 93.189,6.16221 10.8847,5.61179 20.959,13.2918 29.3166,22.35194 3.0456,-7.72997 6.2113,-14.10668 10.3549,-19.86093 8.8217,-12.0053 20.7741,-21.66433 33.3842,-27.60827 37.6715,-17.46155 81.6952,-7.63577 100.8578,32.53199 4.6083,11.75289 5.3283,23.13293 3.1954,35.32064 -2.9346,16.76873 -15.8573,29.64406 -30.8786,35.99163 -16.8607,7.12484 -37.2198,5.85791 -52.7973,-8.09021 -6.3043,-5.77985 -10.3852,-14.14067 -11.0265,-22.0744 -0.4036,-5.45378 0.5854,-10.93798 2.8906,-16.38624 3.7929,-8.96462 11.4957,-14.05911 20.9804,-15.55675 10.4461,-1.64943 18.0395,3.61528 24.3973,11.39761 2.3841,4.26942 -3.9806,8.23225 -7.3621,4.13511 -6.146,-8.57917 -16.2858,-8.60881 -24.7269,-3.40005 -9.4505,6.82211 -10.1425,22.04125 -2.6124,32.56784 6.5816,9.20077 16.2887,12.25813 25.8281,13.03112 19.8115,1.60538 41.3234,-11.15739 46.2379,-31.69923 3.0484,-12.74177 0.9488,-25.40515 -4.9232,-37.02909 -26.6605,-42.08927 -80.1744,-35.73531 -111.0792,-4.87504 -5.0931,5.6097 -8.7746,12.03037 -11.8482,18.82013 -4.0704,8.00911 -5.1809,17.83504 -4.5952,26.35633 1.3267,18.57467 9.2264,32.60962 23.3113,46.98245 39.8736,32.86299 86.6785,29.8521 128.011,1.0559 7.3825,-5.40501 14.2129,-11.434 20.8341,-17.72836 11.7225,-12.27193 21.585,-26.63543 28.9974,-41.89451 5.5698,-10.94701 10.1449,-22.08207 13.3176,-33.67874 4.8476,-16.28797 7.0348,-33.69255 6.2216,-50.9086 -0.9284,-19.65446 -5.6303,-39.08856 -12.3594,-56.77605 -10.7479,-29.95806 -29.4882,-55.49513 -51.5209,-78.05424 -18.4701,-16.42802 -36.303,-27.89714 -57.4379,-36.7632 -36.2064,-15.18859 -77.4858,-20.19722 -114.871,-11.04023 -39.284,10.52341 -69.3794,33.71026 -95.2609,67.00564 15.6345,-33.88944 24.8713,-66.05103 27.8346,-103.83361 0.2766,-14.10215 0.3748,-27.15555 -0.9674,-40.05671 -1.2248,-11.77383 -3.7373,-23.49655 -6.6431,-34.25553 -13.8749,-51.37238 -45.565,-90.98567 -84.6297,-119.885191 -142.566,-105.468283 -409.9328,-63.656641 -489.5691,108.823421 -11.2374,24.33846 -17.366,51.09805 -20.3127,80.60188 -1.4036,24.64396 2.2758,48.96121 6.7898,73.09891 25.5726,1.29937 47.362,12.74933 65.6434,27.51671 3.8925,3.15117 7.6656,6.45608 11.3,9.90179 23.2617,21.52617 38.7837,50.23049 61.7512,71.06132 1.7778,1.59938 3.747,2.97274 5.6485,4.42294 14.1412,11.87916 32.294,17.42029 49.1239,8.45751 8.4002,-4.30946 15.0696,-11.44036 19.2157,-19.38743 4.4518,-9.84713 6.5702,-21.64527 3.1144,-31.64384 -0.8732,-2.5295 -1.8186,-5.0517 -3.0642,-7.42011 -9.6367,-17.90959 -42.1472,-24.64382 -52.3363,-4.18835 -2.3062,5.65162 -3.1094,11.91235 -2.0537,17.7309 0.1861,1.01536 0.691,1.9743 0.7487,3.00497 0.6802,6.21981 -8.3227,7.39303 -8.9415,1.17279 -0.9366,-4.76074 -0.7836,-9.38309 -0.1587,-13.82964 4.3113,-37.07183 50.4733,-36.56386 68.3914,-10.62917 2.9799,3.88522 4.7573,8.43488 6.0828,12.7454 4.196,13.02018 1.5786,25.81827 -4.2092,37.60798 -5.6437,11.21153 -15.229,19.23252 -26.2006,23.97185 -15.1036,6.96045 -30.5105,5.06936 -44.4216,-3.06302 -1.4805,-0.87243 -2.8076,-1.98257 -4.1927,-2.9996 -2.2627,-1.66143 -4.5442,-3.30158 -6.7262,-5.06766 -23.469,-19.04702 -38.6432,-45.17105 -58.407,-66.74852 -2.7362,-2.96929 -5.6814,-5.74061 -8.6074,-8.52299 -2.1523,-2.04666 -4.3548,-4.04069 -6.5798,-6.00811 -32.1331,-33.37593 -79.6273,-34.15577 -129.7072,-24.7963 -99.5651,20.03722 -146.0829,109.96573 -143.188,213.68416 3.5736,39.57128 15.0875,81.89169 39.0361,115.45624 20.9895,26.29194 45.7824,40.96773 79.2632,43.59022 11.7038,0.7904 22.8817,-2.21202 34.3321,-4.12423 38.2273,-10.87339 74.2896,-27.90872 111.8368,-40.78232 8.6304,-2.82097 17.4337,-4.87694 26.2784,-6.8663 58.9543,-6.18447 87.1632,3.45596 99.5601,63.2042 1.5459,12.67723 -1.1549,24.51873 -4.9525,36.47674 -12.3861,25.99795 -36.3995,36.32938 -59.9038,38.02055 -35.739,2.57148 -53.5697,-10.28677 -64.4048,-25.33223 -9.5488,-14.93933 -8.8204,-28.44976 -2.2727,-43.1878 2.6609,-5.98931 7.718,-10.5813 13.151,-14.17688 12.2722,-8.12177 28.132,-8.34636 41.5464,1.95371 15.8794,12.19279 12.8974,37.89957 -2.878,46.49334 -5.3711,1.18668 -7.0412,-4.11259 -4.4904,-6.65649 7.9604,-5.27962 11.1635,-16.39429 8.6149,-23.21876 -7.2775,-19.48693 -32.848,-18.26916 -41.8844,-8.49448 l -4.067,4.83768 c -9.9068,14.80522 -6.8068,29.65991 2.6134,42.18017 l 4.6658,4.47248 c 8.6927,7.38954 19.6048,9.46382 30.3744,12.08533 l 6.0462,0.6484 10.644,-0.20752 c 8.2188,0.1746 15.7357,-2.33587 23.4104,-4.87878 l 7.1156,-2.79514 5.1501,-3.07563 c 5.8519,-4.24471 10.4319,-9.22724 14.4622,-15.14713 8.4651,-15.97159 8.9761,-29.59558 7.1649,-46.02511 -8.9332,-38.96939 -29.8893,-50.93051 -69.016,-50.97288 -19.3266,1.22863 -37.6701,7.64473 -56.1181,13.07628 -33.7825,13.46684 -67.4017,27.40264 -102.3003,37.70437 -12.2953,2.55021 -25.4297,3.8958 -37.0292,4.03383 -36.5955,-3.91284 -66.432,-23.27213 -86.9517,-52.47041 -6.0895,19.39984 -21.5225,34.01561 -38.6076,43.97443 -29.6832,11.94019 -55.9262,6.43673 -84.9482,-9.42195 -135.1043,-88.63268 -194.95884,-93.71232 -324.82152,10.31697 -32.45843,25.81877 -65.89392,49.61457 -107.42377,51.85434 -44.48356,2.42916 -86.51339,-17.0753 -129.64382,-15.60543 -38.9698,0.63815 -69.20796,25.0507 -102.15653,40.28655 -44.87528,24.70174 -71.41445,10.5763 -116.51936,7.66407 -13.97679,-0.90241 -30.29942,2.87647 -42.47809,5.96704 -38.67054,9.81338 -38.68564,40.56663 -10.38996,58.40012 z"
           id="path380"
           sodipodi:nodetypes="cccscccccsccssccsccccccccscccccccccccccccccccsssccccssccsscccssscccccccccsccscccssssccccccccccccccccccccsccsccccccccccscsssccscccccccccccccccccccccccsscc" /><path
           id="path1325"
           style="fill:#e2edf5;fill-opacity:1;stroke-width:1.54881"
           d="m 2435.2071,641.30973 c -25.3865,123.0224 -137.7592,264.70745 -488.3834,257.87017 -189.2254,-3.68995 -521.2074,-48.94304 -755.1276,-96.67971 -100.1394,-20.43567 -136.3952,-68.91766 -234.42412,-58.25976 -76.70045,8.33903 -121.60468,67.7034 -197.72841,80.26032 -71.90592,11.86118 -145.92823,-18.51398 -218.37636,-10.61351 -48.39644,5.27764 -92.78708,45.66171 -140.92065,38.36593 -18.62034,-2.82236 -40.07638,-11.95734 -61.59162,-23.63191 -0.77907,-0.0576 -1.37693,-0.1953 -2.16721,-0.24632 -13.97677,-0.90241 -30.29913,2.87521 -42.47779,5.96577 -38.6705,9.81337 -38.68444,40.56675 -10.38879,58.40022 32.88084,19.28481 74.53918,20.95912 110.81088,23.08956 220.12403,16.50449 448.21253,-11.61024 658.47167,-17.15836 28.5894,-0.72712 57.1981,-1.28387 85.7918,-0.75625 42.8329,0.79037 128.3863,5.87286 128.3863,5.87286 l 67.2938,6.39576 c 187.8698,21.00171 374.602,51.37405 563.0733,66.71687 l 56.1465,2.61664 c 0,0 62.2751,-0.29482 65.4961,0.0929 92.7653,-2.61234 189.0438,-12.76125 276.7182,-42.49724 24.4233,-8.28349 45.6997,-18.27708 69.0591,-29.82023 35.0074,-19.14737 69.0473,-47.70565 87.73,-79.76768 12.1019,-21.08137 19.4908,-44.86052 22.0999,-68.03059 3.3252,-29.52988 -1.2604,-59.75984 -15.5162,-86.48322 -6.0691,-11.37698 -14.3311,-21.83318 -23.9754,-31.70223 z" /></g><g
         id="g63365"
         style="fill:none;fill-opacity:1;stroke:#843636;stroke-opacity:1"><g
           id="g63355"
           style="fill:none;fill-opacity:1;stroke:#843636;stroke-opacity:1" /></g></g></g></svg>
