<?xml version="1.0" encoding="UTF-8" standalone="no"?>
<!-- Created with Inkscape (http://www.inkscape.org/) -->

<svg
   version="1.1"
   id="svg29551"
   width="1024"
   height="512"
   viewBox="0 0 1024 512"
   sodipodi:docname="desert_mountains.svg"
   inkscape:version="1.1.2 (b8e25be833, 2022-02-05)"
   xmlns:inkscape="http://www.inkscape.org/namespaces/inkscape"
   xmlns:sodipodi="http://sodipodi.sourceforge.net/DTD/sodipodi-0.dtd"
   xmlns="http://www.w3.org/2000/svg"
   xmlns:svg="http://www.w3.org/2000/svg">
  <defs
     id="defs29555" />
  <sodipodi:namedview
     id="namedview29553"
     pagecolor="#505050"
     bordercolor="#eeeeee"
     borderopacity="1"
     inkscape:pageshadow="0"
     inkscape:pageopacity="0"
     inkscape:pagecheckerboard="0"
     showgrid="false"
     inkscape:zoom="1.4998398"
     inkscape:cx="648.40259"
     inkscape:cy="322.0344"
     inkscape:window-width="2560"
     inkscape:window-height="1377"
     inkscape:window-x="-8"
     inkscape:window-y="-8"
     inkscape:window-maximized="1"
     inkscape:current-layer="layer5"
     inkscape:snap-page="true" />
  <g
     inkscape:groupmode="layer"
     id="layer5"
     inkscape:label="vector"
     style="display:inline">
    <path
       style="fill:#ce9f67;fill-opacity:1;stroke:none;stroke-width:1px;stroke-linecap:butt;stroke-linejoin:miter;stroke-opacity:1"
       d="M 0,336.0884 V 499.86004 H 1024 V 336.38306 l -23.6983,-0.46431 -32.18585,-3.37638 18.69815,-10.06723 -2.88766,-55.63168 -21.09761,-1.70902 -0.11786,-12.96501 19.74217,-4.71455 8.78085,-36.00737 -3.59485,-63.23388 -12.965,0.29466 -1.88582,21.45119 -10.13628,-1.70902 0.94291,-12.49355 -52.39043,-1.76796 c 0,0 -4.47882,28.22836 -5.06814,32.82505 -0.58932,4.59668 -6.12891,109.61326 -6.12891,109.61326 l 11.34438,2.593 16.73665,-0.85451 -1.09024,10.01841 -14.6151,2.38674 6.30571,13.08288 15.61694,2.65193 -2.26888,19.03499 c 0,0 -8.72076,-1.75906 -10.5561,-2.32152 -5.43507,-1.66565 -8.33156,-1.45012 -16.22843,-0.74294 -7.89687,0.70719 -29.58379,1.06078 -39.60221,0.76612 -10.01841,-0.29466 -22.92153,-2.19478 -22.92153,-2.19478 l -9.31419,-15.01333 -23.45488,-4.95027 -1.00185,-7.30755 17.76796,-5.89319 7.69061,-33.47329 2.71086,-56.221 -2.35727,-41.95948 -21.80479,0.17679 -0.0589,21.68693 -3.59484,20.03683 -24.10314,5.59853 2.06262,85.62799 c -1.28008,7.64618 -2.52458,15.37066 -3.41805,23.8674 -17.74717,-0.67549 -34.22871,-2.61661 -51.04214,-4.22583 l -4.29487,-27.53844 -17.85636,-0.88398 0.0589,-11.07919 32.33929,-2.28404 c 0,0 1.20428,-50.29921 1.31081,-58.12112 0.12935,-9.49692 -2.06343,-65.78593 -2.47514,-73.42909 -11.65987,-4.10332 -20.70811,-4.55035 -29.25967,-4.30203 l -5.2744,3.21179 -14.23205,1.91528 2.20995,34.18048 -12.72928,1.82689 -2.53407,-47.73481 c 0,0 -9.3407,-3.68324 -11.37385,-4.21362 -2.03315,-0.53039 -17.73849,-1.79743 -36.77348,0.20626 -19.03499,2.00368 -22.62984,1.70902 -22.62984,1.70902 l -0.53038,129.06077 3.35911,30.23205 -1.59116,28.93554 c 0,0 -43.8453,8.54512 -52.50829,8.95764 -8.66298,0.41253 -57.81215,-1.23756 -57.81215,-1.23756 l -74.01842,-13.96686 -1.70902,-9.2523 24.45672,-10.372 -5.06814,-86.33518 6.95396,-53.39227 -10.25414,-28.64088 -18.15102,-1.94475 2.12155,40.01473 -2.78052,33.62273 -19.37786,3.26862 c -3.19216,-23.18474 -7.3742,-43.89476 -12.78821,-61.52487 l -32.53039,-10.31307 -39.83794,7.07182 c -11.33232,18.76446 -22.76747,37.32324 -31.94106,60.40516 l -2.41621,-29.05341 -10.19521,-31.52854 -12.43463,10.13628 c 0,0 5.77533,59.04972 7.54328,73.54696 1.76796,14.49724 3.53591,31.46961 3.53591,31.46961 l 1.88582,47.73481 -30.38085,16.98668 -26.54732,5.05383 c -1.10396,-25.52274 -2.72683,-50.87252 -4.77348,-76.08103 l -12.61142,-6.42357 -0.70718,-47.79374 -18.32781,1.53223 c 0.18954,36.07288 -0.59966,72.24364 2.53407,108.0221 l 8.83978,3.77164 0.11786,6.18784 -8.26772,11.87983 -25.67703,-0.21132 -39.18969,7.24862 -49.443829,-4.18416 2.416206,-16.91345 26.401473,-5.42173 5.30387,-24.86924 -32.707185,-5.65746 2.769798,-15.61694 20.567219,-14.85083 13.259668,-21.39227 -4.03683,-82.4162 c 0,0 -15.764274,1.56169 -21.539597,1.44383 -5.775322,-0.11787 -41.959484,-1.41437 -41.959484,-1.41437 l -10.077348,7.77901 -1.001842,31.52854 1.532229,32.58932 c 0,0 -0.648251,45.84899 -1.591161,59.34439 -0.942909,13.49539 -1.944751,24.22099 -1.944751,24.22099 l 16.088398,0.29466 0.294659,12.25783 -13.300113,2.34297 -1.620986,17.54443 z"
       id="path29657"
       sodipodi:nodetypes="ccccccccccccccccccsccccccccssscccccccccccccccccccscccccccssccccsccccccccccccccccccscccccccccccccccccccccccsccccscccccc" />
    <path
       id="path33231"
       style="fill:#b18a5a;fill-opacity:1;stroke:none;stroke-width:1px;stroke-linecap:butt;stroke-linejoin:miter;stroke-opacity:1"
       d="m 422.42383,134.30664 2.12109,40.01367 -2.78125,33.62305 7.02539,1.14648 2.94532,-32.05859 0.23632,-12.66992 3.94922,-1.76758 v -6.12891 l -3.71289,0.35352 -0.18555,-21.48438 z m 246.65039,6.17774 1.16406,33.61718 -8.45956,2.1263 2.79159,16.62566 14.50199,1.24995 3.53512,-1.80855 -2.5332,-47.73437 c 0,0 -8.58553,-3.36948 -11,-4.07617 z m -629.826173,7.55273 -10.076172,7.7793 -1.001953,31.52734 1.53125,32.58984 c 0,0 -0.646934,45.84835 -1.589844,59.34375 C 27.168419,292.77273 26.166016,303.5 26.166016,303.5 l 16.08789,0.29297 0.294922,12.25781 -13.300781,2.34375 -1.621094,17.54492 13.154297,0.0312 1.296875,-7.77929 -9.253906,-1.00196 0.767578,-6.95312 14.849609,-3.1836 -1.65039,-23.86718 -13.435547,-0.29493 c -0.826044,-13.89151 -1.424016,-27.79576 0.53125,-41.84179 l 9.605469,-1.94336 23.394531,0.11719 -0.292969,-4.77344 -27.287109,-0.70703 -5.066407,1.41406 c -0.155646,-2.51292 0.09914,-4.6139 0.234375,-6.83594 l 9.3125,-1.47265 -1.769531,-21.57032 -8.130859,-2.35742 -0.826172,-16.85351 10.785156,-1.47266 0.648438,-3.24219 -11.728516,-3.00586 1.533203,-10.90234 -0.412109,-20.03711 z m 948.390623,0.17578 -2.54297,0.0586 -2.9375,11.4336 0.88477,57.16406 c 0,0 -8.13311,18.74065 -9.7832,21.39258 -1.65009,2.65193 -14.14454,10.84375 -14.14454,10.84375 l -1.23632,17.32617 c 0,0 2.29829,1.00188 4.77343,1.35547 2.47513,0.35359 14.4375,1.29492 14.4375,1.29492 l -0.17578,15.9707 -7.48437,-0.88281 -0.41407,9.01563 7.7793,-0.64844 v 22.33594 l -9.95898,1.35547 -7.18946,14.3789 -1.5332,21.80469 c 0,0 5.54034,2.59263 11.78711,1.76758 6.24678,-0.82505 30.40041,-18.26172 30.40041,-18.26172 l -32.18557,-3.375 18.69922,-10.06836 -2.88867,-55.63086 -21.09766,-1.70898 -0.11718,-12.96485 19.74218,-4.71484 8.78126,-36.00781 z m -720.25195,2.36914 -7.14453,5.82227 c 0,0 5.77697,59.04963 7.54492,73.54687 1.76796,14.49724 3.53516,31.4707 3.53516,31.47071 l 1.88671,47.73437 -30.38086,16.98633 63.6211,1.55859 c -5.05342,-9.95926 -11.03277,-19.15599 -18.75195,-26.91992 0,0 -3.49942,-26.58433 -2.91602,-35.50195 0.5834,-8.91762 1.20534,-20.26818 1.20534,-20.26818 0,0 -6.28984,-13.90255 -7.62331,-24.6537 -1.33348,-10.75115 -5.83398,-44.17187 -5.83398,-44.17187 z m 465.07812,4.4082 2.65039,11.9043 -14.82808,2.5599 1.50973,7.75455 15.20507,-0.41406 c 0,0 -0.11726,8.66297 0.23633,15.32227 0.35359,6.6593 1.17774,17.09179 1.17774,17.09179 l -1.23829,13.31836 -16.32226,2.88672 0.35351,3.41797 14.84961,1.41406 -0.41211,2.71094 -24.75195,0.23633 2.83008,5.83398 25.92969,-1.11914 c 0,0 -1.12095,10.19462 -1.82813,19.50586 -0.70718,9.31123 -0.76562,17.38477 -0.76562,17.38477 l -30.99805,6.1289 -0.70703,5.77539 -0.58985,27.28516 -5.24414,1.41406 -10.13671,15.97071 c 0,0 17.68062,-4.47859 27.05078,-4.125 9.37017,0.35359 16.375,1.55078 16.375,1.55078 l -4.29493,-27.53906 -17.85546,-0.88477 0.0586,-11.07812 32.33789,-2.28516 c 0,0 1.20597,-50.29918 1.3125,-58.1211 0.12935,-9.49691 -2.06485,-65.78457 -2.47656,-73.42773 z m 224.53907,0.54493 0.0488,14.07031 c 0,0 4.18517,1.59096 9.01758,2.41601 4.83242,0.82505 6.71875,-2.0625 6.71875,-2.0625 l -10.1367,-1.70898 0.94336,-12.49219 z m -122.23438,20.49414 -8.18359,0.0664 3.05664,27.98438 -2.65235,10.43164 v 24.2207 l -8.60351,0.23633 0.23633,3.53516 7.71875,1.00195 0.70703,10.66797 -7.83789,-0.41406 0.35351,16.73828 9.07617,5.71484 c 10e-6,0 -2.88671,26.93217 -2.88671,27.52149 0,0.58931 -18.15235,6.01171 -18.15235,6.01171 l -0.70703,10.84375 4.83203,13.43555 14.73438,5.42188 16.26758,1.40039 -9.31446,-15.01368 -23.45508,-4.94921 -1.00195,-7.3086 17.76953,-5.89258 7.68946,-33.47461 2.71093,-56.2207 z m -654.91015,26.40234 c 0.18953,36.07288 -0.59858,72.24303 2.53515,108.02148 l 8.83985,3.77149 0.11718,6.1875 -8.26758,11.88086 13.01954,-10.00781 -0.41602,-15.16993 -6.66797,-3.83203 1.16797,-16.50195 7.91602,-1.75 -2.5,-10.91797 -7.41602,0.082 -5.66797,-46.67187 3.66797,-18.33399 z"
       sodipodi:nodetypes="cccccccccccccccccccccccscccccccccccccccccccccccccccccccccsccscccccccccscccccccccccscccccscscccccccscccccccccsccccccscccccsccccsccccccccccccccccsccccccccccccccccccccccccccc" />
    <path
       id="path33631"
       style="fill:#bd9965;fill-opacity:1;stroke:none;stroke-width:1px;stroke-linecap:butt;stroke-linejoin:miter;stroke-opacity:1"
       d="m 357.06836,139.37305 -39.83789,7.07226 c -11.33232,18.76446 -22.76782,37.32433 -31.94141,60.40625 l 13.61328,-15.4414 22.98438,-41.72266 z" />
  </g>
</svg>
