<?xml version="1.0" encoding="UTF-8" standalone="no"?>
<!-- Created with Inkscape (http://www.inkscape.org/) -->

<svg
   version="1.1"
   id="svg41425"
   width="1024"
   height="512"
   viewBox="0 0 1024 512"
   sodipodi:docname="desert_mountains2.svg"
   inkscape:version="1.1.2 (b8e25be833, 2022-02-05)"
   xmlns:inkscape="http://www.inkscape.org/namespaces/inkscape"
   xmlns:sodipodi="http://sodipodi.sourceforge.net/DTD/sodipodi-0.dtd"
   xmlns="http://www.w3.org/2000/svg"
   xmlns:svg="http://www.w3.org/2000/svg">
  <defs
     id="defs41429" />
  <sodipodi:namedview
     id="namedview41427"
     pagecolor="#505050"
     bordercolor="#eeeeee"
     borderopacity="1"
     inkscape:pageshadow="0"
     inkscape:pageopacity="0"
     inkscape:pagecheckerboard="0"
     showgrid="false"
     inkscape:zoom="1.0605469"
     inkscape:cx="289.00184"
     inkscape:cy="328.1326"
     inkscape:window-width="2560"
     inkscape:window-height="1377"
     inkscape:window-x="-8"
     inkscape:window-y="-8"
     inkscape:window-maximized="1"
     inkscape:current-layer="layer6"
     inkscape:snap-page="true" />
  <g
     inkscape:groupmode="layer"
     id="layer6"
     inkscape:label="vector"
     style="display:inline">
    <path
       style="fill:#ffffff;fill-opacity:1;stroke:none;stroke-width:1px;stroke-linecap:butt;stroke-linejoin:miter;stroke-opacity:1"
       d="M 0,305.97422 V 500.21363 H 1024 V 306.44567 l -27.10865,-0.11786 -1.4733,-9.19337 -13.46592,-0.82505 0.0589,-6.27624 15.29281,-0.2357 -1.88773,-70.44397 c -1.86008,-2.27395 -6.3167,-4.696 -10.03377,-4.50934 l -64.2774,0.31614 -3.30018,39.18969 c 9.23172,6.66162 17.24425,13.87385 33.06077,17.56169 0.46771,2.62455 3.06117,4.73891 1.06078,7.9558 l -30.93923,2.59301 5.48066,11.60957 c 8.5689,1.73453 17.5137,2.21605 26.40148,2.88766 l 2.12154,8.07367 c 0,0 -28.40515,2.88766 -36.59668,2.593 -8.19153,-0.29466 -65.17864,-4.12523 -84.97974,-5.186 -19.80111,-1.06078 -66.35728,-2.35728 -88.0442,-2.9466 -21.68693,-0.58932 -78.88231,0.62368 -95.71744,1.70713 -16.83513,1.08345 -86.92595,3.41703 -110.26178,3.91709 -23.33583,0.50005 -29.46148,1.8752 -40.79602,2.04188 -11.33455,0.16668 -22.87745,-0.83342 -22.87745,-0.83342 l -5.20889,-13.25142 h -5.54226 c -1.9829,-1.50101 -0.84326,-3.67849 0.37504,-6.08398 l 19.16872,-1.20846 -0.79175,-63.3401 c 0,0 -20.08548,-2.33359 -24.6693,-2.1669 -4.58383,0.16668 -23.6692,2.50027 -23.6692,2.50027 0.34342,10.59591 1.76645,20.96048 1.02539,31.78877 l -11.4015,0.423 c 0,0 0.20835,-15.16828 -1.0001,-24.58596 -0.72459,-5.64681 -2.33359,-13.37643 -2.33359,-13.37643 0,0 -17.21017,-4.66716 -33.62859,-2.75029 -16.41842,1.91687 -36.83727,1.66684 -36.83727,1.66684 0,0 -0.50005,55.50593 -0.33337,62.25665 0.16669,6.75072 2.33359,5.50059 2.1669,12.418 -0.16668,6.9174 1.66685,15.0016 -2.58361,16.50176 -4.25045,1.50016 -39.33753,3.00032 -58.67293,2.91698 -19.3354,-0.0833 -50.83877,0.41671 -70.34085,-0.0833 -19.50208,-0.50006 -49.50529,-1.00011 -61.33988,-1.00011 -11.8346,0 -16.91848,0.25003 -16.91848,0.25003 l -1.50016,-8.00086 -30.33657,-1.25013 0.12497,-6.87574 -13.584783,-0.95844 c -2.026261,-0.0906 -2.106684,-2.26196 -1.750188,-4.58382 l 27.752961,-0.66673 -3.04199,-28.7114 -16.66845,0.125 -0.0833,-7.62581 15.96003,-0.0417 -7.29244,-42.58788 -52.172245,0.91677 0.416712,15.33497 h -9.834384 l -2.720828,-5.60267 -12.467681,-0.54173 c -1.577424,10.92975 -3.802569,21.58191 -3.313468,33.39731 l 9.751042,17.61764 17.751896,1.13436 -0.125013,6.95908 -19.210385,0.0833 c -2.888854,6.4277 -2.663288,14.30879 -3.375361,21.75232 l 13.709798,4.6255 c 0,0 -7.39969,1.77583 -20.815337,2.23002 C 18.362314,306.33527 0,305.97422 0,305.97422 Z"
       id="path41531"
       sodipodi:nodetypes="cccccccccccccccccccssssssccccccscccscscssssssccccccccccccccccccccccccsc" />
  </g>
</svg>
