<?xml version="1.0" encoding="UTF-8" standalone="no"?>
<!-- Created with Inkscape (http://www.inkscape.org/) -->

<svg
   version="1.1"
   id="svg824"
   width="1270"
   height="416"
   viewBox="0 0 1270 416"
   sodipodi:docname="desert_background.svg"
   inkscape:version="1.1.2 (b8e25be833, 2022-02-05)"
   xmlns:inkscape="http://www.inkscape.org/namespaces/inkscape"
   xmlns:sodipodi="http://sodipodi.sourceforge.net/DTD/sodipodi-0.dtd"
   xmlns="http://www.w3.org/2000/svg"
   xmlns:svg="http://www.w3.org/2000/svg">
  <defs
     id="defs828" />
  <sodipodi:namedview
     id="namedview826"
     pagecolor="#505050"
     bordercolor="#eeeeee"
     borderopacity="1"
     inkscape:pageshadow="0"
     inkscape:pageopacity="0"
     inkscape:pagecheckerboard="0"
     showgrid="false"
     inkscape:zoom="0.99718759"
     inkscape:cx="531.99619"
     inkscape:cy="114.32152"
     inkscape:window-width="2560"
     inkscape:window-height="1377"
     inkscape:window-x="-8"
     inkscape:window-y="-8"
     inkscape:window-maximized="1"
     inkscape:current-layer="layer1"
     inkscape:snap-page="false" />
  <g
     inkscape:groupmode="layer"
     id="layer1"
     inkscape:label="vector"
     style="display:inline">
    <path
       style="fill:#f4d17e;fill-opacity:1;stroke:none;stroke-width:1px;stroke-linecap:butt;stroke-linejoin:miter;stroke-opacity:1"
       d="m 1268.1386,82.521636 -0.2659,306.420294 -3.0137,0.13296 -0.044,24.81854 L 4.2989252,409.72746 C 5.1155094,316.81841 5.2168323,223.11462 10.10469,134.7292 46.866904,104.28299 118.75613,59.67303 173.99567,39.886934 222.64549,22.461194 258.19193,23.406616 301.19068,35.986879 333.81019,45.53046 384.51005,67.01005 384.51005,67.01005 413.14974,51.919906 484.55303,24.690384 538.56226,12.054718 584.19677,1.3783495 646.62179,-1.0605346 718.31937,17.461614 c 72.10834,18.628265 145.66726,41.071711 146.07482,42.457426 0,0 60.36224,-16.043412 98.65369,-7.002373 33.6082,7.935269 54.68942,14.270659 66.92142,17.993439 12.232,3.722781 104.0606,37.759634 104.0606,37.759634 45.892,-7.06958 91.2581,-14.867325 134.1087,-26.148104 z"
       id="path1023"
       sodipodi:nodetypes="ccccccsscsscsscc" />
    <path
       id="path2141"
       style="fill:#e9c575;fill-opacity:1;stroke:none;stroke-width:1px;stroke-linecap:butt;stroke-linejoin:miter;stroke-opacity:1"
       d="M 618.66797,3.8085938 C 588.3952,3.4375923 561.37975,6.7165032 538.5625,12.054688 484.55327,24.690353 413.14946,51.919622 384.50977,67.009766 402.97265,72.71541 419.59321,80.263654 436.45117,87.574219 525.2735,48.669304 635.92008,14.906987 727.02344,19.800781 724.07389,19.027672 721.27011,18.22298 718.32031,17.460938 682.47152,8.1998632 648.94074,4.1795952 618.66797,3.8085938 Z M 239.71289,26.685547 C 219.37021,27.054876 198.321,31.173849 173.99609,39.886719 118.75655,59.672815 46.867683,104.28231 10.105469,134.72852 9.2298608,150.56183 8.6586215,166.73549 8.0585938,182.875 112.51165,100.11718 242.34488,36.318777 320.83008,42.494141 c -6.77193,-2.346158 -13.65833,-4.758128 -19.63867,-6.507813 -21.49938,-6.290131 -41.13584,-9.67011 -61.47852,-9.300781 z m 691.76563,23.511719 c -33.13109,0.698021 -67.08399,9.722656 -67.08399,9.722656 0,0 -70.11193,20.784441 -102.02148,31.066406 C 730.4635,101.2683 645.18163,131.18428 612.30859,132.95703 581.81006,134.60173 557.75,129.66406 557.75,129.66406 c 0,0 57.31081,24.53245 104.55078,21.19727 45.7132,-3.22738 120.72312,-26.23594 168.41016,-43.43164 35.23342,-12.704993 113.17228,-38.841861 169.75786,-44.972659 -10.39998,-2.835491 -22.25948,-5.961455 -37.41997,-9.541015 -9.57286,-2.26026 -20.52662,-2.951424 -31.57031,-2.71875 z m 336.66018,32.324218 c -42.8506,11.280779 -88.2174,19.078856 -134.1094,26.148436 l 64.7051,18.96875 c 4.7624,-0.23409 45.8527,-4.99732 69.375,-10.625 z m -66.7442,46.003906 c 20.8775,9.97211 45.1508,14.41903 66.6914,15.38086 l 0.01,-8.0625 c -21.6114,-0.95902 -66.5146,-6.64845 -66.6973,-7.31836 z" />
  </g>
</svg>
