<?xml version="1.0" encoding="UTF-8" standalone="no"?>
<!-- Created with Inkscape (http://www.inkscape.org/) -->

<svg
   version="1.1"
   id="svg7802"
   width="1500"
   height="830"
   viewBox="0 0 1500 830"
   sodipodi:docname="desert_mountains_new_foreground.svg"
   inkscape:version="1.1.2 (b8e25be833, 2022-02-05)"
   xmlns:inkscape="http://www.inkscape.org/namespaces/inkscape"
   xmlns:sodipodi="http://sodipodi.sourceforge.net/DTD/sodipodi-0.dtd"
   xmlns="http://www.w3.org/2000/svg"
   xmlns:svg="http://www.w3.org/2000/svg">
  <defs
     id="defs7806" />
  <sodipodi:namedview
     id="namedview7804"
     pagecolor="#505050"
     bordercolor="#eeeeee"
     borderopacity="1"
     inkscape:pageshadow="0"
     inkscape:pageopacity="0"
     inkscape:pagecheckerboard="0"
     showgrid="false"
     inkscape:zoom="0.724"
     inkscape:cx="658.14917"
     inkscape:cy="382.59669"
     inkscape:window-width="2560"
     inkscape:window-height="1377"
     inkscape:window-x="-8"
     inkscape:window-y="-8"
     inkscape:window-maximized="1"
     inkscape:current-layer="layer2"
     inkscape:snap-page="true" />
  <g
     inkscape:groupmode="layer"
     id="layer2"
     inkscape:label="vector"
     style="display:inline">
    <path
       style="fill:#f0bb77;fill-opacity:1;stroke:none;stroke-width:1px;stroke-linecap:butt;stroke-linejoin:miter;stroke-opacity:1"
       d="M 0,559.13329 V 813.75173 H 1500 V 559.30594 l -43.9831,-8.28729 c 1.8875,0.59606 -30.9815,-29.95211 -37.077,-36.77486 -4.6951,-5.25524 -26.3294,-57.8384 -26.3294,-57.8384 l -27.8833,-32.63122 -1.8128,-11.22237 -27.1927,-32.11326 -6.5608,-11.82666 c 0,0 7.7503,-46.53 7.0787,-64.91713 -0.6905,-18.90538 -3.28,-48.2273 -3.194,-63.70856 0.086,-15.53868 3.7983,-37.37915 3.7983,-37.37915 -0.7584,1.51685 -13.6556,-29.92282 -15.9703,-40.5732 -2.1836,-10.04731 -5.946,-18.64415 -6.6902,-19.87655 -3.384,-5.60353 -21.1185,-10.14598 -25.4662,-10.76917 -0.4316,-2.46429 -1.8547,-24.46778 -7.0356,-34.271407 -6.105,-11.552491 -18.201,-15.295745 -29.9551,-19.078039 1.0031,-12.592034 0.7483,-23.24017 0.518,-33.926105 0,0 -9.6685,-10.27279 -22.0131,-15.970304 -12.3447,-5.697514 -28.9192,-12.430939 -33.1492,-14.157458 -4.23,-1.72652 -8.3736,-3.798343 -8.3736,-3.798343 -74.4399,3.804189 -92.7181,12.056832 -123.2735,19.337017 1.3474,12.284561 1.1077,26.915121 7.424,31.854282 0,0 -20.8909,16.574585 -34.3577,25.03453 -13.4669,8.459945 -45.32115,24.602897 -45.32115,24.602897 0,0 5.87017,16.66092 2.24448,26.32942 -3.62569,9.66851 -7.07873,6.3018 -15.36603,28.14227 -8.28729,21.84047 -17.86947,47.82458 -17.86947,47.82458 0,0 1.72652,73.80871 4.3163,89.17473 2.58978,15.36602 4.31629,34.53039 0.17265,46.78867 -4.14365,12.25829 -5.33063,23.56699 -17.93422,39.45097 -12.60359,15.88397 -33.77504,36.86119 -33.77504,36.86119 l 0.64745,10.31595 c 0,0 -8.07148,1.94233 -17.56733,5.39537 -9.49586,3.45304 -15.10705,12.77625 -15.10705,12.77625 0,0 4.05732,7.07873 2.93508,14.58909 -1.12223,7.51035 -5.87016,31.07734 -5.87016,31.07734 0,0 -68.76182,4.46215 -92.68088,7.186 -24.18174,2.75376 -78.24454,3.60475 -103.96968,4.1227 -25.72513,0.51796 -76.84491,0.0235 -95.82182,-1.55386 C 568.67665,507.9284 509.15055,500 509.15055,500 496.9999,494.97393 486.31796,481.1245 474.93584,469.18163 l -0.0567,-9.84116 c 0,0 -18.6464,-8.80525 -24.08494,-13.2942 -5.43854,-4.48895 -12.25829,-10.87707 -15.88398,-11.91298 -3.62569,-1.03591 -3.62569,-0.69061 -3.62569,-0.69061 L 421.875,416.69544 c 0,0 -1.25004,-39.57981 -2.07182,-46.09806 -1.76403,-13.9921 2.98057,-30.96973 8.45994,-34.01243 0,0 -3.62569,-3.19407 -4.3163,-20.37293 -0.6906,-17.17887 -1.72652,-51.1913 -1.72652,-51.1913 -6.90319,-8.90604 -10.60529,-19.74762 -14.07113,-30.73205 2.68095,-7.83284 4.11813,-16.0881 2.50346,-25.37983 -13.61046,1.73406 -16.96728,-2.11554 -22.87639,-4.57528 l -7.25138,-22.18577 c 0,0 -14.69125,-1.55341 -23.52382,-4.3163 -17.52417,-5.48169 -35.78212,-0.51793 -35.78212,-0.51793 0,0 4.83887,57.68408 6.34496,67.1616 2.65952,16.73586 0.37776,39.91504 -3.23722,45.58011 l -8.45995,-19.68232 c -0.30177,-0.12071 1.64284,-23.1343 1.46754,-33.32182 -0.18589,-10.80295 -7.68301,-46.61603 -7.68301,-46.61603 -13.87401,-7.80846 -15.3418,-3.69721 -17.86947,-0.60428 0,0 6.9924,38.15608 3.45304,46.35705 -3.53937,8.20096 -5.00691,23.22168 -3.53937,36.42955 1.46754,13.20788 2.3308,22.35843 2.3308,22.35843 3.92955,10.48794 9.51422,17.81611 15.97031,23.48066 3.77991,12.54365 2.43729,22.70898 -0.17265,32.28591 -8.83784,5.67558 -16.43898,18.46215 -24.43025,29.00553 0,0 7.76933,41.60912 2.07182,50.24171 -5.69751,8.6326 -10.27279,14.76174 -19.42334,22.53108 C 258.89158,460.29006 250,467.10981 250,467.10981 l 7.85566,10.44544 c 0,0 -13.89848,17.09254 -25.55248,23.82597 -11.65401,6.73342 -37.98343,25.2935 -53.09047,30.73204 -15.10705,5.43854 -62.93163,16.74724 -87.966163,19.25069 C 66.212017,553.8674 0,559.13329 0,559.13329 Z"
       id="path7908"
       sodipodi:nodetypes="cccccscccccsscsscsccsscccscsscsssccscscssscccssccscscccccscsccsccssccccssccsssc" />
    <path
       id="path10857"
       style="fill:#df9966;fill-opacity:1;stroke:none;stroke-width:1px;stroke-linecap:butt;stroke-linejoin:miter;stroke-opacity:1"
       d="m 1188.709,10.185547 c -74.4399,3.804189 -92.7181,12.057705 -123.2735,19.337891 1.3474,12.284561 1.1076,26.914354 7.4239,31.853515 0,0 -20.8906,16.575211 -34.3574,25.035156 -13.4669,8.459945 -45.32231,24.603511 -45.32231,24.603511 0,0 5.86983,16.65963 2.24414,26.32813 -3.62569,9.66851 -7.07794,6.30211 -15.36524,28.14258 -8.28729,21.84047 -17.86914,47.82422 -17.86914,47.82422 0,0 1.72663,73.80976 4.31641,89.17578 2.58978,15.36602 4.31551,34.53078 0.17187,46.78906 -4.14365,12.25829 -5.33,23.56719 -17.93359,39.45117 -6.35924,8.01439 -14.82298,17.2411 -21.72461,24.5 17.62878,-3.00034 88.48627,-15.07201 93.47457,-15.72265 5.6158,-0.7325 44.5606,-0.61133 44.5606,-0.61133 l 61.7754,-19.28906 c 69.6308,2.46271 139.2618,4.66617 208.8926,2.83593 l -6.5625,-11.82812 c -18.5822,1.66382 -38.2679,2.24868 -55.2813,4.04883 0,0 3.236,-52.98563 1.832,-55 -1.404,-2.01438 -23.9902,-0.36524 -23.9902,-0.36524 0,0 2.6867,-39.55469 1.5879,-48.71094 -1.0987,-9.15625 -9.7683,-0.24442 -12.332,2.44141 -2.5638,2.68584 -6.3477,7.44727 -6.3477,7.44727 0,0 2.5473,11.95601 2.8086,27.95703 0.2004,12.27154 -4.7006,28.87247 -10.3164,34.24414 -5.6158,5.37167 -17.3359,31.43553 -17.3359,31.43555 -27.9377,2.4906 -54.1823,0.43885 -80.8809,-1.09766 -16.919,-7.09918 -28.6012,-21.92621 -36.1367,-35.2832 0,0 11.4765,-12.45196 21.1211,-23.43946 9.6446,-10.9875 34.3047,-47.85742 34.3047,-47.85742 0,0 0.3672,-21.85211 -0.1211,-35.03711 -0.4884,-13.185 4.1511,-64.46018 5.7382,-71.54101 1.5871,-7.08084 10.498,-20.14425 11.2305,-22.83008 0.7325,-2.68583 -1.4043,-21.85158 -1.4043,-21.85156 9.0639,-13.780645 17.8637,-28.247794 28.0195,-39.189458 0.3151,-22.346882 -0.5019,-43.750302 -2.9472,-63.796875 z m 94.9512,92.541013 c -7.4809,0.70867 -40.3814,3.84057 -53.5489,4.82813 19.4559,5.64627 38.9238,11.63968 58.6055,23.83398 -0.3654,-2.08637 -1.591,-17.82589 -5.0566,-28.66211 z m -172.2149,5.53906 c 8.0691,0.0531 16.053,1.16645 23.9141,3.78516 0,0 -15.8108,18.82181 -25.7246,25.55274 -16.4019,11.13605 -30.977,23.72383 -39.5371,31.5957 -17.1789,15.79764 -24.086,33.66601 -24.086,33.66601 0,0 -0.923,-9.47368 7.5098,-31.68164 6.8446,-18.02543 0.6914,-38.93164 0.6914,-38.93164 -11.8674,1.65164 -19.7819,15.40426 -27.9707,28.31446 -6.8048,-14.93972 -6.7176,-31.29886 -5.8262,-47.82422 17.2957,3.43975 35.0224,5.78425 50.7168,2.58984 l 6.2149,11.22266 9.6679,-15.71289 c 8.205,-1.62237 16.3606,-2.62922 24.4297,-2.57618 z M 344.01758,175.4375 c -12.52806,-0.91653 -22.79883,1.87695 -22.79883,1.87695 0,0 4.83961,57.68264 6.3457,67.16016 2.65952,16.73586 0.3767,39.91501 -3.23828,45.58008 l -8.45898,-19.68164 c -0.30177,-0.12071 1.64209,-23.13475 1.46679,-33.32227 -0.18589,-10.80295 -7.68359,-46.61523 -7.68359,-46.61523 -13.87401,-7.80846 -15.34147,-3.6984 -17.86914,-0.60547 0,0 6.99248,38.15645 3.45313,46.35742 -3.53938,8.20096 -5.00661,23.22182 -3.53907,36.42969 1.46754,13.20788 2.33008,22.35937 2.33008,22.35937 3.92955,10.48794 9.51461,17.81592 15.9707,23.48047 3.77991,12.54365 2.43807,22.70823 -0.17187,32.28516 -8.83784,5.67558 -16.43842,18.46248 -24.42969,29.00586 0,0 7.76782,41.60959 2.07031,50.24218 -5.57811,8.4517 -10.18743,14.53126 -18.96093,22.07227 8.20379,-0.23579 17.76696,-0.44224 23.15234,-0.23242 9.40042,0.36625 9.27852,4.27276 16.60352,1.46484 7.325,-2.80792 12.69726,-8.30078 12.69726,-8.30078 0,0 31.47464,-9.12786 47.125,-10.74414 15.62667,-1.61384 55.84913,-1.44819 63.20313,-0.80664 l -2.49219,-4.43555 -14.96094,0.0234 c 0,0 -0.70111,-9.55325 -1.18945,-13.82617 -0.48833,-4.27291 -2.3817,-35.06805 -3.72461,-37.99805 -1.34292,-2.93001 -7.62972,0.97724 -9.2168,12.94141 -1.58708,11.96417 0.24414,37.50976 0.24414,37.50976 0,-0.11976 -7.2037,3.89 -15.5664,1.70899 l 1.16015,-54.50977 c 1.94976,-9.55335 5.23251,-18.25049 13.30664,-22.64648 l -5.83789,-59.44141 c -1.80664,-13.32879 -15.17064,-9.46506 -14.85742,-1.94141 v 31.10743 l -16.17383,-15.14063 -2.92968,-57.01172 c 5.16831,-9.16502 10.7713,-13.55963 16.39062,-17.76367 -10.28742,-17.97972 -10.84008,-35.25958 -11.48242,-52.71484 -2.4085,-0.50437 -4.91584,-0.83538 -6.95313,-1.47266 -4.38104,-1.37042 -8.80835,-2.08902 -12.98437,-2.39453 z m 1018.89652,237.11523 -137.9297,5.58204 139.7422,5.63867 z m -447.94535,13.03516 0.64844,10.31445 109.02931,-6.77929 c -2.6858,0 -109.67775,-3.53516 -109.67775,-3.53516 z m -440.08984,33.75195 -102.28125,5.67578 102.33789,4.16602 z m -129.99414,7.01954 -94.88477,0.75 7.85547,10.44531 z"
       sodipodi:nodetypes="cccscsscssscscccccscsscsscccscssscccccccscsscsccccccsscsccsccssccccscsscscccssscccccccccccssscccccccccccccccc" />
    <path
       id="path18025"
       style="fill:#dfaa68;fill-opacity:1;stroke:none;stroke-width:1px;stroke-linecap:butt;stroke-linejoin:miter;stroke-opacity:1"
       d="m 1262.5352,580.25781 c -79.7658,-3.01494 -155.8198,23.35091 -166.8164,26.625 -41.738,12.42683 -108.02443,16.1407 -151.76958,13.05664 -38.38119,-2.7059 -204.88996,-22.37895 -257.5957,-23.92773 -47.682,-1.40116 -201.68354,11.72008 -257.10938,17.58008 -55.42584,5.86 -150.65,11.23039 -190.9375,11.96289 C 198.01913,626.28719 95.958104,614.81089 67.634766,611.63672 48.136614,609.45158 19.704112,609.88167 0,610.39062 V 813.75195 H 1500 V 607.9375 c -2.7513,0.212 -7.2115,0.26282 -9.3613,0.52539 -31.9858,3.90667 -124.8055,-14.12915 -193.8692,-24.96094 -11.3677,-1.78289 -22.8392,-2.81343 -34.2343,-3.24414 z" />
  </g>
</svg>
