<?xml version="1.0" encoding="UTF-8" standalone="no"?>
<svg
   xmlns:dc="http://purl.org/dc/elements/1.1/"
   xmlns:cc="http://creativecommons.org/ns#"
   xmlns:rdf="http://www.w3.org/1999/02/22-rdf-syntax-ns#"
   xmlns:svg="http://www.w3.org/2000/svg"
   xmlns="http://www.w3.org/2000/svg"
   version="1.1"
   id="svg2"
   width="1024"
   height="1024"
   viewBox="0 0 1024 1024">
  <metadata
     id="metadata8">
    <rdf:RDF>
      <cc:Work
         rdf:about="">
        <dc:format>image/svg+xml</dc:format>
        <dc:type
           rdf:resource="http://purl.org/dc/dcmitype/StillImage" />
        <dc:title></dc:title>
      </cc:Work>
    </rdf:RDF>
  </metadata>
  <defs
     id="defs6" />
  <g
     id="g8199"
     transform="translate(320)">
    <path
       id="path8187"
       d="M 253.9719,36.42724 196,43.5 v 18.36892 l 58.75,-20.38374 z"
       style="fill:#4c4c4c;fill-opacity:1;stroke:none;stroke-width:1.03753px;stroke-linecap:butt;stroke-linejoin:miter;stroke-opacity:1" />
    <path
       id="path8189"
       d="m 254.5,40.61657 0.25,1.49967 L 196,62.5 V 55 Z"
       style="fill:#3c3c3c;fill-opacity:1;stroke:none;stroke-width:1.03753px;stroke-linecap:butt;stroke-linejoin:miter;stroke-opacity:1" />
    <rect
       transform="scale(-1,1)"
       rx="4"
       ry="4"
       y="28"
       x="-200"
       height="89"
       width="8.0000305"
       id="rect8191"
       style="fill:#3c3c3c;fill-opacity:1;fill-rule:evenodd;stroke:none;stroke-width:2.96302;stroke-linecap:round;stroke-linejoin:round;stroke-miterlimit:4;stroke-dasharray:none;stroke-opacity:1;paint-order:stroke fill markers" />
    <circle
       transform="scale(-1,1)"
       style="fill:#3c3c3c;fill-opacity:1;fill-rule:evenodd;stroke:none;stroke-width:2.788;stroke-linecap:round;stroke-linejoin:round;stroke-miterlimit:4;stroke-dasharray:none;stroke-opacity:1;paint-order:stroke fill markers"
       id="circle8193"
       cx="-198.5"
       cy="99.856079"
       r="4.5" />
    <circle
       transform="scale(-1,1)"
       style="fill:#3c3c3c;fill-opacity:1;fill-rule:evenodd;stroke:none;stroke-width:2.788;stroke-linecap:round;stroke-linejoin:round;stroke-miterlimit:4;stroke-dasharray:none;stroke-opacity:1;paint-order:stroke fill markers"
       id="circle8195"
       cx="-198.5"
       cy="76"
       r="4.5" />
    <path
       id="path8197"
       style="fill:#3c3c3c;fill-opacity:1;stroke-width:4"
       d="m 202,42.76758 -4,0.48828 v 17.91992 l 4,-1.38867 z" />
  </g>
  <g
     id="g8213"
     transform="translate(320)">
    <path
       id="path8201"
       d="M 386.0281,36.42724 444,43.5 V 61.86892 L 385.25,41.48518 Z"
       style="fill:#4c4c4c;fill-opacity:1;stroke:none;stroke-width:1.03753px;stroke-linecap:butt;stroke-linejoin:miter;stroke-opacity:1" />
    <path
       id="path8203"
       d="M 385.5,40.61657 385.25,42.11624 444,62.5 V 55 Z"
       style="fill:#3c3c3c;fill-opacity:1;stroke:none;stroke-width:1.03753px;stroke-linecap:butt;stroke-linejoin:miter;stroke-opacity:1" />
    <rect
       rx="4"
       ry="4"
       y="28"
       x="440"
       height="89"
       width="8"
       id="rect8205"
       style="fill:#3c3c3c;fill-opacity:1;fill-rule:evenodd;stroke:none;stroke-width:2.96259;stroke-linecap:round;stroke-linejoin:round;stroke-miterlimit:4;stroke-dasharray:none;stroke-opacity:1;paint-order:stroke fill markers" />
    <circle
       style="fill:#3c3c3c;fill-opacity:1;fill-rule:evenodd;stroke:none;stroke-width:2.788;stroke-linecap:round;stroke-linejoin:round;stroke-miterlimit:4;stroke-dasharray:none;stroke-opacity:1;paint-order:stroke fill markers"
       id="circle8207"
       cx="441.5"
       cy="99.856079"
       r="4.5" />
    <circle
       style="fill:#3c3c3c;fill-opacity:1;fill-rule:evenodd;stroke:none;stroke-width:2.788;stroke-linecap:round;stroke-linejoin:round;stroke-miterlimit:4;stroke-dasharray:none;stroke-opacity:1;paint-order:stroke fill markers"
       id="circle8209"
       cx="441.5"
       cy="76"
       r="4.5" />
    <path
       id="path8211"
       style="fill:#3c3c3c;fill-opacity:1;stroke-width:4"
       d="m 386.0273,36.42773 -0.7773,5.05665 7.8438,2.7207 c 0.6795,-1.89641 1.0765,-4.13405 0.5019,-6.85352 z" />
  </g>
  <g
     id="g7544"
     transform="translate(-1088,192)">
    <rect
       style="fill:#ffffff;fill-opacity:0.392157;stroke-width:4.22222"
       id="rect7518"
       width="38"
       height="38"
       x="1229"
       y="-107" />
    <path
       id="path7520"
       style="fill:#ffffff;fill-opacity:0.117647;stroke-width:5.58969"
       d="m 1264.7793,-110 -28.7715,44 h 12.5215 L 1270,-98.833984 V -110 Z" />
    <path
       id="path7522"
       style="fill:#ffffff;fill-opacity:0.117647;stroke-width:3.64663"
       d="M 1246.7148,-110 1226,-78.322266 v 1.564454 l 5.0059,3.273437 22.4531,-34.335935 -3.334,-2.17969 z" />
    <g
       id="g7542"
       transform="translate(128,-192)">
      <path
         style="fill:#4c4c4c;fill-opacity:1;stroke-width:4"
         d="m 1120,54 -26,20 h 41 z"
         id="path7524" />
      <path
         id="path7526"
         style="fill:#3c3c3c;fill-opacity:1;stroke-width:4"
         d="m 1120,54 -7.7871,5.990234 a 11.999927,11.999548 0 0 0 7.7871,2.869141 11.999927,11.999548 0 0 0 5.6035,-1.388672 z" />
      <path
         style="fill:#3c3c3c;fill-opacity:1;stroke-width:4"
         d="m 1120,54 6.7457,20 H 1147 Z"
         id="path7528" />
      <path
         id="path7530"
         d="M 1125.9999,51.99977 A 5.9999634,5.9997739 0 0 1 1120,57.99955 5.9999634,5.9997739 0 0 1 1114,51.99977 5.9999634,5.9997739 0 0 1 1120,46 a 5.9999634,5.9997739 0 0 1 5.9999,5.99977 z"
         style="fill:#4c4c4c;fill-opacity:1;fill-rule:evenodd;stroke:none;stroke-width:2.57348;stroke-linecap:round;stroke-linejoin:round;stroke-miterlimit:4;stroke-dasharray:none;stroke-opacity:1;paint-order:stroke fill markers" />
      <path
         id="path7532"
         style="fill:#3c3c3c;fill-opacity:1;fill-rule:evenodd;stroke:none;stroke-width:2.57348;stroke-linecap:round;stroke-linejoin:round;stroke-miterlimit:4;stroke-dasharray:none;stroke-opacity:1;paint-order:stroke fill markers"
         d="m 1123.7949,47.35156 a 7.1249659,7.1247409 0 0 1 0.293,2.02539 7.1249659,7.1247409 0 0 1 -7.125,7.125 7.1249659,7.1247409 0 0 1 -1.0098,-0.0723 A 5.9999634,5.9997739 0 0 0 1120,58 a 5.9999634,5.9997739 0 0 0 6,-6 5.9999634,5.9997739 0 0 0 -2.2051,-4.64844 z" />
      <path
         id="path7534"
         style="fill:#4c4c4c;fill-opacity:1;stroke-width:4"
         d="m 1096,79 v 49 h 31 v -6 h -19 a 6,6 0 0 0 -6,-6 V 92 a 6,6 0 0 0 6,-6 h 19 v -7 z" />
      <path
         id="path7536"
         style="fill:#3c3c3c;fill-opacity:1;stroke-width:4"
         d="m 1126,79 v 7 h 6 a 6,6 0 0 0 6,6 v 24 a 6,6 0 0 0 -6,6 h -6 v 6 h 18 V 79 Z" />
      <rect
         style="fill:#3c3c3c;fill-opacity:1;stroke-width:4"
         id="rect7538"
         width="64"
         height="8"
         x="1088"
         y="72"
         rx="4"
         ry="4" />
      <rect
         style="fill:#3c3c3c;fill-opacity:1;stroke-width:4"
         id="rect7540"
         width="33.5"
         height="3"
         x="1096"
         y="79" />
    </g>
  </g>
  <g
     id="g7604"
     transform="translate(-672,180)">
    <rect
       style="fill:#ffffff;fill-opacity:0.392157;stroke-width:4.22222"
       id="rect7578"
       width="38"
       height="38"
       x="1229"
       y="-107" />
    <path
       id="path7580"
       style="fill:#ffffff;fill-opacity:0.117647;stroke-width:5.58969"
       d="m 1264.7793,-110 -28.7715,44 h 12.5215 L 1270,-98.833984 V -110 Z" />
    <path
       id="path7582"
       style="fill:#ffffff;fill-opacity:0.117647;stroke-width:3.64663"
       d="M 1246.7148,-110 1226,-78.322266 v 1.564454 l 5.0059,3.273437 22.4531,-34.335935 -3.334,-2.17969 z" />
    <g
       id="g7602"
       transform="translate(128,-192)">
      <path
         style="fill:#4c4c4c;fill-opacity:1;stroke-width:4"
         d="m 1120,54 -26,20 h 41 z"
         id="path7584" />
      <path
         id="path7586"
         style="fill:#3c3c3c;fill-opacity:1;stroke-width:4"
         d="m 1120,54 -7.7871,5.990234 a 11.999927,11.999548 0 0 0 7.7871,2.869141 11.999927,11.999548 0 0 0 5.6035,-1.388672 z" />
      <path
         style="fill:#3c3c3c;fill-opacity:1;stroke-width:4"
         d="m 1120,54 6.7457,20 H 1147 Z"
         id="path7588" />
      <path
         id="path7590"
         d="M 1125.9999,51.99977 A 5.9999634,5.9997739 0 0 1 1120,57.99955 5.9999634,5.9997739 0 0 1 1114,51.99977 5.9999634,5.9997739 0 0 1 1120,46 a 5.9999634,5.9997739 0 0 1 5.9999,5.99977 z"
         style="fill:#4c4c4c;fill-opacity:1;fill-rule:evenodd;stroke:none;stroke-width:2.57348;stroke-linecap:round;stroke-linejoin:round;stroke-miterlimit:4;stroke-dasharray:none;stroke-opacity:1;paint-order:stroke fill markers" />
      <path
         id="path7592"
         style="fill:#3c3c3c;fill-opacity:1;fill-rule:evenodd;stroke:none;stroke-width:2.57348;stroke-linecap:round;stroke-linejoin:round;stroke-miterlimit:4;stroke-dasharray:none;stroke-opacity:1;paint-order:stroke fill markers"
         d="m 1123.7949,47.35156 a 7.1249659,7.1247409 0 0 1 0.293,2.02539 7.1249659,7.1247409 0 0 1 -7.125,7.125 7.1249659,7.1247409 0 0 1 -1.0098,-0.0723 A 5.9999634,5.9997739 0 0 0 1120,58 a 5.9999634,5.9997739 0 0 0 6,-6 5.9999634,5.9997739 0 0 0 -2.2051,-4.64844 z" />
      <path
         id="path7594"
         style="fill:#4c4c4c;fill-opacity:1;stroke-width:4"
         d="m 1096,79 v 49 h 31 v -6 h -19 a 6,6 0 0 0 -6,-6 V 92 a 6,6 0 0 0 6,-6 h 19 v -7 z" />
      <path
         id="path7596"
         style="fill:#3c3c3c;fill-opacity:1;stroke-width:4"
         d="m 1126,79 v 7 h 6 a 6,6 0 0 0 6,6 v 24 a 6,6 0 0 0 -6,6 h -6 v 6 h 18 V 79 Z" />
      <rect
         style="fill:#3c3c3c;fill-opacity:1;stroke-width:4"
         id="rect7598"
         width="64"
         height="8"
         x="1088"
         y="72"
         rx="4"
         ry="4" />
      <rect
         style="fill:#3c3c3c;fill-opacity:1;stroke-width:4"
         id="rect7600"
         width="33.5"
         height="3"
         x="1096"
         y="79" />
    </g>
  </g>
  <g
     id="g7664"
     transform="translate(-544,180)">
    <rect
       style="fill:#ffffff;fill-opacity:0.392157;stroke-width:4.22222"
       id="rect7638"
       width="38"
       height="38"
       x="1229"
       y="-107" />
    <path
       id="path7640"
       style="fill:#ffffff;fill-opacity:0.117647;stroke-width:5.58969"
       d="m 1264.7793,-110 -28.7715,44 h 12.5215 L 1270,-98.833984 V -110 Z" />
    <path
       id="path7642"
       style="fill:#ffffff;fill-opacity:0.117647;stroke-width:3.64663"
       d="M 1246.7148,-110 1226,-78.322266 v 1.564454 l 5.0059,3.273437 22.4531,-34.335935 -3.334,-2.17969 z" />
    <g
       id="g7662"
       transform="translate(128,-192)">
      <path
         style="fill:#4c4c4c;fill-opacity:1;stroke-width:4"
         d="m 1120,54 -26,20 h 41 z"
         id="path7644" />
      <path
         id="path7646"
         style="fill:#3c3c3c;fill-opacity:1;stroke-width:4"
         d="m 1120,54 -7.7871,5.990234 a 11.999927,11.999548 0 0 0 7.7871,2.869141 11.999927,11.999548 0 0 0 5.6035,-1.388672 z" />
      <path
         style="fill:#3c3c3c;fill-opacity:1;stroke-width:4"
         d="m 1120,54 6.7457,20 H 1147 Z"
         id="path7648" />
      <path
         id="path7650"
         d="M 1125.9999,51.99977 A 5.9999634,5.9997739 0 0 1 1120,57.99955 5.9999634,5.9997739 0 0 1 1114,51.99977 5.9999634,5.9997739 0 0 1 1120,46 a 5.9999634,5.9997739 0 0 1 5.9999,5.99977 z"
         style="fill:#4c4c4c;fill-opacity:1;fill-rule:evenodd;stroke:none;stroke-width:2.57348;stroke-linecap:round;stroke-linejoin:round;stroke-miterlimit:4;stroke-dasharray:none;stroke-opacity:1;paint-order:stroke fill markers" />
      <path
         id="path7652"
         style="fill:#3c3c3c;fill-opacity:1;fill-rule:evenodd;stroke:none;stroke-width:2.57348;stroke-linecap:round;stroke-linejoin:round;stroke-miterlimit:4;stroke-dasharray:none;stroke-opacity:1;paint-order:stroke fill markers"
         d="m 1123.7949,47.35156 a 7.1249659,7.1247409 0 0 1 0.293,2.02539 7.1249659,7.1247409 0 0 1 -7.125,7.125 7.1249659,7.1247409 0 0 1 -1.0098,-0.0723 A 5.9999634,5.9997739 0 0 0 1120,58 a 5.9999634,5.9997739 0 0 0 6,-6 5.9999634,5.9997739 0 0 0 -2.2051,-4.64844 z" />
      <path
         id="path7654"
         style="fill:#4c4c4c;fill-opacity:1;stroke-width:4"
         d="m 1096,79 v 49 h 31 v -6 h -19 a 6,6 0 0 0 -6,-6 V 92 a 6,6 0 0 0 6,-6 h 19 v -7 z" />
      <path
         id="path7656"
         style="fill:#3c3c3c;fill-opacity:1;stroke-width:4"
         d="m 1126,79 v 7 h 6 a 6,6 0 0 0 6,6 v 24 a 6,6 0 0 0 -6,6 h -6 v 6 h 18 V 79 Z" />
      <rect
         style="fill:#3c3c3c;fill-opacity:1;stroke-width:4"
         id="rect7658"
         width="64"
         height="8"
         x="1088"
         y="72"
         rx="4"
         ry="4" />
      <rect
         style="fill:#3c3c3c;fill-opacity:1;stroke-width:4"
         id="rect7660"
         width="33.5"
         height="3"
         x="1096"
         y="79" />
    </g>
  </g>
  <g
     id="g8137">
    <path
       id="path7666"
       d="M 253.9719,36.42724 196,43.5 v 18.36892 l 58.75,-20.38374 z"
       style="fill:#4c4c4c;fill-opacity:1;stroke:none;stroke-width:1.03753px;stroke-linecap:butt;stroke-linejoin:miter;stroke-opacity:1" />
    <path
       id="path7668"
       d="m 254.5,40.61657 0.25,1.49967 L 196,62.5 V 55 Z"
       style="fill:#3c3c3c;fill-opacity:1;stroke:none;stroke-width:1.03753px;stroke-linecap:butt;stroke-linejoin:miter;stroke-opacity:1" />
    <rect
       transform="scale(-1,1)"
       rx="4"
       ry="4"
       y="28"
       x="-200"
       height="89"
       width="8.0000305"
       id="rect7672"
       style="fill:#3c3c3c;fill-opacity:1;fill-rule:evenodd;stroke:none;stroke-width:2.96302;stroke-linecap:round;stroke-linejoin:round;stroke-miterlimit:4;stroke-dasharray:none;stroke-opacity:1;paint-order:stroke fill markers" />
    <circle
       transform="scale(-1,1)"
       style="fill:#3c3c3c;fill-opacity:1;fill-rule:evenodd;stroke:none;stroke-width:2.788;stroke-linecap:round;stroke-linejoin:round;stroke-miterlimit:4;stroke-dasharray:none;stroke-opacity:1;paint-order:stroke fill markers"
       id="circle7674"
       cx="-198.5"
       cy="99.856079"
       r="4.5" />
    <circle
       transform="scale(-1,1)"
       style="fill:#3c3c3c;fill-opacity:1;fill-rule:evenodd;stroke:none;stroke-width:2.788;stroke-linecap:round;stroke-linejoin:round;stroke-miterlimit:4;stroke-dasharray:none;stroke-opacity:1;paint-order:stroke fill markers"
       id="circle7676"
       cx="-198.5"
       cy="76"
       r="4.5" />
    <path
       id="path7678"
       style="fill:#3c3c3c;fill-opacity:1;stroke-width:4"
       d="m 202,42.76758 -4,0.48828 v 17.91992 l 4,-1.38867 z" />
  </g>
  <g
     id="g8153">
    <path
       id="path7712"
       d="M 386.0281,36.42724 444,43.5 V 61.86892 L 385.25,41.48518 Z"
       style="fill:#4c4c4c;fill-opacity:1;stroke:none;stroke-width:1.03753px;stroke-linecap:butt;stroke-linejoin:miter;stroke-opacity:1" />
    <path
       id="path7714"
       d="M 385.5,40.61657 385.25,42.11624 444,62.5 V 55 Z"
       style="fill:#3c3c3c;fill-opacity:1;stroke:none;stroke-width:1.03753px;stroke-linecap:butt;stroke-linejoin:miter;stroke-opacity:1" />
    <rect
       rx="4"
       ry="4"
       y="28"
       x="440"
       height="89"
       width="8"
       id="rect7716"
       style="fill:#3c3c3c;fill-opacity:1;fill-rule:evenodd;stroke:none;stroke-width:2.96259;stroke-linecap:round;stroke-linejoin:round;stroke-miterlimit:4;stroke-dasharray:none;stroke-opacity:1;paint-order:stroke fill markers" />
    <circle
       style="fill:#3c3c3c;fill-opacity:1;fill-rule:evenodd;stroke:none;stroke-width:2.788;stroke-linecap:round;stroke-linejoin:round;stroke-miterlimit:4;stroke-dasharray:none;stroke-opacity:1;paint-order:stroke fill markers"
       id="circle7718"
       cx="441.5"
       cy="99.856079"
       r="4.5" />
    <circle
       style="fill:#3c3c3c;fill-opacity:1;fill-rule:evenodd;stroke:none;stroke-width:2.788;stroke-linecap:round;stroke-linejoin:round;stroke-miterlimit:4;stroke-dasharray:none;stroke-opacity:1;paint-order:stroke fill markers"
       id="circle7720"
       cx="441.5"
       cy="76"
       r="4.5" />
    <path
       id="path7722"
       style="fill:#3c3c3c;fill-opacity:1;stroke-width:4"
       d="m 386.0273,36.42773 -0.7773,5.05665 7.8438,2.7207 c 0.6795,-1.89641 1.0765,-4.13405 0.5019,-6.85352 z" />
  </g>
  <g
     id="g7900"
     transform="translate(-1088,-96)">
    <rect
       style="fill:#ffffff;fill-opacity:0.392157;stroke-width:4.22222"
       id="rect7780"
       width="38"
       height="38"
       x="1133"
       y="415" />
    <path
       id="path7782"
       style="fill:#ffffff;fill-opacity:0.117647;stroke-width:5.58969"
       d="m 1168.7793,412 -28.7715,44 h 12.5215 L 1174,423.16602 V 412 Z" />
    <path
       id="path7784"
       style="fill:#ffffff;fill-opacity:0.117647;stroke-width:3.64663"
       d="M 1150.7148,412 1130,443.67773 v 1.56446 l 5.0059,3.27343 22.4531,-34.33593 L 1154.125,412 Z" />
    <g
       id="g7837"
       transform="translate(0,-96)">
      <path
         style="fill:#4c4c4c;fill-opacity:1;stroke-width:4"
         d="m 1152,480 -26,20 h 41 z"
         id="path7786" />
      <path
         id="path7788"
         style="fill:#3c3c3c;fill-opacity:1;stroke-width:4"
         d="m 1152,480 -7.7871,5.99023 a 11.999927,11.999548 0 0 0 7.7871,2.86914 11.999927,11.999548 0 0 0 5.6035,-1.38867 z" />
      <path
         style="fill:#3c3c3c;fill-opacity:1;stroke-width:4"
         d="m 1152,480 6.7457,20 H 1179 Z"
         id="path7790" />
      <path
         id="path7796"
         style="fill:#4c4c4c;fill-opacity:1;stroke-width:4"
         d="m 1128,505 v 49 h 31 v -6 h -19 a 6,6 0 0 0 -6,-6 v -24 a 6,6 0 0 0 6,-6 h 19 v -7 z" />
      <path
         id="path7798"
         style="fill:#3c3c3c;fill-opacity:1;stroke-width:4"
         d="m 1158,505 v 7 h 6 a 6,6 0 0 0 6,6 v 24 a 6,6 0 0 0 -6,6 h -6 v 6 h 18 v -49 z" />
      <rect
         style="fill:#3c3c3c;fill-opacity:1;stroke-width:4"
         id="rect7800"
         width="64"
         height="8"
         x="1120"
         y="498"
         rx="4"
         ry="4" />
      <rect
         style="fill:#3c3c3c;fill-opacity:1;stroke-width:4"
         id="rect7802"
         width="33.5"
         height="3"
         x="1128"
         y="505" />
    </g>
  </g>
  <g
     id="g8072"
     transform="translate(0,-32)">
    <path
       id="path8036"
       style="fill:#ffe35f;fill-opacity:0.568627;fill-rule:evenodd;stroke:none;stroke-width:6.00108;stroke-linecap:round;stroke-linejoin:round;stroke-miterlimit:4;stroke-dasharray:none;stroke-opacity:1;paint-order:stroke fill markers"
       d="M 183.5,374.5 A 14.499983,13.500002 0 0 0 173,378.69141 V 389 h 24.959 A 14.499983,13.500002 0 0 0 198,388 14.499983,13.500002 0 0 0 183.5,374.5 Z" />
    <path
       id="path8038"
       style="fill:#ffe81f;fill-opacity:0.392157;stroke-width:4.19896"
       d="m 196.4453,351 -10.2344,15.65039 a 21.795701,20.805831 0 0 1 7.8594,2.36719 L 205.8516,351 Z" />
    <path
       id="path8040"
       style="fill:#ffe81f;fill-opacity:0.392157;stroke-width:4.65386"
       d="m 211,366.20898 -7.7676,11.87891 a 21.795701,20.805831 0 0 1 2.2637,9.22852 21.795701,20.805831 0 0 1 -0.072,1.68359 h 1.0996 L 211,382.15234 Z" />
    <path
       id="path8042"
       style="fill:#ffe81f;fill-opacity:0.392157;stroke-width:4.65386"
       d="M 177.5781,351 173,358.00195 v 11.18946 a 21.795701,20.805831 0 0 1 4.252,-1.74805 L 188.0039,351 Z" />
    <path
       id="path8044"
       style="fill:#ffdd3b;fill-opacity:0.494118;stroke-width:4.22222"
       d="m 173,351 v 7.00195 L 177.5781,351 Z m 15.0039,0 -10.7519,16.44336 A 21.795701,20.805831 0 0 0 173,369.19141 v 9.5 a 14.499983,13.500002 0 0 1 10.5,-4.19141 14.499983,13.500002 0 0 1 14.4805,12.80664 14.499983,12.999998 0 0 1 0,0.01 14.499983,13.500002 0 0 1 0,0.0137 14.499983,13.500002 0 0 1 0.01,0.16602 14.499983,12.999998 0 0 1 0.01,0.22656 14.499983,12.999998 0 0 1 0,0.27734 14.499983,12.999998 0 0 1 0,0.29493 14.499983,13.500002 0 0 1 0,0.008 14.499983,12.999998 0 0 1 -0.012,0.28711 14.499983,13.500002 0 0 1 0,0.0156 A 14.499983,13.500002 0 0 1 197.959,389 h 7.4648 a 21.795701,20.805831 0 0 0 0.072,-1.68359 21.795701,20.805831 0 0 0 -2.2637,-9.22852 L 211,366.20898 V 351 h -5.1484 l -11.7813,18.01758 a 21.795701,20.805831 0 0 0 -7.8594,-2.36719 L 196.4453,351 Z M 211,382.15234 206.5234,389 H 211 Z" />
    <g
       id="g7872"
       transform="translate(-960,-160)">
      <path
         style="fill:#4c4c4c;fill-opacity:1;stroke-width:4"
         d="m 1152,480 -26,20 h 41 z"
         id="path7858" />
      <path
         id="path7860"
         style="fill:#3c3c3c;fill-opacity:1;stroke-width:4"
         d="m 1152,480 -7.7871,5.99023 a 11.999927,11.999548 0 0 0 7.7871,2.86914 11.999927,11.999548 0 0 0 5.6035,-1.38867 z" />
      <path
         style="fill:#3c3c3c;fill-opacity:1;stroke-width:4"
         d="m 1152,480 6.7457,20 H 1179 Z"
         id="path7862" />
      <path
         id="path7864"
         style="fill:#4c4c4c;fill-opacity:1;stroke-width:4"
         d="m 1128,505 v 49 h 31 v -6 h -19 a 6,6 0 0 0 -6,-6 v -24 a 6,6 0 0 0 6,-6 h 19 v -7 z" />
      <path
         id="path7866"
         style="fill:#3c3c3c;fill-opacity:1;stroke-width:4"
         d="m 1158,505 v 7 h 6 a 6,6 0 0 0 6,6 v 24 a 6,6 0 0 0 -6,6 h -6 v 6 h 18 v -49 z" />
      <rect
         style="fill:#3c3c3c;fill-opacity:1;stroke-width:4"
         id="rect7868"
         width="64"
         height="8"
         x="1120"
         y="498"
         rx="4"
         ry="4" />
      <rect
         style="fill:#3c3c3c;fill-opacity:1;stroke-width:4"
         id="rect7870"
         width="33.5"
         height="3"
         x="1128"
         y="505" />
    </g>
  </g>
  <g
     id="g7956"
     transform="translate(-992)">
    <g
       id="g7918"
       transform="translate(-288)">
      <path
         style="fill:#695f4e;fill-opacity:1;stroke:none;stroke-width:0.915085px;stroke-linecap:butt;stroke-linejoin:miter;stroke-opacity:1"
         d="m 1342.8428,256 c 3e-4,2.1883 -0.042,3.089 -0.042,5.4062 0,7.0749 -4.593,15.7675 -8.8985,22.9004 -0.3359,1.3797 -0.5596,2.28307 -0.5596,3.6934 0,6 6.1573,12 11.6573,12 2.7418,0 9.5,-2.2852 9.5,-9.8926 0,-7.6074 -6.5035,-26.6074 -6.5035,-34.1074 z m 1.6572,18.5 c 0.3425,2.70689 4,10.5 4,10.5 2e-4,3.0268 -1.9653,5.0002 -4.5,5 -2.5346,2e-4 -5.0002,-1.4732 -5,-4.5 0,-1.5 5.5,-11 5.5,-11 z"
         id="path7914" />
      <path
         style="fill:#807460;fill-opacity:1;stroke:none;stroke-width:0.915085px;stroke-linecap:butt;stroke-linejoin:miter;stroke-opacity:1"
         d="m 1340,256 v 1 c 0,5.5 -5.8718,19.74947 -6.4017,28.60971 6.5691,-6.38757 10.3897,-15.65608 10.3897,-24.20155 0,-2.0388 0.01,-3.4687 0.012,-5.4082 z"
         id="path7916" />
    </g>
    <path
       id="path7920"
       d="m 1061.9999,285.74978 a 5.7499652,5.7497836 0 0 1 -5.7499,5.74979 5.7499652,5.7497836 0 0 1 -5.75,-5.74979 5.7499652,5.7497836 0 0 1 5.75,-5.74978 5.7499652,5.7497836 0 0 1 5.7499,5.74978 z"
       style="fill:#4c4c4c;fill-opacity:1;fill-rule:evenodd;stroke:none;stroke-width:2.46625;stroke-linecap:round;stroke-linejoin:round;stroke-miterlimit:4;stroke-dasharray:none;stroke-opacity:1;paint-order:stroke fill markers" />
    <path
       id="path7922"
       style="fill:#3c3c3c;fill-opacity:1;fill-rule:evenodd;stroke:none;stroke-width:2.46625;stroke-linecap:round;stroke-linejoin:round;stroke-miterlimit:4;stroke-dasharray:none;stroke-opacity:1;paint-order:stroke fill markers"
       d="m 1059.8868,281.29525 a 6.8280927,6.8278771 0 0 1 0.2807,1.941 6.8280927,6.8278771 0 0 1 -6.828,6.82812 6.8280927,6.8278771 0 0 1 -0.9678,-0.0693 5.7499652,5.7497836 0 0 0 3.8783,1.50492 5.7499652,5.7497836 0 0 0 5.75,-5.75 5.7499652,5.7497836 0 0 0 -2.1132,-4.45476 z" />
  </g>
  <g
     id="g7944"
     transform="translate(-1152)">
    <rect
       y="135.5"
       x="1336"
       height="19.200136"
       width="8"
       id="rect7926"
       style="fill:#3c3c3c;fill-opacity:1;fill-rule:evenodd;stroke:none;stroke-width:2.51296;stroke-linecap:round;stroke-linejoin:round;stroke-miterlimit:4;stroke-dasharray:none;stroke-opacity:1;paint-order:stroke fill markers" />
    <path
       id="path7928"
       style="fill:#4c4c4c;fill-opacity:1;fill-rule:evenodd;stroke:none;stroke-width:5.14695;stroke-linecap:round;stroke-linejoin:round;stroke-miterlimit:4;stroke-dasharray:none;stroke-opacity:1;paint-order:stroke fill markers"
       d="m 1328,128 a 11.999927,11.999548 0 0 0 12,12 11.999927,11.999548 0 0 0 12,-12 z" />
    <path
       id="path7930"
       style="fill:#3d3d3d;fill-opacity:1;fill-rule:evenodd;stroke:none;stroke-width:5.14695;stroke-linecap:round;stroke-linejoin:round;stroke-miterlimit:4;stroke-dasharray:none;stroke-opacity:1;paint-order:stroke fill markers"
       d="M 1347.3145,128 A 11.999927,11.999548 0 0 1 1336,136 11.999927,11.999548 0 0 1 1329.7539,134.24609 11.999927,11.999548 0 0 0 1340,140 a 11.999927,11.999548 0 0 0 12,-12 z" />
    <path
       id="path7932"
       style="fill:#3c3c3c;fill-opacity:1;stroke-width:0.722315"
       d="m 1328,128 a 11.999927,11.999548 0 0 0 0.168,2 h 23.664 a 11.999927,11.999548 0 0 0 0.168,-2 z" />
    <g
       id="g7938">
      <path
         id="path7934"
         d="m 1346.5371,170.5 -4.7802,3.375 C 1341.1525,180.6623 1340,186.7658 1340,192 c 0,0 1.2667,35.01808 0,64 h 5.5 v -65 c 0,-2.5 0.2163,-16.842 1.0371,-20.5 z"
         style="fill:#807460;fill-opacity:1;stroke:none;stroke-width:0.915085px;stroke-linecap:butt;stroke-linejoin:miter;stroke-opacity:1" />
      <path
         id="path7936"
         d="m 1340.0289,147.68055 v 0.002 0.002 C 1328,147.68455 1327,163.5 1340.3574,163.5 c 1.3385,0 1.2997,1.08057 1.5211,2 0.1949,0.80968 0.1221,5.63855 -0.1216,8.375 l 3.7431,-2.14063 c -1.6357,7.2899 -1.5113,10.88233 -1.5,84.26573 l 4,-10e-5 c 0,0 0.5884,-22.74867 0.6713,-34.123 C 1348.7541,210.50267 1348,194.22617 1348,194.22617 1348,187 1351.5,169.5 1351.5,160 c 0,-8 -3.5,-12.31936 -11.474,-12.31936 v -5e-5 z"
         style="fill:#695f4e;fill-opacity:1;stroke:none;stroke-width:0.915085px;stroke-linecap:butt;stroke-linejoin:miter;stroke-opacity:1" />
    </g>
    <path
       id="path7940"
       d="m 1347.9999,159.99973 a 7.9999508,7.9997243 0 0 1 -7.9999,7.99972 7.9999508,7.9997243 0 0 1 -8,-7.99972 7.9999508,7.9997243 0 0 1 8,-7.99973 7.9999508,7.9997243 0 0 1 7.9999,7.99973 z"
       style="fill:#4c4c4c;fill-opacity:1;fill-rule:evenodd;stroke:none;stroke-width:3.43131;stroke-linecap:round;stroke-linejoin:round;stroke-miterlimit:4;stroke-dasharray:none;stroke-opacity:1;paint-order:stroke fill markers" />
    <path
       id="path7942"
       style="fill:#3c3c3c;fill-opacity:1;fill-rule:evenodd;stroke:none;stroke-width:3.43131;stroke-linecap:round;stroke-linejoin:round;stroke-miterlimit:4;stroke-dasharray:none;stroke-opacity:1;paint-order:stroke fill markers"
       d="M 1343.4453,152.78125 A 8.2500008,8.2497672 0 0 1 1344,155.75 8.2500008,8.2497672 0 0 1 1335.75,164 8.2500008,8.2497672 0 0 1 1332.7812,163.44727 7.9999508,7.9997243 0 0 0 1340,168 a 7.9999508,7.9997243 0 0 0 8,-8 7.9999508,7.9997243 0 0 0 -4.5547,-7.21875 z" />
  </g>
  <g
     id="g7968"
     transform="translate(-864)">
    <g
       id="g7962"
       transform="translate(-288)">
      <path
         style="fill:#695f4e;fill-opacity:1;stroke:none;stroke-width:0.915085px;stroke-linecap:butt;stroke-linejoin:miter;stroke-opacity:1"
         d="m 1342.8428,256 c 3e-4,2.1883 -0.042,3.089 -0.042,5.4062 0,7.0749 -4.593,15.7675 -8.8985,22.9004 -0.3359,1.3797 -0.5596,2.28307 -0.5596,3.6934 0,6 6.1573,12 11.6573,12 2.7418,0 9.5,-2.2852 9.5,-9.8926 0,-7.6074 -6.5035,-26.6074 -6.5035,-34.1074 z m 1.6572,18.5 c 0.3425,2.70689 4,10.5 4,10.5 2e-4,3.0268 -1.9653,5.0002 -4.5,5 -2.5346,2e-4 -5.0002,-1.4732 -5,-4.5 0,-1.5 5.5,-11 5.5,-11 z"
         id="path7958" />
      <path
         style="fill:#807460;fill-opacity:1;stroke:none;stroke-width:0.915085px;stroke-linecap:butt;stroke-linejoin:miter;stroke-opacity:1"
         d="m 1340,256 v 1 c 0,5.5 -5.8718,19.74947 -6.4017,28.60971 6.5691,-6.38757 10.3897,-15.65608 10.3897,-24.20155 0,-2.0388 0.01,-3.4687 0.012,-5.4082 z"
         id="path7960" />
    </g>
    <path
       id="path7964"
       d="m 1061.9999,285.74978 a 5.7499652,5.7497836 0 0 1 -5.7499,5.74979 5.7499652,5.7497836 0 0 1 -5.75,-5.74979 5.7499652,5.7497836 0 0 1 5.75,-5.74978 5.7499652,5.7497836 0 0 1 5.7499,5.74978 z"
       style="fill:#4c4c4c;fill-opacity:1;fill-rule:evenodd;stroke:none;stroke-width:2.46625;stroke-linecap:round;stroke-linejoin:round;stroke-miterlimit:4;stroke-dasharray:none;stroke-opacity:1;paint-order:stroke fill markers" />
    <path
       id="path7966"
       style="fill:#3c3c3c;fill-opacity:1;fill-rule:evenodd;stroke:none;stroke-width:2.46625;stroke-linecap:round;stroke-linejoin:round;stroke-miterlimit:4;stroke-dasharray:none;stroke-opacity:1;paint-order:stroke fill markers"
       d="m 1059.8868,281.29525 a 6.8280927,6.8278771 0 0 1 0.2807,1.941 6.8280927,6.8278771 0 0 1 -6.828,6.82812 6.8280927,6.8278771 0 0 1 -0.9678,-0.0693 5.7499652,5.7497836 0 0 0 3.8783,1.50492 5.7499652,5.7497836 0 0 0 5.75,-5.75 5.7499652,5.7497836 0 0 0 -2.1132,-4.45476 z" />
  </g>
  <g
     id="g8089">
    <path
       id="path8006"
       style="fill:#ffe35f;fill-opacity:0.568627;fill-rule:evenodd;stroke:none;stroke-width:6.00108;stroke-linecap:round;stroke-linejoin:round;stroke-miterlimit:4;stroke-dasharray:none;stroke-opacity:1;paint-order:stroke fill markers"
       d="M 87.5,108.5 A 14.499983,13.500002 0 0 0 77,112.69141 V 123 h 24.959 A 14.499983,13.500002 0 0 0 102,122 14.499983,13.500002 0 0 0 87.5,108.5 Z" />
    <path
       id="path8008"
       style="fill:#ffe81f;fill-opacity:0.392157;stroke-width:4.19896"
       d="m 100.4453,85 -10.2344,15.65039 a 21.795701,20.805831 0 0 1 7.8594,2.36719 L 109.8516,85 Z" />
    <path
       id="path8010"
       style="fill:#ffe81f;fill-opacity:0.392157;stroke-width:4.65386"
       d="m 115,100.20898 -7.7676,11.87891 a 21.795701,20.805831 0 0 1 2.2637,9.22852 21.795701,20.805831 0 0 1 -0.072,1.68359 h 1.0996 L 115,116.15234 Z" />
    <path
       id="path8012"
       style="fill:#ffe81f;fill-opacity:0.392157;stroke-width:4.65386"
       d="M 81.5781,85 77,92.00195 v 11.18946 a 21.795701,20.805831 0 0 1 4.252,-1.74805 L 92.0039,85 Z" />
    <path
       id="path8014"
       style="fill:#ffdd3b;fill-opacity:0.494118;stroke-width:4.22222"
       d="m 77,85 v 7.001953 L 81.5781,85 Z M 92.0039,85 81.252,101.44336 A 21.795701,20.805831 0 0 0 77,103.19141 v 9.5 A 14.499983,13.500002 0 0 1 87.5,108.5 a 14.499983,13.500002 0 0 1 14.4805,12.80664 14.499983,12.999998 0 0 1 0,0.01 14.499983,13.500002 0 0 1 0,0.0137 14.499983,13.500002 0 0 1 0.01,0.16602 14.499983,12.999998 0 0 1 0.01,0.22656 14.499983,12.999998 0 0 1 0,0.27734 14.499983,12.999998 0 0 1 0,0.29493 14.499983,13.500002 0 0 1 0,0.008 14.499983,12.999998 0 0 1 -0.012,0.28711 14.499983,13.500002 0 0 1 0,0.0156 A 14.499983,13.500002 0 0 1 101.959,123 h 7.4648 a 21.795701,20.805831 0 0 0 0.072,-1.68359 21.795701,20.805831 0 0 0 -2.2637,-9.22852 L 115,100.20898 V 85 h -5.1484 l -11.7813,18.01758 a 21.795701,20.805831 0 0 0 -7.8594,-2.36719 L 100.4453,85 Z M 115,116.15234 110.5234,123 H 115 Z" />
    <g
       id="g8034"
       transform="translate(-1024)">
      <path
         style="fill:#4c4c4c;fill-opacity:1;stroke-width:4"
         d="m 1120,54 -26,20 h 41 z"
         id="path8016" />
      <path
         id="path8018"
         style="fill:#3c3c3c;fill-opacity:1;stroke-width:4"
         d="m 1120,54 -7.7871,5.990234 a 11.999927,11.999548 0 0 0 7.7871,2.869141 11.999927,11.999548 0 0 0 5.6035,-1.388672 z" />
      <path
         style="fill:#3c3c3c;fill-opacity:1;stroke-width:4"
         d="m 1120,54 6.7457,20 H 1147 Z"
         id="path8020" />
      <path
         id="path8022"
         d="M 1125.9999,51.99977 A 5.9999634,5.9997739 0 0 1 1120,57.99955 5.9999634,5.9997739 0 0 1 1114,51.99977 5.9999634,5.9997739 0 0 1 1120,46 a 5.9999634,5.9997739 0 0 1 5.9999,5.99977 z"
         style="fill:#4c4c4c;fill-opacity:1;fill-rule:evenodd;stroke:none;stroke-width:2.57348;stroke-linecap:round;stroke-linejoin:round;stroke-miterlimit:4;stroke-dasharray:none;stroke-opacity:1;paint-order:stroke fill markers" />
      <path
         id="path8024"
         style="fill:#3c3c3c;fill-opacity:1;fill-rule:evenodd;stroke:none;stroke-width:2.57348;stroke-linecap:round;stroke-linejoin:round;stroke-miterlimit:4;stroke-dasharray:none;stroke-opacity:1;paint-order:stroke fill markers"
         d="m 1123.7949,47.35156 a 7.1249659,7.1247409 0 0 1 0.293,2.02539 7.1249659,7.1247409 0 0 1 -7.125,7.125 7.1249659,7.1247409 0 0 1 -1.0098,-0.0723 A 5.9999634,5.9997739 0 0 0 1120,58 a 5.9999634,5.9997739 0 0 0 6,-6 5.9999634,5.9997739 0 0 0 -2.2051,-4.64844 z" />
      <path
         id="path8026"
         style="fill:#4c4c4c;fill-opacity:1;stroke-width:4"
         d="m 1096,79 v 49 h 31 v -6 h -19 a 6,6 0 0 0 -6,-6 V 92 a 6,6 0 0 0 6,-6 h 19 v -7 z" />
      <path
         id="path8028"
         style="fill:#3c3c3c;fill-opacity:1;stroke-width:4"
         d="m 1126,79 v 7 h 6 a 6,6 0 0 0 6,6 v 24 a 6,6 0 0 0 -6,6 h -6 v 6 h 18 V 79 Z" />
      <rect
         style="fill:#3c3c3c;fill-opacity:1;stroke-width:4"
         id="rect8030"
         width="64"
         height="8"
         x="1088"
         y="72"
         rx="4"
         ry="4" />
      <rect
         style="fill:#3c3c3c;fill-opacity:1;stroke-width:4"
         id="rect8032"
         width="33.5"
         height="3"
         x="1096"
         y="79" />
    </g>
  </g>
  <g
     id="g8121"
     transform="translate(160,-12)">
    <path
       id="path8091"
       style="fill:#ffe35f;fill-opacity:0.568627;fill-rule:evenodd;stroke:none;stroke-width:6.00108;stroke-linecap:round;stroke-linejoin:round;stroke-miterlimit:4;stroke-dasharray:none;stroke-opacity:1;paint-order:stroke fill markers"
       d="M 87.5,108.5 A 14.499983,13.500002 0 0 0 77,112.69141 V 123 h 24.959 A 14.499983,13.500002 0 0 0 102,122 14.499983,13.500002 0 0 0 87.5,108.5 Z" />
    <path
       id="path8093"
       style="fill:#ffe81f;fill-opacity:0.392157;stroke-width:4.19896"
       d="m 100.4453,85 -10.2344,15.65039 a 21.795701,20.805831 0 0 1 7.8594,2.36719 L 109.8516,85 Z" />
    <path
       id="path8095"
       style="fill:#ffe81f;fill-opacity:0.392157;stroke-width:4.65386"
       d="m 115,100.20898 -7.7676,11.87891 a 21.795701,20.805831 0 0 1 2.2637,9.22852 21.795701,20.805831 0 0 1 -0.072,1.68359 h 1.0996 L 115,116.15234 Z" />
    <path
       id="path8097"
       style="fill:#ffe81f;fill-opacity:0.392157;stroke-width:4.65386"
       d="M 81.5781,85 77,92.00195 v 11.18946 a 21.795701,20.805831 0 0 1 4.252,-1.74805 L 92.0039,85 Z" />
    <path
       id="path8099"
       style="fill:#ffdd3b;fill-opacity:0.494118;stroke-width:4.22222"
       d="m 77,85 v 7.001953 L 81.5781,85 Z M 92.0039,85 81.252,101.44336 A 21.795701,20.805831 0 0 0 77,103.19141 v 9.5 A 14.499983,13.500002 0 0 1 87.5,108.5 a 14.499983,13.500002 0 0 1 14.4805,12.80664 14.499983,12.999998 0 0 1 0,0.01 14.499983,13.500002 0 0 1 0,0.0137 14.499983,13.500002 0 0 1 0.01,0.16602 14.499983,12.999998 0 0 1 0.01,0.22656 14.499983,12.999998 0 0 1 0,0.27734 14.499983,12.999998 0 0 1 0,0.29493 14.499983,13.500002 0 0 1 0,0.008 14.499983,12.999998 0 0 1 -0.012,0.28711 14.499983,13.500002 0 0 1 0,0.0156 A 14.499983,13.500002 0 0 1 101.959,123 h 7.4648 a 21.795701,20.805831 0 0 0 0.072,-1.68359 21.795701,20.805831 0 0 0 -2.2637,-9.22852 L 115,100.20898 V 85 h -5.1484 l -11.7813,18.01758 a 21.795701,20.805831 0 0 0 -7.8594,-2.36719 L 100.4453,85 Z M 115,116.15234 110.5234,123 H 115 Z" />
    <g
       id="g8119"
       transform="translate(-1024)">
      <path
         style="fill:#4c4c4c;fill-opacity:1;stroke-width:4"
         d="m 1120,54 -26,20 h 41 z"
         id="path8101" />
      <path
         id="path8103"
         style="fill:#3c3c3c;fill-opacity:1;stroke-width:4"
         d="m 1120,54 -7.7871,5.990234 a 11.999927,11.999548 0 0 0 7.7871,2.869141 11.999927,11.999548 0 0 0 5.6035,-1.388672 z" />
      <path
         style="fill:#3c3c3c;fill-opacity:1;stroke-width:4"
         d="m 1120,54 6.7457,20 H 1147 Z"
         id="path8105" />
      <path
         id="path8107"
         d="M 1125.9999,51.99977 A 5.9999634,5.9997739 0 0 1 1120,57.99955 5.9999634,5.9997739 0 0 1 1114,51.99977 5.9999634,5.9997739 0 0 1 1120,46 a 5.9999634,5.9997739 0 0 1 5.9999,5.99977 z"
         style="fill:#4c4c4c;fill-opacity:1;fill-rule:evenodd;stroke:none;stroke-width:2.57348;stroke-linecap:round;stroke-linejoin:round;stroke-miterlimit:4;stroke-dasharray:none;stroke-opacity:1;paint-order:stroke fill markers" />
      <path
         id="path8109"
         style="fill:#3c3c3c;fill-opacity:1;fill-rule:evenodd;stroke:none;stroke-width:2.57348;stroke-linecap:round;stroke-linejoin:round;stroke-miterlimit:4;stroke-dasharray:none;stroke-opacity:1;paint-order:stroke fill markers"
         d="m 1123.7949,47.35156 a 7.1249659,7.1247409 0 0 1 0.293,2.02539 7.1249659,7.1247409 0 0 1 -7.125,7.125 7.1249659,7.1247409 0 0 1 -1.0098,-0.0723 A 5.9999634,5.9997739 0 0 0 1120,58 a 5.9999634,5.9997739 0 0 0 6,-6 5.9999634,5.9997739 0 0 0 -2.2051,-4.64844 z" />
      <path
         id="path8111"
         style="fill:#4c4c4c;fill-opacity:1;stroke-width:4"
         d="m 1096,79 v 49 h 31 v -6 h -19 a 6,6 0 0 0 -6,-6 V 92 a 6,6 0 0 0 6,-6 h 19 v -7 z" />
      <path
         id="path8113"
         style="fill:#3c3c3c;fill-opacity:1;stroke-width:4"
         d="m 1126,79 v 7 h 6 a 6,6 0 0 0 6,6 v 24 a 6,6 0 0 0 -6,6 h -6 v 6 h 18 V 79 Z" />
      <rect
         style="fill:#3c3c3c;fill-opacity:1;stroke-width:4"
         id="rect8115"
         width="64"
         height="8"
         x="1088"
         y="72"
         rx="4"
         ry="4" />
      <rect
         style="fill:#3c3c3c;fill-opacity:1;stroke-width:4"
         id="rect8117"
         width="33.5"
         height="3"
         x="1096"
         y="79" />
    </g>
  </g>
  <g
     id="g8185"
     transform="translate(288,-12)">
    <path
       id="path8155"
       style="fill:#ffe35f;fill-opacity:0.568627;fill-rule:evenodd;stroke:none;stroke-width:6.00108;stroke-linecap:round;stroke-linejoin:round;stroke-miterlimit:4;stroke-dasharray:none;stroke-opacity:1;paint-order:stroke fill markers"
       d="M 87.5,108.5 A 14.499983,13.500002 0 0 0 77,112.69141 V 123 h 24.959 A 14.499983,13.500002 0 0 0 102,122 14.499983,13.500002 0 0 0 87.5,108.5 Z" />
    <path
       id="path8157"
       style="fill:#ffe81f;fill-opacity:0.392157;stroke-width:4.19896"
       d="m 100.4453,85 -10.2344,15.65039 a 21.795701,20.805831 0 0 1 7.8594,2.36719 L 109.8516,85 Z" />
    <path
       id="path8159"
       style="fill:#ffe81f;fill-opacity:0.392157;stroke-width:4.65386"
       d="m 115,100.20898 -7.7676,11.87891 a 21.795701,20.805831 0 0 1 2.2637,9.22852 21.795701,20.805831 0 0 1 -0.072,1.68359 h 1.0996 L 115,116.15234 Z" />
    <path
       id="path8161"
       style="fill:#ffe81f;fill-opacity:0.392157;stroke-width:4.65386"
       d="M 81.5781,85 77,92.00195 v 11.18946 a 21.795701,20.805831 0 0 1 4.252,-1.74805 L 92.0039,85 Z" />
    <path
       id="path8163"
       style="fill:#ffdd3b;fill-opacity:0.494118;stroke-width:4.22222"
       d="m 77,85 v 7.001953 L 81.5781,85 Z M 92.0039,85 81.252,101.44336 A 21.795701,20.805831 0 0 0 77,103.19141 v 9.5 A 14.499983,13.500002 0 0 1 87.5,108.5 a 14.499983,13.500002 0 0 1 14.4805,12.80664 14.499983,12.999998 0 0 1 0,0.01 14.499983,13.500002 0 0 1 0,0.0137 14.499983,13.500002 0 0 1 0.01,0.16602 14.499983,12.999998 0 0 1 0.01,0.22656 14.499983,12.999998 0 0 1 0,0.27734 14.499983,12.999998 0 0 1 0,0.29493 14.499983,13.500002 0 0 1 0,0.008 14.499983,12.999998 0 0 1 -0.012,0.28711 14.499983,13.500002 0 0 1 0,0.0156 A 14.499983,13.500002 0 0 1 101.959,123 h 7.4648 a 21.795701,20.805831 0 0 0 0.072,-1.68359 21.795701,20.805831 0 0 0 -2.2637,-9.22852 L 115,100.20898 V 85 h -5.1484 l -11.7813,18.01758 a 21.795701,20.805831 0 0 0 -7.8594,-2.36719 L 100.4453,85 Z M 115,116.15234 110.5234,123 H 115 Z" />
    <g
       id="g8183"
       transform="translate(-1024)">
      <path
         style="fill:#4c4c4c;fill-opacity:1;stroke-width:4"
         d="m 1120,54 -26,20 h 41 z"
         id="path8165" />
      <path
         id="path8167"
         style="fill:#3c3c3c;fill-opacity:1;stroke-width:4"
         d="m 1120,54 -7.7871,5.990234 a 11.999927,11.999548 0 0 0 7.7871,2.869141 11.999927,11.999548 0 0 0 5.6035,-1.388672 z" />
      <path
         style="fill:#3c3c3c;fill-opacity:1;stroke-width:4"
         d="m 1120,54 6.7457,20 H 1147 Z"
         id="path8169" />
      <path
         id="path8171"
         d="M 1125.9999,51.99977 A 5.9999634,5.9997739 0 0 1 1120,57.99955 5.9999634,5.9997739 0 0 1 1114,51.99977 5.9999634,5.9997739 0 0 1 1120,46 a 5.9999634,5.9997739 0 0 1 5.9999,5.99977 z"
         style="fill:#4c4c4c;fill-opacity:1;fill-rule:evenodd;stroke:none;stroke-width:2.57348;stroke-linecap:round;stroke-linejoin:round;stroke-miterlimit:4;stroke-dasharray:none;stroke-opacity:1;paint-order:stroke fill markers" />
      <path
         id="path8173"
         style="fill:#3c3c3c;fill-opacity:1;fill-rule:evenodd;stroke:none;stroke-width:2.57348;stroke-linecap:round;stroke-linejoin:round;stroke-miterlimit:4;stroke-dasharray:none;stroke-opacity:1;paint-order:stroke fill markers"
         d="m 1123.7949,47.35156 a 7.1249659,7.1247409 0 0 1 0.293,2.02539 7.1249659,7.1247409 0 0 1 -7.125,7.125 7.1249659,7.1247409 0 0 1 -1.0098,-0.0723 A 5.9999634,5.9997739 0 0 0 1120,58 a 5.9999634,5.9997739 0 0 0 6,-6 5.9999634,5.9997739 0 0 0 -2.2051,-4.64844 z" />
      <path
         id="path8175"
         style="fill:#4c4c4c;fill-opacity:1;stroke-width:4"
         d="m 1096,79 v 49 h 31 v -6 h -19 a 6,6 0 0 0 -6,-6 V 92 a 6,6 0 0 0 6,-6 h 19 v -7 z" />
      <path
         id="path8177"
         style="fill:#3c3c3c;fill-opacity:1;stroke-width:4"
         d="m 1126,79 v 7 h 6 a 6,6 0 0 0 6,6 v 24 a 6,6 0 0 0 -6,6 h -6 v 6 h 18 V 79 Z" />
      <rect
         style="fill:#3c3c3c;fill-opacity:1;stroke-width:4"
         id="rect8179"
         width="64"
         height="8"
         x="1088"
         y="72"
         rx="4"
         ry="4" />
      <rect
         style="fill:#3c3c3c;fill-opacity:1;stroke-width:4"
         id="rect8181"
         width="33.5"
         height="3"
         x="1096"
         y="79" />
    </g>
  </g>
</svg>
