<?xml version="1.0" encoding="UTF-8" standalone="no"?>
<!-- Created with Inkscape (http://www.inkscape.org/) -->

<svg
   version="1.1"
   id="svg21360"
   width="1024"
   height="512"
   viewBox="0 0 1024 512"
   sodipodi:docname="winter_mountains3.svg"
   inkscape:version="1.1.2 (b8e25be833, 2022-02-05)"
   xmlns:inkscape="http://www.inkscape.org/namespaces/inkscape"
   xmlns:sodipodi="http://sodipodi.sourceforge.net/DTD/sodipodi-0.dtd"
   xmlns="http://www.w3.org/2000/svg"
   xmlns:svg="http://www.w3.org/2000/svg">
  <defs
     id="defs21364" />
  <sodipodi:namedview
     id="namedview21362"
     pagecolor="#505050"
     bordercolor="#eeeeee"
     borderopacity="1"
     inkscape:pageshadow="0"
     inkscape:pageopacity="0"
     inkscape:pagecheckerboard="0"
     showgrid="false"
     inkscape:zoom="1.4749806"
     inkscape:cx="480.34532"
     inkscape:cy="280.00369"
     inkscape:window-width="2560"
     inkscape:window-height="1377"
     inkscape:window-x="-8"
     inkscape:window-y="-8"
     inkscape:window-maximized="1"
     inkscape:current-layer="layer1"
     inkscape:snap-page="true" />
  <g
     inkscape:groupmode="layer"
     id="layer1"
     inkscape:label="vector"
     style="display:inline">
    <path
       style="fill:#022a46;fill-opacity:1;stroke:none;stroke-width:1px;stroke-linecap:butt;stroke-linejoin:miter;stroke-opacity:1"
       d="M 0,329.83486 V 502.21001 H 1024 V 330.06742 c 0,-0.002 -12.1576,-10.0486 -36.24089,-27.9799 -23.93062,-17.81759 -70.83693,-50.17486 -89.0039,-52.10479 -35.25097,-3.74481 -131.74422,40.18298 -149.42329,44.08894 0,0 -41.35648,-26.9495 -73.22131,-43.72939 C 644.24578,233.5624 588.11765,202.59295 564.24473,200.51112 524.3349,197.03079 379.69078,257.91222 356.95386,266.1052 354.15379,263.40513 331.23939,239.32967 299.49547,220.17239 263.6684,198.55095 221.64978,177.3515 196.10428,175.08705 160.81157,171.95857 20.001215,308.61048 0,329.83486 Z"
       id="path21466"
       sodipodi:nodetypes="ccccsscsscssc" />
  </g>
</svg>
