<?xml version="1.0" encoding="UTF-8" standalone="no"?>
<!-- Created with Inkscape (http://www.inkscape.org/) -->

<svg
   version="1.1"
   id="svg7302"
   width="1024"
   height="512"
   viewBox="0 0 1024 512"
   sodipodi:docname="winter_mountains.svg"
   inkscape:version="1.1.2 (b8e25be833, 2022-02-05)"
   xmlns:inkscape="http://www.inkscape.org/namespaces/inkscape"
   xmlns:sodipodi="http://sodipodi.sourceforge.net/DTD/sodipodi-0.dtd"
   xmlns="http://www.w3.org/2000/svg"
   xmlns:svg="http://www.w3.org/2000/svg">
  <defs
     id="defs7306" />
  <sodipodi:namedview
     id="namedview7304"
     pagecolor="#505050"
     bordercolor="#eeeeee"
     borderopacity="1"
     inkscape:pageshadow="0"
     inkscape:pageopacity="0"
     inkscape:pagecheckerboard="0"
     showgrid="false"
     inkscape:zoom="1"
     inkscape:cx="582.5"
     inkscape:cy="337"
     inkscape:window-width="2560"
     inkscape:window-height="1377"
     inkscape:window-x="-8"
     inkscape:window-y="-8"
     inkscape:window-maximized="1"
     inkscape:current-layer="layer3"
     inkscape:snap-page="true"
     inkscape:snap-global="true"
     inkscape:object-paths="false" />
  <g
     inkscape:groupmode="layer"
     id="layer1"
     inkscape:label="base"
     style="display:inline;opacity:1">
    <path
       style="fill:#60798f;fill-opacity:1;stroke:none;stroke-width:1px;stroke-linecap:butt;stroke-linejoin:miter;stroke-opacity:1"
       d="M 0,386.70797 V 502.05363 H 1024 V 386.47514 C 991.44724,383.22427 955.93264,372.19857 916.27256,350.29098 882.49323,312.97987 849.64024,277.05827 816.32413,240.44199 L 762.34254,212.1547 705.06077,151.10129 539.72432,74.007905 427.71235,126.01346 l -16.60369,14.95155 -41.04027,40.24975 c -17.97003,11.78934 -39.10706,30.0281 -57.4938,43.90495 l -55.16023,57.51749 c -29.71361,23.47923 -57.29608,49.62237 -91.9337,66.94659 -33.73403,4.36329 -58.88449,13.41305 -81.561691,19.09393 C 52.290273,376.60104 12.409883,385.54118 0,386.70797 Z"
       id="path7408"
       sodipodi:nodetypes="cccccccccccccccsc" />
    <path
       id="path8412"
       style="fill:#546d81;fill-opacity:1;stroke:none;stroke-width:1px;stroke-linecap:butt;stroke-linejoin:miter;stroke-opacity:1"
       d="m 539.72461,74.007812 -0.12891,0.06055 -19.20703,77.615228 26.16992,61.50586 39.83789,56.67188 -6.66796,23.66992 17.66796,21.00195 1.83399,35.00391 23.66992,36.33789 6.16602,44.17188 -13,-0.50196 -18.83594,14.33594 c 0,0 -41.00482,-13.00142 -44.67188,-18.00195 -3.66705,-5.00054 -32.00281,-38.67016 -36.16992,-42.50391 -4.16711,-3.83374 -53.67187,-12.16797 -53.67187,-12.16797 l -18.16992,-68.50781 1.16796,42.17187 -11.16796,57.83789 c -27.76082,9.6233 -33.20582,23.43081 -41.67188,36.67188 l 15.33594,21.66797 -15.39649,41.0039 H 1024 V 386.47461 c -32.55276,-3.25087 -68.06648,-14.276 -107.72656,-36.18359 -33.77933,-37.31111 -66.63311,-73.23333 -99.94922,-109.84961 L 762.3418,212.1543 705.06055,151.10156 Z"
       sodipodi:nodetypes="ccccccccccccsscccccccccccccc" />
  </g>
  <g
     inkscape:groupmode="layer"
     id="layer2"
     inkscape:label="a"
     style="display:inline;opacity:1">
    <path
       style="display:inline;opacity:1;fill:#70879b;fill-opacity:1;stroke:none;stroke-width:1px;stroke-linecap:butt;stroke-linejoin:miter;stroke-opacity:1"
       d="m 300.03125,409.04297 c -15.57331,13.0129 -32.3499,35.40136 -44.16992,19.16992 -6.96283,9.41352 -11.09664,19.43325 -15.00195,29.50195 l -25.66993,1.83399 23.16993,19.83594 -0.14844,22.66796 h 29.43359 l 21.38672,-33.83593 c 6.6333,-20.38386 10.36718,-40.12341 11,-59.17383 z"
       id="path52665" />
    <path
       style="display:inline;opacity:1;fill:#688095;fill-opacity:1;stroke:none;stroke-width:1px;stroke-linecap:butt;stroke-linejoin:miter;stroke-opacity:1"
       d="m 220.58575,384.21155 c -12.02858,-0.009 -31.21139,5.0374 -43.4002,8.82947 -15.0016,4.66717 -52.03382,17.11906 -52.07422,19.61132 -0.0394,2.4325 12.57031,7.39258 12.57031,7.39258 -21.3985,3.385 -42.765207,6.54027 -64.007812,8.83399 0,0 -17.833906,-5.66781 -24.667969,-7.16797 -6.834064,-1.50016 -18.16928,-0.16652 -24.169921,-1.5 C 20.549154,419.25832 8.8668816,415.81768 0,414.07617 v 87.97656 h 167.7832 l 7.73633,-7 c 0,0 -25.83674,-4.16612 -30.50391,-3.16601 -4.66715,1.0001 -9.87695,5.91601 -9.87695,5.91601 0,0 -5.25002,-1.91626 -17.29297,-5.75 -11.79311,-3.75421 -32.920806,-10.66769 -61.173825,-13.16796 -18.949163,-1.67692 -18.33385,-4.3331 -13.5,-6.5 4.83385,-2.1669 17.001468,-2.37786 40.533203,-5.33399 11.941752,-1.50016 24.743562,-8.15819 37.140622,-11.00195 10.40283,-2.3863 24.48564,-6.57847 31.66992,-6.66797 16.47867,-0.2054 30.61183,-4.85266 40.63282,-10.00977 14.57663,-7.50157 38.17187,-46.10351 38.17187,-46.10351 l 2.42774,-3.12891 c 0,0 3.40617,-1.86447 -4.72266,-4.76367 -1.61045,-0.57438 -5.66382,-1.16144 -8.43964,-1.16345 z"
       id="path52663" />
    <path
       style="display:inline;opacity:1;fill:#70879b;fill-opacity:1;stroke:none;stroke-width:1px;stroke-linecap:butt;stroke-linejoin:miter;stroke-opacity:1"
       d="m 307.36523,284.53125 c -8.71977,10.43794 -55.28472,72.79684 -55.17187,79.17383 0.0621,3.51149 13.04348,44.51692 15.33594,48.00586 6.11258,-4.70366 29.8664,-38.69858 37.91989,-51.08926 9.70495,-14.93151 23.93069,-47.5679 21.58597,-55.25645 -2.17799,-7.14181 -19.66993,-20.83398 -19.66993,-20.83398 z"
       id="path52661" />
    <path
       style="display:inline;opacity:1;fill:#688095;fill-opacity:1;stroke:none;stroke-width:1px;stroke-linecap:butt;stroke-linejoin:miter;stroke-opacity:1"
       d="m 411.43588,282.67582 c -2.33359,0.16668 -19.7278,26.02342 -23.39486,31.85738 -3.66706,5.83395 -23.16797,44.00586 -23.16797,44.00586 l -34.00391,2.83203 -18.00195,33.33789 12,7.33399 -11.5,57.17187 3.83789,42.83789 h 75.60937 l 13.58008,-40.73437 c 0,0 -12.61237,-16.49985 -13.79101,-17.20703 -1.17864,-0.70718 -14.31239,-3.31435 -15.3125,-4.31445 -1.00011,-1.00012 -1.91797,-20.08594 -1.91797,-20.08594 l 34.66992,-35.66992 c 0,0 10.83449,-37.6699 12.16797,-44.00391 1.33347,-6.33401 6.00195,-40.00586 6.00195,-40.00586 l -5.00195,0.5 c 0,0 -9.44148,-18.02211 -11.77506,-17.85543 z"
       id="path52659" />
    <path
       style="display:inline;opacity:1;fill:#688095;fill-opacity:1;stroke:none;stroke-width:1px;stroke-linecap:butt;stroke-linejoin:miter;stroke-opacity:1"
       d="m 505.88672,244.19336 c -14.35504,4.30964 -61.11906,24.5311 -60.93555,43.66797 0.50792,52.96471 25.26563,104.51367 25.26563,104.51367 0,0 23.50241,3.00102 25.33593,5.66797 1.83353,2.66695 7.66797,18.16797 7.66797,18.16797 l 52.67188,0.5 c 0,0 2.16751,4.8346 12.50195,5.16797 10.33444,0.33337 29.17397,3.96208 34.5957,-16.66407 5.42173,-20.62615 -1.64866,-29.22939 -3.65234,-43.37304 -2.00369,-14.14365 -1.94141,-47.3086 -1.94141,-47.3086 0,0 -21.16081,-11.50503 -30.23632,-18.45898 -9.0755,-6.95396 -13.08331,-16.38274 -16.26563,-16.73633 -3.18232,-0.35359 -33.22191,13.40509 -37.83398,12.02149 -9.4291,-2.82874 -7.17383,-47.16602 -7.17383,-47.16602 z"
       id="path52657" />
    <path
       style="display:inline;opacity:1;fill:#688095;fill-opacity:1;stroke:none;stroke-width:1px;stroke-linecap:butt;stroke-linejoin:miter;stroke-opacity:1"
       d="m 469.7168,170.85156 -7.5,59.83985 42.66992,-10.33399 9.66797,-41.50586 z"
       id="path52655" />
    <path
       style="display:inline;opacity:1;fill:#70879b;fill-opacity:1;stroke:none;stroke-width:1px;stroke-linecap:butt;stroke-linejoin:miter;stroke-opacity:1"
       d="m 446.54688,168.51758 c 0,0 -24.64563,73.10487 -21.17876,81.57053 2.33812,5.70938 9.67875,21.77517 9.67876,21.77517 0,0 6.16642,-16.8358 8.5,-24.16992 2.33358,-7.33411 18.00256,-68.34041 18.33593,-69.17383 0.33337,-0.83342 -15.33594,-10.00195 -15.33593,-10.00195 z"
       id="path52653" />
    <path
       style="display:inline;opacity:1;fill:#70879b;fill-opacity:1;stroke:none;stroke-width:1px;stroke-linecap:butt;stroke-linejoin:miter;stroke-opacity:1"
       d="m 420.87891,166.51758 c -20.65663,26.08441 -34.41034,53.21926 -26.33594,83.67578 0.46904,-0.10423 -8.21411,-17.65864 -11.26622,-18.07865 -2.54968,-0.35087 -46.15379,58.50434 -45.90761,58.75052 0,0 9.50058,9.50116 10.33398,17.00196 0.83342,7.5008 -12.5,38.16992 -12.5,38.16992 0,0 14.50009,-2.83438 19.83399,-5.16797 5.33391,-2.33358 40.83789,-60.17187 40.83789,-60.17187 0,0 23.50246,-70.1749 24.83594,-72.3418 1.33347,-2.1669 12.9422,-24.69342 14.60904,-31.3608 1.66684,-6.66738 -14.44107,-10.47709 -14.44107,-10.47709 z"
       id="path52651" />
    <path
       style="display:inline;opacity:1;fill:#688095;fill-opacity:1;stroke:none;stroke-width:1px;stroke-linecap:butt;stroke-linejoin:miter;stroke-opacity:1"
       d="m 530.39062,146.68164 -9.16796,35.33789 c 0,0 -5.66674,38.67126 -5,50.50586 0.66674,11.8346 4.66601,33.50391 4.66601,33.50391 h 5 l 23.00391,-14.66992 26.00195,28.83789 7.89844,2.45507 3.60351,-12.79101 16.16797,-45.83789 -19.16797,-76.17383 z"
       id="path52649" />
    <path
       id="path7408-8"
       style="display:inline;opacity:1;fill:#60778b;fill-opacity:1;stroke:none;stroke-width:1px;stroke-linecap:butt;stroke-linejoin:miter;stroke-opacity:1"
       d="m 0,386.33789 0.05664062,25.40625 C 38.028009,415.8896 82.504869,411.47241 90.810547,410.58398 64.564854,397.65489 40.861687,387.797 0,386.33789 Z"
       sodipodi:nodetypes="cccc" />
    <path
       style="fill:#546d81;fill-opacity:1;stroke:none;stroke-width:1px;stroke-linecap:butt;stroke-linejoin:miter;stroke-opacity:1"
       d="m 0,437.875 v 64.17773 h 145.20117 c 4.40037,-5.63858 -4.54669,-4.01023 -10.0625,-4.25 0,0 -5.25002,-1.91626 -17.29297,-5.75 -8.4128,-2.67812 -21.652317,-6.94332 -38.763669,-10.08789 -2.821044,-0.26492 -6.43403,-0.57175 -8.371093,-0.77929 -9.899496,-1.06066 -28.607495,-1.43135 -36.416016,-4.06446 -7.601398,-2.56326 -22.810207,-6.75451 -10.783203,-17.50195 10.564726,-9.44073 34.480472,-10.15423 47.90625,-9.72266 13.241775,0.42566 40.887331,0.98969 40.835941,0.70704 0,0 -12.733826,-8.62883 -35.927738,-10.02344 C 62.015656,439.71961 38.922366,437.63335 22.804688,439.4668 6.5382734,441.31717 -0.24613532,437.92759 0,437.875 Z"
       id="path129321" />
    <path
       style="fill:#5a7286;fill-opacity:1;stroke:none;stroke-width:1px;stroke-linecap:butt;stroke-linejoin:miter;stroke-opacity:1"
       d="M 0,414.07617 V 437.875 c 20.443688,-0.57688 35.819676,-2.41978 52.25,-4 l 23.941406,-2.00977 0.863282,-3.38281 c -1.126139,0.12627 -2.255404,0.27496 -3.38086,0.39649 0,0 -17.833906,-5.66781 -24.667969,-7.16797 -6.834064,-1.50016 -18.16928,-0.16652 -24.169921,-1.5 C 20.549154,419.25832 8.8668816,415.81768 0,414.07617 Z"
       id="path65257" />
    <path
       style="fill:#70879b;fill-opacity:1;stroke:none;stroke-width:1px;stroke-linecap:butt;stroke-linejoin:miter;stroke-opacity:1"
       d="m 147.66602,491.73633 c -1.15314,-0.0182 -2.067,0.0254 -2.6504,0.15039 -4.66714,1.0001 -9.87695,5.91601 -9.87695,5.91601 3.45271,1.17623 6.92988,2.29251 10.0625,4.25 h 22.58203 l 7.73633,-7 c 0,0 -19.78156,-3.18898 -27.85351,-3.3164 z"
       id="path49174" />
    <path
       style="fill:#70879b;fill-opacity:1;stroke:none;stroke-width:1px;stroke-linecap:butt;stroke-linejoin:miter;stroke-opacity:1"
       d="m 220.58594,384.21094 c -12.02858,-0.009 -31.21158,5.03801 -43.40039,8.83008 -15.0016,4.66717 -52.03382,17.11906 -52.07422,19.61132 -0.0394,2.4325 12.57031,7.39258 12.57031,7.39258 -21.3985,3.385 -42.765207,6.54027 -64.007812,8.83399 0,0 -0.0059,-0.002 -0.0059,-0.002 -1.358938,2.24208 -13.045891,3.06845 -21.417969,4.99805 32.418877,1.38842 65.751761,-1.28375 94.558591,16.1582 2.1237,-0.35101 4.13384,-0.63274 5.70703,-0.65234 16.47867,-0.2054 30.61183,-4.85266 40.63282,-10.00977 14.57663,-7.50157 38.17187,-46.10351 38.17187,-46.10351 l 2.42774,-3.12891 c 0,0 3.40617,-1.86447 -4.72266,-4.76367 -1.61045,-0.57438 -5.66363,-1.16205 -8.43945,-1.16406 z"
       id="path49170" />
    <path
       style="fill:#70879b;fill-opacity:1;stroke:none;stroke-width:1px;stroke-linecap:butt;stroke-linejoin:miter;stroke-opacity:1"
       d="m 411.43555,282.67578 c -2.33359,0.16668 -19.72747,26.02346 -23.39453,31.85742 -3.66706,5.83395 -23.16797,44.00586 -23.16797,44.00586 l -34.00391,2.83203 -18.00195,33.33789 12,7.33399 -11.5,57.17187 3.83789,42.83789 h 33.63672 l 21.98047,-35.71484 c 0,0 -17.14715,-15.91066 -20.15235,-20.33008 -3.00521,-4.41942 -1.23828,-21.21289 -1.23828,-21.21289 0,0 41.01348,-41.54363 42.78125,-44.54883 1.76777,-3.0052 28.99805,-79.71484 28.99805,-79.71484 0,0 -9.44181,-18.02215 -11.77539,-17.85547 z"
       id="path49166" />
    <path
       style="fill:#70879b;fill-opacity:1;stroke:none;stroke-width:1px;stroke-linecap:butt;stroke-linejoin:miter;stroke-opacity:1"
       d="m 405.56641,146.40039 -35.49805,34.81445 c -17.97003,11.78934 -39.1074,30.02745 -57.49414,43.9043 l -55.16016,57.51758 c -29.71361,23.47923 -57.29597,49.62304 -91.93359,66.94726 -33.73403,4.36329 -58.88335,13.41287 -81.560548,19.09375 C 53.056767,376.40928 13.386702,384.68484 0,386.18555 v 0.15234 c 28.728311,6.33748 57.765587,10.46503 85.810547,21.68359 0.617523,-0.0661 2.403006,-0.34135 2.646484,-0.33007 16.857729,0.7805 132.656249,-43.02149 132.656249,-43.02149 0,0 79.4399,-98.29762 86.51172,-97.82617 7.07182,0.47146 18.62109,8.01367 18.62109,8.01367 0.13533,0.1624 39.83733,-44.18484 45.9668,-54.2168 6.99939,-11.45572 41.01758,-67.41796 41.01758,-67.41796 z"
       id="path48068" />
    <path
       id="path58386"
       style="fill:#70879b;fill-opacity:1;stroke:none;stroke-width:1px;stroke-linecap:butt;stroke-linejoin:miter;stroke-opacity:1"
       d="m 490.88672,272.28711 c -2.33837,0.0554 -4.83901,2.97824 -7.58008,10.9082 -6.90827,19.98579 -11.70508,71.99024 -11.70508,71.99024 19.95001,-0.55362 38.84213,-0.26612 59.78906,0.84179 l 25.625,62.11524 c 1.48567,1.45462 4.73037,3.52186 11.37891,3.73633 7.77329,0.25075 20.35418,2.35783 28.42188,-5.38672 L 590.125,385.875 558.875,386.28125 564,340.125 l -14.875,-27.5 13.56055,-20.57617 c -5.99882,-6.09744 -9.19474,-12.42246 -11.79102,-12.71094 -3.18232,-0.35359 -33.22191,13.40509 -37.83398,12.02149 -0.013,-0.004 -0.0242,-0.0135 -0.0371,-0.0176 -2.64509,0.79927 -5.04824,1.33429 -6.06446,1.01562 -5.17746,-1.62357 -10.09642,-20.21181 -16.07226,-20.07031 z" />
    <path
       id="path59124"
       style="fill:#70879b;fill-opacity:1;stroke:none;stroke-width:1px;stroke-linecap:butt;stroke-linejoin:miter;stroke-opacity:1"
       d="m 532.125,161.75 c -3.40054,33.31178 -7.41692,66.10955 -5.5293,103.82812 l 22.29688,-14.21874 1.6875,1.87109 L 551.625,189.25 Z" />
    <path
       id="path8412-0"
       style="display:inline;opacity:1;fill:#5a7286;fill-opacity:1;stroke:none;stroke-width:1px;stroke-linecap:butt;stroke-linejoin:miter;stroke-opacity:1"
       d="m 586.01758,121.98828 -15.55664,0.35352 12.93554,25.50781 c 0,0 20.41992,53.10778 23.48438,60.5332 3.06445,7.42541 18.5048,35.35989 23.45508,39.01367 4.95027,3.65377 18.5039,8.60352 18.5039,8.60352 l 8.25,17.20898 c 0,0 21.45163,-4.83301 25.45899,-3.30078 4.00737,1.53223 13.9082,7.07227 13.9082,7.07227 0,0 7.42518,53.62725 13.31836,61.40625 5.89319,7.77901 22.15886,28.2865 37.36328,34.17969 15.20442,5.89319 17.20703,6.48242 17.20703,6.48242 l 5.54102,13.4375 c 0,0 3.7711,8.721 8.60351,7.30664 4.83241,-1.41437 8.48633,-4.83203 8.48633,-4.83203 l -28.52344,-62.23242 -38.1875,-47.02735 -18.97656,-44.90625 -37.83398,-14.61523 -21.09766,-47.61524 c 0,0 10.72453,3.77066 14.14258,10.72461 3.41805,6.95396 9.66602,19.80078 9.66602,19.80078 l 43.01953,18.26954 16.85547,46.08398 14.49609,4.125 c 0,0 -3.77073,-8.24887 -4.24219,-13.55274 -0.47145,-5.30385 1.88477,-33.82812 1.88477,-33.82812 L 727.69141,209.20898 679.60156,168.30859 634.69531,149.45117 594.0332,132.24219 Z m -2.6211,25.86133 -53.00586,-1.16797 -4.59374,17.71094 20.76171,48.79687 39.83789,56.67188 16.16797,-45.83789 z m 126.9629,8.90039 6.72265,28.29688 37.00977,34.41601 L 752.20703,256 c 1.57744,6.98781 2.0528,13.36363 6.24609,21.80469 0,0 30.88101,-17.32505 33.23829,-16.5 2.35727,0.82504 38.36384,23.15129 48.67773,32.17578 12.02948,10.5256 35.27216,52.37357 32.05859,52.21289 0,0 -12.96581,-4.83113 -17.5625,-9.07422 -4.59668,-4.2431 -35.12304,-35.83008 -35.12304,-35.83008 l -25.57617,-11.78711 -2.1211,18.97657 20.1543,36.5371 c 44.83981,17.13838 90.33779,30.54727 133.42187,57.63477 0,0 1.29605,17.91579 5.18555,22.04102 3.50721,3.71977 60.85816,11.94497 73.19336,13.69531 v -51.41211 c -32.5528,-3.25087 -68.06646,-14.276 -107.72656,-36.18359 -33.7793,-37.31111 -66.63314,-73.23333 -99.94922,-109.84961 L 762.3418,212.1543 Z m -98.46094,100.19336 -8.5,34.83789 13.08398,13.66797 5.66797,31.16992 20.00195,12.41797 c 0,0 4.74959,-2.41647 8.5,-4.25 3.7504,-1.83353 7.91797,-2.91797 7.91797,-2.91797 l -18.16797,21.91992 c 0,0 -3.66837,-3.75157 -6.00195,-7.25195 -2.33358,-3.50037 -9.83398,-7.33398 -9.83398,-7.33399 0,0 6.83447,23.83584 14.50195,37.00391 7.66749,13.16807 10.0008,15.00264 14.66797,20.66992 4.66716,5.66727 12.00195,23.00196 12.00195,23.00196 l -36.67187,0.16797 -13,-0.50196 c 0,0 -1.16294,18.25156 3.66601,24.00391 3.31407,3.9478 6.70265,6.5348 8.75196,9.25 3.04669,4.03668 4.24905,9.50088 6.91601,13.41797 2.66695,3.91708 9.16901,12.00192 11.58594,18.33593 1.22674,3.21493 1.58947,5.74764 1.65429,7.5 h 86.48243 l -7.62891,-19.33398 9.00195,-5.50195 c 0,0 -34.337,-59.25558 -36.5039,-68.08985 -2.1669,-8.83428 -8.75196,-56.50586 -8.75196,-56.50586 l -8.08398,-3.33398 -14.91797,-24.08594 19.91797,16.16797 -9.25,-53.83789 c 0,0 -15.25209,6.33422 -20.08594,4.08398 -4.83385,-2.25024 -15.75195,-21.33593 -15.75195,-21.33593 z M 470.2168,392.375 c 0,0 23.50241,3.00102 25.33593,5.66797 1.83353,2.66695 7.66797,18.16797 7.66797,18.16797 l 41.6875,0.39648 c -9.42037,-11.46615 -25.24308,-30.21808 -28.51953,-33.23242 -4.16711,-3.83374 -54.71365,-11.95961 -54.71365,-11.95961 2.53514,7.16861 5.3015,14.20233 8.54178,20.95961 z m 260.42382,-6.89453 c -2,0 -3.42052,0.11159 -3.65624,0.40625 -0.94291,1.17864 -2.47657,35.35742 -2.47657,35.35742 0,0 37.36366,49.26758 38.66016,49.26758 1.2965,0 19.68359,-1.53125 19.68359,-1.53125 l 43.47071,33.07226 h 57.47265 c -0.40197,-2.52764 -2.34424,-15.27682 0.6543,-17.63281 3.30018,-2.593 35.00586,-7.89648 35.00586,-7.89648 0,0 -33.23842,-24.86876 -41.72461,-26.63672 -8.48618,-1.76796 -33.82587,-5.42181 -38.30469,-8.83984 -4.47883,-3.41805 -13.55469,-14.38086 -13.55469,-14.38086 l -45.73047,1.65039 -32.29492,-41.8418 c 0,0 -11.20506,-0.99414 -17.20508,-0.99414 z m 110.55274,3.94141 c 0,0 40.54461,34.65174 48.08789,37.48046 7.54328,2.82873 66.24076,22.98438 66.83008,22.98438 0.58932,0 56.33787,2.94531 56.33787,2.94531 0,0 -72.72203,-13.5543 -75.55076,-15.32226 -2.82873,-1.76795 -16.97266,-25.45899 -16.97266,-25.45899 -35.96544,-14.5565 -60.33969,-18.74047 -78.73242,-22.6289 z m -406.64648,13.2871 -9.92774,4.07422 c -13.54451,6.48423 -20.11588,14.27709 -25.3457,22.32032 3.05374,1.99216 6.11461,4.05017 9.24218,5.81445 9.19338,5.186 41.48738,23.80679 42.66602,26.16406 1.06816,2.13633 1.67456,34.38235 1.79297,40.9707 h 127.57812 c 1.16539,-8.60016 4.34375,-32.1746 4.34375,-34.83593 0,-3.167 -23.83593,-6.16797 -23.83593,-6.16797 0,0 -16.66883,-27.33506 -20.83594,-29.50195 -4.16711,-2.1669 -61.83984,-0.33399 -61.83984,-0.33399 0,0 -15.66776,-19.00168 -17.66797,-21.50195 -2.00021,-2.50027 -26.16993,-7.00196 -26.16992,-7.00196 z"
       sodipodi:nodetypes="cccssccscssccsccccccsccccsccccccccccccccccccccsscscccccsccccsccccccsccscsscccssssccccscccccscccscccccsscscccscssccsscsscscccccssccscsc" />
    <path
       id="path61939"
       style="fill:#60778b;fill-opacity:1;stroke:none;stroke-width:1px;stroke-linecap:butt;stroke-linejoin:miter;stroke-opacity:1"
       d="m 586.01758,121.98828 -15.55664,0.35352 12.93554,25.50781 c 0,0 20.41992,53.10778 23.48438,60.5332 3.06445,7.42541 18.5048,35.35989 23.45508,39.01367 4.95027,3.65377 18.5039,8.60352 18.5039,8.60352 l 8.25,17.20898 c 0,0 4.77069,-1.00108 9.51563,-1.88476 C 658.8316,256.66884 653.52543,240.7796 647,225.5 l -37,-38.75 7.88867,-44.41211 -23.85547,-10.0957 z m 124.3418,34.76172 6.72265,28.29688 37.00977,34.41601 -0.52539,10.17383 c 4.11007,-0.84115 9.81213,0.90467 15.18359,2.11328 0,0 49,36.875 54.5,40.125 5.5,3.25 17.82811,10.63467 22.25,13.375 13.3125,8.25 58.5625,72.75 58.5625,72.75 22.45618,11.75002 54.11571,30.07948 82.1875,51 l 37.75,5.87305 v -28.39844 c -32.5528,-3.25087 -68.06646,-14.276 -107.72656,-36.18359 -33.7793,-37.31111 -66.63314,-73.23333 -99.94922,-109.84961 L 762.3418,212.1543 Z m -54.04688,1.7793 c 4.2323,10.6724 14.61851,38.03811 19.6875,42.7207 4.31305,3.98428 49.54885,18.72142 57.79492,20.16602 l -6.10351,-12.20704 -48.08985,-40.90039 z m 48.59961,90.83984 c -5.98059,7.8148 -12.53463,15.20907 -20.99805,21.20313 4.46395,1.94616 12.54297,6.4082 12.54297,6.4082 0,0 7.42518,53.62725 13.31836,61.40625 5.89319,7.77901 22.15886,28.2865 37.36328,34.17969 14.585,5.6531 16.33151,6.16519 16.50586,6.21875 L 759.75,356 722.5,311.75 720.26562,285.70117 Z M 668.5,359.25 l -25.5,19.5 0.9375,7.1875 22.0625,34.375 12.8125,-0.75 c 0.46469,-14.7713 1.94269,-30.23924 -0.0625,-43.3125 z m -252.16406,52.2168 c -8.18173,5.4113 -13.03745,11.44636 -17.0625,17.63672 3.05374,1.99216 6.11461,4.05017 9.24218,5.81445 9.19338,5.186 41.48738,23.80679 42.66602,26.16406 1.06816,2.13633 1.67456,34.38235 1.79297,40.9707 h 46.45117 C 507.394,492.33721 515.78461,482.01359 517.75,479 521.5,473.25 518,445 518,445 l -51.5,-2.75 c 0,0 -16.5,-22.5 -17.75,-24.25 -1.01374,-1.41923 -22.80577,-4.99075 -32.41406,-6.5332 z m 360.27344,26.75 -16.08399,21.55859 c 12.42156,5.25184 21.12992,6.2259 30.19727,6.91602 z m -103.33594,1.76758 c -11.31116,0.52169 -33.38616,2.31054 -40.94336,2.31054 -6.00148,0 -11.73176,-0.98362 -16.11133,-1.89648 0.36788,5.01913 1.25166,10.45582 3.51367,13.15039 3.31407,3.9478 6.70264,6.5348 8.75196,9.25 3.04669,4.03668 4.24905,9.50088 6.91601,13.41797 2.66695,3.91708 9.16901,12.00192 11.58594,18.33593 1.22674,3.21493 1.58948,5.74764 1.65429,7.5 h 42.34376 c -1.34752,-7.04031 -5.13034,-27.01418 -4.38282,-27.76171 0.88389,-0.88388 13.08008,-9.01563 13.08008,-9.01563 0,0 -17.85332,-24.39345 -19.62109,-25.27734 -0.44194,-0.22097 -3.01673,-0.18757 -6.78711,-0.0137 z"
       sodipodi:nodetypes="cccsscccccccccccccsscccccccccscccccccssccccccccccccccssccsccscccccsscssssccscsss" />
  </g>
  <g
     inkscape:groupmode="layer"
     id="layer3"
     inkscape:label="top"
     style="display:inline;opacity:1">
    <path
       style="fill:#778d9f;fill-opacity:1;stroke:none;stroke-width:1px;stroke-linecap:butt;stroke-linejoin:miter;stroke-opacity:1"
       d="m 384.58737,166.97545 c 0,0 -2.57293,-0.36342 -3.72198,0.78563 -1.14905,1.14905 -4.59619,5.3033 -6.01041,6.36396 -1.41421,1.06066 -7.5572,4.94975 -10.73919,11.57887 -3.18198,6.62913 -4.80852,14.9595 -0.66291,20.06416 4.08913,5.03511 13.14306,-4.47903 13.87697,-11.26951 0.95089,-8.79809 6.91972,-28.53651 7.25752,-27.52311 z"
       id="path68209"
       sodipodi:nodetypes="csssssc" />
    <path
       style="fill:#778d9f;fill-opacity:1;stroke:none;stroke-width:1px;stroke-linecap:butt;stroke-linejoin:miter;stroke-opacity:1"
       d="m 437.92321,234.41478 c 0,0 -12.458,8.89811 -17.99017,19.70172 -3.80552,7.43169 -3.39687,14.72277 -0.62408,20.31323 3.37414,6.80289 10.52357,-0.60263 11.93779,-3.25428 1.41421,-2.65165 2.65165,-15.11441 3.62392,-20.85965 0.97227,-5.74524 3.05254,-15.90102 3.05254,-15.90102 z"
       id="path68643"
       sodipodi:nodetypes="cssssc" />
    <path
       style="fill:#657b8d;fill-opacity:1;stroke:none;stroke-width:1px;stroke-linecap:butt;stroke-linejoin:miter;stroke-opacity:1"
       d="m 591.125,170.25 c -11.5,-10.875 -19.75,-16.25 -19.75,-16.25 0,0 3.125,-10.25 3.125,-17 0,-6.75 3.125,-10.5 4.75,-11.625 1.625,-1.125 2.125,-1.625 2.125,-1.625 0,0 -6.125,17.625 13.625,32 19.75,14.375 31.625,-8 31.625,-8 0,0 -16.125,40.125 5.375,49 21.5,8.875 17.75,-29.875 18,-36.625 0.25,-6.75 -0.5,-18.25 15.25,-10.125 15.75,8.125 21.5,14.75 25.875,23.375 4.375,8.625 9,32.625 22.125,29.625 13.125,-3 13.125,-24.75 6.125,-36.875 C 712.375,154 703.625,146.5 690.125,134.75 676.625,123 640.25,98.5 622.125,86 604,73.5 576.28661,57.669195 569.03661,55.169195 561.78661,52.669195 532.3125,52.875 529.25,52.625 526.1875,52.375 517.24372,51.90533 509,47.75 c -7.53921,-3.800213 -13.10012,-6.710972 -19.75,-2.5 -7.71307,4.884232 -36.11837,43.814158 -41.5,51.875 -5.5395,8.2973 -15.875,18.5 -24.75,28.5 -8.875,10 -17.3125,19.875 -19.25,24.8125 -1.9375,4.9375 -3.93436,9.08525 -2.87186,12.14775 1.0625,3.0625 7.05936,5.35225 7.05936,5.35225 0,0 -2.3125,8.9375 -2.125,14.375 0.1875,5.4375 2.3125,12 8,13.5625 5.6875,1.5625 9.75,-0.375 12.1875,-4 2.4375,-3.625 3.4375,-17.25 3.5,-22.75 0.0625,-5.5 -3.5625,-18.0625 -0.375,-18.5625 3.1875,-0.5 9.1875,8.4375 10.375,10.4375 1.1875,2 1.375,3.5 1.4375,4.4375 0.0625,0.9375 -0.125,7.125 1.9375,9.8125 2.0625,2.6875 7.9375,10.5 11.0625,12.25 3.125,1.75 3.6875,2.1875 3.6875,2.1875 0,0 -1.6875,4.8125 -3.75,7.25 -2.0625,2.4375 -6.9375,7.8125 -4.875,14.5625 2.0625,6.75 5,12.875 12.9375,13.6875 7.9375,0.8125 12.0625,-3.75 13.875,-7.125 1.8125,-3.375 2.875,-13.8125 2.125,-19.9375 -0.75,-6.125 -1.125,-8.875 -1.125,-8.875 0,0 19.25,4.3125 31.375,1 12.125,-3.3125 21.6875,-9.375 23.125,-8.1875 1.4375,1.1875 2.25,7.25 2,11 -0.25,3.75 -4.0625,9.125 -1.9375,14 2.125,4.875 6.0625,10.8125 13.0625,11 7,0.1875 12.125,-8.8125 12.4375,-16.375 0.3125,-7.5625 -6.6875,-21.5 -5.75,-21.875 0.9375,-0.375 14.8125,4.875 20.625,14.5 7.06117,14.16995 21.50433,23.90885 28.25,4.4375 1.3125,-3.875 1.375,-4.8125 1.375,-4.8125 0,0 1.25,-12.8125 -10.25,-23.6875 z"
       id="path69115"
       sodipodi:nodetypes="sssssscssssssssszsssscssssssscccscssssscssssssscccs" />
    <path
       style="fill:#657b8d;fill-opacity:1;stroke:none;stroke-width:1px;stroke-linecap:butt;stroke-linejoin:miter;stroke-opacity:1"
       d="m 627.55727,217.08178 c 0.62676,-1.05295 15.86581,25.45922 18.208,32.70369 2.0442,6.32277 9.22139,15.53663 17.81025,14.18633 9.72742,-1.52931 14.66947,-15.69043 7.33623,-25.19068 -8.12242,-10.52263 -19.97576,-13.47922 -22.14128,-14.09794 -2.16551,-0.61872 -6.89429,-5.12652 -10.12047,-6.31977 -3.22617,-1.19324 -11.09273,-1.28163 -11.09273,-1.28163 z"
       id="path70213"
       sodipodi:nodetypes="csssssc" />
    <path
       id="path90544"
       style="fill:#778d9f;fill-opacity:1;stroke:none;stroke-width:1px;stroke-linecap:butt;stroke-linejoin:miter;stroke-opacity:1"
       d="m 496.43359,43.189453 c -2.34918,-0.09522 -4.68989,0.481432 -7.18359,2.060547 -7.71307,4.884232 -36.11837,43.814158 -41.5,51.875 -5.5395,8.2973 -15.875,18.5 -24.75,28.5 -8.875,10 -17.3125,19.875 -19.25,24.8125 -1.9375,4.9375 -3.93359,9.08594 -2.87109,12.14844 1.0625,3.0625 7.05859,5.35156 7.05859,5.35156 0,0 -2.3125,8.9375 -2.125,14.375 0.1875,5.4375 2.3125,12 8,13.5625 5.6875,1.5625 9.75,-0.375 12.1875,-4 2.4375,-3.625 3.4375,-17.25 3.5,-22.75 0.0625,-5.5 -3.5625,-18.0625 -0.375,-18.5625 3.1875,-0.5 9.1875,8.4375 10.375,10.4375 1.1875,2 1.375,3.5 1.4375,4.4375 0.0625,0.9375 -0.125,7.125 1.9375,9.8125 2.0625,2.6875 7.9375,10.5 11.0625,12.25 3.125,1.75 3.6875,2.1875 3.6875,2.1875 0,0 -1.6875,4.8125 -3.75,7.25 -2.0625,2.4375 -6.9375,7.8125 -4.875,14.5625 2.0625,6.75 5,12.875 12.9375,13.6875 7.9375,0.8125 12.0625,-3.75 13.875,-7.125 1.8125,-3.375 2.875,-13.8125 2.125,-19.9375 -0.75,-6.125 -1.125,-8.875 -1.125,-8.875 0,0 19.25,4.3125 31.375,1 12.125,-3.3125 21.6875,-9.375 23.125,-8.1875 1.4375,1.1875 2.25,7.25 2,11 -0.11878,1.78168 -1.03588,3.94307 -1.74414,6.23047 L 539.875,198.75 533.1582,175.00977 516.89453,155.0332 513.35938,92.277344 554.72461,77.427734 563.28906,54.111328 C 552.11721,52.751512 531.77582,52.831189 529.25,52.625 526.1875,52.375 517.24372,51.90533 509,47.75 c -4.71201,-2.375133 -8.6511,-4.401852 -12.56641,-4.560547 z" />
    <path
       id="path75935"
       style="fill:#8396a5;fill-opacity:1;stroke:none;stroke-width:1px;stroke-linecap:butt;stroke-linejoin:miter;stroke-opacity:1"
       d="m 383.71289,166.92188 c -0.85478,-0.005 -2.1295,0.12168 -2.84766,0.83984 -1.14905,1.14905 -4.59554,5.30262 -6.00976,6.36328 -1.41421,1.06066 -7.55825,4.94901 -10.74024,11.57812 -1.94644,4.0551 -3.30192,8.7448 -3.11914,12.94532 1.4759,2.303 3.42735,4.02799 5.94141,3.85156 3.14528,-0.22072 7.22663,-5.26639 10.80664,-10.83203 1.56484,-9.13953 6.08235,-24.10836 6.76758,-24.69922 -0.0742,-0.01 -0.34792,-0.044 -0.79883,-0.0469 z m 0.79883,0.0469 c 0.0102,10e-4 0.0762,0.006 0.0762,0.006 -0.0143,-0.0429 -0.0425,-0.0349 -0.0762,-0.006 z" />
    <path
       id="path76200"
       style="fill:#8396a5;fill-opacity:1;stroke:none;stroke-width:1px;stroke-linecap:butt;stroke-linejoin:miter;stroke-opacity:1"
       d="m 437.92383,234.41406 c 0,0 -12.45807,8.89952 -17.99024,19.70313 -2.4885,4.85973 -3.16659,9.65572 -2.56836,13.95898 1.61023,1.17138 3.13288,1.01967 5.00977,0.42383 3.9375,-1.25 5.5625,-11.625 6.875,-17.25 1.3125,-5.625 8.67383,-16.83594 8.67383,-16.83594 z" />
    <path
       style="fill:#5a7286;fill-opacity:1;stroke:none;stroke-width:1px;stroke-linecap:butt;stroke-linejoin:miter;stroke-opacity:1"
       d="m 538.19727,128.16406 c -3.30175,-2.1511 -4.64777,-5.8269 -5.65748,-8.83979 -0.55626,3.62982 -1.79909,12.68128 0.30936,17.67767 l 10.82824,5.56792 2.12066,-3.4466 z"
       id="path123610"
       sodipodi:nodetypes="cccccc" />
    <path
       id="path97029"
       style="fill:#6f8392;fill-opacity:1;stroke:none;stroke-width:1px;stroke-linecap:butt;stroke-linejoin:miter;stroke-opacity:1"
       d="m 549.8125,83.5 -25.1875,9.5625 2.75,15.75 c 0,0 6.9375,18.3125 14.75,18.875 7.8125,0.5625 13.25,-8.8125 7.6875,-17.875 -5.5625,-9.0625 0,-26.3125 0,-26.3125 z m 43.77148,25.44141 c -4.59716,0.0194 -9.06504,2.15297 -11.01562,7.46679 -0.97741,2.66268 -1.50605,5.23629 -1.70117,7.73047 0.0657,-0.0589 0.50781,-0.38867 0.50781,-0.38867 0,0 -0.32976,1.0289 -0.58984,2.67383 0.0669,4.58135 1.4033,8.84351 3.90429,12.69922 4.24264,6.54074 17.77192,27.10345 29.34375,10.87109 9.47213,-13.28701 16.70611,-16.1737 16.17578,-8.21875 -0.53033,7.95495 -3.70775,22.22517 -4.70507,31.28516 -1.96891,17.88617 11.06836,16.70898 11.06836,16.70898 -0.97397,-1.48784 -5.87366,-13.12014 -1.42383,-24.67969 4.16104,-10.80935 7.77592,-19.94732 3.54492,-32.24218 -4.57814,-13.30361 -11.81106,-23.80173 -19.11719,-23.5625 -3.3849,0.11083 0.99555,4.24004 4.44531,8.44726 4.11826,5.0225 8.33877,11.0881 0,13.9668 -5.82353,2.01039 -15.65605,-15.59675 -20.60156,-19.46875 -2.60632,-2.04057 -6.26036,-3.30416 -9.83594,-3.28906 z m -55.38671,19.22265 c -1.89998,5.45817 0.006,11.42552 4.15429,14.14063 l -22.98242,-5.65625 13.33594,30.5 c 0,0 28.11964,3.7955 37.04687,16.52344 8.92722,12.72792 10.78322,23.24596 19.79883,19.79882 6.76028,-2.58481 10.13955,-14.41444 6.86133,-26.8789 -1.36395,-2.11625 -3.09004,-4.26414 -5.28711,-6.3418 -11.5,-10.875 -19.75,-16.25 -19.75,-16.25 -5.43712,-2.86677 -10.43113,-5.75903 -17.88672,-8.51367 -1.46442,-4.49037 -3.04434,-9.21074 -4.86133,-14.40625 -2.79487,0.23387 -6.10649,-0.44595 -10.42968,-2.91602 z M 657.375,130.25 c 0,0 22.40321,19.39666 28.0625,26.875 8.75,11.5625 14.69025,37.16048 23.0625,37.375 7.3176,0.1875 7.74556,-11.58006 -2.125,-27.875 -14.5,-23.9375 -49,-36.375 -49,-36.375 z m -29.77734,86.80273 c -0.0168,0.003 -0.0312,0.0129 -0.041,0.0293 0,0 0.12243,0.004 0.13281,0.004 -0.035,-0.0191 -0.0691,-0.0375 -0.0918,-0.0332 z m 0.0918,0.0332 c 1.55998,0.85055 15.0251,24.35392 17.80078,32.01367 5.69551,6.63785 11.97489,12.7813 16.25977,11.52539 C 669,258.5 670,242.5 659.625,233.75 l -10.69141,-9.01562 c -0.0306,-0.009 -0.13653,-0.0429 -0.16406,-0.0508 -2.16551,-0.61872 -6.89296,-5.12706 -10.11914,-6.32031 -3.14243,-1.16227 -10.57136,-1.27221 -10.96094,-1.27734 z" />
    <path
       id="path70649"
       style="fill:#8396a5;fill-opacity:1;stroke:none;stroke-width:1px;stroke-linecap:butt;stroke-linejoin:miter;stroke-opacity:1"
       d="m 496.43359,43.189453 c -2.34918,-0.09522 -4.68989,0.481432 -7.18359,2.060547 -7.71307,4.884232 -36.11837,43.814158 -41.5,51.875 -5.5395,8.2973 -15.875,18.5 -24.75,28.5 -8.875,10 -17.3125,19.875 -19.25,24.8125 -1.05729,2.69438 -2.08212,5.12672 -2.66797,7.30273 1.82736,2.59946 5.12974,3.1409 9.75977,1.03321 10.99934,-5.00715 0.34558,5.01361 -1.63672,7.82617 -5.11925,7.26338 -2.07447,24.15493 3.62109,23.41211 6.40444,-0.83527 8.03593,-12.85224 7.84961,-22.67774 -0.15776,-8.3193 1.83085,-23.49457 11.70899,-21.01562 9.65783,2.42367 10.92321,9.47682 8.26953,17.38672 0.18066,0.69418 0.25346,1.28628 0.2832,1.73242 0.0491,0.73611 -0.0389,4.69218 0.91211,7.66602 3.88173,4.34538 11.44843,7.91627 14.30664,10.82226 1.88689,1.91843 1.96299,3.74397 1.09375,5.53906 0.0137,0.01 0.375,0.22266 0.375,0.22266 0,0 -1.6875,4.8125 -3.75,7.25 -2.0625,2.4375 -6.9375,7.8125 -4.875,14.5625 0.7368,2.41135 1.5979,4.72945 2.74609,6.76758 3.41402,2.35289 7.44422,3.21778 10.76368,0.9707 11.23949,-7.60849 4.81296,-24.36886 11.57031,-32.66016 4.77781,-5.8624 11.46538,-0.61466 17.43164,4.69727 5.55572,0.38472 11.69663,0.33489 16.67578,-1.02539 4.35769,-1.1905 8.17188,-2.69221 11.60938,-4.12891 7.19813,-4.79995 6.47348,-9.99711 6.7539,-13.08203 3.27349,4.21274 4.8448,7.45235 5.45117,10.09961 0.99332,2.20727 1.51668,6.83182 1.31055,9.92383 -0.24429,3.66432 -3.85131,8.87726 -2.03516,13.66211 5.85555,5.24623 12.99269,4.54154 14.60938,-4.98242 1.30119,-7.66539 -0.54119,-19.07291 -4.36133,-26.47071 -2.44451,-4.73385 -8.82031,-8.12304 -8.82031,-8.12304 0,0 26.14187,-11.19149 19.10547,-15.60547 -4.39207,-2.75517 -9.90322,-5.5661 -15.4375,-7.54297 -12.01772,-4.29279 -12.48914,-9.8351 -13.75977,-14.70703 -1.07978,-4.14019 -1.63679,-10.60181 -0.1875,-14.50586 3.67367,-9.89601 5.72187,-4.73201 7.63867,-1.93555 6.04775,8.82322 12.3516,11.5256 16.875,-0.75195 3.00022,-8.14328 -5.29228,-25.837463 11.96875,-23.839844 15.86753,1.83635 18.27015,-2.610102 17.54883,-13.851563 C 576.06477,68.294885 572.61518,61.45431 569.81836,55.5 c -0.22483,-0.08654 -0.58563,-0.262621 -0.78125,-0.330078 -7.25,-2.5 -36.72461,-2.294922 -39.78711,-2.544922 -3.0625,-0.25 -12.00628,-0.71967 -20.25,-4.875 -4.71201,-2.375133 -8.6511,-4.401852 -12.56641,-4.560547 z" />
    <path
       style="fill:#778d9f;fill-opacity:1;stroke:none;stroke-width:1px;stroke-linecap:butt;stroke-linejoin:miter;stroke-opacity:1"
       d="m 494.09086,151.23246 c 4.11908,-1.95443 13.71664,-1.05993 16.97056,0.61872 -4.57944,-4.41636 -8.85796,-9.08504 -12.02081,-15.23052 0.80248,5.24325 0.8654,9.64318 -4.94975,14.6118 z"
       id="path125054"
       sodipodi:nodetypes="cccc" />
    <path
       id="path125056"
       style="fill:#778d9f;fill-opacity:1;stroke:none;stroke-width:1px;stroke-linecap:butt;stroke-linejoin:miter;stroke-opacity:1"
       d="m 499.51367,43.677734 c 8.83315,7.549219 17.7617,24.154541 33.86133,25.369141 13.45875,1.015365 21.8214,-9.268459 22.34375,-11.359375 0.30412,-1.217373 -1.66371,-2.789778 -4.86328,-4.492188 C 541.06477,52.778802 530.97461,52.765785 529.25,52.625 526.1875,52.375 517.24372,51.90533 509,47.75 c -3.48456,-1.756427 -6.54418,-3.311465 -9.48633,-4.072266 z" />
  </g>
</svg>
