<?xml version="1.0" encoding="UTF-8" standalone="no"?>
<!-- Created with Inkscape (http://www.inkscape.org/) -->

<svg
   version="1.1"
   id="svg24625"
   width="1024"
   height="512"
   viewBox="0 0 1024 512"
   sodipodi:docname="winter_mountains2.svg"
   inkscape:version="1.1.1 (3bf5ae0d25, 2021-09-20)"
   xmlns:inkscape="http://www.inkscape.org/namespaces/inkscape"
   xmlns:sodipodi="http://sodipodi.sourceforge.net/DTD/sodipodi-0.dtd"
   xmlns="http://www.w3.org/2000/svg"
   xmlns:svg="http://www.w3.org/2000/svg">
  <defs
     id="defs24629" />
  <sodipodi:namedview
     id="namedview24627"
     pagecolor="#505050"
     bordercolor="#eeeeee"
     borderopacity="1"
     inkscape:pageshadow="0"
     inkscape:pageopacity="0"
     inkscape:pagecheckerboard="0"
     showgrid="false"
     inkscape:zoom="1.4142136"
     inkscape:cx="480.47905"
     inkscape:cy="259.86174"
     inkscape:window-width="2560"
     inkscape:window-height="1352"
     inkscape:window-x="0"
     inkscape:window-y="0"
     inkscape:window-maximized="1"
     inkscape:current-layer="g24631"
     inkscape:snap-page="false"
     inkscape:snap-intersection-paths="true" />
  <g
     inkscape:groupmode="layer"
     id="layer2"
     inkscape:label="vector"
     style="display:inline">
    <path
       style="opacity:1;fill:#21425b;fill-opacity:1;stroke:none;stroke-width:1px;stroke-linecap:butt;stroke-linejoin:miter;stroke-opacity:1"
       d="M 0,349.45407 V 502.05244 H 1024 V 349.94008 c 0,0 -9.775,-4.3952 -21.0428,-11.78579 -12.72759,-8.34812 -60.1557,-44.76103 -67.52649,-50.93332 -6.25915,-5.2414 -36.49438,-28.97377 -36.49438,-28.97377 L 861.603,240.65918 c 0,0 -12.10487,4.43445 -19.77528,10.06741 -7.67042,5.63296 -8.20123,5.9697 -12.30822,8.94577 -2.66463,1.93089 -5.3631,3.81555 -8.00214,5.78127 -1.63732,1.21958 -4.85818,3.72989 -4.85818,3.72989 0,0 -7.43071,-7.31086 -21.69289,-16.29962 -14.26217,-8.98877 -33.1985,-18.33708 -43.26591,-21.45319 -10.06742,-3.1161 -50.33708,-34.397 -50.33708,-34.397 l -31.3644,-26.23992 -55.25614,-8.17868 c 0,0 -12.92959,12.31194 -22.51687,20.49042 -11.54736,9.85053 -28.50005,28.01464 -34.84754,32.82463 -5.34146,4.04765 -44.34668,26.83013 -45.37835,27.96497 l -82.93633,-14.02247 -71.91011,-68.31461 -117.69289,9.82772 c 0,0 -10.78651,3.5955 -45.78277,30.44195 -34.99625,26.84644 -50.14675,36.83341 -75.08614,55.43071 -12.13346,9.04792 -24.516107,17.78202 -36.26917,27.31886 C 68.259188,295.98882 55.641106,309.12905 41.395917,320.31283 28.122929,330.73334 4.4562639,349.03504 0,349.45407 Z"
       id="path24731"
       sodipodi:nodetypes="ccccssccsaacsscccssccccsaaac" />
    <path
       id="path1113"
       style="opacity:1;fill:#26465f;fill-opacity:1;stroke:none;stroke-width:1px;stroke-linecap:butt;stroke-linejoin:miter;stroke-opacity:1"
       d="m 357.1543,161.55859 -117.69336,9.82813 c 0,0 -1.42332,0.63127 -3.71289,1.80078 9.93522,6.07033 20.92662,14.3137 14.3797,16.44526 -12.88389,4.19476 -33.19913,27.08558 -33.19913,27.08558 0,0 1.91783,4.76465 8.38974,10.27775 6.47191,5.51311 8.59588,14.87244 4.97417,22.17331 -3.0151,6.07799 -25.14589,14.34503 -30.38237,21.45169 0,0 -8.0895,-4.76354 -26.12696,-5.0332 -10.4058,-0.15557 -20.37502,2.15659 -25.64843,-1.19922 -3.34562,-2.12902 -2.38818,-16.0537 -1.14258,-27.83594 -2.3883,1.72586 -4.98641,3.65041 -7.34961,5.35938 -5.42233,10.56017 -14.84973,27.27912 -27.94141,42.37305 -20.374523,23.49064 -64.659036,68.49427 -70.891245,74.96618 -6.23221,6.47191 -11.655518,15.1301 -18.127428,17.52711 C 18.80395,378.21495 9.7992127,378.3737 0,379.15625 v 11.81445 c 0.88202564,-0.003 0.84348453,-0.0195 1.7382812,-0.0195 11.5056178,0 23.6699368,0.24042 26.3066408,1.19922 5.273408,1.91761 9.109375,11.98438 9.109375,11.98438 0,0 -19.415693,36.9139 -25.408203,41.22851 C 8.2346744,447.8915 4.6489809,450.14316 0,452.17773 v 49.875 h 15.695312 c 3.170415,-5.92535 23.708418,-44.35557 31.253907,-60.86132 8.1357,-17.79685 20.679124,-45.59244 18.136719,-52.03321 -2.542406,-6.44076 -16.362533,-6.82656 -21.435503,-7.2126 -3.081732,-0.23451 6.52209,-8.09232 20.716571,-23.97384 11.254434,-12.59204 23.091978,-25.25496 23.091978,-25.25496 0,0 33.899296,-36.44109 46.611326,-45.59375 11.12304,-8.00858 17.21154,-12.48312 29.06452,-12.20273 1.69328,0.0401 7.41041,-0.34601 9.1901,-0.0706 l 9.86159,2.39586 c 0,0 8.31783,5.24312 4.93457,6.65674 -4.54752,1.90008 -57.89898,67.89573 -59.83203,70.50977 -1.93305,2.61404 -27.912194,27.96098 -28.134763,36.10156 -0.368384,13.47385 27.796873,28.64453 27.796873,28.64453 0,0 -67.797329,66.10189 -73.390623,69.32227 -3.654511,2.10411 -12.908875,8.50385 -20.169922,13.57226 h 47.728516 c 1.903809,-5.6634 5.753242,-16.41117 11.59375,-24.58789 7.627219,-10.6781 42.882809,-55.76367 42.882809,-55.76367 l 34.7461,-3.05078 5.76172,10.67773 c 0,10e-6 -8.98239,48.13522 -15.93164,53.72852 -6.94926,5.59329 -23.0509,14.91511 -32.37305,16.10156 -9.32216,1.18646 -18.64453,-3.05078 -18.64453,-3.05078 l -2.71289,0.50977 1.61718,5.43554 h 89.87305 c -2.408,-15.86169 -5.28245,-46.61708 6.05274,-60.04492 15.58052,-18.45693 52.9746,-19.17578 52.9746,-19.17578 0,0 -19.66203,48.95402 -20.77343,79.2207 h 55.52929 c -0.56142,-7.90085 -1.19726,-17.64666 -1.19726,-22.89257 0,-8.38951 -15.10231,-6.71045 -21.57422,-14.38086 -6.47191,-7.67042 0.95899,-14.62203 3.5957,-22.05274 2.6367,-7.43071 0.71875,-21.8125 0.71875,-21.8125 l 21.57422,-13.42383 c 0,0 11.74523,37.87344 14.86133,42.42774 3.11611,4.55431 47.2207,3.11523 47.2207,3.11523 0,0 5.75283,25.64779 2.63672,34.9961 -1.41054,4.23164 -3.41476,9.47589 -5.18164,14.02343 h 59.23633 c -4.14357,-9.92814 -11.44609,-20.24193 -17.62109,-28.16601 -8.59241,-11.02622 -20.1964,-32.83789 -18.45704,-32.83789 l 12.46485,-5.51367 c 0,0 1.61808,3.81458 8.15039,12.46484 6.50918,8.61964 12.15744,11.35026 24.20898,25.64844 8.78334,10.42072 15.35515,21.68162 17.28906,28.40429 h 38.3711 c -10.15414,-17.24342 -18.98633,-43.50585 -18.98633,-43.50585 0,-2e-5 3.59538,-1.91783 9.58789,-6.23243 2.24719,-1.61798 4.73146,-2.39218 7.08399,-2.45117 3.92088,-0.0983 7.47843,1.79201 8.97656,5.08789 2.397,5.27341 19.65524,26.60708 29.72265,29.96289 5.99169,1.99723 37.63094,10.00552 66.11133,17.13867 h 137.68164 c -1.3989,-4.43446 -3.61693,-9.19771 -7.47851,-11.625 -8.38951,-5.27341 -24.44922,-5.7539 -24.44922,-5.7539 l 15.10156,-12.70313 c 0,0 31.4006,5.51193 37.63281,11.74414 2.76904,2.76904 6.48378,10.59357 9.81055,18.33789 h 88.93555 c -2.59256,-3.31923 -16.57872,-21.20307 -18.74805,-23.0625 -2.37291,-2.03393 -7.45898,-3.73046 -7.45898,-3.73046 l 7.71274,-16.69365 -3.30454,-24.66182 40.33984,-12.20313 5.66043,14.37899 c 1.94388,-16.98971 4.0569,-33.97942 6.56364,-50.96913 l 28.79351,34.21709 0.42264,38.89891 7.58611,5.54985 -0.21187,-57.33157 -42.66323,-48.90124 9.78041,-46.35266 -6.77929,-50.50977 -0.23633,-12.23242 2.63672,1.55859 5.75195,28.16407 21.45313,84.25585 20.375,2.39649 31.16015,64 c 0,0 -7.86025,40.98777 -8.57935,46.02148 -0.59952,4.19662 0.0949,20.88464 0.30006,27.20703 H 1024 v -50.54882 l -6.7109,-2.06641 -10.3086,-8.86914 3.3574,-28.76367 L 1024,390.33594 v -11.66406 l -5.9922,-1.38282 c 0,0 -39.34069,-29.19426 -42.9362,-33.26916 C 971.4761,339.94499 959.52148,320 959.52148,320 l -16.77929,-14.86133 c 0,0 -10.90768,-1.19815 -13.30469,-2.03711 -2.397,-0.83895 -44.58398,-33.79883 -44.58398,-33.79883 l 9.63867,-13.14843 -32.88867,-15.49414 c 0,0 -3.55744,1.34172 -7.98829,3.40429 l 3.34571,3.9043 -2.66797,18.81836 -9.58789,23.73047 -29.72461,31.64062 3.11719,19.17578 c 0,0 -22.08344,20.46313 -24.72014,24.29834 -2.63671,3.83521 -6.74088,9.13864 -6.74088,9.13864 l -22.47258,1.31888 -5.99218,18.93555 -11.0254,2.1582 c 0,0 -16.00221,-16.1001 -18.69726,-19.89453 -2.70114,-3.803 -25.37564,-39.92741 -23.73047,-40.75 11.32454,-9.70347 27.23903,-18.86694 40.98828,-28.28515 l -3.59375,-14.86133 9.34766,-2.15625 c 5.36624,7.38104 10.85828,14.68346 14.99023,22.83594 0,0 21.186,-17.11851 26.7793,-23.05079 4.13693,-4.38766 14.49353,-15.88327 21.4375,-23.56836 -2.18769,-2.01698 -8.02156,-7.20726 -19.70117,-14.56835 -10.47545,-6.60218 -23.42581,-13.35425 -33.57813,-17.73243 l 11.88477,23.96289 c 0,0 -39.42653,-1.52261 -42.06323,-3.44021 -0.96774,-0.70382 -1.6674,-5.01289 -2.23618,-12.52899 -0.56878,-7.5161 1.02725,-18.15449 0.75253,-25.24564 -9.05374,-6.35651 -14.00221,-10.03838 -19.42773,-14.17187 l 15.03515,21.11132 -1.91796,17.97657 -30.20313,5.51367 -12.94336,-8.86914 c 0,0 7.91016,-4.79386 7.91016,-6.95117 0,-2.1573 -19.89453,-38.35157 -19.89453,-38.35157 l -2.39844,7.18946 12.22656,23.25195 -17.01953,14.62109 -8.86914,29.00391 c 0,0 -8.14987,-22.77062 -10.54688,-25.88672 -2.397,-3.11611 -16.77929,-10.54687 -16.77929,-10.54687 l -2.875,-46.50196 c 0,0 -8.15076,15.58027 -10.06836,19.17578 -1.91761,3.59551 -1.67774,12.46485 -1.67774,12.46485 l -40.41601,-12.60547 c -5.16942,5.07405 -9.83746,9.60117 -12.48242,11.60547 -0.76383,0.57881 -5.02007,3.08557 -6.95118,4.3125 l 0.16407,21.13672 -33.5586,27.08593 -51.11461,25.3279 22.2318,-53.92946 -59.08594,-9.99023 z m 8.86914,10.06641 57.76758,64 c 0,0 -29.24437,46.02242 -38.11329,53.45312 -8.86891,7.43071 -11.02539,19.41602 -11.02539,19.41602 l -4.07617,1.67774 c 0,-10e-6 -0.47959,-59.92409 -3.5957,-74.06641 -3.1161,-14.14232 -23.00977,-63.04102 -23.00977,-63.04102 z m -69.27344,0.95898 11.26562,46.02344 c 0,0 3.35529,29.00359 2.39649,34.9961 -0.95881,5.99251 -18.78592,27.23504 -18.78592,27.23504 0,0 -18.03826,-7.91021 -18.33788,-16.65928 -0.17131,-5.00216 12.6737,-44.1941 12.6737,-44.1941 0,0 -7.00986,6.89126 -9.40687,10.96617 -1.1985,2.03746 -8.48343,22.24455 -14.50262,30.74176 -1.07525,1.51792 -2.58035,5.2337 1.45243,8.43465 3.34342,2.65379 9.75286,8.88396 9.75286,8.88396 0,0 -8.68762,0.47871 -13.39173,3.98433 -3.35664,2.50144 -43.17663,29.81254 -43.17663,29.81254 0,0 -11.12254,20.43452 -15.82031,31.40039 -4.6167,10.77662 -34.75453,48.97245 -36.31409,51.65555 l -27.20739,3.71555 c 0,0 -13.39751,-8.0051 -14.65089,-13.75254 -1.21545,-5.57348 19.81479,-25.07462 29.39271,-37.39257 9.8575,-12.67749 30.25378,-42.71487 29.84216,-42.81778 0,0 29.00503,-27.56415 40.03125,-36.19336 11.02621,-8.62921 20.37395,-20.61476 22.53125,-30.92188 2.15731,-10.30711 -10.21785,-9.64805 -15.49126,-19.47577 -5.27341,-9.82772 14.53228,-23.91095 14.53228,-23.91095 z m 268.22461,37.03321 51.41406,33.19922 c 0,0 -6.86388,23.84442 -15.33984,27.08593 -8.99313,3.43929 -56.12489,31.53878 -55.49024,32.24024 l -28.16601,48.7793 c 0,-10e-6 -0.3592,41.34766 -0.71875,43.98437 -0.35955,2.6367 -19.8956,17.97711 -21.69336,19.53516 -1.79775,1.55805 -14.50036,10.1875 -15.09961,10.1875 -0.59925,0 -29.72266,10.54687 -29.72266,10.54687 0,0 -2.51773,-8.50997 0.47852,-13.42383 2.99626,-4.91386 29.12305,-25.4082 29.12305,-25.4082 0,0 -0.59836,-12.34326 0.83984,-20.01367 1.4382,-7.67041 4.07422,-17.01953 4.07422,-17.01953 l -8.0293,-43.86524 c 0,0 64.11935,-45.90131 70.35156,-52.01367 6.23221,-6.11236 21.09375,-22.05273 21.09375,-22.05273 z m 107.40625,33.4375 c 0,0 14.57783,14.06659 16.78125,14.91406 2.20342,0.84747 33.58045,-9.04555 33.58045,-9.04555 3.51879,17.67107 8.20221,35.21273 12.69103,52.77602 0.4799,1.27971 -19.92952,12.34967 -24.47742,14.16417 -21.30286,8.49929 -26.32287,11.52056 -26.54015,13.29286 -0.20728,1.69073 5.93164,12.88281 5.93164,12.88281 -1.10275,-0.70891 -6.38846,21.13413 -6.10157,25.76172 0.24685,3.98177 0.16993,30.33984 0.16993,30.33984 l -15.9336,1.35547 c -7.07173,-2.76085 -12.80921,-7.21986 -18.13476,-12.20312 0,0 -11.69507,-41.69606 -12.37305,-45.08594 -0.67797,-3.38987 -34.06836,-19.66015 -34.06836,-19.66015 l -10.59342,-30.63719 c 0,0 9.34931,-7.70826 13.19861,-10.27446 3.75005,-2.50003 8.07088,-9.47329 10.59438,-14.32194 2.7119,-5.21063 14.89338,-12.01595 17.0968,-11.25106 2.13628,0.74159 5.63598,9.02572 10.55129,19.87332 4.91532,10.8476 10.05777,17.63485 14.6194,17.14056 3.20602,-0.3474 4.70372,-30.86929 5.04271,-37.14056 0.33899,-6.27127 7.96484,-12.88086 7.96484,-12.88086 z m -351.42188,14.86328 c 1.61277,0.0408 5.06216,8.14465 2.63672,24.68945 -2.42551,16.54529 -4.07214,30.68376 -7.13129,45.78213 -0.78219,3.8605 -1.63809,2.0274 -2.69683,11.50498 -1.29584,11.60006 2.09665,31.70022 -1.49885,36.25452 -3.59551,4.55432 -37.33257,25.34956 -54.591,30.86267 -17.25842,5.51311 -48.89843,16.29883 -48.89843,16.29883 l 17.01758,-29.72266 c 7.55055,-1.6779 12.28465,-7.19121 20.9738,-10.54722 8.68914,-3.356 12.02646,-1.8544 17.61799,-6.47231 7.94113,-6.55839 10.67671,-14.91787 15.60237,-27.04598 4.92566,-12.12811 8.85984,-25.01985 11.00505,-28.02478 1.54145,-2.1592 10.4717,-11.75349 16.22571,-22.07448 5.754,-10.321 10.01312,-21.24147 11.01093,-24.99658 2.49277,-9.38114 3.22014,-16.57913 2.72625,-16.50857 z M 276.375,289.19904 c 4.68071,1.14163 18.2168,6.35174 18.2168,6.35174 l 6.23242,-5.0332 c 0,0 -17.01333,18.89703 -23.73047,29.72265 -6.40985,10.33039 -17.56117,39.7664 -26.36719,44.58399 -7.7835,4.25819 -20.512,1.87141 -28.04422,8.80851 -6.71835,6.18754 -28.08979,38.17134 -32.36007,45.6036 0,0 29.00444,-80.29922 31.88085,-84.85352 1.4382,-2.27715 2.18626,0.74428 3.44493,-0.56975 1.37605,-1.43657 5.14971,-6.71753 10.63595,-7.8207 2.05555,-0.41332 11.82843,-11.72693 20.0477,-20.5066 8.21927,-8.77966 15.12944,-17.48522 20.0433,-16.28672 z m 308.73438,8.02948 c -10e-6,0 6.95012,28.28535 9.10742,31.88086 2.1573,3.5955 27.08593,15.82031 27.08593,15.82031 0,0 8.39045,15.33934 10.06836,23.00976 1.6779,7.67041 3.11524,23.25196 3.11524,23.25196 0,0 5.75393,10.06785 11.02734,15.10156 5.27341,5.0337 17.97656,13.90234 17.97656,13.90234 l 11.7461,-3.35547 10.30664,-5.99414 20.375,-20.13476 -11.26563,-19.41602 c 0.50446,-6.26944 1.10403,-12.50084 2.39649,-18.45508 l 19.89453,30.20118 c 0,0 -10.30684,29.00431 -13.90234,38.83203 -3.59551,9.82771 -6.23243,27.32617 -6.23243,27.32617 l -11.02539,17.01758 -25.4082,6.23242 -16.7793,10.06836 -36.67382,-1.91797 c -10e-6,0 -12.65667,-9.09173 -22.77149,-12.46484 -8.58245,-2.86209 -63.85699,-23.95434 -62.80273,-27.80469 l 5.99218,-5.27344 c 0,0 20.61437,-11.02613 23.73047,-14.86133 3.11611,-3.83521 -6.4707,-40.50976 -6.4707,-40.50976 l -5.27344,-25.16797 c 0,0 10.06643,-34.27826 12.70313,-39.07227 2.63671,-4.794 33.08008,-18.21679 33.08008,-18.21679 z m 263.66992,0.47851 12.94336,0.24024 2.1582,30.92187 -10.54688,28.04492 7.66993,26.84571 c 0,0 -2.77785,10.54761 -3.49695,14.38281 -0.7191,3.83521 -2.97571,14.62109 -2.97571,14.62109 l -49.37695,10.30664 -10.39857,33.26039 -10.40575,6.02215 -15.15076,-8.36066 -11.26758,-14.6211 6.95313,-10.78711 c 0,0 22.77135,-7.43095 32.35937,-11.50586 9.58801,-4.07489 31.87891,-19.41601 31.87891,-19.41601 2.51767,-10.8805 7.01325,-22.00074 7.1914,-32.59766 -5.23501,10.34531 -12.50986,20.41864 -18.81693,30.62101 0,0 -10.18592,3.47567 -17.43685,5.87268 -6.78958,2.24449 -26.06848,9.04928 -26.06848,9.04928 l 4.31445,-20.61523 c 7.68969,-0.0667 14.59322,-3.40909 21.33398,-7.42969 8.78185,-10.90749 20.15417,-21.1523 25.88672,-32.83984 l 4.55469,-9.10938 -4.55469,-16.77734 z m -460.28401,26.06792 c 0,0 27.8636,30.9813 35.53401,38.17232 7.67041,7.19101 36.19531,30.20312 36.19531,30.20312 -14.22254,10.46547 -33.76258,16.47803 -44.58399,24.20899 -2.79216,2.42796 -20.89044,-24.5448 -27.08593,-36.91407 -6.71773,-13.41191 -14.2661,-46.88957 -13.87239,-48.32951 0.86529,-3.16464 9.20867,-3.87518 13.81299,-7.34085 z m -65.13982,27.38521 c 0,0 9.8285,5.75462 14.38281,6.95312 4.55431,1.1985 8.79949,0.9896 11.53547,2.69665 5.29277,3.30229 18.49985,54.28722 18.78644,56.05899 0.28659,1.77177 0.89528,4.53601 -2.75746,7.64085 -5.9925,5.09364 -26.52387,9.72572 -36.61389,6.95028 -10.06406,-2.7683 -12.10604,-4.82144 -12.52478,-15.34091 -0.41041,-10.3101 -0.71856,-15.09961 0.24024,-15.09961 0.95881,0 9.62403,0.30072 11.20605,-3.47744 1.63713,-3.9098 -3.28346,-46.74621 -4.25488,-46.38193 z m 643.7808,67.55812 36.25043,48.4575 -18.93748,28.28516 c 0,0 -2.15625,-20.13588 -2.15625,-28.52539 0,-8.38951 -24.83391,-45.65375 -21.96639,-48.67256 2.86751,-3.01881 6.80969,0.45529 6.80969,0.45529 z"
       sodipodi:nodetypes="cccscsscssccsssccsscscccsssscssccszscsccscccssccccscccsssccscsccsccsscccssssccsccsccscccccccccccccccccccscccccccccsccscccccccccsccccscccccscsccssccccccscccccsccsccscccccccccsccsccccscscssscscsccsscsssccccsccssscscsccscccsccsscscccsccssssssccsssssccsssssscsccssscssssscscscscccccccscccccsccsccsccccccscccccccscccsccccccccsccssccsszsssssccccszc" />
  </g>
  <g
     inkscape:groupmode="layer"
     id="layer1"
     inkscape:label="a"
     style="display:inline;opacity:1">
    <path
       id="path24731-7"
       style="display:inline;opacity:1;fill:#1f3f58;fill-opacity:1;stroke:none;stroke-width:1px;stroke-linecap:butt;stroke-linejoin:miter;stroke-opacity:1"
       d="m 641.87695,166.63086 -10.34375,3.71094 24.40821,78.30468 97.62695,74.91797 64.1582,-55.19922 c -0.2595,0.20167 -1.0664,0.81836 -1.0664,0.81836 0,0 -7.43116,-7.31006 -21.69336,-16.29882 -14.2622,-8.98877 -33.19823,-18.33702 -43.26563,-21.45313 -10.06744,-3.1161 -50.33789,-34.39844 -50.33789,-34.39844 l -31.36523,-26.24023 z" />
    <path
       id="path17555"
       style="display:inline;opacity:1;fill:#23455e;fill-opacity:1;stroke:none;stroke-width:1px;stroke-linecap:butt;stroke-linejoin:miter;stroke-opacity:1"
       d="m 614.74219,162.61523 c 0,0 -12.92835,12.31176 -22.51563,20.49024 -11.54736,9.85053 -28.50016,28.01423 -34.84765,32.82422 -5.23162,3.96441 -42.00123,25.46872 -44.51172,27.43554 l -62.35352,70.70704 7.45899,50.50976 c 0,0 136.44124,79.83045 141.01757,81.52539 4.57633,1.69494 85.25586,-6.10156 85.25586,-6.10156 0,0 -24.40753,-74.40761 -24.91601,-78.81445 -0.50848,-4.40683 14.4082,-63.22146 14.4082,-66.61133 0,-3.38988 -17.11879,-74.5766 -20.84766,-87.11914 -3.72887,-12.54254 -19.32226,-41.10352 -19.32226,-41.10352 l -0.97266,-1.09961 z m -358.02539,7.33008 -17.25586,1.44141 c 0,0 -10.78695,3.59496 -45.78321,30.4414 -34.99625,26.84645 -50.14654,36.83239 -75.08593,55.42969 -12.13346,9.04792 -24.516474,17.78348 -36.269534,27.32031 -14.0634,11.41154 -26.68059,24.5506 -40.925782,35.73438 C 28.123494,330.73301 4.45626,349.03409 0,349.45312 v 1.58008 c 23.40451,14.22435 128.84153,76.55782 115.5957,92.70118 -3.44041,4.193 -21.695309,22.03515 -21.695309,22.03515 l 82.712889,15.25391 25.76172,-57.9668 7.79688,-79.49219 49.83203,-91.01953 9.83007,-27.62695 9.83008,-43.89844 z m 591.06836,77.0625 c -2.08144,1.15101 -4.15133,2.39269 -5.95704,3.71875 -7.67039,5.63296 -8.20159,5.96925 -12.30859,8.94532 -2.19301,1.58915 -4.39907,3.16032 -6.58594,4.75781 l -80.55078,76.76172 -15.76367,63.2207 13.73047,41.1875 c 0,0 62.3738,10.16919 78.13672,12.20312 15.76292,2.03392 75.25418,11.18679 80,13.22071 4.74583,2.03393 13.89844,5.2539 13.89844,5.2539 l -0.50782,-39.83007 c 0,0 4.57609,-35.59451 0.67774,-38.98438 -3.89836,-3.38988 -5.93164,-2.54297 -5.93164,-2.54297 L 887.13086,369.32617 867.29883,250.3418 Z" />
    <path
       id="path1113-9"
       style="display:inline;opacity:1;fill:#24445b;fill-opacity:1;stroke:none;stroke-width:1px;stroke-linecap:butt;stroke-linejoin:miter;stroke-opacity:1"
       d="m 668.28516,194.1582 -2.39844,7.18946 12.22656,23.25195 -17.01953,14.62109 -3.31445,10.83594 6.76562,5.19141 c 0.82016,-6.05713 7.83594,-12.19336 7.83594,-12.19336 0,0 14.57775,14.06659 16.78125,14.91406 2.2034,0.84747 33.58008,-9.04492 33.58008,-9.04492 3.5188,17.67107 8.2026,35.2121 12.6914,52.77539 0.15778,0.42072 -2.25272,2.0186 -5.30468,3.8789 l 9.05859,6.95118 c 2.17059,-1.42538 4.42552,-2.84101 6.51953,-4.27539 l -3.59375,-14.86133 9.34766,-2.15625 c 5.12574,7.0503 10.29903,14.07092 14.35937,21.78711 l 34.02539,-29.27539 c 4.88017,-5.3479 10.02117,-10.98144 14.82227,-16.29493 -2.1877,-2.01697 -8.02147,-7.20726 -19.70117,-14.56835 -10.4754,-6.60218 -23.42583,-13.35425 -33.57813,-17.73243 l 11.88477,23.96289 c 0,0 -39.4258,-1.5238 -42.0625,-3.4414 -0.9678,-0.70382 -1.66753,-5.01125 -2.23633,-12.52735 -0.5688,-7.5161 1.02665,-18.15494 0.75195,-25.24609 -9.0537,-6.35651 -14.00223,-10.03838 -19.42773,-14.17187 l 15.03515,21.11132 -1.91796,17.97657 -30.20313,5.51367 -12.94336,-8.86914 c 0,0 7.91016,-4.79386 7.91016,-6.95117 0,-2.1573 -19.89453,-38.35157 -19.89453,-38.35157 z" />
    <path
       style="display:inline;opacity:1;fill:#294a62;fill-opacity:1;stroke:none;stroke-width:1px;stroke-linecap:butt;stroke-linejoin:miter;stroke-opacity:1"
       d="m 50.119141,382.52539 c 5.187096,3.40152 10.09141,6.72895 15.205078,10.24414 0.142707,-1.51283 0.09583,-2.76492 -0.238281,-3.61133 -1.776826,-4.50128 -9.008775,-5.97939 -14.966797,-6.63281 z"
       id="path33412" />
    <path
       style="display:inline;opacity:1;fill:#294a62;fill-opacity:1;stroke:none;stroke-width:1px;stroke-linecap:butt;stroke-linejoin:miter;stroke-opacity:1"
       d="m 856.87695,248.56055 -2.58398,18.22656 -9.58789,23.73047 -29.72461,31.64062 3.11719,19.17578 c 0,0 -22.08401,20.46362 -24.72071,24.29883 -2.6367,3.83521 -6.74023,9.13867 -6.74023,9.13867 l -22.47266,1.31836 -5.99218,18.93555 -11.0254,2.1582 c 0,0 -9.42071,-9.62585 -14.82421,-15.64453 l -5.70313,22.87305 13.73047,41.1875 c 0,0 13.26643,2.14083 25.55273,4.11328 l -7.9707,-10.3418 6.95313,-10.78711 c 0,0 22.77137,-7.43095 32.35937,-11.50586 9.588,-4.07488 31.87891,-19.41601 31.87891,-19.41601 2.5177,-10.8805 7.0132,-22.00074 7.1914,-32.59766 -5.235,10.34531 -12.5094,20.41873 -18.8164,30.6211 0,0 -10.1866,3.47603 -17.4375,5.87304 -6.7896,2.24449 -26.06836,9.04883 -26.06836,9.04883 l 4.31445,-20.61523 c 7.6897,-0.0667 14.59318,-3.40909 21.33398,-7.42969 8.7818,-10.90749 20.15412,-21.1523 25.88672,-32.83984 l 4.55469,-9.10938 -4.55469,-16.77734 23.25196,-26.12891 12.94336,0.24024 2.1582,30.92187 -10.54688,28.04492 7.66993,26.84571 c 0,0 -2.777,10.54761 -3.4961,14.38281 -0.7191,3.83521 -2.97656,14.62109 -2.97656,14.62109 l -49.37695,10.30664 -9.75782,31.20899 c 8.34463,1.28446 19.0439,3.00138 23.08985,3.52343 0.12036,0.0155 0.54841,0.0852 0.67383,0.10157 l -3.2168,-24 40.33984,-12.20313 5.66016,14.37891 c 1.9439,-16.98971 4.05775,-33.97904 6.56445,-50.96875 l 28.79297,34.21679 0.42188,38.89844 7.58593,5.55078 -0.21093,-57.33203 -42.66407,-48.90234 9.78125,-46.35156 -6.77929,-50.50977 -0.20703,-10.69336 z"
       id="path33410" />
    <path
       style="display:inline;opacity:1;fill:#294a62;fill-opacity:1;stroke:none;stroke-width:1px;stroke-linecap:butt;stroke-linejoin:miter;stroke-opacity:1"
       d="m 622.02344,185.28906 c 0,0 -8.15076,15.58027 -10.06836,19.17578 -1.9176,3.59551 -1.67774,12.46485 -1.67774,12.46485 l -40.41601,-12.60547 c -5.1694,5.07405 -9.83752,9.60117 -12.48242,11.60547 -0.7639,0.57881 -5.02008,3.08557 -6.95118,4.3125 l 0.16407,21.13672 -33.5586,27.08593 -46.71289,23.14649 -19.80664,22.46094 7.45899,50.50976 c 0,0 16.35986,9.5355 22.46875,13.10547 0.0655,-0.43309 0.0815,-0.94833 0.1582,-1.35742 1.4382,-7.67041 4.07422,-17.01953 4.07422,-17.01953 l -8.0293,-43.86524 c 0,0 64.11936,-45.90131 70.35156,-52.01367 6.2322,-6.11236 21.09375,-22.05273 21.09375,-22.05273 l -3.11523,-31.76172 51.41406,33.19922 c 0,0 -6.86394,23.84442 -15.33984,27.08593 -8.9932,3.43929 -56.12484,31.53878 -55.49024,32.24024 l -28.16601,48.7793 c 0,-10e-6 -0.35925,41.34766 -0.71875,43.98437 -0.06,0.44027 -1.23973,1.60939 -2.19727,2.63477 14.47496,8.43325 22.65601,13.16934 36.86719,21.40039 1.68409,-6.84705 -6.74414,-39.25586 -6.74414,-39.25586 l -5.27344,-25.16797 c 0,0 10.06643,-34.27826 12.70313,-39.07227 2.6367,-4.794 33.08007,-18.21679 33.08008,-18.21679 0,0 6.95012,28.28535 9.10742,31.88086 2.1573,3.5955 27.08593,15.82031 27.08593,15.82031 0,0 8.39046,15.33934 10.06836,23.00976 1.6779,7.67041 3.11524,23.25196 3.11524,23.25196 0,0 5.75394,10.06785 11.02734,15.10156 5.2734,5.0337 17.97656,13.90234 17.97656,13.90234 l 11.7461,-3.35547 1.24609,-0.72461 c -2.2411,-6.89251 -2.84926,-8.74182 -5.44922,-16.83593 l -2.55078,0.21679 c -7.0718,-2.76085 -12.80926,-7.21986 -18.13476,-12.20312 0,0 -11.69505,-41.69606 -12.37305,-45.08594 -0.6779,-3.38987 -34.06836,-19.66015 -34.06836,-19.66015 L 593.3125,291.91016 c 0,0 9.34992,-7.70919 13.19922,-10.27539 3.75,-2.50003 8.07025,-9.47362 10.59375,-14.32227 2.7119,-5.21063 14.89415,-12.01489 17.09765,-11.25 2.13621,0.74159 5.63549,9.02545 10.55079,19.87305 4.9154,10.8476 10.05754,17.63491 14.61914,17.14062 3.2061,-0.3474 4.70397,-30.86935 5.04297,-37.14062 0.0275,-0.50873 0.16972,-1.01788 0.28515,-1.52735 -1.49543,-6.23489 -2.25663,-8.83991 -3.72461,-14.80468 l -8.75195,28.62109 c 0,0 -8.14988,-22.77062 -10.54688,-25.88672 -2.397,-3.11611 -16.77929,-10.54687 -16.77929,-10.54687 z"
       id="path33408" />
    <path
       style="display:inline;opacity:1;fill:#294a62;fill-opacity:1;stroke:none;stroke-width:1px;stroke-linecap:butt;stroke-linejoin:miter;stroke-opacity:1"
       d="m 256.7168,169.94531 -17.25586,1.44141 c 0,0 -1.42332,0.63127 -3.71289,1.80078 9.93522,6.07033 20.92582,14.31375 14.3789,16.44531 -12.88389,4.19476 -33.19922,27.08594 -33.19922,27.08594 0,0 1.91872,4.76424 8.39063,10.27734 6.47191,5.51311 8.59632,14.87296 4.97461,22.17383 -3.0151,6.07799 -25.14633,14.34451 -30.38281,21.45117 0,0 -8.0895,-4.76354 -26.12696,-5.0332 -10.4058,-0.15557 -20.37502,2.15659 -25.64843,-1.19922 -3.34562,-2.12902 -2.38818,-16.0537 -1.14258,-27.83594 -2.3883,1.72586 -4.98641,3.65041 -7.34961,5.35938 -5.42233,10.56017 -14.84973,27.27912 -27.94141,42.37305 -20.37452,23.49064 -64.658413,68.49488 -70.890623,74.96679 -3.366795,3.49629 -6.505856,7.5575 -9.693359,10.99805 4.431438,2.78695 8.943288,5.74763 13.61914,8.77344 2.88681,-3.51932 10.016594,-10.29581 19.63086,-21.05274 11.254429,-12.59204 23.091796,-25.2539 23.091796,-25.2539 0,0 33.899296,-36.44109 46.611326,-45.59375 11.12304,-8.00858 17.21148,-12.48352 29.06446,-12.20313 1.69328,0.0401 7.40976,-0.34572 9.18945,-0.0703 l 9.86133,2.39648 c 0,0 8.3188,5.24263 4.93554,6.65625 -4.54752,1.90008 -57.89898,67.89573 -59.83203,70.50977 -1.93305,2.61404 -27.912193,27.96098 -28.134763,36.10156 -0.36839,13.47385 27.796873,28.64453 27.796873,28.64453 0,0 -9.46469,9.13556 -13.86133,13.4043 3.32638,4.67092 4.62065,8.59448 2.50586,11.17188 -3.44041,4.193 -21.695309,22.03515 -21.695309,22.03515 l 6.773439,1.25 c 12.53542,-16.57098 34.92187,-45.31836 34.92187,-45.31836 l 34.7461,-3.05078 5.76172,10.67773 c 0,1e-5 -6.70106,35.81545 -13.00586,49.20313 l 13.51562,2.49219 25.76172,-57.9668 2.56055,-26.09961 c -6.39896,9.28768 -12.56896,18.72123 -14.61328,22.2793 0,0 8.61738,-23.79808 16.97656,-46.37695 l 2.87305,-29.29493 23.11132,-42.21289 c -7.4328,5.1092 -16.59375,11.45703 -16.59375,11.45703 0,0 -11.12254,20.43452 -15.82031,31.40039 -4.6167,10.77662 -34.75489,48.9712 -36.31445,51.6543 l -27.20703,3.7168 c 0,0 -13.39701,-8.00451 -14.65039,-13.75196 -1.21545,-5.57348 19.81465,-25.07462 29.39257,-37.39257 9.8575,-12.67749 30.25342,-42.71545 29.8418,-42.81836 0,0 29.00503,-27.56415 40.03125,-36.19336 11.02621,-8.62921 20.37395,-20.61476 22.53125,-30.92188 2.15731,-10.30711 -10.21878,-9.64884 -15.49219,-19.47656 -5.27341,-9.82772 14.53321,-23.91016 14.53321,-23.91016 l 34.80273,-14.73632 z"
       id="path17557" />
    <path
       style="fill:#21425b;fill-opacity:1;stroke:none;stroke-width:1px;stroke-linecap:butt;stroke-linejoin:miter;stroke-opacity:1"
       d="m 664.98434,255.58593 -9.04293,-6.93945 -0.53856,-32.0784 z"
       id="path28286"
       sodipodi:nodetypes="cccc" />
    <path
       id="path37564"
       style="display:inline;opacity:1;fill:#26475f;fill-opacity:1;stroke:none;stroke-width:1px;stroke-linecap:butt;stroke-linejoin:miter;stroke-opacity:1"
       d="m 660.97656,239.60352 -3.19726,10.45312 6.76562,5.19141 c 0.0552,-0.27538 0.0916,-0.55059 0.1543,-0.82617 l -0.25,-1.01758 c -1.3074,-5.38328 -2.10421,-8.24043 -3.47266,-13.80078 z" />
  </g>
  <g
     inkscape:groupmode="layer"
     id="layer3"
     inkscape:label="tops"
     style="display:inline">
    <path
       id="path40446"
       style="opacity:1;fill:#516b7f;fill-opacity:1;stroke:none;stroke-width:1px;stroke-linecap:butt;stroke-linejoin:miter;stroke-opacity:1"
       d="m 325.41016,121.46094 c -7.6275,-0.31075 -18.87206,2.21968 -34.88672,10.13281 C 269.27344,142.09375 226.5,168 212,179.25 c -14.5,11.25 -20.02301,19.19329 -17.75,23.21875 2.34713,4.15673 7.4375,7.0026 14.1875,6.40625 6.91591,-0.61101 15.9375,-4.875 19.9375,-10.375 4,-5.5 6.125,-8.25 6.125,-8.25 0,0 5.53125,15.05469 9.9375,15.64844 4.40625,0.59375 7.15625,-4.36719 9.78125,-4.14844 2.625,0.21875 2.17188,0.44531 4.70313,0.69531 2.53124,0.25 5.70312,0.0547 5.70312,0.0547 0,0 -0.96875,2.3125 -1.4375,2.78125 -0.46875,0.46875 -3.01758,3.4707 -3.64258,6.7207 -0.625,3.25 -2.45508,14.59375 5.23242,15.96875 7.6875,1.375 10.28516,-15.3457 10.28516,-15.3457 0,0 1.8125,-11.37847 4.78125,-13.09375 2.91753,-1.68569 5.16705,-1.41305 6.91797,3.79492 2.08285,6.19528 2.93945,16.46485 5.0332,20.9336 2.09375,4.46875 9.70508,15.49023 14.51758,15.55273 4.8125,0.0625 9.125,-7.0625 9.625,-9.03125 0.5,-1.96875 0,-11.5625 0,-13.625 0,-2.0625 0.875,-6.34375 2.53125,-5.375 1.65625,0.96875 2.9375,2.53125 4.375,8.5625 1.4375,6.03125 3.5625,8.78125 5.96875,9.875 2.40625,1.09375 6.9375,-0.65625 10.5,-5.71875 3.5625,-5.0625 5.03125,-18.09375 5.03125,-18.09375 0,0 1.44659,4.27406 3.84375,7.3125 2.91448,3.69416 3.71499,5.50895 5.19922,9.14648 1.78478,4.37408 1.58594,8.71485 4.49219,12.27735 2.90625,3.5625 6.08789,6.99609 9.65039,6.62109 3.5625,-0.375 6.2207,-2.85742 6.25195,-6.79492 0.0312,-3.9375 -0.90625,-6.46875 -2.3125,-7.5625 -1.40625,-1.09375 -3.875,-1.53125 -5.25,-3.65625 -1.375,-2.125 -3.28125,-9.1875 -3.96875,-12.875 -0.6875,-3.6875 -2.8125,-10.78125 -3.09375,-13.34375 -0.28125,-2.5625 -0.625,-8.53125 0.4375,-8.71875 1.0625,-0.1875 4.21875,2.40625 6.3125,7.375 2.09375,4.96875 6.03125,23.5 6.65625,26.25 0.625,2.75 4.24007,14.24612 9.1875,18.59375 5.19194,4.5625 12.54102,10.88086 16.13477,11.94336 3.59375,1.0625 5.20898,0.11914 5.20898,0.11914 0,0 -7.04253,8.25026 -8.35937,10.04687 -3.81327,5.2025 -10.36915,14.18946 -12.0254,16.56446 -1.65625,2.375 -5.76476,7.92836 -6.27148,11.79492 -0.3138,2.3945 -0.0977,7.2793 4.55859,8.68555 4.65625,1.40625 8.53696,-2.92879 8.96094,-8.23828 0.43155,-5.40444 7.26088,-9.28615 9.79297,-9.35352 5.1829,-0.13789 9.05886,0.42191 14.6875,3.75 6.37316,3.76831 11.39329,8.83484 16.68359,10.01367 5.85198,1.304 12.57354,0.94402 19.75391,-0.95117 10.52795,-2.77876 13.3125,3.6875 13.3125,3.6875 L 512.625,243.3125 438.5,220.125 c -14.37924,-10.15745 -29.70179,-18.26178 -43.125,-30.5 0.71691,-0.28676 -22.93137,-28.40245 -28.5,-32.75 -5.53953,-4.32483 -28.85984,-32.0417 -35,-34.25 -1.78125,-0.64062 -3.92234,-1.06048 -6.46484,-1.16406 z M 383.1875,203.5 l 14.5,28.59375 -10.71875,-9.875 c 1.47333,-4.0316 -2.62391,-11.67257 -3.78125,-18.71875 z" />
    <path
       id="path47532"
       style="fill:#476276;fill-opacity:1;stroke:none;stroke-width:1px;stroke-linecap:butt;stroke-linejoin:miter;stroke-opacity:1"
       d="m 325.42188,121.46289 c 8.91433,3.09839 6.93812,9.22518 5.64062,13.94336 -1.375,5 -11.5625,18.65625 -16.1875,23.28125 -4.625,4.625 -12.68848,6.09714 -19.55078,12.35352 -6.92337,6.31207 -10.62736,18.12162 -14.38281,21.32226 -5.12219,4.36544 -8.50391,9.57422 -11.44141,16.76172 -1.87164,4.57956 -2.84346,13.08662 -3.34766,18.90039 6.62545,-0.69376 8.91016,-15.40039 8.91016,-15.40039 0,0 1.8125,-11.37847 4.78125,-13.09375 2.91753,-1.68569 5.16705,-1.41305 6.91797,3.79492 2.08285,6.19528 2.93945,16.46485 5.0332,20.9336 2.09375,4.46875 9.70508,15.49023 14.51758,15.55273 4.8125,0.0625 9.125,-7.0625 9.625,-9.03125 0.5,-1.96875 0,-11.5625 0,-13.625 0,-2.0625 0.875,-6.34375 2.53125,-5.375 1.65625,0.96875 2.9375,2.53125 4.375,8.5625 1.4375,6.03125 3.5625,8.78125 5.96875,9.875 2.40625,1.09375 6.9375,-0.65625 10.5,-5.71875 3.5625,-5.0625 5.03125,-18.09375 5.03125,-18.09375 0,0 1.44659,4.27406 3.84375,7.3125 2.91448,3.69416 3.71499,5.50895 5.19922,9.14648 1.78478,4.37408 1.58594,8.71485 4.49219,12.27735 2.90625,3.5625 6.08789,6.99609 9.65039,6.62109 3.5625,-0.375 6.2207,-2.85742 6.25195,-6.79492 0.0312,-3.9375 -0.90625,-6.46875 -2.3125,-7.5625 -1.40625,-1.09375 -3.875,-1.53125 -5.25,-3.65625 -1.375,-2.125 -3.28125,-9.1875 -3.96875,-12.875 -0.6875,-3.6875 -2.8125,-10.78125 -3.09375,-13.34375 -0.28125,-2.5625 -0.625,-8.53125 0.4375,-8.71875 1.0625,-0.1875 4.21875,2.40625 6.3125,7.375 2.09375,4.96875 6.03125,23.5 6.65625,26.25 0.625,2.75 4.24007,14.24612 9.1875,18.59375 5.19194,4.5625 12.54102,10.88086 16.13477,11.94336 3.59375,1.0625 5.20898,0.11914 5.20898,0.11914 0,0 -7.04253,8.25027 -8.35937,10.04687 -3.81327,5.2025 -10.36915,14.18946 -12.0254,16.56446 -1.65625,2.375 -5.76476,7.92836 -6.27148,11.79492 -0.3138,2.3945 -0.0977,7.2793 4.55859,8.68555 4.65625,1.40625 8.53696,-2.92879 8.96094,-8.23828 0.43155,-5.40444 7.26088,-9.28615 9.79297,-9.35352 5.1829,-0.13789 9.05886,0.42191 14.6875,3.75 6.37316,3.76831 11.39329,8.83484 16.68359,10.01367 5.85198,1.304 12.57354,0.94402 19.75391,-0.95117 10.52795,-2.77876 13.3125,3.6875 13.3125,3.6875 L 512.625,243.3125 438.5,220.125 c -14.37924,-10.15745 -29.70179,-18.26178 -43.125,-30.5 0.71691,-0.28676 -22.93137,-28.40245 -28.5,-32.75 -5.53953,-4.32483 -28.85984,-32.0417 -35,-34.25 -1.77826,-0.63955 -3.91623,-1.05764 -6.45312,-1.16211 z m 33.74414,52.13086 c 0,0 5.70033,1.68008 8.9707,7.16016 3.27037,5.48008 9.90039,20.77148 9.90039,20.77148 0,0 1.32334,-2.7721 2.69336,-1.62305 1.37002,1.14905 2.45703,3.59766 2.45703,3.59766 l 14.5,28.59375 -10.71875,-9.875 c 0,0 -9.62088,-7.11741 -10.56641,-8.84961 -0.92244,-1.68991 -16.63474,-39.95586 -17.23632,-39.77539 z m -32.25586,26.64844 c 0,0 3.74609,8.25781 4.80859,11.50781 1.0625,3.25 0.92064,13.2883 -3.9375,10.71875 -4.51112,-2.38601 0.5193,-16.87048 -0.87109,-22.22656 z" />
    <path
       style="opacity:1;fill:#516b7f;fill-opacity:1;stroke:none;stroke-width:1px;stroke-linecap:butt;stroke-linejoin:miter;stroke-opacity:1"
       d="m 659.02353,171.56178 c 0,0 11.49048,11.84404 12.55114,12.37437 1.06066,0.53033 8.92723,-3.27037 8.75045,-5.03813 -0.17678,-1.76777 -17.05895,-17.41251 -20.5061,-20.06416 -3.44714,-2.65165 -18.38477,-14.93763 -21.2132,-15.11441 -2.82843,-0.17677 -5.74524,0.97228 -7.07107,3.27037 -1.32583,2.2981 -5.12652,4.86136 -7.15946,6.45235 -2.03293,1.59099 -9.104,6.80591 -11.04854,9.36917 -1.94454,2.56326 -4.24264,5.03813 -2.56326,7.15945 1.67938,2.12132 5.56846,0.88389 7.24784,0.17678 1.67938,-0.70711 4.50781,-1.85615 4.24264,-0.35355 -0.26516,1.5026 -2.91681,10.6066 -2.74004,13.34664 0.17678,2.74004 0.53033,3.8007 2.2981,5.21491 1.76777,1.41421 6.8059,1.67938 8.83884,-3.0052 2.03293,-4.68459 6.09879,-13.61181 7.15945,-13.43503 1.06066,0.17677 7.07107,14.14213 14.05375,15.29118 6.98268,1.14905 15.11441,-1.5026 15.11441,-1.5026 z"
       id="path871" />
    <path
       style="opacity:1;fill:#516b7f;fill-opacity:1;stroke:none;stroke-width:1px;stroke-linecap:butt;stroke-linejoin:miter;stroke-opacity:1"
       d="m 899.88178,256.23782 c -5.90724,-5.95343 -10.14205,-10.62726 -13.96537,-13.78858 -4.29838,-3.55412 -4.59619,-4.86136 -9.36916,-9.01561 -4.77297,-4.15425 -6.98268,-6.01041 -8.3085,-6.01041 -1.32583,0 -9.30287,6.828 -11.51258,9.12609 -2.20971,2.2981 -12.57325,11.55678 -13.63391,12.70583 -1.06066,1.14905 -1.70148,2.85053 -0.11049,3.8228 1.59099,0.97227 6.45236,-0.26517 8.22013,-0.35356 1.76776,-0.0884 3.12332,0.43156 2.05502,3.20409 -1.06007,2.75116 -1.01482,9.19811 -0.88388,13.34663 0.13672,4.33158 1.28163,7.02688 3.13779,8.17593 1.85615,1.14904 5.59499,0.99561 7.95495,-5.63476 2.32019,-6.51864 1.32582,-12.26388 5.12652,-14.78295 2.22738,-1.47628 7.6014,6.18718 8.83884,8.13173 1.23743,1.94454 2.91681,5.65685 3.88908,11.66726 0.97227,6.01041 5.83363,12.81631 8.30851,13.16986 2.47487,0.35355 4.59619,-0.0884 4.33103,-3.8007 -0.26517,-3.71231 -1.76777,-14.4073 -0.35356,-16.52862 1.41422,-2.12132 4.15426,-0.0884 6.27558,-0.79549 2.12132,-0.70711 6.27557,-3.62393 6.27557,-4.77297 0,-1.14905 -5.24505,-6.82799 -6.27557,-7.86657 z"
       id="path873"
       sodipodi:nodetypes="sssssssssssssssssssss" />
    <path
       id="path4207"
       style="fill:#476276;fill-opacity:1;stroke:none;stroke-width:1px;stroke-linecap:butt;stroke-linejoin:miter;stroke-opacity:1"
       d="m 637.54492,143.71484 c -0.89674,0.0482 -1.77526,0.24143 -2.59375,0.54688 6.07336,0.48614 11.45548,10.14358 16.42774,18.15234 5.83719,9.4019 2.63032,7.97607 0.2207,15.33399 -1.37093,4.18622 -0.29753,7.33897 1.66601,9.63672 6.62364,0.62848 13.7129,-1.68164 13.7129,-1.68165 l -7.95508,-14.14062 c 0,0 11.49012,11.84272 12.55078,12.37305 1.06066,0.53033 8.92678,-3.26935 8.75,-5.03711 -0.17678,-1.76777 -17.05871,-17.41281 -20.50586,-20.06446 -3.44714,-2.65165 -18.38446,-14.93845 -21.21289,-15.11523 -0.35355,-0.0221 -0.70751,-0.0229 -1.06055,-0.004 z" />
    <path
       id="path4755"
       style="fill:#476276;fill-opacity:1;stroke:none;stroke-width:1px;stroke-linecap:butt;stroke-linejoin:miter;stroke-opacity:1"
       d="m 869.06641,227.62891 c 3.50841,6.92032 8.10924,17.12758 7.92187,18.00195 -0.26516,1.23744 -5.12511,4.06533 -4.06445,4.94922 1.06066,0.88388 9.01493,6.4532 10.87109,10.2539 1.6308,3.33927 8.64679,18.75032 9.48828,28.37891 0.51227,-0.59865 0.78027,-1.54886 0.67578,-3.01172 -0.26517,-3.71231 -1.76772,-14.40798 -0.35351,-16.52929 1.41422,-2.12133 4.15407,-0.0878 6.27539,-0.79493 2.12132,-0.70711 6.27734,-3.62439 6.27734,-4.77343 0,-1.14905 -5.24682,-6.82666 -6.27734,-7.86524 -5.90724,-5.95343 -10.14152,-10.62774 -13.96484,-13.78906 -4.29838,-3.55412 -4.59617,-4.86138 -9.36914,-9.01563 -3.9125,-3.40532 -6.08769,-5.24431 -7.48047,-5.80468 z m -2.87696,29.28711 c -1.03062,-0.16832 -2.08329,0.68124 -2.8125,3.83007 -1.4552,6.28382 -2.51614,13.40639 -9.55078,14.89063 0.46553,0.79774 1.02878,1.40788 1.68555,1.81445 1.85615,1.14904 5.59316,0.99561 7.95312,-5.63476 2.11335,-5.93752 1.48862,-11.22472 4.23047,-14.02539 -0.46654,-0.44174 -0.98311,-0.78963 -1.50586,-0.875 z" />
  </g>
  <g
     inkscape:groupmode="layer"
     inkscape:label="Image"
     id="g24631"
     sodipodi:insensitive="true"
     style="display:none" />
</svg>
