<?xml version="1.0" encoding="UTF-8" standalone="no"?>
<!-- Created with Inkscape (http://www.inkscape.org/) -->

<svg
   width="256"
   height="128"
   viewBox="0 0 256 128"
   version="1.1"
   id="svg1"
   xml:space="preserve"
   inkscape:version="1.3 (0e150ed, 2023-07-21)"
   sodipodi:docname="beast.svg"
   inkscape:export-xdpi="96"
   inkscape:export-ydpi="96"
   xmlns:inkscape="http://www.inkscape.org/namespaces/inkscape"
   xmlns:sodipodi="http://sodipodi.sourceforge.net/DTD/sodipodi-0.dtd"
   xmlns="http://www.w3.org/2000/svg"
   xmlns:svg="http://www.w3.org/2000/svg"><sodipodi:namedview
     id="namedview1"
     pagecolor="#8b8b8b"
     bordercolor="#999999"
     borderopacity="1"
     inkscape:showpageshadow="0"
     inkscape:pageopacity="0"
     inkscape:pagecheckerboard="0"
     inkscape:deskcolor="#d1d1d1"
     inkscape:document-units="px"
     inkscape:zoom="2.8284273"
     inkscape:cx="191.0956"
     inkscape:cy="147.0782"
     inkscape:window-width="1392"
     inkscape:window-height="1027"
     inkscape:window-x="528"
     inkscape:window-y="25"
     inkscape:window-maximized="0"
     inkscape:current-layer="layer1" /><defs
     id="defs1"><inkscape:path-effect
       effect="spiro"
       id="path-effect65"
       is_visible="true"
       lpeversion="1" /><inkscape:path-effect
       effect="spiro"
       id="path-effect64"
       is_visible="true"
       lpeversion="1" /><inkscape:path-effect
       effect="spiro"
       id="path-effect62"
       is_visible="true"
       lpeversion="1" /><inkscape:path-effect
       effect="spiro"
       id="path-effect61"
       is_visible="true"
       lpeversion="1" /><inkscape:path-effect
       effect="spiro"
       id="path-effect59"
       is_visible="true"
       lpeversion="1" /><inkscape:path-effect
       effect="spiro"
       id="path-effect57"
       is_visible="true"
       lpeversion="1" /><inkscape:path-effect
       effect="spiro"
       id="path-effect55"
       is_visible="true"
       lpeversion="1" /><inkscape:path-effect
       effect="spiro"
       id="path-effect53"
       is_visible="true"
       lpeversion="1" /><inkscape:path-effect
       effect="spiro"
       id="path-effect51"
       is_visible="true"
       lpeversion="1" /><inkscape:path-effect
       effect="spiro"
       id="path-effect49"
       is_visible="true"
       lpeversion="1" /><inkscape:path-effect
       effect="spiro"
       id="path-effect47"
       is_visible="true"
       lpeversion="1" /><inkscape:path-effect
       effect="spiro"
       id="path-effect45"
       is_visible="true"
       lpeversion="1" /><inkscape:path-effect
       effect="spiro"
       id="path-effect43"
       is_visible="true"
       lpeversion="1" /><inkscape:path-effect
       effect="spiro"
       id="path-effect33"
       is_visible="true"
       lpeversion="1" /><inkscape:path-effect
       effect="spiro"
       id="path-effect32"
       is_visible="true"
       lpeversion="1" /><inkscape:path-effect
       effect="spiro"
       id="path-effect30"
       is_visible="true"
       lpeversion="1" /><inkscape:path-effect
       effect="spiro"
       id="path-effect28"
       is_visible="true"
       lpeversion="1" /><inkscape:path-effect
       effect="spiro"
       id="path-effect27"
       is_visible="true"
       lpeversion="1" /><inkscape:path-effect
       effect="spiro"
       id="path-effect26"
       is_visible="true"
       lpeversion="1" /><inkscape:path-effect
       effect="spiro"
       id="path-effect25"
       is_visible="true"
       lpeversion="1" /><inkscape:path-effect
       effect="spiro"
       id="path-effect24"
       is_visible="true"
       lpeversion="1" /><inkscape:path-effect
       effect="spiro"
       id="path-effect23"
       is_visible="true"
       lpeversion="1" /><inkscape:path-effect
       effect="spiro"
       id="path-effect22"
       is_visible="true"
       lpeversion="1" /><inkscape:path-effect
       effect="spiro"
       id="path-effect20"
       is_visible="true"
       lpeversion="1" /><inkscape:path-effect
       effect="spiro"
       id="path-effect19"
       is_visible="true"
       lpeversion="1" /><inkscape:path-effect
       effect="spiro"
       id="path-effect17"
       is_visible="true"
       lpeversion="1" /><inkscape:path-effect
       effect="spiro"
       id="path-effect15"
       is_visible="true"
       lpeversion="1" /><inkscape:path-effect
       effect="spiro"
       id="path-effect14"
       is_visible="true"
       lpeversion="1" /><inkscape:path-effect
       effect="spiro"
       id="path-effect13"
       is_visible="true"
       lpeversion="1" /><rect
       x="5.75"
       y="98.25"
       width="50.125"
       height="25.25"
       id="rect13" /><rect
       x="1.3468461"
       y="85.075775"
       width="40.107632"
       height="19.433881"
       id="rect5694" /></defs><g
     inkscape:label="Layer 1"
     inkscape:groupmode="layer"
     id="layer1"
     style="display:inline"><path
       id="path5694"
       style="display:inline;fill:#000000;fill-opacity:1;stroke-width:1.16234;stroke-linecap:round;stroke-linejoin:round"
       d="m 173.83613,49.358297 c 0.36463,1.051282 0.73329,2.512793 0.73654,4.666508 0.003,1.891809 -0.27619,3.356821 -0.73061,5.412793 -0.45446,2.055969 -1.21259,4.91593 -1.21259,4.91593 0,0 -0.27723,-1.448085 -0.45837,-2.052537 -0.18116,-0.604452 -0.74752,-1.494815 -0.74752,-1.494815 0,0 0.10663,1.533765 -0.76573,3.911123 -0.87235,2.377359 -1.50632,3.243705 -2.24111,4.366652 -1.01406,1.549772 -3.12884,3.940036 -3.12884,3.940036 0,0 -0.0709,-1.326165 -0.21615,-2.049077 -0.14525,-0.722912 -0.61494,-1.574125 -0.61494,-1.574125 0,0 0.1293,1.202993 -0.44888,2.290677 -0.57815,1.08768 -1.02333,1.942494 -2.74402,3.832712 -2.07783,2.128309 -2.8473,2.304663 -2.8473,2.304663 0,0 -0.21218,-1.065797 -0.4444,-2.069651 -0.18153,-0.784724 -0.50254,-1.387838 -0.50254,-1.387838 0,0 -0.19491,0.992349 -0.65974,1.787618 -0.33215,0.568293 -0.6845,1.301927 -2.22733,2.718623 -1.54284,1.416695 -2.82136,1.724197 -2.82136,1.724197 0,0 -0.4612,-0.943953 -0.64426,-1.347372 -0.18304,-0.403415 -0.59292,-0.755679 -0.59292,-0.755679 l -2.58986,3.12296 -2.72956,-2.541184 -0.48332,3.623705 c 0,0 -1.67815,-0.610346 -3.3599,-1.407394 -1.3168,-0.624083 -2.64347,-1.424045 -3.11744,-1.726675 -1.0793,-0.689135 -3.05546,-2.66257 -3.05546,-2.66257 0,0 -0.0387,1.000381 0.1941,1.495384 0.22184,0.471757 0.58253,1.285353 0.58253,1.285353 0,0 -1.11473,-0.117335 -2.64854,-0.691814 -1.23103,-0.461077 -2.77599,-1.06021 -5.24574,-3.232473 -2.74753,-2.410353 -2.5636,-3.907814 -2.5636,-3.907814 0,0 -0.41867,0.425319 -0.48754,0.748458 -0.11265,0.528612 -0.0689,1.253283 -0.0913,1.696716 -0.036,0.714501 -0.23542,1.575014 -0.23542,1.575014 0,0 -1.86719,-1.772676 -3.30782,-3.784715 -1.23453,-1.724196 -2.35226,-2.911863 -3.82493,-6.816837 -1.47267,-3.904974 -1.51638,-5.304025 -1.72488,-6.942019 -0.23865,-1.874965 -0.43672,-3.050999 -0.43672,-3.050999 0,0 -1.16568,0.320821 -1.3948,1.374169 -0.26045,1.197381 -0.4822,2.167885 -0.4822,2.167885 0,0 -0.65772,-2.521566 -0.80042,-3.574306 -0.16835,-1.242059 -0.62784,-2.856298 -0.17371,-7.442701 0.2954,-3.237221 1.08997,-5.763117 2.95632,-9.238679 1.86636,-3.475562 4.83979,-6.24331 4.83979,-6.24331 l -4.98108,3.372726 c 0,0 0.32357,-1.528417 2.58518,-4.554346 2.26161,-3.025929 3.6544,-4.566775 7.16144,-6.923986 3.50704,-2.35721 5.5983,-3.028669 7.36195,-3.561235 2.07985,-0.628048 2.77661,-0.650215 4.78874,-0.863082 0.37367,-0.03953 1.35143,-0.809413 1.69899,-1.878356 0.0565,-0.173802 0.15638,-0.856637 0.12549,-1.766089 -0.0279,-0.81995 -0.18426,-1.883518 -0.18426,-1.883518 0,0 1.2395,0.777828 1.62721,1.620749 0.14489,0.314989 0.5172,0.874482 0.6285,1.451758 0.18654,0.967534 0.0471,2.201859 0.0471,2.201859 l 1.49435,-0.156038 c 0,0 0.81727,-1.801285 1.82405,-2.276494 0.29925,-0.141247 0.66119,-0.338127 1.32509,-0.460853 0.52627,-0.09728 1.442,-0.213436 2.08929,-0.167984 0.91631,0.06434 1.81664,0.566372 1.81664,0.566372 0,0 -1.89597,0.635446 -2.55666,0.91998 -0.48388,0.208385 -0.58666,0.479519 -0.59053,0.518567 -0.0229,0.231646 0.32603,0.661619 0.49548,0.772295 0.12195,0.07965 0.49927,0.0055 2.65851,0.205182 2.15923,0.199647 4.54178,0.651366 6.76834,1.457142 2.22656,0.805777 2.57294,1.057012 3.67997,1.66667 1.10703,0.609658 1.82438,1.105775 4.37022,3.444765 2.54584,2.33899 3.60335,4.135027 3.60335,4.135027 0,0 -2.2171,-1.216876 -2.6633,-1.292225 -0.44621,-0.07535 -1.40989,-0.05044 -1.40989,-0.05044 0,0 1.10494,0.885519 2.60059,2.04662 1.49566,1.161101 1.9769,1.825912 3.55224,4.019051 1.57534,2.193139 2.31257,3.136172 3.56379,6.051836 1.41958,2.999841 1.37137,3.350011 1.60062,4.187457 0.57196,2.089334 1.14495,4.694701 1.14495,4.694701 0,0 -1.35791,-1.82802 -2.1915,-2.541939 -1.05374,-0.902464 -1.83682,-1.033328 -1.83682,-1.033328 0.19513,-0.01834 0.92957,2.059287 1.2942,3.110569 z"
       sodipodi:nodetypes="zszczcczczczccscscczccccsscscsccsscszscscsccccccsssscssccssscssscczcczccccscsczz"
       inkscape:label="Body" /><text
       xml:space="preserve"
       transform="matrix(0.84965799,0,0,1.3940611,192.52335,-16.261156)"
       id="text5694"
       style="font-size:7.64193px;font-family:sans-serif;-inkscape-font-specification:sans-serif;text-align:center;white-space:pre;shape-inside:url(#rect5694);display:inline;fill:#d6d6d6;fill-opacity:1;stroke:none;stroke-width:1.217;stroke-linecap:round;stroke-linejoin:round"
       x="19.337158"
       y="0"><tspan
         x="5.8936223"
         y="92.048136"
         id="tspan2">Remade </tspan><tspan
         x="7.0335684"
         y="101.60055"
         id="tspan3">by +KZ</tspan></text><g
       id="g3"
       inkscape:label="Normal eye"
       style="display:inline"
       sodipodi:insensitive="true"><path
         id="path3"
         style="display:inline;fill:#ffffff;stroke-width:1.17058;stroke-linecap:round;stroke-linejoin:round"
         d="m 94.85319,118.20538 c 0,2.75228 -1.076377,5.24403 -2.816643,7.0477 -3.012503,-0.78318 -3.994745,-0.96102 -6.6503,-0.96102 -2.655558,0 -3.562962,0.10175 -6.949654,0.96102 -1.740266,-1.80367 -2.816642,-4.29542 -2.816642,-7.0477 -10e-7,-5.50459 4.305507,-9.96696 9.61662,-9.96696 5.311113,0 9.61662,4.46237 9.616619,9.96696 z"
         sodipodi:nodetypes="scscsss" /><ellipse
         style="display:inline;fill:#000000;fill-opacity:1;stroke-width:0.569913;stroke-linecap:round;stroke-linejoin:round"
         id="path1"
         cx="85.233498"
         cy="117.21548"
         rx="4.8855"
         ry="4.8114762" /><ellipse
         style="fill:#ffffff;fill-opacity:1;stroke-width:1.00278;stroke-linecap:round;stroke-linejoin:round"
         id="path2"
         cx="87.211998"
         cy="115.3113"
         rx="1.079"
         ry="1.046303" /></g><g
       id="g6"
       inkscape:label="Angry eye"
       style="display:inline"
       transform="translate(32.000049)"
       sodipodi:insensitive="true"><path
         id="path5"
         style="display:inline;fill:#ffffff;stroke-width:1.17058;stroke-linecap:round;stroke-linejoin:round"
         d="m 94.85319,118.20538 c 0,1.37614 -0.269094,2.68715 -0.755722,3.87958 -2.044771,-0.43645 -3.270839,-0.30154 -5.507145,-0.54518 -0.93264,-0.10161 -2.681144,-0.0316 -3.419552,-0.0316 -0.738408,0 -2.339587,0.008 -3.16697,0.046 -1.985593,0.092 -3.505741,0.20618 -5.628129,0.5312 -0.486627,-1.19243 -0.755721,-2.50344 -0.755721,-3.87958 0,-1.37615 0.269094,-2.68716 0.755722,-3.87959 3.227171,0.24729 4.445696,0.76101 8.981541,0.74321 4.535845,-0.0178 5.51692,-0.535 8.740255,-0.74321 0.486627,1.19243 0.755721,2.50344 0.755721,3.87959 z"
         sodipodi:nodetypes="scssscsczcss" /><path
         id="ellipse5"
         style="display:inline;stroke-width:0.558259;stroke-linecap:round;stroke-linejoin:round"
         d="m 90.118555,117.41656 c 0,0.32537 -0.03348,0.64304 -0.09723,0.94985 -0.06375,0.30681 -0.157768,0.60276 -0.27885,0.8847 -0.121082,0.28193 -0.269228,0.54985 -0.441229,0.80058 -0.172002,0.25074 -0.367859,0.4843 -0.584365,0.69753 -0.216506,0.21322 -0.45366,0.40611 -0.708255,0.57551 -2.006591,0.51249 -3.653589,0.37208 -5.35135,0 -0.254595,-0.1694 -0.491749,-0.36229 -0.708255,-0.57551 -0.216506,-0.21323 -0.412363,-0.44679 -0.584365,-0.69753 -0.172001,-0.25073 -0.320147,-0.51865 -0.441229,-0.80058 -0.121082,-0.28194 -0.215101,-0.57789 -0.27885,-0.8847 -0.06375,-0.30681 -0.09723,-0.62448 -0.09723,-0.94985 0,-0.32537 0.03348,-0.64304 0.09723,-0.94985 0.06375,-0.30681 0.157764,-0.60276 0.27885,-0.8847 0.06054,-0.14096 0.170848,-0.34111 0.26602,-0.50601 h 8.287008 c 0.09517,0.1649 0.205479,0.36505 0.26602,0.50601 0.121086,0.28194 0.215101,0.57789 0.27885,0.8847 0.06375,0.30681 0.09723,0.62448 0.09723,0.94985 z"
         sodipodi:nodetypes="sssssccsssssssccsss" /><path
         id="ellipse6"
         style="display:inline;fill:#ffffff;stroke-width:0.956228;stroke-linecap:round;stroke-linejoin:round"
         d="m 88.190819,115.56282 c -1e-6,0.55103 -0.460657,0.99773 -1.028908,0.99773 -0.568251,0 -1.028907,-0.4467 -1.028908,-0.99773 0,-0.0689 0.0072,-0.13613 0.0209,-0.20108 0.01371,-0.0649 0.03393,-0.1276 0.05995,-0.18728 0.01301,-0.0298 0.02754,-0.0664 0.04337,-0.0947 0.826228,0.001 0.936202,-0.003 1.809446,2e-5 0.01584,0.0283 0.03026,0.0648 0.04327,0.0946 0.02604,0.0597 0.04625,0.12233 0.05995,0.18728 0.01371,0.0649 0.0209,0.1322 0.0209,0.20108 z"
         sodipodi:nodetypes="sssssccssss" /></g><g
       id="g8"
       inkscape:label="Blinking eye"
       style="display:inline"
       transform="translate(64.000049)"
       sodipodi:insensitive="true"><path
         id="path6"
         style="display:inline;fill:#ffffff;stroke-width:1.17058;stroke-linecap:round;stroke-linejoin:round"
         d="m 75.619951,118.2058 c 0,-2.25057 0.269094,-2.68716 0.755722,-3.87959 3.227171,0.24729 4.445696,0.76101 8.981541,0.74321 4.535845,-0.0178 5.51692,-0.535 8.740255,-0.74321 0.486627,1.19243 0.756253,1.9588 0.755482,3.87959 -0.601755,0.004 -3.285515,-0.1958 -4.928,-0.1978 -1.863456,-0.39875 -2.420473,-0.40082 -4.455409,-0.40382 -2.034936,-0.003 -3.015871,0.0825 -4.706591,0.39182 -1.779108,9e-5 -4.268,0.2018 -5.143,0.2088 z"
         sodipodi:nodetypes="cczcccsccc" /><path
         id="path7"
         style="display:inline;stroke-width:0.558254;stroke-linecap:round;stroke-linejoin:round"
         d="m 90.117951,117.31656 c 0,0.32537 -0.03348,0.44263 -0.09723,0.74944 -1.86889,-0.57558 -3.335269,-0.41167 -4.772967,-0.42677 -1.438436,-0.0151 -2.720492,-0.1157 -4.603581,0.42677 -0.06375,-0.30681 -0.09723,-0.42407 -0.09723,-0.74944 0,-0.32537 0.03348,-0.64304 0.09723,-0.94985 0.06375,-0.30681 0.15776,-0.60276 0.278844,-0.8847 0.06054,-0.14096 0.170844,-0.34111 0.266015,-0.50601 h 8.28683 c 0.09517,0.1649 0.205475,0.36505 0.266015,0.50601 0.121084,0.28194 0.215096,0.57789 0.278844,0.8847 0.06375,0.30681 0.09723,0.62448 0.09723,0.94985 z"
         sodipodi:nodetypes="scscsssccsss" /><path
         id="path8"
         style="display:inline;fill:#ffffff;stroke-width:0.956228;stroke-linecap:round;stroke-linejoin:round"
         d="m 88.190819,115.46282 c -1e-6,0.55103 -0.460657,0.99773 -1.028908,0.99773 -0.568251,0 -1.028907,-0.4467 -1.028908,-0.99773 0,-0.0689 0.0072,-0.13613 0.0209,-0.20108 0.01371,-0.0649 0.03393,-0.1276 0.05995,-0.18728 0.01301,-0.0298 0.02754,-0.0664 0.04337,-0.0947 0.826228,0.001 0.936202,-0.003 1.809446,2e-5 0.01584,0.0283 0.03026,0.0648 0.04327,0.0946 0.02604,0.0597 0.04625,0.12233 0.05995,0.18728 0.01371,0.0649 0.0209,0.1322 0.0209,0.20108 z"
         sodipodi:nodetypes="sssssccssss" /></g><g
       id="g10"
       inkscape:label="Happy eye"
       style="display:inline"
       transform="translate(96.000049)"
       sodipodi:insensitive="true"><path
         id="path9"
         style="display:inline;fill:#ffffff;stroke-width:1.17058;stroke-linecap:round;stroke-linejoin:round"
         d="m 94.85319,118.20538 c 0,2.75228 -1.076377,5.24403 -2.816643,7.0477 -3.012503,-0.78318 -3.994745,-0.96102 -6.6503,-0.96102 -2.655558,0 -3.562962,0.10175 -6.949654,0.96102 -1.740266,-1.80367 -2.816642,-4.29542 -2.816642,-7.0477 -10e-7,-5.50459 4.305507,-9.96696 9.61662,-9.96696 5.311113,0 9.61662,4.46237 9.616619,9.96696 z"
         sodipodi:nodetypes="scscsss" /><ellipse
         style="display:inline;fill:#000000;fill-opacity:1;stroke-width:0.700798;stroke-linecap:round;stroke-linejoin:round"
         id="ellipse9"
         cx="85.27845"
         cy="117.25948"
         rx="6.0075002"
         ry="5.9164758" /><ellipse
         style="fill:#ffffff;fill-opacity:1;stroke-width:1.33422;stroke-linecap:round;stroke-linejoin:round"
         id="ellipse10"
         cx="81.672852"
         cy="118.85767"
         rx="1.435632"
         ry="1.3921281" /><ellipse
         style="fill:#ffffff;fill-opacity:1;stroke-width:2.59528;stroke-linecap:round;stroke-linejoin:round"
         id="ellipse11"
         cx="87.041748"
         cy="115.67771"
         rx="2.792531"
         ry="2.7079091" /></g><g
       id="g13"
       inkscape:label="Scared eye"
       style="display:inline"
       transform="translate(160.00005)"
       sodipodi:insensitive="true"><path
         id="path11"
         style="display:inline;fill:#ffffff;stroke-width:1.17058;stroke-linecap:round;stroke-linejoin:round"
         d="m 94.85319,118.20538 c 0,2.75228 -1.076377,5.24403 -2.816643,7.0477 -3.012503,-0.78318 -3.994745,-0.96102 -6.6503,-0.96102 -2.655558,0 -3.562962,0.10175 -6.949654,0.96102 -1.740266,-1.80367 -2.816642,-4.29542 -2.816642,-7.0477 -10e-7,-5.50459 4.305507,-9.96696 9.61662,-9.96696 5.311113,0 9.61662,4.46237 9.616619,9.96696 z"
         sodipodi:nodetypes="scscsss" /><ellipse
         style="display:inline;fill:#000000;fill-opacity:1;stroke-width:0.385949;stroke-linecap:round;stroke-linejoin:round"
         id="ellipse12"
         cx="85.428604"
         cy="117.22044"
         rx="3.3084946"
         ry="3.2583652" /><ellipse
         style="fill:#ffffff;fill-opacity:1;stroke-width:0.835689;stroke-linecap:round;stroke-linejoin:round"
         id="ellipse13"
         cx="86.649483"
         cy="115.93443"
         rx="0.71686548"
         ry="1.0937487" /></g><g
       id="g27"
       inkscape:label="whis signature"
       style="display:inline"
       sodipodi:insensitive="true"><path
         style="display:inline;fill:#000000;fill-opacity:1;stroke:#000000;stroke-width:3.817;stroke-linecap:round;stroke-linejoin:round;stroke-dasharray:none;stroke-opacity:1"
         d="m 14.908471,101.33108 c -0.240027,0.005 -0.47689,-0.0562 -0.703036,-0.13678 -0.226147,-0.0806 -0.444932,-0.18096 -0.671964,-0.25902 -0.679792,-0.23374 -1.431144,-0.25938 -2.12251,-0.0625 -0.463475,0.13199 -0.906048,0.36801 -1.227252,0.72725 -0.2383642,0.26659 -0.4028745,0.59212 -0.5235609,0.92876 -0.1206863,0.33664 -0.1997514,0.68644 -0.2851481,1.03371 -0.2571173,1.04558 -0.5743346,2.07781 -0.7636848,3.13776 -0.1893503,1.05995 -0.247561,2.16143 0.013685,3.20599 0.1349481,0.53957 0.3621756,1.07007 0.75,1.46875 0.4448133,0.45726 1.0648558,0.70497 1.6874998,0.84375 1.173464,0.26155 2.391686,0.17792 3.59375,0.15625 0.92708,-0.0167 1.85441,0.004 2.78125,0.0312 0.625086,0.0182 1.250093,0.039 1.875,0.0625 0.152702,0.19915 0.229848,0.45483 0.212777,0.7052 -0.01707,0.25038 -0.128207,0.49322 -0.306527,0.6698 -0.158578,0.15703 -0.363283,0.25931 -0.53125,0.40625 -0.21417,0.18736 -0.362164,0.44374 -0.442465,0.71673 -0.0803,0.273 -0.09531,0.56234 -0.07004,0.84577 0.06699,0.75129 0.407159,1.44703 0.73775,2.125 0.498878,1.02309 0.991218,2.05453 1.625,3 0.198258,0.29576 0.412994,0.58572 0.6875,0.8125 0.3998,0.33028 0.904666,0.50818 1.411612,0.61742 1.081184,0.23297 2.200254,0.18004 3.306,0.15625 1.862415,-0.0401 3.725575,0.006 5.588388,-0.005 1.468834,-0.009 2.937394,-0.053 4.40625,-0.0495 1.741264,0.004 3.489029,0.0752 5.21875,-0.125 0.43565,-0.0504 0.87374,-0.11917 1.28125,-0.28125 0.379251,-0.15084 0.728008,-0.38319 1,-0.6875 0.244035,-0.27303 0.422977,-0.59893 0.5625,-0.9375 0.164288,-0.39867 0.276791,-0.82029 0.3125,-1.25 0.04787,-0.57605 -0.04216,-1.15327 -0.08717,-1.72955 -0.045,-0.57628 -0.04153,-1.17444 0.180916,-1.70795 0.239144,-0.57355 0.730109,-1.03327 1.3125,-1.25 0.60599,-0.22551 1.273505,-0.19324 1.918621,-0.1496 0.645117,0.0436 1.30833,0.0936 1.925129,-0.1004 0.367197,-0.1155 0.705166,-0.31502 1,-0.5625 0.340304,-0.28565 0.623703,-0.6336 0.875,-1 0.533102,-0.77729 0.926925,-1.63994 1.3125,-2.5 0.377494,-0.84204 0.750246,-1.68739 1.1875,-2.5 0.220919,-0.41057 0.459012,-0.81432 0.625,-1.25 0.174302,-0.4575 0.26653,-0.9482 0.25,-1.4375 -0.01809,-0.53541 -0.172648,-1.07594 -0.5,-1.5 -0.397115,-0.51444 -1.037891,-0.825 -1.6875,-0.8438 -0.536581,-0.0155 -1.060142,0.15455 -1.5625,0.34375 -0.323582,0.12187 -0.654259,0.25454 -1,0.25 -0.418133,-0.005 -0.803362,-0.20976 -1.1875,-0.375 -0.239812,-0.10315 -0.488698,-0.19339 -0.748379,-0.22015 -0.259681,-0.0268 -0.533242,0.0146 -0.751621,0.15765 -0.118171,0.0774 -0.216356,0.18146 -0.329062,0.26662 -0.05635,0.0426 -0.116705,0.0806 -0.182373,0.10662 -0.06567,0.026 -0.137002,0.0397 -0.207315,0.033 -0.06643,-0.006 -0.130264,-0.0307 -0.187972,-0.0642 -0.05771,-0.0335 -0.109688,-0.076 -0.159192,-0.12076 -0.09901,-0.0895 -0.191144,-0.19007 -0.309086,-0.25253 -0.0879,-0.0465 -0.186577,-0.0697 -0.285451,-0.0805 -0.09887,-0.0108 -0.1986,-0.01 -0.298058,-0.0101 -0.09946,-4.6e-4 -0.199395,-0.003 -0.297335,-0.0199 -0.09794,-0.0173 -0.194445,-0.0505 -0.275406,-0.10823 -0.09505,-0.0678 -0.164812,-0.16716 -0.209673,-0.27497 -0.04486,-0.10781 -0.06605,-0.22415 -0.07662,-0.34044 -0.02115,-0.23258 -0.0014,-0.47039 -0.05746,-0.69709 -0.04996,-0.2019 -0.159456,-0.38695 -0.303062,-0.53741 -0.143605,-0.15045 -0.320531,-0.26711 -0.510257,-0.35234 -0.379453,-0.17046 -0.802435,-0.21516 -1.217931,-0.23525 -0.782793,-0.0378 -1.569422,0.004 -2.34375,0.125 -0.22945,0.0618 -0.43932,0.19438 -0.59375,0.375 -0.131531,0.15383 -0.221635,0.33859 -0.34375,0.5 -0.196948,0.26033 -0.476381,0.45936 -0.625,0.75 -0.09051,0.17701 -0.125943,0.37604 -0.167415,0.57047 -0.04147,0.19444 -0.09234,0.39253 -0.207585,0.55453 -0.09883,0.13892 -0.242284,0.24451 -0.402374,0.30313 -0.160091,0.0586 -0.336084,0.0708 -0.503876,0.0406 -0.24447,-0.044 -0.464348,-0.17359 -0.67134,-0.3109 -0.206992,-0.13731 -0.409842,-0.28609 -0.64116,-0.3766 -0.375212,-0.14681 -0.79103,-0.12833 -1.193817,-0.13833 -0.201393,-0.005 -0.403693,-0.0178 -0.600031,-0.0629 -0.196337,-0.0451 -0.387519,-0.12389 -0.54454,-0.2501 -0.212977,-0.17118 -0.350155,-0.41729 -0.475297,-0.66019 -0.125142,-0.24291 -0.247033,-0.494 -0.440106,-0.68736 -0.241292,-0.24165 -0.57537,-0.37206 -0.911879,-0.43016 -0.33651,-0.0581 -0.680349,-0.0501 -1.02183,-0.0522 -0.619866,-0.004 -1.255582,-0.0395 -1.84375,0.15625 -0.403699,0.13434 -0.779652,0.38604 -1,0.75 -0.129166,0.21335 -0.200516,0.4556 -0.290381,0.68825 -0.08987,0.23265 -0.204975,0.46525 -0.397119,0.62425 -0.139843,0.11572 -0.313163,0.18554 -0.490397,0.22473 -0.177234,0.0392 -0.359482,0.0493 -0.540853,0.0565 -0.843185,0.0337 -1.687443,0.009 -2.53125,0 -0.69835,-0.008 -1.397704,-0.005 -2.09375,-0.0625 -0.248484,-0.0204 -0.497487,-0.0487 -0.738277,-0.11332 -0.24079,-0.0647 -0.47429,-0.16718 -0.667973,-0.32418 -0.190156,-0.15414 -0.335867,-0.35515 -0.476384,-0.55558 -0.140517,-0.20043 -0.279931,-0.40483 -0.461116,-0.56942 -0.257534,-0.23395 -0.589341,-0.37611 -0.930618,-0.44382 -0.341277,-0.0677 -0.693094,-0.0644 -1.039702,-0.0341 -0.434623,0.038 -0.866747,0.11834 -1.27968,0.25915 -0.358857,0.12237 -0.712462,0.29206 -1.091529,0.29983 z"
         id="path62"
         inkscape:path-effect="#path-effect64"
         inkscape:original-d="m 14.908471,101.33108 c -0.635704,-0.0422 -0.882795,-0.37766 -1.375,-0.3958 -0.585983,-0.0216 -1.49751,-0.0625 -2.12251,-0.0625 -0.625,0 -0.852252,0.41475 -1.227252,0.72725 -0.3750003,0.3125 -0.579542,1.64997 -0.808709,1.96247 -0.2291667,0.3125 -0.4583334,4.09375 -0.75,6.34375 -0.2916667,2.25 0.375,1.03125 0.75,1.46875 0.375,0.4375 1.3125,0.78125 1.6875,0.84375 0.375,0.0625 1.197917,0.13545 3.59375,0.15625 2.395833,0.0208 2.166834,0.049 2.78125,0.0312 0.959339,-0.0277 1.875,0.0625 1.875,0.0625 0,0 -0.11458,0.89583 -0.09375,1.375 0.02083,0.47917 -0.197917,0.28125 -0.53125,0.40625 -0.333333,0.125 -0.573706,1.1288 -0.5125,1.5625 0.147244,1.04335 1.362616,3.28329 0.73775,2.125 -0.367584,-0.68137 1.083333,2 1.625,3 0.541667,1 0.458333,0.54167 0.6875,0.8125 0.229167,0.27083 0.828279,0.55492 1.411612,0.61742 0.583333,0.0625 2.701833,0.13545 3.306,0.15625 0.604167,0.0208 3.650888,-0.0471 5.588388,-0.005 1.9375,0.0417 2.927083,-0.0495 4.40625,-0.0495 1.479167,0 3.53125,-0.1667 5.21875,-0.125 1.6875,0.0417 0.802083,-0.21875 1.28125,-0.28125 0.479167,-0.0625 0.666667,-0.45833 1,-0.6875 0.333333,-0.22917 0.375,-0.625 0.5625,-0.9375 0.1875,-0.3125 0.208333,-0.83333 0.3125,-1.25 0.104167,-0.41667 0.05208,-1.79167 0.09375,-3.4375 0.04167,-1.64583 0.854167,-1.1875 1.3125,-1.25 0.458333,-0.0625 2.59375,-0.3125 3.84375,-0.25 1.25,0.0625 0.666667,-0.375 1,-0.5625 0.333333,-0.1875 0.583333,-0.66667 0.875,-1 0.291667,-0.33333 0.875,-1.66667 1.3125,-2.5 0.4375,-0.83333 0.791667,-1.66667 1.1875,-2.5 0.395833,-0.83333 0.416667,-0.83333 0.625,-1.25 0.208333,-0.41667 0.166667,-0.95833 0.25,-1.4375 0.08333,-0.47917 -0.333333,-1 -0.5,-1.5 C 54.145833,103 53.25,102.80208 52.625,102.65625 52,102.51042 51.520833,103.0208 51.0625,103 c -0.458333,-0.0208 -0.6875,0.0208 -1,0.25 -0.3125,0.22917 -0.770833,-0.10417 -1.1875,-0.375 -0.416667,-0.27083 -1,-0.0417 -1.5,-0.0625 -0.5,-0.0208 -0.489583,0.15625 -0.71875,0.40625 -0.229167,0.25 -0.197917,-0.4583 -0.65625,-0.4375 -0.458333,0.0208 -0.927083,0.13542 -1.15625,-0.21875 -0.229167,-0.35417 -0.30208,-0.875 -0.34375,-1.3125 -0.04167,-0.4375 -1.71875,-0.91667 -2.03125,-1.125 -0.3125,-0.20833 -1.822917,0.16667 -2.34375,0.125 -0.708333,0.0833 0.135417,0.4167 -0.59375,0.375 -0.665903,-0.0381 -0.02083,0.45833 -0.34375,0.5 -0.307166,0.0396 -0.5,0.375 -0.625,0.75 -0.125,0.375 0.04167,0.77083 -0.375,1.125 -0.416667,0.35417 -0.364583,0.42708 -0.90625,0.34375 -0.541667,-0.0833 -0.541667,-0.625 -1.3125,-0.6875 -0.770833,-0.0625 -2.088388,-0.0139 -2.338388,-0.45136 -0.25,-0.4375 -1.203518,9.23516 -0.915403,-1.34755 0.01568,-0.576 -1.475376,-0.37817 -1.933709,-0.48234 -0.458333,-0.10417 -1.260417,0.0937 -1.84375,0.15625 -0.583333,0.0625 -0.770833,0.375 -1,0.75 -0.229167,0.375 -0.520833,0.875 -0.6875,1.3125 -0.166667,0.4375 -0.427083,0.0937 -1.03125,0.28125 -0.604167,0.1875 -1.71875,0.0208 -2.53125,0 -0.8125,-0.0208 -1.322917,-0.0625 -2.09375,-0.0625 -0.770833,0 -1.010417,-0.10417 -1.40625,-0.4375 -0.395833,-0.33333 -0.625,-0.75 -0.9375,-1.125 -0.3125,-0.375 -1.303653,-0.3529 -1.97032,-0.4779 -0.666667,-0.125 -0.863013,0.13415 -1.27968,0.25915 -0.416667,0.125 -0.518083,0.33793 -1.091529,0.29983 z"
         sodipodi:nodetypes="sssssssssscssssssssssssssssssssssssssssssssssscsssscsssssssssssssss"
         inkscape:label="Black back"
         sodipodi:insensitive="true" /><path
         style="display:inline;fill:#ffffff;fill-opacity:1;stroke:#ffffff;stroke-width:1.217;stroke-linecap:round;stroke-linejoin:round;stroke-dasharray:none;stroke-opacity:1"
         d="m 14.908471,101.33108 c -0.240027,0.005 -0.47689,-0.0562 -0.703036,-0.13678 -0.226147,-0.0806 -0.444932,-0.18096 -0.671964,-0.25902 -0.679792,-0.23374 -1.431144,-0.25938 -2.12251,-0.0625 -0.463475,0.13199 -0.906048,0.36801 -1.227252,0.72725 -0.2383642,0.26659 -0.4028745,0.59212 -0.5235609,0.92876 -0.1206863,0.33664 -0.1997514,0.68644 -0.2851481,1.03371 -0.2571173,1.04558 -0.5743346,2.07781 -0.7636848,3.13776 -0.1893503,1.05995 -0.247561,2.16143 0.013685,3.20599 0.1349481,0.53957 0.3621756,1.07007 0.75,1.46875 0.4448133,0.45726 1.0648558,0.70497 1.6874998,0.84375 1.173464,0.26155 2.391686,0.17792 3.59375,0.15625 0.92708,-0.0167 1.85441,0.004 2.78125,0.0312 0.625086,0.0182 1.250093,0.039 1.875,0.0625 0.152702,0.19915 0.229848,0.45483 0.212777,0.7052 -0.01707,0.25038 -0.128207,0.49322 -0.306527,0.6698 -0.158578,0.15703 -0.363283,0.25931 -0.53125,0.40625 -0.21417,0.18736 -0.362164,0.44374 -0.442465,0.71673 -0.0803,0.273 -0.09531,0.56234 -0.07004,0.84577 0.06699,0.75129 0.407159,1.44703 0.73775,2.125 0.498878,1.02309 0.991218,2.05453 1.625,3 0.198258,0.29576 0.412994,0.58572 0.6875,0.8125 0.3998,0.33028 0.904666,0.50818 1.411612,0.61742 1.081184,0.23297 2.200254,0.18004 3.306,0.15625 1.862415,-0.0401 3.725575,0.006 5.588388,-0.005 1.468834,-0.009 2.937394,-0.053 4.40625,-0.0495 1.741264,0.004 3.489029,0.0752 5.21875,-0.125 0.43565,-0.0504 0.87374,-0.11917 1.28125,-0.28125 0.379251,-0.15084 0.728008,-0.38319 1,-0.6875 0.244035,-0.27303 0.422977,-0.59893 0.5625,-0.9375 0.164288,-0.39867 0.276791,-0.82029 0.3125,-1.25 0.04787,-0.57605 -0.04216,-1.15327 -0.08717,-1.72955 -0.045,-0.57628 -0.04153,-1.17444 0.180916,-1.70795 0.239144,-0.57355 0.730109,-1.03327 1.3125,-1.25 0.60599,-0.22551 1.273505,-0.19324 1.918621,-0.1496 0.645117,0.0436 1.30833,0.0936 1.925129,-0.1004 0.367197,-0.1155 0.705166,-0.31502 1,-0.5625 0.340304,-0.28565 0.623703,-0.6336 0.875,-1 0.533102,-0.77729 0.926925,-1.63994 1.3125,-2.5 0.377494,-0.84204 0.750246,-1.68739 1.1875,-2.5 0.220919,-0.41057 0.459012,-0.81432 0.625,-1.25 0.174302,-0.4575 0.26653,-0.9482 0.25,-1.4375 -0.01809,-0.53541 -0.172648,-1.07594 -0.5,-1.5 -0.397115,-0.51444 -1.037891,-0.825 -1.6875,-0.8438 -0.536581,-0.0155 -1.060142,0.15455 -1.5625,0.34375 -0.323582,0.12187 -0.654259,0.25454 -1,0.25 -0.418133,-0.005 -0.803362,-0.20976 -1.1875,-0.375 -0.239812,-0.10315 -0.488698,-0.19339 -0.748379,-0.22015 -0.259681,-0.0268 -0.533242,0.0146 -0.751621,0.15765 -0.118171,0.0774 -0.216356,0.18146 -0.329062,0.26662 -0.05635,0.0426 -0.116705,0.0806 -0.182373,0.10662 -0.06567,0.026 -0.137002,0.0397 -0.207315,0.033 -0.06643,-0.006 -0.130264,-0.0307 -0.187972,-0.0642 -0.05771,-0.0335 -0.109688,-0.076 -0.159192,-0.12076 -0.09901,-0.0895 -0.191144,-0.19007 -0.309086,-0.25253 -0.0879,-0.0465 -0.186577,-0.0697 -0.285451,-0.0805 -0.09887,-0.0108 -0.1986,-0.01 -0.298058,-0.0101 -0.09946,-4.6e-4 -0.199395,-0.003 -0.297335,-0.0199 -0.09794,-0.0173 -0.194445,-0.0505 -0.275406,-0.10823 -0.09505,-0.0678 -0.164812,-0.16716 -0.209673,-0.27497 -0.04486,-0.10781 -0.06605,-0.22415 -0.07662,-0.34044 -0.02115,-0.23258 -0.0014,-0.47039 -0.05746,-0.69709 -0.04996,-0.2019 -0.159456,-0.38695 -0.303062,-0.53741 -0.143605,-0.15045 -0.320531,-0.26711 -0.510257,-0.35234 -0.379453,-0.17046 -0.802435,-0.21516 -1.217931,-0.23525 -0.782793,-0.0378 -1.569422,0.004 -2.34375,0.125 -0.22945,0.0618 -0.43932,0.19438 -0.59375,0.375 -0.131531,0.15383 -0.221635,0.33859 -0.34375,0.5 -0.196948,0.26033 -0.476381,0.45936 -0.625,0.75 -0.09051,0.17701 -0.125943,0.37604 -0.167415,0.57047 -0.04147,0.19444 -0.09234,0.39253 -0.207585,0.55453 -0.09883,0.13892 -0.242284,0.24451 -0.402374,0.30313 -0.160091,0.0586 -0.336084,0.0708 -0.503876,0.0406 -0.24447,-0.044 -0.464348,-0.17359 -0.67134,-0.3109 -0.206992,-0.13731 -0.409842,-0.28609 -0.64116,-0.3766 -0.375212,-0.14681 -0.79103,-0.12833 -1.193817,-0.13833 -0.201393,-0.005 -0.403693,-0.0178 -0.600031,-0.0629 -0.196337,-0.0451 -0.387519,-0.12389 -0.54454,-0.2501 -0.212977,-0.17118 -0.350155,-0.41729 -0.475297,-0.66019 -0.125142,-0.24291 -0.247033,-0.494 -0.440106,-0.68736 -0.241292,-0.24165 -0.57537,-0.37206 -0.911879,-0.43016 -0.33651,-0.0581 -0.680349,-0.0501 -1.02183,-0.0522 -0.619866,-0.004 -1.255582,-0.0395 -1.84375,0.15625 -0.403699,0.13434 -0.779652,0.38604 -1,0.75 -0.129166,0.21335 -0.200516,0.4556 -0.290381,0.68825 -0.08987,0.23265 -0.204975,0.46525 -0.397119,0.62425 -0.139843,0.11572 -0.313163,0.18554 -0.490397,0.22473 -0.177234,0.0392 -0.359482,0.0493 -0.540853,0.0565 -0.843185,0.0337 -1.687443,0.009 -2.53125,0 -0.69835,-0.008 -1.397704,-0.005 -2.09375,-0.0625 -0.248484,-0.0204 -0.497487,-0.0487 -0.738277,-0.11332 -0.24079,-0.0647 -0.47429,-0.16718 -0.667973,-0.32418 -0.190156,-0.15414 -0.335867,-0.35515 -0.476384,-0.55558 -0.140517,-0.20043 -0.279931,-0.40483 -0.461116,-0.56942 -0.257534,-0.23395 -0.589341,-0.37611 -0.930618,-0.44382 -0.341277,-0.0677 -0.693094,-0.0644 -1.039702,-0.0341 -0.434623,0.038 -0.866747,0.11834 -1.27968,0.25915 -0.358857,0.12237 -0.712462,0.29206 -1.091529,0.29983 z"
         id="path61"
         inkscape:path-effect="#path-effect62"
         inkscape:original-d="m 14.908471,101.33108 c -0.635704,-0.0422 -0.882795,-0.37766 -1.375,-0.3958 -0.585983,-0.0216 -1.49751,-0.0625 -2.12251,-0.0625 -0.625,0 -0.852252,0.41475 -1.227252,0.72725 -0.3750003,0.3125 -0.579542,1.64997 -0.808709,1.96247 -0.2291667,0.3125 -0.4583334,4.09375 -0.75,6.34375 -0.2916667,2.25 0.375,1.03125 0.75,1.46875 0.375,0.4375 1.3125,0.78125 1.6875,0.84375 0.375,0.0625 1.197917,0.13545 3.59375,0.15625 2.395833,0.0208 2.166834,0.049 2.78125,0.0312 0.959339,-0.0277 1.875,0.0625 1.875,0.0625 0,0 -0.11458,0.89583 -0.09375,1.375 0.02083,0.47917 -0.197917,0.28125 -0.53125,0.40625 -0.333333,0.125 -0.573706,1.1288 -0.5125,1.5625 0.147244,1.04335 1.362616,3.28329 0.73775,2.125 -0.367584,-0.68137 1.083333,2 1.625,3 0.541667,1 0.458333,0.54167 0.6875,0.8125 0.229167,0.27083 0.828279,0.55492 1.411612,0.61742 0.583333,0.0625 2.701833,0.13545 3.306,0.15625 0.604167,0.0208 3.650888,-0.0471 5.588388,-0.005 1.9375,0.0417 2.927083,-0.0495 4.40625,-0.0495 1.479167,0 3.53125,-0.1667 5.21875,-0.125 1.6875,0.0417 0.802083,-0.21875 1.28125,-0.28125 0.479167,-0.0625 0.666667,-0.45833 1,-0.6875 0.333333,-0.22917 0.375,-0.625 0.5625,-0.9375 0.1875,-0.3125 0.208333,-0.83333 0.3125,-1.25 0.104167,-0.41667 0.05208,-1.79167 0.09375,-3.4375 0.04167,-1.64583 0.854167,-1.1875 1.3125,-1.25 0.458333,-0.0625 2.59375,-0.3125 3.84375,-0.25 1.25,0.0625 0.666667,-0.375 1,-0.5625 0.333333,-0.1875 0.583333,-0.66667 0.875,-1 0.291667,-0.33333 0.875,-1.66667 1.3125,-2.5 0.4375,-0.83333 0.791667,-1.66667 1.1875,-2.5 0.395833,-0.83333 0.416667,-0.83333 0.625,-1.25 0.208333,-0.41667 0.166667,-0.95833 0.25,-1.4375 0.08333,-0.47917 -0.333333,-1 -0.5,-1.5 C 54.145833,103 53.25,102.80208 52.625,102.65625 52,102.51042 51.520833,103.0208 51.0625,103 c -0.458333,-0.0208 -0.6875,0.0208 -1,0.25 -0.3125,0.22917 -0.770833,-0.10417 -1.1875,-0.375 -0.416667,-0.27083 -1,-0.0417 -1.5,-0.0625 -0.5,-0.0208 -0.489583,0.15625 -0.71875,0.40625 -0.229167,0.25 -0.197917,-0.4583 -0.65625,-0.4375 -0.458333,0.0208 -0.927083,0.13542 -1.15625,-0.21875 -0.229167,-0.35417 -0.30208,-0.875 -0.34375,-1.3125 -0.04167,-0.4375 -1.71875,-0.91667 -2.03125,-1.125 -0.3125,-0.20833 -1.822917,0.16667 -2.34375,0.125 -0.708333,0.0833 0.135417,0.4167 -0.59375,0.375 -0.665903,-0.0381 -0.02083,0.45833 -0.34375,0.5 -0.307166,0.0396 -0.5,0.375 -0.625,0.75 -0.125,0.375 0.04167,0.77083 -0.375,1.125 -0.416667,0.35417 -0.364583,0.42708 -0.90625,0.34375 -0.541667,-0.0833 -0.541667,-0.625 -1.3125,-0.6875 -0.770833,-0.0625 -2.088388,-0.0139 -2.338388,-0.45136 -0.25,-0.4375 -0.540403,-0.91005 -0.915403,-1.34755 -0.375,-0.4375 -1.475376,-0.37817 -1.933709,-0.48234 -0.458333,-0.10417 -1.260417,0.0937 -1.84375,0.15625 -0.583333,0.0625 -0.770833,0.375 -1,0.75 -0.229167,0.375 -0.520833,0.875 -0.6875,1.3125 -0.166667,0.4375 -0.427083,0.0937 -1.03125,0.28125 -0.604167,0.1875 -1.71875,0.0208 -2.53125,0 -0.8125,-0.0208 -1.322917,-0.0625 -2.09375,-0.0625 -0.770833,0 -1.010417,-0.10417 -1.40625,-0.4375 -0.395833,-0.33333 -0.625,-0.75 -0.9375,-1.125 -0.3125,-0.375 -1.303653,-0.3529 -1.97032,-0.4779 -0.666667,-0.125 -0.863013,0.13415 -1.27968,0.25915 -0.416667,0.125 -0.518083,0.33793 -1.091529,0.29983 z"
         sodipodi:nodetypes="sssssssssscssssssssssssssssssssssssssssssssssscsssscsssssssssssssss"
         inkscape:label="White back"
         sodipodi:insensitive="true" /><path
         id="path33"
         style="display:inline;fill:none;fill-opacity:1;stroke:#000000;stroke-width:1.417;stroke-linecap:round;stroke-linejoin:round;stroke-dasharray:none;stroke-opacity:1"
         inkscape:label="Black font"
         d="m 30.574219,103.26758 0.0098,3.86914 c 0.0013,0.009 0.0028,0.0182 0.0039,0.0273 z m 0.01367,3.89648 0.002,0.36133 c 0.01411,-0.12004 0.0132,-0.24147 -0.002,-0.36133 z m 0.002,0.36133 c -0.0012,0.0104 -0.0024,0.0208 -0.0039,0.0312 l 0.0098,1.64648 z m -0.0039,0.0312 -0.002,-0.41992 c -0.04306,-0.29759 -0.173198,-0.58342 -0.375,-0.80664 -0.176114,-0.19481 -0.400529,-0.3404 -0.644531,-0.4375 -0.244002,-0.0971 -0.507213,-0.14579 -0.769531,-0.1582 -0.45243,-0.0214 -0.926675,0.0717 -1.28125,0.35351 -0.201359,0.16005 -0.35663,0.37485 -0.453125,0.61328 -0.0965,0.23843 -0.134613,0.499 -0.121094,0.75586 0.01475,0.28029 0.09091,0.55921 0.230469,0.80274 0.139556,0.24352 0.34187,0.45124 0.585937,0.58984 0.318254,0.18073 0.696907,0.23776 1.0625,0.2207 0.465983,-0.0217 0.939534,-0.16877 1.28125,-0.48633 0.284438,-0.26432 0.461691,-0.63983 0.486329,-1.02734 z m 11.076171,-4.28906 -0.01367,3.91406 c 0.0011,-0.01 0.0026,-0.0195 0.0039,-0.0293 l -0.002,0.4043 c 0.02464,0.38751 0.203843,0.76302 0.488281,1.02734 0.341716,0.31756 0.815267,0.4646 1.28125,0.48633 0.365594,0.0171 0.742293,-0.04 1.060547,-0.2207 0.244067,-0.1386 0.446381,-0.34632 0.585937,-0.58984 0.139556,-0.24353 0.21767,-0.52245 0.232422,-0.80274 0.01352,-0.25686 -0.02655,-0.51743 -0.123047,-0.75586 -0.09649,-0.23843 -0.249813,-0.45323 -0.451172,-0.61328 -0.354575,-0.28183 -0.830773,-0.37494 -1.283203,-0.35351 -0.262318,0.0124 -0.523576,0.0611 -0.767578,0.1582 -0.244002,0.0971 -0.47037,0.24269 -0.646484,0.4375 -0.203588,0.22519 -0.33312,0.51402 -0.375,0.81445 z m -0.01172,4.28906 c -0.0018,-0.013 -0.0024,-0.026 -0.0039,-0.0391 l -0.0059,1.68554 z m -0.0039,-0.0391 0.002,-0.33594 c -0.0128,0.11154 -0.01446,0.22431 -0.002,0.33594 z M 18.3125,108.8125 17,103.99414 l -2.03125,4.31836 -2.03125,-4.28125 -1.3125,4.75 m 22.03125,-1.5 h 2.875 c 0.0216,-0.41336 -0.122256,-0.83302 -0.392578,-1.14648 -0.270322,-0.31345 -0.664131,-0.51726 -1.076172,-0.55665 -0.04196,-0.004 -0.08483,-0.007 -0.126953,-0.008 v 1.9e-4 c -0.294849,-0.005 -0.590038,0.0709 -0.847656,0.21485 -0.294421,0.16449 -0.538062,0.41753 -0.697266,0.71484 -0.209708,0.39163 -0.269922,0.8625 -0.160156,1.29297 0.109766,0.43047 0.389264,0.81596 0.767578,1.04883 0.314696,0.19371 0.685143,0.28048 1.052734,0.31836 0.306211,0.0316 0.615665,0.0316 0.921875,0 m -11.663863,0.0868 c -0.03244,-0.10527 0.03491,-1.53293 -0.02066,-2.14686 -0.102445,-0.48893 -0.305898,-0.68615 -0.379929,-0.76804 -0.176109,-0.1948 -0.400528,-0.34235 -0.644531,-0.43945 -0.244002,-0.0971 -0.507214,-0.14579 -0.769531,-0.1582 -0.05655,-0.003 -0.112953,-0.003 -0.169922,-0.002 v 4e-5 c -0.398787,0.007 -0.801075,0.10885 -1.111328,0.35547 -0.201359,0.16005 -0.35663,0.37681 -0.453125,0.61523 -0.0965,0.23843 -0.134613,0.499 -0.121094,0.75586 0.01475,0.28029 0.09091,0.55726 0.230469,0.80079 0.139555,0.24352 0.343822,0.45124 0.58789,0.58984 0.318254,0.18073 0.694953,0.23775 1.060547,0.2207 0.465983,-0.0217 0.970783,-0.24494 1.3125,-0.56249 0.142219,-0.13217 0.457383,-0.44961 0.462466,-0.8602 0.05196,-0.55121 0.0082,-1.9816 0.0082,-1.9816 m 24.261719,5.52148 3.09375,-5.34375 -1.6875,2.8125 -2.15625,-2.8125 m -17.009766,7.73437 0.04492,5.83399 0.04492,-1.72266 c 0.06669,-0.31235 0.225324,-0.60423 0.451172,-0.83007 0.225848,-0.22585 0.51772,-0.38449 0.830078,-0.45118 0.04206,-0.009 0.08427,-0.0178 0.126953,-0.0234 m 1.640625,3.07226 c 0.041,-0.51451 0.041,-1.03236 0,-1.54687 -0.02171,-0.27244 -0.05758,-0.54945 -0.177734,-0.79493 -0.137436,-0.28077 -0.382304,-0.50448 -0.669922,-0.62695 -0.248047,-0.10562 -0.525391,-0.13854 -0.792969,-0.10351 m 4.261719,0.0527 -0.03125,3.1875 z m -14.791016,0.12305 1.66211,2.75976 1.53125,-2.46093 1.75,2.48632 1.648437,-2.81054 m 12.730459,0.0644 h -0.8125 c -0.02733,0 -0.05468,-3e-4 -0.08203,0 l 9e-6,-2e-5 c -0.08206,9e-4 -0.164994,0.006 -0.246094,0.0176 -0.108134,0.0161 -0.213639,0.0474 -0.308594,0.10156 -0.09496,0.0542 -0.176932,0.12965 -0.234375,0.22266 -0.05744,0.093 -0.08908,0.20319 -0.08984,0.3125 -7.51e-4,0.10932 0.02766,0.21766 0.08203,0.3125 0.05437,0.0948 0.133963,0.17521 0.224609,0.23632 0.181292,0.12221 0.404465,0.16503 0.623047,0.16993 0.0026,6e-5 0.0052,-5e-5 0.0078,0 m -0.833977,1.36912 c 0.250051,-0.004 0.500241,-10e-4 0.75,0.0117 0.165243,0.009 0.331414,0.0219 0.496094,0.006 0.16468,-0.016 0.331207,-0.0626 0.464844,-0.16016 0.09354,-0.0683 0.168567,-0.16033 0.216796,-0.26563 0.04822,-0.1053 0.06859,-0.2225 0.05859,-0.33789 -0.01,-0.11539 -0.04923,-0.22902 -0.115234,-0.32422 -0.066,-0.0952 -0.15886,-0.1714 -0.263672,-0.2207 -0.119489,-0.0562 -0.252809,-0.0751 -0.384766,-0.0801 -0.129369,-0.004 -0.259253,0.004 -0.388672,0.002 l 4e-6,-1.4e-4"
         sodipodi:nodetypes="cccccccccccccsscssssssscccccssssssssssccccccccccccccscsssssssscccccsscccssscscsccccccccssccssscccccccccscsccscsssscccsscssccssc"
         sodipodi:insensitive="true" /><path
         style="fill:none;fill-opacity:1;stroke:#000000;stroke-width:1.42;stroke-linecap:round;stroke-linejoin:round;stroke-dasharray:none;stroke-opacity:1"
         d="m 36.5,114.5 v 0"
         id="path64"
         inkscape:path-effect="#path-effect65"
         inkscape:original-d="m 36.5,114.5 v 0"
         sodipodi:nodetypes="cc"
         sodipodi:insensitive="true"
         inkscape:label="i dot" /></g><path
       sodipodi:nodetypes="ssscsss"
       inkscape:connector-curvature="0"
       id="path2420"
       d="m 223.00694,74.749447 c 5.04301,0 13.02949,2.84466 13.29283,7.227434 0.15369,2.557855 -2.24163,4.562036 -6.50324,4.489569 l -5.19801,-0.08839 -5.02124,0.08839 c -3.47551,0.06118 -6.41871,-0.232068 -6.47463,-5.12273 -0.0428,-3.746128 3.85763,-6.594273 9.90429,-6.594273 z"
       style="font-variation-settings:normal;display:inline;fill:#000000;fill-opacity:1;stroke:#000000;stroke-width:1.42996;stroke-linecap:round;stroke-linejoin:miter;stroke-miterlimit:4;stroke-dasharray:none;stroke-dashoffset:0;stroke-opacity:1;paint-order:normal;stop-color:#000000" /><path
       style="display:inline;fill:#000000;fill-opacity:1;stroke:#000000;stroke-width:1.8;stroke-linecap:round;stroke-linejoin:miter;stroke-miterlimit:4;stroke-dasharray:none;stroke-dashoffset:0;stroke-opacity:1;paint-order:normal"
       d="m 231.5,17.208883 c -0.0449,-7.055307 5.1933,-8.2610065 11.24401,-8.196888 5.10609,0.054108 7.01578,2.175023 6.95328,8.877203 -0.0625,6.70218 -1.7306,8.017241 -6.75077,8.12518 -8.72046,0.1875 -11.41299,-3.541656 -11.44652,-8.805495 z"
       id="path2422"
       inkscape:connector-curvature="0"
       sodipodi:nodetypes="sszss" /></g></svg>
