<?xml version="1.0" encoding="UTF-8" standalone="no"?>
<svg
   xmlns:dc="http://purl.org/dc/elements/1.1/"
   xmlns:cc="http://creativecommons.org/ns#"
   xmlns:rdf="http://www.w3.org/1999/02/22-rdf-syntax-ns#"
   xmlns:svg="http://www.w3.org/2000/svg"
   xmlns="http://www.w3.org/2000/svg"
   xmlns:sodipodi="http://sodipodi.sourceforge.net/DTD/sodipodi-0.dtd"
   xmlns:inkscape="http://www.inkscape.org/namespaces/inkscape"
   width="255.99998"
   height="127.99999"
   viewBox="0 0 67.733329 33.866664"
   version="1.1"
   id="svg8"
   inkscape:version="1.0.2 (e86c870879, 2021-01-15)"
   inkscape:export-xdpi="96"
   inkscape:export-ydpi="96"
   sodipodi:docname="brownbear.svg"
   inkscape:export-filename="C:\Users\Niko\Desktop\DDNet\data\skins\remakes.png">
  <defs
     id="defs2" />
  <sodipodi:namedview
     id="base"
     pagecolor="#b2b2b2"
     bordercolor="#666666"
     borderopacity="1.0"
     inkscape:pageopacity="0"
     inkscape:pageshadow="2"
     inkscape:zoom="1"
     inkscape:cx="127.99996"
     inkscape:cy="-1616"
     inkscape:document-units="px"
     inkscape:current-layer="layer2"
     showgrid="false"
     units="px"
     inkscape:snap-page="true"
     showguides="true"
     inkscape:guide-bbox="true"
     inkscape:object-paths="true"
     inkscape:snap-intersection-paths="true"
     inkscape:snap-smooth-nodes="true"
     inkscape:snap-midpoints="true"
     inkscape:window-width="1332"
     inkscape:window-height="908"
     inkscape:window-x="994"
     inkscape:window-y="302"
     inkscape:window-maximized="0"
     inkscape:snap-global="true"
     inkscape:snap-bbox="true"
     inkscape:bbox-nodes="true"
     inkscape:bbox-paths="true"
     inkscape:snap-nodes="true"
     inkscape:snap-grids="true"
     inkscape:snap-bbox-edge-midpoints="true"
     inkscape:lockguides="false"
     inkscape:pagecheckerboard="true"
     gridtolerance="10000"
     inkscape:snap-object-midpoints="true"
     inkscape:snap-center="true"
     inkscape:snap-bbox-midpoints="true"
     inkscape:snap-others="false"
     inkscape:document-rotation="0">
    <inkscape:grid
       type="xygrid"
       id="grid4510"
       empspacing="32"
       snapvisiblegridlinesonly="true"
       empcolor="#000000"
       empopacity="0.23529412"
       color="#000000"
       opacity="0.11764706"
       spacingy="0.26458333"
       originx="-1.1689453e-05"
       originy="-508" />
  </sodipodi:namedview>
  <metadata
     id="metadata5">
    <rdf:RDF>
      <cc:Work
         rdf:about="">
        <dc:format>image/svg+xml</dc:format>
        <dc:type
           rdf:resource="http://purl.org/dc/dcmitype/StillImage" />
        <dc:title></dc:title>
      </cc:Work>
    </rdf:RDF>
  </metadata>
  <g
     inkscape:groupmode="layer"
     id="layer2"
     inkscape:label="Skins"
     style="display:inline;opacity:1"
     transform="translate(-1.1689453e-5,-508)">
    <g
       id="brownbear"
       transform="translate(177.80003,355.6001)"
       sodipodi:insensitive="true">
      <rect
         style="vector-effect:none;fill:none;fill-opacity:0.352941;stroke:none;stroke-width:1.71979;stroke-linecap:round;stroke-linejoin:miter;stroke-miterlimit:4;stroke-dasharray:none;stroke-dashoffset:0;stroke-opacity:1;paint-order:stroke fill markers"
         id="rect1347"
         width="67.73333"
         height="33.866665"
         x="-177.80002"
         y="152.3999" />
      <path
         sodipodi:nodetypes="cccccc"
         inkscape:connector-curvature="0"
         id="path1579"
         d="m -167.07795,156.64563 0.91959,2.63343 h 2.30586 v -2.55813 l -1.1072,0.96537 z"
         style="vector-effect:none;fill:#2c2624;fill-opacity:1;stroke:none;stroke-width:1.45521;stroke-linecap:round;stroke-linejoin:miter;stroke-miterlimit:4;stroke-dasharray:none;stroke-dashoffset:0;stroke-opacity:1;paint-order:stroke fill markers" />
      <path
         style="vector-effect:none;fill:#ce8c63;fill-opacity:1;stroke:none;stroke-width:1.71979;stroke-linecap:round;stroke-linejoin:round;stroke-miterlimit:4;stroke-dasharray:none;stroke-dashoffset:0;stroke-opacity:1;paint-order:stroke fill markers"
         d="m -161.88049,163.47782 c -1.33235,-1.33234 -1.33235,-3.3821 0,-4.71445 1.33234,-1.33235 3.40467,-1.4746 4.79692,-0.0824 1.39224,1.39225 1.24988,3.46447 -0.0825,4.79681 -1.33235,1.33235 -3.38211,1.33235 -4.71445,0 z"
         id="path1541"
         inkscape:connector-curvature="0"
         sodipodi:nodetypes="zzzzz" />
      <circle
         transform="scale(1,-1)"
         r="7.4414039"
         cy="-165.36447"
         cx="-164.96771"
         id="circle1545"
         style="vector-effect:none;fill:#ce8c63;fill-opacity:1;stroke:none;stroke-width:0.47625;stroke-linecap:square;stroke-linejoin:miter;stroke-miterlimit:4;stroke-dasharray:none;stroke-dashoffset:0;stroke-opacity:1;paint-order:normal" />
      <path
         style="fill:none;fill-opacity:1;stroke:#2c2624;stroke-width:0.529167;stroke-linecap:butt;stroke-linejoin:miter;stroke-miterlimit:4;stroke-dasharray:none;stroke-dashoffset:0;stroke-opacity:1;paint-order:stroke fill markers"
         d="m -140.04397,180.89552 1.93146,1.93146 h -3.43958"
         id="path1547"
         inkscape:connector-curvature="0"
         sodipodi:nodetypes="ccc" />
      <path
         d="m -122.76668,183.35615 v -2.64584 m -1.32291,1.32292 h 2.64583"
         style="vector-effect:none;fill:#000000;fill-opacity:0.243137;stroke:#2c2624;stroke-width:0.529167;stroke-linecap:square;stroke-linejoin:miter;stroke-miterlimit:4;stroke-dasharray:none;stroke-dashoffset:0;stroke-opacity:1;paint-order:stroke fill markers"
         id="path1550"
         inkscape:connector-curvature="0" />
      <ellipse
         ry="1.9822145"
         rx="1.0120279"
         cy="182.29781"
         cx="-114.16774"
         id="ellipse1554"
         style="vector-effect:none;fill:#ffffff;fill-opacity:1;stroke:#2c2624;stroke-width:0.396875;stroke-linecap:square;stroke-linejoin:miter;stroke-miterlimit:4;stroke-dasharray:none;stroke-dashoffset:0;stroke-opacity:1;paint-order:normal" />
      <path
         id="path1556"
         style="vector-effect:none;fill:#000000;fill-opacity:0.156863;stroke:none;stroke-width:1.8;stroke-linecap:square;stroke-linejoin:miter;stroke-miterlimit:4;stroke-dasharray:none;stroke-dashoffset:0;stroke-opacity:1;paint-order:normal"
         d="m 67.136719,1949.1777 a 28.854194,28.854194 0 0 1 2.908203,12.5137 28.854194,28.854194 0 0 1 -28.853516,28.8535 A 28.854194,28.854194 0 0 1 26.451172,1986.459 28.124991,28.124991 0 0 0 48.5,1997.125 28.124991,28.124991 0 0 0 76.625,1969 a 28.124991,28.124991 0 0 0 -0.685547,-6.0117 l -0.857422,0.1269 h -0.002 a 27.225114,27.225114 0 0 0 -0.130859,-0.5605 c -1.263862,-5.2116 -4.034376,-9.8235 -7.8125,-13.377 z"
         transform="matrix(0.26458333,0,0,0.26458333,-177.80003,-355.6001)" />
      <path
         style="vector-effect:none;fill:none;fill-opacity:1;stroke:#2c2624;stroke-width:0.529167;stroke-linecap:square;stroke-linejoin:miter;stroke-miterlimit:4;stroke-dasharray:none;stroke-dashoffset:0;stroke-opacity:1;paint-order:stroke fill markers"
         d="m -132.55626,182.5624 c 0,-0.81943 0.68114,-1.48371 1.52136,-1.48371 0.84022,0 1.52135,0.66428 1.52135,1.48371"
         id="path1568"
         inkscape:connector-curvature="0"
         sodipodi:nodetypes="csc" />
      <ellipse
         cx="-156.50105"
         cy="182.29781"
         rx="1.0462208"
         ry="2.0435169"
         style="vector-effect:none;fill:#2c2624;fill-opacity:1;stroke:none;stroke-width:0.423333;stroke-linecap:square;stroke-linejoin:miter;stroke-miterlimit:4;stroke-dasharray:none;stroke-dashoffset:0;stroke-opacity:0.294118;paint-order:normal"
         id="ellipse1574" />
      <path
         inkscape:connector-curvature="0"
         style="vector-effect:none;fill:#9a5b34;fill-opacity:1;stroke:none;stroke-width:1.71979;stroke-linecap:round;stroke-linejoin:round;stroke-miterlimit:4;stroke-dasharray:none;stroke-dashoffset:0;stroke-opacity:1;paint-order:stroke fill markers"
         d="m -159.29468,158.98658 c -0.50094,0.0179 -0.99129,0.24681 -1.39474,0.58239 1.05094,0.77676 1.88189,1.83268 2.38538,3.05873 0.0508,-0.043 0.0999,-0.0885 0.14728,-0.13591 0.77364,-0.77365 1.14714,-2.00151 0.2005,-2.94814 -0.41415,-0.41416 -0.88033,-0.57343 -1.33842,-0.55707 z"
         id="path1576" />
      <ellipse
         style="vector-effect:none;fill:#d9b7a0;fill-opacity:1;stroke:none;stroke-width:1.71995;stroke-linecap:round;stroke-linejoin:miter;stroke-miterlimit:4;stroke-dasharray:none;stroke-dashoffset:0;stroke-opacity:1;paint-order:stroke fill markers"
         id="ellipse1580"
         cx="-202.47206"
         cy="121.55235"
         rx="1.9788142"
         ry="2.1276369"
         transform="matrix(0.96829815,-0.2497973,0.26811839,0.96338597,0,0)" />
      <ellipse
         transform="matrix(-0.96829815,-0.2497973,-0.26811839,0.96338597,0,0)"
         ry="2.1276369"
         rx="1.9788142"
         cy="203.98415"
         cx="115.44031"
         id="ellipse1582"
         style="vector-effect:none;fill:#d9b7a0;fill-opacity:1;stroke:none;stroke-width:1.71995;stroke-linecap:round;stroke-linejoin:miter;stroke-miterlimit:4;stroke-dasharray:none;stroke-dashoffset:0;stroke-opacity:1;paint-order:stroke fill markers" />
      <path
         sodipodi:nodetypes="zzzzz"
         inkscape:connector-curvature="0"
         id="path1584"
         d="m -168.05728,163.47782 c 1.33234,-1.33234 1.33235,-3.3821 0,-4.71445 -1.33235,-1.33235 -3.40468,-1.4746 -4.79693,-0.0824 -1.39224,1.39225 -1.24987,3.46447 0.0825,4.79681 1.33235,1.33235 3.38211,1.33235 4.71446,0 z"
         style="vector-effect:none;fill:#ce8c63;fill-opacity:1;stroke:none;stroke-width:1.71979;stroke-linecap:round;stroke-linejoin:round;stroke-miterlimit:4;stroke-dasharray:none;stroke-dashoffset:0;stroke-opacity:1;paint-order:stroke fill markers" />
      <path
         id="path1586"
         d="m -170.6431,158.98658 c 0.50094,0.0179 0.99129,0.24681 1.39475,0.58239 -1.05095,0.77676 -1.8819,1.83268 -2.38539,3.05873 -0.0508,-0.043 -0.0999,-0.0885 -0.14728,-0.13591 -0.77364,-0.77365 -1.14714,-2.00151 -0.2005,-2.94814 0.41415,-0.41416 0.88033,-0.57343 1.33842,-0.55707 z"
         style="vector-effect:none;fill:#9a5b34;fill-opacity:1;stroke:none;stroke-width:1.71979;stroke-linecap:round;stroke-linejoin:round;stroke-miterlimit:4;stroke-dasharray:none;stroke-dashoffset:0;stroke-opacity:1;paint-order:stroke fill markers"
         inkscape:connector-curvature="0" />
      <path
         inkscape:connector-curvature="0"
         style="vector-effect:none;fill:none;fill-opacity:1;stroke:#2c2624;stroke-width:0.582083;stroke-linecap:round;stroke-linejoin:miter;stroke-miterlimit:4;stroke-dasharray:none;stroke-dashoffset:0;stroke-opacity:1;paint-order:stroke fill markers"
         d="m -170.43304,157.70036 c -0.85865,-0.0281 -1.72492,0.2847 -2.42104,0.98082 -1.39224,1.39224 -1.25018,3.46426 0.0822,4.7966 0.16183,0.16184 0.33478,0.3033 0.51521,0.42582 a 7.4414038,7.4414038 0 0 0 -0.15244,1.46089 7.4414038,7.4414038 0 0 0 7.4414,7.44141 7.4414038,7.4414038 0 0 0 7.44141,-7.44141 7.4414038,7.4414038 0 0 0 -0.14676,-1.46709 c 0.17748,-0.12126 0.34754,-0.26022 0.50694,-0.41962 1.33235,-1.33234 1.47493,-3.40436 0.0827,-4.7966 -1.35274,-1.35273 -3.34558,-1.25346 -4.67982,-0.0248 a 7.4414038,7.4414038 0 0 0 -3.20445,-0.73329 7.4414038,7.4414038 0 0 0 -3.20446,0.73536 c -0.64803,-0.59773 -1.44995,-0.93156 -2.26084,-0.95808 z"
         id="path1588" />
      <path
         id="path1590"
         d="m -145.03304,157.70036 c -0.85865,-0.0281 -1.72491,0.2847 -2.42104,0.98082 -1.39224,1.39224 -1.25018,3.46426 0.0822,4.7966 0.16184,0.16184 0.33478,0.3033 0.51522,0.42582 a 7.4414038,7.4414038 0 0 0 -0.15245,1.46089 7.4414038,7.4414038 0 0 0 7.44141,7.44141 7.4414038,7.4414038 0 0 0 7.4414,-7.44141 7.4414038,7.4414038 0 0 0 -0.14676,-1.46709 c 0.17748,-0.12126 0.34755,-0.26022 0.50695,-0.41962 1.33235,-1.33234 1.47493,-3.40436 0.0827,-4.7966 -1.35274,-1.35274 -3.34558,-1.25346 -4.67981,-0.0248 a 7.4414038,7.4414038 0 0 0 -3.20446,-0.73329 7.4414038,7.4414038 0 0 0 -3.20445,0.73535 c -0.64804,-0.59773 -1.44996,-0.93156 -2.26085,-0.95808 z"
         style="vector-effect:none;fill:#2c2624;fill-opacity:1;stroke:#2c2624;stroke-width:1.71979;stroke-linecap:round;stroke-linejoin:miter;stroke-miterlimit:4;stroke-dasharray:none;stroke-dashoffset:0;stroke-opacity:1;paint-order:stroke fill markers"
         inkscape:connector-curvature="0" />
      <path
         style="vector-effect:none;fill:#2c2624;fill-opacity:1;stroke:#2c2624;stroke-width:1.45521;stroke-linecap:round;stroke-linejoin:miter;stroke-miterlimit:4;stroke-dasharray:none;stroke-dashoffset:0;stroke-opacity:1;paint-order:stroke fill markers"
         d="m -141.67795,156.64563 0.91959,2.63343 h 2.30586 v -2.55813 l -1.1072,0.96537 z"
         id="path1583"
         inkscape:connector-curvature="0"
         sodipodi:nodetypes="cccccc" />
      <path
         id="path2279"
         style="vector-effect:none;fill:#2c2624;fill-opacity:1;stroke:none;stroke-width:0.423333;stroke-linecap:square;stroke-linejoin:miter;stroke-miterlimit:4;stroke-dasharray:none;stroke-dashoffset:0;stroke-opacity:0.294118;paint-order:normal"
         sodipodi:type="arc"
         sodipodi:cx="-148.03445"
         sodipodi:cy="182.29779"
         sodipodi:rx="1.0462208"
         sodipodi:ry="2.0435169"
         sodipodi:start="0"
         sodipodi:end="4.3030532"
         sodipodi:arc-type="chord"
         d="m -146.98823,182.29779 a 1.0462208,2.0435169 0 0 1 -0.90392,2.02452 1.0462208,2.0435169 0 0 1 -1.14981,-1.47376 1.0462208,2.0435169 0 0 1 0.59111,-2.42545 z"
         sodipodi:open="true" />
      <path
         style="display:inline;opacity:1;vector-effect:none;fill:none;fill-opacity:1;stroke:#000000;stroke-width:0;stroke-linecap:round;stroke-linejoin:miter;stroke-miterlimit:4;stroke-dasharray:none;stroke-dashoffset:0;stroke-opacity:1;paint-order:normal"
         d="m -125.09495,156.956 c 0,-1.72401 1.5357,-2.09564 2.87532,-2.09564 1.80381,0 1.77809,0.76935 1.77809,2.26957 0,1.50023 -0.44225,2.07732 -1.7263,2.07732 -1.86241,0 -2.92711,-0.84162 -2.92711,-2.25125 z"
         id="path2564"
         inkscape:connector-curvature="0"
         sodipodi:nodetypes="sszss" />
      <path
         style="display:inline;opacity:1;vector-effect:none;fill:#ce8c63;fill-opacity:1;stroke:none;stroke-width:0.47625;stroke-linecap:round;stroke-linejoin:miter;stroke-miterlimit:4;stroke-dasharray:none;stroke-dashoffset:0;stroke-opacity:1;paint-order:normal"
         d="m -125.17436,156.95329 c 0,-1.78416 1.58894,-2.16876 2.97498,-2.16876 1.81398,0 1.83972,0.69123 1.83972,2.34876 0,1.65753 -0.45757,2.14979 -1.78613,2.14979 -1.92696,0 -3.02857,-0.87099 -3.02857,-2.32979 z"
         id="path2566"
         inkscape:connector-curvature="0"
         sodipodi:nodetypes="sszss" />
      <path
         id="path2568"
         style="font-variation-settings:normal;display:inline;opacity:1;vector-effect:none;fill:#000000;fill-opacity:0.2;stroke:none;stroke-width:1.45521;stroke-linecap:square;stroke-linejoin:miter;stroke-miterlimit:4;stroke-dasharray:none;stroke-dashoffset:0;stroke-opacity:1;paint-order:stroke fill markers;stop-color:#000000;stop-opacity:1"
         d="m -121.44528,154.84375 c 0.15609,0.83755 0.29571,2.18346 -0.25167,2.89647 -0.49433,0.64392 -1.55677,1.02614 -2.35127,1.1374 0.48981,0.26279 1.12806,0.40566 1.9022,0.40566 1.32857,0 1.78646,-0.49221 1.78646,-2.14974 0,-1.38481 -0.022,-2.09353 -1.08572,-2.28979 z" />
      <path
         style="display:inline;opacity:1;vector-effect:none;fill:none;fill-opacity:1;stroke:#2c2624;stroke-width:0.47625;stroke-linecap:round;stroke-linejoin:miter;stroke-miterlimit:4;stroke-dasharray:none;stroke-dashoffset:0;stroke-opacity:1;paint-order:normal"
         d="m -125.17436,156.95329 c 0,-1.78416 1.58894,-2.16876 2.97498,-2.16876 1.81398,0 1.83972,0.69123 1.83972,2.34876 0,1.65753 -0.45757,2.14979 -1.78613,2.14979 -1.92696,0 -3.02857,-0.87099 -3.02857,-2.32979 z"
         id="path2570"
         inkscape:connector-curvature="0"
         sodipodi:nodetypes="sszss" />
      <path
         sodipodi:nodetypes="ssssss"
         inkscape:connector-curvature="0"
         id="path2572"
         d="m -118.58477,172.31392 c 1.33602,0 3.47525,0.63096 3.5216,1.8306 0.0251,0.64859 -0.72375,1.13714 -1.72287,1.13714 h -2.70733 c -0.78816,0 -1.78706,-0.0606 -1.71529,-1.29751 0.0589,-1.016 1.02198,-1.67023 2.62389,-1.67023 z"
         style="font-variation-settings:normal;display:inline;opacity:1;vector-effect:none;fill:#2c2624;fill-opacity:1;stroke:#2c2624;stroke-width:1.32292;stroke-linecap:round;stroke-linejoin:miter;stroke-miterlimit:4;stroke-dasharray:none;stroke-dashoffset:0;stroke-opacity:1;paint-order:normal;stop-color:#000000;stop-opacity:1" />
      <path
         style="display:inline;opacity:1;vector-effect:none;fill:#2c2624;fill-opacity:1;stroke:#2c2624;stroke-width:1.05833;stroke-linecap:round;stroke-linejoin:miter;stroke-miterlimit:4;stroke-dasharray:none;stroke-dashoffset:0;stroke-opacity:1;paint-order:normal"
         d="m -116.70769,156.95329 c 0,-1.78416 1.58893,-2.16876 2.97498,-2.16876 1.81398,0 1.83972,0.69123 1.83972,2.34876 0,1.65753 -0.45758,2.14979 -1.78614,2.14979 -1.92695,0 -3.02856,-0.87099 -3.02856,-2.32979 z"
         id="path2574"
         inkscape:connector-curvature="0"
         sodipodi:nodetypes="sszss" />
      <path
         sodipodi:nodetypes="ssssss"
         inkscape:connector-curvature="0"
         id="path2576"
         d="m -118.58477,163.84725 c 1.33602,0 3.47525,0.63096 3.5216,1.8306 0.0251,0.64859 -0.72375,1.13715 -1.72287,1.13715 h -2.70733 c -0.78816,0 -1.78706,-0.0606 -1.71529,-1.29752 0.0589,-1.01599 1.02198,-1.67023 2.62389,-1.67023 z"
         style="font-variation-settings:normal;display:inline;opacity:1;vector-effect:none;fill:#87502c;fill-opacity:1;stroke:none;stroke-width:0.47625;stroke-linecap:round;stroke-linejoin:miter;stroke-miterlimit:4;stroke-dasharray:none;stroke-dashoffset:0;stroke-opacity:1;paint-order:normal;stop-color:#000000;stop-opacity:1" />
      <path
         id="path2578"
         style="font-variation-settings:normal;display:inline;opacity:1;vector-effect:none;fill:#000000;fill-opacity:0.2;stroke:none;stroke-width:1.45521;stroke-linecap:square;stroke-linejoin:miter;stroke-miterlimit:4;stroke-dasharray:none;stroke-dashoffset:0;stroke-opacity:1;paint-order:stroke fill markers;stop-color:#000000;stop-opacity:1"
         d="m -118.1845,166.15831 c -0.12929,-0.002 -0.2588,-4.8e-4 -0.38809,0.004 -0.75938,0.0243 -1.51571,0.15321 -2.25154,0.37362 0.34891,0.25721 0.8743,0.27957 1.33066,0.27957 h 2.70733 c 0.42921,0 0.80694,-0.0943 1.10226,-0.24857 -0.8159,-0.25294 -1.65664,-0.3964 -2.50062,-0.40824 z" />
      <path
         sodipodi:nodetypes="ssssss"
         inkscape:connector-curvature="0"
         id="path2581"
         d="m -118.58477,163.84725 c 1.33602,0 3.47525,0.63096 3.5216,1.8306 0.0251,0.64859 -0.72375,1.13715 -1.72287,1.13715 h -2.70733 c -0.78816,0 -1.78706,-0.0606 -1.71529,-1.29752 0.0589,-1.01599 1.02198,-1.67023 2.62389,-1.67023 z"
         style="font-variation-settings:normal;display:inline;opacity:1;vector-effect:none;fill:none;fill-opacity:1;stroke:#2c2624;stroke-width:0.47625;stroke-linecap:round;stroke-linejoin:miter;stroke-miterlimit:4;stroke-dasharray:none;stroke-dashoffset:0;stroke-opacity:1;paint-order:normal;stop-color:#000000;stop-opacity:1" />
    </g>
  </g>
</svg>
