<?xml version="1.0" encoding="UTF-8" standalone="no"?>
<svg
   width="256"
   height="128"
   viewBox="0 0 67.733332 33.866668"
   version="1.1"
   id="svg62"
   sodipodi:docname="ghost.svg"
   inkscape:version="1.1.1 (3bf5ae0d25, 2021-09-20)"
   xmlns:inkscape="http://www.inkscape.org/namespaces/inkscape"
   xmlns:sodipodi="http://sodipodi.sourceforge.net/DTD/sodipodi-0.dtd"
   xmlns="http://www.w3.org/2000/svg"
   xmlns:svg="http://www.w3.org/2000/svg"
   xmlns:rdf="http://www.w3.org/1999/02/22-rdf-syntax-ns#"
   xmlns:cc="http://creativecommons.org/ns#"
   xmlns:dc="http://purl.org/dc/elements/1.1/">
  <sodipodi:namedview
     id="namedview56"
     pagecolor="#ffffff"
     bordercolor="#666666"
     borderopacity="1.0"
     inkscape:pageshadow="2"
     inkscape:pageopacity="0.0"
     inkscape:pagecheckerboard="0"
     showgrid="false"
     inkscape:zoom="2.3730469"
     inkscape:cx="120.30946"
     inkscape:cy="122.83786"
     inkscape:window-width="2560"
     inkscape:window-height="1352"
     inkscape:window-x="0"
     inkscape:window-y="0"
     inkscape:window-maximized="1"
     inkscape:current-layer="layer1" />
  <metadata
     id="metadata4524">
    <rdf:RDF>
      <cc:Work
         rdf:about="">
        <dc:format>image/svg+xml</dc:format>
        <dc:type
           rdf:resource="http://purl.org/dc/dcmitype/StillImage" />
      </cc:Work>
    </rdf:RDF>
  </metadata>
  <defs
     id="defs59">
    <rect
       x="2.4087666"
       y="-13.446998"
       width="25.175109"
       height="12.479337"
       id="rect2046" />
    <rect
       x="2.4087666"
       y="-13.446998"
       width="25.175109"
       height="12.479337"
       id="rect2068" />
    <rect
       x="-1.7528646"
       y="-19.149219"
       width="23.514844"
       height="12.766146"
       id="rect2074" />
  </defs>
  <g
     id="layer1">
    <path
       id="path1251"
       style="fill:#bcbcc3;fill-opacity:0.74902;fill-rule:evenodd;stroke:none;stroke-width:1.83341;stroke-linecap:round;stroke-linejoin:round;paint-order:markers fill stroke"
       d="m 209.59961,10.212891 c -4.89366,-0.01366 -9.34489,3.003292 -9.37891,7.863281 -0.0223,3.148601 2.11357,5.067133 4.98047,6.015625 a 13.555076,13.555076 0 0 0 10.29492,-11.056641 c -0.94202,-1.767631 -2.73734,-2.813434 -5.89648,-2.822265 z"
       transform="scale(0.26458334)" />
    <path
       id="path1262"
       style="fill:#8d8d92;fill-opacity:0.8;fill-rule:evenodd;stroke:none;stroke-width:1.83341;stroke-linecap:round;stroke-linejoin:round;paint-order:markers fill stroke"
       d="M 215.49805,13.037109 A 13.555076,13.555076 0 0 1 205.20508,24.09375 c 1.46279,0.483359 3.11255,0.718267 4.76953,0.726562 5.29561,0.0268 6.43479,-2.601158 6.41211,-7.357421 -0.008,-1.741476 -0.25938,-3.243578 -0.88867,-4.425782 z"
       transform="scale(0.26458334)" />
    <text
       id="text1310"
       y="33.043976"
       x="2.2530901"
       style="font-style:normal;font-variant:normal;font-weight:normal;font-stretch:normal;font-size:1.41111px;line-height:1.25;font-family:'Segoe Print';-inkscape-font-specification:'Segoe Print, Normal';font-variant-ligatures:normal;font-variant-caps:normal;font-variant-numeric:normal;font-feature-settings:normal;text-align:start;letter-spacing:0px;word-spacing:0px;writing-mode:lr-tb;text-anchor:start;fill:#000000;fill-opacity:1;stroke:#000000;stroke-width:0.05;stroke-miterlimit:4;stroke-dasharray:none;stroke-opacity:1"
       xml:space="preserve"><tspan
         style="font-style:normal;font-variant:normal;font-weight:normal;font-stretch:normal;font-size:1.41111px;font-family:'Segoe Print';-inkscape-font-specification:'Segoe Print, Normal';font-variant-ligatures:normal;font-variant-caps:normal;font-variant-numeric:normal;font-feature-settings:normal;text-align:start;writing-mode:lr-tb;text-anchor:start;stroke:#000000;stroke-width:0.05;stroke-miterlimit:4;stroke-dasharray:none;stroke-opacity:1"
         y="33.043976"
         x="2.2530901"
         id="tspan1308">redrawn by mind</tspan></text>
    <path
       id="path1306-6"
       style="fill:none;fill-opacity:1;stroke:#000000;stroke-width:0.565;stroke-linecap:round;stroke-linejoin:miter;stroke-miterlimit:4;stroke-dasharray:none;stroke-opacity:0.74902"
       d="m 56.105345,29.831074 -2.485919,0.008 m 1.23916,-1.247159 0.008,2.485918" />
    <path
       style="opacity:1;fill:none;fill-opacity:1;stroke:#000000;stroke-width:0.580552;stroke-linecap:round;stroke-linejoin:miter;stroke-miterlimit:4;stroke-dasharray:none;stroke-opacity:0.74902"
       d="m 45.062546,30.359587 c 0.07395,-2.31027 3.002053,-2.28095 3.172863,0"
       id="path1312-6" />
    <path
       style="opacity:1;fill:none;fill-opacity:1;stroke:#000000;stroke-width:0.580552;stroke-linecap:round;stroke-linejoin:round;stroke-miterlimit:4;stroke-dasharray:none;stroke-opacity:0.74902"
       d="m 36.169442,30.429097 3.595333,-0.0181 -1.841318,-2.05067"
       id="path1314-9" />
    <path
       id="ellipse1328-6"
       style="fill:#000000;fill-opacity:0.74902;fill-rule:evenodd;stroke:none;stroke-width:2.65652;stroke-linecap:round;stroke-linejoin:round;paint-order:markers fill stroke"
       d="m 240.51172,103.60938 a 4.9608448,8.8520103 0 0 0 -4.95508,8.85156 4.9608448,8.8520103 0 0 0 4.96094,8.85156 4.9608448,8.8520103 0 0 0 4.96094,-8.85156 4.9608448,8.8520103 0 0 0 -4.96094,-8.85156 4.9608448,8.8520103 0 0 0 -0.006,0 z m -0.0586,2.07031 a 2.9979461,6.7755123 0 0 1 2.99805,6.77539 2.9979461,6.7755123 0 0 1 -2.99805,6.77539 2.9979461,6.7755123 0 0 1 -2.99804,-6.77539 2.9979461,6.7755123 0 0 1 2.99804,-6.77539 z"
       transform="scale(0.26458334)" />
    <ellipse
       style="fill:#ffffff;fill-opacity:0.74902;fill-rule:evenodd;stroke:none;stroke-width:0.478035;stroke-linecap:round;stroke-linejoin:round;paint-order:markers fill stroke"
       id="ellipse1330-1"
       ry="1.7926877"
       rx="0.79320657"
       cy="29.753685"
       cx="63.619984" />
    <path
       id="path1332-5"
       d="m 29.292276,27.939387 a 1.1515931,2.1166668 0 0 0 -0.717272,1.95854 1.1515931,2.1166668 0 0 0 1.15135,2.11666 1.1515931,2.1166668 0 0 0 1.151872,-2.11666 1.1515931,2.1166668 0 0 0 -0.003,-0.13333 z"
       style="fill:#000000;fill-opacity:0.74902;fill-rule:evenodd;stroke:none;stroke-width:0.625878;stroke-linecap:round;stroke-linejoin:round;paint-order:markers fill stroke" />
    <ellipse
       style="fill:#000000;fill-opacity:0.74902;fill-rule:evenodd;stroke:none;stroke-width:0.625878;stroke-linecap:round;stroke-linejoin:round;paint-order:markers fill stroke"
       id="ellipse1964-5"
       ry="2.1166668"
       rx="1.1515931"
       cy="29.897949"
       cx="21.259912" />
    <path
       style="color:#000000;font-style:normal;font-variant:normal;font-weight:normal;font-stretch:normal;font-size:medium;line-height:normal;font-family:sans-serif;font-variant-ligatures:normal;font-variant-position:normal;font-variant-caps:normal;font-variant-numeric:normal;font-variant-alternates:normal;font-feature-settings:normal;text-indent:0;text-align:start;text-decoration:none;text-decoration-line:none;text-decoration-style:solid;text-decoration-color:#000000;letter-spacing:normal;word-spacing:normal;text-transform:none;writing-mode:lr-tb;direction:ltr;text-orientation:mixed;dominant-baseline:auto;baseline-shift:baseline;text-anchor:start;white-space:normal;shape-padding:0;clip-rule:nonzero;display:inline;overflow:visible;visibility:visible;opacity:1;isolation:auto;mix-blend-mode:normal;color-interpolation:sRGB;color-interpolation-filters:linearRGB;solid-color:#000000;solid-opacity:1;vector-effect:none;fill:#000000;fill-opacity:0.74902;fill-rule:evenodd;stroke:none;stroke-width:1.05833;stroke-linecap:round;stroke-linejoin:round;stroke-miterlimit:4;stroke-dasharray:none;stroke-dashoffset:0;stroke-opacity:1;paint-order:markers fill stroke;color-rendering:auto;image-rendering:auto;shape-rendering:auto;text-rendering:auto;enable-background:accumulate"
       d="m 55.466907,2.1202803 c -0.774071,-0.0022 -1.5201,0.230974 -2.09754,0.685231 -0.577451,0.454253 -0.975231,1.155505 -0.980821,1.976623 -0.006,0.827715 0.465629,1.492015 1.080029,1.857767 0.61441,0.365755 1.359551,0.50583 2.096,0.509529 0.807302,0.0041 1.46,-0.222993 1.837611,-0.722434 0.377621,-0.499443 0.440901,-1.11973 0.43771,-1.808676 -0.003,-0.650859 -0.110461,-1.273715 -0.507989,-1.760101 -0.397521,-0.486381 -1.052161,-0.735666 -1.865,-0.737939 z m -0.01029,0.581877 c 1.39505,0.0039 1.79056,0.767972 1.795759,1.918229 0.006,1.258428 -0.29541,1.953742 -1.69654,1.946651 -1.29826,-0.0065 -2.589628,-0.525965 -2.580719,-1.784387 0.009,-1.285872 1.186719,-2.084107 2.4815,-2.080493 z"
       id="path1253" />
    <text
       xml:space="preserve"
       id="text2064"
       style="font-style:normal;font-variant:normal;font-weight:normal;font-stretch:normal;font-size:3.52778px;line-height:1.25;font-family:'Know Your Product';-inkscape-font-specification:'Know Your Product, Normal';font-variant-ligatures:normal;font-variant-caps:normal;font-variant-numeric:normal;font-variant-east-asian:normal;text-align:start;letter-spacing:0px;word-spacing:0px;writing-mode:lr-tb;white-space:pre;shape-inside:url(#rect2068);fill:#fcdc56;fill-opacity:1;stroke:#b66314;stroke-width:0.529167;stroke-miterlimit:4;stroke-dasharray:none;stroke-opacity:1;paint-order:stroke fill markers"
       transform="translate(0.84335917,41.258461)"><tspan
         x="2.4082031"
         y="-10.269602"
         id="tspan1547">whis</tspan></text>
    <text
       xml:space="preserve"
       id="text2072"
       style="font-style:italic;font-variant:normal;font-weight:bold;font-stretch:normal;font-size:2.03698px;line-height:1.25;font-family:Corbel;-inkscape-font-specification:'Corbel, Bold Italic';font-variant-ligatures:normal;font-variant-caps:normal;font-variant-numeric:normal;font-variant-east-asian:normal;text-align:start;letter-spacing:0px;word-spacing:0px;writing-mode:lr-tb;white-space:pre;shape-inside:url(#rect2074);fill:#000000;fill-opacity:1;stroke:none"
       transform="matrix(1.0391195,0,0,1.0391195,6.4912876,45.542768)"><tspan
         x="-1.7519531"
         y="-17.346188"
         id="tspan1549">Made by</tspan></text>
    <path
       id="path2155"
       style="opacity:1;fill:#bcbcc3;fill-opacity:0.74902;fill-rule:evenodd;stroke:none;stroke-width:2.28874;stroke-linecap:square;stroke-linejoin:miter;stroke-miterlimit:4;stroke-dasharray:none;stroke-opacity:0.45098;paint-order:markers fill stroke"
       d="M 48.511719,22.009766 C 30.208173,22.009766 21.019531,37.11851 21.019531,48 c 0,18.996525 -3.585937,23.619873 -3.585937,26.023438 0,2.403564 3.237926,-1.873047 8.591797,-1.873047 5.353872,0 7.321417,8.609375 10.896484,8.609375 3.57507,0 9.128944,-4.007813 13.679687,-4.007813 4.550741,0 9.460168,4.916016 12.90625,4.916016 3.446083,0 4.096168,-4.251666 7.353516,-6.845703 3.257352,-2.594041 7.129393,0.434541 8.316406,-2.175782 1.187018,-2.610323 -4.189453,-6.496186 -4.189453,-24.658203 0,-9.952206 -8.173021,-25.978515 -26.476562,-25.978515 z m -8.185547,1.78125 c 1.668372,-0.08527 2.946502,0.474603 3.486328,1.802734 2.467774,6.071461 -12.319578,4.712582 -20.375,18.09375 0,-11.067269 10.9302,-19.591944 16.888672,-19.896484 z"
       transform="scale(0.26458334)" />
    <path
       style="fill:#efeff0;fill-opacity:0.92549;stroke:none;stroke-width:0.264583px;stroke-linecap:butt;stroke-linejoin:miter;stroke-opacity:1"
       d="m 6.2011726,11.558983 c 0,-3.7481151 4.7379534,-6.3937125 5.3908854,-4.7873064 0.652932,1.6064073 -3.2595551,1.2468723 -5.3908854,4.7873064 z"
       id="path2157" />
    <path
       style="fill:#000000;fill-opacity:0.2;stroke:none;stroke-width:0.264583px;stroke-linecap:butt;stroke-linejoin:miter;stroke-opacity:1"
       d="m 11.796513,14.502472 c -0.955304,0.814446 -2.101533,3.966601 -1.031278,5.903516 0.304683,0.520969 2.12965,-0.185426 1.984375,-0.909506 -0.201367,-1.045589 -1.012772,-1.645129 -0.953097,-4.99401 z"
       id="path2159" />
    <path
       style="fill:#000000;fill-opacity:0.2;stroke:none;stroke-width:0.264583px;stroke-linecap:butt;stroke-linejoin:miter;stroke-opacity:1"
       d="m 15.727141,14.094636 c 0.443893,0.810877 0.89664,2.380113 1.046913,3.505451 0.119616,0.895752 -0.06032,1.872305 0.106441,2.792599 0.210475,1.199016 1.81609,-0.749975 1.716871,-1.419701 -0.234503,-1.586488 -1.524106,-4.860651 -2.870227,-4.878349 z"
       id="path2161" />
    <path
       id="path2163"
       style="color:#000000;font-style:normal;font-variant:normal;font-weight:normal;font-stretch:normal;font-size:medium;line-height:normal;font-family:sans-serif;font-variant-ligatures:normal;font-variant-position:normal;font-variant-caps:normal;font-variant-numeric:normal;font-variant-alternates:normal;font-variant-east-asian:normal;font-feature-settings:normal;font-variation-settings:normal;text-indent:0;text-align:start;text-decoration:none;text-decoration-line:none;text-decoration-style:solid;text-decoration-color:#000000;letter-spacing:normal;word-spacing:normal;text-transform:none;writing-mode:lr-tb;direction:ltr;text-orientation:mixed;dominant-baseline:auto;baseline-shift:baseline;text-anchor:start;white-space:normal;shape-padding:0;shape-margin:0;inline-size:0;clip-rule:nonzero;display:inline;overflow:visible;visibility:visible;isolation:auto;mix-blend-mode:normal;color-interpolation:sRGB;color-interpolation-filters:linearRGB;solid-color:#000000;solid-opacity:1;vector-effect:none;fill:#000000;fill-opacity:0.74902;fill-rule:evenodd;stroke:none;stroke-width:1;stroke-linecap:square;stroke-linejoin:miter;stroke-miterlimit:4;stroke-dasharray:none;stroke-dashoffset:0;stroke-opacity:1;paint-order:markers fill stroke;color-rendering:auto;image-rendering:auto;shape-rendering:auto;text-rendering:auto;enable-background:accumulate;stop-color:#000000"
       d="m 12.835905,4.7650825 c -2.712625,0 -4.8526891,1.1539621 -6.2440644,2.7130114 -1.3913751,1.559052 -2.0877261,3.4850021 -2.0877261,5.2224201 0,2.446486 -0.229627,3.916736 -0.447519,4.847767 -0.217892,0.93103 -0.501777,1.19277 -0.501777,2.037085 0,0.198303 -0.007,0.505706 0.300757,0.857312 0.307758,0.351606 0.841388,0.417895 1.082104,0.378788 0.4814301,-0.07821 0.5796751,-0.208865 0.7673951,-0.306441 0.375435,-0.195153 0.753276,-0.367419 1.179771,-0.367419 0.07049,0 0.1106464,0.0077 0.2480474,0.119372 0.137406,0.111661 0.324758,0.32983 0.5234839,0.59583 0.198726,0.265999 0.404942,0.574645 0.697116,0.880566 0.292174,0.305922 0.754684,0.681612 1.4159341,0.681612 0.868431,0 1.494869,-0.351121 2.119249,-0.611332 0.624379,-0.260211 1.208831,-0.447001 1.500169,-0.447001 0.220929,0 0.731816,0.201049 1.304829,0.517281 0.573011,0.316232 1.150287,0.781348 2.109431,0.781348 0.445569,0 0.88927,-0.167448 1.195276,-0.392741 0.306007,-0.225293 0.496679,-0.474537 0.654225,-0.692981 0.315089,-0.436888 0.518162,-0.765969 0.75551,-0.954981 0.114054,-0.09083 0.176855,-0.0866 0.572574,-0.05891 0.197858,0.01384 0.451673,0.0561 0.834056,-0.02532 0.382387,-0.08142 0.89742,-0.440857 1.097609,-0.881083 0.244094,-0.536778 0.114786,-1.060455 0,-1.406116 -0.114787,-0.345661 -0.252384,-0.658173 -0.396359,-1.087789 -0.287949,-0.859231 -0.617533,-2.170725 -0.617533,-4.468978 0,-1.606306 -0.612933,-3.5036491 -1.927532,-5.0973641 C 17.656336,6.0053036 15.566217,4.7650845 12.835905,4.7650845 Z m -5.16e-4,1.0583331 c 4.842812,0 7.005257,4.2402924 7.005257,6.8734814 0,4.805368 1.422524,5.833502 1.108459,6.52415 -0.314064,0.690648 -1.338541,-0.110664 -2.200381,0.575676 -0.861841,0.686339 -1.033844,1.811259 -1.945619,1.811259 -0.911776,0 -2.210729,-1.300696 -3.414779,-1.300696 -1.20405,0 -2.673511,1.060401 -3.619415,1.060401 -0.9459041,0 -1.4664851,-2.277898 -2.8830304,-2.277898 -1.416545,0 -2.2732471,1.13152 -2.2732471,0.495577 0,-0.635943 0.9487801,-1.859204 0.9487801,-6.885368 0,-2.879061 2.4311613,-6.8765824 7.2739754,-6.8765824 z" />
    <path
       id="path2165"
       style="fill:#000000;fill-opacity:0.298039;stroke:none;stroke-width:0.264583px;stroke-linecap:butt;stroke-linejoin:miter;stroke-opacity:1"
       d="m 15.122072,17.472317 c -1.007486,0.03416 -2.888213,0.998905 -3.645773,0.998905 -0.865783,0 -1.084795,-0.479557 -2.3481771,-0.479557 -0.815206,0 -2.3716893,0.408347 -3.3760233,1.33842 0.321479,-0.130034 0.697325,-0.240296 1.133782,-0.240296 1.4165453,0 1.9371263,2.277898 2.8830304,2.277898 0.945904,0 2.415365,-1.060401 3.619415,-1.060401 1.20405,0 2.503003,1.300696 3.414779,1.300696 0.911775,0 1.083778,-1.12492 1.945619,-1.811259 0.86184,-0.68634 1.886317,0.114972 2.200381,-0.575676 0.04895,-0.107651 0.05189,-0.226209 0.02842,-0.363285 -0.413912,-0.207966 -0.818267,-0.33848 -1.137399,-0.33848 -1.108805,0 -1.724298,0.857363 -2.961577,0.588078 -1.237282,-0.269286 -0.564226,-1.278033 -1.383895,-1.586984 -0.10246,-0.03862 -0.228661,-0.05294 -0.372586,-0.04806 z" />
    <path
       id="path2167"
       style="fill:#000000;fill-opacity:0.2;stroke:none;stroke-width:0.264583px;stroke-linecap:butt;stroke-linejoin:miter;stroke-opacity:0"
       d="m 8.3147339,14.616677 c -0.9106829,0.7365 -1.3744549,2.192167 -1.8443313,3.006018 -0.256106,0.443587 -0.746067,1.108982 -1.094507,1.874821 0.381055,-0.190966 0.887606,-0.407727 1.509985,-0.407727 0.3663714,0 0.6721823,0.153892 0.9415443,0.379822 -0.112239,-1.647077 -0.109898,-3.22696 0.487309,-4.852934 z" />
    <path
       id="path2122"
       style="fill:#000000;fill-opacity:0.2;stroke:none;stroke-width:0.264583px;stroke-linecap:butt;stroke-linejoin:miter;stroke-opacity:1"
       d="m 16.896644,8.3064666 c 2.529592,2.3474904 1.53783,5.1861494 1.53783,7.7173594 0,2.206443 2.124854,3.447842 2.124854,2.69442 0,-0.753422 -0.950188,-1.484922 -0.950188,-5.214529 0,-2.37975 -1.171585,-4.9680084 -2.712496,-5.1972504 z" />
  </g>
</svg>
