<?xml version="1.0" encoding="UTF-8" standalone="no"?>
<svg
   xmlns:dc="http://purl.org/dc/elements/1.1/"
   xmlns:cc="http://creativecommons.org/ns#"
   xmlns:rdf="http://www.w3.org/1999/02/22-rdf-syntax-ns#"
   xmlns:svg="http://www.w3.org/2000/svg"
   xmlns="http://www.w3.org/2000/svg"
   id="svg62"
   version="1.1"
   viewBox="0 0 67.733332 33.866668"
   height="128"
   width="256">
  <metadata
     id="metadata4524">
    <rdf:RDF>
      <cc:Work
         rdf:about="">
        <dc:format>image/svg+xml</dc:format>
        <dc:type
           rdf:resource="http://purl.org/dc/dcmitype/StillImage" />
        <dc:title></dc:title>
      </cc:Work>
    </rdf:RDF>
  </metadata>
  <defs
     id="defs59" />
  <path
     id="path1318"
     d="m 62.890025,13.161368 c -0.006,1.09191 -1.213689,1.45687 -1.88096,1.45687 h -3.32989 c -0.760748,0 -1.55534,-0.55663 -1.55534,-1.48608 -1e-5,-0.92945 0.759151,-2.137 2.613681,-2.13543 2.319801,0.002 4.160719,0.73167 4.152509,2.16464 z"
     style="fill:#000000;fill-opacity:1;fill-rule:evenodd;stroke:none;stroke-width:0.605555;stroke-linecap:round;stroke-linejoin:round;paint-order:markers fill stroke" />
  <path
     style="fill:#ffffff;fill-opacity:1;fill-rule:evenodd;stroke:none;stroke-width:0.463619;stroke-linecap:round;stroke-linejoin:round;paint-order:markers fill stroke"
     d="m 62.388745,13.111178 c -0.007,0.70587 -1.04009,0.9627 -1.63758,0.9627 h -2.77345 c -0.633629,0 -1.27191,-0.4041 -1.26669,-1.05819 0.004,-0.51768 0.486762,-1.49206 2.148171,-1.49048 1.81801,0.002 3.538799,0.66517 3.529549,1.58597 z"
     id="path1320" />
  <path
     style="fill:#cccccc;fill-opacity:1;fill-rule:evenodd;stroke:none;stroke-width:0.610215;stroke-linecap:round;stroke-linejoin:round;stroke-miterlimit:4;stroke-dasharray:none;stroke-opacity:1;paint-order:markers fill stroke"
     d="m 59.413067,13.516978 c -0.608981,0.003 -1.810301,0.18013 -2.155781,0.37262 0.22056,0.11501 0.471869,0.18448 0.720371,0.18448 h 2.773479 c 0.249719,0 0.5735,-0.0487 0.86868,-0.15244 -0.332801,-0.20628 -1.503871,-0.40452 -2.206749,-0.40466 z"
     id="path1322" />
  <path
     id="path1245"
     d="m 63.262516,21.708043 c -0.007,1.297785 -1.33913,1.731546 -2.075371,1.731546 h -3.674088 c -0.839381,0 -1.7516,-0.68242 -1.7516,-1.787114 0,-1.104693 0.56398,-2.522364 2.91933,-2.517208 2.902209,0.0059 4.590799,0.869625 4.581729,2.572776 z"
     style="fill:#000000;fill-opacity:1;fill-rule:evenodd;stroke:none;stroke-width:0.693459;stroke-linecap:round;stroke-linejoin:round;paint-order:markers fill stroke" />
  <path
     style="color:#000000;font-style:normal;font-variant:normal;font-weight:normal;font-stretch:normal;font-size:medium;line-height:normal;font-family:sans-serif;font-variant-ligatures:normal;font-variant-position:normal;font-variant-caps:normal;font-variant-numeric:normal;font-variant-alternates:normal;font-feature-settings:normal;text-indent:0;text-align:start;text-decoration:none;text-decoration-line:none;text-decoration-style:solid;text-decoration-color:#000000;letter-spacing:normal;word-spacing:normal;text-transform:none;writing-mode:lr-tb;direction:ltr;text-orientation:mixed;dominant-baseline:auto;baseline-shift:baseline;text-anchor:start;white-space:normal;shape-padding:0;clip-rule:nonzero;display:inline;overflow:visible;visibility:visible;isolation:auto;mix-blend-mode:normal;color-interpolation:sRGB;color-interpolation-filters:linearRGB;solid-color:#000000;solid-opacity:1;vector-effect:none;fill:#000000;fill-opacity:1;fill-rule:evenodd;stroke:none;stroke-width:1.11739;stroke-linecap:round;stroke-linejoin:round;stroke-miterlimit:4;stroke-dasharray:none;stroke-dashoffset:0;stroke-opacity:1;paint-order:markers fill stroke;color-rendering:auto;image-rendering:auto;shape-rendering:auto;text-rendering:auto;enable-background:accumulate"
     d="m 63.953256,1.9799643 c -0.817269,-0.0023 -1.60492,0.243865 -2.214589,0.723469 -0.609672,0.479602 -1.029642,1.219981 -1.03555,2.086918 -0.006,0.873902 0.491619,1.57527 1.140298,1.961431 0.64869,0.386165 1.43541,0.534056 2.212962,0.537961 0.85235,0.0043 1.541468,-0.235436 1.94015,-0.762746 0.39869,-0.52731 0.4655,-1.182211 0.462129,-1.909601 -0.003,-0.687177 -0.11662,-1.344791 -0.536331,-1.858315 -0.419709,-0.513522 -1.11088,-0.776719 -1.969069,-0.779117 z"
     id="path1260" />
  <path
     id="path1253"
     d="m 55.466907,2.1202803 c -0.774071,-0.0022 -1.5201,0.230974 -2.09754,0.685231 -0.577451,0.454253 -0.975231,1.155505 -0.980821,1.976623 -0.006,0.827715 0.465629,1.492015 1.080029,1.857767 0.61441,0.365755 1.359551,0.50583 2.096,0.509529 0.807302,0.0041 1.46,-0.222993 1.837611,-0.722434 0.377621,-0.499443 0.440901,-1.11973 0.43771,-1.808676 -0.003,-0.650859 -0.110461,-1.273715 -0.507989,-1.760101 -0.397521,-0.486381 -1.052161,-0.735666 -1.865,-0.737939 z m -0.01029,0.581877 c 1.39505,0.0039 1.79056,0.767972 1.795759,1.918229 0.006,1.258428 -0.29541,1.953742 -1.69654,1.946651 -1.29826,-0.0065 -2.589628,-0.525965 -2.580719,-1.784387 0.009,-1.285872 1.186719,-2.084107 2.4815,-2.080493 z"
     style="color:#000000;font-style:normal;font-variant:normal;font-weight:normal;font-stretch:normal;font-size:medium;line-height:normal;font-family:sans-serif;font-variant-ligatures:normal;font-variant-position:normal;font-variant-caps:normal;font-variant-numeric:normal;font-variant-alternates:normal;font-feature-settings:normal;text-indent:0;text-align:start;text-decoration:none;text-decoration-line:none;text-decoration-style:solid;text-decoration-color:#000000;letter-spacing:normal;word-spacing:normal;text-transform:none;writing-mode:lr-tb;direction:ltr;text-orientation:mixed;dominant-baseline:auto;baseline-shift:baseline;text-anchor:start;white-space:normal;shape-padding:0;clip-rule:nonzero;display:inline;overflow:visible;visibility:visible;isolation:auto;mix-blend-mode:normal;color-interpolation:sRGB;color-interpolation-filters:linearRGB;solid-color:#000000;solid-opacity:1;vector-effect:none;fill:#000000;fill-opacity:1;fill-rule:evenodd;stroke:none;stroke-width:1.05833;stroke-linecap:round;stroke-linejoin:round;stroke-miterlimit:4;stroke-dasharray:none;stroke-dashoffset:0;stroke-opacity:1;paint-order:markers fill stroke;color-rendering:auto;image-rendering:auto;shape-rendering:auto;text-rendering:auto;enable-background:accumulate" />
  <path
     id="path1251"
     d="m 57.310296,4.6197583 c 0.006,1.292484 -0.30361,2.007077 -1.74266,1.999794 -1.333389,-0.0067 -2.659459,-0.540676 -2.65031,-1.833153 0.009,-1.32067 1.218491,-2.140251 2.548311,-2.136539 1.432798,0.004 1.839319,0.78851 1.844659,1.969898 z"
     style="fill:#4ca64c;fill-opacity:1;fill-rule:evenodd;stroke:none;stroke-width:0.485089;stroke-linecap:round;stroke-linejoin:round;paint-order:markers fill stroke" />
  <path
     id="path1262"
     d="m 57.031666,3.3491463 a 3.5864472,3.5864472 0 0 1 -2.836519,3.046843 c 0.41578,0.149448 0.89317,0.221351 1.372529,0.223759 1.43905,0.0073 1.748531,-0.707393 1.74253,-1.999877 -0.0021,-0.506913 -0.0791,-0.940258 -0.27854,-1.270725 z"
     style="fill:#3d853d;fill-opacity:1;fill-rule:evenodd;stroke:none;stroke-width:0.485089;stroke-linecap:round;stroke-linejoin:round;paint-order:markers fill stroke" />
  <path
     id="path1304-7"
     d="m 54.858586,28.591915 0.008,2.485918"
     style="fill:none;fill-opacity:1;stroke:#000000;stroke-width:0.565;stroke-linecap:round;stroke-linejoin:miter;stroke-miterlimit:4;stroke-dasharray:none;stroke-opacity:1" />
  <path
     style="fill:none;fill-opacity:1;stroke:#000000;stroke-width:0.565;stroke-linecap:round;stroke-linejoin:miter;stroke-miterlimit:4;stroke-dasharray:none;stroke-opacity:1"
     d="m 56.105345,29.831074 -2.485919,0.008"
     id="path1306-6" />
  <path
     id="path1312-6"
     d="m 45.062546,30.359588 c 0.07395,-2.310271 3.002053,-2.28095 3.172863,0"
     style="fill:none;fill-opacity:1;stroke:#000000;stroke-width:0.580552;stroke-linecap:round;stroke-linejoin:miter;stroke-miterlimit:4;stroke-dasharray:none;stroke-opacity:1" />
  <path
     id="path1314-9"
     d="m 36.169442,30.4291 3.595333,-0.01812 -1.841318,-2.050672"
     style="fill:none;fill-opacity:1;stroke:#000000;stroke-width:0.580552;stroke-linecap:round;stroke-linejoin:round;stroke-miterlimit:4;stroke-dasharray:none;stroke-opacity:1" />
  <ellipse
     style="fill:#000000;fill-opacity:1;fill-rule:evenodd;stroke:none;stroke-width:0.70287;stroke-linecap:round;stroke-linejoin:round;paint-order:markers fill stroke"
     id="ellipse1328-6"
     ry="2.3420944"
     rx="1.3125569"
     cy="29.75518"
     cx="63.637104" />
  <ellipse
     cx="63.619984"
     cy="29.753685"
     rx="0.79320657"
     ry="1.7926877"
     id="ellipse1330-1"
     style="fill:#ffffff;fill-opacity:1;fill-rule:evenodd;stroke:none;stroke-width:0.478035;stroke-linecap:round;stroke-linejoin:round;paint-order:markers fill stroke" />
  <path
     style="fill:#000000;fill-opacity:1;fill-rule:evenodd;stroke:none;stroke-width:0.625878;stroke-linecap:round;stroke-linejoin:round;paint-order:markers fill stroke"
     d="m 29.292276,27.939384 a 1.1515931,2.1166668 0 0 0 -0.717272,1.95854 1.1515931,2.1166668 0 0 0 1.15135,2.11666 1.1515931,2.1166668 0 0 0 1.151872,-2.11666 1.1515931,2.1166668 0 0 0 -0.003,-0.133328 z"
     id="path1332-5" />
  <ellipse
     cx="21.259912"
     cy="29.897926"
     rx="1.1515931"
     ry="2.1166668"
     id="ellipse1964-5"
     style="fill:#000000;fill-opacity:1;fill-rule:evenodd;stroke:none;stroke-width:0.625878;stroke-linecap:round;stroke-linejoin:round;paint-order:markers fill stroke" />
  <path
     id="path2199"
     d="M 14.289051,2.3693645 13.835848,2.4882203 C 12.789939,2.7614957 11.979697,3.7656215 11.337809,4.8203777 11.243489,4.6306037 11.145437,4.4409242 11.060307,4.2498699 L 10.714592,3.4747233 10.558529,4.308781 C 10.510805,4.5645373 10.468414,4.9016807 10.422103,5.2069176 9.9907013,4.5340642 9.5252225,3.8163144 9.3146771,3.2519981 L 9.1736005,2.8732097 8.8826623,3.1543295 C 8.5332077,3.4934261 8.2695586,4.0774547 8.0155316,4.7712851 7.8080073,5.3381017 7.6389354,5.9733557 7.4822309,6.5840945 7.0151651,6.2390217 6.547123,5.8669665 6.2228761,5.4880374 l -0.4692219,-0.5488038 0.00414,0.7229533 c 0.0032,0.5707515 0.2206088,1.2796333 0.4356323,1.9626708 L 3.4979791,7.2682904 5.3066544,10.242269 c -0.3597839,0.184048 -0.7171243,0.371853 -1.0490317,0.578259 l -0.5622396,0.349333 0.6485393,0.132809 c 0.1553657,0.0321 0.2910176,0.09424 0.4371824,0.140559 L 2.458766,12.886552 4.6953221,13.947469 3.783233,15.275554 5.4647842,14.93759 4.622975,17.435629 6.213059,16.461011 c 1.2877202,2.387334 3.7577673,3.910007 6.485908,3.911906 h 0.0021 c 2.557758,-0.0026 4.903984,-1.344557 6.252331,-3.503662 l 0.814421,0.435632 -0.230477,-1.502234 c 0.03898,-0.09453 0.07246,-0.190758 0.107487,-0.286804 l 1.560112,0.833541 -0.870748,-3.197221 c 0.417758,0.09051 0.838039,0.181981 1.247985,0.230477 l 0.773597,0.09198 -1.931665,-1.884639 c 0.794825,-0.193535 1.617825,-0.342237 2.273246,-0.217041 l 0.519348,0.09767 -0.232027,-0.47439 C 22.421933,9.8401801 20.936361,8.9859432 19.509917,8.378817 19.677454,8.3161798 19.859128,8.2477408 20.009629,8.1932986 L 20.939288,7.8553346 19.966737,7.683769 C 19.726594,7.6410399 19.486321,7.5781045 19.245851,7.523572 19.619978,7.4158233 19.992985,7.3217579 20.369297,7.1912926 L 20.937738,6.9938886 20.408054,6.7091514 C 20.039176,6.5102869 19.685086,6.3788908 19.20296,6.3029747 18.832544,6.2446489 18.255039,6.2297915 17.642331,6.2146078 17.978877,5.5962832 18.345973,4.9747507 18.648471,4.7185751 L 19.039145,4.3888796 18.543051,4.2617555 c -1.29029,-0.3315033 -3.073925,0.1260258 -4.462773,0.6914306 -0.06321,-0.826213 -0.06575,-1.6556858 0.07596,-2.1347533 z"
     style="fill:#008000;fill-opacity:1;fill-rule:evenodd;stroke:none;stroke-width:0.605562;stroke-linecap:square;stroke-linejoin:miter;stroke-miterlimit:4;stroke-dasharray:none;stroke-opacity:0.45098;paint-order:markers fill stroke" />
  <path
     id="path879"
     d="m 9.981303,9.9931887 c 0.139305,0.4551093 1.129043,1.4170043 2.656169,1.4159343 1.527125,0.001 2.379921,-0.946355 2.519226,-1.401465 -0.716635,0.168406 -1.802397,0.365869 -2.498556,0.365869 -0.758665,0 -1.970621,-0.215405 -2.676839,-0.3803383 z m 2.702678,2.2055503 c -2.571072,-0.0018 -4.1130037,1.535962 -4.3475389,2.302185 1.1889918,-0.277684 3.1053889,-0.557589 4.3826789,-0.557589 1.172054,0 2.967374,0.274059 4.173905,0.557589 -0.234535,-0.766223 -1.637972,-2.303985 -4.209045,-2.302185 z"
     style="fill:#4ca64c;fill-opacity:1;stroke:none;stroke-width:0.264583px;stroke-linecap:butt;stroke-linejoin:miter;stroke-opacity:1" />
  <path
     id="path2213"
     d="m 3.5393184,7.2186803 0.08992,0.153996 c 0.018187,-0.0441 0.036791,-0.088027 0.05581,-0.131775 z m 14.3407266,1.075904 c 0.176579,0.6468646 0.266251,1.3143592 0.266652,1.9848917 4.3e-5,4.172297 -3.382282,7.554622 -7.554579,7.554578 -1.5659219,-0.0019 -3.0925545,-0.490378 -4.3687256,-1.397848 l 5.18e-4,0.04341 c 1.2905608,2.376396 3.7541707,3.891409 6.4750556,3.893303 h 0.0021 c 2.557756,-0.0026 4.903983,-1.344557 6.252332,-3.503663 l 0.814419,0.435633 -0.230476,-1.502234 c 0.03898,-0.09453 0.07246,-0.190758 0.107487,-0.286804 l 1.560111,0.833541 -0.870747,-3.197222 c 0.417756,0.09051 0.838039,0.181981 1.247984,0.230477 l 0.773597,0.09198 -1.931665,-1.884639 c 0.794824,-0.193535 1.617827,-0.342237 2.273247,-0.217041 l 0.519348,0.09767 -0.232029,-0.47439 C 22.819101,10.656049 22.571916,10.342955 22.27154,10.053649 l 10e-4,0.10232 C 21.305921,9.3902133 20.489572,8.4061151 17.880041,8.2945833 Z"
     style="fill:#006600;fill-opacity:1;fill-rule:evenodd;stroke:none;stroke-width:0.605563;stroke-linecap:square;stroke-linejoin:miter;stroke-miterlimit:4;stroke-dasharray:none;stroke-opacity:0.45098;paint-order:markers fill stroke" />
  <path
     id="path2206"
     d="m 14.67559,1.9952269 -0.905887,0.2361613 c -1.027273,0.268406 -1.768285,1.1344034 -2.390552,2.0686075 -0.02428,-0.05227 -0.05323,-0.1059498 -0.07648,-0.1581298 L 10.61124,2.5889889 10.298597,4.2607217 c -0.0082,0.04415 -0.01501,0.1087086 -0.02325,0.1545125 C 10.023471,3.9750241 9.693261,3.5093699 9.562724,3.1594968 L 9.2795373,2.3998531 8.6992108,2.9641599 C 8.2798292,3.3711119 8.0268492,3.9703749 7.7674848,4.6787841 7.6015471,5.132014 7.4778896,5.6295354 7.3437379,6.1184894 7.0169544,5.8508515 6.657192,5.5901437 6.4238975,5.3175046 L 5.48442,4.2198973 5.49217,5.6632201 C 5.49501,6.168375 5.6952229,6.7446542 5.8554554,7.3060138 L 2.9899984,6.9220579 4.9413005,10.13995 c -0.2784361,0.14874 -0.5625595,0.292019 -0.824239,0.454752 l -1.1249959,0.699182 1.144633,0.236678 -2.230355,1.388546 2.3962363,1.134815 -1.107426,1.609204 1.8732707,-0.374654 -0.9296591,2.755904 1.9998781,-1.226799 c 1.3692968,2.32817 3.8306791,3.818538 6.5603234,3.820439 h 0.0021 c 2.563379,-0.0026 4.906106,-1.320415 6.322612,-3.429765 l 1.085688,0.578259 -0.286804,-1.875337 1.800407,0.963248 -0.925525,-3.386873 c 0.285798,0.0521 0.572931,0.124977 0.853178,0.15813 l 1.547192,0.181901 -2.088244,-2.037602 c 0.57251,-0.08689 1.18052,-0.245641 1.638659,-0.15813 l 1.037147,0.199471 -0.462505,-0.951363 C 22.681653,9.7679689 21.446125,9.01226 20.179647,8.4113729 L 21.785234,7.8842732 20.330026,7.4796467 c 0.04209,-0.01425 0.08292,-0.022597 0.125057,-0.037207 L 21.594031,7.0481486 20.533114,6.4755736 C 20.146735,6.2672748 19.751607,6.1218884 19.244304,6.0420085 18.967673,5.9984485 18.493023,5.9955895 18.115174,5.9779295 18.365483,5.5785105 18.63133,5.0796463 18.81849,4.9211464 L 19.599838,4.2591714 18.6092,4.0049235 c -1.29521,-0.3327662 -2.894362,0.070062 -4.255554,0.5823934 -0.01909,-0.645677 -0.04761,-1.3420609 0.05633,-1.6934368 z m -0.772562,0.7482747 c -0.18271,0.6176389 -0.215249,1.5816927 -0.09819,2.5750365 1.382144,-0.6161649 3.401391,-1.1279643 4.672067,-0.8015013 -0.435287,0.36863 -0.910877,1.1125516 -1.308447,1.9373494 1.868636,0.021173 2.41075,0.108966 3.113505,0.4878255 -0.697121,0.2416882 -1.187519,0.4345586 -1.88464,0.6175336 0.56578,0.1293228 0.937236,0.2797469 1.522904,0.3839559 -0.324399,0.1173488 -0.732723,0.2946165 -1.107793,0.4359995 1.588477,0.5426865 3.364165,1.5599413 3.935011,2.7327993 -0.861413,-0.164542 -1.916155,-0.05294 -2.9099,0.273368 l 1.776119,1.733745 c -0.541763,-0.06409 -1.100133,-0.163401 -1.646924,-0.303341 l 0.822173,3.011186 -1.287261,-0.68833 c -0.06842,0.215832 -0.147051,0.42829 -0.235644,0.636653 l 0.160197,1.046448 -0.544153,-0.290421 C 17.607951,18.742454 15.251526,20.105726 12.7,20.108334 9.9736468,20.106436 7.4860924,18.552917 6.2879884,16.103927 l -1.1813233,0.72502 0.6893637,-2.045353 c -0.013635,-0.05754 -0.026555,-0.115252 -0.038757,-0.173116 L 4.370276,14.88798 5.0896119,13.841532 3.0096355,12.856063 5.4027712,11.366748 C 5.0881321,11.232596 4.75667,11.118677 4.3966311,11.044287 c 0.40268,-0.250418 0.8309221,-0.485201 1.275891,-0.702799 L 4.0069906,7.6134888 6.5339681,7.9457682 C 6.2615732,7.1434011 6.0253548,6.2845409 6.0218549,5.6611529 6.4395087,6.1492419 7.0126679,6.6466758 7.6202068,7.0522826 7.9655169,5.6121809 8.508093,3.8864657 9.067147,3.3439817 c 0.2951697,0.791132 0.9113218,1.8210311 1.49965,2.6551351 0.07661,-0.605042 0.165281,-1.1755363 0.252181,-1.6412435 0.148278,0.3327741 0.313672,0.6578669 0.476974,0.9803019 0.650148,-1.1724399 1.565494,-2.3225287 2.607076,-2.5946736 z"
     style="color:#000000;font-style:normal;font-variant:normal;font-weight:normal;font-stretch:normal;font-size:medium;line-height:normal;font-family:sans-serif;font-variant-ligatures:normal;font-variant-position:normal;font-variant-caps:normal;font-variant-numeric:normal;font-variant-alternates:normal;font-feature-settings:normal;text-indent:0;text-align:start;text-decoration:none;text-decoration-line:none;text-decoration-style:solid;text-decoration-color:#000000;letter-spacing:normal;word-spacing:normal;text-transform:none;writing-mode:lr-tb;direction:ltr;text-orientation:mixed;dominant-baseline:auto;baseline-shift:baseline;text-anchor:start;white-space:normal;shape-padding:0;clip-rule:nonzero;display:inline;overflow:visible;visibility:visible;isolation:auto;mix-blend-mode:normal;color-interpolation:sRGB;color-interpolation-filters:linearRGB;solid-color:#000000;solid-opacity:1;vector-effect:none;fill:#000000;fill-opacity:1;fill-rule:evenodd;stroke:none;stroke-width:1.05833;stroke-linecap:square;stroke-linejoin:miter;stroke-miterlimit:4;stroke-dasharray:none;stroke-dashoffset:0;stroke-opacity:1;paint-order:markers fill stroke;color-rendering:auto;image-rendering:auto;shape-rendering:auto;text-rendering:auto;enable-background:accumulate" />
  <path
     id="path2829"
     d="m 40.61716,1.6593304 -1.197343,0.144694 c -1.123847,0.134327 -1.998811,0.778855 -2.696475,1.6769 l -0.705091,-1.455603 -0.458663,1.572392 C 35.451374,3.4365904 35.27709,3.3402294 35.105351,2.8799274 l -0.423746,-1.138432 -0.872815,0.845427 c -0.479081,0.464882 -0.72875,1.070163 -0.994254,1.779736 -0.129439,0.345933 -0.217972,0.726978 -0.328147,1.099158 -0.169005,-0.136818 -0.420656,-0.282698 -0.543118,-0.425814 l -1.246546,-1.56456 c -0.127377,1.107859 -0.131316,2.293826 -0.151826,3.371168 l -2.503723,-0.130741 1.529765,3.3165016 -2.039993,1.353528 1.293127,0.306927 -2.070158,1.328085 2.458765,1.185457 -1.172538,1.818494 1.920812,-0.277502 -0.752409,2.626196 1.956441,-0.98088 c 1.506699,2.385685 4.113371,3.797688 6.935006,3.798796 2.650467,-0.0028 5.137222,-1.282485 6.680214,-3.437517 l 0.93638,0.561723 0.06666,-1.724442 1.519288,0.692981 -0.454753,-3.210657 2.396236,-0.06046 -2.048454,-1.949236 c 0.862387,-0.08785 1.547107,-0.09423 2.402437,-0.08734 L 48.968585,10.769363 C 48.493081,9.7924111 47.686385,9.0055402 46.638492,8.3147322 l 1.39552,-0.669148 -1.377897,-0.3300511 0.728587,-0.4332717 -1.11311,-0.750342 c -0.258609,-0.174195 -0.534366,-0.401075 -0.990121,-0.534851 -0.17862,-0.05243 -0.538777,-0.04318 -0.761712,-0.07028 0.08373,-0.188884 0.227836,-0.535 0.302308,-0.652673 l 0.588079,-0.927592 -1.064536,-0.267684 c -1.155901,-0.289059 -2.766954,-0.351715 -4.159953,0.250114 -0.0038,-0.395782 0.0042,-0.821821 0.08992,-1.11156 z"
     style="color:#000000;font-style:normal;font-variant:normal;font-weight:normal;font-stretch:normal;font-size:medium;line-height:normal;font-family:sans-serif;font-variant-ligatures:normal;font-variant-position:normal;font-variant-caps:normal;font-variant-numeric:normal;font-variant-alternates:normal;font-feature-settings:normal;text-indent:0;text-align:start;text-decoration:none;text-decoration-line:none;text-decoration-style:solid;text-decoration-color:#000000;letter-spacing:normal;word-spacing:normal;text-transform:none;writing-mode:lr-tb;direction:ltr;text-orientation:mixed;dominant-baseline:auto;baseline-shift:baseline;text-anchor:start;white-space:normal;shape-padding:0;clip-rule:nonzero;display:inline;overflow:visible;visibility:visible;isolation:auto;mix-blend-mode:normal;color-interpolation:sRGB;color-interpolation-filters:linearRGB;solid-color:#000000;solid-opacity:1;vector-effect:none;fill:#000000;fill-opacity:1;fill-rule:evenodd;stroke:none;stroke-width:1.5875;stroke-linecap:square;stroke-linejoin:miter;stroke-miterlimit:4;stroke-dasharray:none;stroke-dashoffset:0;stroke-opacity:1;paint-order:markers fill stroke;color-rendering:auto;image-rendering:auto;shape-rendering:auto;text-rendering:auto;enable-background:accumulate" />
  <g
     aria-label="redrawn by mind"
     id="text1310"
     style="font-style:normal;font-variant:normal;font-weight:normal;font-stretch:normal;font-size:1.41111px;line-height:1.25;font-family:'Segoe Print';-inkscape-font-specification:'Segoe Print, Normal';font-variant-ligatures:normal;font-variant-caps:normal;font-variant-numeric:normal;font-feature-settings:normal;text-align:start;letter-spacing:0px;word-spacing:0px;writing-mode:lr-tb;text-anchor:start;fill:#000000;fill-opacity:1;stroke:#000000;stroke-width:0.05;stroke-miterlimit:4;stroke-dasharray:none;stroke-opacity:1">
    <path
       d="m 2.4839121,32.770435 q 0.00689,-0.0124 0.016536,-0.03445 0.046853,-0.107487 0.086127,-0.168121 0.039274,-0.06132 0.086127,-0.117133 0.047542,-0.05581 0.086127,-0.08475 0.039274,-0.02894 0.070969,-0.03996 0.031695,-0.01171 0.061323,-0.01171 0.059945,0 0.097841,0.03652 0.037896,0.03583 0.037896,0.08406 0,0.02136 -0.01378,0.03858 -0.013091,0.01723 -0.040652,0.01723 -0.028939,0 -0.053055,-0.02549 -0.024805,-0.02549 -0.051676,-0.02549 -0.071658,0 -0.1984373,0.173632 -0.1267794,0.173633 -0.1543402,0.382406 -0.00689,0.05374 -0.026183,0.07097 -0.019292,0.01723 -0.054432,0.01723 -0.033762,0 -0.04892,-0.0503 -0.015158,-0.0503 -0.015158,-0.169499 0,-0.03238 0.00345,-0.142627 0.00413,-0.130224 0.016536,-0.210151 0.00207,-0.01309 0.00689,-0.06132 0.00482,-0.05306 0.011713,-0.07373 0.00758,-0.02067 0.029628,-0.03858 0.022738,-0.01792 0.04892,-0.01792 0.025494,0 0.037896,0.01654 0.013091,0.01585 0.013091,0.03445 0,0.02687 -0.01378,0.07579 -0.015847,0.05443 -0.018603,0.0751 -0.00207,0.02343 -0.00758,0.04892 -0.00689,0.02963 -0.01378,0.155718 l -6.89e-4,0.02549 z"
       style="font-style:normal;font-variant:normal;font-weight:normal;font-stretch:normal;font-size:1.41111px;font-family:'Segoe Print';-inkscape-font-specification:'Segoe Print, Normal';font-variant-ligatures:normal;font-variant-caps:normal;font-variant-numeric:normal;font-feature-settings:normal;text-align:start;writing-mode:lr-tb;text-anchor:start;stroke:#000000;stroke-width:0.05;stroke-miterlimit:4;stroke-dasharray:none;stroke-opacity:1"
       id="path1656" />
    <path
       d="m 3.6600668,32.810399 q 0,0.07028 -0.1247123,0.169498 -0.1240234,0.09922 -0.256315,0.09922 -0.1109319,0 -0.1715656,-0.06546 -0.059945,-0.06546 -0.059945,-0.18259 0,-0.197059 0.1329806,-0.374826 0.1329806,-0.177767 0.2907658,-0.177767 0.051676,0 0.08406,0.03376 0.033073,0.03376 0.033073,0.0813 0,0.106109 -0.1040418,0.203261 -0.1040418,0.09715 -0.2783635,0.190858 -0.035829,0.0186 -0.035829,0.04823 0,0.05719 0.033073,0.09164 0.033073,0.03445 0.097841,0.03445 0.148139,0 0.3024792,-0.163987 0.022738,-0.02274 0.034451,-0.02274 0.022049,0 0.022049,0.03514 z M 3.1811989,32.702912 q 0.2921439,-0.173633 0.2921439,-0.279053 0,-0.04134 -0.037207,-0.04134 -0.06339,0 -0.1433159,0.09302 -0.079237,0.09302 -0.111621,0.227376 z"
       style="font-style:normal;font-variant:normal;font-weight:normal;font-stretch:normal;font-size:1.41111px;font-family:'Segoe Print';-inkscape-font-specification:'Segoe Print, Normal';font-variant-ligatures:normal;font-variant-caps:normal;font-variant-numeric:normal;font-feature-settings:normal;text-align:start;writing-mode:lr-tb;text-anchor:start;stroke:#000000;stroke-width:0.05;stroke-miterlimit:4;stroke-dasharray:none;stroke-opacity:1"
       id="path1658" />
    <path
       d="m 4.2980979,32.758722 q -0.092328,0.148139 -0.1956812,0.228754 -0.1033528,0.07993 -0.1901692,0.07993 -0.066835,0 -0.1061088,-0.05099 -0.038585,-0.05168 -0.038585,-0.137115 0,-0.174321 0.1412488,-0.3576 0.1419379,-0.183279 0.3059243,-0.183279 0.071658,0 0.1329806,0.06132 l 0.096463,-0.450618 q 0.010335,-0.04616 0.037896,-0.06201 0.02825,-0.01585 0.044097,-0.01585 0.048231,0 0.048231,0.08544 0,0.01516 -0.031695,0.112999 -0.050298,0.151584 -0.095774,0.372759 -0.044786,0.220486 -0.044786,0.354155 0,0.137804 0.059945,0.137804 0.038585,0 0.079926,-0.02549 0.017226,-0.0124 0.032384,-0.0124 0.022049,0 0.022049,0.02894 0,0.03514 -0.062012,0.0813 -0.061323,0.04616 -0.1260904,0.04616 -0.1136881,0 -0.1136881,-0.219108 0,-0.03721 0.00345,-0.0751 z m -0.090261,-0.322461 q -0.111621,0 -0.221175,0.151585 -0.1095539,0.150895 -0.1095539,0.279052 0,0.08613 0.057189,0.08613 0.053743,0 0.1302245,-0.0565 0.07717,-0.0565 0.1584743,-0.179834 0.081304,-0.124023 0.081304,-0.186035 0,-0.03032 -0.02825,-0.06201 -0.027561,-0.03238 -0.068213,-0.03238 z"
       style="font-style:normal;font-variant:normal;font-weight:normal;font-stretch:normal;font-size:1.41111px;font-family:'Segoe Print';-inkscape-font-specification:'Segoe Print, Normal';font-variant-ligatures:normal;font-variant-caps:normal;font-variant-numeric:normal;font-feature-settings:normal;text-align:start;writing-mode:lr-tb;text-anchor:start;stroke:#000000;stroke-width:0.05;stroke-miterlimit:4;stroke-dasharray:none;stroke-opacity:1"
       id="path1660" />
    <path
       d="m 4.8761846,32.770435 q 0.00689,-0.0124 0.016536,-0.03445 0.046853,-0.107487 0.086127,-0.168121 0.039274,-0.06132 0.086127,-0.117133 0.047542,-0.05581 0.086127,-0.08475 0.039274,-0.02894 0.070969,-0.03996 0.031695,-0.01171 0.061323,-0.01171 0.059945,0 0.097841,0.03652 0.037896,0.03583 0.037896,0.08406 0,0.02136 -0.01378,0.03858 -0.013091,0.01723 -0.040652,0.01723 -0.028939,0 -0.053054,-0.02549 -0.024805,-0.02549 -0.051676,-0.02549 -0.071658,0 -0.1984373,0.173632 -0.1267795,0.173633 -0.1543402,0.382406 -0.00689,0.05374 -0.026183,0.07097 -0.019292,0.01723 -0.054432,0.01723 -0.033762,0 -0.04892,-0.0503 -0.015158,-0.0503 -0.015158,-0.169499 0,-0.03238 0.00345,-0.142627 0.00413,-0.130224 0.016536,-0.210151 0.00207,-0.01309 0.00689,-0.06132 0.00482,-0.05306 0.011713,-0.07373 0.00758,-0.02067 0.029628,-0.03858 0.022738,-0.01792 0.04892,-0.01792 0.025494,0 0.037896,0.01654 0.013091,0.01585 0.013091,0.03445 0,0.02687 -0.01378,0.07579 -0.015847,0.05443 -0.018604,0.0751 -0.00207,0.02343 -0.00758,0.04892 -0.00689,0.02963 -0.01378,0.155718 l -6.89e-4,0.02549 z"
       style="font-style:normal;font-variant:normal;font-weight:normal;font-stretch:normal;font-size:1.41111px;font-family:'Segoe Print';-inkscape-font-specification:'Segoe Print, Normal';font-variant-ligatures:normal;font-variant-caps:normal;font-variant-numeric:normal;font-feature-settings:normal;text-align:start;writing-mode:lr-tb;text-anchor:start;stroke:#000000;stroke-width:0.05;stroke-miterlimit:4;stroke-dasharray:none;stroke-opacity:1"
       id="path1662" />
    <path
       d="m 5.9200476,32.793173 q -0.096463,0.129536 -0.1908581,0.194303 -0.094396,0.06477 -0.1729437,0.06477 -0.053054,0 -0.09164,-0.04479 -0.038585,-0.04479 -0.038585,-0.115066 0,-0.181212 0.1619194,-0.389985 0.1619193,-0.209461 0.3217716,-0.209461 0.057878,0 0.086127,0.06614 0.00896,0.02205 0.02825,0.02205 0.055121,0 0.055121,0.04272 0,0.02136 -0.00689,0.05857 -0.037207,0.20326 -0.037207,0.286631 0,0.166743 0.06339,0.199816 0.030317,0.01654 0.030317,0.04065 0,0.02136 -0.029628,0.04272 -0.029628,0.02205 -0.057188,0.02205 -0.053054,0 -0.087505,-0.07304 -0.034451,-0.07304 -0.034451,-0.208084 z m -0.04203,-0.387917 q -0.09095,0 -0.2115287,0.170876 -0.1205783,0.170188 -0.1205783,0.282498 0,0.07924 0.052365,0.07924 0.075792,0 0.2101507,-0.152962 0.1343586,-0.152962 0.1343586,-0.28112 0,-0.09853 -0.064768,-0.09853 z"
       style="font-style:normal;font-variant:normal;font-weight:normal;font-stretch:normal;font-size:1.41111px;font-family:'Segoe Print';-inkscape-font-specification:'Segoe Print, Normal';font-variant-ligatures:normal;font-variant-caps:normal;font-variant-numeric:normal;font-feature-settings:normal;text-align:start;writing-mode:lr-tb;text-anchor:start;stroke:#000000;stroke-width:0.05;stroke-miterlimit:4;stroke-dasharray:none;stroke-opacity:1"
       id="path1664" />
    <path
       d="m 6.8295521,32.587846 q -0.019292,6.89e-4 -0.093018,0.160541 -0.060634,0.131602 -0.1240233,0.234955 -0.06339,0.102664 -0.093018,0.102664 -0.085438,0 -0.1584743,-0.253559 -0.072347,-0.254248 -0.072347,-0.409277 0,-0.0503 0.024805,-0.08337 0.025494,-0.03307 0.059945,-0.03583 0.00482,-6.89e-4 0.017226,6.89e-4 0.012402,6.89e-4 0.030317,0.02274 0.017914,0.02136 0.017914,0.04203 v 0.0028 q 0,0.0083 -0.00758,0.0689 -0.0062,0.04479 -0.0062,0.109554 0,0.102663 0.039274,0.226687 0.039274,0.124023 0.066146,0.124023 0.019292,0 0.1274684,-0.209462 0.068213,-0.13298 0.097841,-0.183279 l 0.022049,-0.04134 q 0.047542,-0.09095 0.090261,-0.125401 0.059256,0.0076 0.059256,0.05926 0,0.01723 -0.00276,0.02894 -0.00276,0.01171 -0.00276,0.02894 0,0.127468 0.066146,0.267339 0.066146,0.139182 0.094396,0.139182 0.02067,0 0.065457,-0.146072 0.060634,-0.198437 0.111621,-0.297656 0.051676,-0.09922 0.075792,-0.117822 0.024116,-0.0186 0.054432,-0.0186 0.017226,0 0.028939,0.01516 0.012402,0.01447 0.012402,0.03169 0,0.02549 -0.00758,0.03514 -0.085438,0.11231 -0.1639865,0.35071 -0.066835,0.204639 -0.091639,0.257004 -0.024805,0.05237 -0.041341,0.05237 -0.083371,0 -0.1364256,-0.06063 -0.053055,-0.06132 -0.1405598,-0.324528 -0.010335,-0.03101 -0.019982,-0.05443 z"
       style="font-style:normal;font-variant:normal;font-weight:normal;font-stretch:normal;font-size:1.41111px;font-family:'Segoe Print';-inkscape-font-specification:'Segoe Print, Normal';font-variant-ligatures:normal;font-variant-caps:normal;font-variant-numeric:normal;font-feature-settings:normal;text-align:start;writing-mode:lr-tb;text-anchor:start;stroke:#000000;stroke-width:0.05;stroke-miterlimit:4;stroke-dasharray:none;stroke-opacity:1"
       id="path1666" />
    <path
       d="m 7.9967499,32.514121 q -0.035829,0 -0.078548,0.04685 -0.04203,0.04685 -0.1288465,0.21015 -0.1143771,0.219108 -0.148139,0.249425 -0.033073,0.03032 -0.055122,0.03032 -0.081304,0 -0.081304,-0.07855 0,-0.03307 0.011024,-0.09371 0.037896,-0.208083 0.037896,-0.438904 0,-0.02618 0.022049,-0.05788 0.022738,-0.03238 0.042719,-0.03238 0.035829,0 0.050987,0.02205 0.015158,0.02205 0.015158,0.08888 0,0.06959 -0.041341,0.286632 -0.01378,0.07166 -0.01378,0.09095 0,0.01103 0.00551,0.01103 0.010335,0 0.095774,-0.164676 0.086127,-0.167431 0.1508951,-0.235644 0.064768,-0.06821 0.1426268,-0.06821 0.062012,0 0.1005967,0.0565 0.039274,0.0565 0.057189,0.206017 0.019293,0.170188 0.034451,0.212218 0.015847,0.04134 0.049609,0.04134 0.02136,0 0.053743,-0.01516 0.00551,-0.0028 0.00827,-0.0028 0.029628,0 0.029628,0.03445 0,0.03032 -0.040652,0.06477 -0.040652,0.03376 -0.097841,0.03376 -0.058567,0 -0.09095,-0.04616 Q 8.096657,32.918539 8.078054,32.716653 8.058762,32.514082 7.99675,32.514082 Z"
       style="font-style:normal;font-variant:normal;font-weight:normal;font-stretch:normal;font-size:1.41111px;font-family:'Segoe Print';-inkscape-font-specification:'Segoe Print, Normal';font-variant-ligatures:normal;font-variant-caps:normal;font-variant-numeric:normal;font-feature-settings:normal;text-align:start;writing-mode:lr-tb;text-anchor:start;stroke:#000000;stroke-width:0.05;stroke-miterlimit:4;stroke-dasharray:none;stroke-opacity:1"
       id="path1668" />
    <path
       d="m 9.153612,32.651924 q 0.088194,-0.160541 0.2108396,-0.25976 0.1226454,-0.09991 0.221175,-0.09991 0.054433,0 0.092329,0.0503 0.037896,0.0503 0.037896,0.122645 0,0.214285 -0.1619193,0.402387 Q 9.3927014,33.055 9.2128676,33.055 q -0.04892,0 -0.090261,-0.02618 -0.040652,-0.02687 -0.045475,-0.06683 -0.00276,-0.03238 -0.018604,-0.04823 -0.029628,-0.02963 -0.029628,-0.06339 0,-0.0627 0.034451,-0.268029 L 9.1343194,32.1703 q 0.036518,-0.207394 0.053055,-0.256315 0.017225,-0.04892 0.037896,-0.06546 0.020671,-0.01654 0.050987,-0.01654 0.048231,0 0.048231,0.08337 0,0.07924 -0.053055,0.221864 -0.050987,0.137115 -0.1178221,0.514697 z m -0.016537,0.229443 q 0.035829,0.06684 0.086816,0.06684 0.078548,0 0.1660534,-0.06477 0.087505,-0.06546 0.1508951,-0.183279 0.064079,-0.118512 0.064079,-0.199816 0,-0.03652 -0.013091,-0.0627 -0.013091,-0.02618 -0.033073,-0.02618 -0.095774,0 -0.2342663,0.157096 -0.1378037,0.156407 -0.1874131,0.312814 z"
       style="font-style:normal;font-variant:normal;font-weight:normal;font-stretch:normal;font-size:1.41111px;font-family:'Segoe Print';-inkscape-font-specification:'Segoe Print, Normal';font-variant-ligatures:normal;font-variant-caps:normal;font-variant-numeric:normal;font-feature-settings:normal;text-align:start;writing-mode:lr-tb;text-anchor:start;stroke:#000000;stroke-width:0.05;stroke-miterlimit:4;stroke-dasharray:none;stroke-opacity:1"
       id="path1670" />
    <path
       d="m 10.358016,32.800752 q -0.126779,0.110243 -0.223242,0.160542 -0.09577,0.04961 -0.1467606,0.04961 -0.068213,0 -0.1047309,-0.0565 -0.035829,-0.05719 -0.035829,-0.13298 0,-0.106109 0.042719,-0.261827 0.043408,-0.156407 0.064079,-0.185346 0.02136,-0.02963 0.067524,-0.02963 0.01929,0 0.0317,0.02274 0.0124,0.02274 0.0124,0.05168 0,0.01723 -0.01585,0.04479 -0.03721,0.06477 -0.03927,0.07166 -0.0014,0.0069 -0.026179,0.08337 -0.024805,0.07579 -0.024805,0.142627 0,0.02343 0.011024,0.07304 0.011713,0.04961 0.047541,0.04961 0.0379,0 0.09302,-0.02274 0.05581,-0.02343 0.125401,-0.07579 0.06959,-0.05237 0.09371,-0.08475 0.02412,-0.03238 0.03376,-0.07373 0.01034,-0.04134 0.01447,-0.179145 0.0041,-0.137804 0.06684,-0.137804 0.03721,0 0.04823,0.01998 0.01102,0.01929 0.01102,0.07441 0,0.04548 -0.0062,0.113688 -0.0076,0.08613 -0.0096,0.122645 -0.0096,0.18948 -0.04961,0.381027 -0.03927,0.190858 -0.115067,0.319016 -0.07579,0.128846 -0.208772,0.128846 -0.1350438,0 -0.2404637,-0.07097 -0.1047308,-0.07028 -0.1047308,-0.1192 0,-0.02274 0.010335,-0.04479 0.011024,-0.02205 0.027561,-0.02205 0.00827,0 0.017914,0.01309 0.090261,0.138492 0.2838725,0.138492 0.09991,0 0.167431,-0.175699 0.06821,-0.175011 0.0751,-0.328662 0.0014,-0.02963 0.0055,-0.05926 z"
       style="font-style:normal;font-variant:normal;font-weight:normal;font-stretch:normal;font-size:1.41111px;font-family:'Segoe Print';-inkscape-font-specification:'Segoe Print, Normal';font-variant-ligatures:normal;font-variant-caps:normal;font-variant-numeric:normal;font-feature-settings:normal;text-align:start;writing-mode:lr-tb;text-anchor:start;stroke:#000000;stroke-width:0.05;stroke-miterlimit:4;stroke-dasharray:none;stroke-opacity:1"
       id="path1672" />
    <path
       d="m 11.767059,32.498962 q -0.06408,0.0014 -0.274229,0.379649 -0.07097,0.127469 -0.08268,0.139182 -0.01171,0.01102 -0.04341,0.01998 -0.03101,0.009 -0.05168,0.009 -0.04616,0 -0.04616,-0.179834 0,-0.101286 0.04341,-0.366558 0.01791,-0.107487 0.01791,-0.153651 0,-0.04547 0.04065,-0.04547 0.07648,0 0.07648,0.110243 0,0.05168 -0.02549,0.202571 -0.02963,0.172255 -0.03032,0.209462 0.04272,-0.04134 0.125401,-0.181212 0.117133,-0.191547 0.172255,-0.242535 0.05581,-0.05168 0.115066,-0.05168 0.04479,0 0.07097,0.05994 0.02687,0.05994 0.03238,0.285942 0.0014,0.0565 0.01033,0.08406 0.009,0.02756 0.01309,0.02756 0.03238,0 0.14056,-0.220486 0.05788,-0.116444 0.11231,-0.177077 0.05512,-0.06063 0.121957,-0.06063 0.05581,0 0.0813,0.05788 0.02549,0.05719 0.03652,0.170187 0.01034,0.114377 0.0317,0.209462 0.02205,0.09508 0.07993,0.121956 0.03927,0.0186 0.03927,0.04341 0,0.02412 -0.03307,0.04961 -0.03307,0.02549 -0.06063,0.02549 -0.05512,0 -0.09853,-0.06752 -0.04341,-0.06752 -0.06546,-0.292144 -0.0096,-0.09026 -0.0186,-0.128158 -0.009,-0.0379 -0.02825,-0.0379 -0.02894,0 -0.0689,0.05512 -0.03927,0.05512 -0.127469,0.223931 -0.0689,0.131602 -0.104731,0.175699 -0.03514,0.04341 -0.06821,0.04341 -0.02963,0 -0.05306,-0.02343 -0.02343,-0.02412 -0.02963,-0.05719 -0.0062,-0.03376 -0.01309,-0.164675 -0.01033,-0.21773 -0.0379,-0.253559 z"
       style="font-style:normal;font-variant:normal;font-weight:normal;font-stretch:normal;font-size:1.41111px;font-family:'Segoe Print';-inkscape-font-specification:'Segoe Print, Normal';font-variant-ligatures:normal;font-variant-caps:normal;font-variant-numeric:normal;font-feature-settings:normal;text-align:start;writing-mode:lr-tb;text-anchor:start;stroke:#000000;stroke-width:0.05;stroke-miterlimit:4;stroke-dasharray:none;stroke-opacity:1"
       id="path1674" />
    <path
       d="m 12.919098,32.12138 q -0.01447,0 -0.02205,-0.03101 -0.0028,-0.0096 -0.0076,-0.02136 -0.0186,-0.04479 -0.0186,-0.07786 0,-0.02756 0.03238,-0.05581 0.03307,-0.02894 0.07304,-0.02894 0.01998,0 0.04479,0.01585 0.02481,0.01516 0.02481,0.02963 0,0.02274 -0.01723,0.07717 -0.01654,0.05443 -0.05374,0.07372 -0.03652,0.0186 -0.05581,0.0186 z m -0.09026,0.769634 q 0,0.05237 0.01447,0.117822 0.0028,0.0124 0.0028,0.02067 0,0.0124 -0.02274,0.03169 -0.02274,0.01998 -0.04823,0.01998 -0.06683,0 -0.06683,-0.122645 0,-0.12678 0.05237,-0.401009 0.01791,-0.09577 0.01791,-0.117822 0,-0.04341 0.01585,-0.07372 0.01585,-0.03101 0.04479,-0.03101 0.03514,0 0.05512,0.01723 0.02067,0.01654 0.02067,0.03721 0,0.02067 -0.0096,0.05443 -0.05168,0.181901 -0.06408,0.260449 -0.0124,0.07855 -0.0124,0.186724 z"
       style="font-style:normal;font-variant:normal;font-weight:normal;font-stretch:normal;font-size:1.41111px;font-family:'Segoe Print';-inkscape-font-specification:'Segoe Print, Normal';font-variant-ligatures:normal;font-variant-caps:normal;font-variant-numeric:normal;font-feature-settings:normal;text-align:start;writing-mode:lr-tb;text-anchor:start;stroke:#000000;stroke-width:0.05;stroke-miterlimit:4;stroke-dasharray:none;stroke-opacity:1"
       id="path1676" />
    <path
       d="m 13.574355,32.514121 q -0.03583,0 -0.07855,0.04685 -0.04203,0.04685 -0.128847,0.21015 -0.114377,0.219108 -0.148139,0.249425 -0.03307,0.03032 -0.05512,0.03032 -0.08131,0 -0.08131,-0.07855 0,-0.03307 0.01103,-0.09371 0.0379,-0.208083 0.0379,-0.438904 0,-0.02618 0.02205,-0.05788 0.02274,-0.03238 0.04272,-0.03238 0.03583,0 0.05099,0.02205 0.01516,0.02205 0.01516,0.08888 0,0.06959 -0.04134,0.286632 -0.01378,0.07166 -0.01378,0.09095 0,0.01103 0.0055,0.01103 0.01034,0 0.09577,-0.164676 0.08613,-0.167431 0.150896,-0.235644 0.06477,-0.06821 0.142626,-0.06821 0.06201,0 0.100597,0.0565 0.03927,0.0565 0.05719,0.206017 0.01929,0.170188 0.03445,0.212218 0.01585,0.04134 0.04961,0.04134 0.02136,0 0.05374,-0.01516 0.0055,-0.0028 0.0083,-0.0028 0.02963,0 0.02963,0.03445 0,0.03032 -0.04065,0.06477 -0.04065,0.03376 -0.09784,0.03376 -0.05857,0 -0.09095,-0.04616 -0.03169,-0.04685 -0.0503,-0.248736 -0.01929,-0.202571 -0.0813,-0.202571 z"
       style="font-style:normal;font-variant:normal;font-weight:normal;font-stretch:normal;font-size:1.41111px;font-family:'Segoe Print';-inkscape-font-specification:'Segoe Print, Normal';font-variant-ligatures:normal;font-variant-caps:normal;font-variant-numeric:normal;font-feature-settings:normal;text-align:start;writing-mode:lr-tb;text-anchor:start;stroke:#000000;stroke-width:0.05;stroke-miterlimit:4;stroke-dasharray:none;stroke-opacity:1"
       id="path1678" />
    <path
       d="m 14.534847,32.758722 q -0.09233,0.148139 -0.195681,0.228754 -0.103353,0.07993 -0.190169,0.07993 -0.06683,0 -0.106109,-0.05099 -0.03858,-0.05168 -0.03858,-0.137115 0,-0.174321 0.141249,-0.3576 0.141938,-0.183279 0.305924,-0.183279 0.07166,0 0.132981,0.06132 l 0.09646,-0.450618 q 0.01034,-0.04616 0.0379,-0.06201 0.02825,-0.01585 0.0441,-0.01585 0.04823,0 0.04823,0.08544 0,0.01516 -0.0317,0.112999 -0.0503,0.151584 -0.09577,0.372759 -0.04479,0.220486 -0.04479,0.354155 0,0.137804 0.05994,0.137804 0.03858,0 0.07993,-0.02549 0.01722,-0.0124 0.03238,-0.0124 0.02205,0 0.02205,0.02894 0,0.03514 -0.06201,0.0813 -0.06132,0.04616 -0.126091,0.04616 -0.113688,0 -0.113688,-0.219108 0,-0.03721 0.0034,-0.0751 z m -0.09026,-0.322461 q -0.111621,0 -0.221175,0.151585 -0.109554,0.150895 -0.109554,0.279052 0,0.08613 0.05719,0.08613 0.05374,0 0.130224,-0.0565 0.07717,-0.0565 0.158474,-0.179834 0.0813,-0.124023 0.0813,-0.186035 0,-0.03032 -0.02825,-0.06201 -0.02756,-0.03238 -0.06821,-0.03238 z"
       style="font-style:normal;font-variant:normal;font-weight:normal;font-stretch:normal;font-size:1.41111px;font-family:'Segoe Print';-inkscape-font-specification:'Segoe Print, Normal';font-variant-ligatures:normal;font-variant-caps:normal;font-variant-numeric:normal;font-feature-settings:normal;text-align:start;writing-mode:lr-tb;text-anchor:start;stroke:#000000;stroke-width:0.05;stroke-miterlimit:4;stroke-dasharray:none;stroke-opacity:1"
       id="path1680" />
  </g>
  <g
     aria-label="Made by"
     transform="matrix(1.0391195,0,0,1.0391195,6.4912885,45.542769)"
     id="text2072"
     style="font-style:italic;font-variant:normal;font-weight:bold;font-stretch:normal;font-size:2.03698px;line-height:1.25;font-family:Corbel;-inkscape-font-specification:'Corbel, Bold Italic';font-variant-ligatures:normal;font-variant-caps:normal;font-variant-numeric:normal;font-variant-east-asian:normal;text-align:start;letter-spacing:0px;word-spacing:0px;writing-mode:lr-tb;white-space:pre;shape-inside:url(#rect2074);fill:#000000;fill-opacity:1;stroke:none">
    <path
       d="m -0.96123094,-17.738068 q 0.0706179,-0.152176 0.30435344,-0.567927 l 0.22975701,-0.403815 h 0.32921893 l -0.27550949,1.3308 h -0.24268706 l 0.14223053,-0.634567 q 0.0358063,-0.159139 0.0905103,-0.377955 h -0.007957 q -0.0984673,0.210859 -0.38193373,0.710158 l -0.17505296,0.302364 H -1.1104238 l -0.1064243,-0.71911 q -0.021882,-0.14422 -0.03879,-0.293412 h -0.00796 q -0.01293,0.147203 -0.05172,0.349111 l -0.1342736,0.663411 H -1.692276 l 0.2755095,-1.3308 h 0.313305 l 0.059677,0.371987 q 0.036801,0.232741 0.0765856,0.599755 z"
       style="font-style:italic;font-variant:normal;font-weight:bold;font-stretch:normal;font-size:2.03698px;font-family:Corbel;-inkscape-font-specification:'Corbel, Bold Italic';font-variant-ligatures:normal;font-variant-caps:normal;font-variant-numeric:normal;font-variant-east-asian:normal"
       id="path1634" />
    <path
       d="m 0.75150314,-17.610756 q 0,0.02685 0.0139247,0.03879 0.0149193,0.01094 0.0407794,0.01094 0.028844,0 0.070618,-0.006 l -0.0407794,0.188977 q -0.0616664,0.01293 -0.11835967,0.01293 -0.0815588,0 -0.12432739,-0.0378 -0.041774,-0.03879 -0.0527148,-0.109408 h -0.003978 q -0.0686287,0.08454 -0.14819824,0.121343 -0.0785749,0.0368 -0.15416596,0.0368 -0.0646502,0 -0.11637044,-0.02387 -0.05172019,-0.02387 -0.08752648,-0.06763 -0.03580629,-0.04376 -0.05470405,-0.105429 -0.01889776,-0.06167 -0.01889776,-0.137258 0,-0.08056 0.01293005,-0.162123 0.01392466,-0.08156 0.04077938,-0.156155 0.02685472,-0.07559 0.06564486,-0.141236 0.03978476,-0.06564 0.09150496,-0.114381 0.0517202,-0.04874 0.11537581,-0.07659 0.0636556,-0.02785 0.13825206,-0.02785 0.0686287,0 0.1302951,0.02884 0.0616664,0.02884 0.10741886,0.09051 h 0.003978 l 0.0348117,-0.09548 h 0.20091305 l -0.13924667,0.671368 q -0.003978,0.0189 -0.005968,0.03581 -0.001989,0.01591 -0.001989,0.02487 z M 0.6142457,-18.099114 q -0.008952,-0.01293 -0.0238709,-0.02586 -0.0139247,-0.01392 -0.033817,-0.02387 -0.0188978,-0.01094 -0.0427686,-0.0179 -0.0228762,-0.007 -0.0497309,-0.007 -0.0467471,0 -0.0855372,0.02288 -0.0377955,0.02188 -0.0686287,0.05968 -0.0298386,0.0368 -0.0517202,0.08554 -0.0218816,0.04774 -0.0368009,0.09946 -0.0139247,0.05172 -0.020887,0.102446 -0.006962,0.04973 -0.006962,0.0925 0,0.08454 0.0258601,0.124327 0.0268547,0.03978 0.0775803,0.03978 0.0507256,0 0.10145115,-0.03382 0.0507256,-0.03481 0.0905103,-0.09449 0.0268547,-0.03978 0.0457525,-0.09051 0.0198924,-0.05073 0.0338171,-0.11637 z"
       style="font-style:italic;font-variant:normal;font-weight:bold;font-stretch:normal;font-size:2.03698px;font-family:Corbel;-inkscape-font-specification:'Corbel, Bold Italic';font-variant-ligatures:normal;font-variant-caps:normal;font-variant-numeric:normal;font-variant-east-asian:normal"
       id="path1636" />
    <path
       d="m 1.8475734,-17.610756 q 0,0.02288 0.011936,0.0368 0.01293,0.01293 0.042769,0.01293 0.027849,0 0.070618,-0.006 l -0.040779,0.188977 q -0.026855,0.006 -0.059677,0.009 -0.032822,0.004 -0.058682,0.004 -0.081559,0 -0.1243274,-0.0378 -0.041774,-0.03879 -0.052715,-0.109408 h -0.00398 q -0.068629,0.08454 -0.1481982,0.121343 -0.078575,0.0368 -0.154166,0.0368 -0.06465,0 -0.1163704,-0.02387 -0.05172,-0.02387 -0.087526,-0.06763 -0.035806,-0.04376 -0.054704,-0.105429 -0.018898,-0.06167 -0.018898,-0.137258 0,-0.08056 0.013925,-0.162123 0.013925,-0.08156 0.039785,-0.156155 0.026855,-0.07559 0.065645,-0.141236 0.03879,-0.06564 0.088521,-0.114381 0.050725,-0.04874 0.1113973,-0.07659 0.061666,-0.02785 0.133279,-0.02785 0.071613,0 0.1302951,0.02984 0.058682,0.02884 0.1014511,0.08952 h 0.00398 l 0.1183597,-0.571906 H 2.094239 l -0.2387086,1.147791 q -0.00398,0.0189 -0.00597,0.03581 -0.00199,0.01591 -0.00199,0.02487 z m -0.138252,-0.48438 q -0.00895,-0.01293 -0.023871,-0.02686 -0.013925,-0.01392 -0.032822,-0.02486 -0.018898,-0.01194 -0.042769,-0.0189 -0.022876,-0.008 -0.049731,-0.008 -0.046747,0 -0.085537,0.02288 -0.037796,0.02188 -0.067634,0.05968 -0.029839,0.0368 -0.052715,0.08554 -0.021882,0.04774 -0.036801,0.09946 -0.013925,0.05172 -0.020887,0.102446 -0.00696,0.04973 -0.00696,0.0925 0,0.08454 0.02586,0.124327 0.026855,0.03978 0.07758,0.03978 0.054704,0 0.1084135,-0.03879 0.053709,-0.03879 0.095483,-0.106424 0.043763,-0.0736 0.067634,-0.187983 z"
       style="font-style:italic;font-variant:normal;font-weight:bold;font-stretch:normal;font-size:2.03698px;font-family:Corbel;-inkscape-font-specification:'Corbel, Bold Italic';font-variant-ligatures:normal;font-variant-caps:normal;font-variant-numeric:normal;font-variant-east-asian:normal"
       id="path1638" />
    <path
       d="m 2.7934563,-18.103093 q 0,-0.03282 -0.02586,-0.05669 -0.02586,-0.02387 -0.078575,-0.02387 -0.039785,0 -0.081559,0.01591 -0.040779,0.01591 -0.07758,0.04774 -0.035806,0.03083 -0.06465,0.07658 -0.028844,0.04476 -0.045752,0.103441 0.1054297,0 0.1770422,-0.01393 0.071613,-0.01393 0.1153758,-0.0368 0.043763,-0.02288 0.062661,-0.05172 0.018898,-0.02984 0.018898,-0.06067 z m 0.2367194,0 q 0,0.08056 -0.039785,0.145215 -0.03879,0.06366 -0.1153758,0.109408 -0.076586,0.04476 -0.1889777,0.06863 -0.1123919,0.02387 -0.2586009,0.02387 -0.016909,0 -0.042769,-9.94e-4 v 0.006 q 0,0.05271 0.014919,0.0925 0.015914,0.03879 0.044758,0.06366 0.029839,0.02486 0.071613,0.0368 0.041774,0.01094 0.093494,0.01094 0.07758,0 0.1631175,-0.0189 0.085537,-0.0189 0.1491929,-0.05072 l -0.042769,0.206881 q -0.061666,0.02486 -0.141236,0.03978 -0.078575,0.01591 -0.1680906,0.01591 -0.1064242,0 -0.1849991,-0.02884 -0.078575,-0.02884 -0.1302951,-0.08056 -0.050726,-0.05271 -0.075591,-0.124327 -0.024866,-0.07161 -0.024866,-0.158145 0,-0.07659 0.015914,-0.152176 0.015914,-0.07559 0.046747,-0.14422 0.030833,-0.06962 0.076586,-0.128306 0.045752,-0.05968 0.1054296,-0.102446 0.060672,-0.04376 0.1352682,-0.06863 0.074597,-0.02487 0.1621229,-0.02487 0.076586,0 0.1382521,0.0189 0.061666,0.0189 0.104435,0.05371 0.043763,0.03382 0.067634,0.08255 0.023871,0.04874 0.023871,0.108413 z"
       style="font-style:italic;font-variant:normal;font-weight:bold;font-stretch:normal;font-size:2.03698px;font-family:Corbel;-inkscape-font-specification:'Corbel, Bold Italic';font-variant-ligatures:normal;font-variant-caps:normal;font-variant-numeric:normal;font-variant-east-asian:normal"
       id="path1640" />
    <path
       d="m 3.8189083,-17.755971 q -0.00597,0.02984 -0.00796,0.04675 -9.946e-4,0.01591 -9.946e-4,0.02884 0,0.06067 0.028844,0.09747 0.029838,0.03581 0.087526,0.03581 0.048736,0 0.089516,-0.02089 0.040779,-0.02089 0.073602,-0.0557 0.033817,-0.03581 0.059677,-0.08156 0.02586,-0.04675 0.042769,-0.09747 0.017903,-0.05172 0.026855,-0.10344 0.00895,-0.05271 0.00895,-0.09946 0,-0.03382 -0.00796,-0.06366 -0.00696,-0.03083 -0.022876,-0.05371 -0.014919,-0.02387 -0.040779,-0.0368 -0.024865,-0.01393 -0.060672,-0.01393 -0.032822,0 -0.070618,0.01393 -0.036801,0.01393 -0.070618,0.04476 -0.032822,0.03083 -0.060672,0.07857 -0.026855,0.04675 -0.040779,0.114381 z m 0.1322843,-0.645508 q -0.017903,0.07758 -0.036801,0.145215 h 0.00398 q 0.017903,-0.02089 0.042769,-0.03978 0.024865,-0.01989 0.055699,-0.03581 0.030833,-0.01591 0.067634,-0.02487 0.036801,-0.0099 0.078575,-0.0099 0.061666,0 0.1163704,0.02188 0.055699,0.02188 0.096478,0.06564 0.040779,0.04277 0.06465,0.107418 0.023871,0.06465 0.023871,0.150188 0,0.0736 -0.014919,0.152177 -0.013925,0.07758 -0.043763,0.152176 -0.028844,0.0746 -0.074596,0.140242 -0.045752,0.06564 -0.1084135,0.115375 -0.061666,0.04973 -0.1422305,0.07858 -0.079569,0.02884 -0.1780368,0.02884 -0.07758,0 -0.1382521,-0.02387 -0.060672,-0.02387 -0.1034404,-0.06465 -0.041774,-0.04078 -0.06465,-0.09648 -0.021882,-0.05669 -0.021882,-0.120349 0,-0.02586 0.00298,-0.05271 0.00298,-0.02785 0.011936,-0.07261 l 0.2158323,-1.034404 h 0.2347301 z"
       style="font-style:italic;font-variant:normal;font-weight:bold;font-stretch:normal;font-size:2.03698px;font-family:Corbel;-inkscape-font-specification:'Corbel, Bold Italic';font-variant-ligatures:normal;font-variant-caps:normal;font-variant-numeric:normal;font-variant-east-asian:normal"
       id="path1642" />
    <path
       d="m 4.600679,-18.342796 h 0.2397032 l 0.088521,0.422713 q 0.028844,0.139247 0.047742,0.255617 h 0.00597 q 0.055699,-0.115376 0.1233328,-0.241692 l 0.237714,-0.436638 h 0.2655633 l -0.5659383,0.996608 q -0.056693,0.09946 -0.1143812,0.18301 -0.056693,0.08355 -0.1243274,0.143225 -0.067634,0.06067 -0.1491929,0.09449 -0.081559,0.03382 -0.1849991,0.03382 -0.076586,0 -0.125322,-0.01293 l 0.039785,-0.186988 q 0.037796,0.007 0.076586,0.007 0.056693,0 0.1024458,-0.01989 0.046747,-0.0189 0.087527,-0.05769 0.041774,-0.03879 0.080564,-0.09747 0.03879,-0.05769 0.081559,-0.136263 z"
       style="font-style:italic;font-variant:normal;font-weight:bold;font-stretch:normal;font-size:2.03698px;font-family:Corbel;-inkscape-font-specification:'Corbel, Bold Italic';font-variant-ligatures:normal;font-variant-caps:normal;font-variant-numeric:normal;font-variant-east-asian:normal"
       id="path1644" />
  </g>
  <g
     aria-label="whis"
     transform="translate(0.84335994,41.258462)"
     id="text2064"
     style="font-style:normal;font-variant:normal;font-weight:normal;font-stretch:normal;font-size:3.52778px;line-height:1.25;font-family:'Know Your Product';-inkscape-font-specification:'Know Your Product, Normal';font-variant-ligatures:normal;font-variant-caps:normal;font-variant-numeric:normal;font-variant-east-asian:normal;text-align:start;letter-spacing:0px;word-spacing:0px;writing-mode:lr-tb;white-space:pre;shape-inside:url(#rect2068);fill:#fcdc56;fill-opacity:1;stroke:#b66314;stroke-width:0.529167;stroke-linejoin:round;stroke-miterlimit:4;stroke-dasharray:none;stroke-opacity:1;paint-order:stroke fill markers">
    <path
       d="m 2.6717531,-12.844813 q -0.1929255,0.199816 -0.1722549,0.430638 l 0.065457,0.106798 0.086127,0.280775 0.063734,0.106798 0.043064,0.108521 0.043064,0.06373 0.022393,0.08613 q 0.068902,0.09646 0.084405,0.192926 l 0.043064,0.06546 0.043064,0.149861 q 0.1240236,0.151585 0.1722549,0.280776 l 0.022393,0.106798 v 0.258382 l 0.020671,0.129191 q 0.08096,0.07579 0.1085206,0.151585 0.1016304,0.02067 0.1722549,0.02067 h 0.063734 l 0.065457,0.02239 q 0.1774225,0 0.301446,0.02067 0.1171333,-0.167087 0.1291912,-0.322117 -0.1085206,-0.156752 -0.1515843,-0.280775 l -0.063734,-0.106798 -0.022393,-0.151584 q -0.08096,-0.149862 -0.086127,-0.279053 -0.1291912,-0.220487 -0.1722549,-0.408244 l -0.043064,-0.06546 -0.020671,-0.08613 v -0.06373 l -0.043064,-0.08613 -0.022393,-0.06546 -0.020671,-0.08613 -0.1946481,-0.537435 -0.043064,-0.02239 q -0.2738852,0.05512 -0.4943715,-0.02067 z m 1.1833911,0.02067 q -0.1877579,0.248047 -0.1722549,0.516765 l 0.043064,0.04306 0.022393,0.06546 q 0.091295,0.144694 0.1067981,0.279053 l 0.043064,0.02239 q 0.1825902,0.41858 0.2377117,0.70969 l 0.043064,0.172255 q 0.1498618,0.225654 0.1498618,0.451308 0.106798,0.118856 0.1498617,0.237712 0.4306373,0.0689 0.7544764,-0.02239 0.020671,-0.101631 0.020671,-0.172255 -0.053399,-0.167088 -0.106798,-0.258383 -0.091295,-0.155029 -0.1291912,-0.279053 l -0.022393,-0.08613 -0.063734,-0.08613 q -0.048231,-0.151585 -0.065457,-0.258383 -0.068902,-0.08613 -0.106798,-0.172255 l -0.022393,-0.06373 v -0.06546 l -0.043064,-0.06373 v -0.06546 Q 4.5596666,-12.167851 4.5011,-12.350441 q 0.015503,-0.124024 0,-0.215319 -0.086127,-0.0913 -0.106798,-0.192925 l -0.065457,-0.02239 q -0.26355,0.02239 -0.4737009,-0.04306 z m 1.3556459,0.06546 -0.043064,0.06373 q -0.025838,0.220486 -0.086127,0.366903 -0.025838,0.177423 -0.106798,0.322117 v 0.06546 l 0.043064,0.06373 0.043064,0.151584 q 0.053399,0.08613 0.063734,0.170532 l 0.043064,0.04306 v 0.06546 q 0.1464166,0.215319 0.194648,0.430637 l 0.086127,0.06373 0.106798,-0.387574 0.022393,-0.08613 0.043064,-0.08613 0.020671,-0.106798 0.043064,-0.08613 0.022393,-0.106798 0.020671,-0.06546 q 0.037896,-0.111966 0.043064,-0.192926 0.1825902,-0.318671 0.2153186,-0.602892 l -0.106798,-0.129191 q -0.3341745,0.0534 -0.6028921,0 z"
       style="font-style:normal;font-variant:normal;font-weight:normal;font-stretch:normal;font-size:3.52778px;font-family:'Know Your Product';-inkscape-font-specification:'Know Your Product, Normal';font-variant-ligatures:normal;font-variant-caps:normal;font-variant-numeric:normal;font-variant-east-asian:normal;fill:#fcdc56;fill-opacity:1;stroke:#b66314;stroke-width:0.529167;stroke-linejoin:round;stroke-miterlimit:4;stroke-dasharray:none;stroke-opacity:1;paint-order:stroke fill markers"
       id="path1647" />
    <path
       d="m 6.955732,-12.862038 q -0.022393,0.0379 -0.044786,0.04479 -0.2876656,-0.05512 -0.4857588,0.06546 l -0.044786,0.132636 0.022393,0.110243 -0.022393,0.132637 q 0.010335,0.03445 0,0.06718 v 0.06546 q 0.017226,0.172255 0,0.287666 l 0.022393,0.06718 v 0.618395 l 0.022393,0.04479 -0.022393,0.132637 q 0.044786,0.315226 -0.022393,0.552938 l 0.08785,0.220486 0.1774225,0.06718 q 0.210151,-0.08268 0.3979088,-0.04479 0.082682,-0.18259 0.1102431,-0.330729 -0.055121,-0.167088 -0.043064,-0.287666 v -0.08957 -0.132637 -0.110243 -0.132636 -0.08785 -0.24288 -0.08957 -0.08785 -0.06718 -0.08785 q -0.012058,-0.03273 0,-0.06546 l -0.022393,-0.177423 v -0.06718 q 0.010335,-0.160197 0.043064,-0.265273 l -0.020671,-0.132636 q -0.072347,-0.08785 -0.1550294,-0.110243 z m 1.8793008,0 q -0.2652725,0.08785 -0.5081519,0.02239 l -0.1550294,0.08785 -0.022393,0.06718 v 0.530545 l 0.022393,0.110244 0.022393,0.375515 q -0.012058,0.18259 0.022393,0.332452 l -0.022393,0.06546 v 0.222209 q -0.027561,0.392741 0,0.640788 0.037896,0.02239 0.043064,0.04479 0.089573,0.03273 0.1774226,0.02239 h 0.08785 q 0.2049833,0.04995 0.354845,0.04306 l 0.08785,-0.110243 0.022393,-0.132636 v -0.110243 q -0.044786,-0.165365 -0.044786,-0.287666 l 0.022393,-0.132636 q -0.027561,-0.270441 0.022393,-0.465089 v -0.06546 q -0.022393,-0.03273 -0.022393,-0.06718 v -0.220486 l -0.022393,-0.06718 0.022393,-0.06546 v -0.06718 -0.1757 q -0.015503,-0.199815 0.022393,-0.354845 -0.044786,-0.148139 -0.1326363,-0.242879 z m -1.4159352,0.995633 -0.1326362,0.110243 q -0.032729,0.310059 0.067179,0.552938 l 0.4857588,-0.04479 0.067179,0.02239 q 0.1756999,-0.342787 0.065457,-0.640788 -0.2928333,0.0155 -0.5081519,-0.04479 z"
       style="font-style:normal;font-variant:normal;font-weight:normal;font-stretch:normal;font-size:3.52778px;font-family:'Know Your Product';-inkscape-font-specification:'Know Your Product, Normal';font-variant-ligatures:normal;font-variant-caps:normal;font-variant-numeric:normal;font-variant-east-asian:normal;fill:#fcdc56;fill-opacity:1;stroke:#b66314;stroke-width:0.529167;stroke-linejoin:round;stroke-miterlimit:4;stroke-dasharray:none;stroke-opacity:1;paint-order:stroke fill markers"
       id="path1649" />
    <path
       d="m 9.362133,-12.753518 v 0.06373 q 0,0.141249 -0.022393,0.239434 0.022393,0.111966 0,0.215319 l 0.022393,0.10852 -0.022393,0.08613 v 0.606337 l 0.022393,0.06373 v 0.54088 q 0,0.16192 -0.022393,0.260105 l 0.022393,0.129192 q 0.048231,0.10852 0.106798,0.172254 h 0.065457 l 0.065457,0.02239 q 0.1722549,-0.08096 0.3669029,-0.04306 0.048231,-0.173978 0.1085201,-0.280776 v -0.151584 l -0.02239,-0.108521 -0.02067,-0.151584 0.02067,-0.04306 q -0.02067,-0.03273 -0.02067,-0.06546 v -0.258383 q -0.02239,-0.07062 -0.02239,-0.130913 l 0.02239,-0.08613 v -0.08613 -0.237712 -0.08613 -0.08785 -0.08613 -0.06373 -0.08785 q 0,-0.106798 -0.02239,-0.172255 0.02239,-0.204983 0,-0.346232 l -0.043063,-0.02067 q -0.2859431,0.03101 -0.4978166,-0.02239 z"
       style="font-style:normal;font-variant:normal;font-weight:normal;font-stretch:normal;font-size:3.52778px;font-family:'Know Your Product';-inkscape-font-specification:'Know Your Product, Normal';font-variant-ligatures:normal;font-variant-caps:normal;font-variant-numeric:normal;font-variant-east-asian:normal;fill:#fcdc56;fill-opacity:1;stroke:#b66314;stroke-width:0.529167;stroke-linejoin:round;stroke-miterlimit:4;stroke-dasharray:none;stroke-opacity:1;paint-order:stroke fill markers"
       id="path1651" />
    <path
       d="m 11.660013,-12.777633 -0.02239,0.04479 q 0.01206,0.08268 0,0.155029 v 0.311782 q 0.218763,0.09474 0.268717,0.268717 l 0.110243,0.04479 q 0.184313,-0.02928 0.334175,0 0.458198,-0.630453 -0.53399,-0.892281 z m -0.334175,-0.04479 q -0.03273,0.02239 -0.06546,0.02239 h -0.179145 q -0.134358,0.05512 -0.244602,0.04479 -0.713135,0.685574 0.02239,1.224732 l 0.06718,0.04479 0.06546,0.06718 0.08957,0.02239 0.06718,0.06718 q 0.03962,0.02239 0.04479,0.04479 l 0.04479,0.02239 q 0.366903,0.137804 0.578777,0.334174 -0.339342,0.327284 -0.111966,0.623563 0.296278,0.07235 0.468533,-0.134359 0.329007,-0.18259 0.334175,-0.53399 0,-0.211874 -0.04479,-0.356568 -0.117134,-0.117133 -0.177423,-0.223931 -0.139526,-0.02756 -0.223931,-0.08785 -0.08268,-0.04995 -0.132637,-0.111966 l -0.08957,-0.02239 -0.08957,-0.02239 -0.132636,-0.08957 q -0.241157,-0.03273 -0.401354,-0.110243 v -0.134358 q 0.289388,-0.329007 0.110243,-0.690743 z m -0.912951,1.894804 q 0.234267,0.745864 0.935344,0.668349 0.284221,-0.311781 -0.155029,-0.645956 l -0.02239,-0.156752 -0.06718,-0.06718 q -0.301447,0.02756 -0.51332,-0.04479 z"
       style="font-style:normal;font-variant:normal;font-weight:normal;font-stretch:normal;font-size:3.52778px;font-family:'Know Your Product';-inkscape-font-specification:'Know Your Product, Normal';font-variant-ligatures:normal;font-variant-caps:normal;font-variant-numeric:normal;font-variant-east-asian:normal;fill:#fcdc56;fill-opacity:1;stroke:#b66314;stroke-width:0.529167;stroke-linejoin:round;stroke-miterlimit:4;stroke-dasharray:none;stroke-opacity:1;paint-order:stroke fill markers"
       id="path1653" />
  </g>
</svg>
