<?xml version="1.0" encoding="UTF-8" standalone="no"?>
<svg
   xmlns:dc="http://purl.org/dc/elements/1.1/"
   xmlns:cc="http://creativecommons.org/ns#"
   xmlns:rdf="http://www.w3.org/1999/02/22-rdf-syntax-ns#"
   xmlns:svg="http://www.w3.org/2000/svg"
   xmlns="http://www.w3.org/2000/svg"
   id="svg62"
   version="1.1"
   viewBox="0 0 67.733332 33.866668"
   height="128"
   width="256">
  <metadata
     id="metadata4524">
    <rdf:RDF>
      <cc:Work
         rdf:about="">
        <dc:format>image/svg+xml</dc:format>
        <dc:type
           rdf:resource="http://purl.org/dc/dcmitype/StillImage" />
        <dc:title></dc:title>
      </cc:Work>
    </rdf:RDF>
  </metadata>
  <defs
     id="defs59">
    <clipPath
       id="clipPath4863"
       clipPathUnits="userSpaceOnUse">
      <rect
         y="-66.410416"
         x="2.6458366"
         height="5.8208318"
         width="11.90625"
         id="rect4865"
         style="fill:#796cd9;fill-opacity:0.60392157;fill-rule:evenodd;stroke:none;stroke-width:0.60277319;stroke-linecap:round;stroke-linejoin:round;stroke-miterlimit:4;stroke-dasharray:none;stroke-opacity:1;paint-order:markers fill stroke" />
    </clipPath>
  </defs>
  <path
     id="path1304"
     d="m 54.858577,28.591918 0.008,2.485919"
     style="fill:none;stroke:#000000;stroke-width:0.565;stroke-linecap:round;stroke-linejoin:miter;stroke-miterlimit:4;stroke-dasharray:none;stroke-opacity:1" />
  <path
     style="fill:none;stroke:#000000;stroke-width:0.565;stroke-linecap:round;stroke-linejoin:miter;stroke-miterlimit:4;stroke-dasharray:none;stroke-opacity:1"
     d="m 56.105336,29.831078 -2.48592,0.008"
     id="path1306" />
  <path
     id="path1312"
     d="m 45.042836,30.358888 c 0.0744,-2.308569 2.990729,-2.279269 3.16257,0"
     style="fill:none;fill-opacity:1;stroke:#000000;stroke-width:0.632432;stroke-linecap:round;stroke-linejoin:miter;stroke-miterlimit:4;stroke-dasharray:none;stroke-opacity:1" />
  <path
     id="path1314"
     d="m 36.037925,30.453137 3.675221,-0.0429 -1.810821,-2.049161"
     style="fill:none;stroke:#000000;stroke-width:0.629444;stroke-linecap:round;stroke-linejoin:round;stroke-miterlimit:4;stroke-dasharray:none;stroke-opacity:1" />
  <path
     id="path1177"
     d="m 29.542375,2.1006433 c -0.0551,2.14e-4 -0.11171,0.0028 -0.167428,0.0041 -0.10391,0.117898 -0.22333,0.360315 -0.334351,0.683678 -0.11356,0.330787 -0.22111,0.740481 -0.30851,1.177705 -0.174749,0.874448 -0.268819,1.857878 -0.18552,2.533179 0.142729,0.926037 0.318309,1.557732 0.73226,2.269631 a 0.04630671,0.04630671 0 0 1 0,0.0021 c 0.346491,0.637889 0.72362,1.2588897 0.914149,1.5487437 a 0.04630671,0.04630671 0 0 1 0.006,0.03514 c -0.16623,0.76149 -0.276349,1.128025 -0.300749,2.788976 -0.004,0.818719 0.0993,1.403694 0.20515,1.808676 0.0529,0.202491 0.106309,0.360434 0.148309,0.480592 0.042,0.120158 0.0741,0.20026 0.0801,0.263549 0.003,0.03532 -0.01,0.06592 -0.0274,0.101285 -0.0176,0.03537 -0.0409,0.07466 -0.0723,0.117305 -0.0628,0.08528 -0.152231,0.186405 -0.255799,0.295074 -0.19431,0.203883 -0.44092,0.433459 -0.668182,0.634588 0.115192,0.109698 0.327121,0.22036 0.537441,0.324527 0.113249,0.05609 0.222041,0.110739 0.30644,0.169497 0.0843,0.05876 0.151061,0.120129 0.162261,0.203089 0.005,0.03301 -0.004,0.06503 -0.01551,0.101804 -0.01191,0.03677 -0.0289,0.07792 -0.0512,0.125055 -0.0446,0.09428 -0.107969,0.209045 -0.177768,0.339516 -0.129702,0.242607 -0.27495,0.540676 -0.376722,0.832506 0.3913,-0.01447 0.83467,-0.0218 1.21698,-0.03721 0.0996,-0.0024 0.186981,0.01508 0.26148,0.06046 0.0745,0.04537 0.134041,0.116755 0.17984,0.214974 0.0869,0.186512 0.131281,0.489876 0.16588,0.91364 0.489281,0.02077 0.89875,-0.126188 1.29294,-0.206706 0.40491,-0.08271 0.803031,-0.07924 1.23249,0.290939 a 0.04630671,0.04630671 0 0 1 0.0021,0 c 0.249819,0.226377 0.879771,0.502695 1.636601,0.713134 0.756819,0.210436 1.64361,0.361585 2.419998,0.363284 1.552551,-0.0011 3.075562,-0.44086 4.079862,-1.054714 0.115369,-0.07052 0.22442,-0.123899 0.329179,-0.166399 5.29e-4,-2.65e-4 0.0011,-7.94e-4 0.0021,-0.0011 0.007,-0.0029 0.01471,-0.0065 0.0217,-0.0093 0.01119,-0.0073 0.02249,-0.01497 0.0336,-0.0217 0.005,-0.003 0.01,-0.0063 0.015,-0.0093 0.292021,-0.17095 0.55847,-0.136549 0.856272,-0.05839 0.0131,0.0019 0.0267,0.0021 0.0398,0.0041 0.37284,0.06083 0.73777,0.17894 1.20717,0.158131 0.0346,-0.425228 0.0788,-0.728777 0.16588,-0.915707 0.0458,-0.09823 0.10327,-0.171681 0.17776,-0.217041 0.0745,-0.04536 0.16396,-0.06089 0.26356,-0.05839 0.38291,0.01543 0.82728,0.02267 1.219041,0.03721 -0.10092,-0.292121 -0.241141,-0.587539 -0.363281,-0.828373 -0.0657,-0.1295 -0.124899,-0.244425 -0.166399,-0.337963 -0.0415,-0.09354 -0.0709,-0.159917 -0.0605,-0.224277 0.01159,-0.08116 0.0754,-0.144325 0.15606,-0.203604 0.0812,-0.05964 0.18384,-0.116483 0.29301,-0.173633 0.20306,-0.10631 0.410879,-0.217287 0.525539,-0.328144 -0.227269,-0.201983 -0.470519,-0.43528 -0.6599,-0.64234 -0.100798,-0.110204 -0.187449,-0.212796 -0.248049,-0.299207 -0.0303,-0.04321 -0.0535,-0.08117 -0.0703,-0.116787 -0.0164,-0.03562 -0.0288,-0.06907 -0.0258,-0.10387 0.007,-0.06381 0.0407,-0.125772 0.0822,-0.218591 0.0418,-0.09354 0.0946,-0.218585 0.148309,-0.398425 0.10749,-0.359685 0.214789,-0.938906 0.22479,-1.916163 0.008,-1.653215 -0.190651,-2.020004 -0.3576,-2.784843 a 0.04630671,0.04630671 0 0 1 0.008,-0.03514 c 0.192792,-0.293286 0.629132,-0.9225387 0.974622,-1.5585627 0.412819,-0.709964 0.54084,-1.343194 0.683678,-2.269627 0.0833,-0.675656 -0.005,-1.661155 -0.176218,-2.535249 -0.0854,-0.437046 -0.191471,-0.847037 -0.30644,-1.177705 -0.112789,-0.324387 -0.236641,-0.565909 -0.347782,-0.683678 -0.0591,-0.0016 -0.117599,-0.0021 -0.175699,-0.0021 -2.064131,-0.006 -3.5067,0.754452 -4.625038,1.715141 -0.22207,0.191767 -0.506241,0.528288 -0.765331,0.806669 -0.129551,0.139187 -0.252101,0.264459 -0.361731,0.351399 -0.0548,0.04347 -0.10687,0.07817 -0.156069,0.09973 -0.0373,0.0163 -0.074,0.02114 -0.11007,0.0181 -0.02019,0.0062 -0.0378,0.0084 -0.0486,-5.29e-4 -0.01191,-0.0088 -0.02029,-0.01908 -0.031,-0.02842 -0.12533,-0.07317 -0.19319,-0.194887 -0.222731,-0.315743 -0.0327,-0.133805 -0.02551,-0.265856 -0.0176,-0.345715 0.0351,-0.369229 0.0691,-1.164815 0.0899,-1.775087 l -2.08979,1.827797 a 0.04630671,0.04630671 0 0 1 -0.0506,0.0078 l -2.541931,-1.194767 -0.651119,-0.293005 c 0.1255,0.329948 0.294609,0.751403 0.427361,1.140497 0.0736,0.215781 0.134188,0.414512 0.16588,0.574127 0.0154,0.07981 0.02429,0.150313 0.02331,0.208772 -0.0011,0.05846 -0.01021,0.108874 -0.0465,0.144693 a 0.04630671,0.04630671 0 0 1 -0.006,0.0041 c -0.0392,0.02915 -0.0869,0.02003 -0.130738,0.0016 -0.0438,-0.01849 -0.0916,-0.04859 -0.14469,-0.0894 -0.106147,-0.08162 -0.233928,-0.203327 -0.371048,-0.340033 -0.274241,-0.273413 -0.585251,-0.609553 -0.808739,-0.802535 -1.118341,-0.960692 -2.56091,-1.721242 -4.625041,-1.715141 a 0.04630671,0.04630671 0 0 1 -0.006,-0.0021 0.04630671,0.04630671 0 0 1 -0.004,0 z"
     style="fill:#000000;fill-opacity:1;fill-rule:evenodd;stroke-width:0.632991;stroke-linecap:round;stroke-linejoin:round;paint-order:markers fill stroke" />
  <path
     id="path1318"
     d="m 62.890025,13.161368 c -0.006,1.09191 -1.213689,1.45687 -1.88096,1.45687 h -3.32989 c -0.760748,0 -1.55534,-0.55663 -1.55534,-1.48608 -1e-5,-0.92945 0.759151,-2.137 2.613681,-2.13543 2.319801,0.002 4.160719,0.73167 4.152509,2.16464 z"
     style="fill:#000000;fill-opacity:1;fill-rule:evenodd;stroke:none;stroke-width:0.605555;stroke-linecap:round;stroke-linejoin:round;paint-order:markers fill stroke" />
  <path
     style="fill:#666666;fill-opacity:1;fill-rule:evenodd;stroke:none;stroke-width:0.463619;stroke-linecap:round;stroke-linejoin:round;paint-order:markers fill stroke"
     d="m 62.388745,13.111178 c -0.007,0.70587 -1.04009,0.9627 -1.63758,0.9627 h -2.77345 c -0.633629,0 -1.27191,-0.4041 -1.26669,-1.05819 0.004,-0.51768 0.486762,-1.49206 2.148171,-1.49048 1.81801,0.002 3.538799,0.66517 3.529549,1.58597 z"
     id="path1320" />
  <path
     style="fill:#525252;fill-opacity:1;fill-rule:evenodd;stroke:none;stroke-width:0.610215;stroke-linecap:round;stroke-linejoin:round;stroke-miterlimit:4;stroke-dasharray:none;stroke-opacity:1;paint-order:markers fill stroke"
     d="m 59.413067,13.516978 c -0.608981,0.003 -1.810301,0.18013 -2.155781,0.37262 0.22056,0.11501 0.471869,0.18448 0.720371,0.18448 h 2.773479 c 0.249719,0 0.5735,-0.0487 0.86868,-0.15244 -0.332801,-0.20628 -1.503871,-0.40452 -2.206749,-0.40466 z"
     id="path1322" />
  <ellipse
     style="fill:#000000;fill-opacity:1;fill-rule:evenodd;stroke:none;stroke-width:0.70287;stroke-linecap:round;stroke-linejoin:round;paint-order:markers fill stroke"
     id="ellipse1328"
     ry="2.3420944"
     rx="1.3125569"
     cy="29.75518"
     cx="63.637093" />
  <ellipse
     cx="63.619972"
     cy="29.753685"
     rx="0.79320657"
     ry="1.7926877"
     id="ellipse1330"
     style="fill:#ffffff;fill-opacity:1;fill-rule:evenodd;stroke:none;stroke-width:0.478035;stroke-linecap:round;stroke-linejoin:round;paint-order:markers fill stroke" />
  <path
     style="fill:#000000;fill-opacity:1;fill-rule:evenodd;stroke:none;stroke-width:0.625878;stroke-linecap:round;stroke-linejoin:round;paint-order:markers fill stroke"
     d="m 29.292267,27.939387 a 1.1515931,2.1166668 0 0 0 -0.717272,1.958541 1.1515931,2.1166668 0 0 0 1.15135,2.116659 1.1515931,2.1166668 0 0 0 1.151872,-2.116659 1.1515931,2.1166668 0 0 0 -0.003,-0.133329 z"
     id="path1332" />
  <path
     id="path1227"
     d="m 4.8875468,3.0039483 c -0.1538603,0.0038 -0.20921,0.07418 -0.2614801,0.127124 -0.0523,0.05301 -0.0958,0.113629 -0.1405702,0.185518 -0.0894,0.143779 -0.1787297,0.33452 -0.2635499,0.574125 -0.1696198,0.479211 -0.31311,1.148047 -0.3162501,1.949235 -0.004,1.230134 0.7332102,2.836241 1.3570202,3.560507 a 0.26460982,0.26460982 0 0 0 0.004,0.0036 c 0.1864799,0.210339 0.37143,0.387797 0.4687001,0.564823 0.0973,0.1770277 0.1359199,0.3382707 0.0253,0.6345867 a 0.26460982,0.26460982 0 0 0 -0.004,0.0057 c -0.26263,0.759799 -0.4349999,1.547354 -0.4377,2.367297 a 0.26460982,0.26460982 0 0 0 0,0.0021 c 0.00201,0.798396 0.15801,1.586496 0.4139301,2.341976 a 0.26460982,0.26460982 0 0 0 0.008,0.117306 c 0.0467,0.152352 0.0567,0.307609 0.004,0.45682 -0.0525,0.149209 -0.1665399,0.308523 -0.4299498,0.46302 a 0.26460982,0.26460982 0 0 0 0.1038698,0.489893 c 0.22073,0.02556 0.40033,0.09645 0.5095301,0.172082 0.1077799,0.07466 0.12992,0.136385 0.1307399,0.162264 -7.408e-4,-0.02068 -0.0363,0.09503 -0.12505,0.216525 -0.0903,0.123617 -0.21502,0.264764 -0.3296999,0.384989 a 0.26460982,0.26460982 0 0 0 0.25786,0.437183 c 0.1918099,-0.04931 0.39845,-0.07764 0.5544899,-0.07803 0.1498201,-3.7e-4 0.2223101,0.05601 0.1875901,0.01189 0.0505,0.07415 0.085,0.233261 0.10335,0.408244 0.01,0.08995 0.013999,0.177848 0.047,0.281119 0.016499,0.05164 0.0419,0.112157 0.0997,0.172083 0.0578,0.05993 0.1584999,0.106148 0.2459799,0.107487 a 0.26460982,0.26460982 0 0 0 0.00201,0 c 0.0574,3.44e-4 0.1838601,-0.0039 0.3281501,-0.02377 0.1442898,-0.01981 0.3019699,-0.03259 0.4609498,-0.165881 l -0.015999,0.01188 c 0.019201,-0.01401 0.1107499,-0.06236 0.21497,-0.06666 0.10423,-0.0043 0.2305299,0.01803 0.3906798,0.152445 a 0.26460982,0.26460982 0 0 0 0.015499,0.0098 0.26460982,0.26460982 0 0 0 0.0899,0.04496 c 1.2167199,0.819578 2.6448904,1.270551 4.1134404,1.27124 1.46946,-6.88e-4 2.89779,-0.45275 4.115,-1.273307 a 0.26460982,0.26460982 0 0 0 0.10387,-0.05271 c 0.16013,-0.134399 0.28437,-0.156745 0.3886,-0.152445 0.10423,0.0043 0.19518,0.05263 0.21446,0.06666 l -0.0134,-0.01188 c 0.15902,0.133664 0.3166,0.146108 0.46095,0.165881 0.14435,0.01977 0.26899,0.02411 0.32608,0.02377 a 0.26460982,0.26460982 0 0 0 0.004,0 c 0.0875,-0.0013 0.188169,-0.04755 0.245979,-0.107487 0.0578,-0.05993 0.0811,-0.120445 0.0977,-0.172083 0.0331,-0.103275 0.0391,-0.191164 0.0486,-0.281119 0.0184,-0.174983 0.0513,-0.334098 0.1018,-0.408244 -0.0376,0.04683 0.0383,-0.01226 0.18965,-0.01189 0.15604,3.96e-4 0.36269,0.02872 0.55449,0.07803 a 0.26460982,0.26460982 0 0 0 0.257859,-0.437173 c -0.11469,-0.120225 -0.23989,-0.261372 -0.33021,-0.384989 -0.0888,-0.121501 -0.12431,-0.237205 -0.12506,-0.216525 8.2e-4,-0.02588 0.023,-0.0876 0.13074,-0.162264 0.1092,-0.07564 0.28932,-0.146532 0.51005,-0.172082 a 0.26460982,0.26460982 0 0 0 0.10335,-0.489893 c -0.26341,-0.154497 -0.37692,-0.313811 -0.42943,-0.46302 -0.0525,-0.149211 -0.0447,-0.304468 0.002,-0.45682 a 0.26460982,0.26460982 0 0 0 0.008,-0.117306 c 0.25598,-0.755577 0.41365,-1.543466 0.41599,-2.341976 a 0.26460982,0.26460982 0 0 0 0,-0.0021 c -0.003,-0.819935 -0.17713,-1.606978 -0.43976,-2.366781 a 0.26460982,0.26460982 0 0 0 -0.002,-0.0062 c -0.1106,-0.296316 -0.0714,-0.457559 0.0258,-0.6345877 0.0973,-0.177025 0.28222,-0.353967 0.4687,-0.564306 a 0.26460982,0.26460982 0 0 0 0.002,-0.0041 c 0.62381,-0.724267 1.363521,-2.330373 1.35909,-3.560507 -0.003,-0.801187 -0.146619,-1.470008 -0.316259,-1.949235 -0.0848,-0.239613 -0.17619,-0.430345 -0.26561,-0.574124 -0.0447,-0.07189 -0.0882,-0.132507 -0.140561,-0.185519 -0.0524,-0.05301 -0.107629,-0.123539 -0.262,-0.127124 a 0.26460982,0.26460982 0 0 0 -0.002,0 c -0.0717,-9e-4 -0.13424,0.0081 -0.24185,0.02532 -0.10761,0.01726 -0.2457,0.04379 -0.40824,0.08423 -0.32509,0.08088 -0.7493,0.215379 -1.21698,0.429432 -0.935359,0.428104 -2.049509,1.180172 -2.873209,2.464965 l 0.0119,-0.01757 c 0.007,-0.0094 -0.0391,0.04546 -0.125061,0.07441 -0.086,0.02896 -0.221359,0.04816 -0.445449,-0.02739 a 0.26460982,0.26460982 0 0 0 -0.11679,-0.01188 c -0.770671,-0.266827 -1.57643,-0.425807 -2.392621,-0.427881 a 0.26460982,0.26460982 0 0 0 -0.002,0 c -0.8162,0.002 -1.61993,0.161071 -2.39055,0.427881 -6.09e-4,2.12e-4 -10e-4,-2.11e-4 -0.002,0 a 0.26460982,0.26460982 0 0 0 -0.11524,0.01188 c -0.2240808,0.07554 -0.3594406,0.05635 -0.4454506,0.02739 -0.0821,-0.02764 -0.1261001,-0.07595 -0.12402,-0.07235 0.004,0.0054 0.007,0.01007 0.010901,0.0155 l -0.013401,-0.01757 c -3.175e-4,-4.24e-4 0.003,0.0022 0.003,0.0021 -0.8226879,-1.274862 -1.933038,-2.023114 -2.864448,-2.449463 -0.4676799,-0.21408 -0.88929,-0.348567 -1.2143899,-0.429431 -0.1625499,-0.04043 -0.3006,-0.067 -0.40825,-0.08423 -0.1059399,-0.01697 -0.16955,-0.02604 -0.24029,-0.02532 a 0.26460982,0.26460982 0 0 0 -0.006,0 z"
     style="color:#000000;font-style:normal;font-variant:normal;font-weight:normal;font-stretch:normal;font-size:medium;line-height:normal;font-family:sans-serif;font-variant-ligatures:normal;font-variant-position:normal;font-variant-caps:normal;font-variant-numeric:normal;font-variant-alternates:normal;font-feature-settings:normal;text-indent:0;text-align:start;text-decoration:none;text-decoration-line:none;text-decoration-style:solid;text-decoration-color:#000000;letter-spacing:normal;word-spacing:normal;text-transform:none;writing-mode:lr-tb;direction:ltr;text-orientation:mixed;dominant-baseline:auto;baseline-shift:baseline;text-anchor:start;white-space:normal;shape-padding:0;clip-rule:nonzero;display:inline;overflow:visible;visibility:visible;isolation:auto;mix-blend-mode:normal;color-interpolation:sRGB;color-interpolation-filters:linearRGB;solid-color:#000000;solid-opacity:1;vector-effect:none;fill:#cccccc;fill-opacity:1;fill-rule:evenodd;stroke:none;stroke-width:0.529167;stroke-linecap:round;stroke-linejoin:round;stroke-miterlimit:4;stroke-dasharray:none;stroke-dashoffset:0;stroke-opacity:1;paint-order:markers fill stroke;color-rendering:auto;image-rendering:auto;shape-rendering:auto;text-rendering:auto;enable-background:accumulate" />
  <path
     id="path1229"
     d="m 17.764277,8.0201793 a 7.5406251,7.5406251 0 0 1 0.37517,2.3187207 7.5406251,7.5406251 0 0 1 -7.00732,7.521506 7.4609839,7.4609839 0 0 1 -0.002,0 7.4609839,7.4609839 0 0 1 -0.53176,0.01912 7.5406251,7.5406251 0 0 1 -4.7252903,-1.67225 c -0.054,-0.04176 -0.1248799,-0.103245 -0.1984298,-0.173633 -0.0682,0.1071 -0.1764602,0.216552 -0.3596701,0.324012 a 0.26460982,0.26460982 0 0 0 0.1038699,0.489892 c 0.2207302,0.02556 0.4003302,0.09645 0.5095301,0.172083 0.1077801,0.07466 0.1299199,0.136385 0.1307401,0.162264 -7.937e-4,-0.02068 -0.0363,0.09503 -0.1250601,0.216524 -0.0903,0.123617 -0.2150099,0.264764 -0.3296901,0.384989 a 0.26460982,0.26460982 0 0 0 0.25786,0.437183 c 0.1918102,-0.04931 0.3984501,-0.07764 0.5544902,-0.07803 0.1498198,-3.7e-4 0.2223098,0.05601 0.1875898,0.01188 0.0505,0.07415 0.085,0.233261 0.10335,0.408244 0.010001,0.08995 0.013999,0.177849 0.047,0.28112 0.0165,0.05164 0.0419,0.112156 0.0997,0.172082 0.0578,0.05993 0.1584999,0.106148 0.2459799,0.107487 a 0.26460982,0.26460982 0 0 0 0.00201,0 c 0.0574,3.44e-4 0.18386,-0.0039 0.32815,-0.02377 0.1442899,-0.01981 0.3019699,-0.03259 0.4609498,-0.165881 l -0.015999,0.01189 c 0.019201,-0.01401 0.1107501,-0.06236 0.21497,-0.06666 0.1042299,-0.0043 0.2305298,0.01803 0.39068,0.152446 a 0.26460982,0.26460982 0 0 0 0.015499,0.0098 0.26460982,0.26460982 0 0 0 0.0899,0.04496 c 1.2167202,0.819577 2.6448806,1.270551 4.1134406,1.27124 1.46946,-6.88e-4 2.89779,-0.452751 4.11499,-1.273308 a 0.26460982,0.26460982 0 0 0 0.10387,-0.05271 c 0.16014,-0.134399 0.28437,-0.156745 0.38861,-0.152445 0.10423,0.0043 0.19518,0.05263 0.21446,0.06666 l -0.0134,-0.01189 c 0.15902,0.133664 0.3166,0.146108 0.46095,0.165881 0.14435,0.01977 0.26899,0.02411 0.32608,0.02377 a 0.26460982,0.26460982 0 0 0 0.004,0 c 0.0875,-0.0013 0.188159,-0.04755 0.245979,-0.107487 0.0578,-0.05993 0.0811,-0.120444 0.0977,-0.172082 0.0331,-0.103275 0.0391,-0.191165 0.0486,-0.281121 0.0184,-0.174982 0.0513,-0.334097 0.1018,-0.408243 -0.0376,0.04683 0.0383,-0.01225 0.18965,-0.01188 0.15604,3.97e-4 0.36268,0.02872 0.55449,0.07803 a 0.26460982,0.26460982 0 0 0 0.25786,-0.437183 c -0.11468,-0.120225 -0.23989,-0.261372 -0.33021,-0.384989 -0.0888,-0.121501 -0.1243,-0.237205 -0.12506,-0.216524 7.94e-4,-0.02588 0.023,-0.0876 0.13075,-0.162264 0.1092,-0.07564 0.28931,-0.146533 0.51004,-0.172083 a 0.26460982,0.26460982 0 0 0 0.10336,-0.489893 c -0.26341,-0.154497 -0.37692,-0.313811 -0.42944,-0.46302 -0.0525,-0.149211 -0.0447,-0.304468 0.002,-0.45682 a 0.26460982,0.26460982 0 0 0 0.008,-0.117306 c 0.25599,-0.755577 0.41366,-1.543466 0.416,-2.341976 a 0.26460982,0.26460982 0 0 0 0,-0.0021 c -0.002,-0.501332 -0.073,-0.989063 -0.18397,-1.467094 l -0.57412,-1.080554 A 7.1293496,7.1210327 0 0 0 17.763847,8.0201273 Z"
     style="color:#000000;font-style:normal;font-variant:normal;font-weight:normal;font-stretch:normal;font-size:medium;line-height:normal;font-family:sans-serif;font-variant-ligatures:normal;font-variant-position:normal;font-variant-caps:normal;font-variant-numeric:normal;font-variant-alternates:normal;font-feature-settings:normal;text-indent:0;text-align:start;text-decoration:none;text-decoration-line:none;text-decoration-style:solid;text-decoration-color:#000000;letter-spacing:normal;word-spacing:normal;text-transform:none;writing-mode:lr-tb;direction:ltr;text-orientation:mixed;dominant-baseline:auto;baseline-shift:baseline;text-anchor:start;white-space:normal;shape-padding:0;clip-rule:nonzero;display:inline;overflow:visible;visibility:visible;isolation:auto;mix-blend-mode:normal;color-interpolation:sRGB;color-interpolation-filters:linearRGB;solid-color:#000000;solid-opacity:1;vector-effect:none;fill:#a3a3a3;fill-opacity:1;fill-rule:evenodd;stroke:none;stroke-width:0.529167;stroke-linecap:round;stroke-linejoin:round;stroke-miterlimit:4;stroke-dasharray:none;stroke-dashoffset:0;stroke-opacity:1;paint-order:markers fill stroke;color-rendering:auto;image-rendering:auto;shape-rendering:auto;text-rendering:auto;enable-background:accumulate" />
  <path
     id="path1231"
     d="m 4.8141667,2.6101733 c -1.00701,0.0015 -1.18378,1.524546 -1.1813299,3.150195 0.00201,1.503681 0.1126799,1.683328 1.0314699,3.456638 0.3438999,0.631259 0.8240099,0.689817 0.6816101,1.4314367 -0.0288,0.0994 -0.0553,0.199213 -0.0801,0.299723 -0.013301,0.0404 -0.025299,0.07922 -0.0413,0.12299 l 0.013401,-0.01344 c -0.1619602,0.62194 -0.24585,1.261597 -0.2490801,1.904276 0.003,0.81656 0.1361599,1.627568 0.3937699,2.402438 -0.006,-0.008 -0.011599,-0.01555 -0.0176,-0.02325 0.1695199,0.47012 -0.0679,0.620028 -0.2144501,0.766878 -0.3181699,0.29547 -0.4046299,0.317114 -0.4046299,0.513664 -0.003,0.52092 0.8124899,0.511626 0.8185499,0.649056 -0.6172898,0.62328 -0.79737,1.205935 -0.3214201,1.297596 0.2241201,-0.003 0.80918,-0.171598 1.0852002,-0.05478 0.1579298,0.85617 0.2031098,1.004702 0.60255,1.012342 0.4571399,7.67e-4 0.7008499,-0.270396 0.9498098,-0.273885 0.36033,10e-4 0.4106199,0.03623 0.81597,0.30024 -0.005,-0.007 -0.010999,-0.01399 -0.016499,-0.02119 1.2093301,0.74349 2.6003216,1.13863 4.0199106,1.14205 1.417231,-0.002 2.80624,-0.395528 4.01474,-1.135848 -0.004,0.005 -0.008,0.01019 -0.0114,0.01499 0.0524,-0.0341 0.0862,-0.05475 0.12816,-0.08165 0.0212,-0.0134 0.0425,-0.02671 0.0636,-0.04031 0.23649,-0.14765 0.334,-0.177393 0.62477,-0.178283 0.248961,0.003 0.492161,0.274655 0.949289,0.273885 0.39944,-0.008 0.44463,-0.156172 0.60255,-1.012342 0.27602,-0.11685 0.86108,0.05148 1.085201,0.05478 0.475959,-0.0917 0.296389,-0.674316 -0.320911,-1.297596 0.006,-0.13743 0.821091,-0.128136 0.81804,-0.649056 0,-0.19655 -0.0865,-0.218194 -0.404619,-0.513664 -0.146541,-0.14684 -0.38398,-0.296758 -0.214461,-0.766878 -0.003,0.004 -0.006,0.0081 -0.009,0.01189 0.25361,-0.771761 0.3838,-1.578709 0.38551,-2.391069 -0.002,-0.64104 -0.0843,-1.279422 -0.24443,-1.900142 l 0.009,0.01034 c -0.008,-0.0226 -0.0137,-0.04186 -0.0212,-0.06356 -0.028,-0.10286 -0.0582,-0.205338 -0.0904,-0.306958 -0.17647,-0.7931207 0.31923,-0.8379487 0.67127,-1.4841477 0.91879,-1.77331 1.06355,-1.952957 1.06557,-3.456637 0.002,-1.62594 -0.20846,-3.148986 -1.21594,-3.1501961 -0.99728,-0.005 -3.473609,0.837403 -4.919599,2.852022 -0.066,0.0867 -0.15406,0.276393 -0.68161,0.135393 -0.0153,-0.004 -0.0306,-0.0084 -0.046,-0.01292 -0.0358,-0.0104 -0.0647,-0.01305 -0.10439,-0.02635 -0.6933,-0.2019 -1.411619,-0.305375 -2.13372,-0.307475 -0.72063,0.001 -1.4373,0.103201 -2.129579,0.303341 l 0.004,-0.0052 c -0.671581,0.22645 -0.7680611,0.0074 -0.8402611,-0.08733 C 8.2884165,3.4478793 5.8121666,2.6058063 4.8145765,2.6101583 Z m 0.0801,0.658358 c 0.2378598,-0.0034 2.9334498,0.415478 4.5144498,2.881478 0.0581,0.07638 0.3257202,0.320326 0.8666105,0.137976 l -0.009,0.0098 c 0.77978,-0.286151 1.60334,-0.433632 2.43396,-0.435632 0.83062,0.0021 1.65418,0.149481 2.43396,0.435632 l -0.009,-0.0098 c 0.54089,0.18235 0.80846,-0.06158 0.86661,-0.137976 1.581,-2.466 4.276589,-2.884478 4.514459,-2.881478 0.1679,0.0039 0.61911,1.027363 0.62511,2.567123 0.004,1.11139 -0.63893,2.746474 -1.1951,3.392203 -0.34945,0.394161 -0.80997,0.754061 -0.54364,1.4676107 0.25589,0.74031 0.42115,1.498742 0.42375,2.282032 -0.002,0.81858 -0.14627,1.63062 -0.42478,2.40037 0.005,-0.0059 0.01,-0.01157 0.014,-0.01757 -0.11825,0.38545 -0.064,0.866821 0.54622,1.224732 -0.51473,0.05958 -0.87445,0.319332 -0.87695,0.596862 0.004,0.19828 0.29205,0.534305 0.52968,0.783415 -0.42131,-0.10831 -0.89354,-0.130596 -1.01906,0.0186 -0.229459,0.307151 -0.0906,0.870849 -0.289899,0.87385 -0.0895,5.3e-4 -0.47628,-0.0097 -0.61598,-0.127125 -0.13076,-0.09515 -0.51804,-0.247704 -0.93018,0.09819 0.001,-0.002 0.002,-0.0032 0.004,-0.0052 -1.19022,0.82576 -2.60386,1.268483 -4.052471,1.269173 -1.448609,-6.88e-4 -2.8622499,-0.443413 -4.0524702,-1.269173 0.00101,0.002 0.00201,0.0032 0.004,0.0052 -0.4121402,-0.345908 -0.7994201,-0.193385 -0.9301703,-0.09819 -0.1397098,0.11713 -0.5264898,0.127654 -0.6159898,0.127125 -0.1993001,-0.0031 -0.0604,-0.566699 -0.2899,-0.87385 -0.12552,-0.1492 -0.5977499,-0.126912 -1.0190599,-0.0186 0.2376199,-0.24911 0.52588,-0.585135 0.5296799,-0.783415 -0.00201,-0.27753 -0.3622199,-0.537262 -0.8769501,-0.596862 0.6102102,-0.357911 0.6644701,-0.839282 0.5462202,-1.224732 0.005,0.0059 0.01,0.01157 0.013999,0.01757 -0.27851,-0.76975 -0.4223798,-1.58179 -0.4247799,-2.40037 0.003,-0.78329 0.1678599,-1.541722 0.4237498,-2.282032 C 6.2756734,9.9819183 5.8151535,9.6220183 5.4657034,9.2278573 4.9095334,8.5821283 4.2724535,6.9645843 4.2764535,5.8531943 c 0.006,-1.53977 0.4513601,-2.580663 0.6192599,-2.584663 z"
     style="fill:#000000;fill-opacity:1;fill-rule:evenodd;stroke-width:0.590323;stroke-linecap:round;stroke-linejoin:round;paint-order:markers fill stroke" />
  <path
     id="path1233"
     d="m 4.7128789,4.1434143 c -1.0055701,2.392479 0.7896992,4.886114 1.7296104,5.520593 A 7.8293667,7.8293667 0 0 1 8.7570774,7.0491803 C 7.7409054,5.7333493 6.2621784,4.2660543 4.7128789,4.1434143 Z m 15.9680171,0 c -1.549289,0.12264 -3.028026,1.589935 -4.044195,2.905766 a 7.8293667,7.8293667 0 0 1 2.314584,2.614827 c 0.939911,-0.634479 2.735181,-3.128114 1.729611,-5.520593 z"
     style="fill:#a3a3a3;fill-opacity:1;stroke:none;stroke-width:0.264583px;stroke-linecap:butt;stroke-linejoin:miter;stroke-opacity:1" />
  <path
     id="path1235"
     d="m 5.3453971,5.2916643 1.0598838,2.269627 -0.8252724,0.220144 1.4035325,1.034561 a 7.8293667,7.8293667 0 0 1 1.3043138,-1.404049 l -0.4464844,-0.741039 -0.6934993,0.06821 z m 14.7029799,0 -1.802473,1.447456 -0.693499,-0.06821 -0.446484,0.74104 a 7.8293667,7.8293667 0 0 1 1.304313,1.404048 l 1.403532,-1.034563 -0.825272,-0.220144 z"
     style="fill:#e4e4e4;fill-opacity:1;stroke:none;stroke-width:0.264583px;stroke-linecap:butt;stroke-linejoin:miter;stroke-opacity:1" />
  <path
     id="path1245"
     d="m 63.262516,21.708043 c -0.007,1.297785 -1.33913,1.731546 -2.075371,1.731546 h -3.674088 c -0.839381,0 -1.7516,-0.68242 -1.7516,-1.787114 0,-1.104693 0.56398,-2.522364 2.91933,-2.517208 2.902209,0.0059 4.590799,0.869625 4.581729,2.572776 z"
     style="fill:#000000;fill-opacity:1;fill-rule:evenodd;stroke:none;stroke-width:0.693459;stroke-linecap:round;stroke-linejoin:round;paint-order:markers fill stroke" />
  <path
     style="color:#000000;font-style:normal;font-variant:normal;font-weight:normal;font-stretch:normal;font-size:medium;line-height:normal;font-family:sans-serif;font-variant-ligatures:normal;font-variant-position:normal;font-variant-caps:normal;font-variant-numeric:normal;font-variant-alternates:normal;font-feature-settings:normal;text-indent:0;text-align:start;text-decoration:none;text-decoration-line:none;text-decoration-style:solid;text-decoration-color:#000000;letter-spacing:normal;word-spacing:normal;text-transform:none;writing-mode:lr-tb;direction:ltr;text-orientation:mixed;dominant-baseline:auto;baseline-shift:baseline;text-anchor:start;white-space:normal;shape-padding:0;clip-rule:nonzero;display:inline;overflow:visible;visibility:visible;isolation:auto;mix-blend-mode:normal;color-interpolation:sRGB;color-interpolation-filters:linearRGB;solid-color:#000000;solid-opacity:1;vector-effect:none;fill:#000000;fill-opacity:1;fill-rule:evenodd;stroke:none;stroke-width:1.11739;stroke-linecap:round;stroke-linejoin:round;stroke-miterlimit:4;stroke-dasharray:none;stroke-dashoffset:0;stroke-opacity:1;paint-order:markers fill stroke;color-rendering:auto;image-rendering:auto;shape-rendering:auto;text-rendering:auto;enable-background:accumulate"
     d="m 63.953256,1.9799643 c -0.817269,-0.0023 -1.60492,0.243865 -2.214589,0.723469 -0.609672,0.479602 -1.029642,1.219981 -1.03555,2.086918 -0.006,0.873902 0.491619,1.57527 1.140298,1.961431 0.64869,0.386165 1.43541,0.534056 2.212962,0.537961 0.85235,0.0043 1.541468,-0.235436 1.94015,-0.762746 0.39869,-0.52731 0.4655,-1.182211 0.462129,-1.909601 -0.003,-0.687177 -0.11662,-1.344791 -0.536331,-1.858315 -0.419709,-0.513522 -1.11088,-0.776719 -1.969069,-0.779117 z"
     id="path1260" />
  <path
     id="path1253"
     d="m 55.466907,2.1202803 c -0.774071,-0.0022 -1.5201,0.230974 -2.09754,0.685231 -0.577451,0.454253 -0.975231,1.155505 -0.980821,1.976623 -0.006,0.827715 0.465629,1.492015 1.080029,1.857767 0.61441,0.365755 1.359551,0.50583 2.096,0.509529 0.807302,0.0041 1.46,-0.222993 1.837611,-0.722434 0.377621,-0.499443 0.440901,-1.11973 0.43771,-1.808676 -0.003,-0.650859 -0.110461,-1.273715 -0.507989,-1.760101 -0.397521,-0.486381 -1.052161,-0.735666 -1.865,-0.737939 z m -0.01029,0.581877 c 1.39505,0.0039 1.79056,0.767972 1.795759,1.918229 0.006,1.258428 -0.29541,1.953742 -1.69654,1.946651 -1.29826,-0.0065 -2.589628,-0.525965 -2.580719,-1.784387 0.009,-1.285872 1.186719,-2.084107 2.4815,-2.080493 z"
     style="color:#000000;font-style:normal;font-variant:normal;font-weight:normal;font-stretch:normal;font-size:medium;line-height:normal;font-family:sans-serif;font-variant-ligatures:normal;font-variant-position:normal;font-variant-caps:normal;font-variant-numeric:normal;font-variant-alternates:normal;font-feature-settings:normal;text-indent:0;text-align:start;text-decoration:none;text-decoration-line:none;text-decoration-style:solid;text-decoration-color:#000000;letter-spacing:normal;word-spacing:normal;text-transform:none;writing-mode:lr-tb;direction:ltr;text-orientation:mixed;dominant-baseline:auto;baseline-shift:baseline;text-anchor:start;white-space:normal;shape-padding:0;clip-rule:nonzero;display:inline;overflow:visible;visibility:visible;isolation:auto;mix-blend-mode:normal;color-interpolation:sRGB;color-interpolation-filters:linearRGB;solid-color:#000000;solid-opacity:1;vector-effect:none;fill:#000000;fill-opacity:1;fill-rule:evenodd;stroke:none;stroke-width:1.05833;stroke-linecap:round;stroke-linejoin:round;stroke-miterlimit:4;stroke-dasharray:none;stroke-dashoffset:0;stroke-opacity:1;paint-order:markers fill stroke;color-rendering:auto;image-rendering:auto;shape-rendering:auto;text-rendering:auto;enable-background:accumulate" />
  <path
     id="path1251"
     d="m 57.310296,4.6197583 c 0.006,1.292484 -0.30361,2.007077 -1.74266,1.999794 -1.333389,-0.0067 -2.659459,-0.540676 -2.65031,-1.833153 0.009,-1.32067 1.218491,-2.140251 2.548311,-2.136539 1.432798,0.004 1.839319,0.78851 1.844659,1.969898 z"
     style="fill:#aeaeae;fill-opacity:1;fill-rule:evenodd;stroke:none;stroke-width:0.485089;stroke-linecap:round;stroke-linejoin:round;paint-order:markers fill stroke" />
  <path
     id="path1262"
     d="m 57.031666,3.3491463 a 3.5864472,3.5864472 0 0 1 -2.836519,3.046843 c 0.41578,0.149448 0.89317,0.221351 1.372529,0.223759 1.43905,0.0073 1.748531,-0.707393 1.74253,-1.999877 -0.0021,-0.506913 -0.0791,-0.940258 -0.27854,-1.270725 z"
     style="fill:#8b8b8b;fill-opacity:1;fill-rule:evenodd;stroke:none;stroke-width:0.485089;stroke-linecap:round;stroke-linejoin:round;paint-order:markers fill stroke" />
  <path
     id="path1281"
     d="m 12.698437,5.5975883 c -0.8162,0.002 -1.61993,0.16107 -2.39055,0.427881 -6.08e-4,2.12e-4 -10e-4,-2.11e-4 -0.002,0 -0.0388,-0.0046 -0.0782,-5.56e-4 -0.11524,0.01188 -0.0213,0.0072 -0.0381,0.01 -0.0579,0.0155 0.848039,2.549499 0.970839,4.5841547 2.567249,4.5806437 1.584,0.0042 1.77355,-2.0269017 2.57611,-4.5785747 -0.0223,-0.0061 -0.0418,-0.0093 -0.0662,-0.01757 -0.0375,-0.01266 -0.0775,-0.01671 -0.11679,-0.01188 -0.77067,-0.266827 -1.57644,-0.425807 -2.39262,-0.427881 -6.61e-4,-3e-6 -10e-4,-3e-6 -0.002,0 z m -0.66766,6.3789367 c -4.4269704,-0.01847 -1.98488,2.021584 -6.3655005,2.010215 l -0.2588998,5.29e-4 c 0.0708,0.452098 0.1798399,0.898503 0.3271099,1.333254 -0.006,0.03919 -0.004,0.07928 0.008,0.117305 0.0467,0.15235 0.0567,0.307607 0.004,0.456819 -0.0525,0.149207 -0.1665398,0.308523 -0.42995,0.463021 -0.2165998,0.12932 -0.14658,0.4596 0.1038701,0.489892 0.22074,0.02556 0.40033,0.09645 0.5095301,0.172082 0.1077799,0.07466 0.12992,0.136385 0.1307399,0.162264 -7.408e-4,-0.02068 -0.0363,0.09503 -0.12505,0.216524 -0.0903,0.123619 -0.21502,0.264766 -0.3297,0.38499 -0.1799201,0.192808 0.00201,0.50137 0.2578701,0.437182 1.42977,0.0026 2.6926698,-2.49197 3.2734699,-3.462422 0.2361798,-0.427287 1.1824813,-1.884562 2.8946213,-2.781642 z m 2.78588,0.375922 c 1.58751,0.277393 2.7275,2.02541 4.727359,2.385667 l 0.2837,0.04393 c 0.11185,-0.416623 0.19109,-0.841073 0.22841,-1.270206 -3.198079,0.196869 -2.268209,-1.369825 -5.239469,-1.159391 z m 0.64957,2.348977 c 0.88181,1.293215 1.62014,2.12956 3.031859,3.214275 l -5.29e-4,0.001 c 0.006,0.0047 0.0125,0.0088 0.0186,0.01344 0.0239,0.01832 0.0444,0.03528 0.0687,0.05374 8.73e-4,-0.001 0.003,-0.0016 0.004,-0.0026 0.0895,0.06387 0.1827,0.120655 0.27905,0.173633 0.0315,-0.0065 0.0685,-0.01252 0.11627,-0.0124 0.15604,3.97e-4 0.36269,0.02872 0.55449,0.07803 0.25578,0.06419 0.43779,-0.244374 0.25787,-0.437182 -0.11469,-0.120224 -0.2399,-0.261371 -0.33022,-0.38499 -0.0888,-0.121499 -0.1243,-0.237204 -0.12505,-0.216524 8.2e-4,-0.02588 0.023,-0.0876 0.13074,-0.162264 0.1092,-0.07564 0.28932,-0.146531 0.51004,-0.172082 0.25023,-0.03068 0.31987,-0.360737 0.10336,-0.489892 -0.26341,-0.154498 -0.37692,-0.313814 -0.42943,-0.463021 -0.006,-0.01815 -0.009,-0.03647 -0.0139,-0.05478 -0.12946,0.0021 -0.2852,0.0073 -0.38034,0.0083 -1.952009,-0.06857 -2.059289,-0.320784 -3.795119,-1.146702 z"
     style="color:#000000;font-style:normal;font-variant:normal;font-weight:normal;font-stretch:normal;font-size:medium;line-height:normal;font-family:sans-serif;font-variant-ligatures:normal;font-variant-position:normal;font-variant-caps:normal;font-variant-numeric:normal;font-variant-alternates:normal;font-feature-settings:normal;text-indent:0;text-align:start;text-decoration:none;text-decoration-line:none;text-decoration-style:solid;text-decoration-color:#000000;letter-spacing:normal;word-spacing:normal;text-transform:none;writing-mode:lr-tb;direction:ltr;text-orientation:mixed;dominant-baseline:auto;baseline-shift:baseline;text-anchor:start;white-space:normal;shape-padding:0;clip-rule:nonzero;display:inline;overflow:visible;visibility:visible;isolation:auto;mix-blend-mode:normal;color-interpolation:sRGB;color-interpolation-filters:linearRGB;solid-color:#000000;solid-opacity:1;vector-effect:none;fill:#000000;fill-opacity:0.14902;fill-rule:evenodd;stroke:none;stroke-width:0.529167;stroke-linecap:round;stroke-linejoin:round;stroke-miterlimit:4;stroke-dasharray:none;stroke-dashoffset:0;stroke-opacity:1;paint-order:markers fill stroke;color-rendering:auto;image-rendering:auto;shape-rendering:auto;text-rendering:auto;enable-background:accumulate" />
  <ellipse
     cx="21.259903"
     cy="29.897926"
     rx="1.1515931"
     ry="2.1166668"
     id="ellipse1964"
     style="fill:#000000;fill-opacity:1;fill-rule:evenodd;stroke:none;stroke-width:0.625878;stroke-linecap:round;stroke-linejoin:round;paint-order:markers fill stroke" />
  <g
     aria-label="redrawn by mind"
     id="text1310"
     style="font-style:normal;font-variant:normal;font-weight:normal;font-stretch:normal;font-size:1.41111px;line-height:1.25;font-family:'Segoe Print';-inkscape-font-specification:'Segoe Print, Normal';font-variant-ligatures:normal;font-variant-caps:normal;font-variant-numeric:normal;font-feature-settings:normal;text-align:start;letter-spacing:0px;word-spacing:0px;writing-mode:lr-tb;text-anchor:start;fill:#000000;fill-opacity:1;stroke:#000000;stroke-width:0.05;stroke-miterlimit:4;stroke-dasharray:none;stroke-opacity:1">
    <path
       d="m 2.4839121,32.770435 q 0.00689,-0.0124 0.016536,-0.03445 0.046853,-0.107487 0.086127,-0.168121 0.039274,-0.06132 0.086127,-0.117133 0.047542,-0.05581 0.086127,-0.08475 0.039274,-0.02894 0.070969,-0.03996 0.031695,-0.01171 0.061323,-0.01171 0.059945,0 0.097841,0.03652 0.037896,0.03583 0.037896,0.08406 0,0.02136 -0.01378,0.03858 -0.013091,0.01723 -0.040652,0.01723 -0.028939,0 -0.053055,-0.02549 -0.024805,-0.02549 -0.051676,-0.02549 -0.071658,0 -0.1984373,0.173632 -0.1267794,0.173633 -0.1543402,0.382406 -0.00689,0.05374 -0.026183,0.07097 -0.019292,0.01723 -0.054432,0.01723 -0.033762,0 -0.04892,-0.0503 -0.015158,-0.0503 -0.015158,-0.169499 0,-0.03238 0.00345,-0.142627 0.00413,-0.130224 0.016536,-0.210151 0.00207,-0.01309 0.00689,-0.06132 0.00482,-0.05306 0.011713,-0.07373 0.00758,-0.02067 0.029628,-0.03858 0.022738,-0.01792 0.04892,-0.01792 0.025494,0 0.037896,0.01654 0.013091,0.01585 0.013091,0.03445 0,0.02687 -0.01378,0.07579 -0.015847,0.05443 -0.018603,0.0751 -0.00207,0.02343 -0.00758,0.04892 -0.00689,0.02963 -0.01378,0.155718 l -6.89e-4,0.02549 z"
       style="font-style:normal;font-variant:normal;font-weight:normal;font-stretch:normal;font-size:1.41111px;font-family:'Segoe Print';-inkscape-font-specification:'Segoe Print, Normal';font-variant-ligatures:normal;font-variant-caps:normal;font-variant-numeric:normal;font-feature-settings:normal;text-align:start;writing-mode:lr-tb;text-anchor:start;stroke:#000000;stroke-width:0.05;stroke-miterlimit:4;stroke-dasharray:none;stroke-opacity:1"
       id="path1656" />
    <path
       d="m 3.6600668,32.810399 q 0,0.07028 -0.1247123,0.169498 -0.1240234,0.09922 -0.256315,0.09922 -0.1109319,0 -0.1715656,-0.06546 -0.059945,-0.06546 -0.059945,-0.18259 0,-0.197059 0.1329806,-0.374826 0.1329806,-0.177767 0.2907658,-0.177767 0.051676,0 0.08406,0.03376 0.033073,0.03376 0.033073,0.0813 0,0.106109 -0.1040418,0.203261 -0.1040418,0.09715 -0.2783635,0.190858 -0.035829,0.0186 -0.035829,0.04823 0,0.05719 0.033073,0.09164 0.033073,0.03445 0.097841,0.03445 0.148139,0 0.3024792,-0.163987 0.022738,-0.02274 0.034451,-0.02274 0.022049,0 0.022049,0.03514 z M 3.1811989,32.702912 q 0.2921439,-0.173633 0.2921439,-0.279053 0,-0.04134 -0.037207,-0.04134 -0.06339,0 -0.1433159,0.09302 -0.079237,0.09302 -0.111621,0.227376 z"
       style="font-style:normal;font-variant:normal;font-weight:normal;font-stretch:normal;font-size:1.41111px;font-family:'Segoe Print';-inkscape-font-specification:'Segoe Print, Normal';font-variant-ligatures:normal;font-variant-caps:normal;font-variant-numeric:normal;font-feature-settings:normal;text-align:start;writing-mode:lr-tb;text-anchor:start;stroke:#000000;stroke-width:0.05;stroke-miterlimit:4;stroke-dasharray:none;stroke-opacity:1"
       id="path1658" />
    <path
       d="m 4.2980979,32.758722 q -0.092328,0.148139 -0.1956812,0.228754 -0.1033528,0.07993 -0.1901692,0.07993 -0.066835,0 -0.1061088,-0.05099 -0.038585,-0.05168 -0.038585,-0.137115 0,-0.174321 0.1412488,-0.3576 0.1419379,-0.183279 0.3059243,-0.183279 0.071658,0 0.1329806,0.06132 l 0.096463,-0.450618 q 0.010335,-0.04616 0.037896,-0.06201 0.02825,-0.01585 0.044097,-0.01585 0.048231,0 0.048231,0.08544 0,0.01516 -0.031695,0.112999 -0.050298,0.151584 -0.095774,0.372759 -0.044786,0.220486 -0.044786,0.354155 0,0.137804 0.059945,0.137804 0.038585,0 0.079926,-0.02549 0.017226,-0.0124 0.032384,-0.0124 0.022049,0 0.022049,0.02894 0,0.03514 -0.062012,0.0813 -0.061323,0.04616 -0.1260904,0.04616 -0.1136881,0 -0.1136881,-0.219108 0,-0.03721 0.00345,-0.0751 z m -0.090261,-0.322461 q -0.111621,0 -0.221175,0.151585 -0.1095539,0.150895 -0.1095539,0.279052 0,0.08613 0.057189,0.08613 0.053743,0 0.1302245,-0.0565 0.07717,-0.0565 0.1584743,-0.179834 0.081304,-0.124023 0.081304,-0.186035 0,-0.03032 -0.02825,-0.06201 -0.027561,-0.03238 -0.068213,-0.03238 z"
       style="font-style:normal;font-variant:normal;font-weight:normal;font-stretch:normal;font-size:1.41111px;font-family:'Segoe Print';-inkscape-font-specification:'Segoe Print, Normal';font-variant-ligatures:normal;font-variant-caps:normal;font-variant-numeric:normal;font-feature-settings:normal;text-align:start;writing-mode:lr-tb;text-anchor:start;stroke:#000000;stroke-width:0.05;stroke-miterlimit:4;stroke-dasharray:none;stroke-opacity:1"
       id="path1660" />
    <path
       d="m 4.8761846,32.770435 q 0.00689,-0.0124 0.016536,-0.03445 0.046853,-0.107487 0.086127,-0.168121 0.039274,-0.06132 0.086127,-0.117133 0.047542,-0.05581 0.086127,-0.08475 0.039274,-0.02894 0.070969,-0.03996 0.031695,-0.01171 0.061323,-0.01171 0.059945,0 0.097841,0.03652 0.037896,0.03583 0.037896,0.08406 0,0.02136 -0.01378,0.03858 -0.013091,0.01723 -0.040652,0.01723 -0.028939,0 -0.053054,-0.02549 -0.024805,-0.02549 -0.051676,-0.02549 -0.071658,0 -0.1984373,0.173632 -0.1267795,0.173633 -0.1543402,0.382406 -0.00689,0.05374 -0.026183,0.07097 -0.019292,0.01723 -0.054432,0.01723 -0.033762,0 -0.04892,-0.0503 -0.015158,-0.0503 -0.015158,-0.169499 0,-0.03238 0.00345,-0.142627 0.00413,-0.130224 0.016536,-0.210151 0.00207,-0.01309 0.00689,-0.06132 0.00482,-0.05306 0.011713,-0.07373 0.00758,-0.02067 0.029628,-0.03858 0.022738,-0.01792 0.04892,-0.01792 0.025494,0 0.037896,0.01654 0.013091,0.01585 0.013091,0.03445 0,0.02687 -0.01378,0.07579 -0.015847,0.05443 -0.018604,0.0751 -0.00207,0.02343 -0.00758,0.04892 -0.00689,0.02963 -0.01378,0.155718 l -6.89e-4,0.02549 z"
       style="font-style:normal;font-variant:normal;font-weight:normal;font-stretch:normal;font-size:1.41111px;font-family:'Segoe Print';-inkscape-font-specification:'Segoe Print, Normal';font-variant-ligatures:normal;font-variant-caps:normal;font-variant-numeric:normal;font-feature-settings:normal;text-align:start;writing-mode:lr-tb;text-anchor:start;stroke:#000000;stroke-width:0.05;stroke-miterlimit:4;stroke-dasharray:none;stroke-opacity:1"
       id="path1662" />
    <path
       d="m 5.9200476,32.793173 q -0.096463,0.129536 -0.1908581,0.194303 -0.094396,0.06477 -0.1729437,0.06477 -0.053054,0 -0.09164,-0.04479 -0.038585,-0.04479 -0.038585,-0.115066 0,-0.181212 0.1619194,-0.389985 0.1619193,-0.209461 0.3217716,-0.209461 0.057878,0 0.086127,0.06614 0.00896,0.02205 0.02825,0.02205 0.055121,0 0.055121,0.04272 0,0.02136 -0.00689,0.05857 -0.037207,0.20326 -0.037207,0.286631 0,0.166743 0.06339,0.199816 0.030317,0.01654 0.030317,0.04065 0,0.02136 -0.029628,0.04272 -0.029628,0.02205 -0.057188,0.02205 -0.053054,0 -0.087505,-0.07304 -0.034451,-0.07304 -0.034451,-0.208084 z m -0.04203,-0.387917 q -0.09095,0 -0.2115287,0.170876 -0.1205783,0.170188 -0.1205783,0.282498 0,0.07924 0.052365,0.07924 0.075792,0 0.2101507,-0.152962 0.1343586,-0.152962 0.1343586,-0.28112 0,-0.09853 -0.064768,-0.09853 z"
       style="font-style:normal;font-variant:normal;font-weight:normal;font-stretch:normal;font-size:1.41111px;font-family:'Segoe Print';-inkscape-font-specification:'Segoe Print, Normal';font-variant-ligatures:normal;font-variant-caps:normal;font-variant-numeric:normal;font-feature-settings:normal;text-align:start;writing-mode:lr-tb;text-anchor:start;stroke:#000000;stroke-width:0.05;stroke-miterlimit:4;stroke-dasharray:none;stroke-opacity:1"
       id="path1664" />
    <path
       d="m 6.8295521,32.587846 q -0.019292,6.89e-4 -0.093018,0.160541 -0.060634,0.131602 -0.1240233,0.234955 -0.06339,0.102664 -0.093018,0.102664 -0.085438,0 -0.1584743,-0.253559 -0.072347,-0.254248 -0.072347,-0.409277 0,-0.0503 0.024805,-0.08337 0.025494,-0.03307 0.059945,-0.03583 0.00482,-6.89e-4 0.017226,6.89e-4 0.012402,6.89e-4 0.030317,0.02274 0.017914,0.02136 0.017914,0.04203 v 0.0028 q 0,0.0083 -0.00758,0.0689 -0.0062,0.04479 -0.0062,0.109554 0,0.102663 0.039274,0.226687 0.039274,0.124023 0.066146,0.124023 0.019292,0 0.1274684,-0.209462 0.068213,-0.13298 0.097841,-0.183279 l 0.022049,-0.04134 q 0.047542,-0.09095 0.090261,-0.125401 0.059256,0.0076 0.059256,0.05926 0,0.01723 -0.00276,0.02894 -0.00276,0.01171 -0.00276,0.02894 0,0.127468 0.066146,0.267339 0.066146,0.139182 0.094396,0.139182 0.02067,0 0.065457,-0.146072 0.060634,-0.198437 0.111621,-0.297656 0.051676,-0.09922 0.075792,-0.117822 0.024116,-0.0186 0.054432,-0.0186 0.017226,0 0.028939,0.01516 0.012402,0.01447 0.012402,0.03169 0,0.02549 -0.00758,0.03514 -0.085438,0.11231 -0.1639865,0.35071 -0.066835,0.204639 -0.091639,0.257004 -0.024805,0.05237 -0.041341,0.05237 -0.083371,0 -0.1364256,-0.06063 -0.053055,-0.06132 -0.1405598,-0.324528 -0.010335,-0.03101 -0.019982,-0.05443 z"
       style="font-style:normal;font-variant:normal;font-weight:normal;font-stretch:normal;font-size:1.41111px;font-family:'Segoe Print';-inkscape-font-specification:'Segoe Print, Normal';font-variant-ligatures:normal;font-variant-caps:normal;font-variant-numeric:normal;font-feature-settings:normal;text-align:start;writing-mode:lr-tb;text-anchor:start;stroke:#000000;stroke-width:0.05;stroke-miterlimit:4;stroke-dasharray:none;stroke-opacity:1"
       id="path1666" />
    <path
       d="m 7.9967499,32.514121 q -0.035829,0 -0.078548,0.04685 -0.04203,0.04685 -0.1288465,0.21015 -0.1143771,0.219108 -0.148139,0.249425 -0.033073,0.03032 -0.055122,0.03032 -0.081304,0 -0.081304,-0.07855 0,-0.03307 0.011024,-0.09371 0.037896,-0.208083 0.037896,-0.438904 0,-0.02618 0.022049,-0.05788 0.022738,-0.03238 0.042719,-0.03238 0.035829,0 0.050987,0.02205 0.015158,0.02205 0.015158,0.08888 0,0.06959 -0.041341,0.286632 -0.01378,0.07166 -0.01378,0.09095 0,0.01103 0.00551,0.01103 0.010335,0 0.095774,-0.164676 0.086127,-0.167431 0.1508951,-0.235644 0.064768,-0.06821 0.1426268,-0.06821 0.062012,0 0.1005967,0.0565 0.039274,0.0565 0.057189,0.206017 0.019293,0.170188 0.034451,0.212218 0.015847,0.04134 0.049609,0.04134 0.02136,0 0.053743,-0.01516 0.00551,-0.0028 0.00827,-0.0028 0.029628,0 0.029628,0.03445 0,0.03032 -0.040652,0.06477 -0.040652,0.03376 -0.097841,0.03376 -0.058567,0 -0.09095,-0.04616 Q 8.096657,32.918539 8.078054,32.716653 8.058762,32.514082 7.99675,32.514082 Z"
       style="font-style:normal;font-variant:normal;font-weight:normal;font-stretch:normal;font-size:1.41111px;font-family:'Segoe Print';-inkscape-font-specification:'Segoe Print, Normal';font-variant-ligatures:normal;font-variant-caps:normal;font-variant-numeric:normal;font-feature-settings:normal;text-align:start;writing-mode:lr-tb;text-anchor:start;stroke:#000000;stroke-width:0.05;stroke-miterlimit:4;stroke-dasharray:none;stroke-opacity:1"
       id="path1668" />
    <path
       d="m 9.153612,32.651924 q 0.088194,-0.160541 0.2108396,-0.25976 0.1226454,-0.09991 0.221175,-0.09991 0.054433,0 0.092329,0.0503 0.037896,0.0503 0.037896,0.122645 0,0.214285 -0.1619193,0.402387 Q 9.3927014,33.055 9.2128676,33.055 q -0.04892,0 -0.090261,-0.02618 -0.040652,-0.02687 -0.045475,-0.06683 -0.00276,-0.03238 -0.018604,-0.04823 -0.029628,-0.02963 -0.029628,-0.06339 0,-0.0627 0.034451,-0.268029 L 9.1343194,32.1703 q 0.036518,-0.207394 0.053055,-0.256315 0.017225,-0.04892 0.037896,-0.06546 0.020671,-0.01654 0.050987,-0.01654 0.048231,0 0.048231,0.08337 0,0.07924 -0.053055,0.221864 -0.050987,0.137115 -0.1178221,0.514697 z m -0.016537,0.229443 q 0.035829,0.06684 0.086816,0.06684 0.078548,0 0.1660534,-0.06477 0.087505,-0.06546 0.1508951,-0.183279 0.064079,-0.118512 0.064079,-0.199816 0,-0.03652 -0.013091,-0.0627 -0.013091,-0.02618 -0.033073,-0.02618 -0.095774,0 -0.2342663,0.157096 -0.1378037,0.156407 -0.1874131,0.312814 z"
       style="font-style:normal;font-variant:normal;font-weight:normal;font-stretch:normal;font-size:1.41111px;font-family:'Segoe Print';-inkscape-font-specification:'Segoe Print, Normal';font-variant-ligatures:normal;font-variant-caps:normal;font-variant-numeric:normal;font-feature-settings:normal;text-align:start;writing-mode:lr-tb;text-anchor:start;stroke:#000000;stroke-width:0.05;stroke-miterlimit:4;stroke-dasharray:none;stroke-opacity:1"
       id="path1670" />
    <path
       d="m 10.358016,32.800752 q -0.126779,0.110243 -0.223242,0.160542 -0.09577,0.04961 -0.1467606,0.04961 -0.068213,0 -0.1047309,-0.0565 -0.035829,-0.05719 -0.035829,-0.13298 0,-0.106109 0.042719,-0.261827 0.043408,-0.156407 0.064079,-0.185346 0.02136,-0.02963 0.067524,-0.02963 0.01929,0 0.0317,0.02274 0.0124,0.02274 0.0124,0.05168 0,0.01723 -0.01585,0.04479 -0.03721,0.06477 -0.03927,0.07166 -0.0014,0.0069 -0.026179,0.08337 -0.024805,0.07579 -0.024805,0.142627 0,0.02343 0.011024,0.07304 0.011713,0.04961 0.047541,0.04961 0.0379,0 0.09302,-0.02274 0.05581,-0.02343 0.125401,-0.07579 0.06959,-0.05237 0.09371,-0.08475 0.02412,-0.03238 0.03376,-0.07373 0.01034,-0.04134 0.01447,-0.179145 0.0041,-0.137804 0.06684,-0.137804 0.03721,0 0.04823,0.01998 0.01102,0.01929 0.01102,0.07441 0,0.04548 -0.0062,0.113688 -0.0076,0.08613 -0.0096,0.122645 -0.0096,0.18948 -0.04961,0.381027 -0.03927,0.190858 -0.115067,0.319016 -0.07579,0.128846 -0.208772,0.128846 -0.1350438,0 -0.2404637,-0.07097 -0.1047308,-0.07028 -0.1047308,-0.1192 0,-0.02274 0.010335,-0.04479 0.011024,-0.02205 0.027561,-0.02205 0.00827,0 0.017914,0.01309 0.090261,0.138492 0.2838725,0.138492 0.09991,0 0.167431,-0.175699 0.06821,-0.175011 0.0751,-0.328662 0.0014,-0.02963 0.0055,-0.05926 z"
       style="font-style:normal;font-variant:normal;font-weight:normal;font-stretch:normal;font-size:1.41111px;font-family:'Segoe Print';-inkscape-font-specification:'Segoe Print, Normal';font-variant-ligatures:normal;font-variant-caps:normal;font-variant-numeric:normal;font-feature-settings:normal;text-align:start;writing-mode:lr-tb;text-anchor:start;stroke:#000000;stroke-width:0.05;stroke-miterlimit:4;stroke-dasharray:none;stroke-opacity:1"
       id="path1672" />
    <path
       d="m 11.767059,32.498962 q -0.06408,0.0014 -0.274229,0.379649 -0.07097,0.127469 -0.08268,0.139182 -0.01171,0.01102 -0.04341,0.01998 -0.03101,0.009 -0.05168,0.009 -0.04616,0 -0.04616,-0.179834 0,-0.101286 0.04341,-0.366558 0.01791,-0.107487 0.01791,-0.153651 0,-0.04547 0.04065,-0.04547 0.07648,0 0.07648,0.110243 0,0.05168 -0.02549,0.202571 -0.02963,0.172255 -0.03032,0.209462 0.04272,-0.04134 0.125401,-0.181212 0.117133,-0.191547 0.172255,-0.242535 0.05581,-0.05168 0.115066,-0.05168 0.04479,0 0.07097,0.05994 0.02687,0.05994 0.03238,0.285942 0.0014,0.0565 0.01033,0.08406 0.009,0.02756 0.01309,0.02756 0.03238,0 0.14056,-0.220486 0.05788,-0.116444 0.11231,-0.177077 0.05512,-0.06063 0.121957,-0.06063 0.05581,0 0.0813,0.05788 0.02549,0.05719 0.03652,0.170187 0.01034,0.114377 0.0317,0.209462 0.02205,0.09508 0.07993,0.121956 0.03927,0.0186 0.03927,0.04341 0,0.02412 -0.03307,0.04961 -0.03307,0.02549 -0.06063,0.02549 -0.05512,0 -0.09853,-0.06752 -0.04341,-0.06752 -0.06546,-0.292144 -0.0096,-0.09026 -0.0186,-0.128158 -0.009,-0.0379 -0.02825,-0.0379 -0.02894,0 -0.0689,0.05512 -0.03927,0.05512 -0.127469,0.223931 -0.0689,0.131602 -0.104731,0.175699 -0.03514,0.04341 -0.06821,0.04341 -0.02963,0 -0.05306,-0.02343 -0.02343,-0.02412 -0.02963,-0.05719 -0.0062,-0.03376 -0.01309,-0.164675 -0.01033,-0.21773 -0.0379,-0.253559 z"
       style="font-style:normal;font-variant:normal;font-weight:normal;font-stretch:normal;font-size:1.41111px;font-family:'Segoe Print';-inkscape-font-specification:'Segoe Print, Normal';font-variant-ligatures:normal;font-variant-caps:normal;font-variant-numeric:normal;font-feature-settings:normal;text-align:start;writing-mode:lr-tb;text-anchor:start;stroke:#000000;stroke-width:0.05;stroke-miterlimit:4;stroke-dasharray:none;stroke-opacity:1"
       id="path1674" />
    <path
       d="m 12.919098,32.12138 q -0.01447,0 -0.02205,-0.03101 -0.0028,-0.0096 -0.0076,-0.02136 -0.0186,-0.04479 -0.0186,-0.07786 0,-0.02756 0.03238,-0.05581 0.03307,-0.02894 0.07304,-0.02894 0.01998,0 0.04479,0.01585 0.02481,0.01516 0.02481,0.02963 0,0.02274 -0.01723,0.07717 -0.01654,0.05443 -0.05374,0.07372 -0.03652,0.0186 -0.05581,0.0186 z m -0.09026,0.769634 q 0,0.05237 0.01447,0.117822 0.0028,0.0124 0.0028,0.02067 0,0.0124 -0.02274,0.03169 -0.02274,0.01998 -0.04823,0.01998 -0.06683,0 -0.06683,-0.122645 0,-0.12678 0.05237,-0.401009 0.01791,-0.09577 0.01791,-0.117822 0,-0.04341 0.01585,-0.07372 0.01585,-0.03101 0.04479,-0.03101 0.03514,0 0.05512,0.01723 0.02067,0.01654 0.02067,0.03721 0,0.02067 -0.0096,0.05443 -0.05168,0.181901 -0.06408,0.260449 -0.0124,0.07855 -0.0124,0.186724 z"
       style="font-style:normal;font-variant:normal;font-weight:normal;font-stretch:normal;font-size:1.41111px;font-family:'Segoe Print';-inkscape-font-specification:'Segoe Print, Normal';font-variant-ligatures:normal;font-variant-caps:normal;font-variant-numeric:normal;font-feature-settings:normal;text-align:start;writing-mode:lr-tb;text-anchor:start;stroke:#000000;stroke-width:0.05;stroke-miterlimit:4;stroke-dasharray:none;stroke-opacity:1"
       id="path1676" />
    <path
       d="m 13.574355,32.514121 q -0.03583,0 -0.07855,0.04685 -0.04203,0.04685 -0.128847,0.21015 -0.114377,0.219108 -0.148139,0.249425 -0.03307,0.03032 -0.05512,0.03032 -0.08131,0 -0.08131,-0.07855 0,-0.03307 0.01103,-0.09371 0.0379,-0.208083 0.0379,-0.438904 0,-0.02618 0.02205,-0.05788 0.02274,-0.03238 0.04272,-0.03238 0.03583,0 0.05099,0.02205 0.01516,0.02205 0.01516,0.08888 0,0.06959 -0.04134,0.286632 -0.01378,0.07166 -0.01378,0.09095 0,0.01103 0.0055,0.01103 0.01034,0 0.09577,-0.164676 0.08613,-0.167431 0.150896,-0.235644 0.06477,-0.06821 0.142626,-0.06821 0.06201,0 0.100597,0.0565 0.03927,0.0565 0.05719,0.206017 0.01929,0.170188 0.03445,0.212218 0.01585,0.04134 0.04961,0.04134 0.02136,0 0.05374,-0.01516 0.0055,-0.0028 0.0083,-0.0028 0.02963,0 0.02963,0.03445 0,0.03032 -0.04065,0.06477 -0.04065,0.03376 -0.09784,0.03376 -0.05857,0 -0.09095,-0.04616 -0.03169,-0.04685 -0.0503,-0.248736 -0.01929,-0.202571 -0.0813,-0.202571 z"
       style="font-style:normal;font-variant:normal;font-weight:normal;font-stretch:normal;font-size:1.41111px;font-family:'Segoe Print';-inkscape-font-specification:'Segoe Print, Normal';font-variant-ligatures:normal;font-variant-caps:normal;font-variant-numeric:normal;font-feature-settings:normal;text-align:start;writing-mode:lr-tb;text-anchor:start;stroke:#000000;stroke-width:0.05;stroke-miterlimit:4;stroke-dasharray:none;stroke-opacity:1"
       id="path1678" />
    <path
       d="m 14.534847,32.758722 q -0.09233,0.148139 -0.195681,0.228754 -0.103353,0.07993 -0.190169,0.07993 -0.06683,0 -0.106109,-0.05099 -0.03858,-0.05168 -0.03858,-0.137115 0,-0.174321 0.141249,-0.3576 0.141938,-0.183279 0.305924,-0.183279 0.07166,0 0.132981,0.06132 l 0.09646,-0.450618 q 0.01034,-0.04616 0.0379,-0.06201 0.02825,-0.01585 0.0441,-0.01585 0.04823,0 0.04823,0.08544 0,0.01516 -0.0317,0.112999 -0.0503,0.151584 -0.09577,0.372759 -0.04479,0.220486 -0.04479,0.354155 0,0.137804 0.05994,0.137804 0.03858,0 0.07993,-0.02549 0.01722,-0.0124 0.03238,-0.0124 0.02205,0 0.02205,0.02894 0,0.03514 -0.06201,0.0813 -0.06132,0.04616 -0.126091,0.04616 -0.113688,0 -0.113688,-0.219108 0,-0.03721 0.0034,-0.0751 z m -0.09026,-0.322461 q -0.111621,0 -0.221175,0.151585 -0.109554,0.150895 -0.109554,0.279052 0,0.08613 0.05719,0.08613 0.05374,0 0.130224,-0.0565 0.07717,-0.0565 0.158474,-0.179834 0.0813,-0.124023 0.0813,-0.186035 0,-0.03032 -0.02825,-0.06201 -0.02756,-0.03238 -0.06821,-0.03238 z"
       style="font-style:normal;font-variant:normal;font-weight:normal;font-stretch:normal;font-size:1.41111px;font-family:'Segoe Print';-inkscape-font-specification:'Segoe Print, Normal';font-variant-ligatures:normal;font-variant-caps:normal;font-variant-numeric:normal;font-feature-settings:normal;text-align:start;writing-mode:lr-tb;text-anchor:start;stroke:#000000;stroke-width:0.05;stroke-miterlimit:4;stroke-dasharray:none;stroke-opacity:1"
       id="path1680" />
  </g>
  <g
     aria-label="Made by"
     transform="matrix(1.0391195,0,0,1.0391195,6.4912883,45.542768)"
     id="text2072"
     style="font-style:italic;font-variant:normal;font-weight:bold;font-stretch:normal;font-size:2.03698px;line-height:1.25;font-family:Corbel;-inkscape-font-specification:'Corbel, Bold Italic';font-variant-ligatures:normal;font-variant-caps:normal;font-variant-numeric:normal;font-variant-east-asian:normal;text-align:start;letter-spacing:0px;word-spacing:0px;writing-mode:lr-tb;white-space:pre;shape-inside:url(#rect2074);fill:#000000;fill-opacity:1;stroke:none">
    <path
       d="m -0.96123094,-17.738068 q 0.0706179,-0.152176 0.30435344,-0.567927 l 0.22975701,-0.403815 h 0.32921893 l -0.27550949,1.3308 h -0.24268706 l 0.14223053,-0.634567 q 0.0358063,-0.159139 0.0905103,-0.377955 h -0.007957 q -0.0984673,0.210859 -0.38193373,0.710158 l -0.17505296,0.302364 H -1.1104238 l -0.1064243,-0.71911 q -0.021882,-0.14422 -0.03879,-0.293412 h -0.00796 q -0.01293,0.147203 -0.05172,0.349111 l -0.1342736,0.663411 H -1.692276 l 0.2755095,-1.3308 h 0.313305 l 0.059677,0.371987 q 0.036801,0.232741 0.0765856,0.599755 z"
       style="font-style:italic;font-variant:normal;font-weight:bold;font-stretch:normal;font-size:2.03698px;font-family:Corbel;-inkscape-font-specification:'Corbel, Bold Italic';font-variant-ligatures:normal;font-variant-caps:normal;font-variant-numeric:normal;font-variant-east-asian:normal"
       id="path1634" />
    <path
       d="m 0.75150314,-17.610756 q 0,0.02685 0.0139247,0.03879 0.0149193,0.01094 0.0407794,0.01094 0.028844,0 0.070618,-0.006 l -0.0407794,0.188977 q -0.0616664,0.01293 -0.11835967,0.01293 -0.0815588,0 -0.12432739,-0.0378 -0.041774,-0.03879 -0.0527148,-0.109408 h -0.003978 q -0.0686287,0.08454 -0.14819824,0.121343 -0.0785749,0.0368 -0.15416596,0.0368 -0.0646502,0 -0.11637044,-0.02387 -0.05172019,-0.02387 -0.08752648,-0.06763 -0.03580629,-0.04376 -0.05470405,-0.105429 -0.01889776,-0.06167 -0.01889776,-0.137258 0,-0.08056 0.01293005,-0.162123 0.01392466,-0.08156 0.04077938,-0.156155 0.02685472,-0.07559 0.06564486,-0.141236 0.03978476,-0.06564 0.09150496,-0.114381 0.0517202,-0.04874 0.11537581,-0.07659 0.0636556,-0.02785 0.13825206,-0.02785 0.0686287,0 0.1302951,0.02884 0.0616664,0.02884 0.10741886,0.09051 h 0.003978 l 0.0348117,-0.09548 h 0.20091305 l -0.13924667,0.671368 q -0.003978,0.0189 -0.005968,0.03581 -0.001989,0.01591 -0.001989,0.02487 z M 0.6142457,-18.099114 q -0.008952,-0.01293 -0.0238709,-0.02586 -0.0139247,-0.01392 -0.033817,-0.02387 -0.0188978,-0.01094 -0.0427686,-0.0179 -0.0228762,-0.007 -0.0497309,-0.007 -0.0467471,0 -0.0855372,0.02288 -0.0377955,0.02188 -0.0686287,0.05968 -0.0298386,0.0368 -0.0517202,0.08554 -0.0218816,0.04774 -0.0368009,0.09946 -0.0139247,0.05172 -0.020887,0.102446 -0.006962,0.04973 -0.006962,0.0925 0,0.08454 0.0258601,0.124327 0.0268547,0.03978 0.0775803,0.03978 0.0507256,0 0.10145115,-0.03382 0.0507256,-0.03481 0.0905103,-0.09449 0.0268547,-0.03978 0.0457525,-0.09051 0.0198924,-0.05073 0.0338171,-0.11637 z"
       style="font-style:italic;font-variant:normal;font-weight:bold;font-stretch:normal;font-size:2.03698px;font-family:Corbel;-inkscape-font-specification:'Corbel, Bold Italic';font-variant-ligatures:normal;font-variant-caps:normal;font-variant-numeric:normal;font-variant-east-asian:normal"
       id="path1636" />
    <path
       d="m 1.8475734,-17.610756 q 0,0.02288 0.011936,0.0368 0.01293,0.01293 0.042769,0.01293 0.027849,0 0.070618,-0.006 l -0.040779,0.188977 q -0.026855,0.006 -0.059677,0.009 -0.032822,0.004 -0.058682,0.004 -0.081559,0 -0.1243274,-0.0378 -0.041774,-0.03879 -0.052715,-0.109408 h -0.00398 q -0.068629,0.08454 -0.1481982,0.121343 -0.078575,0.0368 -0.154166,0.0368 -0.06465,0 -0.1163704,-0.02387 -0.05172,-0.02387 -0.087526,-0.06763 -0.035806,-0.04376 -0.054704,-0.105429 -0.018898,-0.06167 -0.018898,-0.137258 0,-0.08056 0.013925,-0.162123 0.013925,-0.08156 0.039785,-0.156155 0.026855,-0.07559 0.065645,-0.141236 0.03879,-0.06564 0.088521,-0.114381 0.050725,-0.04874 0.1113973,-0.07659 0.061666,-0.02785 0.133279,-0.02785 0.071613,0 0.1302951,0.02984 0.058682,0.02884 0.1014511,0.08952 h 0.00398 l 0.1183597,-0.571906 H 2.094239 l -0.2387086,1.147791 q -0.00398,0.0189 -0.00597,0.03581 -0.00199,0.01591 -0.00199,0.02487 z m -0.138252,-0.48438 q -0.00895,-0.01293 -0.023871,-0.02686 -0.013925,-0.01392 -0.032822,-0.02486 -0.018898,-0.01194 -0.042769,-0.0189 -0.022876,-0.008 -0.049731,-0.008 -0.046747,0 -0.085537,0.02288 -0.037796,0.02188 -0.067634,0.05968 -0.029839,0.0368 -0.052715,0.08554 -0.021882,0.04774 -0.036801,0.09946 -0.013925,0.05172 -0.020887,0.102446 -0.00696,0.04973 -0.00696,0.0925 0,0.08454 0.02586,0.124327 0.026855,0.03978 0.07758,0.03978 0.054704,0 0.1084135,-0.03879 0.053709,-0.03879 0.095483,-0.106424 0.043763,-0.0736 0.067634,-0.187983 z"
       style="font-style:italic;font-variant:normal;font-weight:bold;font-stretch:normal;font-size:2.03698px;font-family:Corbel;-inkscape-font-specification:'Corbel, Bold Italic';font-variant-ligatures:normal;font-variant-caps:normal;font-variant-numeric:normal;font-variant-east-asian:normal"
       id="path1638" />
    <path
       d="m 2.7934563,-18.103093 q 0,-0.03282 -0.02586,-0.05669 -0.02586,-0.02387 -0.078575,-0.02387 -0.039785,0 -0.081559,0.01591 -0.040779,0.01591 -0.07758,0.04774 -0.035806,0.03083 -0.06465,0.07658 -0.028844,0.04476 -0.045752,0.103441 0.1054297,0 0.1770422,-0.01393 0.071613,-0.01393 0.1153758,-0.0368 0.043763,-0.02288 0.062661,-0.05172 0.018898,-0.02984 0.018898,-0.06067 z m 0.2367194,0 q 0,0.08056 -0.039785,0.145215 -0.03879,0.06366 -0.1153758,0.109408 -0.076586,0.04476 -0.1889777,0.06863 -0.1123919,0.02387 -0.2586009,0.02387 -0.016909,0 -0.042769,-9.94e-4 v 0.006 q 0,0.05271 0.014919,0.0925 0.015914,0.03879 0.044758,0.06366 0.029839,0.02486 0.071613,0.0368 0.041774,0.01094 0.093494,0.01094 0.07758,0 0.1631175,-0.0189 0.085537,-0.0189 0.1491929,-0.05072 l -0.042769,0.206881 q -0.061666,0.02486 -0.141236,0.03978 -0.078575,0.01591 -0.1680906,0.01591 -0.1064242,0 -0.1849991,-0.02884 -0.078575,-0.02884 -0.1302951,-0.08056 -0.050726,-0.05271 -0.075591,-0.124327 -0.024866,-0.07161 -0.024866,-0.158145 0,-0.07659 0.015914,-0.152176 0.015914,-0.07559 0.046747,-0.14422 0.030833,-0.06962 0.076586,-0.128306 0.045752,-0.05968 0.1054296,-0.102446 0.060672,-0.04376 0.1352682,-0.06863 0.074597,-0.02487 0.1621229,-0.02487 0.076586,0 0.1382521,0.0189 0.061666,0.0189 0.104435,0.05371 0.043763,0.03382 0.067634,0.08255 0.023871,0.04874 0.023871,0.108413 z"
       style="font-style:italic;font-variant:normal;font-weight:bold;font-stretch:normal;font-size:2.03698px;font-family:Corbel;-inkscape-font-specification:'Corbel, Bold Italic';font-variant-ligatures:normal;font-variant-caps:normal;font-variant-numeric:normal;font-variant-east-asian:normal"
       id="path1640" />
    <path
       d="m 3.8189083,-17.755971 q -0.00597,0.02984 -0.00796,0.04675 -9.946e-4,0.01591 -9.946e-4,0.02884 0,0.06067 0.028844,0.09747 0.029838,0.03581 0.087526,0.03581 0.048736,0 0.089516,-0.02089 0.040779,-0.02089 0.073602,-0.0557 0.033817,-0.03581 0.059677,-0.08156 0.02586,-0.04675 0.042769,-0.09747 0.017903,-0.05172 0.026855,-0.10344 0.00895,-0.05271 0.00895,-0.09946 0,-0.03382 -0.00796,-0.06366 -0.00696,-0.03083 -0.022876,-0.05371 -0.014919,-0.02387 -0.040779,-0.0368 -0.024865,-0.01393 -0.060672,-0.01393 -0.032822,0 -0.070618,0.01393 -0.036801,0.01393 -0.070618,0.04476 -0.032822,0.03083 -0.060672,0.07857 -0.026855,0.04675 -0.040779,0.114381 z m 0.1322843,-0.645508 q -0.017903,0.07758 -0.036801,0.145215 h 0.00398 q 0.017903,-0.02089 0.042769,-0.03978 0.024865,-0.01989 0.055699,-0.03581 0.030833,-0.01591 0.067634,-0.02487 0.036801,-0.0099 0.078575,-0.0099 0.061666,0 0.1163704,0.02188 0.055699,0.02188 0.096478,0.06564 0.040779,0.04277 0.06465,0.107418 0.023871,0.06465 0.023871,0.150188 0,0.0736 -0.014919,0.152177 -0.013925,0.07758 -0.043763,0.152176 -0.028844,0.0746 -0.074596,0.140242 -0.045752,0.06564 -0.1084135,0.115375 -0.061666,0.04973 -0.1422305,0.07858 -0.079569,0.02884 -0.1780368,0.02884 -0.07758,0 -0.1382521,-0.02387 -0.060672,-0.02387 -0.1034404,-0.06465 -0.041774,-0.04078 -0.06465,-0.09648 -0.021882,-0.05669 -0.021882,-0.120349 0,-0.02586 0.00298,-0.05271 0.00298,-0.02785 0.011936,-0.07261 l 0.2158323,-1.034404 h 0.2347301 z"
       style="font-style:italic;font-variant:normal;font-weight:bold;font-stretch:normal;font-size:2.03698px;font-family:Corbel;-inkscape-font-specification:'Corbel, Bold Italic';font-variant-ligatures:normal;font-variant-caps:normal;font-variant-numeric:normal;font-variant-east-asian:normal"
       id="path1642" />
    <path
       d="m 4.600679,-18.342796 h 0.2397032 l 0.088521,0.422713 q 0.028844,0.139247 0.047742,0.255617 h 0.00597 q 0.055699,-0.115376 0.1233328,-0.241692 l 0.237714,-0.436638 h 0.2655633 l -0.5659383,0.996608 q -0.056693,0.09946 -0.1143812,0.18301 -0.056693,0.08355 -0.1243274,0.143225 -0.067634,0.06067 -0.1491929,0.09449 -0.081559,0.03382 -0.1849991,0.03382 -0.076586,0 -0.125322,-0.01293 l 0.039785,-0.186988 q 0.037796,0.007 0.076586,0.007 0.056693,0 0.1024458,-0.01989 0.046747,-0.0189 0.087527,-0.05769 0.041774,-0.03879 0.080564,-0.09747 0.03879,-0.05769 0.081559,-0.136263 z"
       style="font-style:italic;font-variant:normal;font-weight:bold;font-stretch:normal;font-size:2.03698px;font-family:Corbel;-inkscape-font-specification:'Corbel, Bold Italic';font-variant-ligatures:normal;font-variant-caps:normal;font-variant-numeric:normal;font-variant-east-asian:normal"
       id="path1644" />
  </g>
  <g
     aria-label="whis"
     transform="translate(0.84335969,41.258461)"
     id="text2064"
     style="font-style:normal;font-variant:normal;font-weight:normal;font-stretch:normal;font-size:3.52778px;line-height:1.25;font-family:'Know Your Product';-inkscape-font-specification:'Know Your Product, Normal';font-variant-ligatures:normal;font-variant-caps:normal;font-variant-numeric:normal;font-variant-east-asian:normal;text-align:start;letter-spacing:0px;word-spacing:0px;writing-mode:lr-tb;white-space:pre;shape-inside:url(#rect2068);fill:#fcdc56;fill-opacity:1;stroke:#b66314;stroke-width:0.529167;stroke-linejoin:round;stroke-miterlimit:4;stroke-dasharray:none;stroke-opacity:1;paint-order:stroke fill markers">
    <path
       d="m 2.6717531,-12.844813 q -0.1929255,0.199816 -0.1722549,0.430638 l 0.065457,0.106798 0.086127,0.280775 0.063734,0.106798 0.043064,0.108521 0.043064,0.06373 0.022393,0.08613 q 0.068902,0.09646 0.084405,0.192926 l 0.043064,0.06546 0.043064,0.149861 q 0.1240236,0.151585 0.1722549,0.280776 l 0.022393,0.106798 v 0.258382 l 0.020671,0.129191 q 0.08096,0.07579 0.1085206,0.151585 0.1016304,0.02067 0.1722549,0.02067 h 0.063734 l 0.065457,0.02239 q 0.1774225,0 0.301446,0.02067 0.1171333,-0.167087 0.1291912,-0.322117 -0.1085206,-0.156752 -0.1515843,-0.280775 l -0.063734,-0.106798 -0.022393,-0.151584 q -0.08096,-0.149862 -0.086127,-0.279053 -0.1291912,-0.220487 -0.1722549,-0.408244 l -0.043064,-0.06546 -0.020671,-0.08613 v -0.06373 l -0.043064,-0.08613 -0.022393,-0.06546 -0.020671,-0.08613 -0.1946481,-0.537435 -0.043064,-0.02239 q -0.2738852,0.05512 -0.4943715,-0.02067 z m 1.1833911,0.02067 q -0.1877579,0.248047 -0.1722549,0.516765 l 0.043064,0.04306 0.022393,0.06546 q 0.091295,0.144694 0.1067981,0.279053 l 0.043064,0.02239 q 0.1825902,0.41858 0.2377117,0.70969 l 0.043064,0.172255 q 0.1498618,0.225654 0.1498618,0.451308 0.106798,0.118856 0.1498617,0.237712 0.4306373,0.0689 0.7544764,-0.02239 0.020671,-0.101631 0.020671,-0.172255 -0.053399,-0.167088 -0.106798,-0.258383 -0.091295,-0.155029 -0.1291912,-0.279053 l -0.022393,-0.08613 -0.063734,-0.08613 q -0.048231,-0.151585 -0.065457,-0.258383 -0.068902,-0.08613 -0.106798,-0.172255 l -0.022393,-0.06373 v -0.06546 l -0.043064,-0.06373 v -0.06546 Q 4.5596666,-12.167851 4.5011,-12.350441 q 0.015503,-0.124024 0,-0.215319 -0.086127,-0.0913 -0.106798,-0.192925 l -0.065457,-0.02239 q -0.26355,0.02239 -0.4737009,-0.04306 z m 1.3556459,0.06546 -0.043064,0.06373 q -0.025838,0.220486 -0.086127,0.366903 -0.025838,0.177423 -0.106798,0.322117 v 0.06546 l 0.043064,0.06373 0.043064,0.151584 q 0.053399,0.08613 0.063734,0.170532 l 0.043064,0.04306 v 0.06546 q 0.1464166,0.215319 0.194648,0.430637 l 0.086127,0.06373 0.106798,-0.387574 0.022393,-0.08613 0.043064,-0.08613 0.020671,-0.106798 0.043064,-0.08613 0.022393,-0.106798 0.020671,-0.06546 q 0.037896,-0.111966 0.043064,-0.192926 0.1825902,-0.318671 0.2153186,-0.602892 l -0.106798,-0.129191 q -0.3341745,0.0534 -0.6028921,0 z"
       style="font-style:normal;font-variant:normal;font-weight:normal;font-stretch:normal;font-size:3.52778px;font-family:'Know Your Product';-inkscape-font-specification:'Know Your Product, Normal';font-variant-ligatures:normal;font-variant-caps:normal;font-variant-numeric:normal;font-variant-east-asian:normal;fill:#fcdc56;fill-opacity:1;stroke:#b66314;stroke-width:0.529167;stroke-linejoin:round;stroke-miterlimit:4;stroke-dasharray:none;stroke-opacity:1;paint-order:stroke fill markers"
       id="path1647" />
    <path
       d="m 6.955732,-12.862038 q -0.022393,0.0379 -0.044786,0.04479 -0.2876656,-0.05512 -0.4857588,0.06546 l -0.044786,0.132636 0.022393,0.110243 -0.022393,0.132637 q 0.010335,0.03445 0,0.06718 v 0.06546 q 0.017226,0.172255 0,0.287666 l 0.022393,0.06718 v 0.618395 l 0.022393,0.04479 -0.022393,0.132637 q 0.044786,0.315226 -0.022393,0.552938 l 0.08785,0.220486 0.1774225,0.06718 q 0.210151,-0.08268 0.3979088,-0.04479 0.082682,-0.18259 0.1102431,-0.330729 -0.055121,-0.167088 -0.043064,-0.287666 v -0.08957 -0.132637 -0.110243 -0.132636 -0.08785 -0.24288 -0.08957 -0.08785 -0.06718 -0.08785 q -0.012058,-0.03273 0,-0.06546 l -0.022393,-0.177423 v -0.06718 q 0.010335,-0.160197 0.043064,-0.265273 l -0.020671,-0.132636 q -0.072347,-0.08785 -0.1550294,-0.110243 z m 1.8793008,0 q -0.2652725,0.08785 -0.5081519,0.02239 l -0.1550294,0.08785 -0.022393,0.06718 v 0.530545 l 0.022393,0.110244 0.022393,0.375515 q -0.012058,0.18259 0.022393,0.332452 l -0.022393,0.06546 v 0.222209 q -0.027561,0.392741 0,0.640788 0.037896,0.02239 0.043064,0.04479 0.089573,0.03273 0.1774226,0.02239 h 0.08785 q 0.2049833,0.04995 0.354845,0.04306 l 0.08785,-0.110243 0.022393,-0.132636 v -0.110243 q -0.044786,-0.165365 -0.044786,-0.287666 l 0.022393,-0.132636 q -0.027561,-0.270441 0.022393,-0.465089 v -0.06546 q -0.022393,-0.03273 -0.022393,-0.06718 v -0.220486 l -0.022393,-0.06718 0.022393,-0.06546 v -0.06718 -0.1757 q -0.015503,-0.199815 0.022393,-0.354845 -0.044786,-0.148139 -0.1326363,-0.242879 z m -1.4159352,0.995633 -0.1326362,0.110243 q -0.032729,0.310059 0.067179,0.552938 l 0.4857588,-0.04479 0.067179,0.02239 q 0.1756999,-0.342787 0.065457,-0.640788 -0.2928333,0.0155 -0.5081519,-0.04479 z"
       style="font-style:normal;font-variant:normal;font-weight:normal;font-stretch:normal;font-size:3.52778px;font-family:'Know Your Product';-inkscape-font-specification:'Know Your Product, Normal';font-variant-ligatures:normal;font-variant-caps:normal;font-variant-numeric:normal;font-variant-east-asian:normal;fill:#fcdc56;fill-opacity:1;stroke:#b66314;stroke-width:0.529167;stroke-linejoin:round;stroke-miterlimit:4;stroke-dasharray:none;stroke-opacity:1;paint-order:stroke fill markers"
       id="path1649" />
    <path
       d="m 9.362133,-12.753518 v 0.06373 q 0,0.141249 -0.022393,0.239434 0.022393,0.111966 0,0.215319 l 0.022393,0.10852 -0.022393,0.08613 v 0.606337 l 0.022393,0.06373 v 0.54088 q 0,0.16192 -0.022393,0.260105 l 0.022393,0.129192 q 0.048231,0.10852 0.106798,0.172254 h 0.065457 l 0.065457,0.02239 q 0.1722549,-0.08096 0.3669029,-0.04306 0.048231,-0.173978 0.1085201,-0.280776 v -0.151584 l -0.02239,-0.108521 -0.02067,-0.151584 0.02067,-0.04306 q -0.02067,-0.03273 -0.02067,-0.06546 v -0.258383 q -0.02239,-0.07062 -0.02239,-0.130913 l 0.02239,-0.08613 v -0.08613 -0.237712 -0.08613 -0.08785 -0.08613 -0.06373 -0.08785 q 0,-0.106798 -0.02239,-0.172255 0.02239,-0.204983 0,-0.346232 l -0.043063,-0.02067 q -0.2859431,0.03101 -0.4978166,-0.02239 z"
       style="font-style:normal;font-variant:normal;font-weight:normal;font-stretch:normal;font-size:3.52778px;font-family:'Know Your Product';-inkscape-font-specification:'Know Your Product, Normal';font-variant-ligatures:normal;font-variant-caps:normal;font-variant-numeric:normal;font-variant-east-asian:normal;fill:#fcdc56;fill-opacity:1;stroke:#b66314;stroke-width:0.529167;stroke-linejoin:round;stroke-miterlimit:4;stroke-dasharray:none;stroke-opacity:1;paint-order:stroke fill markers"
       id="path1651" />
    <path
       d="m 11.660013,-12.777633 -0.02239,0.04479 q 0.01206,0.08268 0,0.155029 v 0.311782 q 0.218763,0.09474 0.268717,0.268717 l 0.110243,0.04479 q 0.184313,-0.02928 0.334175,0 0.458198,-0.630453 -0.53399,-0.892281 z m -0.334175,-0.04479 q -0.03273,0.02239 -0.06546,0.02239 h -0.179145 q -0.134358,0.05512 -0.244602,0.04479 -0.713135,0.685574 0.02239,1.224732 l 0.06718,0.04479 0.06546,0.06718 0.08957,0.02239 0.06718,0.06718 q 0.03962,0.02239 0.04479,0.04479 l 0.04479,0.02239 q 0.366903,0.137804 0.578777,0.334174 -0.339342,0.327284 -0.111966,0.623563 0.296278,0.07235 0.468533,-0.134359 0.329007,-0.18259 0.334175,-0.53399 0,-0.211874 -0.04479,-0.356568 -0.117134,-0.117133 -0.177423,-0.223931 -0.139526,-0.02756 -0.223931,-0.08785 -0.08268,-0.04995 -0.132637,-0.111966 l -0.08957,-0.02239 -0.08957,-0.02239 -0.132636,-0.08957 q -0.241157,-0.03273 -0.401354,-0.110243 v -0.134358 q 0.289388,-0.329007 0.110243,-0.690743 z m -0.912951,1.894804 q 0.234267,0.745864 0.935344,0.668349 0.284221,-0.311781 -0.155029,-0.645956 l -0.02239,-0.156752 -0.06718,-0.06718 q -0.301447,0.02756 -0.51332,-0.04479 z"
       style="font-style:normal;font-variant:normal;font-weight:normal;font-stretch:normal;font-size:3.52778px;font-family:'Know Your Product';-inkscape-font-specification:'Know Your Product, Normal';font-variant-ligatures:normal;font-variant-caps:normal;font-variant-numeric:normal;font-variant-east-asian:normal;fill:#fcdc56;fill-opacity:1;stroke:#b66314;stroke-width:0.529167;stroke-linejoin:round;stroke-miterlimit:4;stroke-dasharray:none;stroke-opacity:1;paint-order:stroke fill markers"
       id="path1653" />
  </g>
</svg>
