<?xml version="1.0" encoding="UTF-8" standalone="no"?>
<svg
   xmlns:dc="http://purl.org/dc/elements/1.1/"
   xmlns:cc="http://creativecommons.org/ns#"
   xmlns:rdf="http://www.w3.org/1999/02/22-rdf-syntax-ns#"
   xmlns:svg="http://www.w3.org/2000/svg"
   xmlns="http://www.w3.org/2000/svg"
   id="svg62"
   version="1.1"
   viewBox="0 0 67.733332 33.866668"
   height="128"
   width="256">
  <metadata
     id="metadata4524">
    <rdf:RDF>
      <cc:Work
         rdf:about="">
        <dc:format>image/svg+xml</dc:format>
        <dc:type
           rdf:resource="http://purl.org/dc/dcmitype/StillImage" />
        <dc:title></dc:title>
      </cc:Work>
    </rdf:RDF>
  </metadata>
  <defs
     id="defs59">
    <clipPath
       id="clipPath4863"
       clipPathUnits="userSpaceOnUse">
      <rect
         y="-66.410416"
         x="2.6458366"
         height="5.8208318"
         width="11.90625"
         id="rect4865"
         style="fill:#796cd9;fill-opacity:0.60392157;fill-rule:evenodd;stroke:none;stroke-width:0.60277319;stroke-linecap:round;stroke-linejoin:round;stroke-miterlimit:4;stroke-dasharray:none;stroke-opacity:1;paint-order:markers fill stroke" />
    </clipPath>
    <pattern
       id="EMFhbasepattern"
       patternUnits="userSpaceOnUse"
       width="6"
       height="6"
       x="0"
       y="0" />
  </defs>
  <ellipse
     style="fill:#000000;fill-opacity:1;fill-rule:evenodd;stroke:none;stroke-width:0.714502;stroke-linecap:round;stroke-linejoin:round;paint-order:markers fill stroke"
     id="ellipse1328"
     ry="2.3808517"
     rx="1.3342773"
     cy="29.75518"
     cx="63.637093" />
  <ellipse
     cx="63.61969"
     cy="29.75366"
     rx="0.80633265"
     ry="1.8223534"
     id="ellipse1330"
     style="fill:#ffffff;fill-opacity:1;fill-rule:evenodd;stroke:none;stroke-width:0.485945;stroke-linecap:round;stroke-linejoin:round;paint-order:markers fill stroke" />
  <path
     id="path1304"
     d="m 54.858577,28.591918 0.008,2.485919"
     style="fill:none;stroke:#000000;stroke-width:0.565;stroke-linecap:round;stroke-linejoin:miter;stroke-miterlimit:4;stroke-dasharray:none;stroke-opacity:1" />
  <path
     style="fill:none;stroke:#000000;stroke-width:0.565;stroke-linecap:round;stroke-linejoin:miter;stroke-miterlimit:4;stroke-dasharray:none;stroke-opacity:1"
     d="m 56.105336,29.831078 -2.48592,0.008"
     id="path1306" />
  <path
     id="path1312"
     d="m 45.042836,30.358888 c 0.0744,-2.308569 2.990729,-2.279269 3.16257,0"
     style="fill:none;fill-opacity:1;stroke:#000000;stroke-width:0.632432;stroke-linecap:round;stroke-linejoin:miter;stroke-miterlimit:4;stroke-dasharray:none;stroke-opacity:1" />
  <path
     id="path1314"
     d="m 36.102521,30.453137 3.610625,-0.0429 -1.772064,-2.010404"
     style="fill:none;stroke:#000000;stroke-width:0.629444;stroke-linecap:round;stroke-linejoin:round;stroke-miterlimit:4;stroke-dasharray:none;stroke-opacity:1" />
  <path
     id="path1318"
     d="m 62.890025,13.161368 c -0.006,1.09191 -1.213689,1.45687 -1.88096,1.45687 h -3.32989 c -0.760748,0 -1.55534,-0.55663 -1.55534,-1.48608 -1e-5,-0.92945 0.759151,-2.137 2.613681,-2.13543 2.319801,0.002 4.160719,0.73167 4.152509,2.16464 z"
     style="fill:#000000;fill-opacity:1;fill-rule:evenodd;stroke:none;stroke-width:0.605555;stroke-linecap:round;stroke-linejoin:round;paint-order:markers fill stroke" />
  <path
     style="fill:#333333;fill-opacity:1;fill-rule:evenodd;stroke:none;stroke-width:0.463619;stroke-linecap:round;stroke-linejoin:round;paint-order:markers fill stroke"
     d="m 62.388745,13.111178 c -0.007,0.70587 -1.04009,0.9627 -1.63758,0.9627 h -2.77345 c -0.633629,0 -1.27191,-0.4041 -1.26669,-1.05819 0.004,-0.51768 0.486762,-1.49206 2.148171,-1.49048 1.81801,0.002 3.538799,0.66517 3.529549,1.58597 z"
     id="path1320" />
  <path
     style="fill:#292929;fill-opacity:1;fill-rule:evenodd;stroke:none;stroke-width:0.610215;stroke-linecap:round;stroke-linejoin:round;stroke-miterlimit:4;stroke-dasharray:none;stroke-opacity:1;paint-order:markers fill stroke"
     d="m 59.413067,13.516978 c -0.608981,0.003 -1.810301,0.18013 -2.155781,0.37262 0.22056,0.11501 0.471869,0.18448 0.720371,0.18448 h 2.773479 c 0.249719,0 0.5735,-0.0487 0.86868,-0.15244 -0.332801,-0.20628 -1.503871,-0.40452 -2.206749,-0.40466 z"
     id="path1322" />
  <path
     id="path1245"
     d="m 63.262516,21.708043 c -0.007,1.297785 -1.33913,1.731546 -2.075371,1.731546 h -3.674088 c -0.839381,0 -1.7516,-0.68242 -1.7516,-1.787114 0,-1.104693 0.56398,-2.522364 2.91933,-2.517208 2.902209,0.0059 4.590799,0.869625 4.581729,2.572776 z"
     style="fill:#000000;fill-opacity:1;fill-rule:evenodd;stroke:none;stroke-width:0.693459;stroke-linecap:round;stroke-linejoin:round;paint-order:markers fill stroke" />
  <path
     style="color:#000000;font-style:normal;font-variant:normal;font-weight:normal;font-stretch:normal;font-size:medium;line-height:normal;font-family:sans-serif;font-variant-ligatures:normal;font-variant-position:normal;font-variant-caps:normal;font-variant-numeric:normal;font-variant-alternates:normal;font-feature-settings:normal;text-indent:0;text-align:start;text-decoration:none;text-decoration-line:none;text-decoration-style:solid;text-decoration-color:#000000;letter-spacing:normal;word-spacing:normal;text-transform:none;writing-mode:lr-tb;direction:ltr;text-orientation:mixed;dominant-baseline:auto;baseline-shift:baseline;text-anchor:start;white-space:normal;shape-padding:0;clip-rule:nonzero;display:inline;overflow:visible;visibility:visible;isolation:auto;mix-blend-mode:normal;color-interpolation:sRGB;color-interpolation-filters:linearRGB;solid-color:#000000;solid-opacity:1;vector-effect:none;fill:#000000;fill-opacity:1;fill-rule:evenodd;stroke:none;stroke-width:1.11739;stroke-linecap:round;stroke-linejoin:round;stroke-miterlimit:4;stroke-dasharray:none;stroke-dashoffset:0;stroke-opacity:1;paint-order:markers fill stroke;color-rendering:auto;image-rendering:auto;shape-rendering:auto;text-rendering:auto;enable-background:accumulate"
     d="m 63.953256,1.9799643 c -0.817269,-0.0023 -1.60492,0.243865 -2.214589,0.723469 -0.609672,0.479602 -1.029642,1.219981 -1.03555,2.086918 -0.006,0.873902 0.491619,1.57527 1.140298,1.961431 0.64869,0.386165 1.43541,0.534056 2.212962,0.537961 0.85235,0.0043 1.541468,-0.235436 1.94015,-0.762746 0.39869,-0.52731 0.4655,-1.182211 0.462129,-1.909601 -0.003,-0.687177 -0.11662,-1.344791 -0.536331,-1.858315 -0.419709,-0.513522 -1.11088,-0.776719 -1.969069,-0.779117 z"
     id="path1260" />
  <path
     id="path1253"
     d="m 55.466907,2.1202803 c -0.774071,-0.0022 -1.5201,0.230974 -2.09754,0.685231 -0.577451,0.454253 -0.975231,1.155505 -0.980821,1.976623 -0.006,0.827715 0.465629,1.492015 1.080029,1.857767 0.61441,0.365755 1.359551,0.50583 2.096,0.509529 0.807302,0.0041 1.46,-0.222993 1.837611,-0.722434 0.377621,-0.499443 0.440901,-1.11973 0.43771,-1.808676 -0.003,-0.650859 -0.110461,-1.273715 -0.507989,-1.760101 -0.397521,-0.486381 -1.052161,-0.735666 -1.865,-0.737939 z m -0.01029,0.581877 c 1.39505,0.0039 1.79056,0.767972 1.795759,1.918229 0.006,1.258428 -0.29541,1.953742 -1.69654,1.946651 -1.29826,-0.0065 -2.589628,-0.525965 -2.580719,-1.784387 0.009,-1.285872 1.186719,-2.084107 2.4815,-2.080493 z"
     style="color:#000000;font-style:normal;font-variant:normal;font-weight:normal;font-stretch:normal;font-size:medium;line-height:normal;font-family:sans-serif;font-variant-ligatures:normal;font-variant-position:normal;font-variant-caps:normal;font-variant-numeric:normal;font-variant-alternates:normal;font-feature-settings:normal;text-indent:0;text-align:start;text-decoration:none;text-decoration-line:none;text-decoration-style:solid;text-decoration-color:#000000;letter-spacing:normal;word-spacing:normal;text-transform:none;writing-mode:lr-tb;direction:ltr;text-orientation:mixed;dominant-baseline:auto;baseline-shift:baseline;text-anchor:start;white-space:normal;shape-padding:0;clip-rule:nonzero;display:inline;overflow:visible;visibility:visible;isolation:auto;mix-blend-mode:normal;color-interpolation:sRGB;color-interpolation-filters:linearRGB;solid-color:#000000;solid-opacity:1;vector-effect:none;fill:#000000;fill-opacity:1;fill-rule:evenodd;stroke:none;stroke-width:1.05833;stroke-linecap:round;stroke-linejoin:round;stroke-miterlimit:4;stroke-dasharray:none;stroke-dashoffset:0;stroke-opacity:1;paint-order:markers fill stroke;color-rendering:auto;image-rendering:auto;shape-rendering:auto;text-rendering:auto;enable-background:accumulate" />
  <path
     id="path1251"
     d="m 57.310296,4.6197583 c 0.006,1.292484 -0.30361,2.007077 -1.74266,1.999794 -1.333389,-0.0067 -2.659459,-0.540676 -2.65031,-1.833153 0.009,-1.32067 1.218491,-2.140251 2.548311,-2.136539 1.432798,0.004 1.839319,0.78851 1.844659,1.969898 z"
     style="fill:#333333;fill-opacity:1;fill-rule:evenodd;stroke:none;stroke-width:0.485089;stroke-linecap:round;stroke-linejoin:round;paint-order:markers fill stroke" />
  <path
     id="path1262"
     d="m 57.031666,3.3491463 a 3.5864472,3.5864472 0 0 1 -2.836519,3.046843 c 0.41578,0.149448 0.89317,0.221351 1.372529,0.223759 1.43905,0.0073 1.748531,-0.707393 1.74253,-1.999877 -0.0021,-0.506913 -0.0791,-0.940258 -0.27854,-1.270725 z"
     style="fill:#292929;fill-opacity:1;fill-rule:evenodd;stroke:none;stroke-width:0.485089;stroke-linecap:round;stroke-linejoin:round;paint-order:markers fill stroke" />
  <ellipse
     cx="21.103024"
     cy="29.811235"
     rx="1.3084732"
     ry="2.4050176"
     id="ellipse1964"
     style="fill:#000000;fill-opacity:1;fill-rule:evenodd;stroke:none;stroke-width:0.711141;stroke-linecap:round;stroke-linejoin:round;paint-order:markers fill stroke" />
  <path
     id="ellipse7209"
     d="M 29.32741,27.449488 A 1.3084733,2.4050177 0 0 0 28.261324,29.8111 1.3084733,2.4050177 0 0 0 29.569773,32.216122 1.3084733,2.4050177 0 0 0 30.87822,29.8111 1.3084733,2.4050177 0 0 0 30.87202,29.591992 Z"
     style="fill:#000000;fill-opacity:1;fill-rule:evenodd;stroke:none;stroke-width:0.711141;stroke-linecap:round;stroke-linejoin:round;paint-order:markers fill stroke" />
  <path
     id="path4761"
     d="M 40.745834,0.39067345 37.444226,1.5544274 c -1.669627,0.766516 -2.727905,1.094586 -3.572391,2.373497 0.156702,-1.066916 0.176699,-2.034976 0.219109,-3.10420295 L 32.203203,3.1713834 c -1.650106,2.135293 -2.061604,3.087023 -2.209684,5.2094998 -0.216723,-0.274365 -1.384932,-0.828032 -1.607137,-0.871781 l -1.191141,-0.1018041 1.187524,1.6365941 c -0.03846,-0.04209 0.09053,0.116507 0.218591,0.306959 0.128063,0.1904519 0.405474,0.8784028 0.492993,1.0361108 0.003,0.0052 -1.927532,-0.111104 -1.927532,-0.111104 l 1.305864,1.45986 c 0.282615,0.246091 0.499319,0.36168 0.816488,0.63872 0.182272,0.15921 0.362641,0.347387 0.523481,0.55087 a 8.289609,8.289609 0 0 0 -0.0021,0.03927 8.289609,8.289609 0 0 0 8.289417,8.289417 8.289609,8.289609 0 0 0 8.1163,-6.61045 c 0.54737,-0.251722 1.582849,-0.47851 1.582849,-0.758092 0,-0.319096 -0.691084,-0.472668 -1.03663,-0.709002 0.246211,-0.187264 0.677302,-0.438454 0.890903,-0.677995 0.428117,-0.449871 1.025567,-1.296879 0.859896,-1.468128 -0.172273,-0.182343 -0.732944,0.05547 -1.151867,0.170016 0.07612,-0.136636 0.244351,-0.403637 0.308507,-0.556553 0.279742,-0.6607709 0.806019,-1.4860778 0.606166,-1.6763848 -0.189066,-0.17785 -0.647507,0.160542 -1.087789,0.393775 0.721878,-1.08616 1.645332,-2.5640268 1.953368,-3.9827048 l 0.315227,-1.785419 -1.613339,0.63872 c -0.51494,0.203843 -1.49932,0.435277 -2.088761,0.544153 l 1.384411,-1.981274 -2.092894,0.510045 c -0.194847,0.03272 -0.703739,0.203441 -0.913125,0.250632 l 2.010215,-1.968354 c -2.633359,0.469 -6.138797,0.578011 -8.084778,2.282547 1.190625,-1.579232 2.025716,-2.546615 2.687174,-3.47885795 z"
     style="color:#000000;font-style:normal;font-variant:normal;font-weight:normal;font-stretch:normal;font-size:medium;line-height:normal;font-family:sans-serif;font-variant-ligatures:normal;font-variant-position:normal;font-variant-caps:normal;font-variant-numeric:normal;font-variant-alternates:normal;font-feature-settings:normal;text-indent:0;text-align:start;text-decoration:none;text-decoration-line:none;text-decoration-style:solid;text-decoration-color:#000000;letter-spacing:normal;word-spacing:normal;text-transform:none;writing-mode:lr-tb;direction:ltr;text-orientation:mixed;dominant-baseline:auto;baseline-shift:baseline;text-anchor:start;white-space:normal;shape-padding:0;clip-rule:nonzero;display:inline;overflow:visible;visibility:visible;isolation:auto;mix-blend-mode:normal;color-interpolation:sRGB;color-interpolation-filters:linearRGB;solid-color:#000000;solid-opacity:1;vector-effect:none;fill:#000000;fill-opacity:1;fill-rule:evenodd;stroke:none;stroke-width:1.85208;stroke-linecap:square;stroke-linejoin:miter;stroke-miterlimit:5;stroke-dasharray:none;stroke-dashoffset:0;stroke-opacity:1;paint-order:markers fill stroke;color-rendering:auto;image-rendering:auto;shape-rendering:auto;text-rendering:auto;enable-background:accumulate" />
  <path
     id="circle4729"
     d="m 13.574366,1.7404624 -1.074353,0.491959 c -2.7159157,1.246859 -3.7852447,1.885755 -4.7557827,4.077271 0.02501,-0.913725 0.230631,-1.841985 0.273368,-2.653585 l 0.05271,-1.005623 -0.541052,0.84956 c -0.73598,1.158484 -2.111499,2.443147 -2.111499,4.5955858 0,0.37725 0.09954,1.046865 0.177767,1.6562299 -0.226255,-0.269528 -0.425957,-0.5627449 -0.665593,-0.7870329 -0.223534,-0.209219 -0.443279,-0.390032 -0.644922,-0.529166 -0.201641,-0.139135 -0.375236,-0.241558 -0.56999,-0.277503 l -0.775664,-0.142627 0.531234,0.581877 c 0.02827,0.03093 0.144469,0.181769 0.28112,0.38499 0.136651,0.20322 0.303903,0.468239 0.480591,0.7715289 0.256411,0.4401369 0.486475,0.9786439 0.706933,1.4980999 -0.453669,-0.200522 -0.955839,-0.450645 -1.231966,-0.478524 l -0.828373,-0.08423 0.626835,0.547253 c 0.164989,0.143667 0.463594,0.328671 0.818555,0.638721 0.352762,0.308129 0.736203,0.718321 0.992187,1.210778 0.06847,4.029773 3.337465,7.286603 7.3824957,7.286894 h 0.0021 c 3.380945,-0.0043 6.314276,-2.307274 7.152535,-5.574336 0.268274,-0.379658 0.573901,-0.68 0.837675,-0.769462 L 21.302576,13.822414 20.7207,13.540778 c -0.242218,-0.117411 -0.451508,-0.203074 -0.626836,-0.29869 0.0018,-0.03386 0.0043,-0.06741 0.0057,-0.101286 0.675614,-0.151834 1.165686,-0.49687 1.531173,-0.921907 l 0.279569,-0.505913 -0.564307,0.117306 c -0.300969,0.06253 -0.543189,0.168367 -0.767911,0.22841 -0.09453,0.02526 -0.201642,-0.0025 -0.295073,0.0057 0.46634,-0.423792 1.038242,-0.869561 1.377177,-1.677417 l 0.265617,-0.6309699 -0.621151,0.2888719 c -0.402711,0.18821 -0.81562,0.308434 -1.226281,0.441316 1.27113,-1.5717748 2.500198,-3.1984919 2.964677,-5.3376586 l 0.105419,-0.484208 -0.460953,0.183452 c -1.236917,0.489641 -2.63048,0.597812 -3.996139,0.826305 0.498685,-0.421678 1.052638,-0.829504 1.326017,-1.312581 l 0.273885,-0.482658 -0.54932,0.09198 c -0.775537,0.130238 -1.813714,0.443499 -2.802413,0.714685 0.453172,-0.535209 0.909869,-1.100367 1.4118,-1.533239 l 0.650606,-0.56069 -0.851627,0.09767 c -2.505105,0.284287 -4.666374,1.35794 -6.620785,2.762106 0.127242,-0.965015 0.339756,-1.685958 1.284676,-2.808614 z"
     style="fill:#ffffff;fill-opacity:1;fill-rule:evenodd;stroke:none;stroke-width:0.605563;stroke-linecap:square;stroke-linejoin:miter;stroke-miterlimit:4;stroke-dasharray:none;stroke-opacity:0.45098;paint-order:markers fill stroke" />
  <path
     id="path4774"
     d="m 11.90625,11.90625 c -1.624282,0.293186 -4.4867251,1.91602 -6.2390832,3.319434 0.2371062,0.774152 0.4581286,1.179151 0.8963409,1.859444 C 7.6303916,15.45577 10.053624,13.45041 11.90625,11.90625 Z m 2.088761,0.187585 c 1.437929,1.107739 3.883052,3.012096 5.144518,4.49069 0.385506,-0.645225 0.533491,-1.032733 0.708338,-1.763732 -1.82636,-1.258123 -4.287845,-2.518457 -5.852856,-2.726958 z m -2.847432,2.493328 c -1.1513832,0.543339 -2.6281754,1.861599 -3.9673401,3.297859 0.3764069,0.432761 0.7146008,0.740044 1.1804255,1.074665 0.7911449,-1.492158 1.8776786,-2.993857 2.7869146,-4.372524 z"
     style="fill:#000000;fill-opacity:1;stroke:#000000;stroke-width:0;stroke-linecap:butt;stroke-linejoin:miter;stroke-miterlimit:4;stroke-dasharray:none;stroke-opacity:1" />
  <path
     id="path4776"
     d="m 11.145057,12.287105 c -1.8127398,0.738226 -3.9284059,2.064921 -5.3893346,3.24373 a 7.4083335,7.4083335 0 0 0 0.619599,1.277958 c 1.4005738,-1.808611 3.2085277,-3.233027 4.7697356,-4.521688 z m 3.566708,0.130742 c 1.510757,1.130279 3.177304,2.34367 4.582665,3.905704 a 7.4083335,7.4083335 0 0 0 0.49661,-1.223181 c -1.457574,-1.02068 -3.383367,-2.084525 -5.079275,-2.682523 z m -4.118613,2.68149 C 9.5143561,15.90649 8.3688692,17.022049 7.3917971,18.13171 a 7.4083335,7.4083335 0 0 0 0.7100331,0.632003 c 0.778986,-1.326871 1.6815459,-2.542314 2.4913218,-3.664376 z"
     style="fill:#800000;fill-opacity:1;stroke:#000000;stroke-width:0;stroke-linecap:butt;stroke-linejoin:miter;stroke-miterlimit:4;stroke-dasharray:none;stroke-opacity:1" />
  <path
     id="path4803"
     d="m 23.148457,4.6643144 -0.339513,0.134876 c -1.574845,2.8718998 -5.611027,5.3989766 -5.611027,5.8750926 0,1.158983 3.255765,0.09892 4.218348,-0.389123 -1.307931,1.288678 -3.3805,1.350999 -4.30103,1.885677 0.27497,0.265221 2.483662,0.06978 2.878325,0.09061 -1.047997,0.197059 -2.456646,1.084861 -2.892795,2.026061 -0.991045,2.191285 -3.071625,3.585628 -5.355228,3.588928 -0.03343,0 -0.06684,-5.04e-4 -0.100253,-0.001 -0.0079,-2.64e-4 -0.01587,-3.25e-4 -0.02377,-5.16e-4 -3.12e-4,0 -6.9e-4,2e-6 -10e-4,0 -1.6463329,-0.0042 -3.7750588,-0.438966 -5.1660926,-0.960149 1.3064518,2.076193 3.6105326,3.457998 6.2445796,3.458187 h 0.0021 c 3.380943,-0.0043 6.314276,-2.307275 7.152534,-5.574337 0.268274,-0.379658 0.5739,-0.68 0.837674,-0.769462 l 0.611333,-0.206706 -0.581877,-0.281637 c -0.242219,-0.117411 -0.451507,-0.203074 -0.626835,-0.29869 0.0018,-0.03386 0.0043,-0.06741 0.0057,-0.101285 0.675613,-0.151834 1.165685,-0.496871 1.531172,-0.921908 l 0.27957,-0.505912 -0.564309,0.117305 c -0.300969,0.06253 -0.54319,0.168367 -0.767911,0.22841 -0.09453,0.02526 -0.201641,-0.0025 -0.295071,0.0057 0.466339,-0.423791 1.038241,-0.869561 1.377175,-1.677417 l 0.265618,-0.6309689 -0.621152,0.2888719 c -0.402709,0.18821 -0.815621,0.308434 -1.22628,0.441316 1.271129,-1.5717748 2.500198,-3.1984919 2.964677,-5.3376586 z"
     style="fill:#000000;fill-opacity:0.2;fill-rule:evenodd;stroke:none;stroke-width:0.605563;stroke-linecap:square;stroke-linejoin:miter;stroke-miterlimit:4;stroke-dasharray:none;stroke-opacity:0.45098;paint-order:markers fill stroke" />
  <path
     id="path4742"
     d="m 14.537097,1.0056234 -2.146639,0.986503 c -2.283855,1.048503 -3.3643507,1.46467 -4.2843597,3.144541 0.07478,-0.58613 0.146186,-0.918453 0.17505,-1.466607 l 0.10542,-2.013831 -1.080037,1.703256 c -0.7060289,1.111338 -2.1523239,2.470964 -2.1523239,4.7361448 0,0.202173 0.06296,0.561458 0.08785,0.834057 -0.04805,-0.04708 -0.155008,-0.124933 -0.202966,-0.169822 -0.424116,-0.318859 -1.555963,-0.8789158 -2.015999,-0.9670485 l -0.810307,-0.1793275 1.062467,1.161686 c 0.0016,0.0017 0.122582,0.155871 0.255798,0.353983 0.133217,0.198114 0.299105,0.4593579 0.47284,0.7575769 0.153176,0.2629299 0.270591,0.5867969 0.420129,0.8888349 -0.218233,-0.06869 -1.085187,-0.305389 -1.264522,-0.323495 l -1.081588,-0.10852 1.254187,1.091923 c 0.21204,0.184636 0.478194,0.341875 0.818038,0.638721 0.335349,0.292919 0.689918,0.679078 0.923975,1.124996 0.131453,4.117258 3.4771288,7.436973 7.6248576,7.437272 h 0.0021 c 3.467818,-0.0044 6.469598,-2.352961 7.369543,-5.685442 0.253988,-0.358965 0.537938,-0.61311 0.704866,-0.669726 l 1.222665,-0.413928 -1.162203,-0.564824 c -0.05406,-0.02621 -0.07372,-0.03505 -0.125057,-0.05839 0.475722,-0.197892 0.905133,-0.455546 1.150317,-0.898653 l 0.558623,-1.00769 -1.128614,0.234611 c -0.150918,0.03136 -0.233883,0.06467 -0.353466,0.103353 0.356461,-0.365735 0.719127,-0.5962 0.966349,-1.185458 l 0.53175,-1.2655558 -1.244368,0.5818769 c -0.123285,0.05762 -0.252779,0.0833 -0.376721,0.134875 1.072289,-1.3841849 2.076202,-2.848619 2.486153,-4.7366617 l 0.21084,-0.968416 -0.921908,0.365352 c -0.927906,0.367317 -1.997702,0.464241 -3.020746,0.668952 0.25804,-0.251389 0.506965,-0.474917 0.67877,-0.778506 l 0.547254,-0.966866 -1.096058,0.183451 c -0.560557,0.09414 -1.283698,0.312165 -1.962671,0.500228 0.277279,-0.294838 0.512996,-0.617647 0.7891,-0.855762 l 1.298628,-1.120862 -1.704805,0.19327 c -2.34907,0.26658 -4.720404,1.04425 -6.258034,2.447362 0.148798,-0.6487 0.425336,-1.194025 1.154469,-2.060305 z m -1.92598,1.467094 c -1.15626,1.373749 -1.327584,2.159703 -1.449524,3.510897 2.053786,-1.57374 4.354459,-2.729112 7.017659,-3.03134 -0.733942,0.632961 -1.492182,1.50706 -2.037601,2.210718 1.270277,-0.313188 2.669405,-0.767849 3.645255,-0.931726 -0.348819,0.616383 -1.223814,1.227403 -1.918229,1.882056 1.619974,-0.359319 3.347744,-0.400019 4.915463,-1.02061 -0.495914,2.2839487 -1.875713,4.0001278 -3.280937,5.7195476 0.01653,0.04789 0.03255,0.09595 0.04806,0.144177 0.631591,-0.173292 1.249376,-0.38356 1.865002,-0.671277 -0.381874,0.910202 -1.11811,1.483124 -1.616955,1.955437 0.0036,0.02857 0.0071,0.05717 0.01033,0.08578 0.645899,0.171617 1.053131,-0.125223 1.589571,-0.236679 -0.239413,0.432677 -0.851971,0.751443 -1.557527,0.911573 -0.0028,0.133827 -0.0093,0.26755 -0.01964,0.401009 0.222796,0.150283 0.515866,0.247267 0.783932,0.377238 -0.36223,0.122855 -0.689716,0.468895 -0.973065,0.871265 -0.777158,3.199483 -3.640397,5.45341 -6.932911,5.457551 -3.9423587,-2.83e-4 -7.1392406,-3.194159 -7.1432326,-7.136516 -0.55625,-1.079141 -1.640493,-1.729887 -1.876372,-1.935282 0.326911,0.03301 1.0552,0.285108 1.77767,0.697631 -0.488127,-1.455784 -1.362809,-2.7652103 -1.582623,-3.0057573 0.450142,0.1124647 1.264966,0.7448835 2.027294,1.6786563 -0.129081,-0.884142 -0.219879,-1.7825078 -0.219879,-2.3104028 0,-2.0396958 1.3037099,-3.2483638 2.0696409,-4.4539918 -0.05481,1.040865 -0.459907,2.453934 -0.223759,3.6912477 1.269445,-2.7034337 1.911228,-3.4053477 5.0823777,-4.8612017 z"
     style="color:#000000;font-style:normal;font-variant:normal;font-weight:normal;font-stretch:normal;font-size:medium;line-height:normal;font-family:sans-serif;font-variant-ligatures:normal;font-variant-position:normal;font-variant-caps:normal;font-variant-numeric:normal;font-variant-alternates:normal;font-feature-settings:normal;text-indent:0;text-align:start;text-decoration:none;text-decoration-line:none;text-decoration-style:solid;text-decoration-color:#000000;letter-spacing:normal;word-spacing:normal;text-transform:none;writing-mode:lr-tb;direction:ltr;text-orientation:mixed;dominant-baseline:auto;baseline-shift:baseline;text-anchor:start;white-space:normal;shape-padding:0;clip-rule:nonzero;display:inline;overflow:visible;visibility:visible;isolation:auto;mix-blend-mode:normal;color-interpolation:sRGB;color-interpolation-filters:linearRGB;solid-color:#000000;solid-opacity:1;vector-effect:none;fill:#000000;fill-opacity:1;fill-rule:evenodd;stroke:none;stroke-width:1.05833;stroke-linecap:square;stroke-linejoin:miter;stroke-miterlimit:8;stroke-dasharray:none;stroke-dashoffset:0;stroke-opacity:1;paint-order:fill markers stroke;color-rendering:auto;image-rendering:auto;shape-rendering:auto;text-rendering:auto;enable-background:accumulate" />
  <g
     aria-label="redrawn by mind"
     id="text1310"
     style="font-style:normal;font-variant:normal;font-weight:normal;font-stretch:normal;font-size:1.41111px;line-height:1.25;font-family:'Segoe Print';-inkscape-font-specification:'Segoe Print, Normal';font-variant-ligatures:normal;font-variant-caps:normal;font-variant-numeric:normal;font-feature-settings:normal;text-align:start;letter-spacing:0px;word-spacing:0px;writing-mode:lr-tb;text-anchor:start;fill:#000000;fill-opacity:1;stroke:#000000;stroke-width:0.05;stroke-miterlimit:4;stroke-dasharray:none;stroke-opacity:1">
    <path
       d="m 2.4839121,32.770435 q 0.00689,-0.0124 0.016536,-0.03445 0.046853,-0.107487 0.086127,-0.168121 0.039274,-0.06132 0.086127,-0.117133 0.047542,-0.05581 0.086127,-0.08475 0.039274,-0.02894 0.070969,-0.03996 0.031695,-0.01171 0.061323,-0.01171 0.059945,0 0.097841,0.03652 0.037896,0.03583 0.037896,0.08406 0,0.02136 -0.01378,0.03858 -0.013091,0.01723 -0.040652,0.01723 -0.028939,0 -0.053055,-0.02549 -0.024805,-0.02549 -0.051676,-0.02549 -0.071658,0 -0.1984373,0.173632 -0.1267794,0.173633 -0.1543402,0.382406 -0.00689,0.05374 -0.026183,0.07097 -0.019292,0.01723 -0.054432,0.01723 -0.033762,0 -0.04892,-0.0503 -0.015158,-0.0503 -0.015158,-0.169499 0,-0.03238 0.00345,-0.142627 0.00413,-0.130224 0.016536,-0.210151 0.00207,-0.01309 0.00689,-0.06132 0.00482,-0.05306 0.011713,-0.07373 0.00758,-0.02067 0.029628,-0.03858 0.022738,-0.01792 0.04892,-0.01792 0.025494,0 0.037896,0.01654 0.013091,0.01585 0.013091,0.03445 0,0.02687 -0.01378,0.07579 -0.015847,0.05443 -0.018603,0.0751 -0.00207,0.02343 -0.00758,0.04892 -0.00689,0.02963 -0.01378,0.155718 l -6.89e-4,0.02549 z"
       style="font-style:normal;font-variant:normal;font-weight:normal;font-stretch:normal;font-size:1.41111px;font-family:'Segoe Print';-inkscape-font-specification:'Segoe Print, Normal';font-variant-ligatures:normal;font-variant-caps:normal;font-variant-numeric:normal;font-feature-settings:normal;text-align:start;writing-mode:lr-tb;text-anchor:start;stroke:#000000;stroke-width:0.05;stroke-miterlimit:4;stroke-dasharray:none;stroke-opacity:1"
       id="path1656" />
    <path
       d="m 3.6600668,32.810399 q 0,0.07028 -0.1247123,0.169498 -0.1240234,0.09922 -0.256315,0.09922 -0.1109319,0 -0.1715656,-0.06546 -0.059945,-0.06546 -0.059945,-0.18259 0,-0.197059 0.1329806,-0.374826 0.1329806,-0.177767 0.2907658,-0.177767 0.051676,0 0.08406,0.03376 0.033073,0.03376 0.033073,0.0813 0,0.106109 -0.1040418,0.203261 -0.1040418,0.09715 -0.2783635,0.190858 -0.035829,0.0186 -0.035829,0.04823 0,0.05719 0.033073,0.09164 0.033073,0.03445 0.097841,0.03445 0.148139,0 0.3024792,-0.163987 0.022738,-0.02274 0.034451,-0.02274 0.022049,0 0.022049,0.03514 z M 3.1811989,32.702912 q 0.2921439,-0.173633 0.2921439,-0.279053 0,-0.04134 -0.037207,-0.04134 -0.06339,0 -0.1433159,0.09302 -0.079237,0.09302 -0.111621,0.227376 z"
       style="font-style:normal;font-variant:normal;font-weight:normal;font-stretch:normal;font-size:1.41111px;font-family:'Segoe Print';-inkscape-font-specification:'Segoe Print, Normal';font-variant-ligatures:normal;font-variant-caps:normal;font-variant-numeric:normal;font-feature-settings:normal;text-align:start;writing-mode:lr-tb;text-anchor:start;stroke:#000000;stroke-width:0.05;stroke-miterlimit:4;stroke-dasharray:none;stroke-opacity:1"
       id="path1658" />
    <path
       d="m 4.2980979,32.758722 q -0.092328,0.148139 -0.1956812,0.228754 -0.1033528,0.07993 -0.1901692,0.07993 -0.066835,0 -0.1061088,-0.05099 -0.038585,-0.05168 -0.038585,-0.137115 0,-0.174321 0.1412488,-0.3576 0.1419379,-0.183279 0.3059243,-0.183279 0.071658,0 0.1329806,0.06132 l 0.096463,-0.450618 q 0.010335,-0.04616 0.037896,-0.06201 0.02825,-0.01585 0.044097,-0.01585 0.048231,0 0.048231,0.08544 0,0.01516 -0.031695,0.112999 -0.050298,0.151584 -0.095774,0.372759 -0.044786,0.220486 -0.044786,0.354155 0,0.137804 0.059945,0.137804 0.038585,0 0.079926,-0.02549 0.017226,-0.0124 0.032384,-0.0124 0.022049,0 0.022049,0.02894 0,0.03514 -0.062012,0.0813 -0.061323,0.04616 -0.1260904,0.04616 -0.1136881,0 -0.1136881,-0.219108 0,-0.03721 0.00345,-0.0751 z m -0.090261,-0.322461 q -0.111621,0 -0.221175,0.151585 -0.1095539,0.150895 -0.1095539,0.279052 0,0.08613 0.057189,0.08613 0.053743,0 0.1302245,-0.0565 0.07717,-0.0565 0.1584743,-0.179834 0.081304,-0.124023 0.081304,-0.186035 0,-0.03032 -0.02825,-0.06201 -0.027561,-0.03238 -0.068213,-0.03238 z"
       style="font-style:normal;font-variant:normal;font-weight:normal;font-stretch:normal;font-size:1.41111px;font-family:'Segoe Print';-inkscape-font-specification:'Segoe Print, Normal';font-variant-ligatures:normal;font-variant-caps:normal;font-variant-numeric:normal;font-feature-settings:normal;text-align:start;writing-mode:lr-tb;text-anchor:start;stroke:#000000;stroke-width:0.05;stroke-miterlimit:4;stroke-dasharray:none;stroke-opacity:1"
       id="path1660" />
    <path
       d="m 4.8761846,32.770435 q 0.00689,-0.0124 0.016536,-0.03445 0.046853,-0.107487 0.086127,-0.168121 0.039274,-0.06132 0.086127,-0.117133 0.047542,-0.05581 0.086127,-0.08475 0.039274,-0.02894 0.070969,-0.03996 0.031695,-0.01171 0.061323,-0.01171 0.059945,0 0.097841,0.03652 0.037896,0.03583 0.037896,0.08406 0,0.02136 -0.01378,0.03858 -0.013091,0.01723 -0.040652,0.01723 -0.028939,0 -0.053054,-0.02549 -0.024805,-0.02549 -0.051676,-0.02549 -0.071658,0 -0.1984373,0.173632 -0.1267795,0.173633 -0.1543402,0.382406 -0.00689,0.05374 -0.026183,0.07097 -0.019292,0.01723 -0.054432,0.01723 -0.033762,0 -0.04892,-0.0503 -0.015158,-0.0503 -0.015158,-0.169499 0,-0.03238 0.00345,-0.142627 0.00413,-0.130224 0.016536,-0.210151 0.00207,-0.01309 0.00689,-0.06132 0.00482,-0.05306 0.011713,-0.07373 0.00758,-0.02067 0.029628,-0.03858 0.022738,-0.01792 0.04892,-0.01792 0.025494,0 0.037896,0.01654 0.013091,0.01585 0.013091,0.03445 0,0.02687 -0.01378,0.07579 -0.015847,0.05443 -0.018604,0.0751 -0.00207,0.02343 -0.00758,0.04892 -0.00689,0.02963 -0.01378,0.155718 l -6.89e-4,0.02549 z"
       style="font-style:normal;font-variant:normal;font-weight:normal;font-stretch:normal;font-size:1.41111px;font-family:'Segoe Print';-inkscape-font-specification:'Segoe Print, Normal';font-variant-ligatures:normal;font-variant-caps:normal;font-variant-numeric:normal;font-feature-settings:normal;text-align:start;writing-mode:lr-tb;text-anchor:start;stroke:#000000;stroke-width:0.05;stroke-miterlimit:4;stroke-dasharray:none;stroke-opacity:1"
       id="path1662" />
    <path
       d="m 5.9200476,32.793173 q -0.096463,0.129536 -0.1908581,0.194303 -0.094396,0.06477 -0.1729437,0.06477 -0.053054,0 -0.09164,-0.04479 -0.038585,-0.04479 -0.038585,-0.115066 0,-0.181212 0.1619194,-0.389985 0.1619193,-0.209461 0.3217716,-0.209461 0.057878,0 0.086127,0.06614 0.00896,0.02205 0.02825,0.02205 0.055121,0 0.055121,0.04272 0,0.02136 -0.00689,0.05857 -0.037207,0.20326 -0.037207,0.286631 0,0.166743 0.06339,0.199816 0.030317,0.01654 0.030317,0.04065 0,0.02136 -0.029628,0.04272 -0.029628,0.02205 -0.057188,0.02205 -0.053054,0 -0.087505,-0.07304 -0.034451,-0.07304 -0.034451,-0.208084 z m -0.04203,-0.387917 q -0.09095,0 -0.2115287,0.170876 -0.1205783,0.170188 -0.1205783,0.282498 0,0.07924 0.052365,0.07924 0.075792,0 0.2101507,-0.152962 0.1343586,-0.152962 0.1343586,-0.28112 0,-0.09853 -0.064768,-0.09853 z"
       style="font-style:normal;font-variant:normal;font-weight:normal;font-stretch:normal;font-size:1.41111px;font-family:'Segoe Print';-inkscape-font-specification:'Segoe Print, Normal';font-variant-ligatures:normal;font-variant-caps:normal;font-variant-numeric:normal;font-feature-settings:normal;text-align:start;writing-mode:lr-tb;text-anchor:start;stroke:#000000;stroke-width:0.05;stroke-miterlimit:4;stroke-dasharray:none;stroke-opacity:1"
       id="path1664" />
    <path
       d="m 6.8295521,32.587846 q -0.019292,6.89e-4 -0.093018,0.160541 -0.060634,0.131602 -0.1240233,0.234955 -0.06339,0.102664 -0.093018,0.102664 -0.085438,0 -0.1584743,-0.253559 -0.072347,-0.254248 -0.072347,-0.409277 0,-0.0503 0.024805,-0.08337 0.025494,-0.03307 0.059945,-0.03583 0.00482,-6.89e-4 0.017226,6.89e-4 0.012402,6.89e-4 0.030317,0.02274 0.017914,0.02136 0.017914,0.04203 v 0.0028 q 0,0.0083 -0.00758,0.0689 -0.0062,0.04479 -0.0062,0.109554 0,0.102663 0.039274,0.226687 0.039274,0.124023 0.066146,0.124023 0.019292,0 0.1274684,-0.209462 0.068213,-0.13298 0.097841,-0.183279 l 0.022049,-0.04134 q 0.047542,-0.09095 0.090261,-0.125401 0.059256,0.0076 0.059256,0.05926 0,0.01723 -0.00276,0.02894 -0.00276,0.01171 -0.00276,0.02894 0,0.127468 0.066146,0.267339 0.066146,0.139182 0.094396,0.139182 0.02067,0 0.065457,-0.146072 0.060634,-0.198437 0.111621,-0.297656 0.051676,-0.09922 0.075792,-0.117822 0.024116,-0.0186 0.054432,-0.0186 0.017226,0 0.028939,0.01516 0.012402,0.01447 0.012402,0.03169 0,0.02549 -0.00758,0.03514 -0.085438,0.11231 -0.1639865,0.35071 -0.066835,0.204639 -0.091639,0.257004 -0.024805,0.05237 -0.041341,0.05237 -0.083371,0 -0.1364256,-0.06063 -0.053055,-0.06132 -0.1405598,-0.324528 -0.010335,-0.03101 -0.019982,-0.05443 z"
       style="font-style:normal;font-variant:normal;font-weight:normal;font-stretch:normal;font-size:1.41111px;font-family:'Segoe Print';-inkscape-font-specification:'Segoe Print, Normal';font-variant-ligatures:normal;font-variant-caps:normal;font-variant-numeric:normal;font-feature-settings:normal;text-align:start;writing-mode:lr-tb;text-anchor:start;stroke:#000000;stroke-width:0.05;stroke-miterlimit:4;stroke-dasharray:none;stroke-opacity:1"
       id="path1666" />
    <path
       d="m 7.9967499,32.514121 q -0.035829,0 -0.078548,0.04685 -0.04203,0.04685 -0.1288465,0.21015 -0.1143771,0.219108 -0.148139,0.249425 -0.033073,0.03032 -0.055122,0.03032 -0.081304,0 -0.081304,-0.07855 0,-0.03307 0.011024,-0.09371 0.037896,-0.208083 0.037896,-0.438904 0,-0.02618 0.022049,-0.05788 0.022738,-0.03238 0.042719,-0.03238 0.035829,0 0.050987,0.02205 0.015158,0.02205 0.015158,0.08888 0,0.06959 -0.041341,0.286632 -0.01378,0.07166 -0.01378,0.09095 0,0.01103 0.00551,0.01103 0.010335,0 0.095774,-0.164676 0.086127,-0.167431 0.1508951,-0.235644 0.064768,-0.06821 0.1426268,-0.06821 0.062012,0 0.1005967,0.0565 0.039274,0.0565 0.057189,0.206017 0.019293,0.170188 0.034451,0.212218 0.015847,0.04134 0.049609,0.04134 0.02136,0 0.053743,-0.01516 0.00551,-0.0028 0.00827,-0.0028 0.029628,0 0.029628,0.03445 0,0.03032 -0.040652,0.06477 -0.040652,0.03376 -0.097841,0.03376 -0.058567,0 -0.09095,-0.04616 Q 8.096657,32.918539 8.078054,32.716653 8.058762,32.514082 7.99675,32.514082 Z"
       style="font-style:normal;font-variant:normal;font-weight:normal;font-stretch:normal;font-size:1.41111px;font-family:'Segoe Print';-inkscape-font-specification:'Segoe Print, Normal';font-variant-ligatures:normal;font-variant-caps:normal;font-variant-numeric:normal;font-feature-settings:normal;text-align:start;writing-mode:lr-tb;text-anchor:start;stroke:#000000;stroke-width:0.05;stroke-miterlimit:4;stroke-dasharray:none;stroke-opacity:1"
       id="path1668" />
    <path
       d="m 9.153612,32.651924 q 0.088194,-0.160541 0.2108396,-0.25976 0.1226454,-0.09991 0.221175,-0.09991 0.054433,0 0.092329,0.0503 0.037896,0.0503 0.037896,0.122645 0,0.214285 -0.1619193,0.402387 Q 9.3927014,33.055 9.2128676,33.055 q -0.04892,0 -0.090261,-0.02618 -0.040652,-0.02687 -0.045475,-0.06683 -0.00276,-0.03238 -0.018604,-0.04823 -0.029628,-0.02963 -0.029628,-0.06339 0,-0.0627 0.034451,-0.268029 L 9.1343194,32.1703 q 0.036518,-0.207394 0.053055,-0.256315 0.017225,-0.04892 0.037896,-0.06546 0.020671,-0.01654 0.050987,-0.01654 0.048231,0 0.048231,0.08337 0,0.07924 -0.053055,0.221864 -0.050987,0.137115 -0.1178221,0.514697 z m -0.016537,0.229443 q 0.035829,0.06684 0.086816,0.06684 0.078548,0 0.1660534,-0.06477 0.087505,-0.06546 0.1508951,-0.183279 0.064079,-0.118512 0.064079,-0.199816 0,-0.03652 -0.013091,-0.0627 -0.013091,-0.02618 -0.033073,-0.02618 -0.095774,0 -0.2342663,0.157096 -0.1378037,0.156407 -0.1874131,0.312814 z"
       style="font-style:normal;font-variant:normal;font-weight:normal;font-stretch:normal;font-size:1.41111px;font-family:'Segoe Print';-inkscape-font-specification:'Segoe Print, Normal';font-variant-ligatures:normal;font-variant-caps:normal;font-variant-numeric:normal;font-feature-settings:normal;text-align:start;writing-mode:lr-tb;text-anchor:start;stroke:#000000;stroke-width:0.05;stroke-miterlimit:4;stroke-dasharray:none;stroke-opacity:1"
       id="path1670" />
    <path
       d="m 10.358016,32.800752 q -0.126779,0.110243 -0.223242,0.160542 -0.09577,0.04961 -0.1467606,0.04961 -0.068213,0 -0.1047309,-0.0565 -0.035829,-0.05719 -0.035829,-0.13298 0,-0.106109 0.042719,-0.261827 0.043408,-0.156407 0.064079,-0.185346 0.02136,-0.02963 0.067524,-0.02963 0.01929,0 0.0317,0.02274 0.0124,0.02274 0.0124,0.05168 0,0.01723 -0.01585,0.04479 -0.03721,0.06477 -0.03927,0.07166 -0.0014,0.0069 -0.026179,0.08337 -0.024805,0.07579 -0.024805,0.142627 0,0.02343 0.011024,0.07304 0.011713,0.04961 0.047541,0.04961 0.0379,0 0.09302,-0.02274 0.05581,-0.02343 0.125401,-0.07579 0.06959,-0.05237 0.09371,-0.08475 0.02412,-0.03238 0.03376,-0.07373 0.01034,-0.04134 0.01447,-0.179145 0.0041,-0.137804 0.06684,-0.137804 0.03721,0 0.04823,0.01998 0.01102,0.01929 0.01102,0.07441 0,0.04548 -0.0062,0.113688 -0.0076,0.08613 -0.0096,0.122645 -0.0096,0.18948 -0.04961,0.381027 -0.03927,0.190858 -0.115067,0.319016 -0.07579,0.128846 -0.208772,0.128846 -0.1350438,0 -0.2404637,-0.07097 -0.1047308,-0.07028 -0.1047308,-0.1192 0,-0.02274 0.010335,-0.04479 0.011024,-0.02205 0.027561,-0.02205 0.00827,0 0.017914,0.01309 0.090261,0.138492 0.2838725,0.138492 0.09991,0 0.167431,-0.175699 0.06821,-0.175011 0.0751,-0.328662 0.0014,-0.02963 0.0055,-0.05926 z"
       style="font-style:normal;font-variant:normal;font-weight:normal;font-stretch:normal;font-size:1.41111px;font-family:'Segoe Print';-inkscape-font-specification:'Segoe Print, Normal';font-variant-ligatures:normal;font-variant-caps:normal;font-variant-numeric:normal;font-feature-settings:normal;text-align:start;writing-mode:lr-tb;text-anchor:start;stroke:#000000;stroke-width:0.05;stroke-miterlimit:4;stroke-dasharray:none;stroke-opacity:1"
       id="path1672" />
    <path
       d="m 11.767059,32.498962 q -0.06408,0.0014 -0.274229,0.379649 -0.07097,0.127469 -0.08268,0.139182 -0.01171,0.01102 -0.04341,0.01998 -0.03101,0.009 -0.05168,0.009 -0.04616,0 -0.04616,-0.179834 0,-0.101286 0.04341,-0.366558 0.01791,-0.107487 0.01791,-0.153651 0,-0.04547 0.04065,-0.04547 0.07648,0 0.07648,0.110243 0,0.05168 -0.02549,0.202571 -0.02963,0.172255 -0.03032,0.209462 0.04272,-0.04134 0.125401,-0.181212 0.117133,-0.191547 0.172255,-0.242535 0.05581,-0.05168 0.115066,-0.05168 0.04479,0 0.07097,0.05994 0.02687,0.05994 0.03238,0.285942 0.0014,0.0565 0.01033,0.08406 0.009,0.02756 0.01309,0.02756 0.03238,0 0.14056,-0.220486 0.05788,-0.116444 0.11231,-0.177077 0.05512,-0.06063 0.121957,-0.06063 0.05581,0 0.0813,0.05788 0.02549,0.05719 0.03652,0.170187 0.01034,0.114377 0.0317,0.209462 0.02205,0.09508 0.07993,0.121956 0.03927,0.0186 0.03927,0.04341 0,0.02412 -0.03307,0.04961 -0.03307,0.02549 -0.06063,0.02549 -0.05512,0 -0.09853,-0.06752 -0.04341,-0.06752 -0.06546,-0.292144 -0.0096,-0.09026 -0.0186,-0.128158 -0.009,-0.0379 -0.02825,-0.0379 -0.02894,0 -0.0689,0.05512 -0.03927,0.05512 -0.127469,0.223931 -0.0689,0.131602 -0.104731,0.175699 -0.03514,0.04341 -0.06821,0.04341 -0.02963,0 -0.05306,-0.02343 -0.02343,-0.02412 -0.02963,-0.05719 -0.0062,-0.03376 -0.01309,-0.164675 -0.01033,-0.21773 -0.0379,-0.253559 z"
       style="font-style:normal;font-variant:normal;font-weight:normal;font-stretch:normal;font-size:1.41111px;font-family:'Segoe Print';-inkscape-font-specification:'Segoe Print, Normal';font-variant-ligatures:normal;font-variant-caps:normal;font-variant-numeric:normal;font-feature-settings:normal;text-align:start;writing-mode:lr-tb;text-anchor:start;stroke:#000000;stroke-width:0.05;stroke-miterlimit:4;stroke-dasharray:none;stroke-opacity:1"
       id="path1674" />
    <path
       d="m 12.919098,32.12138 q -0.01447,0 -0.02205,-0.03101 -0.0028,-0.0096 -0.0076,-0.02136 -0.0186,-0.04479 -0.0186,-0.07786 0,-0.02756 0.03238,-0.05581 0.03307,-0.02894 0.07304,-0.02894 0.01998,0 0.04479,0.01585 0.02481,0.01516 0.02481,0.02963 0,0.02274 -0.01723,0.07717 -0.01654,0.05443 -0.05374,0.07372 -0.03652,0.0186 -0.05581,0.0186 z m -0.09026,0.769634 q 0,0.05237 0.01447,0.117822 0.0028,0.0124 0.0028,0.02067 0,0.0124 -0.02274,0.03169 -0.02274,0.01998 -0.04823,0.01998 -0.06683,0 -0.06683,-0.122645 0,-0.12678 0.05237,-0.401009 0.01791,-0.09577 0.01791,-0.117822 0,-0.04341 0.01585,-0.07372 0.01585,-0.03101 0.04479,-0.03101 0.03514,0 0.05512,0.01723 0.02067,0.01654 0.02067,0.03721 0,0.02067 -0.0096,0.05443 -0.05168,0.181901 -0.06408,0.260449 -0.0124,0.07855 -0.0124,0.186724 z"
       style="font-style:normal;font-variant:normal;font-weight:normal;font-stretch:normal;font-size:1.41111px;font-family:'Segoe Print';-inkscape-font-specification:'Segoe Print, Normal';font-variant-ligatures:normal;font-variant-caps:normal;font-variant-numeric:normal;font-feature-settings:normal;text-align:start;writing-mode:lr-tb;text-anchor:start;stroke:#000000;stroke-width:0.05;stroke-miterlimit:4;stroke-dasharray:none;stroke-opacity:1"
       id="path1676" />
    <path
       d="m 13.574355,32.514121 q -0.03583,0 -0.07855,0.04685 -0.04203,0.04685 -0.128847,0.21015 -0.114377,0.219108 -0.148139,0.249425 -0.03307,0.03032 -0.05512,0.03032 -0.08131,0 -0.08131,-0.07855 0,-0.03307 0.01103,-0.09371 0.0379,-0.208083 0.0379,-0.438904 0,-0.02618 0.02205,-0.05788 0.02274,-0.03238 0.04272,-0.03238 0.03583,0 0.05099,0.02205 0.01516,0.02205 0.01516,0.08888 0,0.06959 -0.04134,0.286632 -0.01378,0.07166 -0.01378,0.09095 0,0.01103 0.0055,0.01103 0.01034,0 0.09577,-0.164676 0.08613,-0.167431 0.150896,-0.235644 0.06477,-0.06821 0.142626,-0.06821 0.06201,0 0.100597,0.0565 0.03927,0.0565 0.05719,0.206017 0.01929,0.170188 0.03445,0.212218 0.01585,0.04134 0.04961,0.04134 0.02136,0 0.05374,-0.01516 0.0055,-0.0028 0.0083,-0.0028 0.02963,0 0.02963,0.03445 0,0.03032 -0.04065,0.06477 -0.04065,0.03376 -0.09784,0.03376 -0.05857,0 -0.09095,-0.04616 -0.03169,-0.04685 -0.0503,-0.248736 -0.01929,-0.202571 -0.0813,-0.202571 z"
       style="font-style:normal;font-variant:normal;font-weight:normal;font-stretch:normal;font-size:1.41111px;font-family:'Segoe Print';-inkscape-font-specification:'Segoe Print, Normal';font-variant-ligatures:normal;font-variant-caps:normal;font-variant-numeric:normal;font-feature-settings:normal;text-align:start;writing-mode:lr-tb;text-anchor:start;stroke:#000000;stroke-width:0.05;stroke-miterlimit:4;stroke-dasharray:none;stroke-opacity:1"
       id="path1678" />
    <path
       d="m 14.534847,32.758722 q -0.09233,0.148139 -0.195681,0.228754 -0.103353,0.07993 -0.190169,0.07993 -0.06683,0 -0.106109,-0.05099 -0.03858,-0.05168 -0.03858,-0.137115 0,-0.174321 0.141249,-0.3576 0.141938,-0.183279 0.305924,-0.183279 0.07166,0 0.132981,0.06132 l 0.09646,-0.450618 q 0.01034,-0.04616 0.0379,-0.06201 0.02825,-0.01585 0.0441,-0.01585 0.04823,0 0.04823,0.08544 0,0.01516 -0.0317,0.112999 -0.0503,0.151584 -0.09577,0.372759 -0.04479,0.220486 -0.04479,0.354155 0,0.137804 0.05994,0.137804 0.03858,0 0.07993,-0.02549 0.01722,-0.0124 0.03238,-0.0124 0.02205,0 0.02205,0.02894 0,0.03514 -0.06201,0.0813 -0.06132,0.04616 -0.126091,0.04616 -0.113688,0 -0.113688,-0.219108 0,-0.03721 0.0034,-0.0751 z m -0.09026,-0.322461 q -0.111621,0 -0.221175,0.151585 -0.109554,0.150895 -0.109554,0.279052 0,0.08613 0.05719,0.08613 0.05374,0 0.130224,-0.0565 0.07717,-0.0565 0.158474,-0.179834 0.0813,-0.124023 0.0813,-0.186035 0,-0.03032 -0.02825,-0.06201 -0.02756,-0.03238 -0.06821,-0.03238 z"
       style="font-style:normal;font-variant:normal;font-weight:normal;font-stretch:normal;font-size:1.41111px;font-family:'Segoe Print';-inkscape-font-specification:'Segoe Print, Normal';font-variant-ligatures:normal;font-variant-caps:normal;font-variant-numeric:normal;font-feature-settings:normal;text-align:start;writing-mode:lr-tb;text-anchor:start;stroke:#000000;stroke-width:0.05;stroke-miterlimit:4;stroke-dasharray:none;stroke-opacity:1"
       id="path1680" />
  </g>
  <g
     aria-label="Made by"
     transform="matrix(1.0391195,0,0,1.0391195,6.4912894,45.542768)"
     id="text2072"
     style="font-style:italic;font-variant:normal;font-weight:bold;font-stretch:normal;font-size:2.03698px;line-height:1.25;font-family:Corbel;-inkscape-font-specification:'Corbel, Bold Italic';font-variant-ligatures:normal;font-variant-caps:normal;font-variant-numeric:normal;font-variant-east-asian:normal;text-align:start;letter-spacing:0px;word-spacing:0px;writing-mode:lr-tb;white-space:pre;shape-inside:url(#rect2074);fill:#000000;fill-opacity:1;stroke:none">
    <path
       d="m -0.96123094,-17.738068 q 0.0706179,-0.152176 0.30435344,-0.567927 l 0.22975701,-0.403815 h 0.32921893 l -0.27550949,1.3308 h -0.24268706 l 0.14223053,-0.634567 q 0.0358063,-0.159139 0.0905103,-0.377955 h -0.007957 q -0.0984673,0.210859 -0.38193373,0.710158 l -0.17505296,0.302364 H -1.1104238 l -0.1064243,-0.71911 q -0.021882,-0.14422 -0.03879,-0.293412 h -0.00796 q -0.01293,0.147203 -0.05172,0.349111 l -0.1342736,0.663411 H -1.692276 l 0.2755095,-1.3308 h 0.313305 l 0.059677,0.371987 q 0.036801,0.232741 0.0765856,0.599755 z"
       style="font-style:italic;font-variant:normal;font-weight:bold;font-stretch:normal;font-size:2.03698px;font-family:Corbel;-inkscape-font-specification:'Corbel, Bold Italic';font-variant-ligatures:normal;font-variant-caps:normal;font-variant-numeric:normal;font-variant-east-asian:normal"
       id="path1634" />
    <path
       d="m 0.75150314,-17.610756 q 0,0.02685 0.0139247,0.03879 0.0149193,0.01094 0.0407794,0.01094 0.028844,0 0.070618,-0.006 l -0.0407794,0.188977 q -0.0616664,0.01293 -0.11835967,0.01293 -0.0815588,0 -0.12432739,-0.0378 -0.041774,-0.03879 -0.0527148,-0.109408 h -0.003978 q -0.0686287,0.08454 -0.14819824,0.121343 -0.0785749,0.0368 -0.15416596,0.0368 -0.0646502,0 -0.11637044,-0.02387 -0.05172019,-0.02387 -0.08752648,-0.06763 -0.03580629,-0.04376 -0.05470405,-0.105429 -0.01889776,-0.06167 -0.01889776,-0.137258 0,-0.08056 0.01293005,-0.162123 0.01392466,-0.08156 0.04077938,-0.156155 0.02685472,-0.07559 0.06564486,-0.141236 0.03978476,-0.06564 0.09150496,-0.114381 0.0517202,-0.04874 0.11537581,-0.07659 0.0636556,-0.02785 0.13825206,-0.02785 0.0686287,0 0.1302951,0.02884 0.0616664,0.02884 0.10741886,0.09051 h 0.003978 l 0.0348117,-0.09548 h 0.20091305 l -0.13924667,0.671368 q -0.003978,0.0189 -0.005968,0.03581 -0.001989,0.01591 -0.001989,0.02487 z M 0.6142457,-18.099114 q -0.008952,-0.01293 -0.0238709,-0.02586 -0.0139247,-0.01392 -0.033817,-0.02387 -0.0188978,-0.01094 -0.0427686,-0.0179 -0.0228762,-0.007 -0.0497309,-0.007 -0.0467471,0 -0.0855372,0.02288 -0.0377955,0.02188 -0.0686287,0.05968 -0.0298386,0.0368 -0.0517202,0.08554 -0.0218816,0.04774 -0.0368009,0.09946 -0.0139247,0.05172 -0.020887,0.102446 -0.006962,0.04973 -0.006962,0.0925 0,0.08454 0.0258601,0.124327 0.0268547,0.03978 0.0775803,0.03978 0.0507256,0 0.10145115,-0.03382 0.0507256,-0.03481 0.0905103,-0.09449 0.0268547,-0.03978 0.0457525,-0.09051 0.0198924,-0.05073 0.0338171,-0.11637 z"
       style="font-style:italic;font-variant:normal;font-weight:bold;font-stretch:normal;font-size:2.03698px;font-family:Corbel;-inkscape-font-specification:'Corbel, Bold Italic';font-variant-ligatures:normal;font-variant-caps:normal;font-variant-numeric:normal;font-variant-east-asian:normal"
       id="path1636" />
    <path
       d="m 1.8475734,-17.610756 q 0,0.02288 0.011936,0.0368 0.01293,0.01293 0.042769,0.01293 0.027849,0 0.070618,-0.006 l -0.040779,0.188977 q -0.026855,0.006 -0.059677,0.009 -0.032822,0.004 -0.058682,0.004 -0.081559,0 -0.1243274,-0.0378 -0.041774,-0.03879 -0.052715,-0.109408 h -0.00398 q -0.068629,0.08454 -0.1481982,0.121343 -0.078575,0.0368 -0.154166,0.0368 -0.06465,0 -0.1163704,-0.02387 -0.05172,-0.02387 -0.087526,-0.06763 -0.035806,-0.04376 -0.054704,-0.105429 -0.018898,-0.06167 -0.018898,-0.137258 0,-0.08056 0.013925,-0.162123 0.013925,-0.08156 0.039785,-0.156155 0.026855,-0.07559 0.065645,-0.141236 0.03879,-0.06564 0.088521,-0.114381 0.050725,-0.04874 0.1113973,-0.07659 0.061666,-0.02785 0.133279,-0.02785 0.071613,0 0.1302951,0.02984 0.058682,0.02884 0.1014511,0.08952 h 0.00398 l 0.1183597,-0.571906 H 2.094239 l -0.2387086,1.147791 q -0.00398,0.0189 -0.00597,0.03581 -0.00199,0.01591 -0.00199,0.02487 z m -0.138252,-0.48438 q -0.00895,-0.01293 -0.023871,-0.02686 -0.013925,-0.01392 -0.032822,-0.02486 -0.018898,-0.01194 -0.042769,-0.0189 -0.022876,-0.008 -0.049731,-0.008 -0.046747,0 -0.085537,0.02288 -0.037796,0.02188 -0.067634,0.05968 -0.029839,0.0368 -0.052715,0.08554 -0.021882,0.04774 -0.036801,0.09946 -0.013925,0.05172 -0.020887,0.102446 -0.00696,0.04973 -0.00696,0.0925 0,0.08454 0.02586,0.124327 0.026855,0.03978 0.07758,0.03978 0.054704,0 0.1084135,-0.03879 0.053709,-0.03879 0.095483,-0.106424 0.043763,-0.0736 0.067634,-0.187983 z"
       style="font-style:italic;font-variant:normal;font-weight:bold;font-stretch:normal;font-size:2.03698px;font-family:Corbel;-inkscape-font-specification:'Corbel, Bold Italic';font-variant-ligatures:normal;font-variant-caps:normal;font-variant-numeric:normal;font-variant-east-asian:normal"
       id="path1638" />
    <path
       d="m 2.7934563,-18.103093 q 0,-0.03282 -0.02586,-0.05669 -0.02586,-0.02387 -0.078575,-0.02387 -0.039785,0 -0.081559,0.01591 -0.040779,0.01591 -0.07758,0.04774 -0.035806,0.03083 -0.06465,0.07658 -0.028844,0.04476 -0.045752,0.103441 0.1054297,0 0.1770422,-0.01393 0.071613,-0.01393 0.1153758,-0.0368 0.043763,-0.02288 0.062661,-0.05172 0.018898,-0.02984 0.018898,-0.06067 z m 0.2367194,0 q 0,0.08056 -0.039785,0.145215 -0.03879,0.06366 -0.1153758,0.109408 -0.076586,0.04476 -0.1889777,0.06863 -0.1123919,0.02387 -0.2586009,0.02387 -0.016909,0 -0.042769,-9.94e-4 v 0.006 q 0,0.05271 0.014919,0.0925 0.015914,0.03879 0.044758,0.06366 0.029839,0.02486 0.071613,0.0368 0.041774,0.01094 0.093494,0.01094 0.07758,0 0.1631175,-0.0189 0.085537,-0.0189 0.1491929,-0.05072 l -0.042769,0.206881 q -0.061666,0.02486 -0.141236,0.03978 -0.078575,0.01591 -0.1680906,0.01591 -0.1064242,0 -0.1849991,-0.02884 -0.078575,-0.02884 -0.1302951,-0.08056 -0.050726,-0.05271 -0.075591,-0.124327 -0.024866,-0.07161 -0.024866,-0.158145 0,-0.07659 0.015914,-0.152176 0.015914,-0.07559 0.046747,-0.14422 0.030833,-0.06962 0.076586,-0.128306 0.045752,-0.05968 0.1054296,-0.102446 0.060672,-0.04376 0.1352682,-0.06863 0.074597,-0.02487 0.1621229,-0.02487 0.076586,0 0.1382521,0.0189 0.061666,0.0189 0.104435,0.05371 0.043763,0.03382 0.067634,0.08255 0.023871,0.04874 0.023871,0.108413 z"
       style="font-style:italic;font-variant:normal;font-weight:bold;font-stretch:normal;font-size:2.03698px;font-family:Corbel;-inkscape-font-specification:'Corbel, Bold Italic';font-variant-ligatures:normal;font-variant-caps:normal;font-variant-numeric:normal;font-variant-east-asian:normal"
       id="path1640" />
    <path
       d="m 3.8189083,-17.755971 q -0.00597,0.02984 -0.00796,0.04675 -9.946e-4,0.01591 -9.946e-4,0.02884 0,0.06067 0.028844,0.09747 0.029838,0.03581 0.087526,0.03581 0.048736,0 0.089516,-0.02089 0.040779,-0.02089 0.073602,-0.0557 0.033817,-0.03581 0.059677,-0.08156 0.02586,-0.04675 0.042769,-0.09747 0.017903,-0.05172 0.026855,-0.10344 0.00895,-0.05271 0.00895,-0.09946 0,-0.03382 -0.00796,-0.06366 -0.00696,-0.03083 -0.022876,-0.05371 -0.014919,-0.02387 -0.040779,-0.0368 -0.024865,-0.01393 -0.060672,-0.01393 -0.032822,0 -0.070618,0.01393 -0.036801,0.01393 -0.070618,0.04476 -0.032822,0.03083 -0.060672,0.07857 -0.026855,0.04675 -0.040779,0.114381 z m 0.1322843,-0.645508 q -0.017903,0.07758 -0.036801,0.145215 h 0.00398 q 0.017903,-0.02089 0.042769,-0.03978 0.024865,-0.01989 0.055699,-0.03581 0.030833,-0.01591 0.067634,-0.02487 0.036801,-0.0099 0.078575,-0.0099 0.061666,0 0.1163704,0.02188 0.055699,0.02188 0.096478,0.06564 0.040779,0.04277 0.06465,0.107418 0.023871,0.06465 0.023871,0.150188 0,0.0736 -0.014919,0.152177 -0.013925,0.07758 -0.043763,0.152176 -0.028844,0.0746 -0.074596,0.140242 -0.045752,0.06564 -0.1084135,0.115375 -0.061666,0.04973 -0.1422305,0.07858 -0.079569,0.02884 -0.1780368,0.02884 -0.07758,0 -0.1382521,-0.02387 -0.060672,-0.02387 -0.1034404,-0.06465 -0.041774,-0.04078 -0.06465,-0.09648 -0.021882,-0.05669 -0.021882,-0.120349 0,-0.02586 0.00298,-0.05271 0.00298,-0.02785 0.011936,-0.07261 l 0.2158323,-1.034404 h 0.2347301 z"
       style="font-style:italic;font-variant:normal;font-weight:bold;font-stretch:normal;font-size:2.03698px;font-family:Corbel;-inkscape-font-specification:'Corbel, Bold Italic';font-variant-ligatures:normal;font-variant-caps:normal;font-variant-numeric:normal;font-variant-east-asian:normal"
       id="path1642" />
    <path
       d="m 4.600679,-18.342796 h 0.2397032 l 0.088521,0.422713 q 0.028844,0.139247 0.047742,0.255617 h 0.00597 q 0.055699,-0.115376 0.1233328,-0.241692 l 0.237714,-0.436638 h 0.2655633 l -0.5659383,0.996608 q -0.056693,0.09946 -0.1143812,0.18301 -0.056693,0.08355 -0.1243274,0.143225 -0.067634,0.06067 -0.1491929,0.09449 -0.081559,0.03382 -0.1849991,0.03382 -0.076586,0 -0.125322,-0.01293 l 0.039785,-0.186988 q 0.037796,0.007 0.076586,0.007 0.056693,0 0.1024458,-0.01989 0.046747,-0.0189 0.087527,-0.05769 0.041774,-0.03879 0.080564,-0.09747 0.03879,-0.05769 0.081559,-0.136263 z"
       style="font-style:italic;font-variant:normal;font-weight:bold;font-stretch:normal;font-size:2.03698px;font-family:Corbel;-inkscape-font-specification:'Corbel, Bold Italic';font-variant-ligatures:normal;font-variant-caps:normal;font-variant-numeric:normal;font-variant-east-asian:normal"
       id="path1644" />
  </g>
  <g
     aria-label="whis"
     transform="translate(0.84336078,41.258461)"
     id="text2064"
     style="font-style:normal;font-variant:normal;font-weight:normal;font-stretch:normal;font-size:3.52778px;line-height:1.25;font-family:'Know Your Product';-inkscape-font-specification:'Know Your Product, Normal';font-variant-ligatures:normal;font-variant-caps:normal;font-variant-numeric:normal;font-variant-east-asian:normal;text-align:start;letter-spacing:0px;word-spacing:0px;writing-mode:lr-tb;white-space:pre;shape-inside:url(#rect2068);fill:#fcdc56;fill-opacity:1;stroke:#b66314;stroke-width:0.529167;stroke-linejoin:round;stroke-miterlimit:4;stroke-dasharray:none;stroke-opacity:1;paint-order:stroke fill markers">
    <path
       d="m 2.6717531,-12.844813 q -0.1929255,0.199816 -0.1722549,0.430638 l 0.065457,0.106798 0.086127,0.280775 0.063734,0.106798 0.043064,0.108521 0.043064,0.06373 0.022393,0.08613 q 0.068902,0.09646 0.084405,0.192926 l 0.043064,0.06546 0.043064,0.149861 q 0.1240236,0.151585 0.1722549,0.280776 l 0.022393,0.106798 v 0.258382 l 0.020671,0.129191 q 0.08096,0.07579 0.1085206,0.151585 0.1016304,0.02067 0.1722549,0.02067 h 0.063734 l 0.065457,0.02239 q 0.1774225,0 0.301446,0.02067 0.1171333,-0.167087 0.1291912,-0.322117 -0.1085206,-0.156752 -0.1515843,-0.280775 l -0.063734,-0.106798 -0.022393,-0.151584 q -0.08096,-0.149862 -0.086127,-0.279053 -0.1291912,-0.220487 -0.1722549,-0.408244 l -0.043064,-0.06546 -0.020671,-0.08613 v -0.06373 l -0.043064,-0.08613 -0.022393,-0.06546 -0.020671,-0.08613 -0.1946481,-0.537435 -0.043064,-0.02239 q -0.2738852,0.05512 -0.4943715,-0.02067 z m 1.1833911,0.02067 q -0.1877579,0.248047 -0.1722549,0.516765 l 0.043064,0.04306 0.022393,0.06546 q 0.091295,0.144694 0.1067981,0.279053 l 0.043064,0.02239 q 0.1825902,0.41858 0.2377117,0.70969 l 0.043064,0.172255 q 0.1498618,0.225654 0.1498618,0.451308 0.106798,0.118856 0.1498617,0.237712 0.4306373,0.0689 0.7544764,-0.02239 0.020671,-0.101631 0.020671,-0.172255 -0.053399,-0.167088 -0.106798,-0.258383 -0.091295,-0.155029 -0.1291912,-0.279053 l -0.022393,-0.08613 -0.063734,-0.08613 q -0.048231,-0.151585 -0.065457,-0.258383 -0.068902,-0.08613 -0.106798,-0.172255 l -0.022393,-0.06373 v -0.06546 l -0.043064,-0.06373 v -0.06546 Q 4.5596666,-12.167851 4.5011,-12.350441 q 0.015503,-0.124024 0,-0.215319 -0.086127,-0.0913 -0.106798,-0.192925 l -0.065457,-0.02239 q -0.26355,0.02239 -0.4737009,-0.04306 z m 1.3556459,0.06546 -0.043064,0.06373 q -0.025838,0.220486 -0.086127,0.366903 -0.025838,0.177423 -0.106798,0.322117 v 0.06546 l 0.043064,0.06373 0.043064,0.151584 q 0.053399,0.08613 0.063734,0.170532 l 0.043064,0.04306 v 0.06546 q 0.1464166,0.215319 0.194648,0.430637 l 0.086127,0.06373 0.106798,-0.387574 0.022393,-0.08613 0.043064,-0.08613 0.020671,-0.106798 0.043064,-0.08613 0.022393,-0.106798 0.020671,-0.06546 q 0.037896,-0.111966 0.043064,-0.192926 0.1825902,-0.318671 0.2153186,-0.602892 l -0.106798,-0.129191 q -0.3341745,0.0534 -0.6028921,0 z"
       style="font-style:normal;font-variant:normal;font-weight:normal;font-stretch:normal;font-size:3.52778px;font-family:'Know Your Product';-inkscape-font-specification:'Know Your Product, Normal';font-variant-ligatures:normal;font-variant-caps:normal;font-variant-numeric:normal;font-variant-east-asian:normal;fill:#fcdc56;fill-opacity:1;stroke:#b66314;stroke-width:0.529167;stroke-linejoin:round;stroke-miterlimit:4;stroke-dasharray:none;stroke-opacity:1;paint-order:stroke fill markers"
       id="path1647" />
    <path
       d="m 6.955732,-12.862038 q -0.022393,0.0379 -0.044786,0.04479 -0.2876656,-0.05512 -0.4857588,0.06546 l -0.044786,0.132636 0.022393,0.110243 -0.022393,0.132637 q 0.010335,0.03445 0,0.06718 v 0.06546 q 0.017226,0.172255 0,0.287666 l 0.022393,0.06718 v 0.618395 l 0.022393,0.04479 -0.022393,0.132637 q 0.044786,0.315226 -0.022393,0.552938 l 0.08785,0.220486 0.1774225,0.06718 q 0.210151,-0.08268 0.3979088,-0.04479 0.082682,-0.18259 0.1102431,-0.330729 -0.055121,-0.167088 -0.043064,-0.287666 v -0.08957 -0.132637 -0.110243 -0.132636 -0.08785 -0.24288 -0.08957 -0.08785 -0.06718 -0.08785 q -0.012058,-0.03273 0,-0.06546 l -0.022393,-0.177423 v -0.06718 q 0.010335,-0.160197 0.043064,-0.265273 l -0.020671,-0.132636 q -0.072347,-0.08785 -0.1550294,-0.110243 z m 1.8793008,0 q -0.2652725,0.08785 -0.5081519,0.02239 l -0.1550294,0.08785 -0.022393,0.06718 v 0.530545 l 0.022393,0.110244 0.022393,0.375515 q -0.012058,0.18259 0.022393,0.332452 l -0.022393,0.06546 v 0.222209 q -0.027561,0.392741 0,0.640788 0.037896,0.02239 0.043064,0.04479 0.089573,0.03273 0.1774226,0.02239 h 0.08785 q 0.2049833,0.04995 0.354845,0.04306 l 0.08785,-0.110243 0.022393,-0.132636 v -0.110243 q -0.044786,-0.165365 -0.044786,-0.287666 l 0.022393,-0.132636 q -0.027561,-0.270441 0.022393,-0.465089 v -0.06546 q -0.022393,-0.03273 -0.022393,-0.06718 v -0.220486 l -0.022393,-0.06718 0.022393,-0.06546 v -0.06718 -0.1757 q -0.015503,-0.199815 0.022393,-0.354845 -0.044786,-0.148139 -0.1326363,-0.242879 z m -1.4159352,0.995633 -0.1326362,0.110243 q -0.032729,0.310059 0.067179,0.552938 l 0.4857588,-0.04479 0.067179,0.02239 q 0.1756999,-0.342787 0.065457,-0.640788 -0.2928333,0.0155 -0.5081519,-0.04479 z"
       style="font-style:normal;font-variant:normal;font-weight:normal;font-stretch:normal;font-size:3.52778px;font-family:'Know Your Product';-inkscape-font-specification:'Know Your Product, Normal';font-variant-ligatures:normal;font-variant-caps:normal;font-variant-numeric:normal;font-variant-east-asian:normal;fill:#fcdc56;fill-opacity:1;stroke:#b66314;stroke-width:0.529167;stroke-linejoin:round;stroke-miterlimit:4;stroke-dasharray:none;stroke-opacity:1;paint-order:stroke fill markers"
       id="path1649" />
    <path
       d="m 9.362133,-12.753518 v 0.06373 q 0,0.141249 -0.022393,0.239434 0.022393,0.111966 0,0.215319 l 0.022393,0.10852 -0.022393,0.08613 v 0.606337 l 0.022393,0.06373 v 0.54088 q 0,0.16192 -0.022393,0.260105 l 0.022393,0.129192 q 0.048231,0.10852 0.106798,0.172254 h 0.065457 l 0.065457,0.02239 q 0.1722549,-0.08096 0.3669029,-0.04306 0.048231,-0.173978 0.1085201,-0.280776 v -0.151584 l -0.02239,-0.108521 -0.02067,-0.151584 0.02067,-0.04306 q -0.02067,-0.03273 -0.02067,-0.06546 v -0.258383 q -0.02239,-0.07062 -0.02239,-0.130913 l 0.02239,-0.08613 v -0.08613 -0.237712 -0.08613 -0.08785 -0.08613 -0.06373 -0.08785 q 0,-0.106798 -0.02239,-0.172255 0.02239,-0.204983 0,-0.346232 l -0.043063,-0.02067 q -0.2859431,0.03101 -0.4978166,-0.02239 z"
       style="font-style:normal;font-variant:normal;font-weight:normal;font-stretch:normal;font-size:3.52778px;font-family:'Know Your Product';-inkscape-font-specification:'Know Your Product, Normal';font-variant-ligatures:normal;font-variant-caps:normal;font-variant-numeric:normal;font-variant-east-asian:normal;fill:#fcdc56;fill-opacity:1;stroke:#b66314;stroke-width:0.529167;stroke-linejoin:round;stroke-miterlimit:4;stroke-dasharray:none;stroke-opacity:1;paint-order:stroke fill markers"
       id="path1651" />
    <path
       d="m 11.660013,-12.777633 -0.02239,0.04479 q 0.01206,0.08268 0,0.155029 v 0.311782 q 0.218763,0.09474 0.268717,0.268717 l 0.110243,0.04479 q 0.184313,-0.02928 0.334175,0 0.458198,-0.630453 -0.53399,-0.892281 z m -0.334175,-0.04479 q -0.03273,0.02239 -0.06546,0.02239 h -0.179145 q -0.134358,0.05512 -0.244602,0.04479 -0.713135,0.685574 0.02239,1.224732 l 0.06718,0.04479 0.06546,0.06718 0.08957,0.02239 0.06718,0.06718 q 0.03962,0.02239 0.04479,0.04479 l 0.04479,0.02239 q 0.366903,0.137804 0.578777,0.334174 -0.339342,0.327284 -0.111966,0.623563 0.296278,0.07235 0.468533,-0.134359 0.329007,-0.18259 0.334175,-0.53399 0,-0.211874 -0.04479,-0.356568 -0.117134,-0.117133 -0.177423,-0.223931 -0.139526,-0.02756 -0.223931,-0.08785 -0.08268,-0.04995 -0.132637,-0.111966 l -0.08957,-0.02239 -0.08957,-0.02239 -0.132636,-0.08957 q -0.241157,-0.03273 -0.401354,-0.110243 v -0.134358 q 0.289388,-0.329007 0.110243,-0.690743 z m -0.912951,1.894804 q 0.234267,0.745864 0.935344,0.668349 0.284221,-0.311781 -0.155029,-0.645956 l -0.02239,-0.156752 -0.06718,-0.06718 q -0.301447,0.02756 -0.51332,-0.04479 z"
       style="font-style:normal;font-variant:normal;font-weight:normal;font-stretch:normal;font-size:3.52778px;font-family:'Know Your Product';-inkscape-font-specification:'Know Your Product, Normal';font-variant-ligatures:normal;font-variant-caps:normal;font-variant-numeric:normal;font-variant-east-asian:normal;fill:#fcdc56;fill-opacity:1;stroke:#b66314;stroke-width:0.529167;stroke-linejoin:round;stroke-miterlimit:4;stroke-dasharray:none;stroke-opacity:1;paint-order:stroke fill markers"
       id="path1653" />
  </g>
</svg>
