<?xml version="1.0" encoding="UTF-8" standalone="no"?>
<svg
   xmlns:dc="http://purl.org/dc/elements/1.1/"
   xmlns:cc="http://creativecommons.org/ns#"
   xmlns:rdf="http://www.w3.org/1999/02/22-rdf-syntax-ns#"
   xmlns:svg="http://www.w3.org/2000/svg"
   xmlns="http://www.w3.org/2000/svg"
   xmlns:sodipodi="http://sodipodi.sourceforge.net/DTD/sodipodi-0.dtd"
   xmlns:inkscape="http://www.inkscape.org/namespaces/inkscape"
   width="255.99998"
   height="127.99999"
   viewBox="0 0 67.733329 33.866664"
   version="1.1"
   id="svg8"
   inkscape:version="1.0.2 (e86c870879, 2021-01-15)"
   inkscape:export-xdpi="96"
   inkscape:export-ydpi="96"
   sodipodi:docname="limekitty.svg">
  <defs
     id="defs2" />
  <sodipodi:namedview
     id="base"
     pagecolor="#b2b2b2"
     bordercolor="#666666"
     borderopacity="1.0"
     inkscape:pageopacity="0"
     inkscape:pageshadow="2"
     inkscape:zoom="2"
     inkscape:cx="161.90742"
     inkscape:cy="-2437.249"
     inkscape:document-units="px"
     inkscape:current-layer="layer2"
     showgrid="false"
     units="px"
     inkscape:snap-page="true"
     showguides="true"
     inkscape:guide-bbox="true"
     inkscape:object-paths="true"
     inkscape:snap-intersection-paths="true"
     inkscape:snap-smooth-nodes="true"
     inkscape:snap-midpoints="true"
     inkscape:window-width="1332"
     inkscape:window-height="908"
     inkscape:window-x="915"
     inkscape:window-y="193"
     inkscape:window-maximized="0"
     inkscape:snap-global="true"
     inkscape:snap-bbox="true"
     inkscape:bbox-nodes="true"
     inkscape:bbox-paths="true"
     inkscape:snap-nodes="true"
     inkscape:snap-grids="true"
     inkscape:snap-bbox-edge-midpoints="true"
     inkscape:lockguides="false"
     inkscape:pagecheckerboard="true"
     gridtolerance="10000"
     inkscape:snap-object-midpoints="true"
     inkscape:snap-center="true"
     inkscape:snap-bbox-midpoints="true"
     inkscape:snap-others="false"
     inkscape:document-rotation="0">
    <inkscape:grid
       type="xygrid"
       id="grid4510"
       empspacing="32"
       snapvisiblegridlinesonly="true"
       empcolor="#000000"
       empopacity="0.23529412"
       color="#000000"
       opacity="0.11764706"
       spacingy="0.26458333"
       originx="4.5672852e-05"
       originy="-1422.3997" />
  </sodipodi:namedview>
  <metadata
     id="metadata5">
    <rdf:RDF>
      <cc:Work
         rdf:about="">
        <dc:format>image/svg+xml</dc:format>
        <dc:type
           rdf:resource="http://purl.org/dc/dcmitype/StillImage" />
        <dc:title></dc:title>
      </cc:Work>
    </rdf:RDF>
  </metadata>
  <g
     inkscape:groupmode="layer"
     id="layer2"
     inkscape:label="Skins"
     style="display:inline;opacity:1"
     transform="translate(8.6911621e-6,-440.26664)">
    <g
       id="limekitty"
       transform="translate(42.333331,287.86674)"
       sodipodi:insensitive="true">
      <rect
         style="vector-effect:none;fill:none;fill-opacity:0.35468;stroke:none;stroke-width:1.71979;stroke-linecap:round;stroke-linejoin:miter;stroke-miterlimit:4;stroke-dasharray:none;stroke-dashoffset:0;stroke-opacity:1;paint-order:stroke fill markers"
         id="rect1351"
         width="67.73333"
         height="33.866665"
         x="-42.33334"
         y="152.3999" />
      <path
         sodipodi:nodetypes="ccc"
         inkscape:connector-curvature="0"
         id="path1683"
         d="m -4.5773,180.89552 1.93146,1.93146 h -3.43959"
         style="fill:none;fill-opacity:1;stroke:#006d61;stroke-width:0.529167;stroke-linecap:butt;stroke-linejoin:miter;stroke-miterlimit:4;stroke-dasharray:none;stroke-dashoffset:0;stroke-opacity:1;paint-order:stroke fill markers" />
      <path
         inkscape:connector-curvature="0"
         id="path1685"
         style="vector-effect:none;fill:#000000;fill-opacity:0.243137;stroke:#006d61;stroke-width:0.529167;stroke-linecap:square;stroke-linejoin:miter;stroke-miterlimit:4;stroke-dasharray:none;stroke-dashoffset:0;stroke-opacity:1;paint-order:stroke fill markers"
         d="m 12.69999,183.35615 v -2.64584 m -1.32291,1.32292 h 2.64583" />
      <ellipse
         style="vector-effect:none;fill:#ffffff;fill-opacity:1;stroke:#006d61;stroke-width:0.396875;stroke-linecap:square;stroke-linejoin:miter;stroke-miterlimit:4;stroke-dasharray:none;stroke-dashoffset:0;stroke-opacity:1;paint-order:normal"
         id="ellipse1689"
         cx="21.298923"
         cy="182.29781"
         rx="1.0120279"
         ry="1.9822145" />
      <path
         sodipodi:nodetypes="csc"
         inkscape:connector-curvature="0"
         id="path1702"
         d="m 2.91041,182.5624 c 0,-0.81943 0.68113,-1.48371 1.52135,-1.48371 0.84022,0 1.52136,0.66428 1.52136,1.48371"
         style="vector-effect:none;fill:none;fill-opacity:1;stroke:#006d61;stroke-width:0.529167;stroke-linecap:square;stroke-linejoin:miter;stroke-miterlimit:4;stroke-dasharray:none;stroke-dashoffset:0;stroke-opacity:1;paint-order:stroke fill markers" />
      <ellipse
         id="ellipse1708"
         style="vector-effect:none;fill:#006d61;fill-opacity:1;stroke:none;stroke-width:0.423333;stroke-linecap:square;stroke-linejoin:miter;stroke-miterlimit:4;stroke-dasharray:none;stroke-dashoffset:0;stroke-opacity:0.294118;paint-order:normal"
         ry="2.0435169"
         rx="1.0462208"
         cy="182.29781"
         cx="-21.034389" />
      <path
         sodipodi:nodetypes="cccc"
         inkscape:connector-curvature="0"
         id="path1888"
         d="m -23.72092,156.70248 c 0.83954,1.95893 0.83954,4.75741 0.83954,7.27604 l -5.8768,-5.03726 c 0.9939,-1.24238 3.32388,-2.23878 5.03726,-2.23878 z"
         style="vector-effect:none;fill:#cce2bf;fill-opacity:1;stroke:none;stroke-width:0.47625;stroke-linecap:round;stroke-linejoin:round;stroke-miterlimit:4;stroke-dasharray:none;stroke-dashoffset:0;stroke-opacity:1;paint-order:stroke fill markers" />
      <path
         style="vector-effect:none;fill:#cce2bf;fill-opacity:1;stroke:none;stroke-width:0.47625;stroke-linecap:round;stroke-linejoin:round;stroke-miterlimit:4;stroke-dasharray:none;stroke-dashoffset:0;stroke-opacity:1;paint-order:stroke fill markers"
         d="m -35.27964,156.70248 c -0.83955,1.95893 -0.83955,4.75741 -0.83955,7.27604 l 5.87681,-5.03726 c -0.9939,-1.24238 -3.32388,-2.23878 -5.03726,-2.23878 z"
         id="path1890"
         inkscape:connector-curvature="0"
         sodipodi:nodetypes="cccc" />
      <circle
         style="vector-effect:none;fill:#cce2bf;fill-opacity:1;stroke:none;stroke-width:0.47625;stroke-linecap:square;stroke-linejoin:miter;stroke-miterlimit:4;stroke-dasharray:none;stroke-dashoffset:0;stroke-opacity:1;paint-order:normal"
         id="circle1892"
         cx="-29.501095"
         cy="-165.36447"
         r="7.4414039"
         transform="scale(1,-1)" />
      <circle
         style="vector-effect:none;fill:#e5f0de;fill-opacity:1;stroke:none;stroke-width:0.47625;stroke-linecap:round;stroke-linejoin:round;stroke-miterlimit:4;stroke-dasharray:none;stroke-dashoffset:0;stroke-opacity:1;paint-order:stroke fill markers"
         id="circle1894"
         cx="-31.750027"
         cy="166.68739"
         r="0.52916664" />
      <circle
         r="0.52916664"
         cy="166.68739"
         cx="-34.660442"
         id="circle1896"
         style="vector-effect:none;fill:#e5f0de;fill-opacity:1;stroke:none;stroke-width:0.47625;stroke-linecap:round;stroke-linejoin:round;stroke-miterlimit:4;stroke-dasharray:none;stroke-dashoffset:0;stroke-opacity:1;paint-order:stroke fill markers" />
      <circle
         style="vector-effect:none;fill:#e5f0de;fill-opacity:1;stroke:none;stroke-width:0.47625;stroke-linecap:round;stroke-linejoin:round;stroke-miterlimit:4;stroke-dasharray:none;stroke-dashoffset:0;stroke-opacity:1;paint-order:stroke fill markers"
         id="circle1898"
         cx="-33.072933"
         cy="168.80406"
         r="0.52916664" />
      <circle
         r="0.52916664"
         cy="166.68739"
         cx="27.51672"
         id="circle1900"
         style="vector-effect:none;fill:#e5f0de;fill-opacity:1;stroke:none;stroke-width:0.47625;stroke-linecap:round;stroke-linejoin:round;stroke-miterlimit:4;stroke-dasharray:none;stroke-dashoffset:0;stroke-opacity:1;paint-order:stroke fill markers"
         transform="scale(-1,1)" />
      <circle
         style="vector-effect:none;fill:#e5f0de;fill-opacity:1;stroke:none;stroke-width:0.47625;stroke-linecap:round;stroke-linejoin:round;stroke-miterlimit:4;stroke-dasharray:none;stroke-dashoffset:0;stroke-opacity:1;paint-order:stroke fill markers"
         id="circle1902"
         cx="24.606304"
         cy="166.68739"
         r="0.52916664"
         transform="scale(-1,1)" />
      <circle
         r="0.52916664"
         cy="168.80406"
         cx="26.193813"
         id="circle1904"
         style="vector-effect:none;fill:#e5f0de;fill-opacity:1;stroke:none;stroke-width:0.47625;stroke-linecap:round;stroke-linejoin:round;stroke-miterlimit:4;stroke-dasharray:none;stroke-dashoffset:0;stroke-opacity:1;paint-order:stroke fill markers"
         transform="scale(-1,1)" />
      <path
         id="path1906"
         d="m -24.54631,160.16429 a 7.6343387,7.6343387 0 0 1 0.74569,3.26647 7.6343387,7.6343387 0 0 1 -7.63416,7.63416 7.6343387,7.6343387 0 0 1 -3.90003,-1.08107 7.4414038,7.4414038 0 0 0 5.83376,2.82205 7.4414038,7.4414038 0 0 0 7.44141,-7.44141 7.4414038,7.4414038 0 0 0 -0.55553,-2.77812 l -0.22272,0.0351 c -0.0496,-0.12043 -0.10388,-0.23851 -0.15968,-0.35554 l -0.0134,0.002 a 7.200235,7.200235 0 0 0 -1.53531,-2.10323 z"
         style="vector-effect:none;fill:#006b54;fill-opacity:0.22;stroke:none;stroke-width:0.47625;stroke-linecap:square;stroke-linejoin:miter;stroke-miterlimit:4;stroke-dasharray:none;stroke-dashoffset:0;stroke-opacity:1;paint-order:normal"
         inkscape:connector-curvature="0" />
      <path
         style="vector-effect:none;fill:#96c8a6;fill-opacity:1;stroke:none;stroke-width:0.47625;stroke-linecap:round;stroke-linejoin:round;stroke-miterlimit:4;stroke-dasharray:none;stroke-dashoffset:0;stroke-opacity:1;paint-order:stroke fill markers"
         d="m -24.34856,157.67349 c -0.84674,0.12884 -1.84793,0.47832 -2.6262,0.94258 1.24356,0.46478 2.32248,1.26381 3.13056,2.28719 -0.0717,-1.19398 -0.22321,-2.31399 -0.50436,-3.22977 z"
         id="path1908"
         inkscape:connector-curvature="0" />
      <path
         inkscape:connector-curvature="0"
         style="vector-effect:none;fill:#e5f0de;fill-opacity:1;stroke:none;stroke-width:0.47625;stroke-linecap:round;stroke-linejoin:round;stroke-miterlimit:4;stroke-dasharray:none;stroke-dashoffset:0;stroke-opacity:1;paint-order:stroke fill markers"
         d="m -24.90615,158.39954 -0.64905,0.45579 -0.53124,-0.18397 v 0.34778 c 0.49936,0.2689 0.96268,0.5959 1.38235,0.97048 l 0.5116,-0.26303 -0.71366,-0.3917 z"
         id="path1910" />
      <path
         inkscape:connector-curvature="0"
         id="path1912"
         d="m -34.652,157.67349 c 0.84674,0.12884 1.84793,0.47832 2.6262,0.94258 -1.24356,0.46478 -2.32248,1.26381 -3.13056,2.28719 0.0717,-1.19398 0.22321,-2.31399 0.50436,-3.22977 z"
         style="vector-effect:none;fill:#96c8a6;fill-opacity:1;stroke:none;stroke-width:0.47625;stroke-linecap:round;stroke-linejoin:round;stroke-miterlimit:4;stroke-dasharray:none;stroke-dashoffset:0;stroke-opacity:1;paint-order:stroke fill markers" />
      <path
         id="path1914"
         d="m -34.09441,158.39954 0.64905,0.45579 0.53124,-0.18397 v 0.34778 c -0.49936,0.2689 -0.96268,0.5959 -1.38235,0.97048 l -0.51159,-0.26303 0.71365,-0.3917 z"
         style="vector-effect:none;fill:#e5f0de;fill-opacity:1;stroke:none;stroke-width:0.47625;stroke-linecap:round;stroke-linejoin:round;stroke-miterlimit:4;stroke-dasharray:none;stroke-dashoffset:0;stroke-opacity:1;paint-order:stroke fill markers"
         inkscape:connector-curvature="0" />
      <path
         inkscape:connector-curvature="0"
         style="vector-effect:none;fill:none;fill-opacity:1;stroke:#000000;stroke-width:0.582083;stroke-linecap:round;stroke-linejoin:miter;stroke-miterlimit:4;stroke-dasharray:none;stroke-dashoffset:0;stroke-opacity:1;paint-order:stroke fill markers"
         d="m -35.27951,156.70249 c -0.61673,1.43902 -0.77925,3.33139 -0.8227,5.23275 a 7.4414038,7.4414038 0 0 0 -0.84026,3.42925 7.4414038,7.4414038 0 0 0 7.44141,7.44141 7.4414038,7.4414038 0 0 0 7.44141,-7.44141 7.4414038,7.4414038 0 0 0 -0.8387,-3.41736 c -0.043,-1.90537 -0.20469,-3.80262 -0.82269,-5.24464 -1.31049,0 -2.97953,0.58384 -4.13774,1.41387 a 7.4414038,7.4414038 0 0 0 -1.64228,-0.19327 7.4414038,7.4414038 0 0 0 -1.64434,0.19068 c -1.15806,-0.82864 -2.825,-1.41128 -4.13411,-1.41128 z"
         id="path1916" />
      <path
         id="path1918"
         d="m -9.8795,156.70249 c -0.61673,1.43902 -0.77925,3.33139 -0.8227,5.23275 a 7.4414038,7.4414038 0 0 0 -0.84026,3.42925 7.4414038,7.4414038 0 0 0 7.44141,7.44141 7.4414038,7.4414038 0 0 0 7.44141,-7.44141 7.4414038,7.4414038 0 0 0 -0.8387,-3.41736 c -0.043,-1.90537 -0.20469,-3.80262 -0.82269,-5.24464 -1.31049,0 -2.97953,0.58384 -4.13774,1.41387 a 7.4414038,7.4414038 0 0 0 -1.64228,-0.19327 7.4414038,7.4414038 0 0 0 -1.64434,0.19068 c -1.15806,-0.82864 -2.825,-1.41128 -4.13411,-1.41128 z"
         style="vector-effect:none;fill:#000000;fill-opacity:1;stroke:#000000;stroke-width:1.71979;stroke-linecap:round;stroke-linejoin:miter;stroke-miterlimit:4;stroke-dasharray:none;stroke-dashoffset:0;stroke-opacity:1;paint-order:stroke fill markers"
         inkscape:connector-curvature="0" />
      <path
         id="path2309"
         style="vector-effect:none;fill:#006d61;fill-opacity:1;stroke:none;stroke-width:0.423333;stroke-linecap:square;stroke-linejoin:miter;stroke-miterlimit:4;stroke-dasharray:none;stroke-dashoffset:0;stroke-opacity:0.294118;paint-order:normal"
         sodipodi:type="arc"
         sodipodi:cx="-12.567796"
         sodipodi:cy="182.29779"
         sodipodi:rx="1.0462208"
         sodipodi:ry="2.0435169"
         sodipodi:start="0"
         sodipodi:end="4.3030532"
         sodipodi:arc-type="chord"
         d="m -11.521575,182.29779 a 1.0462208,2.0435169 0 0 1 -0.903911,2.02452 1.0462208,2.0435169 0 0 1 -1.149816,-1.47376 1.0462208,2.0435169 0 0 1 0.59111,-2.42545 z"
         sodipodi:open="true" />
      <path
         style="display:inline;opacity:1;vector-effect:none;fill:none;fill-opacity:1;stroke:#000000;stroke-width:0;stroke-linecap:round;stroke-linejoin:miter;stroke-miterlimit:4;stroke-dasharray:none;stroke-dashoffset:0;stroke-opacity:1;paint-order:normal"
         d="m 10.371727,156.956 c 0,-1.72401 1.5357,-2.09564 2.87532,-2.09564 1.80381,0 1.77809,0.76935 1.77809,2.26957 0,1.50023 -0.44225,2.07732 -1.7263,2.07732 -1.86241,0 -2.92711,-0.84162 -2.92711,-2.25125 z"
         id="path2629"
         inkscape:connector-curvature="0"
         sodipodi:nodetypes="sszss" />
      <path
         style="display:inline;opacity:1;vector-effect:none;fill:#f4f7ed;fill-opacity:1;stroke:none;stroke-width:0.47625;stroke-linecap:round;stroke-linejoin:miter;stroke-miterlimit:4;stroke-dasharray:none;stroke-dashoffset:0;stroke-opacity:1;paint-order:normal"
         d="m 10.292317,156.95329 c 0,-1.78416 1.58894,-2.16876 2.97498,-2.16876 1.81398,0 1.83972,0.69123 1.83972,2.34876 0,1.65753 -0.45757,2.14979 -1.78613,2.14979 -1.92696,0 -3.02857,-0.87099 -3.02857,-2.32979 z"
         id="path2631"
         inkscape:connector-curvature="0"
         sodipodi:nodetypes="sszss" />
      <path
         id="path2633"
         style="font-variation-settings:normal;display:inline;opacity:1;vector-effect:none;fill:#006650;fill-opacity:0.22;stroke:none;stroke-width:0.47625;stroke-linecap:square;stroke-linejoin:miter;stroke-miterlimit:4;stroke-dasharray:none;stroke-dashoffset:0;stroke-opacity:1;paint-order:normal;stop-color:#000000;stop-opacity:1"
         d="m 14.021397,154.84375 c 0.15609,0.83755 0.29571,2.18346 -0.25167,2.89647 -0.49433,0.64392 -1.55677,1.02614 -2.35127,1.1374 0.48981,0.26279 1.12806,0.40566 1.9022,0.40566 1.32857,0 1.78646,-0.49221 1.78646,-2.14974 0,-1.38481 -0.022,-2.09353 -1.08572,-2.28979 z" />
      <path
         style="display:inline;opacity:1;vector-effect:none;fill:none;fill-opacity:1;stroke:#000000;stroke-width:0.47625;stroke-linecap:round;stroke-linejoin:miter;stroke-miterlimit:4;stroke-dasharray:none;stroke-dashoffset:0;stroke-opacity:1;paint-order:normal"
         d="m 10.292317,156.95329 c 0,-1.78416 1.58894,-2.16876 2.97498,-2.16876 1.81398,0 1.83972,0.69123 1.83972,2.34876 0,1.65753 -0.45757,2.14979 -1.78613,2.14979 -1.92696,0 -3.02857,-0.87099 -3.02857,-2.32979 z"
         id="path2635"
         inkscape:connector-curvature="0"
         sodipodi:nodetypes="sszss" />
      <path
         sodipodi:nodetypes="ssssss"
         inkscape:connector-curvature="0"
         id="path2637"
         d="m 16.881906,172.31392 c 1.33602,0 3.475248,0.63096 3.521598,1.8306 0.0251,0.64859 -0.72375,1.13714 -1.72287,1.13714 h -2.707328 c -0.788159,0 -1.787059,-0.0606 -1.715289,-1.29751 0.0589,-1.016 1.02198,-1.67023 2.623889,-1.67023 z"
         style="font-variation-settings:normal;display:inline;opacity:1;vector-effect:none;fill:#000000;fill-opacity:1;stroke:#000000;stroke-width:1.32292;stroke-linecap:round;stroke-linejoin:miter;stroke-miterlimit:4;stroke-dasharray:none;stroke-dashoffset:0;stroke-opacity:1;paint-order:normal;stop-color:#000000;stop-opacity:1" />
      <path
         style="display:inline;opacity:1;vector-effect:none;fill:#000000;fill-opacity:1;stroke:#000000;stroke-width:1.05833;stroke-linecap:round;stroke-linejoin:miter;stroke-miterlimit:4;stroke-dasharray:none;stroke-dashoffset:0;stroke-opacity:1;paint-order:normal"
         d="m 18.758984,156.95329 c 0,-1.78416 1.58893,-2.16876 2.97498,-2.16876 1.81398,0 1.83972,0.69123 1.83972,2.34876 0,1.65753 -0.45758,2.14979 -1.78614,2.14979 -1.92695,0 -3.02856,-0.87099 -3.02856,-2.32979 z"
         id="path2639"
         inkscape:connector-curvature="0"
         sodipodi:nodetypes="sszss" />
      <path
         sodipodi:nodetypes="ssssss"
         inkscape:connector-curvature="0"
         id="path2641"
         d="m 16.881906,163.84725 c 1.33602,0 3.475248,0.63096 3.521598,1.8306 0.0251,0.64859 -0.72375,1.13715 -1.72287,1.13715 h -2.707328 c -0.788159,0 -1.787059,-0.0606 -1.715289,-1.29752 0.0589,-1.01599 1.02198,-1.67023 2.623889,-1.67023 z"
         style="font-variation-settings:normal;display:inline;opacity:1;vector-effect:none;fill:#f4f7ed;fill-opacity:1;stroke:none;stroke-width:0.47625;stroke-linecap:round;stroke-linejoin:miter;stroke-miterlimit:4;stroke-dasharray:none;stroke-dashoffset:0;stroke-opacity:1;paint-order:normal;stop-color:#000000;stop-opacity:1" />
      <path
         id="path2644"
         style="font-variation-settings:normal;display:inline;opacity:1;vector-effect:none;fill:#006650;fill-opacity:0.22;stroke:none;stroke-width:0.47625;stroke-linecap:square;stroke-linejoin:miter;stroke-miterlimit:4;stroke-dasharray:none;stroke-dashoffset:0;stroke-opacity:1;paint-order:normal;stop-color:#000000;stop-opacity:1"
         d="m 17.282176,166.15831 c -0.12929,-0.002 -0.2588,-4.8e-4 -0.38809,0.004 -0.75938,0.0243 -1.515709,0.15321 -2.251539,0.37362 0.34891,0.25721 0.874299,0.27957 1.330659,0.27957 h 2.707328 c 0.42921,0 0.80694,-0.0943 1.10226,-0.24857 -0.8159,-0.25294 -1.656638,-0.3964 -2.500618,-0.40824 z" />
      <path
         sodipodi:nodetypes="ssssss"
         inkscape:connector-curvature="0"
         id="path2646"
         d="m 16.881906,163.84725 c 1.33602,0 3.475248,0.63096 3.521598,1.8306 0.0251,0.64859 -0.72375,1.13715 -1.72287,1.13715 h -2.707328 c -0.788159,0 -1.787059,-0.0606 -1.715289,-1.29752 0.0589,-1.01599 1.02198,-1.67023 2.623889,-1.67023 z"
         style="font-variation-settings:normal;display:inline;opacity:1;vector-effect:none;fill:none;fill-opacity:1;stroke:#000000;stroke-width:0.47625;stroke-linecap:round;stroke-linejoin:miter;stroke-miterlimit:4;stroke-dasharray:none;stroke-dashoffset:0;stroke-opacity:1;paint-order:normal;stop-color:#000000;stop-opacity:1" />
    </g>
  </g>
</svg>
