<?xml version="1.0" encoding="UTF-8" standalone="no"?>
<svg
   width="256"
   height="128"
   viewBox="0 0 67.733333 33.866666"
   version="1.1"
   id="svg8"
   inkscape:version="1.3 (0e150ed, 2023-07-21)"
   inkscape:export-xdpi="96"
   inkscape:export-ydpi="96"
   sodipodi:docname="PaladiN.svg"
   xml:space="preserve"
   xmlns:inkscape="http://www.inkscape.org/namespaces/inkscape"
   xmlns:sodipodi="http://sodipodi.sourceforge.net/DTD/sodipodi-0.dtd"
   xmlns="http://www.w3.org/2000/svg"
   xmlns:svg="http://www.w3.org/2000/svg"
   xmlns:rdf="http://www.w3.org/1999/02/22-rdf-syntax-ns#"
   xmlns:cc="http://creativecommons.org/ns#"
   xmlns:dc="http://purl.org/dc/elements/1.1/"><defs
     id="defs2"><rect
       x="0.40442338"
       y="116.67615"
       width="63.292259"
       height="15.165877"
       id="rect16" /><inkscape:path-effect
       effect="spiro"
       id="path-effect14"
       is_visible="true"
       lpeversion="1" /><inkscape:path-effect
       effect="spiro"
       id="path-effect7"
       is_visible="true"
       lpeversion="1" /><rect
       x="1.5"
       y="97.5"
       width="46.918524"
       height="19.941495"
       id="rect1" /></defs><sodipodi:namedview
     id="base"
     pagecolor="#b2b2b2"
     bordercolor="#666666"
     borderopacity="1.0"
     inkscape:pageopacity="0"
     inkscape:pageshadow="2"
     inkscape:zoom="15.999999"
     inkscape:cx="114.40626"
     inkscape:cy="80.218754"
     inkscape:document-units="px"
     inkscape:current-layer="layer2"
     showgrid="false"
     units="px"
     inkscape:snap-page="true"
     showguides="true"
     inkscape:guide-bbox="true"
     inkscape:object-paths="true"
     inkscape:snap-intersection-paths="true"
     inkscape:snap-smooth-nodes="true"
     inkscape:snap-midpoints="true"
     inkscape:window-width="1336"
     inkscape:window-height="910"
     inkscape:window-x="569"
     inkscape:window-y="30"
     inkscape:window-maximized="0"
     inkscape:snap-global="true"
     inkscape:snap-bbox="true"
     inkscape:bbox-nodes="true"
     inkscape:bbox-paths="true"
     inkscape:snap-nodes="true"
     inkscape:snap-grids="true"
     inkscape:snap-bbox-edge-midpoints="true"
     inkscape:lockguides="false"
     inkscape:pagecheckerboard="true"
     gridtolerance="10000"
     inkscape:snap-object-midpoints="true"
     inkscape:snap-center="true"
     inkscape:snap-bbox-midpoints="true"
     inkscape:snap-others="false"
     inkscape:document-rotation="0"
     inkscape:showpageshadow="0"
     inkscape:deskcolor="#b2b2b2"><inkscape:grid
       type="xygrid"
       id="grid4510"
       empspacing="32"
       snapvisiblegridlinesonly="true"
       empcolor="#000000"
       empopacity="0.23529412"
       color="#000000"
       opacity="0.11764706"
       spacingy="0.26458333"
       originx="0"
       originy="0"
       spacingx="1"
       units="px"
       visible="false" /></sodipodi:namedview><metadata
     id="metadata5"><rdf:RDF><cc:Work
         rdf:about=""><dc:format>image/svg+xml</dc:format><dc:type
           rdf:resource="http://purl.org/dc/dcmitype/StillImage" /><dc:title /></cc:Work></rdf:RDF></metadata><g
     inkscape:groupmode="layer"
     id="layer2"
     inkscape:label="Skins"
     style="display:inline;opacity:1"><rect
       style="display:inline;vector-effect:none;fill:none;fill-opacity:0.35468;stroke:none;stroke-width:1.71979;stroke-linecap:round;stroke-linejoin:miter;stroke-miterlimit:4;stroke-dasharray:none;stroke-dashoffset:0;stroke-opacity:1;paint-order:stroke fill markers"
       id="rect1369"
       width="67.73333"
       height="33.866665"
       x="3.428711e-05"
       y="-0.00010475977"
       inkscape:label="Area"
       sodipodi:insensitive="true" /><path
       id="path10"
       style="font-variation-settings:normal;display:inline;fill:#000000;fill-opacity:1;stroke:#000000;stroke-width:1.03664;stroke-linecap:round;stroke-linejoin:miter;stroke-miterlimit:4;stroke-dasharray:none;stroke-dashoffset:0;stroke-opacity:1;paint-order:normal;stop-color:#000000"
       inkscape:label="Foot Outline"
       d="m 55.915796,22.301749 c -0.0049,0.182402 -0.09193,0.581636 0.139015,0.581005 l 6.868397,-8.3e-5 c 0.235293,0.0016 0.191733,-0.234732 0.182835,-0.455454 -0.02146,-0.809971 -0.411259,-1.679409 -1.125017,-2.328457 -0.713758,-0.649048 -1.427356,-0.971049 -2.438664,-0.984683 -0.894556,-0.01206 -1.699064,0.318142 -2.349236,0.880646 -0.650172,0.562504 -1.259574,1.646017 -1.27733,2.307026 z"
       sodipodi:nodetypes="cccczszc"
       sodipodi:insensitive="true" /><g
       id="g3"
       inkscape:label="Foot"
       style="display:inline;opacity:1;fill:#0900ba;fill-opacity:1"
       sodipodi:insensitive="true"><path
         sodipodi:nodetypes="ssccssss"
         inkscape:connector-curvature="0"
         id="path2428"
         d="m 61.825034,11.746306 c 0.646693,0.556133 1.070857,1.355476 1.095103,2.282422 0.0047,0.179682 -0.104858,0.301411 -0.255797,0.336637 l -6.373412,-0.0083 c -0.180394,-0.102721 -0.275625,-0.122762 -0.268349,-0.305332 0.02425,-0.608411 0.52699,-1.728444 1.143925,-2.287938 0.775742,-0.703515 1.525234,-0.983742 2.338178,-0.986822 0.897399,-0.0034 1.55615,0.312147 2.320352,0.969333 z"
         style="font-variation-settings:normal;display:inline;fill:#0900ba;fill-opacity:1;stroke:none;stroke-width:0.370417;stroke-linecap:round;stroke-linejoin:miter;stroke-miterlimit:4;stroke-dasharray:none;stroke-dashoffset:0;stroke-opacity:1;paint-order:normal;stop-color:#000000"
         inkscape:label="Blue" /><path
         id="path5"
         style="display:inline;opacity:1;fill:#050070;stroke-width:0.427952;stroke-linecap:round;stroke-linejoin:round"
         inkscape:label="Shadow"
         transform="scale(1,-1)"
         d="m 63.01238,-14.171966 c 0,1.335695 -1.071841,2.364747 -2.375437,2.364747 -1.303602,0 -2.481255,-1.029058 -2.481255,-2.364747"
         sodipodi:nodetypes="csc" /><path
         sodipodi:nodetypes="sccsssss"
         inkscape:connector-curvature="0"
         id="path6"
         d="m 63.024964,14.030254 c 0.0088,0.221064 -0.02326,0.258313 -0.257668,0.256745 l -6.500018,-0.0082 c -0.294152,5.88e-4 -0.267927,-0.04275 -0.270314,-0.225478 -0.0092,-0.708857 0.503838,-1.728762 1.125289,-2.288358 0.781419,-0.703646 1.475479,-0.983561 2.408696,-0.987004 0.808697,-0.003 1.819111,0.429679 2.304821,0.945464 0.527265,0.559913 1.151891,1.380137 1.189194,2.306831 z"
         style="font-variation-settings:normal;display:inline;fill:none;fill-opacity:1;stroke:#000000;stroke-width:0.531027;stroke-linecap:round;stroke-linejoin:miter;stroke-miterlimit:4;stroke-dasharray:none;stroke-dashoffset:0;stroke-opacity:1;paint-order:normal;stop-color:#000000"
         inkscape:label="Outline" /></g><path
       id="path15"
       style="display:inline;fill:#000000;fill-opacity:1;stroke:#000000;stroke-width:0.211667;stroke-linecap:butt;stroke-dasharray:none;stroke-opacity:1"
       d="m 32.40405,6.7944896 c -1.99568,1.0986774 -6.81075,3.5032874 -6.072982,3.4430334 0,0 3.867316,0.07896 4.040188,0.08758 0.07456,0.08887 -3.112105,5.15073 -3.151265,5.306452 -0.04228,0.168128 2.470025,-0.266309 2.919754,-0.258731 -0.0021,0.402415 -0.117372,6.62279 -0.109332,6.693955 -0.03695,0.379576 2.573212,-3.038835 2.667357,-3.173493 0.09216,0.09452 0.713655,0.83327 2.121037,1.500982 0.92642,0.439527 2.183821,0.77108 3.36214,0.730678 2.206699,-0.07566 3.451996,-0.615501 5.225249,-2.017595 0.83499,-0.660218 2.099478,-2.378114 2.39666,-2.789435 0.297182,-0.411321 3.506383,-4.657085 3.200056,-4.70527 -0.178359,-0.02806 -1.974366,1.335675 -2.430954,1.578953 0.0097,-0.986562 -0.0063,-9.1979529 -0.007,-9.2284397 -0.01214,-0.5852066 -2.642284,3.0346446 -2.713117,3.0464499 -0.17977,-0.019124 -4.483396,-6.91244258 -4.554107,-6.91171037 -0.01695,1.7556e-4 -0.166801,0.04054027 -0.168301,0.06932087 -0.0046,0.49153515 -0.03249,4.7511744 -0.03249,4.7511744 0,0 -0.255682,-0.00918 -0.496416,-0.010701 -3.29223,-0.02085 -4.857291,1.1495005 -6.19655,1.8867995 z"
       sodipodi:nodetypes="sscscccssszscscsccsss"
       inkscape:label="Body Outline"
       sodipodi:insensitive="true" /><path
       id="circle2621"
       style="display:inline;opacity:1;fill:#030303;fill-opacity:1;stroke:#000000;stroke-width:0.844021;stroke-linecap:square;stroke-dasharray:none;stroke-opacity:1"
       d="M 13.64797,0.51937708 C 13.63035,0.54509788 13.62251,4.901354 13.62251,4.901354 c 0,0 -0.476807,0.019892 -0.745574,-0.00427 -2.08111,-0.1870888 -4.4373305,1.102031 -5.861509,1.8897039 -3.8519193,2.1303878 -7.36315249,3.6979301 -6.32369054,3.6791451 0,0 4.19229244,-0.03437 4.36436204,-0.02585 0.00751,0.0089 -0.021834,0.07223 -0.080596,0.178954 -0.3428238,0.622675 -1.6870316,2.72277 -2.5574637,4.112797 -0.4553568,0.727177 -0.8236661,1.251807 -0.7658919,1.285368 0.1580844,0.09183 2.5415305,-0.559469 2.9891736,-0.551964 -0.00211,0.398506 -0.024732,6.664946 -0.016712,6.73542 0.012605,0.367701 2.545256,-3.222295 2.6265619,-3.297767 0.068157,0.115713 1.5156651,1.092581 2.5827491,1.481407 1.0670845,0.388826 1.9636105,0.578215 3.0430135,0.578215 2.158807,0 4.179386,-0.866018 5.594117,-2.319652 0.707366,-0.726817 1.499649,-1.690202 1.96005,-2.294036 0.460401,-0.603835 3.235973,-4.753479 3.104381,-4.911267 -0.114756,-0.137601 -1.862443,1.694821 -2.250347,1.670826 0.0097,-0.976978 0.01075,-9.3283755 0.01012,-9.3585662 -0.006,-0.2897607 -2.625104,3.4210979 -2.662272,3.4733422 -0.03934,0.055299 -0.05287,0.068143 -0.08834,0.040716 C 18.481122,7.21475 14.450154,0.99760756 14.378252,0.83634791 14.174817,0.38009266 13.708211,0.43144738 13.64797,0.51937708 Z"
       sodipodi:nodetypes="ccssscsssccczsszscssssc"
       inkscape:label="Body"
       sodipodi:insensitive="true" /><g
       id="g16"
       inkscape:label="Whis Signature"
       transform="translate(0.10700368,-1.4980516)"
       sodipodi:insensitive="true"><g
         aria-label="Made by"
         transform="matrix(1.0391195,0,0,1.0391195,6.5320448,46.572138)"
         id="text2072"
         style="font-style:italic;font-variant:normal;font-weight:bold;font-stretch:normal;font-size:2.03698px;line-height:1.25;font-family:Corbel;-inkscape-font-specification:'Corbel, Bold Italic';font-variant-ligatures:normal;font-variant-caps:normal;font-variant-numeric:normal;font-variant-east-asian:normal;text-align:start;letter-spacing:0px;word-spacing:0px;writing-mode:lr-tb;white-space:pre;shape-inside:url(#rect2074);fill:#000000;fill-opacity:1;stroke:none"><path
           d="m -0.96123094,-17.738068 q 0.0706179,-0.152176 0.30435344,-0.567927 l 0.22975701,-0.403815 h 0.32921893 l -0.27550949,1.3308 h -0.24268706 l 0.14223053,-0.634567 q 0.0358063,-0.159139 0.0905103,-0.377955 h -0.007957 q -0.0984673,0.210859 -0.38193373,0.710158 l -0.17505296,0.302364 H -1.1104238 l -0.1064243,-0.71911 q -0.021882,-0.14422 -0.03879,-0.293412 h -0.00796 q -0.01293,0.147203 -0.05172,0.349111 l -0.1342736,0.663411 H -1.692276 l 0.2755095,-1.3308 h 0.313305 l 0.059677,0.371987 q 0.036801,0.232741 0.0765856,0.599755 z"
           style="font-style:italic;font-variant:normal;font-weight:bold;font-stretch:normal;font-size:2.03698px;font-family:Corbel;-inkscape-font-specification:'Corbel, Bold Italic';font-variant-ligatures:normal;font-variant-caps:normal;font-variant-numeric:normal;font-variant-east-asian:normal"
           id="path1634" /><path
           d="m 0.75150314,-17.610756 q 0,0.02685 0.0139247,0.03879 0.0149193,0.01094 0.0407794,0.01094 0.028844,0 0.070618,-0.006 l -0.0407794,0.188977 q -0.0616664,0.01293 -0.11835967,0.01293 -0.0815588,0 -0.12432739,-0.0378 -0.041774,-0.03879 -0.0527148,-0.109408 h -0.003978 q -0.0686287,0.08454 -0.14819824,0.121343 -0.0785749,0.0368 -0.15416596,0.0368 -0.0646502,0 -0.11637044,-0.02387 -0.05172019,-0.02387 -0.08752648,-0.06763 -0.03580629,-0.04376 -0.05470405,-0.105429 -0.01889776,-0.06167 -0.01889776,-0.137258 0,-0.08056 0.01293005,-0.162123 0.01392466,-0.08156 0.04077938,-0.156155 0.02685472,-0.07559 0.06564486,-0.141236 0.03978476,-0.06564 0.09150496,-0.114381 0.0517202,-0.04874 0.11537581,-0.07659 0.0636556,-0.02785 0.13825206,-0.02785 0.0686287,0 0.1302951,0.02884 0.0616664,0.02884 0.10741886,0.09051 h 0.003978 l 0.0348117,-0.09548 h 0.20091305 l -0.13924667,0.671368 q -0.003978,0.0189 -0.005968,0.03581 -0.001989,0.01591 -0.001989,0.02487 z M 0.6142457,-18.099114 q -0.008952,-0.01293 -0.0238709,-0.02586 -0.0139247,-0.01392 -0.033817,-0.02387 -0.0188978,-0.01094 -0.0427686,-0.0179 -0.0228762,-0.007 -0.0497309,-0.007 -0.0467471,0 -0.0855372,0.02288 -0.0377955,0.02188 -0.0686287,0.05968 -0.0298386,0.0368 -0.0517202,0.08554 -0.0218816,0.04774 -0.0368009,0.09946 -0.0139247,0.05172 -0.020887,0.102446 -0.006962,0.04973 -0.006962,0.0925 0,0.08454 0.0258601,0.124327 0.0268547,0.03978 0.0775803,0.03978 0.0507256,0 0.10145115,-0.03382 0.0507256,-0.03481 0.0905103,-0.09449 0.0268547,-0.03978 0.0457525,-0.09051 0.0198924,-0.05073 0.0338171,-0.11637 z"
           style="font-style:italic;font-variant:normal;font-weight:bold;font-stretch:normal;font-size:2.03698px;font-family:Corbel;-inkscape-font-specification:'Corbel, Bold Italic';font-variant-ligatures:normal;font-variant-caps:normal;font-variant-numeric:normal;font-variant-east-asian:normal"
           id="path1636" /><path
           d="m 1.8475734,-17.610756 q 0,0.02288 0.011936,0.0368 0.01293,0.01293 0.042769,0.01293 0.027849,0 0.070618,-0.006 l -0.040779,0.188977 q -0.026855,0.006 -0.059677,0.009 -0.032822,0.004 -0.058682,0.004 -0.081559,0 -0.1243274,-0.0378 -0.041774,-0.03879 -0.052715,-0.109408 h -0.00398 q -0.068629,0.08454 -0.1481982,0.121343 -0.078575,0.0368 -0.154166,0.0368 -0.06465,0 -0.1163704,-0.02387 -0.05172,-0.02387 -0.087526,-0.06763 -0.035806,-0.04376 -0.054704,-0.105429 -0.018898,-0.06167 -0.018898,-0.137258 0,-0.08056 0.013925,-0.162123 0.013925,-0.08156 0.039785,-0.156155 0.026855,-0.07559 0.065645,-0.141236 0.03879,-0.06564 0.088521,-0.114381 0.050725,-0.04874 0.1113973,-0.07659 0.061666,-0.02785 0.133279,-0.02785 0.071613,0 0.1302951,0.02984 0.058682,0.02884 0.1014511,0.08952 h 0.00398 l 0.1183597,-0.571906 H 2.094239 l -0.2387086,1.147791 q -0.00398,0.0189 -0.00597,0.03581 -0.00199,0.01591 -0.00199,0.02487 z m -0.138252,-0.48438 q -0.00895,-0.01293 -0.023871,-0.02686 -0.013925,-0.01392 -0.032822,-0.02486 -0.018898,-0.01194 -0.042769,-0.0189 -0.022876,-0.008 -0.049731,-0.008 -0.046747,0 -0.085537,0.02288 -0.037796,0.02188 -0.067634,0.05968 -0.029839,0.0368 -0.052715,0.08554 -0.021882,0.04774 -0.036801,0.09946 -0.013925,0.05172 -0.020887,0.102446 -0.00696,0.04973 -0.00696,0.0925 0,0.08454 0.02586,0.124327 0.026855,0.03978 0.07758,0.03978 0.054704,0 0.1084135,-0.03879 0.053709,-0.03879 0.095483,-0.106424 0.043763,-0.0736 0.067634,-0.187983 z"
           style="font-style:italic;font-variant:normal;font-weight:bold;font-stretch:normal;font-size:2.03698px;font-family:Corbel;-inkscape-font-specification:'Corbel, Bold Italic';font-variant-ligatures:normal;font-variant-caps:normal;font-variant-numeric:normal;font-variant-east-asian:normal"
           id="path1638" /><path
           d="m 2.7934563,-18.103093 q 0,-0.03282 -0.02586,-0.05669 -0.02586,-0.02387 -0.078575,-0.02387 -0.039785,0 -0.081559,0.01591 -0.040779,0.01591 -0.07758,0.04774 -0.035806,0.03083 -0.06465,0.07658 -0.028844,0.04476 -0.045752,0.103441 0.1054297,0 0.1770422,-0.01393 0.071613,-0.01393 0.1153758,-0.0368 0.043763,-0.02288 0.062661,-0.05172 0.018898,-0.02984 0.018898,-0.06067 z m 0.2367194,0 q 0,0.08056 -0.039785,0.145215 -0.03879,0.06366 -0.1153758,0.109408 -0.076586,0.04476 -0.1889777,0.06863 -0.1123919,0.02387 -0.2586009,0.02387 -0.016909,0 -0.042769,-9.94e-4 v 0.006 q 0,0.05271 0.014919,0.0925 0.015914,0.03879 0.044758,0.06366 0.029839,0.02486 0.071613,0.0368 0.041774,0.01094 0.093494,0.01094 0.07758,0 0.1631175,-0.0189 0.085537,-0.0189 0.1491929,-0.05072 l -0.042769,0.206881 q -0.061666,0.02486 -0.141236,0.03978 -0.078575,0.01591 -0.1680906,0.01591 -0.1064242,0 -0.1849991,-0.02884 -0.078575,-0.02884 -0.1302951,-0.08056 -0.050726,-0.05271 -0.075591,-0.124327 -0.024866,-0.07161 -0.024866,-0.158145 0,-0.07659 0.015914,-0.152176 0.015914,-0.07559 0.046747,-0.14422 0.030833,-0.06962 0.076586,-0.128306 0.045752,-0.05968 0.1054296,-0.102446 0.060672,-0.04376 0.1352682,-0.06863 0.074597,-0.02487 0.1621229,-0.02487 0.076586,0 0.1382521,0.0189 0.061666,0.0189 0.104435,0.05371 0.043763,0.03382 0.067634,0.08255 0.023871,0.04874 0.023871,0.108413 z"
           style="font-style:italic;font-variant:normal;font-weight:bold;font-stretch:normal;font-size:2.03698px;font-family:Corbel;-inkscape-font-specification:'Corbel, Bold Italic';font-variant-ligatures:normal;font-variant-caps:normal;font-variant-numeric:normal;font-variant-east-asian:normal"
           id="path1640" /><path
           d="m 3.8189083,-17.755971 q -0.00597,0.02984 -0.00796,0.04675 -9.946e-4,0.01591 -9.946e-4,0.02884 0,0.06067 0.028844,0.09747 0.029838,0.03581 0.087526,0.03581 0.048736,0 0.089516,-0.02089 0.040779,-0.02089 0.073602,-0.0557 0.033817,-0.03581 0.059677,-0.08156 0.02586,-0.04675 0.042769,-0.09747 0.017903,-0.05172 0.026855,-0.10344 0.00895,-0.05271 0.00895,-0.09946 0,-0.03382 -0.00796,-0.06366 -0.00696,-0.03083 -0.022876,-0.05371 -0.014919,-0.02387 -0.040779,-0.0368 -0.024865,-0.01393 -0.060672,-0.01393 -0.032822,0 -0.070618,0.01393 -0.036801,0.01393 -0.070618,0.04476 -0.032822,0.03083 -0.060672,0.07857 -0.026855,0.04675 -0.040779,0.114381 z m 0.1322843,-0.645508 q -0.017903,0.07758 -0.036801,0.145215 h 0.00398 q 0.017903,-0.02089 0.042769,-0.03978 0.024865,-0.01989 0.055699,-0.03581 0.030833,-0.01591 0.067634,-0.02487 0.036801,-0.0099 0.078575,-0.0099 0.061666,0 0.1163704,0.02188 0.055699,0.02188 0.096478,0.06564 0.040779,0.04277 0.06465,0.107418 0.023871,0.06465 0.023871,0.150188 0,0.0736 -0.014919,0.152177 -0.013925,0.07758 -0.043763,0.152176 -0.028844,0.0746 -0.074596,0.140242 -0.045752,0.06564 -0.1084135,0.115375 -0.061666,0.04973 -0.1422305,0.07858 -0.079569,0.02884 -0.1780368,0.02884 -0.07758,0 -0.1382521,-0.02387 -0.060672,-0.02387 -0.1034404,-0.06465 -0.041774,-0.04078 -0.06465,-0.09648 -0.021882,-0.05669 -0.021882,-0.120349 0,-0.02586 0.00298,-0.05271 0.00298,-0.02785 0.011936,-0.07261 l 0.2158323,-1.034404 h 0.2347301 z"
           style="font-style:italic;font-variant:normal;font-weight:bold;font-stretch:normal;font-size:2.03698px;font-family:Corbel;-inkscape-font-specification:'Corbel, Bold Italic';font-variant-ligatures:normal;font-variant-caps:normal;font-variant-numeric:normal;font-variant-east-asian:normal"
           id="path1642" /><path
           d="m 4.600679,-18.342796 h 0.2397032 l 0.088521,0.422713 q 0.028844,0.139247 0.047742,0.255617 h 0.00597 q 0.055699,-0.115376 0.1233328,-0.241692 l 0.237714,-0.436638 h 0.2655633 l -0.5659383,0.996608 q -0.056693,0.09946 -0.1143812,0.18301 -0.056693,0.08355 -0.1243274,0.143225 -0.067634,0.06067 -0.1491929,0.09449 -0.081559,0.03382 -0.1849991,0.03382 -0.076586,0 -0.125322,-0.01293 l 0.039785,-0.186988 q 0.037796,0.007 0.076586,0.007 0.056693,0 0.1024458,-0.01989 0.046747,-0.0189 0.087527,-0.05769 0.041774,-0.03879 0.080564,-0.09747 0.03879,-0.05769 0.081559,-0.136263 z"
           style="font-style:italic;font-variant:normal;font-weight:bold;font-stretch:normal;font-size:2.03698px;font-family:Corbel;-inkscape-font-specification:'Corbel, Bold Italic';font-variant-ligatures:normal;font-variant-caps:normal;font-variant-numeric:normal;font-variant-east-asian:normal"
           id="path1644" /></g><g
         aria-label="whis"
         transform="translate(0.8841168,42.287831)"
         id="text2064"
         style="font-style:normal;font-variant:normal;font-weight:normal;font-stretch:normal;font-size:3.52778px;line-height:1.25;font-family:'Know Your Product';-inkscape-font-specification:'Know Your Product, Normal';font-variant-ligatures:normal;font-variant-caps:normal;font-variant-numeric:normal;font-variant-east-asian:normal;text-align:start;letter-spacing:0px;word-spacing:0px;writing-mode:lr-tb;white-space:pre;shape-inside:url(#rect2068);fill:#fcdc56;fill-opacity:1;stroke:#b66314;stroke-width:0.529167;stroke-linejoin:round;stroke-miterlimit:4;stroke-dasharray:none;stroke-opacity:1;paint-order:stroke fill markers"><path
           d="m 2.6717531,-12.844813 q -0.1929255,0.199816 -0.1722549,0.430638 l 0.065457,0.106798 0.086127,0.280775 0.063734,0.106798 0.043064,0.108521 0.043064,0.06373 0.022393,0.08613 q 0.068902,0.09646 0.084405,0.192926 l 0.043064,0.06546 0.043064,0.149861 q 0.1240236,0.151585 0.1722549,0.280776 l 0.022393,0.106798 v 0.258382 l 0.020671,0.129191 q 0.08096,0.07579 0.1085206,0.151585 0.1016304,0.02067 0.1722549,0.02067 h 0.063734 l 0.065457,0.02239 q 0.1774225,0 0.301446,0.02067 0.1171333,-0.167087 0.1291912,-0.322117 -0.1085206,-0.156752 -0.1515843,-0.280775 l -0.063734,-0.106798 -0.022393,-0.151584 q -0.08096,-0.149862 -0.086127,-0.279053 -0.1291912,-0.220487 -0.1722549,-0.408244 l -0.043064,-0.06546 -0.020671,-0.08613 v -0.06373 l -0.043064,-0.08613 -0.022393,-0.06546 -0.020671,-0.08613 -0.1946481,-0.537435 -0.043064,-0.02239 q -0.2738852,0.05512 -0.4943715,-0.02067 z m 1.1833911,0.02067 q -0.1877579,0.248047 -0.1722549,0.516765 l 0.043064,0.04306 0.022393,0.06546 q 0.091295,0.144694 0.1067981,0.279053 l 0.043064,0.02239 q 0.1825902,0.41858 0.2377117,0.70969 l 0.043064,0.172255 q 0.1498618,0.225654 0.1498618,0.451308 0.106798,0.118856 0.1498617,0.237712 0.4306373,0.0689 0.7544764,-0.02239 0.020671,-0.101631 0.020671,-0.172255 -0.053399,-0.167088 -0.106798,-0.258383 -0.091295,-0.155029 -0.1291912,-0.279053 l -0.022393,-0.08613 -0.063734,-0.08613 q -0.048231,-0.151585 -0.065457,-0.258383 -0.068902,-0.08613 -0.106798,-0.172255 l -0.022393,-0.06373 v -0.06546 l -0.043064,-0.06373 v -0.06546 Q 4.5596666,-12.167851 4.5011,-12.350441 q 0.015503,-0.124024 0,-0.215319 -0.086127,-0.0913 -0.106798,-0.192925 l -0.065457,-0.02239 q -0.26355,0.02239 -0.4737009,-0.04306 z m 1.3556459,0.06546 -0.043064,0.06373 q -0.025838,0.220486 -0.086127,0.366903 -0.025838,0.177423 -0.106798,0.322117 v 0.06546 l 0.043064,0.06373 0.043064,0.151584 q 0.053399,0.08613 0.063734,0.170532 l 0.043064,0.04306 v 0.06546 q 0.1464166,0.215319 0.194648,0.430637 l 0.086127,0.06373 0.106798,-0.387574 0.022393,-0.08613 0.043064,-0.08613 0.020671,-0.106798 0.043064,-0.08613 0.022393,-0.106798 0.020671,-0.06546 q 0.037896,-0.111966 0.043064,-0.192926 0.1825902,-0.318671 0.2153186,-0.602892 l -0.106798,-0.129191 q -0.3341745,0.0534 -0.6028921,0 z"
           style="font-style:normal;font-variant:normal;font-weight:normal;font-stretch:normal;font-size:3.52778px;font-family:'Know Your Product';-inkscape-font-specification:'Know Your Product, Normal';font-variant-ligatures:normal;font-variant-caps:normal;font-variant-numeric:normal;font-variant-east-asian:normal;fill:#fcdc56;fill-opacity:1;stroke:#b66314;stroke-width:0.529167;stroke-linejoin:round;stroke-miterlimit:4;stroke-dasharray:none;stroke-opacity:1;paint-order:stroke fill markers"
           id="path1647" /><path
           d="m 6.955732,-12.862038 q -0.022393,0.0379 -0.044786,0.04479 -0.2876656,-0.05512 -0.4857588,0.06546 l -0.044786,0.132636 0.022393,0.110243 -0.022393,0.132637 q 0.010335,0.03445 0,0.06718 v 0.06546 q 0.017226,0.172255 0,0.287666 l 0.022393,0.06718 v 0.618395 l 0.022393,0.04479 -0.022393,0.132637 q 0.044786,0.315226 -0.022393,0.552938 l 0.08785,0.220486 0.1774225,0.06718 q 0.210151,-0.08268 0.3979088,-0.04479 0.082682,-0.18259 0.1102431,-0.330729 -0.055121,-0.167088 -0.043064,-0.287666 v -0.08957 -0.132637 -0.110243 -0.132636 -0.08785 -0.24288 -0.08957 -0.08785 -0.06718 -0.08785 q -0.012058,-0.03273 0,-0.06546 l -0.022393,-0.177423 v -0.06718 q 0.010335,-0.160197 0.043064,-0.265273 l -0.020671,-0.132636 q -0.072347,-0.08785 -0.1550294,-0.110243 z m 1.8793008,0 q -0.2652725,0.08785 -0.5081519,0.02239 l -0.1550294,0.08785 -0.022393,0.06718 v 0.530545 l 0.022393,0.110244 0.022393,0.375515 q -0.012058,0.18259 0.022393,0.332452 l -0.022393,0.06546 v 0.222209 q -0.027561,0.392741 0,0.640788 0.037896,0.02239 0.043064,0.04479 0.089573,0.03273 0.1774226,0.02239 h 0.08785 q 0.2049833,0.04995 0.354845,0.04306 l 0.08785,-0.110243 0.022393,-0.132636 v -0.110243 q -0.044786,-0.165365 -0.044786,-0.287666 l 0.022393,-0.132636 q -0.027561,-0.270441 0.022393,-0.465089 v -0.06546 q -0.022393,-0.03273 -0.022393,-0.06718 v -0.220486 l -0.022393,-0.06718 0.022393,-0.06546 v -0.06718 -0.1757 q -0.015503,-0.199815 0.022393,-0.354845 -0.044786,-0.148139 -0.1326363,-0.242879 z m -1.4159352,0.995633 -0.1326362,0.110243 q -0.032729,0.310059 0.067179,0.552938 l 0.4857588,-0.04479 0.067179,0.02239 q 0.1756999,-0.342787 0.065457,-0.640788 -0.2928333,0.0155 -0.5081519,-0.04479 z"
           style="font-style:normal;font-variant:normal;font-weight:normal;font-stretch:normal;font-size:3.52778px;font-family:'Know Your Product';-inkscape-font-specification:'Know Your Product, Normal';font-variant-ligatures:normal;font-variant-caps:normal;font-variant-numeric:normal;font-variant-east-asian:normal;fill:#fcdc56;fill-opacity:1;stroke:#b66314;stroke-width:0.529167;stroke-linejoin:round;stroke-miterlimit:4;stroke-dasharray:none;stroke-opacity:1;paint-order:stroke fill markers"
           id="path1649" /><path
           d="m 9.362133,-12.753518 v 0.06373 q 0,0.141249 -0.022393,0.239434 0.022393,0.111966 0,0.215319 l 0.022393,0.10852 -0.022393,0.08613 v 0.606337 l 0.022393,0.06373 v 0.54088 q 0,0.16192 -0.022393,0.260105 l 0.022393,0.129192 q 0.048231,0.10852 0.106798,0.172254 h 0.065457 l 0.065457,0.02239 q 0.1722549,-0.08096 0.3669029,-0.04306 0.048231,-0.173978 0.1085201,-0.280776 v -0.151584 l -0.02239,-0.108521 -0.02067,-0.151584 0.02067,-0.04306 q -0.02067,-0.03273 -0.02067,-0.06546 v -0.258383 q -0.02239,-0.07062 -0.02239,-0.130913 l 0.02239,-0.08613 v -0.08613 -0.237712 -0.08613 -0.08785 -0.08613 -0.06373 -0.08785 q 0,-0.106798 -0.02239,-0.172255 0.02239,-0.204983 0,-0.346232 l -0.043063,-0.02067 q -0.2859431,0.03101 -0.4978166,-0.02239 z"
           style="font-style:normal;font-variant:normal;font-weight:normal;font-stretch:normal;font-size:3.52778px;font-family:'Know Your Product';-inkscape-font-specification:'Know Your Product, Normal';font-variant-ligatures:normal;font-variant-caps:normal;font-variant-numeric:normal;font-variant-east-asian:normal;fill:#fcdc56;fill-opacity:1;stroke:#b66314;stroke-width:0.529167;stroke-linejoin:round;stroke-miterlimit:4;stroke-dasharray:none;stroke-opacity:1;paint-order:stroke fill markers"
           id="path1651" /><path
           d="m 11.660013,-12.777633 -0.02239,0.04479 q 0.01206,0.08268 0,0.155029 v 0.311782 q 0.218763,0.09474 0.268717,0.268717 l 0.110243,0.04479 q 0.184313,-0.02928 0.334175,0 0.458198,-0.630453 -0.53399,-0.892281 z m -0.334175,-0.04479 q -0.03273,0.02239 -0.06546,0.02239 h -0.179145 q -0.134358,0.05512 -0.244602,0.04479 -0.713135,0.685574 0.02239,1.224732 l 0.06718,0.04479 0.06546,0.06718 0.08957,0.02239 0.06718,0.06718 q 0.03962,0.02239 0.04479,0.04479 l 0.04479,0.02239 q 0.366903,0.137804 0.578777,0.334174 -0.339342,0.327284 -0.111966,0.623563 0.296278,0.07235 0.468533,-0.134359 0.329007,-0.18259 0.334175,-0.53399 0,-0.211874 -0.04479,-0.356568 -0.117134,-0.117133 -0.177423,-0.223931 -0.139526,-0.02756 -0.223931,-0.08785 -0.08268,-0.04995 -0.132637,-0.111966 l -0.08957,-0.02239 -0.08957,-0.02239 -0.132636,-0.08957 q -0.241157,-0.03273 -0.401354,-0.110243 v -0.134358 q 0.289388,-0.329007 0.110243,-0.690743 z m -0.912951,1.894804 q 0.234267,0.745864 0.935344,0.668349 0.284221,-0.311781 -0.155029,-0.645956 l -0.02239,-0.156752 -0.06718,-0.06718 q -0.301447,0.02756 -0.51332,-0.04479 z"
           style="font-style:normal;font-variant:normal;font-weight:normal;font-stretch:normal;font-size:3.52778px;font-family:'Know Your Product';-inkscape-font-specification:'Know Your Product, Normal';font-variant-ligatures:normal;font-variant-caps:normal;font-variant-numeric:normal;font-variant-east-asian:normal;fill:#fcdc56;fill-opacity:1;stroke:#b66314;stroke-width:0.529167;stroke-linejoin:round;stroke-miterlimit:4;stroke-dasharray:none;stroke-opacity:1;paint-order:stroke fill markers"
           id="path1653" /></g><text
         xml:space="preserve"
         transform="matrix(0.27092192,0,0,0.21904597,-0.32606301,6.5972227)"
         id="text16"
         style="font-size:6px;font-family:Arial;-inkscape-font-specification:Arial;text-align:center;white-space:pre;shape-inside:url(#rect16);display:inline;opacity:1;fill:#4d4d4d;fill-opacity:1;stroke:#4d4d4d;stroke-width:0.455094;stroke-linecap:butt;stroke-linejoin:round;stroke-dasharray:none;stroke-opacity:1"
         inkscape:label="whis signature by mind"><tspan
           x="1.2041016"
           y="122.08031"
           id="tspan2">Whis signature remade </tspan><tspan
           x="21.546387"
           y="129.58031"
           id="tspan3">by mind</tspan></text></g><text
       xml:space="preserve"
       transform="matrix(0.18106966,0,0,0.38926449,50.444159,-12.833067)"
       id="text1"
       style="font-size:8px;font-family:sans-serif;-inkscape-font-specification:sans-serif;text-align:center;white-space:pre;shape-inside:url(#rect1);display:inline;opacity:1;fill:#4d4d4d;fill-opacity:1;stroke:#4d4d4d;stroke-width:0.491875;stroke-linecap:round;stroke-linejoin:round;stroke-dasharray:none;stroke-opacity:1"
       inkscape:label="+KZ Signature"
       x="22.099609"
       y="0"
       sodipodi:insensitive="true"><tspan
         x="2.46875"
         y="104.79864"
         id="tspan4">Remade by </tspan><tspan
         x="16.173828"
         y="114.79864"
         id="tspan5">+KZ</tspan></text><path
       style="display:inline;opacity:1;fill:#000000;fill-opacity:1;stroke:#000000;stroke-width:0.797719;stroke-linecap:round;stroke-linejoin:miter;stroke-miterlimit:4;stroke-dasharray:none;stroke-dashoffset:0;stroke-opacity:1;paint-order:normal"
       d="m 61.118749,4.8421395 c -0.02303,-1.3011573 0.913009,-2.4228829 2.809611,-2.4238479 0.938912,-4.777e-4 2.106666,0.2333937 2.134129,2.3069021 0.01649,1.2451583 -0.502115,2.1445285 -1.675416,2.152114 -2.972042,0.019214 -3.256193,-1.3499301 -3.268324,-2.0351682 z"
       id="path1"
       inkscape:connector-curvature="0"
       sodipodi:nodetypes="sssss"
       inkscape:label="Hand Outline"
       sodipodi:insensitive="true" /><path
       style="display:inline;opacity:1;fill:#000000;fill-opacity:1;stroke:#000000;stroke-width:0.506806;stroke-linecap:round;stroke-linejoin:miter;stroke-miterlimit:4;stroke-dasharray:none;stroke-dashoffset:0;stroke-opacity:1;paint-order:normal"
       d="m 52.638777,4.8952748 c -0.02303,-1.3011573 0.926346,-2.4763921 2.822916,-2.4652956 0.60082,0.00352 1.397315,0.243268 1.629833,0.5002812 0.310116,0.3427844 0.489204,0.9217913 0.501121,1.8215499 0.01649,1.2451583 -0.498823,2.1444721 -1.672124,2.1520576 -2.972042,0.019214 -3.269615,-1.323355 -3.281746,-2.0085931 z"
       id="path2418"
       inkscape:connector-curvature="0"
       sodipodi:nodetypes="ssssss"
       inkscape:label="Hand"
       sodipodi:insensitive="true" /></g></svg>
