<?xml version="1.0" encoding="UTF-8" standalone="no"?>
<svg
   width="256"
   height="128"
   viewBox="0 0 67.733332 33.866668"
   version="1.1"
   id="svg62"
   sodipodi:docname="random.svg"
   inkscape:version="1.1.1 (3bf5ae0d25, 2021-09-20)"
   xmlns:inkscape="http://www.inkscape.org/namespaces/inkscape"
   xmlns:sodipodi="http://sodipodi.sourceforge.net/DTD/sodipodi-0.dtd"
   xmlns="http://www.w3.org/2000/svg"
   xmlns:svg="http://www.w3.org/2000/svg"
   xmlns:rdf="http://www.w3.org/1999/02/22-rdf-syntax-ns#"
   xmlns:cc="http://creativecommons.org/ns#"
   xmlns:dc="http://purl.org/dc/elements/1.1/">
  <sodipodi:namedview
     id="namedview82"
     pagecolor="#ffffff"
     bordercolor="#666666"
     borderopacity="1.0"
     inkscape:pageshadow="2"
     inkscape:pageopacity="0.0"
     inkscape:pagecheckerboard="0"
     showgrid="false"
     inkscape:zoom="4.7460938"
     inkscape:cx="128"
     inkscape:cy="63.947325"
     inkscape:window-width="2560"
     inkscape:window-height="1352"
     inkscape:window-x="0"
     inkscape:window-y="0"
     inkscape:window-maximized="1"
     inkscape:current-layer="layer1" />
  <metadata
     id="metadata4524">
    <rdf:RDF>
      <cc:Work
         rdf:about="">
        <dc:format>image/svg+xml</dc:format>
        <dc:type
           rdf:resource="http://purl.org/dc/dcmitype/StillImage" />
      </cc:Work>
    </rdf:RDF>
  </metadata>
  <defs
     id="defs59">
    <clipPath
       clipPathUnits="userSpaceOnUse"
       id="clipPath1605">
      <rect
         y="25.4"
         x="0"
         height="6.3500009"
         width="16.933334"
         id="rect1607"
         style="opacity:1;fill:#004cff;fill-opacity:0.50934604;fill-rule:evenodd;stroke:none;stroke-width:4.53665924;stroke-linecap:square;stroke-linejoin:miter;stroke-miterlimit:5;stroke-dasharray:none;stroke-opacity:1;paint-order:fill markers stroke" />
    </clipPath>
    <rect
       x="2.4087665"
       y="-13.446998"
       width="25.17511"
       height="12.479337"
       id="rect2068" />
    <rect
       x="2.4087665"
       y="-13.446998"
       width="25.17511"
       height="12.479337"
       id="rect3541" />
    <rect
       x="-1.7528646"
       y="-19.14922"
       width="23.514845"
       height="12.766146"
       id="rect2074" />
    <rect
       x="-1.7528646"
       y="-19.14922"
       width="23.514845"
       height="12.766146"
       id="rect3544" />
    <clipPath
       clipPathUnits="userSpaceOnUse"
       id="clipPath5124">
      <rect
         style="opacity:1;fill:#004cff;fill-opacity:0.509346;fill-rule:evenodd;stroke:none;stroke-width:5.55625;stroke-linecap:square;stroke-linejoin:miter;stroke-miterlimit:5;stroke-dasharray:none;stroke-opacity:1;paint-order:fill markers stroke"
         id="rect5126"
         width="12.700005"
         height="12.699998"
         x="-3.2500002e-06"
         y="1.2500001e-06" />
    </clipPath>
    <clipPath
       clipPathUnits="userSpaceOnUse"
       id="clipPath5150">
      <rect
         style="opacity:1;fill:#004cff;fill-opacity:0.509346;fill-rule:evenodd;stroke:none;stroke-width:5.55625;stroke-linecap:square;stroke-linejoin:miter;stroke-miterlimit:5;stroke-dasharray:none;stroke-opacity:1;paint-order:fill markers stroke"
         id="rect5152"
         width="12.700005"
         height="12.699998"
         x="88.899994"
         y="-16.933331" />
    </clipPath>
    <clipPath
       clipPathUnits="userSpaceOnUse"
       id="clipPath6609">
      <rect
         style="opacity:1;fill:#004cff;fill-opacity:0.509346;fill-rule:evenodd;stroke:none;stroke-width:5.55625;stroke-linecap:square;stroke-linejoin:miter;stroke-miterlimit:5;stroke-dasharray:none;stroke-opacity:1;paint-order:fill markers stroke"
         id="rect6611"
         width="12.700004"
         height="12.7"
         x="-1.2500001e-06"
         y="12.700001" />
    </clipPath>
    <clipPath
       clipPathUnits="userSpaceOnUse"
       id="clipPath6671">
      <rect
         style="opacity:1;fill:#004cff;fill-opacity:0.509346;fill-rule:evenodd;stroke:none;stroke-width:5.55625;stroke-linecap:square;stroke-linejoin:miter;stroke-miterlimit:5;stroke-dasharray:none;stroke-opacity:1;paint-order:fill markers stroke"
         id="rect6673"
         width="12.700004"
         height="12.7"
         x="12.69998"
         y="12.700001" />
    </clipPath>
  </defs>
  <g
     id="layer1">
    <path
       style="fill:#000000;fill-opacity:1;stroke:#000000;stroke-width:1.5875;stroke-linecap:butt;stroke-linejoin:miter;stroke-miterlimit:4;stroke-dasharray:none;stroke-opacity:1"
       d="m 37.831075,7.5386615 -10e-6,-1.5875 1.26917,-1.0533691 0.0537,2.6408681 z"
       id="path5138" />
    <g
       id="g6537"
       clip-path="url(#clipPath6609)">
      <circle
         r="7.4083314"
         cy="12.964583"
         cx="12.699997"
         id="circle3982"
         style="opacity:1;fill:#4d9f45;fill-opacity:1;fill-rule:evenodd;stroke:#004bff;stroke-width:0;stroke-linecap:square;stroke-linejoin:miter;stroke-miterlimit:4;stroke-dasharray:none;stroke-opacity:0.509804;paint-order:markers fill stroke" />
      <path
         id="path855"
         d="M 16.529223,6.6331862 A 7.4083314,7.4083314 0 0 1 18.25625,11.377083 7.4083314,7.4083314 0 0 1 10.847916,18.785417 7.4083314,7.4083314 0 0 1 7.0186922,17.70848 7.4083314,7.4083314 0 0 0 12.7,20.372917 7.4083314,7.4083314 0 0 0 20.108333,12.964583 7.4083314,7.4083314 0 0 0 16.529223,6.6331862 Z"
         style="opacity:1;fill:#4f7636;fill-opacity:1;fill-rule:evenodd;stroke:#4078ff;stroke-width:0;stroke-linecap:square;stroke-linejoin:miter;stroke-miterlimit:4;stroke-dasharray:none;stroke-opacity:0.261682;paint-order:markers fill stroke" />
      <path
         style="fill:#4d3c16;fill-opacity:1;stroke:none;stroke-width:0.264583px;stroke-linecap:butt;stroke-linejoin:miter;stroke-opacity:1"
         d="m 11.748636,12.090735 c -0.685019,0 -4.3007648,1.881083 -6.0476918,3.275253 a 7.4083314,7.4083314 0 0 0 0.718817,1.52032 c 1.212181,-1.851453 5.3288748,-4.795573 5.3288748,-4.795573 z m 2.538863,0 c 0,0 3.458834,2.476431 4.967139,4.315499 a 7.4083314,7.4083314 0 0 0 0.567407,-1.427303 c -1.861944,-1.331025 -4.911426,-2.888196 -5.534546,-2.888196 z m -3.439584,2.725932 c -0.798637,0.460589 -2.3761538,1.891285 -3.5894458,3.164665 a 7.4083314,7.4083314 0 0 0 0.832509,0.774113 z"
         id="path2205" />
      <path
         style="opacity:1;fill:#452710;fill-opacity:1;fill-rule:evenodd;stroke:#4078ff;stroke-width:0;stroke-linecap:square;stroke-linejoin:miter;stroke-miterlimit:4;stroke-dasharray:none;stroke-opacity:0.261682;paint-order:markers fill stroke"
         d="m 67.540985,51.920545 c -0.397165,1.171385 -0.864138,2.322384 -1.412549,3.431045 2.521162,2.227619 4.912029,4.543219 6.645002,6.656222 0.899822,-1.719016 1.618527,-3.526907 2.144531,-5.394531 -2.173168,-1.553506 -4.750014,-3.1747 -7.376984,-4.692736 z M 27.759766,67.626953 c -0.09896,0.103029 -0.204981,0.20801 -0.302735,0.310547 0.147183,0.163208 0.296282,0.324678 0.447266,0.484375 0.354711,0.367989 0.719431,0.726196 1.09375,1.074219 0.414751,0.391852 0.841382,0.770935 1.279297,1.136718 0.100313,0.08535 0.201227,0.169984 0.302734,0.253907 l 1.063677,-1.519606 c -1.343016,-0.470275 -2.627923,-1.071467 -3.883989,-1.74016 z"
         transform="scale(0.26458334)"
         id="path857" />
      <circle
         style="opacity:1;fill:#000000;fill-opacity:0;fill-rule:evenodd;stroke:#000000;stroke-width:0.529167;stroke-linecap:square;stroke-linejoin:miter;stroke-miterlimit:4;stroke-dasharray:none;stroke-opacity:1;paint-order:markers fill stroke"
         id="circle3988"
         cx="12.699997"
         cy="12.964583"
         r="7.4083314" />
    </g>
    <path
       style="fill:#ce8c63;fill-opacity:1;fill-rule:evenodd;stroke:none;stroke-width:0.485089;stroke-linecap:round;stroke-linejoin:round;paint-order:markers fill stroke"
       d="m 57.310296,4.6197583 c 0.006,1.292484 -0.30361,2.007077 -1.74266,1.999794 -1.333389,-0.0067 -2.659459,-0.540676 -2.65031,-1.833153 0.009,-1.32067 1.218491,-2.140251 2.548311,-2.136539 1.432798,0.004 1.839319,0.78851 1.844659,1.969898 z"
       id="path1251" />
    <path
       style="fill:#a5704f;fill-opacity:1;fill-rule:evenodd;stroke:none;stroke-width:0.485089;stroke-linecap:round;stroke-linejoin:round;paint-order:markers fill stroke"
       d="m 57.031666,3.3491463 a 3.5864472,3.5864472 0 0 1 -2.836519,3.046843 c 0.41578,0.149448 0.89317,0.221351 1.372529,0.223759 1.43905,0.0073 1.748531,-0.707393 1.74253,-1.999877 -0.0021,-0.506913 -0.0791,-0.940258 -0.27854,-1.270725 z"
       id="path1262" />
    <text
       id="text1310"
       y="33.043976"
       x="2.2530901"
       style="font-style:normal;font-variant:normal;font-weight:normal;font-stretch:normal;font-size:1.41111px;line-height:1.25;font-family:'Segoe Print';-inkscape-font-specification:'Segoe Print, Normal';font-variant-ligatures:normal;font-variant-caps:normal;font-variant-numeric:normal;font-feature-settings:normal;text-align:start;letter-spacing:0px;word-spacing:0px;writing-mode:lr-tb;text-anchor:start;fill:#000000;fill-opacity:1;stroke:#000000;stroke-width:0.05;stroke-miterlimit:4;stroke-dasharray:none;stroke-opacity:1"
       xml:space="preserve"><tspan
         style="font-style:normal;font-variant:normal;font-weight:normal;font-stretch:normal;font-size:1.41111px;font-family:'Segoe Print';-inkscape-font-specification:'Segoe Print, Normal';font-variant-ligatures:normal;font-variant-caps:normal;font-variant-numeric:normal;font-feature-settings:normal;text-align:start;writing-mode:lr-tb;text-anchor:start;stroke:#000000;stroke-width:0.05;stroke-miterlimit:4;stroke-dasharray:none;stroke-opacity:1"
         y="33.043976"
         x="2.2530901"
         id="tspan1308">redrawn by mind</tspan></text>
    <path
       id="path1260"
       d="m 63.953256,1.9799643 c -0.817269,-0.0023 -1.60492,0.243865 -2.214589,0.723469 -0.609672,0.479602 -1.029642,1.219981 -1.03555,2.086918 -0.006,0.873902 0.491619,1.57527 1.140298,1.961431 0.64869,0.386165 1.43541,0.534056 2.212962,0.537961 0.85235,0.0043 1.541468,-0.235436 1.94015,-0.762746 0.39869,-0.52731 0.4655,-1.182211 0.462129,-1.909601 -0.003,-0.687177 -0.11662,-1.344791 -0.536331,-1.858315 -0.419709,-0.513522 -1.11088,-0.776719 -1.969069,-0.779117 z"
       style="color:#000000;font-style:normal;font-variant:normal;font-weight:normal;font-stretch:normal;font-size:medium;line-height:normal;font-family:sans-serif;font-variant-ligatures:normal;font-variant-position:normal;font-variant-caps:normal;font-variant-numeric:normal;font-variant-alternates:normal;font-feature-settings:normal;text-indent:0;text-align:start;text-decoration:none;text-decoration-line:none;text-decoration-style:solid;text-decoration-color:#000000;letter-spacing:normal;word-spacing:normal;text-transform:none;writing-mode:lr-tb;direction:ltr;text-orientation:mixed;dominant-baseline:auto;baseline-shift:baseline;text-anchor:start;white-space:normal;shape-padding:0;clip-rule:nonzero;display:inline;overflow:visible;visibility:visible;opacity:1;isolation:auto;mix-blend-mode:normal;color-interpolation:sRGB;color-interpolation-filters:linearRGB;solid-color:#000000;solid-opacity:1;vector-effect:none;fill:#000000;fill-opacity:1;fill-rule:evenodd;stroke:none;stroke-width:1.11739;stroke-linecap:round;stroke-linejoin:round;stroke-miterlimit:4;stroke-dasharray:none;stroke-dashoffset:0;stroke-opacity:1;paint-order:markers fill stroke;color-rendering:auto;image-rendering:auto;shape-rendering:auto;text-rendering:auto;enable-background:accumulate" />
    <path
       style="fill:none;fill-opacity:1;stroke:#000000;stroke-width:0.565;stroke-linecap:round;stroke-linejoin:miter;stroke-miterlimit:4;stroke-dasharray:none;stroke-opacity:1"
       d="m 54.858586,28.591915 0.008,2.485918"
       id="path1304-7" />
    <path
       id="path1306-6"
       d="m 56.105345,29.831074 -2.485919,0.008"
       style="fill:none;fill-opacity:1;stroke:#000000;stroke-width:0.565;stroke-linecap:round;stroke-linejoin:miter;stroke-miterlimit:4;stroke-dasharray:none;stroke-opacity:1" />
    <path
       style="opacity:1;fill:none;fill-opacity:1;stroke:#000000;stroke-width:0.580552;stroke-linecap:round;stroke-linejoin:miter;stroke-miterlimit:4;stroke-dasharray:none;stroke-opacity:1"
       d="m 45.062546,30.359587 c 0.07395,-2.31027 3.002053,-2.28095 3.172863,0"
       id="path1312-6" />
    <path
       style="opacity:1;fill:none;fill-opacity:1;stroke:#000000;stroke-width:0.580552;stroke-linecap:round;stroke-linejoin:round;stroke-miterlimit:4;stroke-dasharray:none;stroke-opacity:1"
       d="m 36.169442,30.429097 3.595333,-0.0181 -1.841318,-2.05067"
       id="path1314-9" />
    <ellipse
       cx="63.637104"
       cy="29.755157"
       rx="1.3125569"
       ry="2.3420944"
       id="ellipse1328-6"
       style="fill:#000000;fill-opacity:1;fill-rule:evenodd;stroke:none;stroke-width:0.70287;stroke-linecap:round;stroke-linejoin:round;paint-order:markers fill stroke" />
    <ellipse
       style="fill:#ffffff;fill-opacity:1;fill-rule:evenodd;stroke:none;stroke-width:0.478035;stroke-linecap:round;stroke-linejoin:round;paint-order:markers fill stroke"
       id="ellipse1330-1"
       ry="1.7926877"
       rx="0.79320657"
       cy="29.753685"
       cx="63.619984" />
    <path
       id="path1332-5"
       d="m 29.292276,27.939387 a 1.1515931,2.1166668 0 0 0 -0.717272,1.95854 1.1515931,2.1166668 0 0 0 1.15135,2.11666 1.1515931,2.1166668 0 0 0 1.151872,-2.11666 1.1515931,2.1166668 0 0 0 -0.003,-0.13333 z"
       style="fill:#000000;fill-opacity:1;fill-rule:evenodd;stroke:none;stroke-width:0.625878;stroke-linecap:round;stroke-linejoin:round;paint-order:markers fill stroke" />
    <ellipse
       style="fill:#000000;fill-opacity:1;fill-rule:evenodd;stroke:none;stroke-width:0.625878;stroke-linecap:round;stroke-linejoin:round;paint-order:markers fill stroke"
       id="ellipse1964-5"
       ry="2.1166668"
       rx="1.1515931"
       cy="29.897949"
       cx="21.259912" />
    <path
       style="color:#000000;font-style:normal;font-variant:normal;font-weight:normal;font-stretch:normal;font-size:medium;line-height:normal;font-family:sans-serif;font-variant-ligatures:normal;font-variant-position:normal;font-variant-caps:normal;font-variant-numeric:normal;font-variant-alternates:normal;font-feature-settings:normal;text-indent:0;text-align:start;text-decoration:none;text-decoration-line:none;text-decoration-style:solid;text-decoration-color:#000000;letter-spacing:normal;word-spacing:normal;text-transform:none;writing-mode:lr-tb;direction:ltr;text-orientation:mixed;dominant-baseline:auto;baseline-shift:baseline;text-anchor:start;white-space:normal;shape-padding:0;clip-rule:nonzero;display:inline;overflow:visible;visibility:visible;opacity:1;isolation:auto;mix-blend-mode:normal;color-interpolation:sRGB;color-interpolation-filters:linearRGB;solid-color:#000000;solid-opacity:1;vector-effect:none;fill:#000000;fill-opacity:1;fill-rule:evenodd;stroke:none;stroke-width:7;stroke-linecap:round;stroke-linejoin:round;stroke-miterlimit:4;stroke-dasharray:none;stroke-dashoffset:0;stroke-opacity:1;paint-order:markers fill stroke;color-rendering:auto;image-rendering:auto;shape-rendering:auto;text-rendering:auto;enable-background:accumulate"
       d="m 222.36523,72.208984 c -3.80046,-0.0057 -6.78861,1.146914 -8.72656,2.931641 -1.93795,1.784731 -2.70871,3.942543 -2.91601,5.625 -0.31563,2.561359 1.11867,4.983027 2.82031,6.207031 1.70163,1.224004 3.63264,1.720703 5.58789,1.720703 h 10.48242 c 1.63441,0 3.50474,-0.26257 5.44141,-1.128906 0.96833,-0.433168 1.97731,-1.030406 2.84961,-2.060547 0.87229,-1.03014 1.50542,-2.635598 1.38672,-4.214844 -0.14249,-1.895678 -1.14423,-3.473461 -2.31055,-4.591796 -1.16633,-1.118336 -2.54198,-1.913333 -4.06055,-2.552735 -3.03714,-1.27881 -6.70407,-1.929186 -10.55469,-1.935547 z"
       transform="scale(0.26458334)"
       id="path2194" />
    <path
       style="color:#000000;font-style:normal;font-variant:normal;font-weight:normal;font-stretch:normal;font-size:medium;line-height:normal;font-family:sans-serif;font-variant-ligatures:normal;font-variant-position:normal;font-variant-caps:normal;font-variant-numeric:normal;font-variant-alternates:normal;font-feature-settings:normal;text-indent:0;text-align:start;text-decoration:none;text-decoration-line:none;text-decoration-style:solid;text-decoration-color:#000000;letter-spacing:normal;word-spacing:normal;text-transform:none;writing-mode:lr-tb;direction:ltr;text-orientation:mixed;dominant-baseline:auto;baseline-shift:baseline;text-anchor:start;white-space:normal;shape-padding:0;clip-rule:nonzero;display:inline;overflow:visible;visibility:visible;opacity:1;isolation:auto;mix-blend-mode:normal;color-interpolation:sRGB;color-interpolation-filters:linearRGB;solid-color:#000000;solid-opacity:1;vector-effect:none;fill:#e9f4f1;fill-opacity:1;fill-rule:evenodd;stroke:none;stroke-width:0.396875;stroke-linecap:round;stroke-linejoin:round;stroke-miterlimit:4;stroke-dasharray:none;stroke-dashoffset:0;stroke-opacity:1;paint-order:markers fill stroke;color-rendering:auto;image-rendering:auto;shape-rendering:auto;text-rendering:auto;enable-background:accumulate"
       d="m 58.834135,11.365198 c -0.868166,-0.0013 -1.449374,0.249886 -1.814359,0.586011 -0.364982,0.336125 -0.508561,0.743519 -0.545184,1.040763 -0.05009,0.406489 0.156493,0.751311 0.451133,0.963249 0.29464,0.211938 0.677063,0.31626 1.053166,0.31626 h 2.772958 c 0.327395,0 0.764582,-0.06553 1.142566,-0.234611 0.188992,-0.08454 0.364638,-0.194089 0.496094,-0.349333 0.131455,-0.155244 0.21246,-0.363887 0.195336,-0.591695 -0.02122,-0.282364 -0.169614,-0.534159 -0.388607,-0.744141 -0.21899,-0.209981 -0.51037,-0.385342 -0.853178,-0.529683 -0.685615,-0.288683 -1.578059,-0.45528 -2.509925,-0.45682 z"
       id="path2242" />
    <path
       style="opacity:1;fill:#bac3c1;fill-opacity:1;fill-rule:evenodd;stroke:none;stroke-width:1.72329;stroke-linecap:square;stroke-linejoin:miter;stroke-miterlimit:4;stroke-dasharray:none;stroke-opacity:1;paint-order:fill markers stroke"
       d="m 224.50195,51.117188 a 11.932426,5.2497829 0 0 0 -9.02343,1.818359 c 1.06429,0.660519 2.36256,1.003906 3.65429,1.003906 h 10.48047 c 1.20783,0 2.80835,-0.24206 4.21289,-0.847656 a 11.932426,5.2497829 0 0 0 -9.32422,-1.974609 z"
       transform="scale(0.26458334)"
       id="path2258" />
    <path
       style="color:#000000;font-style:normal;font-variant:normal;font-weight:normal;font-stretch:normal;font-size:medium;line-height:normal;font-family:sans-serif;font-variant-ligatures:normal;font-variant-position:normal;font-variant-caps:normal;font-variant-numeric:normal;font-variant-alternates:normal;font-feature-settings:normal;text-indent:0;text-align:start;text-decoration:none;text-decoration-line:none;text-decoration-style:solid;text-decoration-color:#000000;letter-spacing:normal;word-spacing:normal;text-transform:none;writing-mode:lr-tb;direction:ltr;text-orientation:mixed;dominant-baseline:auto;baseline-shift:baseline;text-anchor:start;white-space:normal;shape-padding:0;clip-rule:nonzero;display:inline;overflow:visible;visibility:visible;opacity:1;isolation:auto;mix-blend-mode:normal;color-interpolation:sRGB;color-interpolation-filters:linearRGB;solid-color:#000000;solid-opacity:1;vector-effect:none;fill:#000000;fill-opacity:1;fill-rule:evenodd;stroke:none;stroke-width:4;stroke-linecap:round;stroke-linejoin:round;stroke-miterlimit:4;stroke-dasharray:none;stroke-dashoffset:0;stroke-opacity:1;paint-order:markers fill stroke;color-rendering:auto;image-rendering:auto;shape-rendering:auto;text-rendering:auto;enable-background:accumulate"
       d="m 222.36523,41.707031 c -3.51726,-0.0053 -6.0737,1.034883 -7.70703,2.539063 -1.63332,1.504184 -2.28143,3.325589 -2.45117,4.703125 -0.24673,2.002257 0.83396,3.819213 2.21485,4.8125 1.38088,0.99329 3.04487,1.433593 4.70898,1.433593 h 10.48242 c 1.41786,0 3.16858,-0.255664 4.82813,-0.998046 0.82977,-0.371188 1.65085,-0.871868 2.31836,-1.660157 0.6675,-0.788292 1.12245,-1.943384 1.0332,-3.130859 -0.10851,-1.443787 -0.87191,-2.689636 -1.85352,-3.630859 -0.98161,-0.941224 -2.20458,-1.655933 -3.60156,-2.244141 -2.79395,-1.176412 -6.30128,-1.818153 -9.97266,-1.824219 z m -0.004,2 c 6.86478,0.01134 13.18651,2.48263 13.43945,5.847657 0.19998,2.660485 -3.93122,3.638671 -6.18945,3.638671 h -10.48242 c -2.55185,0 -5.24333,-1.486425 -4.9336,-4 0.23928,-1.941959 1.88668,-5.495625 8.16602,-5.486328 z"
       transform="scale(0.26458334)"
       id="path2240" />
    <path
       style="color:#000000;font-style:normal;font-variant:normal;font-weight:normal;font-stretch:normal;font-size:medium;line-height:normal;font-family:sans-serif;font-variant-ligatures:normal;font-variant-position:normal;font-variant-caps:normal;font-variant-numeric:normal;font-variant-alternates:normal;font-feature-settings:normal;text-indent:0;text-align:start;text-decoration:none;text-decoration-line:none;text-decoration-style:solid;text-decoration-color:#000000;letter-spacing:normal;word-spacing:normal;text-transform:none;writing-mode:lr-tb;direction:ltr;text-orientation:mixed;dominant-baseline:auto;baseline-shift:baseline;text-anchor:start;white-space:normal;shape-padding:0;clip-rule:nonzero;display:inline;overflow:visible;visibility:visible;opacity:1;isolation:auto;mix-blend-mode:normal;color-interpolation:sRGB;color-interpolation-filters:linearRGB;solid-color:#000000;solid-opacity:1;vector-effect:none;fill:#000000;fill-opacity:1;fill-rule:evenodd;stroke:none;stroke-width:1.05833;stroke-linecap:round;stroke-linejoin:round;stroke-miterlimit:4;stroke-dasharray:none;stroke-dashoffset:0;stroke-opacity:1;paint-order:markers fill stroke;color-rendering:auto;image-rendering:auto;shape-rendering:auto;text-rendering:auto;enable-background:accumulate"
       d="m 55.466907,2.1202803 c -0.774071,-0.0022 -1.5201,0.230974 -2.09754,0.685231 -0.577451,0.454253 -0.975231,1.155505 -0.980821,1.976623 -0.006,0.827715 0.465629,1.492015 1.080029,1.857767 0.61441,0.365755 1.359551,0.50583 2.096,0.509529 0.807302,0.0041 1.46,-0.222993 1.837611,-0.722434 0.377621,-0.499443 0.440901,-1.11973 0.43771,-1.808676 -0.003,-0.650859 -0.110461,-1.273715 -0.507989,-1.760101 -0.397521,-0.486381 -1.052161,-0.735666 -1.865,-0.737939 z m -0.01029,0.581877 c 1.39505,0.0039 1.79056,0.767972 1.795759,1.918229 0.006,1.258428 -0.29541,1.953742 -1.69654,1.946651 -1.29826,-0.0065 -2.589628,-0.525965 -2.580719,-1.784387 0.009,-1.285872 1.186719,-2.084107 2.4815,-2.080493 z"
       id="path1253" />
    <text
       xml:space="preserve"
       id="text2064"
       style="font-style:normal;font-variant:normal;font-weight:normal;font-stretch:normal;font-size:3.52778px;line-height:1.25;font-family:'Know Your Product';-inkscape-font-specification:'Know Your Product, Normal';font-variant-ligatures:normal;font-variant-caps:normal;font-variant-numeric:normal;font-variant-east-asian:normal;text-align:start;letter-spacing:0px;word-spacing:0px;writing-mode:lr-tb;white-space:pre;shape-inside:url(#rect2068);fill:#fcdc56;fill-opacity:1;stroke:#b66314;stroke-width:0.529167;stroke-miterlimit:4;stroke-dasharray:none;stroke-opacity:1;paint-order:stroke fill markers"
       transform="translate(0.84335917,41.258461)"><tspan
         x="2.4082031"
         y="-10.269602"
         id="tspan1055">whis</tspan></text>
    <text
       xml:space="preserve"
       id="text2072"
       style="font-style:italic;font-variant:normal;font-weight:bold;font-stretch:normal;font-size:2.03698px;line-height:1.25;font-family:Corbel;-inkscape-font-specification:'Corbel, Bold Italic';font-variant-ligatures:normal;font-variant-caps:normal;font-variant-numeric:normal;font-variant-east-asian:normal;text-align:start;letter-spacing:0px;word-spacing:0px;writing-mode:lr-tb;white-space:pre;shape-inside:url(#rect2074);fill:#000000;fill-opacity:1;stroke:none"
       transform="matrix(1.0391195,0,0,1.0391195,6.4912876,45.542768)"><tspan
         x="-1.7519531"
         y="-17.346188"
         id="tspan1057">Made by</tspan></text>
    <g
       id="g4291"
       clip-path="url(#clipPath5124)">
      <path
         style="opacity:1;fill:#afdce1;fill-opacity:1;fill-rule:evenodd;stroke:#000000;stroke-width:0.529167;stroke-linecap:square;stroke-linejoin:miter;stroke-miterlimit:3.3;stroke-dasharray:none;stroke-opacity:0;paint-order:markers fill stroke"
         d="M 6.7975176,4.1754558 C 6.1413605,5.273356 5.7090035,7.8671853 5.9123003,10.005591 A 7.4083335,7.4083335 0 0 0 5.2916664,12.964584 7.4083335,7.4083335 0 0 0 12.7,20.372917 7.4083335,7.4083335 0 0 0 20.108333,12.964584 7.4083335,7.4083335 0 0 0 19.486666,10.015926 c 0.205682,-2.1403674 -0.226971,-4.7408033 -0.884184,-5.8404702 -0.316902,0 -2.776379,0.2731358 -4.409033,1.5342733 A 7.4083335,7.4083335 0 0 0 12.7,5.5562501 7.4083335,7.4083335 0 0 0 11.213786,5.7148967 C 9.5811796,4.4490951 7.114875,4.1754558 6.7975176,4.1754558 Z"
         id="circle1534" />
      <path
         style="opacity:1;fill:#0291f8;fill-opacity:0.392157;fill-rule:evenodd;stroke:none;stroke-width:0.627991;stroke-linecap:square;stroke-linejoin:miter;stroke-miterlimit:4;stroke-dasharray:none;stroke-opacity:0.45098;paint-order:markers fill stroke"
         d="m 17.414957,7.6047032 a 7.4083335,7.4083335 0 0 1 0.969967,3.6457728 7.4083335,7.4083335 0 0 1 -7.408333,7.408333 7.4083335,7.4083335 0 0 1 -4.2850088,-1.37666 7.4083335,7.4083335 0 0 0 6.0084168,3.090767 7.4083335,7.4083335 0 0 0 7.408334,-7.408333 7.4083335,7.4083335 0 0 0 -0.538985,-2.764173 c 0.0041,0.267001 0.0084,0.533937 0.0088,0.808737 A 7.152877,7.152877 0 0 0 17.414972,7.6047032 Z"
         id="circle896" />
      <path
         id="path886"
         d="m 10.579199,13.651361 a 0.52916671,0.52916671 0 0 0 -0.529166,0.529167 0.52916671,0.52916671 0 0 0 0.529166,0.529167 0.52916671,0.52916671 0 0 0 0.529167,-0.529167 0.52916671,0.52916671 0 0 0 -0.529167,-0.529167 z m 4.403349,0.174668 a 0.52916671,0.52916671 0 0 0 -0.529167,0.529166 0.52916671,0.52916671 0 0 0 0.529167,0.529167 0.52916671,0.52916671 0 0 0 0.529167,-0.529167 0.52916671,0.52916671 0 0 0 -0.529167,-0.529166 z m -7.3122152,0.06098 a 0.52916671,0.52916671 0 0 0 -0.529167,0.529167 0.52916671,0.52916671 0 0 0 0.529167,0.529167 0.52916671,0.52916671 0 0 0 0.529166,-0.529167 0.52916671,0.52916671 0 0 0 -0.529166,-0.529167 z M 17.88573,14.027051 a 0.52916671,0.52916671 0 0 0 -0.529167,0.529166 0.52916671,0.52916671 0 0 0 0.529167,0.529167 0.52916671,0.52916671 0 0 0 0.529167,-0.529167 0.52916671,0.52916671 0 0 0 -0.529167,-0.529166 z m -8.4956062,1.989026 a 0.52916671,0.52916671 0 0 0 -0.529166,0.529167 0.52916671,0.52916671 0 0 0 0.529166,0.529166 0.52916671,0.52916671 0 0 0 0.529167,-0.529166 0.52916671,0.52916671 0 0 0 -0.529167,-0.529167 z m 6.8181892,0.07803 a 0.52916671,0.52916671 0 0 0 -0.529167,0.529167 0.52916671,0.52916671 0 0 0 0.529167,0.529166 0.52916671,0.52916671 0 0 0 0.529167,-0.529166 0.52916671,0.52916671 0 0 0 -0.529167,-0.529167 z"
         style="opacity:1;fill:#fcfcfc;fill-opacity:0.501961;fill-rule:evenodd;stroke:none;stroke-width:0.0448565;stroke-linecap:square;stroke-linejoin:miter;stroke-miterlimit:4;stroke-dasharray:none;stroke-opacity:0.45098;paint-order:markers fill stroke" />
      <path
         id="path1541"
         d="M 6.7975176,4.1754558 C 6.1413605,5.273356 5.7090035,7.8671853 5.9123003,10.005591 A 7.4083335,7.4083335 0 0 0 5.2916664,12.964584 7.4083335,7.4083335 0 0 0 12.7,20.372917 7.4083335,7.4083335 0 0 0 20.108333,12.964584 7.4083335,7.4083335 0 0 0 19.486666,10.015926 c 0.205682,-2.1403674 -0.226971,-4.7408033 -0.884184,-5.8404702 -0.316902,0 -2.776379,0.2731358 -4.409033,1.5342733 A 7.4083335,7.4083335 0 0 0 12.7,5.5562501 7.4083335,7.4083335 0 0 0 11.213786,5.7148967 C 9.5811796,4.4490951 7.114875,4.1754558 6.7975176,4.1754558 Z"
         style="opacity:1;fill:#000000;fill-opacity:0;fill-rule:evenodd;stroke:#000000;stroke-width:0.529167;stroke-linecap:square;stroke-linejoin:miter;stroke-miterlimit:3.3;stroke-dasharray:none;stroke-opacity:1;paint-order:markers fill stroke" />
      <path
         id="path1545"
         d="m 6.8791658,9.1434862 c -0.157856,-1.708787 0.07441,-3.473072 0.453162,-3.85182 0.767871,0 2.299471,0.435622 2.8765142,1.140184 -1.4775922,0.327405 -2.4526972,1.314317 -3.3296762,2.711636 z"
         style="fill:#88c9e5;fill-opacity:1;stroke:#000000;stroke-width:0.264583px;stroke-linecap:butt;stroke-linejoin:miter;stroke-opacity:0" />
      <path
         style="fill:#d8ebf4;fill-opacity:1;stroke:#000000;stroke-width:0.264583px;stroke-linecap:butt;stroke-linejoin:miter;stroke-opacity:0"
         d="m 7.6729148,6.0854168 0.264584,1.1358481 -0.730706,0.2795693 0.569474,0.4304647 c 0.36799,-0.4142372 0.766162,-0.7638722 1.219565,-1.0273274 V 6.3500002 l -0.529167,0.2645833 z"
         id="path1549" />
      <path
         style="fill:#88c9e5;fill-opacity:1;stroke:#000000;stroke-width:0.264583px;stroke-linecap:butt;stroke-linejoin:miter;stroke-opacity:0"
         d="m 18.520834,9.1434862 c 0.157856,-1.708787 -0.07441,-3.473072 -0.453162,-3.85182 -0.767871,0 -2.299471,0.435622 -2.876514,1.140184 1.477592,0.327405 2.452697,1.314317 3.329676,2.711636 z"
         id="path1556" />
      <path
         id="path1558"
         d="m 17.727085,6.0854168 -0.264584,1.1358481 0.730706,0.2795693 -0.569474,0.4304647 C 17.255743,7.5170617 16.857571,7.1674267 16.404168,6.9039715 V 6.3500002 l 0.529167,0.2645833 z"
         style="fill:#d8ebf4;fill-opacity:1;stroke:#000000;stroke-width:0.264583px;stroke-linecap:butt;stroke-linejoin:miter;stroke-opacity:0" />
    </g>
    <path
       id="path1543"
       clip-path="none"
       style="fill:#000000;fill-opacity:1;fill-rule:evenodd;stroke:#000000;stroke-width:1.5875;stroke-linecap:square;stroke-linejoin:miter;stroke-miterlimit:3.3;stroke-dasharray:none;stroke-opacity:1;paint-order:markers fill stroke"
       d="m 32.197529,4.1754535 c -0.65538,1.0965891 -1.08728,3.6854471 -0.88573,5.8223841 a 7.4083314,7.4083314 0 0 0 -0.62012,2.9667444 7.4083314,7.4083314 0 0 0 7.408336,7.408333 7.4083314,7.4083314 0 0 0 7.408346,-7.408333 7.4083314,7.4083314 0 0 0 -7.408346,-7.4083344 7.4083314,7.4083314 0 0 0 -1.49448,0.152445 C 34.972882,4.4482965 32.514362,4.1754535 32.197529,4.1754535 Z" />
    <circle
       transform="scale(-1,1)"
       style="fill:#000000;fill-opacity:1;fill-rule:evenodd;stroke:#000000;stroke-width:1.5875;stroke-linecap:round;stroke-linejoin:miter;stroke-miterlimit:4;stroke-dasharray:none;stroke-opacity:1;paint-order:fill markers stroke"
       id="circle916"
       cx="-43.399982"
       cy="8.8139334"
       r="3.4745901" />
    <g
       id="g5148"
       clip-path="url(#clipPath5150)"
       transform="translate(-76.199995,16.933333)">
      <path
         style="fill:#000000;fill-opacity:1;stroke:none;stroke-width:1.5875;stroke-linecap:butt;stroke-linejoin:miter;stroke-miterlimit:4;stroke-dasharray:none;stroke-opacity:1"
         d="m 87.841668,-10.054168 -0.884701,-2.645833 1.943034,1.058334 1.269174,-1.053369 0.05374,2.640868 z"
         id="path922" />
      <path
         style="fill:#ce8c63;fill-opacity:1;fill-rule:evenodd;stroke:#4078ff;stroke-width:0;stroke-linecap:square;stroke-linejoin:miter;stroke-miterlimit:4;stroke-dasharray:none;stroke-opacity:0.261682;paint-order:markers fill stroke"
         d="m 83.600066,-11.594125 a 3.4745902,3.4745902 0 0 0 -3.474723,3.4747235 3.4745902,3.4745902 0 0 0 1.488281,2.8494385 7.4083314,7.4083314 0 0 0 -0.121957,1.301213 7.4083314,7.4083314 0 0 0 7.408334,7.408333 7.4083314,7.4083314 0 0 0 7.408333,-7.408333 7.4083314,7.4083314 0 0 0 -0.118339,-1.304314 3.4745902,3.4745902 0 0 0 1.484664,-2.8463375 3.4745902,3.4745902 0 0 0 -3.474723,-3.4747235 3.4745902,3.4745902 0 0 0 -2.288233,0.862997 7.4083314,7.4083314 0 0 0 -3.011702,-0.645956 7.4083314,7.4083314 0 0 0 -3.009119,0.648539 3.4745902,3.4745902 0 0 0 -2.290816,-0.86558 z"
         id="circle928" />
      <path
         style="fill:#c47647;fill-opacity:1;fill-rule:evenodd;stroke:#4078ff;stroke-width:0;stroke-linecap:square;stroke-linejoin:miter;stroke-miterlimit:4;stroke-dasharray:none;stroke-opacity:0.261682;paint-order:markers fill stroke"
         d="m 93.133334,-9.7275722 c 0.919829,1.2628518 1.452007,2.4932383 1.455208,4.0555662 10e-7,4.09151 -3.316823,7.408335 -7.408333,7.408334 -1.528927,-0.0015 -3.019928,-0.476103 -4.268473,-1.358574 1.391104,1.920081 3.617216,3.058303 5.988264,3.061829 4.09151,1e-6 7.408335,-3.316823 7.408334,-7.408333 -0.0011,-1.587501 -1.587499,-4.8422783 -3.175,-5.7588222 z"
         id="circle937" />
      <path
         id="path935"
         d="m 83.600066,-11.594125 a 3.4745902,3.4745902 0 0 0 -3.474723,3.4747235 3.4745902,3.4745902 0 0 0 1.488281,2.8494385 7.4083314,7.4083314 0 0 0 -0.121957,1.301213 7.4083314,7.4083314 0 0 0 7.408334,7.408333 7.4083314,7.4083314 0 0 0 7.408333,-7.408333 7.4083314,7.4083314 0 0 0 -0.118339,-1.304314 3.4745902,3.4745902 0 0 0 1.484664,-2.8463375 3.4745902,3.4745902 0 0 0 -3.474723,-3.4747235 3.4745902,3.4745902 0 0 0 -2.288233,0.862997 7.4083314,7.4083314 0 0 0 -3.011702,-0.645956 7.4083314,7.4083314 0 0 0 -3.009119,0.648539 3.4745902,3.4745902 0 0 0 -2.290816,-0.86558 z"
         style="fill:#000000;fill-opacity:0;fill-rule:evenodd;stroke:#000000;stroke-width:0.529167;stroke-linecap:square;stroke-linejoin:miter;stroke-miterlimit:4;stroke-dasharray:none;stroke-opacity:1;paint-order:markers fill stroke" />
      <path
         style="fill:#d9b7a0;fill-opacity:1;fill-rule:evenodd;stroke:none;stroke-width:0.320587;stroke-linecap:round;stroke-linejoin:miter;stroke-miterlimit:4;stroke-dasharray:none;stroke-opacity:0.213592;paint-order:fill markers stroke"
         d="m 87.654804,-3.704167 c -1.162373,1.41e-4 -2.104627,0.942395 -2.104768,2.104768 -1.58e-4,1.162584 0.942184,2.105169 2.104768,2.10531 0.524179,-7.26e-4 1.02923,-0.296386 1.416349,-0.649802 0.387119,0.353416 0.892169,0.649076 1.416348,0.649802 1.162585,-1.41e-4 2.104926,-0.942725 2.104768,-2.10531 -1.41e-4,-1.162373 -0.942395,-2.104627 -2.104768,-2.104768 -0.524251,8.74e-4 -1.02931,0.197339 -1.416348,0.550952 -0.387038,-0.353613 -0.892098,-0.550078 -1.416349,-0.550952 z"
         id="circle976" />
      <path
         style="fill:#9a5b34;fill-opacity:1;fill-rule:evenodd;stroke:none;stroke-width:0.312428;stroke-linecap:round;stroke-linejoin:miter;stroke-miterlimit:4;stroke-dasharray:none;stroke-opacity:0;paint-order:fill markers stroke"
         d="m 83.50963,-10.246922 c -1.133066,-5.6e-5 -2.05161,0.9184901 -2.051553,2.0515551 3.17e-4,0.707472 0.423601,1.206212 1.023779,1.5807819 0.498984,-1.2975089 1.171226,-2.2216979 2.312533,-3.0153809 -0.382943,-0.3729861 -0.75019,-0.6168411 -1.284759,-0.6169561 z m 10.780739,0 c -0.532166,7.68e-4 -0.890764,0.208293 -1.27279,0.5787761 1.14087,0.793348 1.865086,1.782061 2.364199,3.0789329 0.596799,-0.3749319 0.959347,-0.9013529 0.960143,-1.6061539 5.9e-5,-1.133065 -0.918487,-2.0516111 -2.051552,-2.0515551 z"
         id="path961" />
    </g>
    <g
       id="g6594"
       clip-path="url(#clipPath6671)">
      <ellipse
         cy="6.0275412"
         cx="12.7"
         id="circle23455"
         style="opacity:1;fill:#ee3158;fill-opacity:1;fill-rule:evenodd;stroke:none;stroke-width:0.529167;stroke-linecap:square;stroke-linejoin:miter;stroke-miterlimit:4;stroke-dasharray:none;stroke-opacity:1;paint-order:markers fill stroke"
         rx="2.9860239"
         ry="3.1265838" />
      <path
         style="opacity:1;fill:#c62041;fill-opacity:1;fill-rule:evenodd;stroke:none;stroke-width:0.529167;stroke-linecap:square;stroke-linejoin:miter;stroke-miterlimit:4;stroke-dasharray:none;stroke-opacity:0.261682;paint-order:markers fill stroke"
         d="M 13.905611,3.2070394 A 3.1210285,3.1210285 0 0 1 14.708664,5.2916664 3.1210285,3.1210285 0 0 1 11.587925,8.4129231 3.1210285,3.1210285 0 0 1 10.381795,8.1700438 3.1210285,3.1210285 0 0 0 12.7,9.2066731 3.1210285,3.1210285 0 0 0 15.821258,6.0854164 3.1210285,3.1210285 0 0 0 13.905611,3.2070394 Z"
         id="circle24111" />
      <ellipse
         ry="3.1265838"
         rx="2.9860239"
         style="opacity:1;fill:none;fill-opacity:1;fill-rule:evenodd;stroke:#000000;stroke-width:0.529167;stroke-linecap:square;stroke-linejoin:miter;stroke-miterlimit:4;stroke-dasharray:none;stroke-opacity:1;paint-order:markers fill stroke"
         id="ellipse24116"
         cx="12.7"
         cy="6.0275412" />
      <circle
         style="opacity:1;fill:#ee3158;fill-opacity:1;fill-rule:evenodd;stroke:none;stroke-width:0.627991;stroke-linecap:square;stroke-linejoin:miter;stroke-miterlimit:4;stroke-dasharray:none;stroke-opacity:0.45098;paint-order:markers fill stroke"
         id="path874-5"
         cx="12.699997"
         cy="12.964583"
         r="7.4083333" />
      <path
         style="opacity:1;fill:#c62041;fill-opacity:1;fill-rule:evenodd;stroke:#4078ff;stroke-width:0;stroke-linecap:square;stroke-linejoin:miter;stroke-miterlimit:4;stroke-dasharray:none;stroke-opacity:0.261682;paint-order:markers fill stroke"
         d="M 16.795874,6.7964844 A 7.4083314,7.4083314 0 0 1 18.25625,11.199317 7.4083314,7.4083314 0 0 1 10.847917,18.60765 7.4083314,7.4083314 0 0 1 6.7520423,17.367416 7.4083314,7.4083314 0 0 0 12.7,20.372917 7.4083314,7.4083314 0 0 0 20.108333,12.964584 7.4083314,7.4083314 0 0 0 16.795874,6.7964844 Z"
         id="circle24118" />
      <circle
         style="opacity:1;fill:#000000;fill-opacity:0;fill-rule:evenodd;stroke:#000000;stroke-width:0.529167;stroke-linecap:square;stroke-linejoin:miter;stroke-miterlimit:4;stroke-dasharray:none;stroke-opacity:1;paint-order:markers fill stroke"
         id="circle3988-5"
         cx="12.700001"
         cy="12.964581"
         r="7.4083314" />
      <path
         id="path1656"
         d="m 12.568666,13.314427 c -2.235199,0.04197 -3.5186234,1.121443 -4.1890604,2.342175 1.354158,-0.237557 2.6124194,-0.501459 4.0826284,-0.527795 1.788289,-0.02632 3.109867,0.219724 4.471099,0.48161 -0.67097,-1.106897 -2.142486,-2.333908 -4.364667,-2.29599 z"
         style="fill:#f9b9b5;fill-opacity:1;stroke:none;stroke-width:0.251434px;stroke-linecap:butt;stroke-linejoin:miter;stroke-opacity:1" />
    </g>
  </g>
</svg>
