<?xml version="1.0" encoding="UTF-8" standalone="no"?>
<svg
   xmlns:dc="http://purl.org/dc/elements/1.1/"
   xmlns:cc="http://creativecommons.org/ns#"
   xmlns:rdf="http://www.w3.org/1999/02/22-rdf-syntax-ns#"
   xmlns:svg="http://www.w3.org/2000/svg"
   xmlns="http://www.w3.org/2000/svg"
   width="256"
   height="128"
   viewBox="0 0 67.733332 33.866668"
   version="1.1"
   id="svg62">
  <metadata
     id="metadata4524">
    <rdf:RDF>
      <cc:Work
         rdf:about="">
        <dc:format>image/svg+xml</dc:format>
        <dc:type
           rdf:resource="http://purl.org/dc/dcmitype/StillImage" />
        <dc:title></dc:title>
      </cc:Work>
    </rdf:RDF>
  </metadata>
  <defs
     id="defs59">
    <clipPath
       clipPathUnits="userSpaceOnUse"
       id="clipPath1605">
      <rect
         y="25.4"
         x="0"
         height="6.3500009"
         width="16.933334"
         id="rect1607"
         style="opacity:1;fill:#004cff;fill-opacity:0.50934604;fill-rule:evenodd;stroke:none;stroke-width:4.53665924;stroke-linecap:square;stroke-linejoin:miter;stroke-miterlimit:5;stroke-dasharray:none;stroke-opacity:1;paint-order:fill markers stroke" />
    </clipPath>
    <rect
       x="2.4087665"
       y="-13.446998"
       width="25.17511"
       height="12.479337"
       id="rect2068" />
    <rect
       x="2.4087665"
       y="-13.446998"
       width="25.17511"
       height="12.479337"
       id="rect3541" />
    <rect
       x="-1.7528646"
       y="-19.14922"
       width="23.514845"
       height="12.766146"
       id="rect2074" />
    <rect
       x="-1.7528646"
       y="-19.14922"
       width="23.514845"
       height="12.766146"
       id="rect3544" />
    <clipPath
       clipPathUnits="userSpaceOnUse"
       id="clipPath5124">
      <rect
         style="opacity:1;fill:#004cff;fill-opacity:0.509346;fill-rule:evenodd;stroke:none;stroke-width:5.55625;stroke-linecap:square;stroke-linejoin:miter;stroke-miterlimit:5;stroke-dasharray:none;stroke-opacity:1;paint-order:fill markers stroke"
         id="rect5126"
         width="12.700005"
         height="12.699998"
         x="-3.2500002e-06"
         y="1.2500001e-06" />
    </clipPath>
    <clipPath
       clipPathUnits="userSpaceOnUse"
       id="clipPath5150">
      <rect
         style="opacity:1;fill:#004cff;fill-opacity:0.509346;fill-rule:evenodd;stroke:none;stroke-width:5.55625;stroke-linecap:square;stroke-linejoin:miter;stroke-miterlimit:5;stroke-dasharray:none;stroke-opacity:1;paint-order:fill markers stroke"
         id="rect5152"
         width="12.700005"
         height="12.699998"
         x="88.899994"
         y="-16.933331" />
    </clipPath>
    <clipPath
       clipPathUnits="userSpaceOnUse"
       id="clipPath6609">
      <rect
         style="opacity:1;fill:#004cff;fill-opacity:0.509346;fill-rule:evenodd;stroke:none;stroke-width:5.55625;stroke-linecap:square;stroke-linejoin:miter;stroke-miterlimit:5;stroke-dasharray:none;stroke-opacity:1;paint-order:fill markers stroke"
         id="rect6611"
         width="12.700004"
         height="12.7"
         x="-1.2500001e-06"
         y="12.700001" />
    </clipPath>
    <clipPath
       clipPathUnits="userSpaceOnUse"
       id="clipPath6671">
      <rect
         style="opacity:1;fill:#004cff;fill-opacity:0.509346;fill-rule:evenodd;stroke:none;stroke-width:5.55625;stroke-linecap:square;stroke-linejoin:miter;stroke-miterlimit:5;stroke-dasharray:none;stroke-opacity:1;paint-order:fill markers stroke"
         id="rect6673"
         width="12.700004"
         height="12.7"
         x="12.69998"
         y="12.700001" />
    </clipPath>
  </defs>
  <g
     id="layer1">
    <g
       aria-label="Made by"
       transform="matrix(1.0391195,0,0,1.0391195,6.4912887,45.542769)"
       id="text2072"
       style="font-style:italic;font-variant:normal;font-weight:bold;font-stretch:normal;font-size:2.03698px;line-height:1.25;font-family:Corbel;-inkscape-font-specification:'Corbel, Bold Italic';font-variant-ligatures:normal;font-variant-caps:normal;font-variant-numeric:normal;font-variant-east-asian:normal;text-align:start;letter-spacing:0px;word-spacing:0px;writing-mode:lr-tb;white-space:pre;shape-inside:url(#rect2074);fill:#000000;fill-opacity:1;stroke:none">
      <path
         d="m -0.96123094,-17.738068 q 0.0706179,-0.152176 0.30435344,-0.567927 l 0.22975701,-0.403815 h 0.32921893 l -0.27550949,1.3308 h -0.24268706 l 0.14223053,-0.634567 q 0.0358063,-0.159139 0.0905103,-0.377955 h -0.007957 q -0.0984673,0.210859 -0.38193373,0.710158 l -0.17505296,0.302364 H -1.1104238 l -0.1064243,-0.71911 q -0.021882,-0.14422 -0.03879,-0.293412 h -0.00796 q -0.01293,0.147203 -0.05172,0.349111 l -0.1342736,0.663411 H -1.692276 l 0.2755095,-1.3308 h 0.313305 l 0.059677,0.371987 q 0.036801,0.232741 0.0765856,0.599755 z"
         style="font-style:italic;font-variant:normal;font-weight:bold;font-stretch:normal;font-size:2.03698px;font-family:Corbel;-inkscape-font-specification:'Corbel, Bold Italic';font-variant-ligatures:normal;font-variant-caps:normal;font-variant-numeric:normal;font-variant-east-asian:normal"
         id="path1634" />
      <path
         d="m 0.75150314,-17.610756 q 0,0.02685 0.0139247,0.03879 0.0149193,0.01094 0.0407794,0.01094 0.028844,0 0.070618,-0.006 l -0.0407794,0.188977 q -0.0616664,0.01293 -0.11835967,0.01293 -0.0815588,0 -0.12432739,-0.0378 -0.041774,-0.03879 -0.0527148,-0.109408 h -0.003978 q -0.0686287,0.08454 -0.14819824,0.121343 -0.0785749,0.0368 -0.15416596,0.0368 -0.0646502,0 -0.11637044,-0.02387 -0.05172019,-0.02387 -0.08752648,-0.06763 -0.03580629,-0.04376 -0.05470405,-0.105429 -0.01889776,-0.06167 -0.01889776,-0.137258 0,-0.08056 0.01293005,-0.162123 0.01392466,-0.08156 0.04077938,-0.156155 0.02685472,-0.07559 0.06564486,-0.141236 0.03978476,-0.06564 0.09150496,-0.114381 0.0517202,-0.04874 0.11537581,-0.07659 0.0636556,-0.02785 0.13825206,-0.02785 0.0686287,0 0.1302951,0.02884 0.0616664,0.02884 0.10741886,0.09051 h 0.003978 l 0.0348117,-0.09548 h 0.20091305 l -0.13924667,0.671368 q -0.003978,0.0189 -0.005968,0.03581 -0.001989,0.01591 -0.001989,0.02487 z M 0.6142457,-18.099114 q -0.008952,-0.01293 -0.0238709,-0.02586 -0.0139247,-0.01392 -0.033817,-0.02387 -0.0188978,-0.01094 -0.0427686,-0.0179 -0.0228762,-0.007 -0.0497309,-0.007 -0.0467471,0 -0.0855372,0.02288 -0.0377955,0.02188 -0.0686287,0.05968 -0.0298386,0.0368 -0.0517202,0.08554 -0.0218816,0.04774 -0.0368009,0.09946 -0.0139247,0.05172 -0.020887,0.102446 -0.006962,0.04973 -0.006962,0.0925 0,0.08454 0.0258601,0.124327 0.0268547,0.03978 0.0775803,0.03978 0.0507256,0 0.10145115,-0.03382 0.0507256,-0.03481 0.0905103,-0.09449 0.0268547,-0.03978 0.0457525,-0.09051 0.0198924,-0.05073 0.0338171,-0.11637 z"
         style="font-style:italic;font-variant:normal;font-weight:bold;font-stretch:normal;font-size:2.03698px;font-family:Corbel;-inkscape-font-specification:'Corbel, Bold Italic';font-variant-ligatures:normal;font-variant-caps:normal;font-variant-numeric:normal;font-variant-east-asian:normal"
         id="path1636" />
      <path
         d="m 1.8475734,-17.610756 q 0,0.02288 0.011936,0.0368 0.01293,0.01293 0.042769,0.01293 0.027849,0 0.070618,-0.006 l -0.040779,0.188977 q -0.026855,0.006 -0.059677,0.009 -0.032822,0.004 -0.058682,0.004 -0.081559,0 -0.1243274,-0.0378 -0.041774,-0.03879 -0.052715,-0.109408 h -0.00398 q -0.068629,0.08454 -0.1481982,0.121343 -0.078575,0.0368 -0.154166,0.0368 -0.06465,0 -0.1163704,-0.02387 -0.05172,-0.02387 -0.087526,-0.06763 -0.035806,-0.04376 -0.054704,-0.105429 -0.018898,-0.06167 -0.018898,-0.137258 0,-0.08056 0.013925,-0.162123 0.013925,-0.08156 0.039785,-0.156155 0.026855,-0.07559 0.065645,-0.141236 0.03879,-0.06564 0.088521,-0.114381 0.050725,-0.04874 0.1113973,-0.07659 0.061666,-0.02785 0.133279,-0.02785 0.071613,0 0.1302951,0.02984 0.058682,0.02884 0.1014511,0.08952 h 0.00398 l 0.1183597,-0.571906 H 2.094239 l -0.2387086,1.147791 q -0.00398,0.0189 -0.00597,0.03581 -0.00199,0.01591 -0.00199,0.02487 z m -0.138252,-0.48438 q -0.00895,-0.01293 -0.023871,-0.02686 -0.013925,-0.01392 -0.032822,-0.02486 -0.018898,-0.01194 -0.042769,-0.0189 -0.022876,-0.008 -0.049731,-0.008 -0.046747,0 -0.085537,0.02288 -0.037796,0.02188 -0.067634,0.05968 -0.029839,0.0368 -0.052715,0.08554 -0.021882,0.04774 -0.036801,0.09946 -0.013925,0.05172 -0.020887,0.102446 -0.00696,0.04973 -0.00696,0.0925 0,0.08454 0.02586,0.124327 0.026855,0.03978 0.07758,0.03978 0.054704,0 0.1084135,-0.03879 0.053709,-0.03879 0.095483,-0.106424 0.043763,-0.0736 0.067634,-0.187983 z"
         style="font-style:italic;font-variant:normal;font-weight:bold;font-stretch:normal;font-size:2.03698px;font-family:Corbel;-inkscape-font-specification:'Corbel, Bold Italic';font-variant-ligatures:normal;font-variant-caps:normal;font-variant-numeric:normal;font-variant-east-asian:normal"
         id="path1638" />
      <path
         d="m 2.7934563,-18.103093 q 0,-0.03282 -0.02586,-0.05669 -0.02586,-0.02387 -0.078575,-0.02387 -0.039785,0 -0.081559,0.01591 -0.040779,0.01591 -0.07758,0.04774 -0.035806,0.03083 -0.06465,0.07658 -0.028844,0.04476 -0.045752,0.103441 0.1054297,0 0.1770422,-0.01393 0.071613,-0.01393 0.1153758,-0.0368 0.043763,-0.02288 0.062661,-0.05172 0.018898,-0.02984 0.018898,-0.06067 z m 0.2367194,0 q 0,0.08056 -0.039785,0.145215 -0.03879,0.06366 -0.1153758,0.109408 -0.076586,0.04476 -0.1889777,0.06863 -0.1123919,0.02387 -0.2586009,0.02387 -0.016909,0 -0.042769,-9.94e-4 v 0.006 q 0,0.05271 0.014919,0.0925 0.015914,0.03879 0.044758,0.06366 0.029839,0.02486 0.071613,0.0368 0.041774,0.01094 0.093494,0.01094 0.07758,0 0.1631175,-0.0189 0.085537,-0.0189 0.1491929,-0.05072 l -0.042769,0.206881 q -0.061666,0.02486 -0.141236,0.03978 -0.078575,0.01591 -0.1680906,0.01591 -0.1064242,0 -0.1849991,-0.02884 -0.078575,-0.02884 -0.1302951,-0.08056 -0.050726,-0.05271 -0.075591,-0.124327 -0.024866,-0.07161 -0.024866,-0.158145 0,-0.07659 0.015914,-0.152176 0.015914,-0.07559 0.046747,-0.14422 0.030833,-0.06962 0.076586,-0.128306 0.045752,-0.05968 0.1054296,-0.102446 0.060672,-0.04376 0.1352682,-0.06863 0.074597,-0.02487 0.1621229,-0.02487 0.076586,0 0.1382521,0.0189 0.061666,0.0189 0.104435,0.05371 0.043763,0.03382 0.067634,0.08255 0.023871,0.04874 0.023871,0.108413 z"
         style="font-style:italic;font-variant:normal;font-weight:bold;font-stretch:normal;font-size:2.03698px;font-family:Corbel;-inkscape-font-specification:'Corbel, Bold Italic';font-variant-ligatures:normal;font-variant-caps:normal;font-variant-numeric:normal;font-variant-east-asian:normal"
         id="path1640" />
      <path
         d="m 3.8189083,-17.755971 q -0.00597,0.02984 -0.00796,0.04675 -9.946e-4,0.01591 -9.946e-4,0.02884 0,0.06067 0.028844,0.09747 0.029838,0.03581 0.087526,0.03581 0.048736,0 0.089516,-0.02089 0.040779,-0.02089 0.073602,-0.0557 0.033817,-0.03581 0.059677,-0.08156 0.02586,-0.04675 0.042769,-0.09747 0.017903,-0.05172 0.026855,-0.10344 0.00895,-0.05271 0.00895,-0.09946 0,-0.03382 -0.00796,-0.06366 -0.00696,-0.03083 -0.022876,-0.05371 -0.014919,-0.02387 -0.040779,-0.0368 -0.024865,-0.01393 -0.060672,-0.01393 -0.032822,0 -0.070618,0.01393 -0.036801,0.01393 -0.070618,0.04476 -0.032822,0.03083 -0.060672,0.07857 -0.026855,0.04675 -0.040779,0.114381 z m 0.1322843,-0.645508 q -0.017903,0.07758 -0.036801,0.145215 h 0.00398 q 0.017903,-0.02089 0.042769,-0.03978 0.024865,-0.01989 0.055699,-0.03581 0.030833,-0.01591 0.067634,-0.02487 0.036801,-0.0099 0.078575,-0.0099 0.061666,0 0.1163704,0.02188 0.055699,0.02188 0.096478,0.06564 0.040779,0.04277 0.06465,0.107418 0.023871,0.06465 0.023871,0.150188 0,0.0736 -0.014919,0.152177 -0.013925,0.07758 -0.043763,0.152176 -0.028844,0.0746 -0.074596,0.140242 -0.045752,0.06564 -0.1084135,0.115375 -0.061666,0.04973 -0.1422305,0.07858 -0.079569,0.02884 -0.1780368,0.02884 -0.07758,0 -0.1382521,-0.02387 -0.060672,-0.02387 -0.1034404,-0.06465 -0.041774,-0.04078 -0.06465,-0.09648 -0.021882,-0.05669 -0.021882,-0.120349 0,-0.02586 0.00298,-0.05271 0.00298,-0.02785 0.011936,-0.07261 l 0.2158323,-1.034404 h 0.2347301 z"
         style="font-style:italic;font-variant:normal;font-weight:bold;font-stretch:normal;font-size:2.03698px;font-family:Corbel;-inkscape-font-specification:'Corbel, Bold Italic';font-variant-ligatures:normal;font-variant-caps:normal;font-variant-numeric:normal;font-variant-east-asian:normal"
         id="path1642" />
      <path
         d="m 4.600679,-18.342796 h 0.2397032 l 0.088521,0.422713 q 0.028844,0.139247 0.047742,0.255617 h 0.00597 q 0.055699,-0.115376 0.1233328,-0.241692 l 0.237714,-0.436638 h 0.2655633 l -0.5659383,0.996608 q -0.056693,0.09946 -0.1143812,0.18301 -0.056693,0.08355 -0.1243274,0.143225 -0.067634,0.06067 -0.1491929,0.09449 -0.081559,0.03382 -0.1849991,0.03382 -0.076586,0 -0.125322,-0.01293 l 0.039785,-0.186988 q 0.037796,0.007 0.076586,0.007 0.056693,0 0.1024458,-0.01989 0.046747,-0.0189 0.087527,-0.05769 0.041774,-0.03879 0.080564,-0.09747 0.03879,-0.05769 0.081559,-0.136263 z"
         style="font-style:italic;font-variant:normal;font-weight:bold;font-stretch:normal;font-size:2.03698px;font-family:Corbel;-inkscape-font-specification:'Corbel, Bold Italic';font-variant-ligatures:normal;font-variant-caps:normal;font-variant-numeric:normal;font-variant-east-asian:normal"
         id="path1644" />
    </g>
    <g
       aria-label="whis"
       transform="translate(0.84336008,41.258462)"
       id="text2064"
       style="font-style:normal;font-variant:normal;font-weight:normal;font-stretch:normal;font-size:3.52778px;line-height:1.25;font-family:'Know Your Product';-inkscape-font-specification:'Know Your Product, Normal';font-variant-ligatures:normal;font-variant-caps:normal;font-variant-numeric:normal;font-variant-east-asian:normal;text-align:start;letter-spacing:0px;word-spacing:0px;writing-mode:lr-tb;white-space:pre;shape-inside:url(#rect2068);fill:#fcdc56;fill-opacity:1;stroke:#b66314;stroke-width:0.529167;stroke-linejoin:round;stroke-miterlimit:4;stroke-dasharray:none;stroke-opacity:1;paint-order:stroke fill markers">
      <path
         d="m 2.6717531,-12.844813 q -0.1929255,0.199816 -0.1722549,0.430638 l 0.065457,0.106798 0.086127,0.280775 0.063734,0.106798 0.043064,0.108521 0.043064,0.06373 0.022393,0.08613 q 0.068902,0.09646 0.084405,0.192926 l 0.043064,0.06546 0.043064,0.149861 q 0.1240236,0.151585 0.1722549,0.280776 l 0.022393,0.106798 v 0.258382 l 0.020671,0.129191 q 0.08096,0.07579 0.1085206,0.151585 0.1016304,0.02067 0.1722549,0.02067 h 0.063734 l 0.065457,0.02239 q 0.1774225,0 0.301446,0.02067 0.1171333,-0.167087 0.1291912,-0.322117 -0.1085206,-0.156752 -0.1515843,-0.280775 l -0.063734,-0.106798 -0.022393,-0.151584 q -0.08096,-0.149862 -0.086127,-0.279053 -0.1291912,-0.220487 -0.1722549,-0.408244 l -0.043064,-0.06546 -0.020671,-0.08613 v -0.06373 l -0.043064,-0.08613 -0.022393,-0.06546 -0.020671,-0.08613 -0.1946481,-0.537435 -0.043064,-0.02239 q -0.2738852,0.05512 -0.4943715,-0.02067 z m 1.1833911,0.02067 q -0.1877579,0.248047 -0.1722549,0.516765 l 0.043064,0.04306 0.022393,0.06546 q 0.091295,0.144694 0.1067981,0.279053 l 0.043064,0.02239 q 0.1825902,0.41858 0.2377117,0.70969 l 0.043064,0.172255 q 0.1498618,0.225654 0.1498618,0.451308 0.106798,0.118856 0.1498617,0.237712 0.4306373,0.0689 0.7544764,-0.02239 0.020671,-0.101631 0.020671,-0.172255 -0.053399,-0.167088 -0.106798,-0.258383 -0.091295,-0.155029 -0.1291912,-0.279053 l -0.022393,-0.08613 -0.063734,-0.08613 q -0.048231,-0.151585 -0.065457,-0.258383 -0.068902,-0.08613 -0.106798,-0.172255 l -0.022393,-0.06373 v -0.06546 l -0.043064,-0.06373 v -0.06546 Q 4.5596666,-12.167851 4.5011,-12.350441 q 0.015503,-0.124024 0,-0.215319 -0.086127,-0.0913 -0.106798,-0.192925 l -0.065457,-0.02239 q -0.26355,0.02239 -0.4737009,-0.04306 z m 1.3556459,0.06546 -0.043064,0.06373 q -0.025838,0.220486 -0.086127,0.366903 -0.025838,0.177423 -0.106798,0.322117 v 0.06546 l 0.043064,0.06373 0.043064,0.151584 q 0.053399,0.08613 0.063734,0.170532 l 0.043064,0.04306 v 0.06546 q 0.1464166,0.215319 0.194648,0.430637 l 0.086127,0.06373 0.106798,-0.387574 0.022393,-0.08613 0.043064,-0.08613 0.020671,-0.106798 0.043064,-0.08613 0.022393,-0.106798 0.020671,-0.06546 q 0.037896,-0.111966 0.043064,-0.192926 0.1825902,-0.318671 0.2153186,-0.602892 l -0.106798,-0.129191 q -0.3341745,0.0534 -0.6028921,0 z"
         style="font-style:normal;font-variant:normal;font-weight:normal;font-stretch:normal;font-size:3.52778px;font-family:'Know Your Product';-inkscape-font-specification:'Know Your Product, Normal';font-variant-ligatures:normal;font-variant-caps:normal;font-variant-numeric:normal;font-variant-east-asian:normal;fill:#fcdc56;fill-opacity:1;stroke:#b66314;stroke-width:0.529167;stroke-linejoin:round;stroke-miterlimit:4;stroke-dasharray:none;stroke-opacity:1;paint-order:stroke fill markers"
         id="path1647" />
      <path
         d="m 6.955732,-12.862038 q -0.022393,0.0379 -0.044786,0.04479 -0.2876656,-0.05512 -0.4857588,0.06546 l -0.044786,0.132636 0.022393,0.110243 -0.022393,0.132637 q 0.010335,0.03445 0,0.06718 v 0.06546 q 0.017226,0.172255 0,0.287666 l 0.022393,0.06718 v 0.618395 l 0.022393,0.04479 -0.022393,0.132637 q 0.044786,0.315226 -0.022393,0.552938 l 0.08785,0.220486 0.1774225,0.06718 q 0.210151,-0.08268 0.3979088,-0.04479 0.082682,-0.18259 0.1102431,-0.330729 -0.055121,-0.167088 -0.043064,-0.287666 v -0.08957 -0.132637 -0.110243 -0.132636 -0.08785 -0.24288 -0.08957 -0.08785 -0.06718 -0.08785 q -0.012058,-0.03273 0,-0.06546 l -0.022393,-0.177423 v -0.06718 q 0.010335,-0.160197 0.043064,-0.265273 l -0.020671,-0.132636 q -0.072347,-0.08785 -0.1550294,-0.110243 z m 1.8793008,0 q -0.2652725,0.08785 -0.5081519,0.02239 l -0.1550294,0.08785 -0.022393,0.06718 v 0.530545 l 0.022393,0.110244 0.022393,0.375515 q -0.012058,0.18259 0.022393,0.332452 l -0.022393,0.06546 v 0.222209 q -0.027561,0.392741 0,0.640788 0.037896,0.02239 0.043064,0.04479 0.089573,0.03273 0.1774226,0.02239 h 0.08785 q 0.2049833,0.04995 0.354845,0.04306 l 0.08785,-0.110243 0.022393,-0.132636 v -0.110243 q -0.044786,-0.165365 -0.044786,-0.287666 l 0.022393,-0.132636 q -0.027561,-0.270441 0.022393,-0.465089 v -0.06546 q -0.022393,-0.03273 -0.022393,-0.06718 v -0.220486 l -0.022393,-0.06718 0.022393,-0.06546 v -0.06718 -0.1757 q -0.015503,-0.199815 0.022393,-0.354845 -0.044786,-0.148139 -0.1326363,-0.242879 z m -1.4159352,0.995633 -0.1326362,0.110243 q -0.032729,0.310059 0.067179,0.552938 l 0.4857588,-0.04479 0.067179,0.02239 q 0.1756999,-0.342787 0.065457,-0.640788 -0.2928333,0.0155 -0.5081519,-0.04479 z"
         style="font-style:normal;font-variant:normal;font-weight:normal;font-stretch:normal;font-size:3.52778px;font-family:'Know Your Product';-inkscape-font-specification:'Know Your Product, Normal';font-variant-ligatures:normal;font-variant-caps:normal;font-variant-numeric:normal;font-variant-east-asian:normal;fill:#fcdc56;fill-opacity:1;stroke:#b66314;stroke-width:0.529167;stroke-linejoin:round;stroke-miterlimit:4;stroke-dasharray:none;stroke-opacity:1;paint-order:stroke fill markers"
         id="path1649" />
      <path
         d="m 9.362133,-12.753518 v 0.06373 q 0,0.141249 -0.022393,0.239434 0.022393,0.111966 0,0.215319 l 0.022393,0.10852 -0.022393,0.08613 v 0.606337 l 0.022393,0.06373 v 0.54088 q 0,0.16192 -0.022393,0.260105 l 0.022393,0.129192 q 0.048231,0.10852 0.106798,0.172254 h 0.065457 l 0.065457,0.02239 q 0.1722549,-0.08096 0.3669029,-0.04306 0.048231,-0.173978 0.1085201,-0.280776 v -0.151584 l -0.02239,-0.108521 -0.02067,-0.151584 0.02067,-0.04306 q -0.02067,-0.03273 -0.02067,-0.06546 v -0.258383 q -0.02239,-0.07062 -0.02239,-0.130913 l 0.02239,-0.08613 v -0.08613 -0.237712 -0.08613 -0.08785 -0.08613 -0.06373 -0.08785 q 0,-0.106798 -0.02239,-0.172255 0.02239,-0.204983 0,-0.346232 l -0.043063,-0.02067 q -0.2859431,0.03101 -0.4978166,-0.02239 z"
         style="font-style:normal;font-variant:normal;font-weight:normal;font-stretch:normal;font-size:3.52778px;font-family:'Know Your Product';-inkscape-font-specification:'Know Your Product, Normal';font-variant-ligatures:normal;font-variant-caps:normal;font-variant-numeric:normal;font-variant-east-asian:normal;fill:#fcdc56;fill-opacity:1;stroke:#b66314;stroke-width:0.529167;stroke-linejoin:round;stroke-miterlimit:4;stroke-dasharray:none;stroke-opacity:1;paint-order:stroke fill markers"
         id="path1651" />
      <path
         d="m 11.660013,-12.777633 -0.02239,0.04479 q 0.01206,0.08268 0,0.155029 v 0.311782 q 0.218763,0.09474 0.268717,0.268717 l 0.110243,0.04479 q 0.184313,-0.02928 0.334175,0 0.458198,-0.630453 -0.53399,-0.892281 z m -0.334175,-0.04479 q -0.03273,0.02239 -0.06546,0.02239 h -0.179145 q -0.134358,0.05512 -0.244602,0.04479 -0.713135,0.685574 0.02239,1.224732 l 0.06718,0.04479 0.06546,0.06718 0.08957,0.02239 0.06718,0.06718 q 0.03962,0.02239 0.04479,0.04479 l 0.04479,0.02239 q 0.366903,0.137804 0.578777,0.334174 -0.339342,0.327284 -0.111966,0.623563 0.296278,0.07235 0.468533,-0.134359 0.329007,-0.18259 0.334175,-0.53399 0,-0.211874 -0.04479,-0.356568 -0.117134,-0.117133 -0.177423,-0.223931 -0.139526,-0.02756 -0.223931,-0.08785 -0.08268,-0.04995 -0.132637,-0.111966 l -0.08957,-0.02239 -0.08957,-0.02239 -0.132636,-0.08957 q -0.241157,-0.03273 -0.401354,-0.110243 v -0.134358 q 0.289388,-0.329007 0.110243,-0.690743 z m -0.912951,1.894804 q 0.234267,0.745864 0.935344,0.668349 0.284221,-0.311781 -0.155029,-0.645956 l -0.02239,-0.156752 -0.06718,-0.06718 q -0.301447,0.02756 -0.51332,-0.04479 z"
         style="font-style:normal;font-variant:normal;font-weight:normal;font-stretch:normal;font-size:3.52778px;font-family:'Know Your Product';-inkscape-font-specification:'Know Your Product, Normal';font-variant-ligatures:normal;font-variant-caps:normal;font-variant-numeric:normal;font-variant-east-asian:normal;fill:#fcdc56;fill-opacity:1;stroke:#b66314;stroke-width:0.529167;stroke-linejoin:round;stroke-miterlimit:4;stroke-dasharray:none;stroke-opacity:1;paint-order:stroke fill markers"
         id="path1653" />
    </g>
    <path
       style="fill:#000000;fill-opacity:1;stroke:#000000;stroke-width:1.5875;stroke-linecap:butt;stroke-linejoin:miter;stroke-miterlimit:4;stroke-dasharray:none;stroke-opacity:1"
       d="m 37.831075,7.5386615 -10e-6,-1.5875 1.26917,-1.0533691 0.0537,2.6408681 z"
       id="path5138" />
    <g
       id="g6537"
       clip-path="url(#clipPath6609)">
      <circle
         r="7.4083314"
         cy="12.964583"
         cx="12.699997"
         id="circle3982"
         style="opacity:1;fill:#4d9f45;fill-opacity:1;fill-rule:evenodd;stroke:#004bff;stroke-width:0;stroke-linecap:square;stroke-linejoin:miter;stroke-miterlimit:4;stroke-dasharray:none;stroke-opacity:0.509804;paint-order:markers fill stroke" />
      <path
         id="path855"
         d="M 16.529223,6.6331862 A 7.4083314,7.4083314 0 0 1 18.25625,11.377083 7.4083314,7.4083314 0 0 1 10.847916,18.785417 7.4083314,7.4083314 0 0 1 7.0186922,17.70848 7.4083314,7.4083314 0 0 0 12.7,20.372917 7.4083314,7.4083314 0 0 0 20.108333,12.964583 7.4083314,7.4083314 0 0 0 16.529223,6.6331862 Z"
         style="opacity:1;fill:#4f7636;fill-opacity:1;fill-rule:evenodd;stroke:#4078ff;stroke-width:0;stroke-linecap:square;stroke-linejoin:miter;stroke-miterlimit:4;stroke-dasharray:none;stroke-opacity:0.261682;paint-order:markers fill stroke" />
      <path
         style="fill:#4d3c16;fill-opacity:1;stroke:none;stroke-width:0.264583px;stroke-linecap:butt;stroke-linejoin:miter;stroke-opacity:1"
         d="m 11.748636,12.090735 c -0.685019,0 -4.3007648,1.881083 -6.0476918,3.275253 a 7.4083314,7.4083314 0 0 0 0.718817,1.52032 c 1.212181,-1.851453 5.3288748,-4.795573 5.3288748,-4.795573 z m 2.538863,0 c 0,0 3.458834,2.476431 4.967139,4.315499 a 7.4083314,7.4083314 0 0 0 0.567407,-1.427303 c -1.861944,-1.331025 -4.911426,-2.888196 -5.534546,-2.888196 z m -3.439584,2.725932 c -0.798637,0.460589 -2.3761538,1.891285 -3.5894458,3.164665 a 7.4083314,7.4083314 0 0 0 0.832509,0.774113 z"
         id="path2205" />
      <path
         style="opacity:1;fill:#452710;fill-opacity:1;fill-rule:evenodd;stroke:#4078ff;stroke-width:0;stroke-linecap:square;stroke-linejoin:miter;stroke-miterlimit:4;stroke-dasharray:none;stroke-opacity:0.261682;paint-order:markers fill stroke"
         d="m 67.540985,51.920545 c -0.397165,1.171385 -0.864138,2.322384 -1.412549,3.431045 2.521162,2.227619 4.912029,4.543219 6.645002,6.656222 0.899822,-1.719016 1.618527,-3.526907 2.144531,-5.394531 -2.173168,-1.553506 -4.750014,-3.1747 -7.376984,-4.692736 z M 27.759766,67.626953 c -0.09896,0.103029 -0.204981,0.20801 -0.302735,0.310547 0.147183,0.163208 0.296282,0.324678 0.447266,0.484375 0.354711,0.367989 0.719431,0.726196 1.09375,1.074219 0.414751,0.391852 0.841382,0.770935 1.279297,1.136718 0.100313,0.08535 0.201227,0.169984 0.302734,0.253907 l 1.063677,-1.519606 c -1.343016,-0.470275 -2.627923,-1.071467 -3.883989,-1.74016 z"
         transform="scale(0.26458334)"
         id="path857" />
      <circle
         style="opacity:1;fill:#000000;fill-opacity:0;fill-rule:evenodd;stroke:#000000;stroke-width:0.529167;stroke-linecap:square;stroke-linejoin:miter;stroke-miterlimit:4;stroke-dasharray:none;stroke-opacity:1;paint-order:markers fill stroke"
         id="circle3988"
         cx="12.699997"
         cy="12.964583"
         r="7.4083314" />
    </g>
    <path
       style="fill:#ce8c63;fill-opacity:1;fill-rule:evenodd;stroke:none;stroke-width:0.485089;stroke-linecap:round;stroke-linejoin:round;paint-order:markers fill stroke"
       d="m 57.310296,4.6197583 c 0.006,1.292484 -0.30361,2.007077 -1.74266,1.999794 -1.333389,-0.0067 -2.659459,-0.540676 -2.65031,-1.833153 0.009,-1.32067 1.218491,-2.140251 2.548311,-2.136539 1.432798,0.004 1.839319,0.78851 1.844659,1.969898 z"
       id="path1251" />
    <path
       style="fill:#a5704f;fill-opacity:1;fill-rule:evenodd;stroke:none;stroke-width:0.485089;stroke-linecap:round;stroke-linejoin:round;paint-order:markers fill stroke"
       d="m 57.031666,3.3491463 a 3.5864472,3.5864472 0 0 1 -2.836519,3.046843 c 0.41578,0.149448 0.89317,0.221351 1.372529,0.223759 1.43905,0.0073 1.748531,-0.707393 1.74253,-1.999877 -0.0021,-0.506913 -0.0791,-0.940258 -0.27854,-1.270725 z"
       id="path1262" />
    <path
       id="path1260"
       d="m 63.953256,1.9799643 c -0.817269,-0.0023 -1.60492,0.243865 -2.214589,0.723469 -0.609672,0.479602 -1.029642,1.219981 -1.03555,2.086918 -0.006,0.873902 0.491619,1.57527 1.140298,1.961431 0.64869,0.386165 1.43541,0.534056 2.212962,0.537961 0.85235,0.0043 1.541468,-0.235436 1.94015,-0.762746 0.39869,-0.52731 0.4655,-1.182211 0.462129,-1.909601 -0.003,-0.687177 -0.11662,-1.344791 -0.536331,-1.858315 -0.419709,-0.513522 -1.11088,-0.776719 -1.969069,-0.779117 z"
       style="color:#000000;font-style:normal;font-variant:normal;font-weight:normal;font-stretch:normal;font-size:medium;line-height:normal;font-family:sans-serif;font-variant-ligatures:normal;font-variant-position:normal;font-variant-caps:normal;font-variant-numeric:normal;font-variant-alternates:normal;font-feature-settings:normal;text-indent:0;text-align:start;text-decoration:none;text-decoration-line:none;text-decoration-style:solid;text-decoration-color:#000000;letter-spacing:normal;word-spacing:normal;text-transform:none;writing-mode:lr-tb;direction:ltr;text-orientation:mixed;dominant-baseline:auto;baseline-shift:baseline;text-anchor:start;white-space:normal;shape-padding:0;clip-rule:nonzero;display:inline;overflow:visible;visibility:visible;opacity:1;isolation:auto;mix-blend-mode:normal;color-interpolation:sRGB;color-interpolation-filters:linearRGB;solid-color:#000000;solid-opacity:1;vector-effect:none;fill:#000000;fill-opacity:1;fill-rule:evenodd;stroke:none;stroke-width:1.11739;stroke-linecap:round;stroke-linejoin:round;stroke-miterlimit:4;stroke-dasharray:none;stroke-dashoffset:0;stroke-opacity:1;paint-order:markers fill stroke;color-rendering:auto;image-rendering:auto;shape-rendering:auto;text-rendering:auto;enable-background:accumulate" />
    <path
       style="fill:none;fill-opacity:1;stroke:#000000;stroke-width:0.565;stroke-linecap:round;stroke-linejoin:miter;stroke-miterlimit:4;stroke-dasharray:none;stroke-opacity:1"
       d="m 54.858586,28.591915 0.008,2.485918"
       id="path1304-7" />
    <path
       id="path1306-6"
       d="m 56.105345,29.831074 -2.485919,0.008"
       style="fill:none;fill-opacity:1;stroke:#000000;stroke-width:0.565;stroke-linecap:round;stroke-linejoin:miter;stroke-miterlimit:4;stroke-dasharray:none;stroke-opacity:1" />
    <path
       style="opacity:1;fill:none;fill-opacity:1;stroke:#000000;stroke-width:0.580552;stroke-linecap:round;stroke-linejoin:miter;stroke-miterlimit:4;stroke-dasharray:none;stroke-opacity:1"
       d="m 45.062546,30.359587 c 0.07395,-2.31027 3.002053,-2.28095 3.172863,0"
       id="path1312-6" />
    <path
       style="opacity:1;fill:none;fill-opacity:1;stroke:#000000;stroke-width:0.580552;stroke-linecap:round;stroke-linejoin:round;stroke-miterlimit:4;stroke-dasharray:none;stroke-opacity:1"
       d="m 36.169442,30.429097 3.595333,-0.0181 -1.841318,-2.05067"
       id="path1314-9" />
    <ellipse
       cx="63.637104"
       cy="29.755157"
       rx="1.3125569"
       ry="2.3420944"
       id="ellipse1328-6"
       style="fill:#000000;fill-opacity:1;fill-rule:evenodd;stroke:none;stroke-width:0.70287;stroke-linecap:round;stroke-linejoin:round;paint-order:markers fill stroke" />
    <ellipse
       style="fill:#ffffff;fill-opacity:1;fill-rule:evenodd;stroke:none;stroke-width:0.478035;stroke-linecap:round;stroke-linejoin:round;paint-order:markers fill stroke"
       id="ellipse1330-1"
       ry="1.7926877"
       rx="0.79320657"
       cy="29.753685"
       cx="63.619984" />
    <path
       id="path1332-5"
       d="m 29.292276,27.939387 a 1.1515931,2.1166668 0 0 0 -0.717272,1.95854 1.1515931,2.1166668 0 0 0 1.15135,2.11666 1.1515931,2.1166668 0 0 0 1.151872,-2.11666 1.1515931,2.1166668 0 0 0 -0.003,-0.13333 z"
       style="fill:#000000;fill-opacity:1;fill-rule:evenodd;stroke:none;stroke-width:0.625878;stroke-linecap:round;stroke-linejoin:round;paint-order:markers fill stroke" />
    <ellipse
       style="fill:#000000;fill-opacity:1;fill-rule:evenodd;stroke:none;stroke-width:0.625878;stroke-linecap:round;stroke-linejoin:round;paint-order:markers fill stroke"
       id="ellipse1964-5"
       ry="2.1166668"
       rx="1.1515931"
       cy="29.897949"
       cx="21.259912" />
    <path
       style="color:#000000;font-style:normal;font-variant:normal;font-weight:normal;font-stretch:normal;font-size:medium;line-height:normal;font-family:sans-serif;font-variant-ligatures:normal;font-variant-position:normal;font-variant-caps:normal;font-variant-numeric:normal;font-variant-alternates:normal;font-feature-settings:normal;text-indent:0;text-align:start;text-decoration:none;text-decoration-line:none;text-decoration-style:solid;text-decoration-color:#000000;letter-spacing:normal;word-spacing:normal;text-transform:none;writing-mode:lr-tb;direction:ltr;text-orientation:mixed;dominant-baseline:auto;baseline-shift:baseline;text-anchor:start;white-space:normal;shape-padding:0;clip-rule:nonzero;display:inline;overflow:visible;visibility:visible;opacity:1;isolation:auto;mix-blend-mode:normal;color-interpolation:sRGB;color-interpolation-filters:linearRGB;solid-color:#000000;solid-opacity:1;vector-effect:none;fill:#000000;fill-opacity:1;fill-rule:evenodd;stroke:none;stroke-width:7;stroke-linecap:round;stroke-linejoin:round;stroke-miterlimit:4;stroke-dasharray:none;stroke-dashoffset:0;stroke-opacity:1;paint-order:markers fill stroke;color-rendering:auto;image-rendering:auto;shape-rendering:auto;text-rendering:auto;enable-background:accumulate"
       d="m 222.36523,72.208984 c -3.80046,-0.0057 -6.78861,1.146914 -8.72656,2.931641 -1.93795,1.784731 -2.70871,3.942543 -2.91601,5.625 -0.31563,2.561359 1.11867,4.983027 2.82031,6.207031 1.70163,1.224004 3.63264,1.720703 5.58789,1.720703 h 10.48242 c 1.63441,0 3.50474,-0.26257 5.44141,-1.128906 0.96833,-0.433168 1.97731,-1.030406 2.84961,-2.060547 0.87229,-1.03014 1.50542,-2.635598 1.38672,-4.214844 -0.14249,-1.895678 -1.14423,-3.473461 -2.31055,-4.591796 -1.16633,-1.118336 -2.54198,-1.913333 -4.06055,-2.552735 -3.03714,-1.27881 -6.70407,-1.929186 -10.55469,-1.935547 z"
       transform="scale(0.26458334)"
       id="path2194" />
    <path
       style="color:#000000;font-style:normal;font-variant:normal;font-weight:normal;font-stretch:normal;font-size:medium;line-height:normal;font-family:sans-serif;font-variant-ligatures:normal;font-variant-position:normal;font-variant-caps:normal;font-variant-numeric:normal;font-variant-alternates:normal;font-feature-settings:normal;text-indent:0;text-align:start;text-decoration:none;text-decoration-line:none;text-decoration-style:solid;text-decoration-color:#000000;letter-spacing:normal;word-spacing:normal;text-transform:none;writing-mode:lr-tb;direction:ltr;text-orientation:mixed;dominant-baseline:auto;baseline-shift:baseline;text-anchor:start;white-space:normal;shape-padding:0;clip-rule:nonzero;display:inline;overflow:visible;visibility:visible;opacity:1;isolation:auto;mix-blend-mode:normal;color-interpolation:sRGB;color-interpolation-filters:linearRGB;solid-color:#000000;solid-opacity:1;vector-effect:none;fill:#e9f4f1;fill-opacity:1;fill-rule:evenodd;stroke:none;stroke-width:0.396875;stroke-linecap:round;stroke-linejoin:round;stroke-miterlimit:4;stroke-dasharray:none;stroke-dashoffset:0;stroke-opacity:1;paint-order:markers fill stroke;color-rendering:auto;image-rendering:auto;shape-rendering:auto;text-rendering:auto;enable-background:accumulate"
       d="m 58.834135,11.365198 c -0.868166,-0.0013 -1.449374,0.249886 -1.814359,0.586011 -0.364982,0.336125 -0.508561,0.743519 -0.545184,1.040763 -0.05009,0.406489 0.156493,0.751311 0.451133,0.963249 0.29464,0.211938 0.677063,0.31626 1.053166,0.31626 h 2.772958 c 0.327395,0 0.764582,-0.06553 1.142566,-0.234611 0.188992,-0.08454 0.364638,-0.194089 0.496094,-0.349333 0.131455,-0.155244 0.21246,-0.363887 0.195336,-0.591695 -0.02122,-0.282364 -0.169614,-0.534159 -0.388607,-0.744141 -0.21899,-0.209981 -0.51037,-0.385342 -0.853178,-0.529683 -0.685615,-0.288683 -1.578059,-0.45528 -2.509925,-0.45682 z"
       id="path2242" />
    <path
       style="opacity:1;fill:#bac3c1;fill-opacity:1;fill-rule:evenodd;stroke:none;stroke-width:1.72329;stroke-linecap:square;stroke-linejoin:miter;stroke-miterlimit:4;stroke-dasharray:none;stroke-opacity:1;paint-order:fill markers stroke"
       d="m 224.50195,51.117188 a 11.932426,5.2497829 0 0 0 -9.02343,1.818359 c 1.06429,0.660519 2.36256,1.003906 3.65429,1.003906 h 10.48047 c 1.20783,0 2.80835,-0.24206 4.21289,-0.847656 a 11.932426,5.2497829 0 0 0 -9.32422,-1.974609 z"
       transform="scale(0.26458334)"
       id="path2258" />
    <path
       style="color:#000000;font-style:normal;font-variant:normal;font-weight:normal;font-stretch:normal;font-size:medium;line-height:normal;font-family:sans-serif;font-variant-ligatures:normal;font-variant-position:normal;font-variant-caps:normal;font-variant-numeric:normal;font-variant-alternates:normal;font-feature-settings:normal;text-indent:0;text-align:start;text-decoration:none;text-decoration-line:none;text-decoration-style:solid;text-decoration-color:#000000;letter-spacing:normal;word-spacing:normal;text-transform:none;writing-mode:lr-tb;direction:ltr;text-orientation:mixed;dominant-baseline:auto;baseline-shift:baseline;text-anchor:start;white-space:normal;shape-padding:0;clip-rule:nonzero;display:inline;overflow:visible;visibility:visible;opacity:1;isolation:auto;mix-blend-mode:normal;color-interpolation:sRGB;color-interpolation-filters:linearRGB;solid-color:#000000;solid-opacity:1;vector-effect:none;fill:#000000;fill-opacity:1;fill-rule:evenodd;stroke:none;stroke-width:4;stroke-linecap:round;stroke-linejoin:round;stroke-miterlimit:4;stroke-dasharray:none;stroke-dashoffset:0;stroke-opacity:1;paint-order:markers fill stroke;color-rendering:auto;image-rendering:auto;shape-rendering:auto;text-rendering:auto;enable-background:accumulate"
       d="m 222.36523,41.707031 c -3.51726,-0.0053 -6.0737,1.034883 -7.70703,2.539063 -1.63332,1.504184 -2.28143,3.325589 -2.45117,4.703125 -0.24673,2.002257 0.83396,3.819213 2.21485,4.8125 1.38088,0.99329 3.04487,1.433593 4.70898,1.433593 h 10.48242 c 1.41786,0 3.16858,-0.255664 4.82813,-0.998046 0.82977,-0.371188 1.65085,-0.871868 2.31836,-1.660157 0.6675,-0.788292 1.12245,-1.943384 1.0332,-3.130859 -0.10851,-1.443787 -0.87191,-2.689636 -1.85352,-3.630859 -0.98161,-0.941224 -2.20458,-1.655933 -3.60156,-2.244141 -2.79395,-1.176412 -6.30128,-1.818153 -9.97266,-1.824219 z m -0.004,2 c 6.86478,0.01134 13.18651,2.48263 13.43945,5.847657 0.19998,2.660485 -3.93122,3.638671 -6.18945,3.638671 h -10.48242 c -2.55185,0 -5.24333,-1.486425 -4.9336,-4 0.23928,-1.941959 1.88668,-5.495625 8.16602,-5.486328 z"
       transform="scale(0.26458334)"
       id="path2240" />
    <path
       style="color:#000000;font-style:normal;font-variant:normal;font-weight:normal;font-stretch:normal;font-size:medium;line-height:normal;font-family:sans-serif;font-variant-ligatures:normal;font-variant-position:normal;font-variant-caps:normal;font-variant-numeric:normal;font-variant-alternates:normal;font-feature-settings:normal;text-indent:0;text-align:start;text-decoration:none;text-decoration-line:none;text-decoration-style:solid;text-decoration-color:#000000;letter-spacing:normal;word-spacing:normal;text-transform:none;writing-mode:lr-tb;direction:ltr;text-orientation:mixed;dominant-baseline:auto;baseline-shift:baseline;text-anchor:start;white-space:normal;shape-padding:0;clip-rule:nonzero;display:inline;overflow:visible;visibility:visible;opacity:1;isolation:auto;mix-blend-mode:normal;color-interpolation:sRGB;color-interpolation-filters:linearRGB;solid-color:#000000;solid-opacity:1;vector-effect:none;fill:#000000;fill-opacity:1;fill-rule:evenodd;stroke:none;stroke-width:1.05833;stroke-linecap:round;stroke-linejoin:round;stroke-miterlimit:4;stroke-dasharray:none;stroke-dashoffset:0;stroke-opacity:1;paint-order:markers fill stroke;color-rendering:auto;image-rendering:auto;shape-rendering:auto;text-rendering:auto;enable-background:accumulate"
       d="m 55.466907,2.1202803 c -0.774071,-0.0022 -1.5201,0.230974 -2.09754,0.685231 -0.577451,0.454253 -0.975231,1.155505 -0.980821,1.976623 -0.006,0.827715 0.465629,1.492015 1.080029,1.857767 0.61441,0.365755 1.359551,0.50583 2.096,0.509529 0.807302,0.0041 1.46,-0.222993 1.837611,-0.722434 0.377621,-0.499443 0.440901,-1.11973 0.43771,-1.808676 -0.003,-0.650859 -0.110461,-1.273715 -0.507989,-1.760101 -0.397521,-0.486381 -1.052161,-0.735666 -1.865,-0.737939 z m -0.01029,0.581877 c 1.39505,0.0039 1.79056,0.767972 1.795759,1.918229 0.006,1.258428 -0.29541,1.953742 -1.69654,1.946651 -1.29826,-0.0065 -2.589628,-0.525965 -2.580719,-1.784387 0.009,-1.285872 1.186719,-2.084107 2.4815,-2.080493 z"
       id="path1253" />
    <g
       id="g4291"
       clip-path="url(#clipPath5124)">
      <path
         style="opacity:1;fill:#afdce1;fill-opacity:1;fill-rule:evenodd;stroke:#000000;stroke-width:0.529167;stroke-linecap:square;stroke-linejoin:miter;stroke-miterlimit:3.3;stroke-dasharray:none;stroke-opacity:0;paint-order:markers fill stroke"
         d="M 6.7975176,4.1754558 C 6.1413605,5.273356 5.7090035,7.8671853 5.9123003,10.005591 A 7.4083335,7.4083335 0 0 0 5.2916664,12.964584 7.4083335,7.4083335 0 0 0 12.7,20.372917 7.4083335,7.4083335 0 0 0 20.108333,12.964584 7.4083335,7.4083335 0 0 0 19.486666,10.015926 c 0.205682,-2.1403674 -0.226971,-4.7408033 -0.884184,-5.8404702 -0.316902,0 -2.776379,0.2731358 -4.409033,1.5342733 A 7.4083335,7.4083335 0 0 0 12.7,5.5562501 7.4083335,7.4083335 0 0 0 11.213786,5.7148967 C 9.5811796,4.4490951 7.114875,4.1754558 6.7975176,4.1754558 Z"
         id="circle1534" />
      <path
         style="opacity:1;fill:#0291f8;fill-opacity:0.392157;fill-rule:evenodd;stroke:none;stroke-width:0.627991;stroke-linecap:square;stroke-linejoin:miter;stroke-miterlimit:4;stroke-dasharray:none;stroke-opacity:0.45098;paint-order:markers fill stroke"
         d="m 17.414957,7.6047032 a 7.4083335,7.4083335 0 0 1 0.969967,3.6457728 7.4083335,7.4083335 0 0 1 -7.408333,7.408333 7.4083335,7.4083335 0 0 1 -4.2850088,-1.37666 7.4083335,7.4083335 0 0 0 6.0084168,3.090767 7.4083335,7.4083335 0 0 0 7.408334,-7.408333 7.4083335,7.4083335 0 0 0 -0.538985,-2.764173 c 0.0041,0.267001 0.0084,0.533937 0.0088,0.808737 A 7.152877,7.152877 0 0 0 17.414972,7.6047032 Z"
         id="circle896" />
      <path
         id="path886"
         d="m 10.579199,13.651361 a 0.52916671,0.52916671 0 0 0 -0.529166,0.529167 0.52916671,0.52916671 0 0 0 0.529166,0.529167 0.52916671,0.52916671 0 0 0 0.529167,-0.529167 0.52916671,0.52916671 0 0 0 -0.529167,-0.529167 z m 4.403349,0.174668 a 0.52916671,0.52916671 0 0 0 -0.529167,0.529166 0.52916671,0.52916671 0 0 0 0.529167,0.529167 0.52916671,0.52916671 0 0 0 0.529167,-0.529167 0.52916671,0.52916671 0 0 0 -0.529167,-0.529166 z m -7.3122152,0.06098 a 0.52916671,0.52916671 0 0 0 -0.529167,0.529167 0.52916671,0.52916671 0 0 0 0.529167,0.529167 0.52916671,0.52916671 0 0 0 0.529166,-0.529167 0.52916671,0.52916671 0 0 0 -0.529166,-0.529167 z M 17.88573,14.027051 a 0.52916671,0.52916671 0 0 0 -0.529167,0.529166 0.52916671,0.52916671 0 0 0 0.529167,0.529167 0.52916671,0.52916671 0 0 0 0.529167,-0.529167 0.52916671,0.52916671 0 0 0 -0.529167,-0.529166 z m -8.4956062,1.989026 a 0.52916671,0.52916671 0 0 0 -0.529166,0.529167 0.52916671,0.52916671 0 0 0 0.529166,0.529166 0.52916671,0.52916671 0 0 0 0.529167,-0.529166 0.52916671,0.52916671 0 0 0 -0.529167,-0.529167 z m 6.8181892,0.07803 a 0.52916671,0.52916671 0 0 0 -0.529167,0.529167 0.52916671,0.52916671 0 0 0 0.529167,0.529166 0.52916671,0.52916671 0 0 0 0.529167,-0.529166 0.52916671,0.52916671 0 0 0 -0.529167,-0.529167 z"
         style="opacity:1;fill:#fcfcfc;fill-opacity:0.501961;fill-rule:evenodd;stroke:none;stroke-width:0.0448565;stroke-linecap:square;stroke-linejoin:miter;stroke-miterlimit:4;stroke-dasharray:none;stroke-opacity:0.45098;paint-order:markers fill stroke" />
      <path
         id="path1541"
         d="M 6.7975176,4.1754558 C 6.1413605,5.273356 5.7090035,7.8671853 5.9123003,10.005591 A 7.4083335,7.4083335 0 0 0 5.2916664,12.964584 7.4083335,7.4083335 0 0 0 12.7,20.372917 7.4083335,7.4083335 0 0 0 20.108333,12.964584 7.4083335,7.4083335 0 0 0 19.486666,10.015926 c 0.205682,-2.1403674 -0.226971,-4.7408033 -0.884184,-5.8404702 -0.316902,0 -2.776379,0.2731358 -4.409033,1.5342733 A 7.4083335,7.4083335 0 0 0 12.7,5.5562501 7.4083335,7.4083335 0 0 0 11.213786,5.7148967 C 9.5811796,4.4490951 7.114875,4.1754558 6.7975176,4.1754558 Z"
         style="opacity:1;fill:#000000;fill-opacity:0;fill-rule:evenodd;stroke:#000000;stroke-width:0.529167;stroke-linecap:square;stroke-linejoin:miter;stroke-miterlimit:3.3;stroke-dasharray:none;stroke-opacity:1;paint-order:markers fill stroke" />
      <path
         id="path1545"
         d="m 6.8791658,9.1434862 c -0.157856,-1.708787 0.07441,-3.473072 0.453162,-3.85182 0.767871,0 2.299471,0.435622 2.8765142,1.140184 -1.4775922,0.327405 -2.4526972,1.314317 -3.3296762,2.711636 z"
         style="fill:#88c9e5;fill-opacity:1;stroke:#000000;stroke-width:0.264583px;stroke-linecap:butt;stroke-linejoin:miter;stroke-opacity:0" />
      <path
         style="fill:#d8ebf4;fill-opacity:1;stroke:#000000;stroke-width:0.264583px;stroke-linecap:butt;stroke-linejoin:miter;stroke-opacity:0"
         d="m 7.6729148,6.0854168 0.264584,1.1358481 -0.730706,0.2795693 0.569474,0.4304647 c 0.36799,-0.4142372 0.766162,-0.7638722 1.219565,-1.0273274 V 6.3500002 l -0.529167,0.2645833 z"
         id="path1549" />
      <path
         style="fill:#88c9e5;fill-opacity:1;stroke:#000000;stroke-width:0.264583px;stroke-linecap:butt;stroke-linejoin:miter;stroke-opacity:0"
         d="m 18.520834,9.1434862 c 0.157856,-1.708787 -0.07441,-3.473072 -0.453162,-3.85182 -0.767871,0 -2.299471,0.435622 -2.876514,1.140184 1.477592,0.327405 2.452697,1.314317 3.329676,2.711636 z"
         id="path1556" />
      <path
         id="path1558"
         d="m 17.727085,6.0854168 -0.264584,1.1358481 0.730706,0.2795693 -0.569474,0.4304647 C 17.255743,7.5170617 16.857571,7.1674267 16.404168,6.9039715 V 6.3500002 l 0.529167,0.2645833 z"
         style="fill:#d8ebf4;fill-opacity:1;stroke:#000000;stroke-width:0.264583px;stroke-linecap:butt;stroke-linejoin:miter;stroke-opacity:0" />
    </g>
    <path
       id="path1543"
       clip-path="none"
       style="fill:#000000;fill-opacity:1;fill-rule:evenodd;stroke:#000000;stroke-width:1.5875;stroke-linecap:square;stroke-linejoin:miter;stroke-miterlimit:3.3;stroke-dasharray:none;stroke-opacity:1;paint-order:markers fill stroke"
       d="m 32.197529,4.1754535 c -0.65538,1.0965891 -1.08728,3.6854471 -0.88573,5.8223841 a 7.4083314,7.4083314 0 0 0 -0.62012,2.9667444 7.4083314,7.4083314 0 0 0 7.408336,7.408333 7.4083314,7.4083314 0 0 0 7.408346,-7.408333 7.4083314,7.4083314 0 0 0 -7.408346,-7.4083344 7.4083314,7.4083314 0 0 0 -1.49448,0.152445 C 34.972882,4.4482965 32.514362,4.1754535 32.197529,4.1754535 Z" />
    <circle
       transform="scale(-1,1)"
       style="fill:#000000;fill-opacity:1;fill-rule:evenodd;stroke:#000000;stroke-width:1.5875;stroke-linecap:round;stroke-linejoin:miter;stroke-miterlimit:4;stroke-dasharray:none;stroke-opacity:1;paint-order:fill markers stroke"
       id="circle916"
       cx="-43.399982"
       cy="8.8139334"
       r="3.4745901" />
    <g
       id="g5148"
       clip-path="url(#clipPath5150)"
       transform="translate(-76.199995,16.933333)">
      <path
         style="fill:#000000;fill-opacity:1;stroke:none;stroke-width:1.5875;stroke-linecap:butt;stroke-linejoin:miter;stroke-miterlimit:4;stroke-dasharray:none;stroke-opacity:1"
         d="m 87.841668,-10.054168 -0.884701,-2.645833 1.943034,1.058334 1.269174,-1.053369 0.05374,2.640868 z"
         id="path922" />
      <path
         style="fill:#ce8c63;fill-opacity:1;fill-rule:evenodd;stroke:#4078ff;stroke-width:0;stroke-linecap:square;stroke-linejoin:miter;stroke-miterlimit:4;stroke-dasharray:none;stroke-opacity:0.261682;paint-order:markers fill stroke"
         d="m 83.600066,-11.594125 a 3.4745902,3.4745902 0 0 0 -3.474723,3.4747235 3.4745902,3.4745902 0 0 0 1.488281,2.8494385 7.4083314,7.4083314 0 0 0 -0.121957,1.301213 7.4083314,7.4083314 0 0 0 7.408334,7.408333 7.4083314,7.4083314 0 0 0 7.408333,-7.408333 7.4083314,7.4083314 0 0 0 -0.118339,-1.304314 3.4745902,3.4745902 0 0 0 1.484664,-2.8463375 3.4745902,3.4745902 0 0 0 -3.474723,-3.4747235 3.4745902,3.4745902 0 0 0 -2.288233,0.862997 7.4083314,7.4083314 0 0 0 -3.011702,-0.645956 7.4083314,7.4083314 0 0 0 -3.009119,0.648539 3.4745902,3.4745902 0 0 0 -2.290816,-0.86558 z"
         id="circle928" />
      <path
         style="fill:#c47647;fill-opacity:1;fill-rule:evenodd;stroke:#4078ff;stroke-width:0;stroke-linecap:square;stroke-linejoin:miter;stroke-miterlimit:4;stroke-dasharray:none;stroke-opacity:0.261682;paint-order:markers fill stroke"
         d="m 93.133334,-9.7275722 c 0.919829,1.2628518 1.452007,2.4932383 1.455208,4.0555662 10e-7,4.09151 -3.316823,7.408335 -7.408333,7.408334 -1.528927,-0.0015 -3.019928,-0.476103 -4.268473,-1.358574 1.391104,1.920081 3.617216,3.058303 5.988264,3.061829 4.09151,1e-6 7.408335,-3.316823 7.408334,-7.408333 -0.0011,-1.587501 -1.587499,-4.8422783 -3.175,-5.7588222 z"
         id="circle937" />
      <path
         id="path935"
         d="m 83.600066,-11.594125 a 3.4745902,3.4745902 0 0 0 -3.474723,3.4747235 3.4745902,3.4745902 0 0 0 1.488281,2.8494385 7.4083314,7.4083314 0 0 0 -0.121957,1.301213 7.4083314,7.4083314 0 0 0 7.408334,7.408333 7.4083314,7.4083314 0 0 0 7.408333,-7.408333 7.4083314,7.4083314 0 0 0 -0.118339,-1.304314 3.4745902,3.4745902 0 0 0 1.484664,-2.8463375 3.4745902,3.4745902 0 0 0 -3.474723,-3.4747235 3.4745902,3.4745902 0 0 0 -2.288233,0.862997 7.4083314,7.4083314 0 0 0 -3.011702,-0.645956 7.4083314,7.4083314 0 0 0 -3.009119,0.648539 3.4745902,3.4745902 0 0 0 -2.290816,-0.86558 z"
         style="fill:#000000;fill-opacity:0;fill-rule:evenodd;stroke:#000000;stroke-width:0.529167;stroke-linecap:square;stroke-linejoin:miter;stroke-miterlimit:4;stroke-dasharray:none;stroke-opacity:1;paint-order:markers fill stroke" />
      <path
         style="fill:#d9b7a0;fill-opacity:1;fill-rule:evenodd;stroke:none;stroke-width:0.320587;stroke-linecap:round;stroke-linejoin:miter;stroke-miterlimit:4;stroke-dasharray:none;stroke-opacity:0.213592;paint-order:fill markers stroke"
         d="m 87.654804,-3.704167 c -1.162373,1.41e-4 -2.104627,0.942395 -2.104768,2.104768 -1.58e-4,1.162584 0.942184,2.105169 2.104768,2.10531 0.524179,-7.26e-4 1.02923,-0.296386 1.416349,-0.649802 0.387119,0.353416 0.892169,0.649076 1.416348,0.649802 1.162585,-1.41e-4 2.104926,-0.942725 2.104768,-2.10531 -1.41e-4,-1.162373 -0.942395,-2.104627 -2.104768,-2.104768 -0.524251,8.74e-4 -1.02931,0.197339 -1.416348,0.550952 -0.387038,-0.353613 -0.892098,-0.550078 -1.416349,-0.550952 z"
         id="circle976" />
      <path
         style="fill:#9a5b34;fill-opacity:1;fill-rule:evenodd;stroke:none;stroke-width:0.312428;stroke-linecap:round;stroke-linejoin:miter;stroke-miterlimit:4;stroke-dasharray:none;stroke-opacity:0;paint-order:fill markers stroke"
         d="m 83.50963,-10.246922 c -1.133066,-5.6e-5 -2.05161,0.9184901 -2.051553,2.0515551 3.17e-4,0.707472 0.423601,1.206212 1.023779,1.5807819 0.498984,-1.2975089 1.171226,-2.2216979 2.312533,-3.0153809 -0.382943,-0.3729861 -0.75019,-0.6168411 -1.284759,-0.6169561 z m 10.780739,0 c -0.532166,7.68e-4 -0.890764,0.208293 -1.27279,0.5787761 1.14087,0.793348 1.865086,1.782061 2.364199,3.0789329 0.596799,-0.3749319 0.959347,-0.9013529 0.960143,-1.6061539 5.9e-5,-1.133065 -0.918487,-2.0516111 -2.051552,-2.0515551 z"
         id="path961" />
    </g>
    <g
       id="g6594"
       clip-path="url(#clipPath6671)">
      <ellipse
         cy="6.0275412"
         cx="12.7"
         id="circle23455"
         style="opacity:1;fill:#ee3158;fill-opacity:1;fill-rule:evenodd;stroke:none;stroke-width:0.529167;stroke-linecap:square;stroke-linejoin:miter;stroke-miterlimit:4;stroke-dasharray:none;stroke-opacity:1;paint-order:markers fill stroke"
         rx="2.9860239"
         ry="3.1265838" />
      <path
         style="opacity:1;fill:#c62041;fill-opacity:1;fill-rule:evenodd;stroke:none;stroke-width:0.529167;stroke-linecap:square;stroke-linejoin:miter;stroke-miterlimit:4;stroke-dasharray:none;stroke-opacity:0.261682;paint-order:markers fill stroke"
         d="M 13.905611,3.2070394 A 3.1210285,3.1210285 0 0 1 14.708664,5.2916664 3.1210285,3.1210285 0 0 1 11.587925,8.4129231 3.1210285,3.1210285 0 0 1 10.381795,8.1700438 3.1210285,3.1210285 0 0 0 12.7,9.2066731 3.1210285,3.1210285 0 0 0 15.821258,6.0854164 3.1210285,3.1210285 0 0 0 13.905611,3.2070394 Z"
         id="circle24111" />
      <ellipse
         ry="3.1265838"
         rx="2.9860239"
         style="opacity:1;fill:none;fill-opacity:1;fill-rule:evenodd;stroke:#000000;stroke-width:0.529167;stroke-linecap:square;stroke-linejoin:miter;stroke-miterlimit:4;stroke-dasharray:none;stroke-opacity:1;paint-order:markers fill stroke"
         id="ellipse24116"
         cx="12.7"
         cy="6.0275412" />
      <circle
         style="opacity:1;fill:#ee3158;fill-opacity:1;fill-rule:evenodd;stroke:none;stroke-width:0.627991;stroke-linecap:square;stroke-linejoin:miter;stroke-miterlimit:4;stroke-dasharray:none;stroke-opacity:0.45098;paint-order:markers fill stroke"
         id="path874-5"
         cx="12.699997"
         cy="12.964583"
         r="7.4083333" />
      <path
         style="opacity:1;fill:#c62041;fill-opacity:1;fill-rule:evenodd;stroke:#4078ff;stroke-width:0;stroke-linecap:square;stroke-linejoin:miter;stroke-miterlimit:4;stroke-dasharray:none;stroke-opacity:0.261682;paint-order:markers fill stroke"
         d="M 16.795874,6.7964844 A 7.4083314,7.4083314 0 0 1 18.25625,11.199317 7.4083314,7.4083314 0 0 1 10.847917,18.60765 7.4083314,7.4083314 0 0 1 6.7520423,17.367416 7.4083314,7.4083314 0 0 0 12.7,20.372917 7.4083314,7.4083314 0 0 0 20.108333,12.964584 7.4083314,7.4083314 0 0 0 16.795874,6.7964844 Z"
         id="circle24118" />
      <circle
         style="opacity:1;fill:#000000;fill-opacity:0;fill-rule:evenodd;stroke:#000000;stroke-width:0.529167;stroke-linecap:square;stroke-linejoin:miter;stroke-miterlimit:4;stroke-dasharray:none;stroke-opacity:1;paint-order:markers fill stroke"
         id="circle3988-5"
         cx="12.700001"
         cy="12.964581"
         r="7.4083314" />
      <path
         id="path1656"
         d="m 12.568666,13.314427 c -2.235199,0.04197 -3.5186234,1.121443 -4.1890604,2.342175 1.354158,-0.237557 2.6124194,-0.501459 4.0826284,-0.527795 1.788289,-0.02632 3.109867,0.219724 4.471099,0.48161 -0.67097,-1.106897 -2.142486,-2.333908 -4.364667,-2.29599 z"
         style="fill:#f9b9b5;fill-opacity:1;stroke:none;stroke-width:0.251434px;stroke-linecap:butt;stroke-linejoin:miter;stroke-opacity:1" />
    </g>
    <g
       aria-label="redrawn by mind"
       id="text1310"
       style="font-style:normal;font-variant:normal;font-weight:normal;font-stretch:normal;font-size:1.41111px;line-height:1.25;font-family:'Segoe Print';-inkscape-font-specification:'Segoe Print, Normal';font-variant-ligatures:normal;font-variant-caps:normal;font-variant-numeric:normal;font-feature-settings:normal;text-align:start;letter-spacing:0px;word-spacing:0px;writing-mode:lr-tb;text-anchor:start;fill:#000000;fill-opacity:1;stroke:#000000;stroke-width:0.05;stroke-miterlimit:4;stroke-dasharray:none;stroke-opacity:1">
      <path
         d="m 2.4839121,32.770435 q 0.00689,-0.0124 0.016536,-0.03445 0.046853,-0.107487 0.086127,-0.168121 0.039274,-0.06132 0.086127,-0.117133 0.047542,-0.05581 0.086127,-0.08475 0.039274,-0.02894 0.070969,-0.03996 0.031695,-0.01171 0.061323,-0.01171 0.059945,0 0.097841,0.03652 0.037896,0.03583 0.037896,0.08406 0,0.02136 -0.01378,0.03858 -0.013091,0.01723 -0.040652,0.01723 -0.028939,0 -0.053055,-0.02549 -0.024805,-0.02549 -0.051676,-0.02549 -0.071658,0 -0.1984373,0.173632 -0.1267794,0.173633 -0.1543402,0.382406 -0.00689,0.05374 -0.026183,0.07097 -0.019292,0.01723 -0.054432,0.01723 -0.033762,0 -0.04892,-0.0503 -0.015158,-0.0503 -0.015158,-0.169499 0,-0.03238 0.00345,-0.142627 0.00413,-0.130224 0.016536,-0.210151 0.00207,-0.01309 0.00689,-0.06132 0.00482,-0.05306 0.011713,-0.07373 0.00758,-0.02067 0.029628,-0.03858 0.022738,-0.01792 0.04892,-0.01792 0.025494,0 0.037896,0.01654 0.013091,0.01585 0.013091,0.03445 0,0.02687 -0.01378,0.07579 -0.015847,0.05443 -0.018603,0.0751 -0.00207,0.02343 -0.00758,0.04892 -0.00689,0.02963 -0.01378,0.155718 l -6.89e-4,0.02549 z"
         style="font-style:normal;font-variant:normal;font-weight:normal;font-stretch:normal;font-size:1.41111px;font-family:'Segoe Print';-inkscape-font-specification:'Segoe Print, Normal';font-variant-ligatures:normal;font-variant-caps:normal;font-variant-numeric:normal;font-feature-settings:normal;text-align:start;writing-mode:lr-tb;text-anchor:start;stroke:#000000;stroke-width:0.05;stroke-miterlimit:4;stroke-dasharray:none;stroke-opacity:1"
         id="path1656-1" />
      <path
         d="m 3.6600668,32.810399 q 0,0.07028 -0.1247123,0.169498 -0.1240234,0.09922 -0.256315,0.09922 -0.1109319,0 -0.1715656,-0.06546 -0.059945,-0.06546 -0.059945,-0.18259 0,-0.197059 0.1329806,-0.374826 0.1329806,-0.177767 0.2907658,-0.177767 0.051676,0 0.08406,0.03376 0.033073,0.03376 0.033073,0.0813 0,0.106109 -0.1040418,0.203261 -0.1040418,0.09715 -0.2783635,0.190858 -0.035829,0.0186 -0.035829,0.04823 0,0.05719 0.033073,0.09164 0.033073,0.03445 0.097841,0.03445 0.148139,0 0.3024792,-0.163987 0.022738,-0.02274 0.034451,-0.02274 0.022049,0 0.022049,0.03514 z M 3.1811989,32.702912 q 0.2921439,-0.173633 0.2921439,-0.279053 0,-0.04134 -0.037207,-0.04134 -0.06339,0 -0.1433159,0.09302 -0.079237,0.09302 -0.111621,0.227376 z"
         style="font-style:normal;font-variant:normal;font-weight:normal;font-stretch:normal;font-size:1.41111px;font-family:'Segoe Print';-inkscape-font-specification:'Segoe Print, Normal';font-variant-ligatures:normal;font-variant-caps:normal;font-variant-numeric:normal;font-feature-settings:normal;text-align:start;writing-mode:lr-tb;text-anchor:start;stroke:#000000;stroke-width:0.05;stroke-miterlimit:4;stroke-dasharray:none;stroke-opacity:1"
         id="path1658" />
      <path
         d="m 4.2980979,32.758722 q -0.092328,0.148139 -0.1956812,0.228754 -0.1033528,0.07993 -0.1901692,0.07993 -0.066835,0 -0.1061088,-0.05099 -0.038585,-0.05168 -0.038585,-0.137115 0,-0.174321 0.1412488,-0.3576 0.1419379,-0.183279 0.3059243,-0.183279 0.071658,0 0.1329806,0.06132 l 0.096463,-0.450618 q 0.010335,-0.04616 0.037896,-0.06201 0.02825,-0.01585 0.044097,-0.01585 0.048231,0 0.048231,0.08544 0,0.01516 -0.031695,0.112999 -0.050298,0.151584 -0.095774,0.372759 -0.044786,0.220486 -0.044786,0.354155 0,0.137804 0.059945,0.137804 0.038585,0 0.079926,-0.02549 0.017226,-0.0124 0.032384,-0.0124 0.022049,0 0.022049,0.02894 0,0.03514 -0.062012,0.0813 -0.061323,0.04616 -0.1260904,0.04616 -0.1136881,0 -0.1136881,-0.219108 0,-0.03721 0.00345,-0.0751 z m -0.090261,-0.322461 q -0.111621,0 -0.221175,0.151585 -0.1095539,0.150895 -0.1095539,0.279052 0,0.08613 0.057189,0.08613 0.053743,0 0.1302245,-0.0565 0.07717,-0.0565 0.1584743,-0.179834 0.081304,-0.124023 0.081304,-0.186035 0,-0.03032 -0.02825,-0.06201 -0.027561,-0.03238 -0.068213,-0.03238 z"
         style="font-style:normal;font-variant:normal;font-weight:normal;font-stretch:normal;font-size:1.41111px;font-family:'Segoe Print';-inkscape-font-specification:'Segoe Print, Normal';font-variant-ligatures:normal;font-variant-caps:normal;font-variant-numeric:normal;font-feature-settings:normal;text-align:start;writing-mode:lr-tb;text-anchor:start;stroke:#000000;stroke-width:0.05;stroke-miterlimit:4;stroke-dasharray:none;stroke-opacity:1"
         id="path1660" />
      <path
         d="m 4.8761846,32.770435 q 0.00689,-0.0124 0.016536,-0.03445 0.046853,-0.107487 0.086127,-0.168121 0.039274,-0.06132 0.086127,-0.117133 0.047542,-0.05581 0.086127,-0.08475 0.039274,-0.02894 0.070969,-0.03996 0.031695,-0.01171 0.061323,-0.01171 0.059945,0 0.097841,0.03652 0.037896,0.03583 0.037896,0.08406 0,0.02136 -0.01378,0.03858 -0.013091,0.01723 -0.040652,0.01723 -0.028939,0 -0.053054,-0.02549 -0.024805,-0.02549 -0.051676,-0.02549 -0.071658,0 -0.1984373,0.173632 -0.1267795,0.173633 -0.1543402,0.382406 -0.00689,0.05374 -0.026183,0.07097 -0.019292,0.01723 -0.054432,0.01723 -0.033762,0 -0.04892,-0.0503 -0.015158,-0.0503 -0.015158,-0.169499 0,-0.03238 0.00345,-0.142627 0.00413,-0.130224 0.016536,-0.210151 0.00207,-0.01309 0.00689,-0.06132 0.00482,-0.05306 0.011713,-0.07373 0.00758,-0.02067 0.029628,-0.03858 0.022738,-0.01792 0.04892,-0.01792 0.025494,0 0.037896,0.01654 0.013091,0.01585 0.013091,0.03445 0,0.02687 -0.01378,0.07579 -0.015847,0.05443 -0.018604,0.0751 -0.00207,0.02343 -0.00758,0.04892 -0.00689,0.02963 -0.01378,0.155718 l -6.89e-4,0.02549 z"
         style="font-style:normal;font-variant:normal;font-weight:normal;font-stretch:normal;font-size:1.41111px;font-family:'Segoe Print';-inkscape-font-specification:'Segoe Print, Normal';font-variant-ligatures:normal;font-variant-caps:normal;font-variant-numeric:normal;font-feature-settings:normal;text-align:start;writing-mode:lr-tb;text-anchor:start;stroke:#000000;stroke-width:0.05;stroke-miterlimit:4;stroke-dasharray:none;stroke-opacity:1"
         id="path1662" />
      <path
         d="m 5.9200476,32.793173 q -0.096463,0.129536 -0.1908581,0.194303 -0.094396,0.06477 -0.1729437,0.06477 -0.053054,0 -0.09164,-0.04479 -0.038585,-0.04479 -0.038585,-0.115066 0,-0.181212 0.1619194,-0.389985 0.1619193,-0.209461 0.3217716,-0.209461 0.057878,0 0.086127,0.06614 0.00896,0.02205 0.02825,0.02205 0.055121,0 0.055121,0.04272 0,0.02136 -0.00689,0.05857 -0.037207,0.20326 -0.037207,0.286631 0,0.166743 0.06339,0.199816 0.030317,0.01654 0.030317,0.04065 0,0.02136 -0.029628,0.04272 -0.029628,0.02205 -0.057188,0.02205 -0.053054,0 -0.087505,-0.07304 -0.034451,-0.07304 -0.034451,-0.208084 z m -0.04203,-0.387917 q -0.09095,0 -0.2115287,0.170876 -0.1205783,0.170188 -0.1205783,0.282498 0,0.07924 0.052365,0.07924 0.075792,0 0.2101507,-0.152962 0.1343586,-0.152962 0.1343586,-0.28112 0,-0.09853 -0.064768,-0.09853 z"
         style="font-style:normal;font-variant:normal;font-weight:normal;font-stretch:normal;font-size:1.41111px;font-family:'Segoe Print';-inkscape-font-specification:'Segoe Print, Normal';font-variant-ligatures:normal;font-variant-caps:normal;font-variant-numeric:normal;font-feature-settings:normal;text-align:start;writing-mode:lr-tb;text-anchor:start;stroke:#000000;stroke-width:0.05;stroke-miterlimit:4;stroke-dasharray:none;stroke-opacity:1"
         id="path1664" />
      <path
         d="m 6.8295521,32.587846 q -0.019292,6.89e-4 -0.093018,0.160541 -0.060634,0.131602 -0.1240233,0.234955 -0.06339,0.102664 -0.093018,0.102664 -0.085438,0 -0.1584743,-0.253559 -0.072347,-0.254248 -0.072347,-0.409277 0,-0.0503 0.024805,-0.08337 0.025494,-0.03307 0.059945,-0.03583 0.00482,-6.89e-4 0.017226,6.89e-4 0.012402,6.89e-4 0.030317,0.02274 0.017914,0.02136 0.017914,0.04203 v 0.0028 q 0,0.0083 -0.00758,0.0689 -0.0062,0.04479 -0.0062,0.109554 0,0.102663 0.039274,0.226687 0.039274,0.124023 0.066146,0.124023 0.019292,0 0.1274684,-0.209462 0.068213,-0.13298 0.097841,-0.183279 l 0.022049,-0.04134 q 0.047542,-0.09095 0.090261,-0.125401 0.059256,0.0076 0.059256,0.05926 0,0.01723 -0.00276,0.02894 -0.00276,0.01171 -0.00276,0.02894 0,0.127468 0.066146,0.267339 0.066146,0.139182 0.094396,0.139182 0.02067,0 0.065457,-0.146072 0.060634,-0.198437 0.111621,-0.297656 0.051676,-0.09922 0.075792,-0.117822 0.024116,-0.0186 0.054432,-0.0186 0.017226,0 0.028939,0.01516 0.012402,0.01447 0.012402,0.03169 0,0.02549 -0.00758,0.03514 -0.085438,0.11231 -0.1639865,0.35071 -0.066835,0.204639 -0.091639,0.257004 -0.024805,0.05237 -0.041341,0.05237 -0.083371,0 -0.1364256,-0.06063 -0.053055,-0.06132 -0.1405598,-0.324528 -0.010335,-0.03101 -0.019982,-0.05443 z"
         style="font-style:normal;font-variant:normal;font-weight:normal;font-stretch:normal;font-size:1.41111px;font-family:'Segoe Print';-inkscape-font-specification:'Segoe Print, Normal';font-variant-ligatures:normal;font-variant-caps:normal;font-variant-numeric:normal;font-feature-settings:normal;text-align:start;writing-mode:lr-tb;text-anchor:start;stroke:#000000;stroke-width:0.05;stroke-miterlimit:4;stroke-dasharray:none;stroke-opacity:1"
         id="path1666" />
      <path
         d="m 7.9967499,32.514121 q -0.035829,0 -0.078548,0.04685 -0.04203,0.04685 -0.1288465,0.21015 -0.1143771,0.219108 -0.148139,0.249425 -0.033073,0.03032 -0.055122,0.03032 -0.081304,0 -0.081304,-0.07855 0,-0.03307 0.011024,-0.09371 0.037896,-0.208083 0.037896,-0.438904 0,-0.02618 0.022049,-0.05788 0.022738,-0.03238 0.042719,-0.03238 0.035829,0 0.050987,0.02205 0.015158,0.02205 0.015158,0.08888 0,0.06959 -0.041341,0.286632 -0.01378,0.07166 -0.01378,0.09095 0,0.01103 0.00551,0.01103 0.010335,0 0.095774,-0.164676 0.086127,-0.167431 0.1508951,-0.235644 0.064768,-0.06821 0.1426268,-0.06821 0.062012,0 0.1005967,0.0565 0.039274,0.0565 0.057189,0.206017 0.019293,0.170188 0.034451,0.212218 0.015847,0.04134 0.049609,0.04134 0.02136,0 0.053743,-0.01516 0.00551,-0.0028 0.00827,-0.0028 0.029628,0 0.029628,0.03445 0,0.03032 -0.040652,0.06477 -0.040652,0.03376 -0.097841,0.03376 -0.058567,0 -0.09095,-0.04616 Q 8.096657,32.918539 8.078054,32.716653 8.058762,32.514082 7.99675,32.514082 Z"
         style="font-style:normal;font-variant:normal;font-weight:normal;font-stretch:normal;font-size:1.41111px;font-family:'Segoe Print';-inkscape-font-specification:'Segoe Print, Normal';font-variant-ligatures:normal;font-variant-caps:normal;font-variant-numeric:normal;font-feature-settings:normal;text-align:start;writing-mode:lr-tb;text-anchor:start;stroke:#000000;stroke-width:0.05;stroke-miterlimit:4;stroke-dasharray:none;stroke-opacity:1"
         id="path1668" />
      <path
         d="m 9.153612,32.651924 q 0.088194,-0.160541 0.2108396,-0.25976 0.1226454,-0.09991 0.221175,-0.09991 0.054433,0 0.092329,0.0503 0.037896,0.0503 0.037896,0.122645 0,0.214285 -0.1619193,0.402387 Q 9.3927014,33.055 9.2128676,33.055 q -0.04892,0 -0.090261,-0.02618 -0.040652,-0.02687 -0.045475,-0.06683 -0.00276,-0.03238 -0.018604,-0.04823 -0.029628,-0.02963 -0.029628,-0.06339 0,-0.0627 0.034451,-0.268029 L 9.1343194,32.1703 q 0.036518,-0.207394 0.053055,-0.256315 0.017225,-0.04892 0.037896,-0.06546 0.020671,-0.01654 0.050987,-0.01654 0.048231,0 0.048231,0.08337 0,0.07924 -0.053055,0.221864 -0.050987,0.137115 -0.1178221,0.514697 z m -0.016537,0.229443 q 0.035829,0.06684 0.086816,0.06684 0.078548,0 0.1660534,-0.06477 0.087505,-0.06546 0.1508951,-0.183279 0.064079,-0.118512 0.064079,-0.199816 0,-0.03652 -0.013091,-0.0627 -0.013091,-0.02618 -0.033073,-0.02618 -0.095774,0 -0.2342663,0.157096 -0.1378037,0.156407 -0.1874131,0.312814 z"
         style="font-style:normal;font-variant:normal;font-weight:normal;font-stretch:normal;font-size:1.41111px;font-family:'Segoe Print';-inkscape-font-specification:'Segoe Print, Normal';font-variant-ligatures:normal;font-variant-caps:normal;font-variant-numeric:normal;font-feature-settings:normal;text-align:start;writing-mode:lr-tb;text-anchor:start;stroke:#000000;stroke-width:0.05;stroke-miterlimit:4;stroke-dasharray:none;stroke-opacity:1"
         id="path1670" />
      <path
         d="m 10.358016,32.800752 q -0.126779,0.110243 -0.223242,0.160542 -0.09577,0.04961 -0.1467606,0.04961 -0.068213,0 -0.1047309,-0.0565 -0.035829,-0.05719 -0.035829,-0.13298 0,-0.106109 0.042719,-0.261827 0.043408,-0.156407 0.064079,-0.185346 0.02136,-0.02963 0.067524,-0.02963 0.01929,0 0.0317,0.02274 0.0124,0.02274 0.0124,0.05168 0,0.01723 -0.01585,0.04479 -0.03721,0.06477 -0.03927,0.07166 -0.0014,0.0069 -0.026179,0.08337 -0.024805,0.07579 -0.024805,0.142627 0,0.02343 0.011024,0.07304 0.011713,0.04961 0.047541,0.04961 0.0379,0 0.09302,-0.02274 0.05581,-0.02343 0.125401,-0.07579 0.06959,-0.05237 0.09371,-0.08475 0.02412,-0.03238 0.03376,-0.07373 0.01034,-0.04134 0.01447,-0.179145 0.0041,-0.137804 0.06684,-0.137804 0.03721,0 0.04823,0.01998 0.01102,0.01929 0.01102,0.07441 0,0.04548 -0.0062,0.113688 -0.0076,0.08613 -0.0096,0.122645 -0.0096,0.18948 -0.04961,0.381027 -0.03927,0.190858 -0.115067,0.319016 -0.07579,0.128846 -0.208772,0.128846 -0.1350443,0 -0.2404642,-0.07097 -0.1047308,-0.07028 -0.1047308,-0.1192 0,-0.02274 0.010335,-0.04479 0.011024,-0.02205 0.027561,-0.02205 0.00827,0 0.017914,0.01309 0.090261,0.138492 0.283873,0.138492 0.09991,0 0.167431,-0.175699 0.06821,-0.175011 0.0751,-0.328662 0.0014,-0.02963 0.0055,-0.05926 z"
         style="font-style:normal;font-variant:normal;font-weight:normal;font-stretch:normal;font-size:1.41111px;font-family:'Segoe Print';-inkscape-font-specification:'Segoe Print, Normal';font-variant-ligatures:normal;font-variant-caps:normal;font-variant-numeric:normal;font-feature-settings:normal;text-align:start;writing-mode:lr-tb;text-anchor:start;stroke:#000000;stroke-width:0.05;stroke-miterlimit:4;stroke-dasharray:none;stroke-opacity:1"
         id="path1672" />
      <path
         d="m 11.767059,32.498962 q -0.06408,0.0014 -0.274229,0.379649 -0.07097,0.127469 -0.08268,0.139182 -0.01171,0.01102 -0.04341,0.01998 -0.03101,0.009 -0.05168,0.009 -0.04616,0 -0.04616,-0.179834 0,-0.101286 0.04341,-0.366558 0.01791,-0.107487 0.01791,-0.153651 0,-0.04547 0.04065,-0.04547 0.07648,0 0.07648,0.110243 0,0.05168 -0.02549,0.202571 -0.02963,0.172255 -0.03032,0.209462 0.04272,-0.04134 0.125401,-0.181212 0.117133,-0.191547 0.172255,-0.242535 0.05581,-0.05168 0.115066,-0.05168 0.04479,0 0.07097,0.05994 0.02687,0.05994 0.03238,0.285942 0.0014,0.0565 0.01033,0.08406 0.009,0.02756 0.01309,0.02756 0.03238,0 0.14056,-0.220486 0.05788,-0.116444 0.11231,-0.177077 0.05512,-0.06063 0.121957,-0.06063 0.05581,0 0.0813,0.05788 0.02549,0.05719 0.03652,0.170187 0.01034,0.114377 0.0317,0.209462 0.02205,0.09508 0.07993,0.121956 0.03927,0.0186 0.03927,0.04341 0,0.02412 -0.03307,0.04961 -0.03307,0.02549 -0.06063,0.02549 -0.05512,0 -0.09853,-0.06752 -0.04341,-0.06752 -0.06546,-0.292144 -0.0096,-0.09026 -0.0186,-0.128158 -0.009,-0.0379 -0.02825,-0.0379 -0.02894,0 -0.0689,0.05512 -0.03927,0.05512 -0.127469,0.223931 -0.0689,0.131602 -0.104731,0.175699 -0.03514,0.04341 -0.06821,0.04341 -0.02963,0 -0.05306,-0.02343 -0.02343,-0.02412 -0.02963,-0.05719 -0.0062,-0.03376 -0.01309,-0.164675 -0.01033,-0.21773 -0.0379,-0.253559 z"
         style="font-style:normal;font-variant:normal;font-weight:normal;font-stretch:normal;font-size:1.41111px;font-family:'Segoe Print';-inkscape-font-specification:'Segoe Print, Normal';font-variant-ligatures:normal;font-variant-caps:normal;font-variant-numeric:normal;font-feature-settings:normal;text-align:start;writing-mode:lr-tb;text-anchor:start;stroke:#000000;stroke-width:0.05;stroke-miterlimit:4;stroke-dasharray:none;stroke-opacity:1"
         id="path1674" />
      <path
         d="m 12.919098,32.12138 q -0.01447,0 -0.02205,-0.03101 -0.0028,-0.0096 -0.0076,-0.02136 -0.0186,-0.04479 -0.0186,-0.07786 0,-0.02756 0.03238,-0.05581 0.03307,-0.02894 0.07304,-0.02894 0.01998,0 0.04479,0.01585 0.02481,0.01516 0.02481,0.02963 0,0.02274 -0.01723,0.07717 -0.01654,0.05443 -0.05374,0.07372 -0.03652,0.0186 -0.05581,0.0186 z m -0.09026,0.769634 q 0,0.05237 0.01447,0.117822 0.0028,0.0124 0.0028,0.02067 0,0.0124 -0.02274,0.03169 -0.02274,0.01998 -0.04823,0.01998 -0.06683,0 -0.06683,-0.122645 0,-0.12678 0.05237,-0.401009 0.01791,-0.09577 0.01791,-0.117822 0,-0.04341 0.01585,-0.07372 0.01585,-0.03101 0.04479,-0.03101 0.03514,0 0.05512,0.01723 0.02067,0.01654 0.02067,0.03721 0,0.02067 -0.0096,0.05443 -0.05168,0.181901 -0.06408,0.260449 -0.0124,0.07855 -0.0124,0.186724 z"
         style="font-style:normal;font-variant:normal;font-weight:normal;font-stretch:normal;font-size:1.41111px;font-family:'Segoe Print';-inkscape-font-specification:'Segoe Print, Normal';font-variant-ligatures:normal;font-variant-caps:normal;font-variant-numeric:normal;font-feature-settings:normal;text-align:start;writing-mode:lr-tb;text-anchor:start;stroke:#000000;stroke-width:0.05;stroke-miterlimit:4;stroke-dasharray:none;stroke-opacity:1"
         id="path1676" />
      <path
         d="m 13.574355,32.514121 q -0.03583,0 -0.07855,0.04685 -0.04203,0.04685 -0.128847,0.21015 -0.114377,0.219108 -0.148139,0.249425 -0.03307,0.03032 -0.05512,0.03032 -0.08131,0 -0.08131,-0.07855 0,-0.03307 0.01103,-0.09371 0.0379,-0.208083 0.0379,-0.438904 0,-0.02618 0.02205,-0.05788 0.02274,-0.03238 0.04272,-0.03238 0.03583,0 0.05099,0.02205 0.01516,0.02205 0.01516,0.08888 0,0.06959 -0.04134,0.286632 -0.01378,0.07166 -0.01378,0.09095 0,0.01103 0.0055,0.01103 0.01034,0 0.09577,-0.164676 0.08613,-0.167431 0.150896,-0.235644 0.06477,-0.06821 0.142626,-0.06821 0.06201,0 0.100597,0.0565 0.03927,0.0565 0.05719,0.206017 0.01929,0.170188 0.03445,0.212218 0.01585,0.04134 0.04961,0.04134 0.02136,0 0.05374,-0.01516 0.0055,-0.0028 0.0083,-0.0028 0.02963,0 0.02963,0.03445 0,0.03032 -0.04065,0.06477 -0.04065,0.03376 -0.09784,0.03376 -0.05857,0 -0.09095,-0.04616 -0.03169,-0.04685 -0.0503,-0.248736 -0.01929,-0.202571 -0.0813,-0.202571 z"
         style="font-style:normal;font-variant:normal;font-weight:normal;font-stretch:normal;font-size:1.41111px;font-family:'Segoe Print';-inkscape-font-specification:'Segoe Print, Normal';font-variant-ligatures:normal;font-variant-caps:normal;font-variant-numeric:normal;font-feature-settings:normal;text-align:start;writing-mode:lr-tb;text-anchor:start;stroke:#000000;stroke-width:0.05;stroke-miterlimit:4;stroke-dasharray:none;stroke-opacity:1"
         id="path1678" />
      <path
         d="m 14.534847,32.758722 q -0.09233,0.148139 -0.195681,0.228754 -0.103353,0.07993 -0.190169,0.07993 -0.06683,0 -0.106109,-0.05099 -0.03858,-0.05168 -0.03858,-0.137115 0,-0.174321 0.141249,-0.3576 0.141938,-0.183279 0.305924,-0.183279 0.07166,0 0.132981,0.06132 l 0.09646,-0.450618 q 0.01034,-0.04616 0.0379,-0.06201 0.02825,-0.01585 0.0441,-0.01585 0.04823,0 0.04823,0.08544 0,0.01516 -0.0317,0.112999 -0.0503,0.151584 -0.09577,0.372759 -0.04479,0.220486 -0.04479,0.354155 0,0.137804 0.05994,0.137804 0.03858,0 0.07993,-0.02549 0.01722,-0.0124 0.03238,-0.0124 0.02205,0 0.02205,0.02894 0,0.03514 -0.06201,0.0813 -0.06132,0.04616 -0.126091,0.04616 -0.113688,0 -0.113688,-0.219108 0,-0.03721 0.0034,-0.0751 z m -0.09026,-0.322461 q -0.111621,0 -0.221175,0.151585 -0.109554,0.150895 -0.109554,0.279052 0,0.08613 0.05719,0.08613 0.05374,0 0.130224,-0.0565 0.07717,-0.0565 0.158474,-0.179834 0.0813,-0.124023 0.0813,-0.186035 0,-0.03032 -0.02825,-0.06201 -0.02756,-0.03238 -0.06821,-0.03238 z"
         style="font-style:normal;font-variant:normal;font-weight:normal;font-stretch:normal;font-size:1.41111px;font-family:'Segoe Print';-inkscape-font-specification:'Segoe Print, Normal';font-variant-ligatures:normal;font-variant-caps:normal;font-variant-numeric:normal;font-feature-settings:normal;text-align:start;writing-mode:lr-tb;text-anchor:start;stroke:#000000;stroke-width:0.05;stroke-miterlimit:4;stroke-dasharray:none;stroke-opacity:1"
         id="path1680" />
    </g>
  </g>
</svg>
