<?xml version="1.0" encoding="UTF-8" standalone="no"?>
<svg
   xmlns:dc="http://purl.org/dc/elements/1.1/"
   xmlns:cc="http://creativecommons.org/ns#"
   xmlns:rdf="http://www.w3.org/1999/02/22-rdf-syntax-ns#"
   xmlns:svg="http://www.w3.org/2000/svg"
   xmlns="http://www.w3.org/2000/svg"
   id="svg62"
   version="1.1"
   viewBox="0 0 67.733332 33.866668"
   height="128"
   width="256">
  <metadata
     id="metadata4524">
    <rdf:RDF>
      <cc:Work
         rdf:about="">
        <dc:format>image/svg+xml</dc:format>
        <dc:type
           rdf:resource="http://purl.org/dc/dcmitype/StillImage" />
        <dc:title></dc:title>
      </cc:Work>
    </rdf:RDF>
  </metadata>
  <defs
     id="defs59">
    <clipPath
       id="clipPath4863"
       clipPathUnits="userSpaceOnUse">
      <rect
         y="-66.410416"
         x="2.6458366"
         height="5.8208318"
         width="11.90625"
         id="rect4865"
         style="fill:#796cd9;fill-opacity:0.60392157;fill-rule:evenodd;stroke:none;stroke-width:0.60277319;stroke-linecap:round;stroke-linejoin:round;stroke-miterlimit:4;stroke-dasharray:none;stroke-opacity:1;paint-order:markers fill stroke" />
    </clipPath>
    <clipPath
       id="clipPath4863-0"
       clipPathUnits="userSpaceOnUse">
      <rect
         y="-66.410416"
         x="2.6458366"
         height="5.8208318"
         width="11.90625"
         id="rect4865-0"
         style="fill:#796cd9;fill-opacity:0.60392157;fill-rule:evenodd;stroke:none;stroke-width:0.60277319;stroke-linecap:round;stroke-linejoin:round;stroke-miterlimit:4;stroke-dasharray:none;stroke-opacity:1;paint-order:markers fill stroke" />
    </clipPath>
  </defs>
  <g
     id="g1607">
    <circle
       r="7.1437502"
       cy="12.964583"
       cx="12.699997"
       id="circle1598"
       style="opacity:1;fill:#ffffff;fill-opacity:1;fill-rule:evenodd;stroke:#ffffff;stroke-width:0.264583;stroke-linecap:square;stroke-linejoin:miter;stroke-miterlimit:4;stroke-dasharray:none;stroke-opacity:1;paint-order:markers fill stroke" />
    <path
       id="path1600"
       d="m 6.3830734,13.510287 c -0.675269,-1.925182 -1.872201,-5.4669938 -1.217436,-7.8179046 1.678953,-0.49894 4.3440697,0.293955 5.5325196,2.0962888 l -2.2314898,0.677996 z"
       style="fill:#ffffff;fill-opacity:1;stroke:#ffffff;stroke-width:0.264583;stroke-linecap:butt;stroke-linejoin:miter;stroke-miterlimit:4;stroke-dasharray:none;stroke-opacity:1" />
    <path
       style="fill:#ffffff;fill-opacity:1;stroke:#ffffff;stroke-width:0.264583;stroke-linecap:butt;stroke-linejoin:miter;stroke-miterlimit:4;stroke-dasharray:none;stroke-opacity:1"
       d="m 19.016927,13.510287 c 0.675269,-1.925182 1.872201,-5.4669938 1.217436,-7.8179046 -1.678953,-0.49894 -4.34407,0.293955 -5.53252,2.0962888 l 2.231491,0.677996 z"
       id="path1602" />
  </g>
  <path
     id="path1304"
     d="m 54.858577,28.591918 0.008,2.485919"
     style="fill:none;stroke:#333333;stroke-width:0.565;stroke-linecap:round;stroke-linejoin:miter;stroke-miterlimit:4;stroke-dasharray:none;stroke-opacity:1" />
  <path
     style="fill:none;stroke:#333333;stroke-width:0.565;stroke-linecap:round;stroke-linejoin:miter;stroke-miterlimit:4;stroke-dasharray:none;stroke-opacity:1"
     d="m 56.105336,29.831078 -2.48592,0.008"
     id="path1306" />
  <path
     id="path1312"
     d="m 45.062537,30.359591 c 0.07395,-2.310271 3.002052,-2.28095 3.172863,0"
     style="fill:none;fill-opacity:1;stroke:#333333;stroke-width:0.580552;stroke-linecap:round;stroke-linejoin:miter;stroke-miterlimit:4;stroke-dasharray:none;stroke-opacity:1" />
  <path
     id="path1314"
     d="m 36.169433,30.429104 3.595333,-0.01812 -1.841318,-2.050672"
     style="fill:none;stroke:#333333;stroke-width:0.580552;stroke-linecap:round;stroke-linejoin:round;stroke-miterlimit:4;stroke-dasharray:none;stroke-opacity:1" />
  <path
     id="path1318"
     d="m 62.890025,13.161368 c -0.006,1.09191 -1.213689,1.45687 -1.88096,1.45687 h -3.32989 c -0.760748,0 -1.55534,-0.55663 -1.55534,-1.48608 -1e-5,-0.92945 0.759151,-2.137 2.613681,-2.13543 2.319801,0.002 4.160719,0.73167 4.152509,2.16464 z"
     style="fill:#000000;fill-opacity:1;fill-rule:evenodd;stroke:none;stroke-width:0.605555;stroke-linecap:round;stroke-linejoin:round;paint-order:markers fill stroke" />
  <path
     style="fill:#ffffff;fill-opacity:1;fill-rule:evenodd;stroke:none;stroke-width:0.463619;stroke-linecap:round;stroke-linejoin:round;paint-order:markers fill stroke"
     d="m 62.388745,13.111178 c -0.007,0.70587 -1.04009,0.9627 -1.63758,0.9627 h -2.77345 c -0.633629,0 -1.27191,-0.4041 -1.26669,-1.05819 0.004,-0.51768 0.486762,-1.49206 2.148171,-1.49048 1.81801,0.002 3.538799,0.66517 3.529549,1.58597 z"
     id="path1320" />
  <path
     style="fill:#cccccc;fill-opacity:1;fill-rule:evenodd;stroke:none;stroke-width:0.610215;stroke-linecap:round;stroke-linejoin:round;stroke-miterlimit:4;stroke-dasharray:none;stroke-opacity:1;paint-order:markers fill stroke"
     d="m 59.413067,13.516978 c -0.608981,0.003 -1.810301,0.18013 -2.155781,0.37262 0.22056,0.11501 0.471869,0.18448 0.720371,0.18448 h 2.773479 c 0.249719,0 0.5735,-0.0487 0.86868,-0.15244 -0.332801,-0.20628 -1.503871,-0.40452 -2.206749,-0.40466 z"
     id="path1322" />
  <ellipse
     style="fill:#333333;fill-opacity:1;fill-rule:evenodd;stroke:none;stroke-width:0.70287;stroke-linecap:round;stroke-linejoin:round;paint-order:markers fill stroke"
     id="ellipse1328"
     ry="2.3420944"
     rx="1.3125569"
     cy="29.75518"
     cx="63.637093" />
  <ellipse
     cx="63.619972"
     cy="29.753685"
     rx="0.79320657"
     ry="1.7926877"
     id="ellipse1330"
     style="fill:#ffffff;fill-opacity:1;fill-rule:evenodd;stroke:none;stroke-width:0.478035;stroke-linecap:round;stroke-linejoin:round;paint-order:markers fill stroke" />
  <path
     style="fill:#333333;fill-opacity:1;fill-rule:evenodd;stroke:none;stroke-width:0.625878;stroke-linecap:round;stroke-linejoin:round;paint-order:markers fill stroke"
     d="m 29.292267,27.939387 a 1.1515931,2.1166668 0 0 0 -0.717272,1.958541 1.1515931,2.1166668 0 0 0 1.15135,2.116659 1.1515931,2.1166668 0 0 0 1.151872,-2.116659 1.1515931,2.1166668 0 0 0 -0.003,-0.133329 z"
     id="path1332" />
  <path
     id="path1245"
     d="m 63.262516,21.708043 c -0.007,1.297785 -1.33913,1.731546 -2.075371,1.731546 h -3.674088 c -0.839381,0 -1.7516,-0.68242 -1.7516,-1.787114 0,-1.104693 0.56398,-2.522364 2.91933,-2.517208 2.902209,0.0059 4.590799,0.869625 4.581729,2.572776 z"
     style="fill:#000000;fill-opacity:1;fill-rule:evenodd;stroke:none;stroke-width:0.693459;stroke-linecap:round;stroke-linejoin:round;paint-order:markers fill stroke" />
  <path
     style="color:#000000;font-style:normal;font-variant:normal;font-weight:normal;font-stretch:normal;font-size:medium;line-height:normal;font-family:sans-serif;font-variant-ligatures:normal;font-variant-position:normal;font-variant-caps:normal;font-variant-numeric:normal;font-variant-alternates:normal;font-feature-settings:normal;text-indent:0;text-align:start;text-decoration:none;text-decoration-line:none;text-decoration-style:solid;text-decoration-color:#000000;letter-spacing:normal;word-spacing:normal;text-transform:none;writing-mode:lr-tb;direction:ltr;text-orientation:mixed;dominant-baseline:auto;baseline-shift:baseline;text-anchor:start;white-space:normal;shape-padding:0;clip-rule:nonzero;display:inline;overflow:visible;visibility:visible;isolation:auto;mix-blend-mode:normal;color-interpolation:sRGB;color-interpolation-filters:linearRGB;solid-color:#000000;solid-opacity:1;vector-effect:none;fill:#000000;fill-opacity:1;fill-rule:evenodd;stroke:none;stroke-width:1.11739;stroke-linecap:round;stroke-linejoin:round;stroke-miterlimit:4;stroke-dasharray:none;stroke-dashoffset:0;stroke-opacity:1;paint-order:markers fill stroke;color-rendering:auto;image-rendering:auto;shape-rendering:auto;text-rendering:auto;enable-background:accumulate"
     d="m 63.953256,1.9799643 c -0.817269,-0.0023 -1.60492,0.243865 -2.214589,0.723469 -0.609672,0.479602 -1.029642,1.219981 -1.03555,2.086918 -0.006,0.873902 0.491619,1.57527 1.140298,1.961431 0.64869,0.386165 1.43541,0.534056 2.212962,0.537961 0.85235,0.0043 1.541468,-0.235436 1.94015,-0.762746 0.39869,-0.52731 0.4655,-1.182211 0.462129,-1.909601 -0.003,-0.687177 -0.11662,-1.344791 -0.536331,-1.858315 -0.419709,-0.513522 -1.11088,-0.776719 -1.969069,-0.779117 z"
     id="path1260" />
  <path
     id="path1253"
     d="m 55.466907,2.1202803 c -0.774071,-0.0022 -1.5201,0.230974 -2.09754,0.685231 -0.577451,0.454253 -0.975231,1.155505 -0.980821,1.976623 -0.006,0.827715 0.465629,1.492015 1.080029,1.857767 0.61441,0.365755 1.359551,0.50583 2.096,0.509529 0.807302,0.0041 1.46,-0.222993 1.837611,-0.722434 0.377621,-0.499443 0.440901,-1.11973 0.43771,-1.808676 -0.003,-0.650859 -0.110461,-1.273715 -0.507989,-1.760101 -0.397521,-0.486381 -1.052161,-0.735666 -1.865,-0.737939 z m -0.01029,0.581877 c 1.39505,0.0039 1.79056,0.767972 1.795759,1.918229 0.006,1.258428 -0.29541,1.953742 -1.69654,1.946651 -1.29826,-0.0065 -2.589628,-0.525965 -2.580719,-1.784387 0.009,-1.285872 1.186719,-2.084107 2.4815,-2.080493 z"
     style="color:#000000;font-style:normal;font-variant:normal;font-weight:normal;font-stretch:normal;font-size:medium;line-height:normal;font-family:sans-serif;font-variant-ligatures:normal;font-variant-position:normal;font-variant-caps:normal;font-variant-numeric:normal;font-variant-alternates:normal;font-feature-settings:normal;text-indent:0;text-align:start;text-decoration:none;text-decoration-line:none;text-decoration-style:solid;text-decoration-color:#000000;letter-spacing:normal;word-spacing:normal;text-transform:none;writing-mode:lr-tb;direction:ltr;text-orientation:mixed;dominant-baseline:auto;baseline-shift:baseline;text-anchor:start;white-space:normal;shape-padding:0;clip-rule:nonzero;display:inline;overflow:visible;visibility:visible;isolation:auto;mix-blend-mode:normal;color-interpolation:sRGB;color-interpolation-filters:linearRGB;solid-color:#000000;solid-opacity:1;vector-effect:none;fill:#000000;fill-opacity:1;fill-rule:evenodd;stroke:none;stroke-width:1.05833;stroke-linecap:round;stroke-linejoin:round;stroke-miterlimit:4;stroke-dasharray:none;stroke-dashoffset:0;stroke-opacity:1;paint-order:markers fill stroke;color-rendering:auto;image-rendering:auto;shape-rendering:auto;text-rendering:auto;enable-background:accumulate" />
  <path
     id="path1251"
     d="m 57.310296,4.6197583 c 0.006,1.292484 -0.30361,2.007077 -1.74266,1.999794 -1.333389,-0.0067 -2.659459,-0.540676 -2.65031,-1.833153 0.009,-1.32067 1.218491,-2.140251 2.548311,-2.136539 1.432798,0.004 1.839319,0.78851 1.844659,1.969898 z"
     style="fill:#ffffff;fill-opacity:1;fill-rule:evenodd;stroke:none;stroke-width:0.485089;stroke-linecap:round;stroke-linejoin:round;paint-order:markers fill stroke" />
  <path
     id="path1262"
     d="m 57.031666,3.3491463 a 3.5864472,3.5864472 0 0 1 -2.836519,3.046843 c 0.41578,0.149448 0.89317,0.221351 1.372529,0.223759 1.43905,0.0073 1.748531,-0.707393 1.74253,-1.999877 -0.0021,-0.506913 -0.0791,-0.940258 -0.27854,-1.270725 z"
     style="fill:#cccccc;fill-opacity:1;fill-rule:evenodd;stroke:none;stroke-width:0.485089;stroke-linecap:round;stroke-linejoin:round;paint-order:markers fill stroke" />
  <ellipse
     cx="21.259903"
     cy="29.897926"
     rx="1.1515931"
     ry="2.1166668"
     id="ellipse1964"
     style="fill:#333333;fill-opacity:1;fill-rule:evenodd;stroke:none;stroke-width:0.625878;stroke-linecap:round;stroke-linejoin:round;paint-order:markers fill stroke" />
  <path
     id="path1591"
     d="m 31.357777,4.4198854 c -0.634211,-0.0073 -1.226265,0.059556 -1.841247,0.1634443 -0.647298,2.2814685 -0.09643,4.9853474 0.469753,6.9606683 -0.08316,0.469032 -0.152723,0.941263 -0.153995,1.418 v 0.0021 c 0,1.436606 0.370377,2.789672 1.019577,3.969266 h -0.001 c 0.01287,0.02337 0.02774,0.0455 0.04083,0.06873 0.06429,0.114197 0.131035,0.226661 0.200504,0.337447 0.02812,0.04482 0.05683,0.08908 0.08578,0.133324 0.07013,0.107235 0.142668,0.212529 0.217558,0.316261 0.01977,0.02738 0.03829,0.05555 0.05839,0.08268 0.09664,0.130489 0.197313,0.257918 0.301273,0.382405 0.02571,0.03077 0.05241,0.06056 0.07855,0.09095 0.08328,0.09685 0.168724,0.191839 0.256315,0.284737 0.02953,0.03131 0.05887,0.06269 0.08888,0.09353 0.110218,0.113344 0.223036,0.223803 0.339516,0.330729 0.0044,0.004 0.0085,0.0084 0.01292,0.0124 0.124214,0.113536 0.252497,0.222758 0.38344,0.328663 0.02537,0.02052 0.05138,0.04024 0.077,0.06046 0.112104,0.08852 0.226475,0.174093 0.34313,0.256834 0.02318,0.01643 0.0459,0.03341 0.06925,0.04961 0.140858,0.09775 0.283998,0.192074 0.430982,0.28112 0.139391,0.08444 0.282276,0.163494 0.426847,0.239779 0.03936,0.02077 0.07912,0.04082 0.118856,0.06098 0.120357,0.06104 0.24225,0.11944 0.365869,0.174667 0.02867,0.01281 0.05694,0.02626 0.08578,0.03876 0.155818,0.06748 0.313833,0.130648 0.47439,0.188618 0.02082,0.0075 0.04215,0.01383 0.06304,0.02119 0.135673,0.04775 0.273095,0.09156 0.411861,0.132291 0.04501,0.01322 0.09007,0.02629 0.135392,0.03876 0.147318,0.0405 0.296048,0.07768 0.446485,0.110069 0.01318,0.0028 0.02607,0.0065 0.03928,0.0093 0.166878,0.03507 0.335555,0.06411 0.505912,0.08888 0.0444,0.0065 0.08922,0.0113 0.133842,0.01705 0.129159,0.01663 0.259236,0.03028 0.390157,0.04083 0.04924,0.004 0.09831,0.0083 0.147794,0.01137 0.171767,0.01074 0.34444,0.01809 0.518832,0.01809 h 0.001 c 0.174392,0 0.347064,-0.0073 0.518832,-0.01809 0.04948,-0.0031 0.09855,-0.0074 0.147794,-0.01137 0.130921,-0.01055 0.260998,-0.0242 0.390157,-0.04083 0.04462,-0.0058 0.08944,-0.01059 0.133842,-0.01705 0.170566,-0.02481 0.339349,-0.05427 0.506431,-0.0894 0.01091,-0.0023 0.02166,-0.0049 0.03255,-0.0072 0.155766,-0.03341 0.309568,-0.0721 0.461989,-0.114205 0.04047,-0.01118 0.0807,-0.02284 0.120923,-0.03462 0.140509,-0.04115 0.279686,-0.08551 0.417028,-0.133842 0.0209,-0.0074 0.04223,-0.01367 0.06305,-0.02119 0.160557,-0.05797 0.318572,-0.121139 0.47439,-0.188618 0.02884,-0.0125 0.05711,-0.02595 0.08578,-0.03876 0.123619,-0.05523 0.245512,-0.113628 0.365869,-0.174667 0.03973,-0.02015 0.07949,-0.0402 0.118856,-0.06098 0.144571,-0.07629 0.287456,-0.155335 0.426847,-0.239779 0.146984,-0.08905 0.290123,-0.183369 0.430982,-0.28112 0.02335,-0.0162 0.04607,-0.03318 0.06925,-0.04961 0.116655,-0.08274 0.231026,-0.168318 0.34313,-0.256834 0.02562,-0.02022 0.05163,-0.03994 0.077,-0.06046 0.130943,-0.105905 0.259226,-0.215127 0.38344,-0.328663 0.0044,-0.004 0.0085,-0.0084 0.01292,-0.0124 0.11648,-0.106926 0.229298,-0.217385 0.339516,-0.330729 0.03001,-0.03085 0.05935,-0.06223 0.08888,-0.09353 0.08759,-0.0929 0.17304,-0.187884 0.256315,-0.284737 0.02614,-0.03039 0.05284,-0.06018 0.07855,-0.09095 0.10396,-0.124487 0.204631,-0.251916 0.301273,-0.382405 0.0201,-0.02713 0.03862,-0.05531 0.05839,-0.08268 0.07489,-0.103732 0.147429,-0.209026 0.217559,-0.316261 0.02895,-0.04424 0.05766,-0.0885 0.08578,-0.133324 0.06947,-0.110786 0.136218,-0.22325 0.200504,-0.337447 0.01309,-0.02323 0.02796,-0.04536 0.04083,-0.06873 h -10e-4 c 0.6492,-1.179594 1.019577,-2.53266 1.019577,-3.969266 v -0.0021 c -0.0013,-0.476734 -0.07084,-0.948968 -0.153995,-1.418 0.566182,-1.9753209 1.113419,-4.7062185 0.466121,-6.954614 -0.614982,-0.103888 -1.203404,-0.1767986 -1.837615,-0.1694986 -1.395265,0.01599 -2.751437,0.320543 -3.690731,1.000972 -0.48595,-0.195826 -0.980001,-0.375441 -1.484146,-0.506944 v -0.0026 c -0.257591,-0.06641 -0.517824,-0.119936 -0.780831,-0.157097 -0.128087,-0.0181 -0.256593,-0.03262 -0.386024,-0.04237 -0.09625,-0.0073 -0.193397,-0.0093 -0.29042,-0.01137 -0.03625,-7.89e-4 -0.07216,-0.0041 -0.108522,-0.0041 h -10e-4 -0.0021 -0.0021 c -0.03566,9e-5 -0.0709,0.0033 -0.106455,0.0041 -0.09702,0.0021 -0.194172,0.0041 -0.29042,0.01137 -1.72e-4,1.3e-5 -3.47e-4,-1.4e-5 -5.16e-4,0 -0.02305,0.0017 -0.04573,0.0057 -0.06873,0.0078 -0.107217,0.0095 -0.214111,0.01985 -0.320394,0.03514 l -0.0036,5.19e-4 c -0.260567,0.03712 -0.518348,0.09025 -0.773597,0.156062 v 0.0026 c -0.504145,0.131503 -0.998196,0.311118 -1.484146,0.506944 -0.939294,-0.680429 -2.295466,-0.984986 -3.690731,-1.000972 z"
     style="fill:#000000;fill-opacity:1;fill-rule:evenodd;stroke:none;stroke-width:2.24896;stroke-linecap:square;stroke-linejoin:miter;stroke-miterlimit:4;stroke-dasharray:none;stroke-opacity:1;paint-order:markers fill stroke" />
  <path
     id="circle1705"
     d="m 12.7,5.5562494 c -0.306482,0.00308 -0.612478,0.025168 -0.916223,0.06615 0.223262,1.6731042 0.757607,3.2127301 0.744424,3.8959169 C 12.762973,8.9843151 13.479256,7.3825507 13.887009,5.6611564 13.494798,5.594372 13.097845,5.5592908 12.7,5.5562534 Z m -1.113626,0.09043 c -0.647179,0.099529 -1.278306,0.2844188 -1.8768879,0.549837 0.07547,1.2381633 0.5772499,2.4665574 1.4650269,2.9579593 -0.102232,-0.91317 -0.03893,-2.0536811 0.411861,-3.5077963 z m 2.491836,0.04341 c 0.379566,1.188492 0.259759,2.1864478 0.161232,3.4643883 0.887277,-0.4911259 1.388599,-1.7184361 1.464511,-2.9558923 -0.52056,-0.2314437 -1.06608,-0.40207 -1.625743,-0.508496 z M 7.3158331,12.055593 c -0.6627447,0.0302 -1.3677297,0.25673 -2.0091797,0.609782 -0.00701,0.09962 -0.012011,0.19938 -0.01499,0.299206 0.00126,0.640892 0.085683,1.278911 0.251148,1.898076 0.76174,-1.436382 2.3947908,-2.437937 2.7409158,-2.691309 -0.210145,-0.0665 -0.432704,-0.103798 -0.66249,-0.115239 -0.100531,-0.005 -0.2024301,-0.0052 -0.3054081,-5.16e-4 z m 10.7683349,0 c -0.102978,-0.0047 -0.204877,-0.0045 -0.305408,5.16e-4 -0.229786,0.01144 -0.452345,0.04874 -0.662491,0.115239 0.345549,0.252951 1.97393,1.251528 2.7373,2.684074 0.166066,-0.616665 0.251698,-1.252214 0.254765,-1.890841 -0.0015,-0.09893 -0.0049,-0.197828 -0.01034,-0.296623 -0.642696,-0.354525 -1.349481,-0.582091 -2.013831,-0.612365 z m -9.4652478,1.663596 c -0.989658,0 -2.2386198,0.587862 -2.9536318,1.540343 0.2463781,0.755211 0.6126176,1.46588 1.084688,2.104781 0.3275377,-1.973923 1.1219668,-2.833879 1.8689438,-3.645124 z m 8.1680068,0.0058 c 0.746977,0.811245 1.535559,1.665354 1.863098,3.639277 0.472772,-0.637431 0.840049,-1.346687 1.087789,-2.100647 -0.714534,-0.954841 -1.959803,-1.53863 -2.950887,-1.53863 z"
     style="fill:#999999;fill-opacity:1;fill-rule:evenodd;stroke:none;stroke-width:0.627991;stroke-linecap:square;stroke-linejoin:miter;stroke-miterlimit:4;stroke-dasharray:none;stroke-opacity:0.45098;paint-order:markers fill stroke" />
  <path
     id="circle1584"
     d="M 6.1913536,4.9764406 C 5.7783935,4.9816 5.377903,5.0352861 5.003829,5.1464561 L 4.7010051,5.2363731 4.6172894,5.5391969 C 4.1028237,7.3863665 4.597435,9.629531 5.1443889,11.503691 5.0501318,11.985058 4.9896354,12.47229 4.9883262,12.963033 v 0.0021 c 0,4.252816 3.4578244,7.712709 7.7106408,7.712708 4.252815,0 7.713224,-3.459893 7.713224,-7.712708 v -0.0021 -0.0021 C 20.409392,12.47542 20.34573,11.993826 20.251994,11.517647 20.80068,9.6408573 21.29891,7.3907379 20.783228,5.5392004 L 20.697445,5.2363731 20.396688,5.1464561 C 19.00718,4.7335304 17.26755,5.1046627 15.841927,6.003768 14.850001,5.5548809 13.792247,5.254663 12.701034,5.2518758 h -0.0021 C 11.612651,5.2524579 10.56116,5.5530508 9.5720289,5.9960165 8.5278092,5.3367386 7.3171494,4.9624238 6.1913568,4.9764406 Z m 0.00672,0.5694744 C 7.2755254,5.5325006 8.5091164,5.8950954 9.495028,6.5820273 10.489465,6.0820847 11.586965,5.821424 12.7,5.8208335 c 1.111271,0.00284 2.206555,0.2648924 3.198772,0.7653279 1.323211,-0.9247219 3.146624,-1.2868979 4.385262,-0.9188069 0.464119,1.6664017 -0.05377,3.9483058 -0.605131,5.8115315 0.106753,0.488105 0.162005,0.986063 0.164847,1.485698 0,3.945384 -3.198365,7.14375 -7.14375,7.14375 -3.9453839,0 -7.1437499,-3.198366 -7.1437499,-7.14375 0.00135,-0.502654 0.05573,-1.003763 0.162264,-1.495 C 5.168377,9.6081035 4.660939,7.3312435 5.1242961,5.6675778 5.439099,5.5740227 5.8301635,5.5505148 6.1980714,5.545915 Z"
     style="color:#000000;font-style:normal;font-variant:normal;font-weight:normal;font-stretch:normal;font-size:medium;line-height:normal;font-family:sans-serif;font-variant-ligatures:normal;font-variant-position:normal;font-variant-caps:normal;font-variant-numeric:normal;font-variant-alternates:normal;font-feature-settings:normal;text-indent:0;text-align:start;text-decoration:none;text-decoration-line:none;text-decoration-style:solid;text-decoration-color:#000000;letter-spacing:normal;word-spacing:normal;text-transform:none;writing-mode:lr-tb;direction:ltr;text-orientation:mixed;dominant-baseline:auto;baseline-shift:baseline;text-anchor:start;white-space:normal;shape-padding:0;clip-rule:nonzero;display:inline;overflow:visible;visibility:visible;isolation:auto;mix-blend-mode:normal;color-interpolation:sRGB;color-interpolation-filters:linearRGB;solid-color:#000000;solid-opacity:1;vector-effect:none;fill:#000000;fill-opacity:1;fill-rule:evenodd;stroke:none;stroke-width:1.13771;stroke-linecap:square;stroke-linejoin:miter;stroke-miterlimit:4;stroke-dasharray:none;stroke-dashoffset:0;stroke-opacity:1;paint-order:markers fill stroke;color-rendering:auto;image-rendering:auto;shape-rendering:auto;text-rendering:auto;enable-background:accumulate" />
  <path
     id="circle1614"
     d="M 6.6461062,6.659542 C 6.3972741,6.6638415 6.157125,6.7009906 5.9314211,6.7680625 5.569664,8.1181622 5.9317122,9.512133 6.440434,10.867554 A 10.862139,10.862139 0 0 1 8.8692262,7.4951499 C 8.1483874,6.9077911 7.3615502,6.6470939 6.6461062,6.659542 Z m 12.1077878,0 C 18.03845,6.647093 17.251613,6.9077911 16.530774,7.4951499 a 10.862139,10.862139 0 0 1 1.61954,1.9414837 7.606771,7.606771 0 0 1 0.05736,0.8743654 7.606771,7.606771 0 0 1 -7.60677,7.606771 A 7.606771,7.606771 0 0 1 6.2006553,16.503903 7.4083338,7.4083338 0 0 0 12.7,20.372917 7.4083338,7.4083338 0 0 0 20.108334,12.964584 7.4083338,7.4083338 0 0 0 19.827731,10.94972 c -0.0489,0.178289 -0.09783,0.356836 -0.148828,0.529166 A 7.1437502,7.1437502 0 0 0 19.226217,10.093441 C 19.576769,8.9852957 19.761821,7.8624543 19.46858,6.7680625 19.242877,6.7009914 19.002726,6.663842 18.753894,6.659542 Z"
     style="fill:#000000;fill-opacity:0.2;fill-rule:evenodd;stroke:none;stroke-width:0.627991;stroke-linecap:square;stroke-linejoin:miter;stroke-miterlimit:4;stroke-dasharray:none;stroke-opacity:0.45098;paint-order:markers fill stroke" />
  <path
     style="fill:#f5f5f5;fill-opacity:1;fill-rule:evenodd;stroke:none;stroke-width:0.278339;stroke-linecap:square;stroke-linejoin:miter;stroke-miterlimit:4;stroke-dasharray:none;stroke-opacity:1;paint-order:markers fill stroke"
     d="m 7.9036738,7.4260905 c -0.02778,-0.01936 -0.6061581,0.4554351 -0.6392381,0.4573351 -0.03308,0.0019 -0.7705937,-0.4450821 -0.7963337,-0.4227141 -0.02574,0.02237 0.42873,0.9769901 0.42013,1.0113091 -0.0086,0.03433 -0.579278,0.678921 -0.567408,0.712102 0.01187,0.03318 0.8150627,0.02561 0.8428427,0.04496 0.0091,0.0064 0.03051,0.109876 0.05426,0.234093 a 10.862138,10.862138 0 0 1 0.9379281,-1.225765 c -0.114486,-0.07831 -0.221716,-0.1515 -0.22686,-0.16588 -0.01188,-0.03318 0.0025,-0.6260891 -0.02532,-0.6454381 z"
     id="path1680" />
  <path
     id="path1682"
     d="m 17.464568,7.3995485 c 0.02778,-0.01936 0.606157,0.4554361 0.639237,0.4573351 0.03308,0.0019 0.770594,-0.4450821 0.796334,-0.4227141 0.02574,0.02237 -0.428729,0.9769901 -0.420129,1.0113091 0.0086,0.03433 0.579277,0.678921 0.567407,0.712102 -0.01187,0.03318 -0.815063,0.02561 -0.842843,0.04496 -0.0091,0.0064 -0.03051,0.109876 -0.05426,0.234093 a 10.862138,10.862138 0 0 0 -0.937927,-1.225764 c 0.114486,-0.07831 0.221715,-0.151501 0.226859,-0.165881 0.01188,-0.03318 -0.0025,-0.6260891 0.02532,-0.645438 z"
     style="fill:#f5f5f5;fill-opacity:1;fill-rule:evenodd;stroke:none;stroke-width:0.278339;stroke-linecap:square;stroke-linejoin:miter;stroke-miterlimit:4;stroke-dasharray:none;stroke-opacity:1;paint-order:markers fill stroke" />
  <g
     aria-label="redrawn by mind"
     id="text1310"
     style="font-style:normal;font-variant:normal;font-weight:normal;font-stretch:normal;font-size:1.41111px;line-height:1.25;font-family:'Segoe Print';-inkscape-font-specification:'Segoe Print, Normal';font-variant-ligatures:normal;font-variant-caps:normal;font-variant-numeric:normal;font-feature-settings:normal;text-align:start;letter-spacing:0px;word-spacing:0px;writing-mode:lr-tb;text-anchor:start;fill:#000000;fill-opacity:1;stroke:#000000;stroke-width:0.05;stroke-miterlimit:4;stroke-dasharray:none;stroke-opacity:1">
    <path
       d="m 2.4839121,32.770435 q 0.00689,-0.0124 0.016536,-0.03445 0.046853,-0.107487 0.086127,-0.168121 0.039274,-0.06132 0.086127,-0.117133 0.047542,-0.05581 0.086127,-0.08475 0.039274,-0.02894 0.070969,-0.03996 0.031695,-0.01171 0.061323,-0.01171 0.059945,0 0.097841,0.03652 0.037896,0.03583 0.037896,0.08406 0,0.02136 -0.01378,0.03858 -0.013091,0.01723 -0.040652,0.01723 -0.028939,0 -0.053055,-0.02549 -0.024805,-0.02549 -0.051676,-0.02549 -0.071658,0 -0.1984373,0.173632 -0.1267794,0.173633 -0.1543402,0.382406 -0.00689,0.05374 -0.026183,0.07097 -0.019292,0.01723 -0.054432,0.01723 -0.033762,0 -0.04892,-0.0503 -0.015158,-0.0503 -0.015158,-0.169499 0,-0.03238 0.00345,-0.142627 0.00413,-0.130224 0.016536,-0.210151 0.00207,-0.01309 0.00689,-0.06132 0.00482,-0.05306 0.011713,-0.07373 0.00758,-0.02067 0.029628,-0.03858 0.022738,-0.01792 0.04892,-0.01792 0.025494,0 0.037896,0.01654 0.013091,0.01585 0.013091,0.03445 0,0.02687 -0.01378,0.07579 -0.015847,0.05443 -0.018603,0.0751 -0.00207,0.02343 -0.00758,0.04892 -0.00689,0.02963 -0.01378,0.155718 l -6.89e-4,0.02549 z"
       style="font-style:normal;font-variant:normal;font-weight:normal;font-stretch:normal;font-size:1.41111px;font-family:'Segoe Print';-inkscape-font-specification:'Segoe Print, Normal';font-variant-ligatures:normal;font-variant-caps:normal;font-variant-numeric:normal;font-feature-settings:normal;text-align:start;writing-mode:lr-tb;text-anchor:start;stroke:#000000;stroke-width:0.05;stroke-miterlimit:4;stroke-dasharray:none;stroke-opacity:1"
       id="path1656" />
    <path
       d="m 3.6600668,32.810399 q 0,0.07028 -0.1247123,0.169498 -0.1240234,0.09922 -0.256315,0.09922 -0.1109319,0 -0.1715656,-0.06546 -0.059945,-0.06546 -0.059945,-0.18259 0,-0.197059 0.1329806,-0.374826 0.1329806,-0.177767 0.2907658,-0.177767 0.051676,0 0.08406,0.03376 0.033073,0.03376 0.033073,0.0813 0,0.106109 -0.1040418,0.203261 -0.1040418,0.09715 -0.2783635,0.190858 -0.035829,0.0186 -0.035829,0.04823 0,0.05719 0.033073,0.09164 0.033073,0.03445 0.097841,0.03445 0.148139,0 0.3024792,-0.163987 0.022738,-0.02274 0.034451,-0.02274 0.022049,0 0.022049,0.03514 z M 3.1811989,32.702912 q 0.2921439,-0.173633 0.2921439,-0.279053 0,-0.04134 -0.037207,-0.04134 -0.06339,0 -0.1433159,0.09302 -0.079237,0.09302 -0.111621,0.227376 z"
       style="font-style:normal;font-variant:normal;font-weight:normal;font-stretch:normal;font-size:1.41111px;font-family:'Segoe Print';-inkscape-font-specification:'Segoe Print, Normal';font-variant-ligatures:normal;font-variant-caps:normal;font-variant-numeric:normal;font-feature-settings:normal;text-align:start;writing-mode:lr-tb;text-anchor:start;stroke:#000000;stroke-width:0.05;stroke-miterlimit:4;stroke-dasharray:none;stroke-opacity:1"
       id="path1658" />
    <path
       d="m 4.2980979,32.758722 q -0.092328,0.148139 -0.1956812,0.228754 -0.1033528,0.07993 -0.1901692,0.07993 -0.066835,0 -0.1061088,-0.05099 -0.038585,-0.05168 -0.038585,-0.137115 0,-0.174321 0.1412488,-0.3576 0.1419379,-0.183279 0.3059243,-0.183279 0.071658,0 0.1329806,0.06132 l 0.096463,-0.450618 q 0.010335,-0.04616 0.037896,-0.06201 0.02825,-0.01585 0.044097,-0.01585 0.048231,0 0.048231,0.08544 0,0.01516 -0.031695,0.112999 -0.050298,0.151584 -0.095774,0.372759 -0.044786,0.220486 -0.044786,0.354155 0,0.137804 0.059945,0.137804 0.038585,0 0.079926,-0.02549 0.017226,-0.0124 0.032384,-0.0124 0.022049,0 0.022049,0.02894 0,0.03514 -0.062012,0.0813 -0.061323,0.04616 -0.1260904,0.04616 -0.1136881,0 -0.1136881,-0.219108 0,-0.03721 0.00345,-0.0751 z m -0.090261,-0.322461 q -0.111621,0 -0.221175,0.151585 -0.1095539,0.150895 -0.1095539,0.279052 0,0.08613 0.057189,0.08613 0.053743,0 0.1302245,-0.0565 0.07717,-0.0565 0.1584743,-0.179834 0.081304,-0.124023 0.081304,-0.186035 0,-0.03032 -0.02825,-0.06201 -0.027561,-0.03238 -0.068213,-0.03238 z"
       style="font-style:normal;font-variant:normal;font-weight:normal;font-stretch:normal;font-size:1.41111px;font-family:'Segoe Print';-inkscape-font-specification:'Segoe Print, Normal';font-variant-ligatures:normal;font-variant-caps:normal;font-variant-numeric:normal;font-feature-settings:normal;text-align:start;writing-mode:lr-tb;text-anchor:start;stroke:#000000;stroke-width:0.05;stroke-miterlimit:4;stroke-dasharray:none;stroke-opacity:1"
       id="path1660" />
    <path
       d="m 4.8761846,32.770435 q 0.00689,-0.0124 0.016536,-0.03445 0.046853,-0.107487 0.086127,-0.168121 0.039274,-0.06132 0.086127,-0.117133 0.047542,-0.05581 0.086127,-0.08475 0.039274,-0.02894 0.070969,-0.03996 0.031695,-0.01171 0.061323,-0.01171 0.059945,0 0.097841,0.03652 0.037896,0.03583 0.037896,0.08406 0,0.02136 -0.01378,0.03858 -0.013091,0.01723 -0.040652,0.01723 -0.028939,0 -0.053054,-0.02549 -0.024805,-0.02549 -0.051676,-0.02549 -0.071658,0 -0.1984373,0.173632 -0.1267795,0.173633 -0.1543402,0.382406 -0.00689,0.05374 -0.026183,0.07097 -0.019292,0.01723 -0.054432,0.01723 -0.033762,0 -0.04892,-0.0503 -0.015158,-0.0503 -0.015158,-0.169499 0,-0.03238 0.00345,-0.142627 0.00413,-0.130224 0.016536,-0.210151 0.00207,-0.01309 0.00689,-0.06132 0.00482,-0.05306 0.011713,-0.07373 0.00758,-0.02067 0.029628,-0.03858 0.022738,-0.01792 0.04892,-0.01792 0.025494,0 0.037896,0.01654 0.013091,0.01585 0.013091,0.03445 0,0.02687 -0.01378,0.07579 -0.015847,0.05443 -0.018604,0.0751 -0.00207,0.02343 -0.00758,0.04892 -0.00689,0.02963 -0.01378,0.155718 l -6.89e-4,0.02549 z"
       style="font-style:normal;font-variant:normal;font-weight:normal;font-stretch:normal;font-size:1.41111px;font-family:'Segoe Print';-inkscape-font-specification:'Segoe Print, Normal';font-variant-ligatures:normal;font-variant-caps:normal;font-variant-numeric:normal;font-feature-settings:normal;text-align:start;writing-mode:lr-tb;text-anchor:start;stroke:#000000;stroke-width:0.05;stroke-miterlimit:4;stroke-dasharray:none;stroke-opacity:1"
       id="path1662" />
    <path
       d="m 5.9200476,32.793173 q -0.096463,0.129536 -0.1908581,0.194303 -0.094396,0.06477 -0.1729437,0.06477 -0.053054,0 -0.09164,-0.04479 -0.038585,-0.04479 -0.038585,-0.115066 0,-0.181212 0.1619194,-0.389985 0.1619193,-0.209461 0.3217716,-0.209461 0.057878,0 0.086127,0.06614 0.00896,0.02205 0.02825,0.02205 0.055121,0 0.055121,0.04272 0,0.02136 -0.00689,0.05857 -0.037207,0.20326 -0.037207,0.286631 0,0.166743 0.06339,0.199816 0.030317,0.01654 0.030317,0.04065 0,0.02136 -0.029628,0.04272 -0.029628,0.02205 -0.057188,0.02205 -0.053054,0 -0.087505,-0.07304 -0.034451,-0.07304 -0.034451,-0.208084 z m -0.04203,-0.387917 q -0.09095,0 -0.2115287,0.170876 -0.1205783,0.170188 -0.1205783,0.282498 0,0.07924 0.052365,0.07924 0.075792,0 0.2101507,-0.152962 0.1343586,-0.152962 0.1343586,-0.28112 0,-0.09853 -0.064768,-0.09853 z"
       style="font-style:normal;font-variant:normal;font-weight:normal;font-stretch:normal;font-size:1.41111px;font-family:'Segoe Print';-inkscape-font-specification:'Segoe Print, Normal';font-variant-ligatures:normal;font-variant-caps:normal;font-variant-numeric:normal;font-feature-settings:normal;text-align:start;writing-mode:lr-tb;text-anchor:start;stroke:#000000;stroke-width:0.05;stroke-miterlimit:4;stroke-dasharray:none;stroke-opacity:1"
       id="path1664" />
    <path
       d="m 6.8295521,32.587846 q -0.019292,6.89e-4 -0.093018,0.160541 -0.060634,0.131602 -0.1240233,0.234955 -0.06339,0.102664 -0.093018,0.102664 -0.085438,0 -0.1584743,-0.253559 -0.072347,-0.254248 -0.072347,-0.409277 0,-0.0503 0.024805,-0.08337 0.025494,-0.03307 0.059945,-0.03583 0.00482,-6.89e-4 0.017226,6.89e-4 0.012402,6.89e-4 0.030317,0.02274 0.017914,0.02136 0.017914,0.04203 v 0.0028 q 0,0.0083 -0.00758,0.0689 -0.0062,0.04479 -0.0062,0.109554 0,0.102663 0.039274,0.226687 0.039274,0.124023 0.066146,0.124023 0.019292,0 0.1274684,-0.209462 0.068213,-0.13298 0.097841,-0.183279 l 0.022049,-0.04134 q 0.047542,-0.09095 0.090261,-0.125401 0.059256,0.0076 0.059256,0.05926 0,0.01723 -0.00276,0.02894 -0.00276,0.01171 -0.00276,0.02894 0,0.127468 0.066146,0.267339 0.066146,0.139182 0.094396,0.139182 0.02067,0 0.065457,-0.146072 0.060634,-0.198437 0.111621,-0.297656 0.051676,-0.09922 0.075792,-0.117822 0.024116,-0.0186 0.054432,-0.0186 0.017226,0 0.028939,0.01516 0.012402,0.01447 0.012402,0.03169 0,0.02549 -0.00758,0.03514 -0.085438,0.11231 -0.1639865,0.35071 -0.066835,0.204639 -0.091639,0.257004 -0.024805,0.05237 -0.041341,0.05237 -0.083371,0 -0.1364256,-0.06063 -0.053055,-0.06132 -0.1405598,-0.324528 -0.010335,-0.03101 -0.019982,-0.05443 z"
       style="font-style:normal;font-variant:normal;font-weight:normal;font-stretch:normal;font-size:1.41111px;font-family:'Segoe Print';-inkscape-font-specification:'Segoe Print, Normal';font-variant-ligatures:normal;font-variant-caps:normal;font-variant-numeric:normal;font-feature-settings:normal;text-align:start;writing-mode:lr-tb;text-anchor:start;stroke:#000000;stroke-width:0.05;stroke-miterlimit:4;stroke-dasharray:none;stroke-opacity:1"
       id="path1666" />
    <path
       d="m 7.9967499,32.514121 q -0.035829,0 -0.078548,0.04685 -0.04203,0.04685 -0.1288465,0.21015 -0.1143771,0.219108 -0.148139,0.249425 -0.033073,0.03032 -0.055122,0.03032 -0.081304,0 -0.081304,-0.07855 0,-0.03307 0.011024,-0.09371 0.037896,-0.208083 0.037896,-0.438904 0,-0.02618 0.022049,-0.05788 0.022738,-0.03238 0.042719,-0.03238 0.035829,0 0.050987,0.02205 0.015158,0.02205 0.015158,0.08888 0,0.06959 -0.041341,0.286632 -0.01378,0.07166 -0.01378,0.09095 0,0.01103 0.00551,0.01103 0.010335,0 0.095774,-0.164676 0.086127,-0.167431 0.1508951,-0.235644 0.064768,-0.06821 0.1426268,-0.06821 0.062012,0 0.1005967,0.0565 0.039274,0.0565 0.057189,0.206017 0.019293,0.170188 0.034451,0.212218 0.015847,0.04134 0.049609,0.04134 0.02136,0 0.053743,-0.01516 0.00551,-0.0028 0.00827,-0.0028 0.029628,0 0.029628,0.03445 0,0.03032 -0.040652,0.06477 -0.040652,0.03376 -0.097841,0.03376 -0.058567,0 -0.09095,-0.04616 Q 8.096657,32.918539 8.078054,32.716653 8.058762,32.514082 7.99675,32.514082 Z"
       style="font-style:normal;font-variant:normal;font-weight:normal;font-stretch:normal;font-size:1.41111px;font-family:'Segoe Print';-inkscape-font-specification:'Segoe Print, Normal';font-variant-ligatures:normal;font-variant-caps:normal;font-variant-numeric:normal;font-feature-settings:normal;text-align:start;writing-mode:lr-tb;text-anchor:start;stroke:#000000;stroke-width:0.05;stroke-miterlimit:4;stroke-dasharray:none;stroke-opacity:1"
       id="path1668" />
    <path
       d="m 9.153612,32.651924 q 0.088194,-0.160541 0.2108396,-0.25976 0.1226454,-0.09991 0.221175,-0.09991 0.054433,0 0.092329,0.0503 0.037896,0.0503 0.037896,0.122645 0,0.214285 -0.1619193,0.402387 Q 9.3927014,33.055 9.2128676,33.055 q -0.04892,0 -0.090261,-0.02618 -0.040652,-0.02687 -0.045475,-0.06683 -0.00276,-0.03238 -0.018604,-0.04823 -0.029628,-0.02963 -0.029628,-0.06339 0,-0.0627 0.034451,-0.268029 L 9.1343194,32.1703 q 0.036518,-0.207394 0.053055,-0.256315 0.017225,-0.04892 0.037896,-0.06546 0.020671,-0.01654 0.050987,-0.01654 0.048231,0 0.048231,0.08337 0,0.07924 -0.053055,0.221864 -0.050987,0.137115 -0.1178221,0.514697 z m -0.016537,0.229443 q 0.035829,0.06684 0.086816,0.06684 0.078548,0 0.1660534,-0.06477 0.087505,-0.06546 0.1508951,-0.183279 0.064079,-0.118512 0.064079,-0.199816 0,-0.03652 -0.013091,-0.0627 -0.013091,-0.02618 -0.033073,-0.02618 -0.095774,0 -0.2342663,0.157096 -0.1378037,0.156407 -0.1874131,0.312814 z"
       style="font-style:normal;font-variant:normal;font-weight:normal;font-stretch:normal;font-size:1.41111px;font-family:'Segoe Print';-inkscape-font-specification:'Segoe Print, Normal';font-variant-ligatures:normal;font-variant-caps:normal;font-variant-numeric:normal;font-feature-settings:normal;text-align:start;writing-mode:lr-tb;text-anchor:start;stroke:#000000;stroke-width:0.05;stroke-miterlimit:4;stroke-dasharray:none;stroke-opacity:1"
       id="path1670" />
    <path
       d="m 10.358016,32.800752 q -0.126779,0.110243 -0.223242,0.160542 -0.09577,0.04961 -0.1467606,0.04961 -0.068213,0 -0.1047309,-0.0565 -0.035829,-0.05719 -0.035829,-0.13298 0,-0.106109 0.042719,-0.261827 0.043408,-0.156407 0.064079,-0.185346 0.02136,-0.02963 0.067524,-0.02963 0.01929,0 0.0317,0.02274 0.0124,0.02274 0.0124,0.05168 0,0.01723 -0.01585,0.04479 -0.03721,0.06477 -0.03927,0.07166 -0.0014,0.0069 -0.026179,0.08337 -0.024805,0.07579 -0.024805,0.142627 0,0.02343 0.011024,0.07304 0.011713,0.04961 0.047541,0.04961 0.0379,0 0.09302,-0.02274 0.05581,-0.02343 0.125401,-0.07579 0.06959,-0.05237 0.09371,-0.08475 0.02412,-0.03238 0.03376,-0.07373 0.01034,-0.04134 0.01447,-0.179145 0.0041,-0.137804 0.06684,-0.137804 0.03721,0 0.04823,0.01998 0.01102,0.01929 0.01102,0.07441 0,0.04548 -0.0062,0.113688 -0.0076,0.08613 -0.0096,0.122645 -0.0096,0.18948 -0.04961,0.381027 -0.03927,0.190858 -0.115067,0.319016 -0.07579,0.128846 -0.208772,0.128846 -0.1350438,0 -0.2404637,-0.07097 -0.1047308,-0.07028 -0.1047308,-0.1192 0,-0.02274 0.010335,-0.04479 0.011024,-0.02205 0.027561,-0.02205 0.00827,0 0.017914,0.01309 0.090261,0.138492 0.2838725,0.138492 0.09991,0 0.167431,-0.175699 0.06821,-0.175011 0.0751,-0.328662 0.0014,-0.02963 0.0055,-0.05926 z"
       style="font-style:normal;font-variant:normal;font-weight:normal;font-stretch:normal;font-size:1.41111px;font-family:'Segoe Print';-inkscape-font-specification:'Segoe Print, Normal';font-variant-ligatures:normal;font-variant-caps:normal;font-variant-numeric:normal;font-feature-settings:normal;text-align:start;writing-mode:lr-tb;text-anchor:start;stroke:#000000;stroke-width:0.05;stroke-miterlimit:4;stroke-dasharray:none;stroke-opacity:1"
       id="path1672" />
    <path
       d="m 11.767059,32.498962 q -0.06408,0.0014 -0.274229,0.379649 -0.07097,0.127469 -0.08268,0.139182 -0.01171,0.01102 -0.04341,0.01998 -0.03101,0.009 -0.05168,0.009 -0.04616,0 -0.04616,-0.179834 0,-0.101286 0.04341,-0.366558 0.01791,-0.107487 0.01791,-0.153651 0,-0.04547 0.04065,-0.04547 0.07648,0 0.07648,0.110243 0,0.05168 -0.02549,0.202571 -0.02963,0.172255 -0.03032,0.209462 0.04272,-0.04134 0.125401,-0.181212 0.117133,-0.191547 0.172255,-0.242535 0.05581,-0.05168 0.115066,-0.05168 0.04479,0 0.07097,0.05994 0.02687,0.05994 0.03238,0.285942 0.0014,0.0565 0.01033,0.08406 0.009,0.02756 0.01309,0.02756 0.03238,0 0.14056,-0.220486 0.05788,-0.116444 0.11231,-0.177077 0.05512,-0.06063 0.121957,-0.06063 0.05581,0 0.0813,0.05788 0.02549,0.05719 0.03652,0.170187 0.01034,0.114377 0.0317,0.209462 0.02205,0.09508 0.07993,0.121956 0.03927,0.0186 0.03927,0.04341 0,0.02412 -0.03307,0.04961 -0.03307,0.02549 -0.06063,0.02549 -0.05512,0 -0.09853,-0.06752 -0.04341,-0.06752 -0.06546,-0.292144 -0.0096,-0.09026 -0.0186,-0.128158 -0.009,-0.0379 -0.02825,-0.0379 -0.02894,0 -0.0689,0.05512 -0.03927,0.05512 -0.127469,0.223931 -0.0689,0.131602 -0.104731,0.175699 -0.03514,0.04341 -0.06821,0.04341 -0.02963,0 -0.05306,-0.02343 -0.02343,-0.02412 -0.02963,-0.05719 -0.0062,-0.03376 -0.01309,-0.164675 -0.01033,-0.21773 -0.0379,-0.253559 z"
       style="font-style:normal;font-variant:normal;font-weight:normal;font-stretch:normal;font-size:1.41111px;font-family:'Segoe Print';-inkscape-font-specification:'Segoe Print, Normal';font-variant-ligatures:normal;font-variant-caps:normal;font-variant-numeric:normal;font-feature-settings:normal;text-align:start;writing-mode:lr-tb;text-anchor:start;stroke:#000000;stroke-width:0.05;stroke-miterlimit:4;stroke-dasharray:none;stroke-opacity:1"
       id="path1674" />
    <path
       d="m 12.919098,32.12138 q -0.01447,0 -0.02205,-0.03101 -0.0028,-0.0096 -0.0076,-0.02136 -0.0186,-0.04479 -0.0186,-0.07786 0,-0.02756 0.03238,-0.05581 0.03307,-0.02894 0.07304,-0.02894 0.01998,0 0.04479,0.01585 0.02481,0.01516 0.02481,0.02963 0,0.02274 -0.01723,0.07717 -0.01654,0.05443 -0.05374,0.07372 -0.03652,0.0186 -0.05581,0.0186 z m -0.09026,0.769634 q 0,0.05237 0.01447,0.117822 0.0028,0.0124 0.0028,0.02067 0,0.0124 -0.02274,0.03169 -0.02274,0.01998 -0.04823,0.01998 -0.06683,0 -0.06683,-0.122645 0,-0.12678 0.05237,-0.401009 0.01791,-0.09577 0.01791,-0.117822 0,-0.04341 0.01585,-0.07372 0.01585,-0.03101 0.04479,-0.03101 0.03514,0 0.05512,0.01723 0.02067,0.01654 0.02067,0.03721 0,0.02067 -0.0096,0.05443 -0.05168,0.181901 -0.06408,0.260449 -0.0124,0.07855 -0.0124,0.186724 z"
       style="font-style:normal;font-variant:normal;font-weight:normal;font-stretch:normal;font-size:1.41111px;font-family:'Segoe Print';-inkscape-font-specification:'Segoe Print, Normal';font-variant-ligatures:normal;font-variant-caps:normal;font-variant-numeric:normal;font-feature-settings:normal;text-align:start;writing-mode:lr-tb;text-anchor:start;stroke:#000000;stroke-width:0.05;stroke-miterlimit:4;stroke-dasharray:none;stroke-opacity:1"
       id="path1676" />
    <path
       d="m 13.574355,32.514121 q -0.03583,0 -0.07855,0.04685 -0.04203,0.04685 -0.128847,0.21015 -0.114377,0.219108 -0.148139,0.249425 -0.03307,0.03032 -0.05512,0.03032 -0.08131,0 -0.08131,-0.07855 0,-0.03307 0.01103,-0.09371 0.0379,-0.208083 0.0379,-0.438904 0,-0.02618 0.02205,-0.05788 0.02274,-0.03238 0.04272,-0.03238 0.03583,0 0.05099,0.02205 0.01516,0.02205 0.01516,0.08888 0,0.06959 -0.04134,0.286632 -0.01378,0.07166 -0.01378,0.09095 0,0.01103 0.0055,0.01103 0.01034,0 0.09577,-0.164676 0.08613,-0.167431 0.150896,-0.235644 0.06477,-0.06821 0.142626,-0.06821 0.06201,0 0.100597,0.0565 0.03927,0.0565 0.05719,0.206017 0.01929,0.170188 0.03445,0.212218 0.01585,0.04134 0.04961,0.04134 0.02136,0 0.05374,-0.01516 0.0055,-0.0028 0.0083,-0.0028 0.02963,0 0.02963,0.03445 0,0.03032 -0.04065,0.06477 -0.04065,0.03376 -0.09784,0.03376 -0.05857,0 -0.09095,-0.04616 -0.03169,-0.04685 -0.0503,-0.248736 -0.01929,-0.202571 -0.0813,-0.202571 z"
       style="font-style:normal;font-variant:normal;font-weight:normal;font-stretch:normal;font-size:1.41111px;font-family:'Segoe Print';-inkscape-font-specification:'Segoe Print, Normal';font-variant-ligatures:normal;font-variant-caps:normal;font-variant-numeric:normal;font-feature-settings:normal;text-align:start;writing-mode:lr-tb;text-anchor:start;stroke:#000000;stroke-width:0.05;stroke-miterlimit:4;stroke-dasharray:none;stroke-opacity:1"
       id="path1678" />
    <path
       d="m 14.534847,32.758722 q -0.09233,0.148139 -0.195681,0.228754 -0.103353,0.07993 -0.190169,0.07993 -0.06683,0 -0.106109,-0.05099 -0.03858,-0.05168 -0.03858,-0.137115 0,-0.174321 0.141249,-0.3576 0.141938,-0.183279 0.305924,-0.183279 0.07166,0 0.132981,0.06132 l 0.09646,-0.450618 q 0.01034,-0.04616 0.0379,-0.06201 0.02825,-0.01585 0.0441,-0.01585 0.04823,0 0.04823,0.08544 0,0.01516 -0.0317,0.112999 -0.0503,0.151584 -0.09577,0.372759 -0.04479,0.220486 -0.04479,0.354155 0,0.137804 0.05994,0.137804 0.03858,0 0.07993,-0.02549 0.01722,-0.0124 0.03238,-0.0124 0.02205,0 0.02205,0.02894 0,0.03514 -0.06201,0.0813 -0.06132,0.04616 -0.126091,0.04616 -0.113688,0 -0.113688,-0.219108 0,-0.03721 0.0034,-0.0751 z m -0.09026,-0.322461 q -0.111621,0 -0.221175,0.151585 -0.109554,0.150895 -0.109554,0.279052 0,0.08613 0.05719,0.08613 0.05374,0 0.130224,-0.0565 0.07717,-0.0565 0.158474,-0.179834 0.0813,-0.124023 0.0813,-0.186035 0,-0.03032 -0.02825,-0.06201 -0.02756,-0.03238 -0.06821,-0.03238 z"
       style="font-style:normal;font-variant:normal;font-weight:normal;font-stretch:normal;font-size:1.41111px;font-family:'Segoe Print';-inkscape-font-specification:'Segoe Print, Normal';font-variant-ligatures:normal;font-variant-caps:normal;font-variant-numeric:normal;font-feature-settings:normal;text-align:start;writing-mode:lr-tb;text-anchor:start;stroke:#000000;stroke-width:0.05;stroke-miterlimit:4;stroke-dasharray:none;stroke-opacity:1"
       id="path1680-7" />
  </g>
  <g
     aria-label="Made by"
     transform="matrix(1.0391195,0,0,1.0391195,6.4912883,45.542768)"
     id="text2072"
     style="font-style:italic;font-variant:normal;font-weight:bold;font-stretch:normal;font-size:2.03698px;line-height:1.25;font-family:Corbel;-inkscape-font-specification:'Corbel, Bold Italic';font-variant-ligatures:normal;font-variant-caps:normal;font-variant-numeric:normal;font-variant-east-asian:normal;text-align:start;letter-spacing:0px;word-spacing:0px;writing-mode:lr-tb;white-space:pre;shape-inside:url(#rect2074);fill:#000000;fill-opacity:1;stroke:none">
    <path
       d="m -0.96123094,-17.738068 q 0.0706179,-0.152176 0.30435344,-0.567927 l 0.22975701,-0.403815 h 0.32921893 l -0.27550949,1.3308 h -0.24268706 l 0.14223053,-0.634567 q 0.0358063,-0.159139 0.0905103,-0.377955 h -0.007957 q -0.0984673,0.210859 -0.38193373,0.710158 l -0.17505296,0.302364 H -1.1104238 l -0.1064243,-0.71911 q -0.021882,-0.14422 -0.03879,-0.293412 h -0.00796 q -0.01293,0.147203 -0.05172,0.349111 l -0.1342736,0.663411 H -1.692276 l 0.2755095,-1.3308 h 0.313305 l 0.059677,0.371987 q 0.036801,0.232741 0.0765856,0.599755 z"
       style="font-style:italic;font-variant:normal;font-weight:bold;font-stretch:normal;font-size:2.03698px;font-family:Corbel;-inkscape-font-specification:'Corbel, Bold Italic';font-variant-ligatures:normal;font-variant-caps:normal;font-variant-numeric:normal;font-variant-east-asian:normal"
       id="path1634" />
    <path
       d="m 0.75150314,-17.610756 q 0,0.02685 0.0139247,0.03879 0.0149193,0.01094 0.0407794,0.01094 0.028844,0 0.070618,-0.006 l -0.0407794,0.188977 q -0.0616664,0.01293 -0.11835967,0.01293 -0.0815588,0 -0.12432739,-0.0378 -0.041774,-0.03879 -0.0527148,-0.109408 h -0.003978 q -0.0686287,0.08454 -0.14819824,0.121343 -0.0785749,0.0368 -0.15416596,0.0368 -0.0646502,0 -0.11637044,-0.02387 -0.05172019,-0.02387 -0.08752648,-0.06763 -0.03580629,-0.04376 -0.05470405,-0.105429 -0.01889776,-0.06167 -0.01889776,-0.137258 0,-0.08056 0.01293005,-0.162123 0.01392466,-0.08156 0.04077938,-0.156155 0.02685472,-0.07559 0.06564486,-0.141236 0.03978476,-0.06564 0.09150496,-0.114381 0.0517202,-0.04874 0.11537581,-0.07659 0.0636556,-0.02785 0.13825206,-0.02785 0.0686287,0 0.1302951,0.02884 0.0616664,0.02884 0.10741886,0.09051 h 0.003978 l 0.0348117,-0.09548 h 0.20091305 l -0.13924667,0.671368 q -0.003978,0.0189 -0.005968,0.03581 -0.001989,0.01591 -0.001989,0.02487 z M 0.6142457,-18.099114 q -0.008952,-0.01293 -0.0238709,-0.02586 -0.0139247,-0.01392 -0.033817,-0.02387 -0.0188978,-0.01094 -0.0427686,-0.0179 -0.0228762,-0.007 -0.0497309,-0.007 -0.0467471,0 -0.0855372,0.02288 -0.0377955,0.02188 -0.0686287,0.05968 -0.0298386,0.0368 -0.0517202,0.08554 -0.0218816,0.04774 -0.0368009,0.09946 -0.0139247,0.05172 -0.020887,0.102446 -0.006962,0.04973 -0.006962,0.0925 0,0.08454 0.0258601,0.124327 0.0268547,0.03978 0.0775803,0.03978 0.0507256,0 0.10145115,-0.03382 0.0507256,-0.03481 0.0905103,-0.09449 0.0268547,-0.03978 0.0457525,-0.09051 0.0198924,-0.05073 0.0338171,-0.11637 z"
       style="font-style:italic;font-variant:normal;font-weight:bold;font-stretch:normal;font-size:2.03698px;font-family:Corbel;-inkscape-font-specification:'Corbel, Bold Italic';font-variant-ligatures:normal;font-variant-caps:normal;font-variant-numeric:normal;font-variant-east-asian:normal"
       id="path1636" />
    <path
       d="m 1.8475734,-17.610756 q 0,0.02288 0.011936,0.0368 0.01293,0.01293 0.042769,0.01293 0.027849,0 0.070618,-0.006 l -0.040779,0.188977 q -0.026855,0.006 -0.059677,0.009 -0.032822,0.004 -0.058682,0.004 -0.081559,0 -0.1243274,-0.0378 -0.041774,-0.03879 -0.052715,-0.109408 h -0.00398 q -0.068629,0.08454 -0.1481982,0.121343 -0.078575,0.0368 -0.154166,0.0368 -0.06465,0 -0.1163704,-0.02387 -0.05172,-0.02387 -0.087526,-0.06763 -0.035806,-0.04376 -0.054704,-0.105429 -0.018898,-0.06167 -0.018898,-0.137258 0,-0.08056 0.013925,-0.162123 0.013925,-0.08156 0.039785,-0.156155 0.026855,-0.07559 0.065645,-0.141236 0.03879,-0.06564 0.088521,-0.114381 0.050725,-0.04874 0.1113973,-0.07659 0.061666,-0.02785 0.133279,-0.02785 0.071613,0 0.1302951,0.02984 0.058682,0.02884 0.1014511,0.08952 h 0.00398 l 0.1183597,-0.571906 H 2.094239 l -0.2387086,1.147791 q -0.00398,0.0189 -0.00597,0.03581 -0.00199,0.01591 -0.00199,0.02487 z m -0.138252,-0.48438 q -0.00895,-0.01293 -0.023871,-0.02686 -0.013925,-0.01392 -0.032822,-0.02486 -0.018898,-0.01194 -0.042769,-0.0189 -0.022876,-0.008 -0.049731,-0.008 -0.046747,0 -0.085537,0.02288 -0.037796,0.02188 -0.067634,0.05968 -0.029839,0.0368 -0.052715,0.08554 -0.021882,0.04774 -0.036801,0.09946 -0.013925,0.05172 -0.020887,0.102446 -0.00696,0.04973 -0.00696,0.0925 0,0.08454 0.02586,0.124327 0.026855,0.03978 0.07758,0.03978 0.054704,0 0.1084135,-0.03879 0.053709,-0.03879 0.095483,-0.106424 0.043763,-0.0736 0.067634,-0.187983 z"
       style="font-style:italic;font-variant:normal;font-weight:bold;font-stretch:normal;font-size:2.03698px;font-family:Corbel;-inkscape-font-specification:'Corbel, Bold Italic';font-variant-ligatures:normal;font-variant-caps:normal;font-variant-numeric:normal;font-variant-east-asian:normal"
       id="path1638" />
    <path
       d="m 2.7934563,-18.103093 q 0,-0.03282 -0.02586,-0.05669 -0.02586,-0.02387 -0.078575,-0.02387 -0.039785,0 -0.081559,0.01591 -0.040779,0.01591 -0.07758,0.04774 -0.035806,0.03083 -0.06465,0.07658 -0.028844,0.04476 -0.045752,0.103441 0.1054297,0 0.1770422,-0.01393 0.071613,-0.01393 0.1153758,-0.0368 0.043763,-0.02288 0.062661,-0.05172 0.018898,-0.02984 0.018898,-0.06067 z m 0.2367194,0 q 0,0.08056 -0.039785,0.145215 -0.03879,0.06366 -0.1153758,0.109408 -0.076586,0.04476 -0.1889777,0.06863 -0.1123919,0.02387 -0.2586009,0.02387 -0.016909,0 -0.042769,-9.94e-4 v 0.006 q 0,0.05271 0.014919,0.0925 0.015914,0.03879 0.044758,0.06366 0.029839,0.02486 0.071613,0.0368 0.041774,0.01094 0.093494,0.01094 0.07758,0 0.1631175,-0.0189 0.085537,-0.0189 0.1491929,-0.05072 l -0.042769,0.206881 q -0.061666,0.02486 -0.141236,0.03978 -0.078575,0.01591 -0.1680906,0.01591 -0.1064242,0 -0.1849991,-0.02884 -0.078575,-0.02884 -0.1302951,-0.08056 -0.050726,-0.05271 -0.075591,-0.124327 -0.024866,-0.07161 -0.024866,-0.158145 0,-0.07659 0.015914,-0.152176 0.015914,-0.07559 0.046747,-0.14422 0.030833,-0.06962 0.076586,-0.128306 0.045752,-0.05968 0.1054296,-0.102446 0.060672,-0.04376 0.1352682,-0.06863 0.074597,-0.02487 0.1621229,-0.02487 0.076586,0 0.1382521,0.0189 0.061666,0.0189 0.104435,0.05371 0.043763,0.03382 0.067634,0.08255 0.023871,0.04874 0.023871,0.108413 z"
       style="font-style:italic;font-variant:normal;font-weight:bold;font-stretch:normal;font-size:2.03698px;font-family:Corbel;-inkscape-font-specification:'Corbel, Bold Italic';font-variant-ligatures:normal;font-variant-caps:normal;font-variant-numeric:normal;font-variant-east-asian:normal"
       id="path1640" />
    <path
       d="m 3.8189083,-17.755971 q -0.00597,0.02984 -0.00796,0.04675 -9.946e-4,0.01591 -9.946e-4,0.02884 0,0.06067 0.028844,0.09747 0.029838,0.03581 0.087526,0.03581 0.048736,0 0.089516,-0.02089 0.040779,-0.02089 0.073602,-0.0557 0.033817,-0.03581 0.059677,-0.08156 0.02586,-0.04675 0.042769,-0.09747 0.017903,-0.05172 0.026855,-0.10344 0.00895,-0.05271 0.00895,-0.09946 0,-0.03382 -0.00796,-0.06366 -0.00696,-0.03083 -0.022876,-0.05371 -0.014919,-0.02387 -0.040779,-0.0368 -0.024865,-0.01393 -0.060672,-0.01393 -0.032822,0 -0.070618,0.01393 -0.036801,0.01393 -0.070618,0.04476 -0.032822,0.03083 -0.060672,0.07857 -0.026855,0.04675 -0.040779,0.114381 z m 0.1322843,-0.645508 q -0.017903,0.07758 -0.036801,0.145215 h 0.00398 q 0.017903,-0.02089 0.042769,-0.03978 0.024865,-0.01989 0.055699,-0.03581 0.030833,-0.01591 0.067634,-0.02487 0.036801,-0.0099 0.078575,-0.0099 0.061666,0 0.1163704,0.02188 0.055699,0.02188 0.096478,0.06564 0.040779,0.04277 0.06465,0.107418 0.023871,0.06465 0.023871,0.150188 0,0.0736 -0.014919,0.152177 -0.013925,0.07758 -0.043763,0.152176 -0.028844,0.0746 -0.074596,0.140242 -0.045752,0.06564 -0.1084135,0.115375 -0.061666,0.04973 -0.1422305,0.07858 -0.079569,0.02884 -0.1780368,0.02884 -0.07758,0 -0.1382521,-0.02387 -0.060672,-0.02387 -0.1034404,-0.06465 -0.041774,-0.04078 -0.06465,-0.09648 -0.021882,-0.05669 -0.021882,-0.120349 0,-0.02586 0.00298,-0.05271 0.00298,-0.02785 0.011936,-0.07261 l 0.2158323,-1.034404 h 0.2347301 z"
       style="font-style:italic;font-variant:normal;font-weight:bold;font-stretch:normal;font-size:2.03698px;font-family:Corbel;-inkscape-font-specification:'Corbel, Bold Italic';font-variant-ligatures:normal;font-variant-caps:normal;font-variant-numeric:normal;font-variant-east-asian:normal"
       id="path1642" />
    <path
       d="m 4.600679,-18.342796 h 0.2397032 l 0.088521,0.422713 q 0.028844,0.139247 0.047742,0.255617 h 0.00597 q 0.055699,-0.115376 0.1233328,-0.241692 l 0.237714,-0.436638 h 0.2655633 l -0.5659383,0.996608 q -0.056693,0.09946 -0.1143812,0.18301 -0.056693,0.08355 -0.1243274,0.143225 -0.067634,0.06067 -0.1491929,0.09449 -0.081559,0.03382 -0.1849991,0.03382 -0.076586,0 -0.125322,-0.01293 l 0.039785,-0.186988 q 0.037796,0.007 0.076586,0.007 0.056693,0 0.1024458,-0.01989 0.046747,-0.0189 0.087527,-0.05769 0.041774,-0.03879 0.080564,-0.09747 0.03879,-0.05769 0.081559,-0.136263 z"
       style="font-style:italic;font-variant:normal;font-weight:bold;font-stretch:normal;font-size:2.03698px;font-family:Corbel;-inkscape-font-specification:'Corbel, Bold Italic';font-variant-ligatures:normal;font-variant-caps:normal;font-variant-numeric:normal;font-variant-east-asian:normal"
       id="path1644" />
  </g>
  <g
     aria-label="whis"
     transform="translate(0.84335978,41.258461)"
     id="text2064"
     style="font-style:normal;font-variant:normal;font-weight:normal;font-stretch:normal;font-size:3.52778px;line-height:1.25;font-family:'Know Your Product';-inkscape-font-specification:'Know Your Product, Normal';font-variant-ligatures:normal;font-variant-caps:normal;font-variant-numeric:normal;font-variant-east-asian:normal;text-align:start;letter-spacing:0px;word-spacing:0px;writing-mode:lr-tb;white-space:pre;shape-inside:url(#rect2068);fill:#fcdc56;fill-opacity:1;stroke:#b66314;stroke-width:0.529167;stroke-linejoin:round;stroke-miterlimit:4;stroke-dasharray:none;stroke-opacity:1;paint-order:stroke fill markers">
    <path
       d="m 2.6717531,-12.844813 q -0.1929255,0.199816 -0.1722549,0.430638 l 0.065457,0.106798 0.086127,0.280775 0.063734,0.106798 0.043064,0.108521 0.043064,0.06373 0.022393,0.08613 q 0.068902,0.09646 0.084405,0.192926 l 0.043064,0.06546 0.043064,0.149861 q 0.1240236,0.151585 0.1722549,0.280776 l 0.022393,0.106798 v 0.258382 l 0.020671,0.129191 q 0.08096,0.07579 0.1085206,0.151585 0.1016304,0.02067 0.1722549,0.02067 h 0.063734 l 0.065457,0.02239 q 0.1774225,0 0.301446,0.02067 0.1171333,-0.167087 0.1291912,-0.322117 -0.1085206,-0.156752 -0.1515843,-0.280775 l -0.063734,-0.106798 -0.022393,-0.151584 q -0.08096,-0.149862 -0.086127,-0.279053 -0.1291912,-0.220487 -0.1722549,-0.408244 l -0.043064,-0.06546 -0.020671,-0.08613 v -0.06373 l -0.043064,-0.08613 -0.022393,-0.06546 -0.020671,-0.08613 -0.1946481,-0.537435 -0.043064,-0.02239 q -0.2738852,0.05512 -0.4943715,-0.02067 z m 1.1833911,0.02067 q -0.1877579,0.248047 -0.1722549,0.516765 l 0.043064,0.04306 0.022393,0.06546 q 0.091295,0.144694 0.1067981,0.279053 l 0.043064,0.02239 q 0.1825902,0.41858 0.2377117,0.70969 l 0.043064,0.172255 q 0.1498618,0.225654 0.1498618,0.451308 0.106798,0.118856 0.1498617,0.237712 0.4306373,0.0689 0.7544764,-0.02239 0.020671,-0.101631 0.020671,-0.172255 -0.053399,-0.167088 -0.106798,-0.258383 -0.091295,-0.155029 -0.1291912,-0.279053 l -0.022393,-0.08613 -0.063734,-0.08613 q -0.048231,-0.151585 -0.065457,-0.258383 -0.068902,-0.08613 -0.106798,-0.172255 l -0.022393,-0.06373 v -0.06546 l -0.043064,-0.06373 v -0.06546 Q 4.5596666,-12.167851 4.5011,-12.350441 q 0.015503,-0.124024 0,-0.215319 -0.086127,-0.0913 -0.106798,-0.192925 l -0.065457,-0.02239 q -0.26355,0.02239 -0.4737009,-0.04306 z m 1.3556459,0.06546 -0.043064,0.06373 q -0.025838,0.220486 -0.086127,0.366903 -0.025838,0.177423 -0.106798,0.322117 v 0.06546 l 0.043064,0.06373 0.043064,0.151584 q 0.053399,0.08613 0.063734,0.170532 l 0.043064,0.04306 v 0.06546 q 0.1464166,0.215319 0.194648,0.430637 l 0.086127,0.06373 0.106798,-0.387574 0.022393,-0.08613 0.043064,-0.08613 0.020671,-0.106798 0.043064,-0.08613 0.022393,-0.106798 0.020671,-0.06546 q 0.037896,-0.111966 0.043064,-0.192926 0.1825902,-0.318671 0.2153186,-0.602892 l -0.106798,-0.129191 q -0.3341745,0.0534 -0.6028921,0 z"
       style="font-style:normal;font-variant:normal;font-weight:normal;font-stretch:normal;font-size:3.52778px;font-family:'Know Your Product';-inkscape-font-specification:'Know Your Product, Normal';font-variant-ligatures:normal;font-variant-caps:normal;font-variant-numeric:normal;font-variant-east-asian:normal;fill:#fcdc56;fill-opacity:1;stroke:#b66314;stroke-width:0.529167;stroke-linejoin:round;stroke-miterlimit:4;stroke-dasharray:none;stroke-opacity:1;paint-order:stroke fill markers"
       id="path1647" />
    <path
       d="m 6.955732,-12.862038 q -0.022393,0.0379 -0.044786,0.04479 -0.2876656,-0.05512 -0.4857588,0.06546 l -0.044786,0.132636 0.022393,0.110243 -0.022393,0.132637 q 0.010335,0.03445 0,0.06718 v 0.06546 q 0.017226,0.172255 0,0.287666 l 0.022393,0.06718 v 0.618395 l 0.022393,0.04479 -0.022393,0.132637 q 0.044786,0.315226 -0.022393,0.552938 l 0.08785,0.220486 0.1774225,0.06718 q 0.210151,-0.08268 0.3979088,-0.04479 0.082682,-0.18259 0.1102431,-0.330729 -0.055121,-0.167088 -0.043064,-0.287666 v -0.08957 -0.132637 -0.110243 -0.132636 -0.08785 -0.24288 -0.08957 -0.08785 -0.06718 -0.08785 q -0.012058,-0.03273 0,-0.06546 l -0.022393,-0.177423 v -0.06718 q 0.010335,-0.160197 0.043064,-0.265273 l -0.020671,-0.132636 q -0.072347,-0.08785 -0.1550294,-0.110243 z m 1.8793008,0 q -0.2652725,0.08785 -0.5081519,0.02239 l -0.1550294,0.08785 -0.022393,0.06718 v 0.530545 l 0.022393,0.110244 0.022393,0.375515 q -0.012058,0.18259 0.022393,0.332452 l -0.022393,0.06546 v 0.222209 q -0.027561,0.392741 0,0.640788 0.037896,0.02239 0.043064,0.04479 0.089573,0.03273 0.1774226,0.02239 h 0.08785 q 0.2049833,0.04995 0.354845,0.04306 l 0.08785,-0.110243 0.022393,-0.132636 v -0.110243 q -0.044786,-0.165365 -0.044786,-0.287666 l 0.022393,-0.132636 q -0.027561,-0.270441 0.022393,-0.465089 v -0.06546 q -0.022393,-0.03273 -0.022393,-0.06718 v -0.220486 l -0.022393,-0.06718 0.022393,-0.06546 v -0.06718 -0.1757 q -0.015503,-0.199815 0.022393,-0.354845 -0.044786,-0.148139 -0.1326363,-0.242879 z m -1.4159352,0.995633 -0.1326362,0.110243 q -0.032729,0.310059 0.067179,0.552938 l 0.4857588,-0.04479 0.067179,0.02239 q 0.1756999,-0.342787 0.065457,-0.640788 -0.2928333,0.0155 -0.5081519,-0.04479 z"
       style="font-style:normal;font-variant:normal;font-weight:normal;font-stretch:normal;font-size:3.52778px;font-family:'Know Your Product';-inkscape-font-specification:'Know Your Product, Normal';font-variant-ligatures:normal;font-variant-caps:normal;font-variant-numeric:normal;font-variant-east-asian:normal;fill:#fcdc56;fill-opacity:1;stroke:#b66314;stroke-width:0.529167;stroke-linejoin:round;stroke-miterlimit:4;stroke-dasharray:none;stroke-opacity:1;paint-order:stroke fill markers"
       id="path1649" />
    <path
       d="m 9.362133,-12.753518 v 0.06373 q 0,0.141249 -0.022393,0.239434 0.022393,0.111966 0,0.215319 l 0.022393,0.10852 -0.022393,0.08613 v 0.606337 l 0.022393,0.06373 v 0.54088 q 0,0.16192 -0.022393,0.260105 l 0.022393,0.129192 q 0.048231,0.10852 0.106798,0.172254 h 0.065457 l 0.065457,0.02239 q 0.1722549,-0.08096 0.3669029,-0.04306 0.048231,-0.173978 0.1085201,-0.280776 v -0.151584 l -0.02239,-0.108521 -0.02067,-0.151584 0.02067,-0.04306 q -0.02067,-0.03273 -0.02067,-0.06546 v -0.258383 q -0.02239,-0.07062 -0.02239,-0.130913 l 0.02239,-0.08613 v -0.08613 -0.237712 -0.08613 -0.08785 -0.08613 -0.06373 -0.08785 q 0,-0.106798 -0.02239,-0.172255 0.02239,-0.204983 0,-0.346232 l -0.043063,-0.02067 q -0.2859431,0.03101 -0.4978166,-0.02239 z"
       style="font-style:normal;font-variant:normal;font-weight:normal;font-stretch:normal;font-size:3.52778px;font-family:'Know Your Product';-inkscape-font-specification:'Know Your Product, Normal';font-variant-ligatures:normal;font-variant-caps:normal;font-variant-numeric:normal;font-variant-east-asian:normal;fill:#fcdc56;fill-opacity:1;stroke:#b66314;stroke-width:0.529167;stroke-linejoin:round;stroke-miterlimit:4;stroke-dasharray:none;stroke-opacity:1;paint-order:stroke fill markers"
       id="path1651" />
    <path
       d="m 11.660013,-12.777633 -0.02239,0.04479 q 0.01206,0.08268 0,0.155029 v 0.311782 q 0.218763,0.09474 0.268717,0.268717 l 0.110243,0.04479 q 0.184313,-0.02928 0.334175,0 0.458198,-0.630453 -0.53399,-0.892281 z m -0.334175,-0.04479 q -0.03273,0.02239 -0.06546,0.02239 h -0.179145 q -0.134358,0.05512 -0.244602,0.04479 -0.713135,0.685574 0.02239,1.224732 l 0.06718,0.04479 0.06546,0.06718 0.08957,0.02239 0.06718,0.06718 q 0.03962,0.02239 0.04479,0.04479 l 0.04479,0.02239 q 0.366903,0.137804 0.578777,0.334174 -0.339342,0.327284 -0.111966,0.623563 0.296278,0.07235 0.468533,-0.134359 0.329007,-0.18259 0.334175,-0.53399 0,-0.211874 -0.04479,-0.356568 -0.117134,-0.117133 -0.177423,-0.223931 -0.139526,-0.02756 -0.223931,-0.08785 -0.08268,-0.04995 -0.132637,-0.111966 l -0.08957,-0.02239 -0.08957,-0.02239 -0.132636,-0.08957 q -0.241157,-0.03273 -0.401354,-0.110243 v -0.134358 q 0.289388,-0.329007 0.110243,-0.690743 z m -0.912951,1.894804 q 0.234267,0.745864 0.935344,0.668349 0.284221,-0.311781 -0.155029,-0.645956 l -0.02239,-0.156752 -0.06718,-0.06718 q -0.301447,0.02756 -0.51332,-0.04479 z"
       style="font-style:normal;font-variant:normal;font-weight:normal;font-stretch:normal;font-size:3.52778px;font-family:'Know Your Product';-inkscape-font-specification:'Know Your Product, Normal';font-variant-ligatures:normal;font-variant-caps:normal;font-variant-numeric:normal;font-variant-east-asian:normal;fill:#fcdc56;fill-opacity:1;stroke:#b66314;stroke-width:0.529167;stroke-linejoin:round;stroke-miterlimit:4;stroke-dasharray:none;stroke-opacity:1;paint-order:stroke fill markers"
       id="path1653" />
  </g>
</svg>
