<svg width="256" height="128" version="1.1" viewBox="0 0 67.733 33.867" xmlns="http://www.w3.org/2000/svg">
 <defs>
  <clipPath id="a">
   <path d="m39.49 21.982a9.6292 9.6292 0 0 1-2.5135-7.1e-5l1.2565-9.5466zm-1.2569-9.5467 5.8614 7.6394a9.6292 9.6292 0 0 1-2.1767 1.2568zm0 0 8.8962 3.6853a9.6292 9.6292 0 0 1-1.2567 2.1766zm0 0 9.5467-1.2569a9.6292 9.6292 0 0 1-6.9e-5 2.5135zm0 0 7.6394-5.8614a9.6292 9.6292 0 0 1 1.2568 2.1767zm0 0 3.6853-8.8962a9.6292 9.6292 0 0 1 2.1766 1.2567zm0 0-1.2569-9.5467a9.6292 9.6292 0 0 1 2.5135 7.09e-5zm0 0-5.8614-7.6394a9.6292 9.6292 0 0 1 2.1767-1.2568zm0 0-8.8962-3.6853a9.6292 9.6292 0 0 1 1.2567-2.1766zm0 0-9.5467 1.2569a9.6292 9.6292 0 0 1 7.2e-5 -2.5135zm0 0-7.6394 5.8614a9.6292 9.6292 0 0 1-1.2568-2.1767zm0 0-3.6853 8.8962a9.6292 9.6292 0 0 1-2.1766-1.2567z" fill="#00f" fill-opacity=".5" style="paint-order:stroke fill markers"/>
  </clipPath>
 </defs>
 <circle transform="matrix(1 0 0 -1 0 25.4)" cx="38.232" cy="12.435" r="7.9044" clip-path="url(#a)" fill="none" stroke="#000" stroke-linecap="square" stroke-opacity=".4" stroke-width=".79375" style="paint-order:normal"/>
</svg>
